<?xml version="1.0" encoding="UTF-8"?>
<svg id="uuid-46f752b5-e96a-4bbb-9cb4-4877849520fc" data-name="Layer 1" xmlns="http://www.w3.org/2000/svg" width="796.876" height="233.697" xmlns:xlink="http://www.w3.org/1999/xlink" viewBox="0 0 796.876 233.697">
  <defs>
    <style>
      .uuid-b9f0ac3d-5b39-4eac-9284-373c736f0303, .uuid-03e1d9af-c99e-4f42-9b53-61c5e3ceb05e, .uuid-b5bb72ba-9048-4eb5-85aa-1a452784d610, .uuid-85294066-79dc-49c0-a2eb-079d4dab1abf, .uuid-fd4f5718-7ab1-4fe4-b8f3-1eb8310ebbcd, .uuid-9f9d5e81-35a1-4f31-84e4-ffa51693bbb6, .uuid-cf26675c-4544-44d3-bac1-8693ac3ea235, .uuid-1530fda3-9bf4-4ff1-9b4b-556c41f372b4, .uuid-1f5ddb0f-e0aa-4123-8a27-9a5b21afae17 {
        fill: none;
      }

      .uuid-dfb3fa30-a7ca-4405-bd64-fcb5199a4867, .uuid-85294066-79dc-49c0-a2eb-079d4dab1abf, .uuid-cf26675c-4544-44d3-bac1-8693ac3ea235 {
        stroke: #5b5b5b;
        stroke-linecap: round;
        stroke-linejoin: round;
      }

      .uuid-dfb3fa30-a7ca-4405-bd64-fcb5199a4867, .uuid-ba608075-7438-4183-828d-8b6e355cdbce, .uuid-d53ef07b-0aae-47a7-95b3-61c76475e4eb, .uuid-5226e0ad-defc-4bc8-b7a9-9d666e81618c {
        fill: #fff;
      }

      .uuid-dfb3fa30-a7ca-4405-bd64-fcb5199a4867, .uuid-cf26675c-4544-44d3-bac1-8693ac3ea235 {
        stroke-width: 1.5px;
      }

      .uuid-169854b1-0fc0-4bd0-8a0f-aca6b45b8ce3 {
        fill: #3f9c35;
      }

      .uuid-03e1d9af-c99e-4f42-9b53-61c5e3ceb05e {
        stroke: #f2f7e6;
      }

      .uuid-03e1d9af-c99e-4f42-9b53-61c5e3ceb05e, .uuid-b5bb72ba-9048-4eb5-85aa-1a452784d610, .uuid-fd4f5718-7ab1-4fe4-b8f3-1eb8310ebbcd, .uuid-9f9d5e81-35a1-4f31-84e4-ffa51693bbb6, .uuid-d53ef07b-0aae-47a7-95b3-61c76475e4eb, .uuid-1530fda3-9bf4-4ff1-9b4b-556c41f372b4, .uuid-1f5ddb0f-e0aa-4123-8a27-9a5b21afae17, .uuid-5226e0ad-defc-4bc8-b7a9-9d666e81618c {
        stroke-miterlimit: 10;
      }

      .uuid-03e1d9af-c99e-4f42-9b53-61c5e3ceb05e, .uuid-1f5ddb0f-e0aa-4123-8a27-9a5b21afae17 {
        stroke-width: .75px;
      }

      .uuid-6515b30d-2ba0-47ab-a89f-e72132d2310c {
        fill: #151515;
      }

      .uuid-b5bb72ba-9048-4eb5-85aa-1a452784d610, .uuid-1f5ddb0f-e0aa-4123-8a27-9a5b21afae17, .uuid-5226e0ad-defc-4bc8-b7a9-9d666e81618c {
        stroke: #fddbdb;
      }

      .uuid-3c2ec8da-a60f-4b91-92d4-d00082bb1636 {
        fill: #d2d2d2;
      }

      .uuid-426c0991-a4ec-4048-9d6f-589ff005af06 {
        clip-path: url(#uuid-ef91fbb8-a18c-481c-b2a8-2d1f9e6bb1c4);
      }

      .uuid-85294066-79dc-49c0-a2eb-079d4dab1abf, .uuid-1530fda3-9bf4-4ff1-9b4b-556c41f372b4 {
        stroke-width: 2px;
      }

      .uuid-b4f9ccb2-01a8-4119-bc14-db6896654c1b {
        clip-path: url(#uuid-64af87b1-4423-47cf-a503-321e495b9b6d);
      }

      .uuid-960bfd20-2094-4050-9607-09b293d4eaef {
        fill: #be0000;
      }

      .uuid-19b42d3c-062a-4d97-9cb3-96990a3d4b37 {
        fill: #06c;
      }

      .uuid-fd4f5718-7ab1-4fe4-b8f3-1eb8310ebbcd {
        stroke: #be0000;
      }

      .uuid-9f9d5e81-35a1-4f31-84e4-ffa51693bbb6, .uuid-d53ef07b-0aae-47a7-95b3-61c76475e4eb {
        stroke: #3f9c35;
      }

      .uuid-1530fda3-9bf4-4ff1-9b4b-556c41f372b4 {
        stroke: #06c;
      }

      .uuid-ff1eea68-c42f-445b-bd67-445f4a1a4d43 {
        fill: #fddbdb;
      }

      .uuid-0b5e5fad-084c-40a3-84df-5fca4d9a22a1 {
        fill: #e8e8e8;
      }
    </style>
    <clipPath id="uuid-ef91fbb8-a18c-481c-b2a8-2d1f9e6bb1c4">
      <rect class="uuid-b9f0ac3d-5b39-4eac-9284-373c736f0303" x="44.306" y="87.705" width="86.026" height="82.552"/>
    </clipPath>
    <clipPath id="uuid-64af87b1-4423-47cf-a503-321e495b9b6d">
      <rect class="uuid-b9f0ac3d-5b39-4eac-9284-373c736f0303" x="476.193" y="87.705" width="86.026" height="82.552"/>
    </clipPath>
  </defs>
  <rect class="uuid-ba608075-7438-4183-828d-8b6e355cdbce" x="22.19" width="774.686" height="233.697"/>
  <g class="uuid-426c0991-a4ec-4048-9d6f-589ff005af06">
    <g id="uuid-6f28d0a1-e85c-433f-986f-8d1efaa72789" data-name="g128">
      <g id="uuid-ad174d8a-cd50-48cf-86f7-9c23bd078a71" data-name="g126">
        <line id="uuid-2392ed6c-b0cf-46d4-b48c-f60661579396" data-name="line20" class="uuid-1f5ddb0f-e0aa-4123-8a27-9a5b21afae17" x1=".265" y1="128.628" x2="86.312" y2="42.582"/>
        <line id="uuid-24177b42-1eff-4222-8b16-5dde9e17a965" data-name="line22" class="uuid-1f5ddb0f-e0aa-4123-8a27-9a5b21afae17" x1="1.924" y1="130.286" x2="87.97" y2="44.24"/>
        <line id="uuid-55cc3615-2956-4878-884b-3df651c09ca8" data-name="line24" class="uuid-1f5ddb0f-e0aa-4123-8a27-9a5b21afae17" x1="3.582" y1="131.945" x2="89.628" y2="45.898"/>
        <line id="uuid-1f94b8d2-74e4-4a69-98e4-a82cfbacd088" data-name="line26" class="uuid-1f5ddb0f-e0aa-4123-8a27-9a5b21afae17" x1="5.24" y1="133.603" x2="91.286" y2="47.556"/>
        <line id="uuid-56f537e0-7402-4f85-9bb2-b23a24553810" data-name="line28" class="uuid-1f5ddb0f-e0aa-4123-8a27-9a5b21afae17" x1="6.898" y1="135.261" x2="92.945" y2="49.214"/>
        <line id="uuid-7d344356-2f56-495c-9eb9-1d9377d33ef9" data-name="line30" class="uuid-1f5ddb0f-e0aa-4123-8a27-9a5b21afae17" x1="8.556" y1="136.919" x2="94.603" y2="50.873"/>
        <line id="uuid-36740f59-0ddf-4689-9c5c-8b7be4ddab6d" data-name="line32" class="uuid-1f5ddb0f-e0aa-4123-8a27-9a5b21afae17" x1="10.214" y1="138.577" x2="96.261" y2="52.531"/>
        <line id="uuid-0878fd15-f193-4336-9e2f-e9e490bdd890" data-name="line34" class="uuid-1f5ddb0f-e0aa-4123-8a27-9a5b21afae17" x1="11.873" y1="140.236" x2="97.919" y2="54.189"/>
        <line id="uuid-ca24f21a-76eb-47c2-ad83-58ca83e81884" data-name="line36" class="uuid-1f5ddb0f-e0aa-4123-8a27-9a5b21afae17" x1="13.531" y1="141.894" x2="99.577" y2="55.847"/>
        <line id="uuid-1b131b97-593d-4843-9b09-e35039a314fe" data-name="line38" class="uuid-1f5ddb0f-e0aa-4123-8a27-9a5b21afae17" x1="15.189" y1="143.552" x2="101.236" y2="57.505"/>
        <line id="uuid-e69589fb-2e1a-4c61-a639-cb27f8dd9ed9" data-name="line40" class="uuid-1f5ddb0f-e0aa-4123-8a27-9a5b21afae17" x1="16.847" y1="145.21" x2="102.894" y2="59.163"/>
        <line id="uuid-990b9fa2-c41d-4c2c-830d-46e1ba40ae61" data-name="line42" class="uuid-1f5ddb0f-e0aa-4123-8a27-9a5b21afae17" x1="18.505" y1="146.868" x2="104.552" y2="60.822"/>
        <line id="uuid-1f2b3a29-73f8-4e5f-bb98-2f08c1591aca" data-name="line44" class="uuid-1f5ddb0f-e0aa-4123-8a27-9a5b21afae17" x1="20.164" y1="148.526" x2="106.21" y2="62.48"/>
        <line id="uuid-850a3a2e-5490-459d-9167-4c29fcbcefe9" data-name="line46" class="uuid-1f5ddb0f-e0aa-4123-8a27-9a5b21afae17" x1="21.822" y1="150.185" x2="107.868" y2="64.138"/>
        <line id="uuid-9f499be7-8ab3-4661-ad8d-ef0acd021cd8" data-name="line48" class="uuid-1f5ddb0f-e0aa-4123-8a27-9a5b21afae17" x1="23.48" y1="151.843" x2="109.527" y2="65.796"/>
        <line id="uuid-5095fbb3-6953-4ad2-bd71-b61d01b68738" data-name="line50" class="uuid-1f5ddb0f-e0aa-4123-8a27-9a5b21afae17" x1="25.138" y1="153.501" x2="111.185" y2="67.454"/>
        <line id="uuid-07e0809b-69ca-4263-ac24-120cc8e41240" data-name="line52" class="uuid-1f5ddb0f-e0aa-4123-8a27-9a5b21afae17" x1="26.796" y1="155.159" x2="112.843" y2="69.113"/>
        <line id="uuid-f662006b-67f7-40ef-aae4-dd67a055cbc2" data-name="line54" class="uuid-1f5ddb0f-e0aa-4123-8a27-9a5b21afae17" x1="28.454" y1="156.817" x2="114.501" y2="70.771"/>
        <line id="uuid-6276fd14-9b15-4bd7-8e85-016b9fbf4380" data-name="line56" class="uuid-1f5ddb0f-e0aa-4123-8a27-9a5b21afae17" x1="30.113" y1="158.476" x2="116.159" y2="72.429"/>
        <line id="uuid-4c2318d5-3148-4946-b45e-a579598ecea9" data-name="line58" class="uuid-1f5ddb0f-e0aa-4123-8a27-9a5b21afae17" x1="31.771" y1="160.134" x2="117.817" y2="74.087"/>
        <line id="uuid-1b73b857-06aa-4480-bf84-cbe9efe7f054" data-name="line60" class="uuid-1f5ddb0f-e0aa-4123-8a27-9a5b21afae17" x1="33.429" y1="161.792" x2="119.476" y2="75.745"/>
        <line id="uuid-0796e2cd-83f1-4698-a0c1-cd70db862d5b" data-name="line62" class="uuid-1f5ddb0f-e0aa-4123-8a27-9a5b21afae17" x1="35.087" y1="163.45" x2="121.134" y2="77.404"/>
        <line id="uuid-28b5ab70-5107-47a9-b203-889db2de2291" data-name="line64" class="uuid-1f5ddb0f-e0aa-4123-8a27-9a5b21afae17" x1="36.745" y1="165.108" x2="122.792" y2="79.062"/>
        <line id="uuid-69d25d04-5478-497b-a0c7-579275585588" data-name="line66" class="uuid-1f5ddb0f-e0aa-4123-8a27-9a5b21afae17" x1="38.404" y1="166.766" x2="124.45" y2="80.72"/>
        <line id="uuid-9c251125-1f59-4d89-8e31-cb7de1c12bf8" data-name="line68" class="uuid-1f5ddb0f-e0aa-4123-8a27-9a5b21afae17" x1="40.062" y1="168.425" x2="126.108" y2="82.378"/>
        <line id="uuid-e9a50d1d-cc53-43cd-b9d5-dc23ea924056" data-name="line70" class="uuid-1f5ddb0f-e0aa-4123-8a27-9a5b21afae17" x1="41.72" y1="170.083" x2="127.767" y2="84.036"/>
        <line id="uuid-8b74864a-01b1-4c23-acca-c0c00baedd0f" data-name="line72" class="uuid-1f5ddb0f-e0aa-4123-8a27-9a5b21afae17" x1="43.378" y1="171.741" x2="129.425" y2="85.694"/>
        <line id="uuid-66a7d37f-d63a-4171-a863-a6840b41f0de" data-name="line74" class="uuid-03e1d9af-c99e-4f42-9b53-61c5e3ceb05e" x1="45.036" y1="173.399" x2="131.083" y2="87.353"/>
        <line id="uuid-7038f1ca-e321-4c3f-8274-d51faccdff75" data-name="line76" class="uuid-03e1d9af-c99e-4f42-9b53-61c5e3ceb05e" x1="46.695" y1="175.057" x2="132.741" y2="89.011"/>
        <line id="uuid-02b06a4a-5102-4ad5-9cc3-2414d9ed4c85" data-name="line78" class="uuid-03e1d9af-c99e-4f42-9b53-61c5e3ceb05e" x1="48.353" y1="176.716" x2="134.399" y2="90.669"/>
        <line id="uuid-77f93333-96fb-41ff-bd09-50a03fce2b42" data-name="line80" class="uuid-03e1d9af-c99e-4f42-9b53-61c5e3ceb05e" x1="50.011" y1="178.374" x2="136.057" y2="92.327"/>
        <line id="uuid-a798bb07-d0ca-4458-9329-d27eacf7b987" data-name="line82" class="uuid-03e1d9af-c99e-4f42-9b53-61c5e3ceb05e" x1="51.669" y1="180.032" x2="137.716" y2="93.985"/>
        <line id="uuid-26bcf15e-0954-443e-8e5a-82948175ac26" data-name="line84" class="uuid-03e1d9af-c99e-4f42-9b53-61c5e3ceb05e" x1="53.327" y1="181.69" x2="139.374" y2="95.644"/>
        <line id="uuid-f60c6cc0-d998-443b-bd09-bfb6e24e7a85" data-name="line86" class="uuid-03e1d9af-c99e-4f42-9b53-61c5e3ceb05e" x1="54.985" y1="183.348" x2="141.032" y2="97.302"/>
        <line id="uuid-11ae94c1-a913-4cc9-a8ef-4531a2cfa861" data-name="line88" class="uuid-03e1d9af-c99e-4f42-9b53-61c5e3ceb05e" x1="56.644" y1="185.007" x2="142.69" y2="98.96"/>
        <line id="uuid-9bffddef-1793-41ac-925d-b8c6c9288589" data-name="line90" class="uuid-03e1d9af-c99e-4f42-9b53-61c5e3ceb05e" x1="58.302" y1="186.665" x2="144.348" y2="100.618"/>
        <line id="uuid-26735c9a-78dc-4ea8-908a-912bde16b430" data-name="line92" class="uuid-03e1d9af-c99e-4f42-9b53-61c5e3ceb05e" x1="59.96" y1="188.323" x2="146.007" y2="102.276"/>
        <line id="uuid-f0badadf-bf73-45cc-bd80-22089bb316af" data-name="line94" class="uuid-03e1d9af-c99e-4f42-9b53-61c5e3ceb05e" x1="61.618" y1="189.981" x2="147.665" y2="103.934"/>
        <line id="uuid-ebde8fcb-3277-48a0-8da5-b169354b6b38" data-name="line96" class="uuid-03e1d9af-c99e-4f42-9b53-61c5e3ceb05e" x1="63.276" y1="191.639" x2="149.323" y2="105.593"/>
        <line id="uuid-4a8f6cc7-6485-416f-a48d-6a06ee9fd196" data-name="line98" class="uuid-03e1d9af-c99e-4f42-9b53-61c5e3ceb05e" x1="64.935" y1="193.297" x2="150.981" y2="107.251"/>
        <line id="uuid-f605be08-b323-462b-bbf9-5dd69a9e3821" data-name="line100" class="uuid-03e1d9af-c99e-4f42-9b53-61c5e3ceb05e" x1="66.593" y1="194.956" x2="152.639" y2="108.909"/>
        <line id="uuid-9f5d0b14-2c8a-4969-9876-59f99b73f593" data-name="line102" class="uuid-03e1d9af-c99e-4f42-9b53-61c5e3ceb05e" x1="68.251" y1="196.614" x2="154.298" y2="110.567"/>
        <line id="uuid-f136fa13-75c7-4a92-870f-c6d255aeb434" data-name="line104" class="uuid-03e1d9af-c99e-4f42-9b53-61c5e3ceb05e" x1="69.909" y1="198.272" x2="155.956" y2="112.225"/>
        <line id="uuid-2212991f-5b99-4eb9-ade4-31638f3d1846" data-name="line106" class="uuid-03e1d9af-c99e-4f42-9b53-61c5e3ceb05e" x1="71.567" y1="199.93" x2="157.614" y2="113.884"/>
        <line id="uuid-3c4810b6-6b47-4621-9018-4193addf7c02" data-name="line108" class="uuid-03e1d9af-c99e-4f42-9b53-61c5e3ceb05e" x1="73.225" y1="201.588" x2="159.272" y2="115.542"/>
        <line id="uuid-e6857ad3-1c51-4ea3-8a4c-5827860b1fa4" data-name="line110" class="uuid-03e1d9af-c99e-4f42-9b53-61c5e3ceb05e" x1="74.884" y1="203.247" x2="160.93" y2="117.2"/>
        <line id="uuid-623a9c18-6de7-4b60-9707-6b77c8cb1a76" data-name="line112" class="uuid-03e1d9af-c99e-4f42-9b53-61c5e3ceb05e" x1="76.542" y1="204.905" x2="162.588" y2="118.858"/>
        <line id="uuid-422f6892-b26d-4074-a7e6-63042e1f9182" data-name="line114" class="uuid-03e1d9af-c99e-4f42-9b53-61c5e3ceb05e" x1="78.2" y1="206.563" x2="164.247" y2="120.516"/>
        <line id="uuid-425b0e27-78ba-4368-97d9-85064ff6b811" data-name="line116" class="uuid-03e1d9af-c99e-4f42-9b53-61c5e3ceb05e" x1="79.858" y1="208.221" x2="165.905" y2="122.175"/>
        <line id="uuid-abfca680-b311-4fec-b43f-2d72efe21a65" data-name="line118" class="uuid-03e1d9af-c99e-4f42-9b53-61c5e3ceb05e" x1="81.516" y1="209.879" x2="167.563" y2="123.833"/>
        <line id="uuid-38a952a8-ea2c-4357-a099-fd67b72821be" data-name="line120" class="uuid-03e1d9af-c99e-4f42-9b53-61c5e3ceb05e" x1="83.175" y1="211.537" x2="169.221" y2="125.491"/>
        <line id="uuid-e3b1c3d9-f70c-4c6b-b327-3cb95b4dd92d" data-name="line122" class="uuid-03e1d9af-c99e-4f42-9b53-61c5e3ceb05e" x1="84.833" y1="213.196" x2="170.879" y2="127.149"/>
        <line id="uuid-44ad77d3-c00f-4f78-82a4-1cd025272bda" data-name="line124" class="uuid-03e1d9af-c99e-4f42-9b53-61c5e3ceb05e" x1="86.491" y1="214.854" x2="172.538" y2="128.807"/>
      </g>
    </g>
  </g>
  <rect id="uuid-47fe1486-55a6-4d60-bf37-86244fcbc6d5" data-name="rect130" class="uuid-0b5e5fad-084c-40a3-84df-5fca4d9a22a1" x="178.009" y="18.475" width="166.458" height="198.939"/>
  <g id="uuid-cfcc4dd1-e900-4c0c-8d59-7a2e5d57a17f" data-name="g136">
    <polyline id="uuid-a2b06e31-2395-4d95-abf5-23f3912cc10d" data-name="polyline132" class="uuid-fd4f5718-7ab1-4fe4-b8f3-1eb8310ebbcd" points="129.844 120.21 154.027 120.21 154.027 80.102 186.265 80.102"/>
    <polygon id="uuid-056f5114-1580-49cc-90e8-b3a58c6ef43b" data-name="polygon134" class="uuid-960bfd20-2094-4050-9607-09b293d4eaef" points="184.806 85.087 193.441 80.102 184.806 75.116 184.806 85.087"/>
  </g>
  <g id="uuid-32028777-73fe-4083-9020-720dc593d5c6" data-name="g142">
    <polyline id="uuid-8b081ccb-f1f7-4528-b4c1-756b45a03966" data-name="polyline138" class="uuid-9f9d5e81-35a1-4f31-84e4-ffa51693bbb6" points="129.844 129.288 154.027 129.288 154.027 168.148 186.265 168.148"/>
    <polygon id="uuid-85f235a4-71a1-4dca-8d5e-6e9f88feba1c" data-name="polygon140" class="uuid-169854b1-0fc0-4bd0-8a0f-aca6b45b8ce3" points="184.806 173.134 193.441 168.149 184.806 163.162 184.806 173.134"/>
  </g>
  <polyline id="uuid-d36d2a3d-ce53-4620-911a-4c96c7ca0c5d" data-name="polyline144" class="uuid-9f9d5e81-35a1-4f31-84e4-ffa51693bbb6" points="130.332 87.705 130.332 170.257 44.306 170.257"/>
  <polyline id="uuid-9dc2416c-3c0f-4e8f-be2d-091f2ddd93e0" data-name="polyline146" class="uuid-fd4f5718-7ab1-4fe4-b8f3-1eb8310ebbcd" points="44.306 170.257 44.306 87.705 130.332 87.705"/>
  <g class="uuid-b4f9ccb2-01a8-4119-bc14-db6896654c1b">
    <g id="uuid-a96a28ee-dcb5-4152-81b1-ae4a57f36cc2" data-name="g256">
      <g id="uuid-287f4ee5-5239-47f5-b5f5-db6f99733322" data-name="g254">
        <line id="uuid-d33e9822-2728-4f38-817f-8df2dfc7284d" data-name="line148" class="uuid-03e1d9af-c99e-4f42-9b53-61c5e3ceb05e" x1="432.152" y1="128.628" x2="518.199" y2="42.582"/>
        <line id="uuid-843b943a-d14c-4d4b-a9a0-3805734926a9" data-name="line150" class="uuid-03e1d9af-c99e-4f42-9b53-61c5e3ceb05e" x1="433.81" y1="130.286" x2="519.857" y2="44.24"/>
        <line id="uuid-b54b3f3c-0c90-41bc-bcf2-5f4bb6277d62" data-name="line152" class="uuid-03e1d9af-c99e-4f42-9b53-61c5e3ceb05e" x1="435.469" y1="131.945" x2="521.515" y2="45.898"/>
        <line id="uuid-ca652f3a-628b-46f3-8c60-f699eb78b7ca" data-name="line154" class="uuid-03e1d9af-c99e-4f42-9b53-61c5e3ceb05e" x1="437.127" y1="133.603" x2="523.173" y2="47.556"/>
        <line id="uuid-9c398712-ec6f-43e2-9769-df0ec6d52c42" data-name="line156" class="uuid-03e1d9af-c99e-4f42-9b53-61c5e3ceb05e" x1="438.785" y1="135.261" x2="524.832" y2="49.214"/>
        <line id="uuid-c615cd15-4472-44a6-83a0-cede15608036" data-name="line158" class="uuid-03e1d9af-c99e-4f42-9b53-61c5e3ceb05e" x1="440.443" y1="136.919" x2="526.49" y2="50.873"/>
        <line id="uuid-48420f86-737b-49b4-a911-5f31df22ebd7" data-name="line160" class="uuid-03e1d9af-c99e-4f42-9b53-61c5e3ceb05e" x1="442.101" y1="138.577" x2="528.148" y2="52.531"/>
        <line id="uuid-6510bdf4-4be3-4f67-b30d-859bf34d7458" data-name="line162" class="uuid-03e1d9af-c99e-4f42-9b53-61c5e3ceb05e" x1="443.759" y1="140.236" x2="529.806" y2="54.189"/>
        <line id="uuid-d7644625-96f2-4449-9cb1-8ed81453c25e" data-name="line164" class="uuid-03e1d9af-c99e-4f42-9b53-61c5e3ceb05e" x1="445.418" y1="141.894" x2="531.464" y2="55.847"/>
        <line id="uuid-27439735-c607-4552-8e7d-3dd010b20eaf" data-name="line166" class="uuid-03e1d9af-c99e-4f42-9b53-61c5e3ceb05e" x1="447.076" y1="143.552" x2="533.122" y2="57.505"/>
        <line id="uuid-9e5eb2af-ed5c-4614-a431-cc23881c3df6" data-name="line168" class="uuid-03e1d9af-c99e-4f42-9b53-61c5e3ceb05e" x1="448.734" y1="145.21" x2="534.781" y2="59.163"/>
        <line id="uuid-fce8d62c-2643-4e66-8539-0903fc01c77d" data-name="line170" class="uuid-03e1d9af-c99e-4f42-9b53-61c5e3ceb05e" x1="450.392" y1="146.868" x2="536.439" y2="60.822"/>
        <line id="uuid-eceaa331-6319-47a8-8b70-04ccc7a5376c" data-name="line172" class="uuid-03e1d9af-c99e-4f42-9b53-61c5e3ceb05e" x1="452.05" y1="148.526" x2="538.097" y2="62.48"/>
        <line id="uuid-ec3afc2b-7a64-4e40-931c-7d3b9684f77d" data-name="line174" class="uuid-03e1d9af-c99e-4f42-9b53-61c5e3ceb05e" x1="453.709" y1="150.185" x2="539.755" y2="64.138"/>
        <line id="uuid-4d97df4a-c78b-43da-ab7d-c3a1ca078c55" data-name="line176" class="uuid-03e1d9af-c99e-4f42-9b53-61c5e3ceb05e" x1="455.367" y1="151.843" x2="541.413" y2="65.796"/>
        <line id="uuid-5a084c6f-3e50-4984-a1e8-e7c6d517d79b" data-name="line178" class="uuid-03e1d9af-c99e-4f42-9b53-61c5e3ceb05e" x1="457.025" y1="153.501" x2="543.072" y2="67.454"/>
        <line id="uuid-b15f0a04-26b0-4d58-a92f-88f050499172" data-name="line180" class="uuid-03e1d9af-c99e-4f42-9b53-61c5e3ceb05e" x1="458.683" y1="155.159" x2="544.73" y2="69.113"/>
        <line id="uuid-674f1d40-b1df-451f-afa3-5f875252c3f0" data-name="line182" class="uuid-03e1d9af-c99e-4f42-9b53-61c5e3ceb05e" x1="460.341" y1="156.817" x2="546.388" y2="70.771"/>
        <line id="uuid-4cf750f3-6172-4571-9f5d-4c3c3a86c8e2" data-name="line184" class="uuid-03e1d9af-c99e-4f42-9b53-61c5e3ceb05e" x1="461.999" y1="158.476" x2="548.046" y2="72.429"/>
        <line id="uuid-f4461b89-5f89-4728-96a3-21887c9774ef" data-name="line186" class="uuid-03e1d9af-c99e-4f42-9b53-61c5e3ceb05e" x1="463.658" y1="160.134" x2="549.704" y2="74.087"/>
        <line id="uuid-41dd1a4d-e6ee-4248-97d7-c3ae1e3736ee" data-name="line188" class="uuid-03e1d9af-c99e-4f42-9b53-61c5e3ceb05e" x1="465.316" y1="161.792" x2="551.362" y2="75.745"/>
        <line id="uuid-9e123604-26ba-4297-81da-45613ee8f293" data-name="line190" class="uuid-03e1d9af-c99e-4f42-9b53-61c5e3ceb05e" x1="466.974" y1="163.45" x2="553.021" y2="77.404"/>
        <line id="uuid-ebe64f41-22e5-4fd2-ac07-59e0fc0ebe1d" data-name="line192" class="uuid-03e1d9af-c99e-4f42-9b53-61c5e3ceb05e" x1="468.632" y1="165.108" x2="554.679" y2="79.062"/>
        <line id="uuid-a4bb5820-9e52-45ac-ae6e-b6d25f1ae83e" data-name="line194" class="uuid-03e1d9af-c99e-4f42-9b53-61c5e3ceb05e" x1="470.29" y1="166.766" x2="556.337" y2="80.72"/>
        <line id="uuid-45927a97-9bfe-4030-91bf-be5337586d1a" data-name="line196" class="uuid-03e1d9af-c99e-4f42-9b53-61c5e3ceb05e" x1="471.949" y1="168.425" x2="557.995" y2="82.378"/>
        <line id="uuid-370fdd23-b9d1-4274-aa1f-3cb41bf2f560" data-name="line198" class="uuid-03e1d9af-c99e-4f42-9b53-61c5e3ceb05e" x1="473.607" y1="170.083" x2="559.653" y2="84.036"/>
        <line id="uuid-b4135426-8029-4e5a-a32b-17363cfbb21a" data-name="line200" class="uuid-03e1d9af-c99e-4f42-9b53-61c5e3ceb05e" x1="475.265" y1="171.741" x2="561.312" y2="85.694"/>
        <line id="uuid-8b7252ef-7776-4821-801e-ca3b353e6341" data-name="line202" class="uuid-03e1d9af-c99e-4f42-9b53-61c5e3ceb05e" x1="476.923" y1="173.399" x2="562.97" y2="87.353"/>
        <line id="uuid-c2ed4fea-d56b-4a09-b332-c21574a5f3de" data-name="line204" class="uuid-03e1d9af-c99e-4f42-9b53-61c5e3ceb05e" x1="478.581" y1="175.057" x2="564.628" y2="89.011"/>
        <line id="uuid-eb642afb-0179-4792-a847-ade619b9b40e" data-name="line206" class="uuid-03e1d9af-c99e-4f42-9b53-61c5e3ceb05e" x1="480.24" y1="176.716" x2="566.286" y2="90.669"/>
        <line id="uuid-c06dd3a6-54ac-4aba-98da-6b24d21b4056" data-name="line208" class="uuid-03e1d9af-c99e-4f42-9b53-61c5e3ceb05e" x1="481.898" y1="178.374" x2="567.944" y2="92.327"/>
        <line id="uuid-26476797-9b4f-4f8b-a55c-959b7e7ed52b" data-name="line210" class="uuid-03e1d9af-c99e-4f42-9b53-61c5e3ceb05e" x1="483.556" y1="180.032" x2="569.602" y2="93.985"/>
        <line id="uuid-62999d1c-e92a-4c47-a068-f2dd2cff4f2e" data-name="line212" class="uuid-03e1d9af-c99e-4f42-9b53-61c5e3ceb05e" x1="485.214" y1="181.69" x2="571.261" y2="95.644"/>
        <line id="uuid-ad128771-e31f-4e91-9d22-61aad2c092fe" data-name="line214" class="uuid-03e1d9af-c99e-4f42-9b53-61c5e3ceb05e" x1="486.872" y1="183.348" x2="572.919" y2="97.302"/>
        <line id="uuid-cd921398-2acc-46ba-8b53-4b866e9c21df" data-name="line216" class="uuid-03e1d9af-c99e-4f42-9b53-61c5e3ceb05e" x1="488.53" y1="185.007" x2="574.577" y2="98.96"/>
        <line id="uuid-3c8e7605-61d7-4536-ba45-50c6e8a4c5d7" data-name="line218" class="uuid-03e1d9af-c99e-4f42-9b53-61c5e3ceb05e" x1="490.189" y1="186.665" x2="576.235" y2="100.618"/>
        <line id="uuid-bfcdcdb7-6e44-4081-978a-19238f30866a" data-name="line220" class="uuid-03e1d9af-c99e-4f42-9b53-61c5e3ceb05e" x1="491.847" y1="188.323" x2="577.893" y2="102.276"/>
        <line id="uuid-5d787750-bf18-4d1a-bbad-66bee7ca319a" data-name="line222" class="uuid-03e1d9af-c99e-4f42-9b53-61c5e3ceb05e" x1="493.505" y1="189.981" x2="579.552" y2="103.934"/>
        <line id="uuid-d6c3d7c1-e6b4-4842-a7f7-ceeacb21fa4e" data-name="line224" class="uuid-03e1d9af-c99e-4f42-9b53-61c5e3ceb05e" x1="495.163" y1="191.639" x2="581.21" y2="105.593"/>
        <line id="uuid-db11b7d2-b513-4250-81a5-c2cfa5ace0d0" data-name="line226" class="uuid-03e1d9af-c99e-4f42-9b53-61c5e3ceb05e" x1="496.821" y1="193.297" x2="582.868" y2="107.251"/>
        <line id="uuid-44d0ad9d-d113-4292-ae73-f00fc96bc7f2" data-name="line228" class="uuid-03e1d9af-c99e-4f42-9b53-61c5e3ceb05e" x1="498.48" y1="194.956" x2="584.526" y2="108.909"/>
        <line id="uuid-983beda7-0fa9-4f7e-b189-536ebc7affea" data-name="line230" class="uuid-03e1d9af-c99e-4f42-9b53-61c5e3ceb05e" x1="500.138" y1="196.614" x2="586.184" y2="110.567"/>
        <line id="uuid-43099247-6e63-4887-84ee-4a05535066a2" data-name="line232" class="uuid-03e1d9af-c99e-4f42-9b53-61c5e3ceb05e" x1="501.796" y1="198.272" x2="587.843" y2="112.225"/>
        <line id="uuid-0500afbf-b5b8-4367-8c28-8875349c6be7" data-name="line234" class="uuid-03e1d9af-c99e-4f42-9b53-61c5e3ceb05e" x1="503.454" y1="199.93" x2="589.501" y2="113.884"/>
        <line id="uuid-d92f0f48-d1d8-4be1-8ede-e732b76c10cd" data-name="line236" class="uuid-03e1d9af-c99e-4f42-9b53-61c5e3ceb05e" x1="505.112" y1="201.588" x2="591.159" y2="115.542"/>
        <line id="uuid-059a0fd4-5a03-427e-8506-bd1af61cba1e" data-name="line238" class="uuid-03e1d9af-c99e-4f42-9b53-61c5e3ceb05e" x1="506.77" y1="203.247" x2="592.817" y2="117.2"/>
        <line id="uuid-64c5ca7a-b7cb-47a3-b984-dce66a21241a" data-name="line240" class="uuid-03e1d9af-c99e-4f42-9b53-61c5e3ceb05e" x1="508.429" y1="204.905" x2="594.475" y2="118.858"/>
        <line id="uuid-5c559cb4-fa95-4ef0-8a52-46d476d05fd6" data-name="line242" class="uuid-03e1d9af-c99e-4f42-9b53-61c5e3ceb05e" x1="510.087" y1="206.563" x2="596.133" y2="120.516"/>
        <line id="uuid-c1a6062f-aea9-47d0-8260-a7f551d3df32" data-name="line244" class="uuid-03e1d9af-c99e-4f42-9b53-61c5e3ceb05e" x1="511.745" y1="208.221" x2="597.792" y2="122.175"/>
        <line id="uuid-dbd40b33-a847-4df4-9d77-6a398d2498d0" data-name="line246" class="uuid-03e1d9af-c99e-4f42-9b53-61c5e3ceb05e" x1="513.403" y1="209.879" x2="599.45" y2="123.833"/>
        <line id="uuid-56398ae7-35ef-4244-959f-db6ec40f5fde" data-name="line248" class="uuid-03e1d9af-c99e-4f42-9b53-61c5e3ceb05e" x1="515.061" y1="211.537" x2="601.108" y2="125.491"/>
        <line id="uuid-bc52813e-2a3b-465f-8c99-a159e470e847" data-name="line250" class="uuid-03e1d9af-c99e-4f42-9b53-61c5e3ceb05e" x1="516.72" y1="213.196" x2="602.766" y2="127.149"/>
        <line id="uuid-549a9c63-66a3-4418-8e06-ac8c2c31d0b9" data-name="line252" class="uuid-03e1d9af-c99e-4f42-9b53-61c5e3ceb05e" x1="518.378" y1="214.854" x2="604.424" y2="128.807"/>
      </g>
    </g>
  </g>
  <rect id="uuid-7eea9622-446a-4408-9720-823d00d2e3bf" data-name="rect258" class="uuid-0b5e5fad-084c-40a3-84df-5fca4d9a22a1" x="611.298" y="18.475" width="166.458" height="198.939"/>
  <g id="uuid-6744980a-80c5-4292-b9e7-3bb83c4dddba" data-name="g270">
    <rect id="uuid-902f32f8-c550-4d91-bc2f-129f002fd60c" data-name="rect260" class="uuid-dfb3fa30-a7ca-4405-bd64-fcb5199a4867" x="62.535" y="105.739" width="48.5" height="37.18"/>
    <line id="uuid-973be0eb-12cc-459e-971b-57b05d0f84d9" data-name="line262" class="uuid-85294066-79dc-49c0-a2eb-079d4dab1abf" x1="105.439" y1="111.32" x2="105.439" y2="111.32"/>
    <line id="uuid-ca118a61-3280-427a-a90f-eeb540eb6110" data-name="line264" class="uuid-85294066-79dc-49c0-a2eb-079d4dab1abf" x1="101.708" y1="111.32" x2="101.708" y2="111.32"/>
    <line id="uuid-286900a7-6029-4d49-9229-4a58f71f8c2a" data-name="line266" class="uuid-85294066-79dc-49c0-a2eb-079d4dab1abf" x1="97.978" y1="111.32" x2="97.978" y2="111.32"/>
    <line id="uuid-6f6f4a96-9be0-466e-b0bc-1ab9619fc0b9" data-name="line268" class="uuid-cf26675c-4544-44d3-bac1-8693ac3ea235" x1="68.131" y1="111.32" x2="83.054" y2="111.32"/>
  </g>
  <g id="uuid-e084f535-a6ea-4141-be80-2d5ff44189c7" data-name="g286">
    <path id="uuid-e0897cb4-e220-430a-b168-eff64250becc" data-name="path272" class="uuid-6515b30d-2ba0-47ab-a89f-e72132d2310c" d="M194.619,33.795c.699.605,1.577.965,2.5,1.023.814,0,1.309-.33,1.309-.8,0-.451-.264-.66-1.012-.8l-1.639-.286c-1.075-.079-1.904-.98-1.893-2.058,0-1.5,1.144-2.431,3.059-2.431,1.134-.014,2.242.341,3.157,1.012l-.957,1.375c-.647-.537-1.459-.836-2.3-.846-.748,0-1.178.307-1.178.725,0,.385.254.594.87.694l1.54.263c1.441.253,2.2,1,2.2,2.179,0,1.5-1.276,2.52-3.289,2.52-1.21-.009-2.382-.42-3.334-1.167l.967-1.403Z"/>
    <path id="uuid-ac77ab8e-4eb2-4353-9988-68571ae2c235" data-name="path274" class="uuid-6515b30d-2ba0-47ab-a89f-e72132d2310c" d="M204.079,36.359c-1.622.029-2.96-1.263-2.989-2.885,0-.018,0-.036,0-.053-.055-1.572,1.174-2.891,2.746-2.946.038-.001.077-.002.115-.002,1.54-.008,2.795,1.235,2.803,2.775,0,.079-.003.159-.009.238v.386h-3.905c.138.624.692,1.068,1.331,1.067.427.022.84-.152,1.122-.473l1.177.979c-.642.613-1.504.943-2.391.914ZM202.836,32.859h2.254c-.089-.571-.577-.994-1.155-1-.566.011-1.036.439-1.099,1.001h0Z"/>
    <path id="uuid-4957cd88-b230-4d9c-8191-6cbe1beea805" data-name="path276" class="uuid-6515b30d-2ba0-47ab-a89f-e72132d2310c" d="M207.851,30.571h1.783v1.288c.362-.947.869-1.4,1.54-1.4.207-.003.411.046.594.144v1.529c-.262-.12-.548-.18-.836-.177-.523.002-1.01.265-1.3.7v3.587h-1.783l.002-5.671Z"/>
    <path id="uuid-e76adcad-0b72-4a37-9bda-e65c32cb1c8c" data-name="path278" class="uuid-6515b30d-2ba0-47ab-a89f-e72132d2310c" d="M212.097,30.571h1.936l1.287,3.565,1.3-3.565h1.837l-2.321,5.677h-1.739l-2.3-5.677Z"/>
    <path id="uuid-68cb9829-a7fb-4b89-9066-5b490f0c857a" data-name="path280" class="uuid-6515b30d-2ba0-47ab-a89f-e72132d2310c" d="M219.115,28.701c.018-.556.482-.992,1.038-.975.531.017.958.444.975.975-.018.556-.482.992-1.038.975-.531-.017-.958-.444-.975-.975ZM221.008,36.248h-1.783v-5.677h1.783v5.677Z"/>
    <path id="uuid-992cb6f2-0195-4fba-a0cf-4ac4a153e3f6" data-name="path282" class="uuid-6515b30d-2ba0-47ab-a89f-e72132d2310c" d="M226.332,34.257l1.058,1.044c-.574.679-1.421,1.066-2.31,1.057-1.622.03-2.962-1.261-2.992-2.883-.03-1.622,1.261-2.962,2.883-2.992.036,0,.072,0,.108,0,.903-.016,1.768.365,2.365,1.044l-1.089,1.089c-.282-.389-.733-.618-1.213-.615-.776.103-1.323.815-1.22,1.591.086.653.611,1.161,1.267,1.226.45.011.876-.198,1.142-.561Z"/>
    <path id="uuid-6189336a-f93b-432f-8d12-19b569c5347b" data-name="path284" class="uuid-6515b30d-2ba0-47ab-a89f-e72132d2310c" d="M231.061,36.359c-1.621.031-2.961-1.258-2.991-2.879,0-.02,0-.039,0-.059-.056-1.571,1.173-2.89,2.744-2.946.039-.001.077-.002.116-.002,1.54-.008,2.796,1.234,2.804,2.774,0,.08-.003.16-.009.239v.386h-3.906c.138.624.692,1.068,1.331,1.067.427.022.84-.152,1.122-.473l1.178.979c-.642.612-1.502.941-2.388.914ZM229.818,32.859h2.256c-.089-.571-.578-.994-1.156-1-.566.01-1.037.438-1.1,1.001h0Z"/>
  </g>
  <g id="uuid-1d701912-e439-406a-9d2a-5983d4b72fab" data-name="g292">
    <rect id="uuid-1c1dd4dd-bcfb-4e6f-a16f-cf5e8e5635e8" data-name="rect288" class="uuid-ba608075-7438-4183-828d-8b6e355cdbce" x="193.941" y="48.524" width="134.594" height="67.295"/>
    <path id="uuid-c74fb772-18e9-4916-a18d-c27d77589568" data-name="path290" class="uuid-960bfd20-2094-4050-9607-09b293d4eaef" d="M328.035,49.024v66.294h-133.594V49.024h133.594M329.035,48.024h-135.594v68.294h135.594V48.024Z"/>
  </g>
  <rect id="uuid-f9be2de0-aa4b-435c-82c4-e0c6eb5d6b26" data-name="rect294" class="uuid-d53ef07b-0aae-47a7-95b3-61c76475e4eb" x="193.441" y="132.339" width="135.594" height="68.295"/>
  <g id="uuid-babccf50-1a20-4461-9bf4-45be6e141707" data-name="g306">
    <path id="uuid-d4c29ba2-dcfa-41b1-bcd2-6f0d962e9f86" data-name="path296" class="uuid-6515b30d-2ba0-47ab-a89f-e72132d2310c" d="M204.79,55.419h1.893v2.992h3.113v-2.992h1.894v7.7h-1.892v-3.047h-3.113v3.048h-1.895v-7.701Z"/>
    <path id="uuid-1ba75454-4f30-41a0-bdf1-7b27ef046c89" data-name="path298" class="uuid-6515b30d-2ba0-47ab-a89f-e72132d2310c" d="M215.835,57.356c1.623.012,2.928,1.337,2.916,2.96-.012,1.623-1.337,2.928-2.96,2.916-1.614-.012-2.917-1.324-2.916-2.939-.026-1.596,1.246-2.911,2.842-2.937.039,0,.079,0,.118,0ZM217.067,60.293c.115-.677-.341-1.32-1.019-1.434s-1.32.341-1.434,1.019c-.023.138-.023.278,0,.416-.104.677.36,1.311,1.037,1.416.677.104,1.311-.36,1.416-1.037.019-.125.019-.253,0-.378Z"/>
    <path id="uuid-40a814a7-47ee-4aa0-ab2a-908355e8d0b5" data-name="path300" class="uuid-6515b30d-2ba0-47ab-a89f-e72132d2310c" d="M220.256,61.349c.548.348,1.178.546,1.826.572.506,0,.814-.176.814-.462,0-.22-.165-.341-.527-.407l-1.09-.2c-1.1-.209-1.672-.77-1.672-1.651,0-1.166.891-1.858,2.376-1.858.814.006,1.612.23,2.311.648l-.814,1.134c-.49-.305-1.052-.472-1.629-.484-.429,0-.682.142-.682.395,0,.232.143.33.583.407l1.068.2c1.122.209,1.716.781,1.705,1.639.011,1.111-1.045,1.948-2.443,1.948-.919.032-1.826-.21-2.607-.694l.781-1.187Z"/>
    <path id="uuid-8c5f98f3-6f07-4921-ab85-47bb1520b3bc" data-name="path302" class="uuid-6515b30d-2ba0-47ab-a89f-e72132d2310c" d="M226.307,58.819h-1.1v-1.375h1.1v-1.574l1.782-.363v1.937h1.518v1.375h-1.517v2.2c0,.506.2.682.748.682.247-.003.492-.043.726-.121v1.442c-.398.108-.808.167-1.221.175-1.343,0-2.035-.616-2.035-1.826v-2.552Z"/>
    <path id="uuid-ebe7bbec-3f8e-4d08-90cd-972123f388f4" data-name="path304" class="uuid-6515b30d-2ba0-47ab-a89f-e72132d2310c" d="M235.29,55.419h2.157l2.959,7.7h-2.046l-.638-1.837h-2.816l-.65,1.837h-1.966l3-7.7ZM237.216,59.819l-.891-2.551-.9,2.551h1.791Z"/>
  </g>
  <g id="uuid-21755169-0dd2-4cf0-9077-83897a47947b" data-name="g318">
    <path id="uuid-bea9d5d1-482c-45f4-aa23-0617a849a94e" data-name="path308" class="uuid-6515b30d-2ba0-47ab-a89f-e72132d2310c" d="M204.79,161.739h1.892v2.993h3.114v-2.993h1.894v7.7h-1.892v-3.048h-3.114v3.048h-1.894v-7.7Z"/>
    <path id="uuid-5a3a9330-e8f1-42e0-a216-34ed5d5f3819" data-name="path310" class="uuid-6515b30d-2ba0-47ab-a89f-e72132d2310c" d="M215.835,163.676c1.623.012,2.929,1.336,2.917,2.959s-1.336,2.929-2.959,2.917c-1.615-.012-2.918-1.324-2.917-2.939-.026-1.596,1.246-2.911,2.842-2.937.039,0,.078,0,.117,0ZM217.068,166.613c.113-.678-.344-1.319-1.022-1.432-.678-.113-1.319.344-1.432,1.022-.023.136-.023.274,0,.41-.103.678.363,1.31,1.041,1.413.678.103,1.31-.363,1.413-1.041.019-.123.019-.249,0-.372Z"/>
    <path id="uuid-69736269-33b1-4958-9730-05c9d2546dd7" data-name="path312" class="uuid-6515b30d-2ba0-47ab-a89f-e72132d2310c" d="M220.257,167.669c.547.349,1.177.546,1.826.572.506,0,.814-.175.814-.462,0-.219-.165-.34-.528-.407l-1.089-.2c-1.1-.209-1.672-.77-1.672-1.65,0-1.166.891-1.859,2.376-1.859.814.006,1.612.231,2.31.649l-.814,1.133c-.489-.305-1.052-.472-1.628-.484-.429,0-.682.143-.682.4,0,.231.143.33.583.407l1.067.2c1.122.209,1.716.781,1.705,1.64.011,1.11-1.045,1.947-2.442,1.947-.919.032-1.826-.209-2.608-.693l.782-1.193Z"/>
    <path id="uuid-8071be6b-8000-40a0-a8e3-32ec3011450e" data-name="path314" class="uuid-6515b30d-2ba0-47ab-a89f-e72132d2310c" d="M226.307,165.139h-1.1v-1.375h1.1v-1.573l1.782-.364v1.937h1.518v1.375h-1.517v2.2c0,.506.2.683.748.683.247-.003.492-.044.726-.121v1.441c-.398.109-.808.168-1.221.176-1.342,0-2.035-.616-2.035-1.826v-2.553Z"/>
    <path id="uuid-2858120f-04ac-4a4c-8768-4903b95a1228" data-name="path316" class="uuid-6515b30d-2ba0-47ab-a89f-e72132d2310c" d="M236.933,161.739c1.5,0,2.563.88,2.563,2.1-.029.724-.462,1.371-1.122,1.672.773.252,1.309.958,1.343,1.771,0,1.265-1.078,2.157-2.608,2.157h-3.983v-7.7h3.807ZM235.019,163.246v1.585h1.694c.436.048.828-.267.875-.703.003-.029.005-.059.005-.089.009-.432-.334-.79-.767-.799-.038,0-.076.001-.113.006h-1.694ZM237.802,167.086c.011-.46-.354-.842-.815-.853-.04,0-.08.001-.12.006h-1.848v1.695h1.848c.458.055.874-.271.929-.729.005-.04.007-.079.006-.119Z"/>
  </g>
  <g id="uuid-14a68b1e-a7f6-4899-a7e5-aba5231e180a" data-name="g334">
    <path id="uuid-8cf66c1d-9576-4a47-9cf6-49a680689b47" data-name="path320" class="uuid-6515b30d-2ba0-47ab-a89f-e72132d2310c" d="M214.967,72.401h5.533v1.122h-4.21v2.2h2.9v1.1h-2.9v3.278h-1.319l-.004-7.7Z"/>
    <path id="uuid-f06d3694-13da-4aef-bef0-3e64c58afea3" data-name="path322" class="uuid-6515b30d-2ba0-47ab-a89f-e72132d2310c" d="M221.511,78.518c0-.991.8-1.617,2.1-1.617.515,0,1.023.116,1.486.34v-.6c0-.726-.418-1.1-1.266-1.1-.56.023-1.109.17-1.606.429l-.44-.9c.711-.357,1.494-.548,2.289-.561,1.43,0,2.255.726,2.255,2v3.6h-1.232v-.562c-.439.425-1.029.659-1.64.65-.953.115-1.819-.564-1.934-1.517-.007-.054-.01-.108-.012-.162ZM223.799,79.318c.474.011.935-.149,1.3-.451v-.9c-.4-.185-.837-.276-1.277-.264-.7,0-1.144.309-1.144.792-.001.506.439.825,1.121.825v-.002Z"/>
    <path id="uuid-d0562283-e903-4104-ab81-962c1dc35600" data-name="path324" class="uuid-6515b30d-2ba0-47ab-a89f-e72132d2310c" d="M227.682,72.709c0-.429.347-.776.776-.776s.776.347.776.776-.347.776-.776.776-.776-.347-.776-.776h0ZM229.082,80.102h-1.243v-5.512h1.243v5.512Z"/>
    <path id="uuid-f57794aa-af59-4127-9adf-2d458c5f07f6" data-name="path326" class="uuid-6515b30d-2ba0-47ab-a89f-e72132d2310c" d="M231.851,80.101h-1.243v-7.865l1.243-.209v8.074Z"/>
    <path id="uuid-d15a95a6-ab50-4e12-a685-d68f5e3f3027" data-name="path328" class="uuid-6515b30d-2ba0-47ab-a89f-e72132d2310c" d="M233.226,72.709c0-.429.347-.776.776-.776s.776.347.776.776-.347.776-.776.776-.776-.347-.776-.776h0ZM234.626,80.102h-1.246v-5.512h1.243l.003,5.512Z"/>
    <path id="uuid-43dd827b-71e0-4905-9f14-60cd3a3eb12a" data-name="path330" class="uuid-6515b30d-2ba0-47ab-a89f-e72132d2310c" d="M236.152,74.59h1.243v.9c.363-.621,1.031-.999,1.75-.99,1.024-.027,1.876.782,1.903,1.806.001.054,0,.109-.003.163v3.632h-1.243v-3.278c.074-.651-.395-1.239-1.046-1.313-.054-.006-.109-.009-.164-.007-.487,0-.94.248-1.2.66v3.938h-1.243l.003-5.511Z"/>
    <path id="uuid-916064be-9567-4626-b29c-6b88110e70d1" data-name="path332" class="uuid-6515b30d-2ba0-47ab-a89f-e72132d2310c" d="M242.301,77.34c-.075-1.467,1.054-2.717,2.521-2.792.018,0,.035-.002.053-.002.624-.007,1.219.268,1.618.748v-.7h1.232v5.7c0,1.419-.924,2.2-2.6,2.2-.769.004-1.527-.177-2.211-.528l.44-.924c.526.293,1.115.455,1.717.473.923,0,1.408-.418,1.408-1.221v-.935c-.413.503-1.032.79-1.683.781-1.457-.078-2.575-1.323-2.496-2.78,0-.007,0-.013.001-.02ZM245.173,79.101c.506.01.989-.214,1.309-.606v-2.31c-.328-.381-.807-.598-1.309-.594-.908,0-1.644.737-1.643,1.645,0,.035.001.07.003.104-.052.919.651,1.707,1.57,1.759.023.001.047.002.07.002h0Z"/>
  </g>
  <path id="uuid-84982237-8fd2-4de0-93d3-906a799680c3" data-name="path336" class="uuid-6515b30d-2ba0-47ab-a89f-e72132d2310c" d="M205.252,76.445c.008-.784.649-1.413,1.433-1.405.784.008,1.413.649,1.405,1.433-.008.778-.641,1.405-1.419,1.405-.786-.007-1.42-.647-1.419-1.433Z"/>
  <path id="uuid-b94e394f-1bf2-4a34-9bec-73e570ce26c7" data-name="path338" class="uuid-6515b30d-2ba0-47ab-a89f-e72132d2310c" d="M205.252,89.584c-.029-.784.582-1.443,1.366-1.472.784-.029,1.443.582,1.472,1.366.001.036.001.071,0,.107.001.784-.633,1.42-1.417,1.421-.784.001-1.42-.633-1.421-1.417v-.004Z"/>
  <path id="uuid-829d05e8-8adb-4660-915e-c0ba34cc08bb" data-name="path340" class="uuid-6515b30d-2ba0-47ab-a89f-e72132d2310c" d="M205.252,104.52c-.029-.784.582-1.443,1.366-1.472.784-.029,1.443.582,1.472,1.366.001.036.001.071,0,.107.001.784-.633,1.42-1.417,1.421-.784.001-1.42-.633-1.421-1.417v-.004Z"/>
  <g id="uuid-1d50a3f7-0f67-4278-886d-fbd2a93ed92e" data-name="g350">
    <path id="uuid-8c74e854-a41e-474a-8365-86d3ed2d9820" data-name="path342" class="uuid-6515b30d-2ba0-47ab-a89f-e72132d2310c" d="M215.021,91.936c.69.687,1.613,1.088,2.586,1.122,1.023,0,1.727-.517,1.727-1.221,0-.627-.374-.913-1.4-1.1l-1.419-.242c-1.332-.241-1.981-.9-1.981-1.958,0-1.385,1.112-2.31,2.839-2.31,1.111-.01,2.196.341,3.091,1l-.671.989c-.698-.566-1.566-.88-2.464-.891-.924,0-1.529.462-1.529,1.089,0,.551.34.836,1.188.969l1.364.241c1.551.265,2.277.946,2.277,2.112,0,1.409-1.254,2.411-3.091,2.411-1.195-.002-2.346-.445-3.234-1.244l.717-.967Z"/>
    <path id="uuid-f0746143-8697-48b6-9c7e-45a58e70e2f3" data-name="path344" class="uuid-6515b30d-2ba0-47ab-a89f-e72132d2310c" d="M223.062,94.037h-1.243v-7.866l1.243-.209v8.075Z"/>
    <path id="uuid-276ec230-0489-4819-bea6-89c463019183" data-name="path346" class="uuid-6515b30d-2ba0-47ab-a89f-e72132d2310c" d="M227.111,88.438c1.577-.046,2.892,1.195,2.938,2.772s-1.195,2.892-2.772,2.938-2.892-1.195-2.938-2.772c0-.03-.001-.059-.001-.089-.054-1.519,1.134-2.794,2.653-2.847.04-.001.08-.002.12-.002ZM228.651,91.298c.129-.851-.457-1.645-1.308-1.773-.851-.129-1.645.457-1.773,1.308-.023.154-.023.311,0,.466-.121.851.471,1.639,1.321,1.76.851.121,1.639-.471,1.76-1.321.021-.145.021-.293,0-.438Z"/>
    <path id="uuid-6290bcfb-2f18-45da-a9b6-9290749b3fef" data-name="path348" class="uuid-6515b30d-2ba0-47ab-a89f-e72132d2310c" d="M232.138,94.037l-1.486-5.511h1.189l.967,3.894,1.134-3.894h1.056l1.133,3.905.957-3.905h1.166l-1.485,5.511h-1.2l-1.111-3.884-1.111,3.884h-1.209Z"/>
  </g>
  <g id="uuid-2ac6fec3-e867-4fc3-97d6-b11bd59f0d58" data-name="g374">
    <path id="uuid-816acd1c-b331-4315-a40c-15558d44feb2" data-name="path352" class="uuid-6515b30d-2ba0-47ab-a89f-e72132d2310c" d="M218.047,108.084c-1.71.083-3.164-1.235-3.247-2.945-.008-.155-.003-.311.012-.466v-4.4h1.321v4.4c-.147,1.071.602,2.058,1.673,2.205.084.011.168.018.252.018,1.166,0,1.914-.869,1.914-2.223v-4.4h1.32v4.4c.166,1.711-1.086,3.233-2.797,3.4-.149.014-.299.018-.448.011Z"/>
    <path id="uuid-5d21b155-f58b-4dae-9ae6-fdab5805c0f7" data-name="path354" class="uuid-6515b30d-2ba0-47ab-a89f-e72132d2310c" d="M222.831,102.462h1.244v.9c.363-.62,1.03-.998,1.749-.99,1.024-.027,1.876.782,1.903,1.806.001.054,0,.109-.003.163v3.631h-1.243v-3.279c.074-.651-.395-1.239-1.046-1.313-.054-.006-.109-.009-.164-.007-.487-.001-.94.248-1.2.66v3.939h-1.244l.004-5.51Z"/>
    <path id="uuid-a20304cf-9f37-4ebd-8b70-1d27ba3652a9" data-name="path356" class="uuid-6515b30d-2ba0-47ab-a89f-e72132d2310c" d="M228.958,106.39c0-.99.8-1.617,2.1-1.617.515,0,1.023.116,1.486.34v-.6c0-.726-.418-1.1-1.265-1.1-.561.023-1.109.17-1.607.429l-.44-.9c.711-.356,1.494-.548,2.289-.561,1.43,0,2.255.726,2.255,2v3.6h-1.232v-.562c-.438.426-1.028.66-1.639.65-.953.116-1.819-.563-1.935-1.516-.007-.054-.011-.109-.012-.163ZM231.246,107.19c.474.011.935-.149,1.3-.452v-.9c-.4-.185-.837-.276-1.277-.264-.7,0-1.144.309-1.144.792-.001.507.439.827,1.121.827v-.003Z"/>
    <path id="uuid-6b5af6dd-383d-4b31-a0ec-b6c98a919ebb" data-name="path358" class="uuid-6515b30d-2ba0-47ab-a89f-e72132d2310c" d="M234.634,102.462h1.356l1.529,4.026,1.53-4.026h1.309l-2.266,5.512h-1.2l-2.258-5.512Z"/>
    <path id="uuid-a7b45126-2abb-4945-8e92-a3c2258feb95" data-name="path360" class="uuid-6515b30d-2ba0-47ab-a89f-e72132d2310c" d="M240.97,106.39c0-.99.8-1.617,2.1-1.617.515,0,1.023.116,1.486.34v-.6c0-.726-.418-1.1-1.266-1.1-.56.023-1.109.17-1.606.429l-.44-.9c.711-.357,1.494-.548,2.289-.561,1.43,0,2.255.726,2.255,2v3.6h-1.232v-.562c-.439.425-1.029.659-1.64.65-.953.115-1.819-.564-1.934-1.517-.007-.054-.01-.108-.012-.162ZM243.258,107.19c.474.011.935-.15,1.3-.452v-.9c-.4-.185-.837-.276-1.277-.264-.7,0-1.144.309-1.144.792-.001.507.439.827,1.121.827v-.003Z"/>
    <path id="uuid-d21d30c6-4004-4b72-ad88-041c6e29cc60" data-name="path362" class="uuid-6515b30d-2ba0-47ab-a89f-e72132d2310c" d="M247.141,100.581c.015-.428.375-.763.803-.748.407.015.733.341.748.748-.015.428-.375.763-.803.748-.407-.015-.733-.341-.748-.748ZM248.541,107.974h-1.243v-5.512h1.243v5.512Z"/>
    <path id="uuid-472f2ebf-0c54-4782-8219-9687f7728412" data-name="path364" class="uuid-6515b30d-2ba0-47ab-a89f-e72132d2310c" d="M251.31,107.974h-1.243v-7.866l1.243-.209v8.075Z"/>
    <path id="uuid-7e1d8210-f6a6-4482-8178-01af9412c930" data-name="path366" class="uuid-6515b30d-2ba0-47ab-a89f-e72132d2310c" d="M252.564,106.39c0-.99.8-1.617,2.1-1.617.514,0,1.022.116,1.485.34v-.6c0-.726-.418-1.1-1.265-1.1-.56.023-1.109.17-1.606.429l-.44-.9c.711-.357,1.493-.548,2.288-.561,1.43,0,2.256.726,2.256,2v3.6h-1.232v-.562c-.438.426-1.028.66-1.639.65-.953.116-1.819-.563-1.935-1.516-.007-.054-.011-.109-.012-.163ZM254.852,107.19c.474.011.936-.149,1.3-.452v-.9c-.399-.185-.836-.276-1.276-.264-.7,0-1.144.309-1.144.792-.002.507.438.827,1.12.827v-.003Z"/>
    <path id="uuid-fc385fd9-9919-4151-9af7-dac0ef8fa6d6" data-name="path368" class="uuid-6515b30d-2ba0-47ab-a89f-e72132d2310c" d="M261.738,108.028c-.632.009-1.233-.275-1.628-.769v.715h-1.22v-7.866l1.243-.209v3.3c.416-.505,1.04-.793,1.694-.781,1.547.177,2.657,1.575,2.48,3.122-.153,1.336-1.228,2.377-2.568,2.488h0ZM260.132,104.079v2.3c.326.391.811.613,1.32.606.972-.07,1.704-.914,1.635-1.886-.063-.875-.759-1.572-1.635-1.635-.513-.016-1.002.212-1.32.615Z"/>
    <path id="uuid-4883ae76-ddf2-42f1-9a85-3c31de2bf046" data-name="path370" class="uuid-6515b30d-2ba0-47ab-a89f-e72132d2310c" d="M266.852,107.974h-1.243v-7.866l1.243-.209v8.075Z"/>
    <path id="uuid-b3c991fb-e6db-4c6d-913c-2239016b7fca" data-name="path372" class="uuid-6515b30d-2ba0-47ab-a89f-e72132d2310c" d="M270.934,108.084c-1.546.003-2.803-1.248-2.806-2.794,0-.022,0-.044,0-.066-.075-1.498,1.079-2.772,2.576-2.847.036-.002.072-.003.108-.003,1.461.017,2.631,1.215,2.614,2.676,0,.054-.003.108-.007.162v.309h-4.07c.089.847.798,1.494,1.65,1.506.488.014.961-.173,1.309-.516l.814.759c-.6.539-1.383.83-2.189.814ZM269.372,104.761h2.872c-.067-.755-.684-1.344-1.442-1.375-.759.024-1.377.618-1.43,1.375Z"/>
  </g>
  <g id="uuid-09ae3c96-f367-4514-b470-5e5a2b284296" data-name="g380">
    <polyline id="uuid-207d768b-c651-455d-90fe-19cb16b1b974" data-name="polyline376" class="uuid-b5bb72ba-9048-4eb5-85aa-1a452784d610" points="562.23 120.21 587.413 120.21 587.413 80.102 619.651 80.102"/>
    <polygon id="uuid-7c8210df-ecf0-45b9-b64c-d0527187e6b6" data-name="polygon378" class="uuid-ff1eea68-c42f-445b-bd67-445f4a1a4d43" points="618.192 85.087 626.827 80.102 618.192 75.116 618.192 85.087"/>
  </g>
  <g id="uuid-355eda24-c4dd-4d63-abe8-0ee6afd6ec9f" data-name="g386">
    <polyline id="uuid-d81ead24-3e65-422d-8a4b-9ecfbaf765b8" data-name="polyline382" class="uuid-9f9d5e81-35a1-4f31-84e4-ffa51693bbb6" points="562.23 129.288 587.413 129.288 587.413 168.148 619.651 168.148"/>
    <polygon id="uuid-dfffd101-2643-4b01-98c7-c0835eebc7de" data-name="polygon384" class="uuid-169854b1-0fc0-4bd0-8a0f-aca6b45b8ce3" points="618.192 173.134 626.827 168.149 618.192 163.162 618.192 173.134"/>
  </g>
  <g id="uuid-02489b25-83ad-4d7a-9b62-d70ee1d0b338" data-name="g400">
    <path id="uuid-c2c85a1e-7505-4f21-a5f6-b158a1854f06" data-name="path388" class="uuid-6515b30d-2ba0-47ab-a89f-e72132d2310c" d="M78.052,154.301l.869.836c-1.45,1.632-3.949,1.779-5.581.328-1.632-1.45-1.779-3.949-.328-5.581,1.45-1.632,3.949-1.779,5.581-.328.128.114.249.236.361.366l-.891.88c-.989-1.122-2.701-1.23-3.824-.241-1.122.989-1.23,2.701-.241,3.824.506.574,1.231.907,1.997.918.803,0,1.562-.369,2.057-1.001Z"/>
    <path id="uuid-d4573d28-65b0-4826-bd3d-00f5cd7ff12a" data-name="path390" class="uuid-6515b30d-2ba0-47ab-a89f-e72132d2310c" d="M81.373,156.379h-1.243v-7.866l1.243-.209v8.075Z"/>
    <path id="uuid-fe478150-d719-4933-9349-89f911b547cf" data-name="path392" class="uuid-6515b30d-2ba0-47ab-a89f-e72132d2310c" d="M82.748,148.986c0-.429.347-.776.776-.776s.776.347.776.776-.347.776-.776.776-.776-.347-.776-.776ZM84.148,156.379h-1.246v-5.512h1.243l.003,5.512Z"/>
    <path id="uuid-de3ea7e6-e4f0-4e8c-8793-ef344d5eb039" data-name="path394" class="uuid-6515b30d-2ba0-47ab-a89f-e72132d2310c" d="M88.226,156.489c-1.546,0-2.8-1.253-2.801-2.799,0-.02,0-.04,0-.061-.074-1.498,1.08-2.773,2.579-2.847.035-.002.071-.003.106-.003,1.461.018,2.631,1.217,2.614,2.678,0,.053-.003.107-.007.16v.309h-4.076c.09.848.799,1.495,1.651,1.507.489.014.962-.173,1.309-.517l.814.759c-.601.539-1.383.83-2.19.814ZM86.664,153.166h2.872c-.067-.755-.683-1.344-1.441-1.375-.759.024-1.377.618-1.431,1.375h0Z"/>
    <path id="uuid-a6d6e5b9-79a8-42a1-a976-dc1d1ec57e09" data-name="path396" class="uuid-6515b30d-2ba0-47ab-a89f-e72132d2310c" d="M91.977,150.867h1.243v.9c.363-.621,1.031-.999,1.75-.991,1.024-.027,1.876.782,1.903,1.806.001.054,0,.109-.003.163v3.631h-1.24v-3.275c.074-.651-.394-1.24-1.045-1.314-.055-.006-.111-.009-.166-.007-.487-.001-.941.249-1.2.661v3.938h-1.242v-5.512Z"/>
    <path id="uuid-b7db814e-da72-4a66-91f5-1babdc959066" data-name="path398" class="uuid-6515b30d-2ba0-47ab-a89f-e72132d2310c" d="M99.061,151.858h-1.111v-.991h1.111v-1.518l1.243-.264v1.782h1.541v.991h-1.541v2.794c0,.539.209.748.77.748.255-.002.508-.046.748-.132v1.045c-.347.1-.706.152-1.067.154-1.111,0-1.694-.528-1.694-1.54v-3.069Z"/>
  </g>
  <g id="uuid-ea6bf5ac-7f43-48ca-b990-93ed5f60a68f" data-name="g412">
    <rect id="uuid-a3340ea8-07c6-4247-901d-5063f0b6d7c9" data-name="rect402" class="uuid-dfb3fa30-a7ca-4405-bd64-fcb5199a4867" x="495.824" y="105.739" width="48.5" height="37.18"/>
    <line id="uuid-3815e140-230e-4d21-a81b-962386b91376" data-name="line404" class="uuid-85294066-79dc-49c0-a2eb-079d4dab1abf" x1="538.728" y1="111.32" x2="538.728" y2="111.32"/>
    <line id="uuid-eb024525-e81d-46d3-8385-3857a42e37c8" data-name="line406" class="uuid-85294066-79dc-49c0-a2eb-079d4dab1abf" x1="534.997" y1="111.32" x2="534.997" y2="111.32"/>
    <line id="uuid-b09df3e5-adcd-4983-8049-c0a7d710ae6f" data-name="line408" class="uuid-85294066-79dc-49c0-a2eb-079d4dab1abf" x1="531.267" y1="111.32" x2="531.267" y2="111.32"/>
    <line id="uuid-d320037e-13c5-4eff-8853-fa32812a386b" data-name="line410" class="uuid-cf26675c-4544-44d3-bac1-8693ac3ea235" x1="501.421" y1="111.32" x2="516.344" y2="111.32"/>
  </g>
  <g id="uuid-93da52ef-c18a-4287-ae35-9c8174c787ae" data-name="g428">
    <path id="uuid-50ec076b-7c84-44f0-8dae-f95f6d46b063" data-name="path414" class="uuid-6515b30d-2ba0-47ab-a89f-e72132d2310c" d="M627.907,33.795c.699.605,1.577.965,2.5,1.023.815,0,1.31-.33,1.31-.8,0-.451-.264-.66-1.012-.8l-1.64-.286c-1.075-.08-1.903-.98-1.892-2.058,0-1.5,1.144-2.431,3.058-2.431,1.135-.014,2.243.341,3.158,1.012l-.957,1.375c-.647-.537-1.459-.835-2.3-.846-.748,0-1.178.307-1.178.725,0,.385.254.594.869.694l1.541.263c1.441.253,2.2,1,2.2,2.179,0,1.5-1.276,2.52-3.29,2.52-1.21-.01-2.382-.42-3.333-1.167l.966-1.403Z"/>
    <path id="uuid-b6eaa52e-9c07-468f-b766-951b11dad45d" data-name="path416" class="uuid-6515b30d-2ba0-47ab-a89f-e72132d2310c" d="M637.368,36.359c-1.621.031-2.961-1.257-2.992-2.878,0-.02,0-.04,0-.06-.056-1.571,1.173-2.89,2.744-2.946.039-.001.077-.002.116-.002,1.54-.011,2.798,1.229,2.809,2.769,0,.081-.002.163-.009.244v.386h-3.905c.138.624.692,1.068,1.331,1.067.427.022.84-.152,1.122-.473l1.177.979c-.642.613-1.504.943-2.392.914ZM636.125,32.859h2.255c-.089-.571-.578-.995-1.156-1-.566.01-1.036.439-1.099,1.001h0Z"/>
    <path id="uuid-35386b06-bc72-406a-b791-d0f88f75237e" data-name="path418" class="uuid-6515b30d-2ba0-47ab-a89f-e72132d2310c" d="M641.14,30.571h1.783v1.288c.362-.947.869-1.4,1.54-1.4.207-.003.411.046.594.144v1.529c-.262-.12-.548-.18-.836-.177-.523.002-1.01.264-1.3.7v3.587h-1.781v-5.671Z"/>
    <path id="uuid-449a20ba-52ef-48b0-b31b-a549c2e4c98e" data-name="path420" class="uuid-6515b30d-2ba0-47ab-a89f-e72132d2310c" d="M645.39,30.571h1.936l1.287,3.565,1.3-3.565h1.838l-2.321,5.677h-1.74l-2.3-5.677Z"/>
    <path id="uuid-f433a5cd-5158-4f25-bf84-63eb486b45f6" data-name="path422" class="uuid-6515b30d-2ba0-47ab-a89f-e72132d2310c" d="M652.404,28.701c.018-.556.482-.992,1.038-.975.531.017.958.444.975.975-.018.556-.482.992-1.038.975-.531-.017-.958-.444-.975-.975ZM654.297,36.248h-1.783v-5.677h1.783v5.677Z"/>
    <path id="uuid-41c1bb72-38d5-4429-ac49-954defb10966" data-name="path424" class="uuid-6515b30d-2ba0-47ab-a89f-e72132d2310c" d="M659.621,34.257l1.056,1.045c-.575.679-1.422,1.066-2.311,1.057-1.622-.03-2.913-1.369-2.883-2.992.029-1.58,1.303-2.854,2.883-2.883.904-.017,1.769.365,2.365,1.044l-1.089,1.089c-.28-.388-.731-.618-1.21-.616-.776.102-1.323.814-1.222,1.59.086.653.61,1.161,1.266,1.227.451.012.878-.198,1.145-.561Z"/>
    <path id="uuid-eb207374-2cd4-4ce9-b023-2400d188767c" data-name="path426" class="uuid-6515b30d-2ba0-47ab-a89f-e72132d2310c" d="M664.35,36.359c-1.622.031-2.962-1.259-2.992-2.88,0-.019,0-.038,0-.058-.055-1.572,1.174-2.891,2.746-2.946.038-.001.077-.002.115-.002,1.541-.008,2.796,1.235,2.804,2.776,0,.079-.003.158-.009.237v.386h-3.906c.138.624.692,1.068,1.331,1.067.427.022.84-.152,1.122-.473l1.177.979c-.641.612-1.501.941-2.387.914ZM663.107,32.859h2.255c-.088-.571-.577-.995-1.155-1-.566.01-1.037.438-1.1,1.001h0Z"/>
  </g>
  <rect id="uuid-6338a689-1ff0-423b-8ece-3eec94610181" data-name="rect430" class="uuid-5226e0ad-defc-4bc8-b7a9-9d666e81618c" x="626.73" y="48.024" width="135.594" height="68.295"/>
  <rect id="uuid-fbc8dc8e-6f8b-4d86-8040-c68baa745b9b" data-name="rect432" class="uuid-d53ef07b-0aae-47a7-95b3-61c76475e4eb" x="626.73" y="132.339" width="135.594" height="68.295"/>
  <g id="uuid-db476315-65fb-44eb-97e1-5c5192787ac4" data-name="g444">
    <path id="uuid-d815264b-afa8-496d-b512-9aa660981057" data-name="path434" class="uuid-3c2ec8da-a60f-4b91-92d4-d00082bb1636" d="M638.08,55.419h1.893v2.992h3.117v-2.992h1.891v7.7h-1.891v-3.047h-3.113v3.048h-1.897v-7.701Z"/>
    <path id="uuid-62e298b5-40bb-4b3e-9b57-cf25f1a3ae13" data-name="path436" class="uuid-3c2ec8da-a60f-4b91-92d4-d00082bb1636" d="M649.124,57.356c1.623.012,2.929,1.336,2.917,2.959-.012,1.623-1.336,2.929-2.959,2.917-1.615-.012-2.917-1.324-2.917-2.939-.026-1.596,1.246-2.911,2.842-2.937.039,0,.078,0,.117,0ZM650.356,60.293c.115-.677-.341-1.32-1.019-1.434-.677-.115-1.32.341-1.434,1.019-.023.138-.023.278,0,.416-.104.677.36,1.311,1.037,1.416s1.311-.36,1.416-1.037c.019-.125.019-.253,0-.378Z"/>
    <path id="uuid-6aad44a6-ee4e-44cc-9e07-4f8537bc00a5" data-name="path438" class="uuid-3c2ec8da-a60f-4b91-92d4-d00082bb1636" d="M653.546,61.349c.547.349,1.177.546,1.826.572.506,0,.813-.176.813-.462,0-.22-.165-.341-.527-.407l-1.09-.2c-1.1-.209-1.672-.77-1.672-1.651,0-1.166.892-1.858,2.376-1.858.814.006,1.612.23,2.311.648l-.814,1.134c-.49-.305-1.052-.472-1.629-.484-.428,0-.681.142-.681.395,0,.232.142.33.583.407l1.067.2c1.122.209,1.716.781,1.705,1.639.011,1.111-1.045,1.948-2.442,1.948-.919.032-1.826-.21-2.607-.694l.781-1.187Z"/>
    <path id="uuid-5746267f-c709-49c3-a134-da25bf361fc1" data-name="path440" class="uuid-3c2ec8da-a60f-4b91-92d4-d00082bb1636" d="M659.596,58.819h-1.1v-1.375h1.1v-1.574l1.782-.363v1.937h1.518v1.375h-1.518v2.2c0,.506.2.682.748.682.247-.003.492-.043.726-.121v1.442c-.398.108-.808.167-1.221.175-1.342,0-2.035-.616-2.035-1.826v-2.552Z"/>
    <path id="uuid-2312830b-599b-47cd-b239-1df949704fc4" data-name="path442" class="uuid-3c2ec8da-a60f-4b91-92d4-d00082bb1636" d="M668.583,55.419h2.156l2.959,7.7h-2.046l-.637-1.837h-2.817l-.649,1.837h-1.97l3.004-7.7ZM670.508,59.819l-.891-2.551-.9,2.551h1.791Z"/>
  </g>
  <g id="uuid-17d480e8-fc34-49a8-a3f8-0dbd76ab1e53" data-name="g456">
    <path id="uuid-4692b88a-27a3-4a15-a11b-7503e35cb3e0" data-name="path446" class="uuid-6515b30d-2ba0-47ab-a89f-e72132d2310c" d="M638.08,161.739h1.893v2.993h3.117v-2.993h1.891v7.7h-1.891v-3.048h-3.113v3.048h-1.897v-7.7Z"/>
    <path id="uuid-1edf5096-a910-4dd1-b133-e5cbacafae17" data-name="path448" class="uuid-6515b30d-2ba0-47ab-a89f-e72132d2310c" d="M649.124,163.676c1.623.012,2.929,1.336,2.917,2.959s-1.336,2.929-2.959,2.917c-1.615-.012-2.917-1.324-2.917-2.939-.026-1.596,1.247-2.912,2.844-2.937.038,0,.077,0,.115,0ZM650.356,166.613c.115-.677-.341-1.32-1.019-1.434-.677-.115-1.32.341-1.434,1.019-.023.138-.023.278,0,.416-.104.677.36,1.311,1.037,1.416s1.311-.36,1.416-1.037c.019-.125.019-.253,0-.378Z"/>
    <path id="uuid-e677fd4a-b305-4990-9403-3bb6fb83e8cb" data-name="path450" class="uuid-6515b30d-2ba0-47ab-a89f-e72132d2310c" d="M653.546,167.669c.547.349,1.177.546,1.826.572.506,0,.813-.175.813-.462,0-.219-.165-.34-.527-.407l-1.09-.2c-1.1-.209-1.672-.77-1.672-1.65,0-1.166.892-1.859,2.376-1.859.814.006,1.612.23,2.311.649l-.814,1.133c-.49-.305-1.052-.472-1.629-.484-.428,0-.681.143-.681.4,0,.231.142.33.583.407l1.067.2c1.122.209,1.716.781,1.705,1.64.011,1.11-1.045,1.947-2.442,1.947-.918.032-1.826-.209-2.607-.693l.781-1.193Z"/>
    <path id="uuid-b3e09258-5705-4884-8dcd-4165c029b32b" data-name="path452" class="uuid-6515b30d-2ba0-47ab-a89f-e72132d2310c" d="M659.596,165.139h-1.1v-1.375h1.1v-1.573l1.782-.364v1.937h1.518v1.375h-1.518v2.2c0,.506.2.683.748.683.247-.003.492-.044.726-.121v1.441c-.398.109-.808.168-1.221.176-1.342,0-2.035-.616-2.035-1.826v-2.553Z"/>
    <path id="uuid-e2d26df7-6dde-4b6b-b0b2-19b08a03c037" data-name="path454" class="uuid-6515b30d-2ba0-47ab-a89f-e72132d2310c" d="M670.222,161.739c1.5,0,2.563.88,2.563,2.1-.029.724-.462,1.371-1.122,1.672.773.252,1.309.958,1.343,1.771,0,1.265-1.078,2.157-2.608,2.157h-3.983v-7.7h3.807ZM668.307,163.246v1.585h1.7c.436.048.828-.267.875-.703.003-.029.005-.059.005-.089.009-.432-.334-.79-.767-.799-.038,0-.076.001-.113.006h-1.7ZM671.091,167.086c.011-.46-.354-.842-.815-.853-.04,0-.08.001-.12.006h-1.849v1.695h1.849c.458.055.874-.272.928-.73.005-.039.007-.079.006-.118h0Z"/>
  </g>
  <g id="uuid-d21e2bd4-8943-4882-943c-5ef6b471676a" data-name="g472">
    <path id="uuid-7479905b-7d12-4a75-a729-d5a96e31ec71" data-name="path458" class="uuid-3c2ec8da-a60f-4b91-92d4-d00082bb1636" d="M648.256,72.401h5.534v1.122h-4.214v2.2h2.9v1.1h-2.9v3.278h-1.32v-7.7Z"/>
    <path id="uuid-e756a76e-61fb-433a-b4c4-d6e13aa3ac7c" data-name="path460" class="uuid-3c2ec8da-a60f-4b91-92d4-d00082bb1636" d="M654.801,78.518c0-.991.8-1.617,2.1-1.617.515,0,1.023.116,1.486.34v-.6c0-.726-.418-1.1-1.265-1.1-.561.023-1.109.17-1.607.429l-.44-.9c.711-.356,1.494-.548,2.289-.561,1.43,0,2.255.726,2.255,2v3.6h-1.229v-.562c-.438.426-1.028.66-1.639.65-.953.117-1.82-.56-1.938-1.512-.007-.055-.011-.111-.012-.167ZM657.089,79.318c.474.012.935-.148,1.3-.451v-.9c-.4-.185-.837-.276-1.277-.264-.7,0-1.143.309-1.143.792-.002.506.437.825,1.121.825v-.002Z"/>
    <path id="uuid-0878bfdc-f8af-4b81-a1e8-9082dcad0858" data-name="path462" class="uuid-3c2ec8da-a60f-4b91-92d4-d00082bb1636" d="M660.972,72.709c.015-.428.375-.763.803-.748.407.014.734.341.748.748-.015.428-.375.763-.803.748-.407-.014-.734-.341-.748-.748ZM662.372,80.102h-1.243v-5.512h1.243v5.512Z"/>
    <path id="uuid-3ff01ee6-574d-4b6e-b38f-f02d2808c0c1" data-name="path464" class="uuid-3c2ec8da-a60f-4b91-92d4-d00082bb1636" d="M665.14,80.101h-1.243v-7.865l1.243-.209v8.074Z"/>
    <path id="uuid-8e2b649c-91f2-4cd8-901b-936199ea8067" data-name="path466" class="uuid-3c2ec8da-a60f-4b91-92d4-d00082bb1636" d="M666.515,72.709c0-.429.347-.776.776-.776s.776.347.776.776-.347.776-.776.776-.776-.347-.776-.776h0ZM667.915,80.102h-1.245v-5.512h1.243l.002,5.512Z"/>
    <path id="uuid-5b045ac7-f81f-49be-8654-221babee5693" data-name="path468" class="uuid-3c2ec8da-a60f-4b91-92d4-d00082bb1636" d="M669.441,74.59h1.243v.9c.363-.621,1.031-.999,1.75-.99,1.024-.027,1.876.782,1.903,1.806.001.054,0,.109-.003.163v3.632h-1.243v-3.278c.073-.652-.396-1.24-1.048-1.313-.054-.006-.108-.008-.163-.007-.487,0-.94.249-1.2.66v3.938h-1.243l.004-5.511Z"/>
    <path id="uuid-15003db2-ca00-4081-a7fa-330f19e7e517" data-name="path470" class="uuid-3c2ec8da-a60f-4b91-92d4-d00082bb1636" d="M675.59,77.34c-.075-1.467,1.054-2.717,2.521-2.792.018,0,.035-.002.053-.002.624-.007,1.218.268,1.617.748v-.7h1.233v5.7c0,1.419-.925,2.2-2.6,2.2-.769.004-1.527-.177-2.211-.528l.439-.924c.526.293,1.115.455,1.717.473.924,0,1.408-.418,1.408-1.221v-.935c-.413.503-1.032.79-1.683.781-1.456-.078-2.574-1.323-2.495-2.779,0-.007,0-.014.001-.021ZM678.461,79.101c.506.01.989-.214,1.309-.606v-2.31c-.328-.381-.807-.598-1.309-.594-.908,0-1.644.737-1.643,1.645,0,.035.001.07.003.104-.052.919.651,1.706,1.57,1.759.024.001.047.002.071.002h0Z"/>
  </g>
  <path id="uuid-df1e6ba7-436f-402f-9350-073db4c208c0" data-name="path474" class="uuid-3c2ec8da-a60f-4b91-92d4-d00082bb1636" d="M638.541,76.445c-.029-.784.582-1.443,1.366-1.472.784-.029,1.443.582,1.472,1.366.001.035.001.071,0,.106,0,.784-.635,1.419-1.419,1.419s-1.419-.635-1.419-1.419Z"/>
  <path id="uuid-17e9c202-ca3d-4089-b737-3146ae41707d" data-name="path476" class="uuid-3c2ec8da-a60f-4b91-92d4-d00082bb1636" d="M638.541,89.584c-.029-.784.582-1.443,1.366-1.472.784-.029,1.443.582,1.472,1.366.001.035.001.071,0,.106,0,.784-.635,1.419-1.419,1.419s-1.419-.635-1.419-1.419Z"/>
  <path id="uuid-681454a7-bf90-4098-a8b9-57a541dd9de8" data-name="path478" class="uuid-3c2ec8da-a60f-4b91-92d4-d00082bb1636" d="M638.541,104.52c-.029-.784.582-1.443,1.366-1.472.784-.029,1.443.582,1.472,1.366.001.035.001.071,0,.106,0,.784-.635,1.419-1.419,1.419s-1.419-.635-1.419-1.419Z"/>
  <g id="uuid-b91a623b-1dca-4de9-ae80-a7604d663739" data-name="g488">
    <path id="uuid-7d3695d8-0c01-400d-9ba6-0cf2ccc8acbb" data-name="path480" class="uuid-3c2ec8da-a60f-4b91-92d4-d00082bb1636" d="M648.31,91.936c.69.687,1.613,1.088,2.586,1.122,1.024,0,1.728-.517,1.728-1.221,0-.627-.375-.913-1.4-1.1l-1.419-.242c-1.332-.241-1.98-.9-1.98-1.958,0-1.385,1.111-2.31,2.838-2.31,1.112-.01,2.197.341,3.092,1l-.671.989c-.698-.565-1.567-.879-2.465-.891-.924,0-1.529.462-1.529,1.089,0,.551.34.836,1.188.969l1.364.241c1.551.265,2.278.946,2.278,2.112,0,1.409-1.254,2.411-3.092,2.411-1.194-.002-2.346-.445-3.234-1.244l.716-.967Z"/>
    <path id="uuid-cd9d86f7-ae72-476e-a759-48313df739cc" data-name="path482" class="uuid-3c2ec8da-a60f-4b91-92d4-d00082bb1636" d="M656.351,94.037h-1.243v-7.866l1.243-.209v8.075Z"/>
    <path id="uuid-2b2de80e-f401-49f2-b051-b2a4ecc4c88f" data-name="path484" class="uuid-3c2ec8da-a60f-4b91-92d4-d00082bb1636" d="M660.4,88.438c1.577-.046,2.892,1.194,2.939,2.771.046,1.577-1.194,2.892-2.771,2.939-1.577.046-2.892-1.194-2.939-2.771,0-.03-.001-.06-.001-.09-.054-1.519,1.134-2.794,2.653-2.847.04-.001.079-.002.119-.002ZM661.94,91.298c.129-.851-.457-1.645-1.308-1.773s-1.645.457-1.773,1.308c-.023.154-.023.311,0,.466-.121.851.471,1.639,1.321,1.76.851.121,1.639-.471,1.76-1.321.021-.145.021-.293,0-.438Z"/>
    <path id="uuid-b733e8d2-44c6-437f-bfeb-551988f55722" data-name="path486" class="uuid-3c2ec8da-a60f-4b91-92d4-d00082bb1636" d="M665.427,94.037l-1.486-5.511h1.189l.968,3.894,1.133-3.894h1.059l1.134,3.905.957-3.905h1.166l-1.486,5.511h-1.2l-1.111-3.884-1.111,3.884h-1.212Z"/>
  </g>
  <g id="uuid-b3e42277-0722-4269-8342-09a10b1e6738" data-name="g512">
    <path id="uuid-d73b8324-4433-4b91-b684-885dd32cc53a" data-name="path490" class="uuid-3c2ec8da-a60f-4b91-92d4-d00082bb1636" d="M651.336,108.084c-1.71.083-3.164-1.235-3.247-2.945-.008-.155-.003-.311.012-.466v-4.4h1.321v4.4c-.146,1.071.604,2.059,1.675,2.205.083.011.167.017.251.018,1.166,0,1.914-.869,1.914-2.223v-4.4h1.32v4.4c.166,1.712-1.087,3.234-2.799,3.4-.149.014-.298.018-.447.011Z"/>
    <path id="uuid-d35c526a-3d5b-4c88-9fb6-f882257a25c4" data-name="path492" class="uuid-3c2ec8da-a60f-4b91-92d4-d00082bb1636" d="M656.121,102.462h1.243v.9c.363-.62,1.031-.998,1.749-.99,1.024-.027,1.876.782,1.903,1.806.001.054,0,.109-.003.163v3.631h-1.243v-3.279c.074-.651-.393-1.239-1.044-1.313-.055-.006-.111-.009-.166-.007-.487-.001-.94.248-1.2.66v3.939h-1.243l.004-5.51Z"/>
    <path id="uuid-c7b2ea3b-8179-4cca-9f5b-9e5844e243fb" data-name="path494" class="uuid-3c2ec8da-a60f-4b91-92d4-d00082bb1636" d="M662.248,106.39c0-.99.8-1.617,2.1-1.617.514,0,1.022.116,1.485.34v-.6c0-.726-.418-1.1-1.265-1.1-.56.023-1.109.17-1.606.429l-.441-.9c.711-.356,1.494-.548,2.289-.561,1.43,0,2.255.726,2.255,2v3.6h-1.232v-.562c-.438.426-1.028.66-1.639.65-.953.115-1.819-.564-1.934-1.517-.007-.054-.01-.108-.012-.162ZM664.536,107.19c.474.011.935-.149,1.3-.452v-.9c-.4-.185-.837-.276-1.277-.264-.7,0-1.143.309-1.143.792-.002.507.437.827,1.12.827v-.003Z"/>
    <path id="uuid-9a338e29-b110-4bc5-ab4c-8340553ab787" data-name="path496" class="uuid-3c2ec8da-a60f-4b91-92d4-d00082bb1636" d="M667.924,102.462h1.352l1.53,4.026,1.529-4.026h1.309l-2.266,5.512h-1.2l-2.254-5.512Z"/>
    <path id="uuid-1927dddf-01a7-4399-9204-c831d4bc1605" data-name="path498" class="uuid-3c2ec8da-a60f-4b91-92d4-d00082bb1636" d="M674.26,106.39c0-.99.8-1.617,2.1-1.617.515,0,1.023.116,1.486.34v-.6c0-.726-.418-1.1-1.265-1.1-.561.023-1.109.17-1.607.429l-.44-.9c.711-.356,1.494-.548,2.289-.561,1.43,0,2.255.726,2.255,2v3.6h-1.232v-.562c-.438.426-1.028.66-1.639.65-.953.116-1.819-.563-1.935-1.516-.007-.054-.011-.109-.012-.163ZM676.548,107.19c.474.011.935-.149,1.3-.452v-.9c-.4-.185-.837-.276-1.277-.264-.7,0-1.143.309-1.143.792-.002.507.437.827,1.12.827v-.003Z"/>
    <path id="uuid-51f9237a-69da-4413-8f8a-433d958737c4" data-name="path500" class="uuid-3c2ec8da-a60f-4b91-92d4-d00082bb1636" d="M680.431,100.581c.002-.428.35-.774.778-.772.426.002.77.346.772.772-.002.428-.35.774-.778.772-.426-.002-.77-.346-.772-.772ZM681.831,107.974h-1.243v-5.512h1.243v5.512Z"/>
    <path id="uuid-0ce1ab60-0d77-4b06-b224-c4fea5d6e9ff" data-name="path502" class="uuid-3c2ec8da-a60f-4b91-92d4-d00082bb1636" d="M684.599,107.974h-1.243v-7.866l1.243-.209v8.075Z"/>
    <path id="uuid-99356d1f-44b1-4599-9d73-faf4a412e315" data-name="path504" class="uuid-3c2ec8da-a60f-4b91-92d4-d00082bb1636" d="M685.853,106.39c0-.99.8-1.617,2.1-1.617.514,0,1.022.116,1.485.34v-.6c0-.726-.418-1.1-1.264-1.1-.561.023-1.109.17-1.607.429l-.44-.9c.711-.356,1.494-.548,2.289-.561,1.43,0,2.255.726,2.255,2v3.6h-1.233v-.562c-.438.426-1.027.659-1.638.65-.953.116-1.819-.563-1.935-1.516-.007-.054-.011-.109-.012-.163ZM688.141,107.19c.474.012.936-.149,1.3-.452v-.9c-.399-.185-.836-.276-1.276-.264-.7,0-1.144.309-1.144.792-.002.507.438.827,1.12.827v-.003Z"/>
    <path id="uuid-e4839154-ad50-42ae-9ead-8e95f6092fa1" data-name="path506" class="uuid-3c2ec8da-a60f-4b91-92d4-d00082bb1636" d="M695.027,108.028c-.632.009-1.233-.275-1.628-.769v.715h-1.221v-7.866l1.243-.209v3.3c.416-.505,1.04-.792,1.694-.781,1.547.177,2.657,1.575,2.48,3.122-.153,1.336-1.228,2.377-2.568,2.488h0ZM693.421,104.079v2.3c.326.391.811.613,1.32.606.972-.07,1.704-.914,1.635-1.886-.063-.875-.759-1.572-1.635-1.635-.513-.016-1.002.212-1.32.615h0Z"/>
    <path id="uuid-f3923ac6-63c9-4ca0-a287-03c351499023" data-name="path508" class="uuid-3c2ec8da-a60f-4b91-92d4-d00082bb1636" d="M700.141,107.974h-1.243v-7.866l1.243-.209v8.075Z"/>
    <path id="uuid-6d1c2bd0-89bb-4a0a-bad2-73f57373497f" data-name="path510" class="uuid-3c2ec8da-a60f-4b91-92d4-d00082bb1636" d="M704.224,108.084c-1.546.004-2.803-1.247-2.807-2.793,0-.022,0-.044,0-.067-.075-1.498,1.079-2.772,2.576-2.847.036-.002.072-.003.108-.003,1.461.017,2.632,1.216,2.615,2.677,0,.054-.003.108-.007.161v.309h-4.07c.089.848.798,1.494,1.65,1.506.488.014.961-.173,1.309-.516l.814.759c-.6.539-1.383.829-2.189.814ZM702.661,104.761h2.872c-.067-.755-.683-1.344-1.441-1.375-.759.024-1.377.618-1.431,1.375Z"/>
  </g>
  <g id="uuid-983a6951-3d06-4e1d-91f5-a68c17b58880" data-name="g526">
    <path id="uuid-36c56b82-6639-4d91-a652-3d9b8ab60b5f" data-name="path514" class="uuid-6515b30d-2ba0-47ab-a89f-e72132d2310c" d="M511.341,154.301l.869.836c-1.45,1.632-3.949,1.779-5.581.328-1.632-1.45-1.779-3.949-.328-5.581s3.949-1.779,5.581-.328c.128.114.249.236.361.366l-.891.88c-.989-1.122-2.701-1.23-3.824-.241s-1.23,2.701-.241,3.824c.506.574,1.231.907,1.997.918.803,0,1.562-.369,2.057-1.001Z"/>
    <path id="uuid-10212550-d7df-4c9d-b2f5-893a5e475f4b" data-name="path516" class="uuid-6515b30d-2ba0-47ab-a89f-e72132d2310c" d="M514.663,156.379h-1.244v-7.866l1.244-.209v8.075Z"/>
    <path id="uuid-475dd020-f36f-4b3a-a0f8-270588628091" data-name="path518" class="uuid-6515b30d-2ba0-47ab-a89f-e72132d2310c" d="M516.038,148.986c.015-.428.375-.763.803-.748.407.015.733.341.748.748-.015.428-.375.763-.803.748-.407-.015-.733-.341-.748-.748ZM517.438,156.379h-1.248v-5.512h1.243l.005,5.512Z"/>
    <path id="uuid-fe76ae79-d1bc-4316-942e-c22042fca7a6" data-name="path520" class="uuid-6515b30d-2ba0-47ab-a89f-e72132d2310c" d="M521.515,156.489c-1.546.003-2.803-1.248-2.806-2.794,0-.022,0-.044,0-.066-.074-1.498,1.08-2.773,2.579-2.847.035-.002.071-.003.106-.003,1.461.018,2.631,1.217,2.614,2.678,0,.053-.003.107-.007.16v.309h-4.07c.089.848.798,1.495,1.65,1.507.489.014.962-.173,1.309-.517l.814.759c-.601.539-1.383.83-2.19.814ZM519.954,153.166h2.871c-.067-.755-.683-1.344-1.441-1.375-.759.024-1.376.618-1.43,1.375h0Z"/>
    <path id="uuid-c64cd808-896d-48c1-8cc0-ef3e1a44a77d" data-name="path522" class="uuid-6515b30d-2ba0-47ab-a89f-e72132d2310c" d="M525.266,150.867h1.243v.9c.363-.621,1.031-.999,1.75-.991,1.024-.027,1.876.782,1.903,1.806.001.054,0,.109-.003.163v3.631h-1.243v-3.275c.074-.651-.394-1.24-1.045-1.314-.055-.006-.111-.009-.166-.007-.487,0-.94.249-1.2.661v3.938h-1.243l.004-5.512Z"/>
    <path id="uuid-f3e64575-6ae9-4f8a-87f3-ee0e8d9651e7" data-name="path524" class="uuid-6515b30d-2ba0-47ab-a89f-e72132d2310c" d="M532.35,151.858h-1.111v-.991h1.111v-1.518l1.243-.264v1.782h1.541v.991h-1.544v2.794c0,.539.209.748.77.748.255-.002.508-.046.748-.132v1.045c-.347.1-.706.152-1.067.154-1.112,0-1.694-.528-1.694-1.54l.003-3.069Z"/>
  </g>
  <g id="uuid-ebd4343a-673c-476a-90a4-b2075f85aa80" data-name="g560">
    <g id="uuid-58c03386-ea4b-424b-9e2e-60053ef35bb5" data-name="g552">
      <path id="uuid-2747b17b-4cda-4db6-ae2b-cf16cb6e58cb" data-name="path528" class="uuid-19b42d3c-062a-4d97-9cb3-96990a3d4b37" d="M380.133,121.684l.869.836c-1.45,1.632-3.949,1.779-5.581.328-1.632-1.45-1.779-3.949-.328-5.581s3.949-1.779,5.581-.328c.128.114.249.236.361.366l-.891.88c-.989-1.122-2.701-1.23-3.824-.241s-1.23,2.701-.241,3.824c.506.574,1.231.907,1.997.918.803,0,1.562-.369,2.057-1.001Z"/>
      <path id="uuid-ddae9bb5-5764-4742-ad3e-a9aa39f02e2e" data-name="path530" class="uuid-19b42d3c-062a-4d97-9cb3-96990a3d4b37" d="M382.058,116.37c.015-.428.375-.763.803-.748.407.015.733.341.748.748-.015.428-.375.763-.803.748-.407-.015-.733-.341-.748-.748ZM383.458,123.763h-1.246v-5.512h1.244l.002,5.512Z"/>
      <path id="uuid-9333a87c-916e-459a-ba21-47d6aebab07a" data-name="path532" class="uuid-19b42d3c-062a-4d97-9cb3-96990a3d4b37" d="M384.983,118.251h1.244v1.2c.151-.728.775-1.263,1.518-1.3.185.002.368.04.539.11v1.089c-.216-.089-.448-.134-.682-.132-.599.006-1.137.364-1.375.913v3.631h-1.244v-5.511Z"/>
      <path id="uuid-8d337fcd-3df9-4ed3-9cdb-0b4876bc51bf" data-name="path534" class="uuid-19b42d3c-062a-4d97-9cb3-96990a3d4b37" d="M393.245,122.167l.748.749c-.548.614-1.334.962-2.157.957-1.574-.002-2.849-1.279-2.847-2.853.002-1.572,1.275-2.846,2.847-2.847.83-.013,1.628.322,2.2.924l-.77.8c-.344-.41-.851-.648-1.386-.65-.971.098-1.679.966-1.581,1.937.086.848.764,1.514,1.614,1.584.512.012,1.002-.209,1.332-.601Z"/>
      <path id="uuid-22b4e558-296c-4cca-a6ac-cec01049368f" data-name="path536" class="uuid-19b42d3c-062a-4d97-9cb3-96990a3d4b37" d="M396.27,121.529c-.074.651.394,1.24,1.045,1.314.054.006.109.009.164.007.496.005.958-.256,1.21-.683v-3.916h1.244v5.512h-1.244v-.913c-.364.625-1.036,1.007-1.759,1-1.021.03-1.873-.773-1.903-1.793-.002-.059,0-.117.003-.176v-3.63h1.244l-.004,3.278Z"/>
      <path id="uuid-c2553133-49a5-4534-93f0-987e18ef2bed" data-name="path538" class="uuid-19b42d3c-062a-4d97-9cb3-96990a3d4b37" d="M401.312,116.37c.015-.428.375-.763.803-.748.407.015.733.341.748.748-.015.428-.375.763-.803.748-.407-.015-.733-.341-.748-.748ZM402.712,123.763h-1.243v-5.512h1.243v5.512Z"/>
      <path id="uuid-8159cee1-e4e3-4f8d-b295-33c0c2b09e85" data-name="path540" class="uuid-19b42d3c-062a-4d97-9cb3-96990a3d4b37" d="M404.912,119.241h-1.111v-.99h1.111v-1.518l1.243-.264v1.782h1.541v.99h-1.541v2.794c0,.539.209.748.77.748.255-.001.508-.046.748-.131v1.049c-.347.101-.706.153-1.067.155-1.111,0-1.694-.529-1.694-1.54v-3.075Z"/>
      <path id="uuid-5e4ea07b-3785-4ef7-9c69-8d8fb9ad452a" data-name="path542" class="uuid-19b42d3c-062a-4d97-9cb3-96990a3d4b37" d="M414.112,123.818c-.632.008-1.233-.276-1.628-.77v.715h-1.222v-7.862l1.243-.209v3.3c.416-.505,1.04-.792,1.694-.781,1.459.077,2.579,1.322,2.501,2.781,0,.008,0,.017-.001.025.072,1.474-1.065,2.727-2.539,2.799-.016,0-.032.001-.048.002ZM412.506,119.868v2.3c.326.391.811.613,1.32.606.972-.07,1.704-.914,1.635-1.886-.063-.875-.759-1.572-1.635-1.635-.513-.016-1.003.212-1.321.615h.001Z"/>
      <path id="uuid-fbc1df00-c9fd-44f1-bdd4-38c6b432cfff" data-name="path544" class="uuid-19b42d3c-062a-4d97-9cb3-96990a3d4b37" d="M417.982,118.251h1.244v1.2c.151-.728.775-1.263,1.518-1.3.185.002.368.04.539.11v1.089c-.216-.089-.447-.134-.681-.132-.599.005-1.138.363-1.376.913v3.631h-1.244v-5.511Z"/>
      <path id="uuid-11b7044f-5ed0-4f54-852e-f9cb2fdca7de" data-name="path546" class="uuid-19b42d3c-062a-4d97-9cb3-96990a3d4b37" d="M424.857,123.873c-1.546,0-2.8-1.253-2.801-2.799,0-.02,0-.04,0-.061-.075-1.498,1.079-2.772,2.577-2.847.036-.002.072-.003.107-.003,1.461.019,2.629,1.219,2.61,2.68,0,.053-.003.106-.007.158v.309h-4.071c.09.848.799,1.495,1.651,1.507.489.014.962-.173,1.309-.517l.814.759c-.601.539-1.383.83-2.19.814ZM423.296,120.55h2.871c-.067-.755-.683-1.344-1.441-1.375-.759.023-1.377.618-1.43,1.375Z"/>
      <path id="uuid-75f281de-d0d3-4151-8a7a-491b951db4b6" data-name="path548" class="uuid-19b42d3c-062a-4d97-9cb3-96990a3d4b37" d="M428.334,122.179c0-.99.8-1.617,2.1-1.617.514,0,1.022.116,1.485.34v-.6c0-.726-.418-1.1-1.265-1.1-.56.023-1.109.17-1.606.429l-.441-.9c.711-.356,1.494-.548,2.289-.561,1.43,0,2.255.726,2.255,2v3.6h-1.232v-.569c-.438.426-1.028.66-1.639.65-.953.115-1.819-.564-1.934-1.517-.006-.052-.01-.103-.012-.155ZM430.622,122.979c.474.011.935-.149,1.3-.452v-.9c-.399-.185-.836-.275-1.276-.264-.7,0-1.144.309-1.144.792-.002.507.437.827,1.12.827v-.003Z"/>
      <path id="uuid-40999772-463f-4b43-811a-25df51c43075" data-name="path550" class="uuid-19b42d3c-062a-4d97-9cb3-96990a3d4b37" d="M434.658,115.901l1.243-.209v4.918l2.289-2.355h1.422l-2.519,2.553,2.674,2.959h-1.6l-2.267-2.541v2.541h-1.243v-7.866Z"/>
    </g>
    <g id="uuid-22b2f692-475c-4caf-9cd9-6f863615ecd2" data-name="g558">
      <line id="uuid-a159d95b-74a1-4acd-8bfa-0c7105a8bf4b" data-name="line554" class="uuid-1530fda3-9bf4-4ff1-9b4b-556c41f372b4" x1="356.4" y1="128.387" x2="456.597" y2="128.387"/>
      <polygon id="uuid-9784f8de-6a19-4367-80b6-52c31570cc94" data-name="polygon556" class="uuid-19b42d3c-062a-4d97-9cb3-96990a3d4b37" points="454.7 134.869 465.925 128.388 454.7 121.906 454.7 134.869"/>
    </g>
  </g>
  <rect id="uuid-170e883d-b646-423c-9aae-86c4230c51c1" data-name="rect570" class="uuid-9f9d5e81-35a1-4f31-84e4-ffa51693bbb6" x="476.193" y="87.705" width="86.026" height="82.552"/>
  <circle class="uuid-960bfd20-2094-4050-9607-09b293d4eaef" cx="587.759" cy="99.809" r="6.736"/>
  <path id="uuid-4bd41233-f836-46e1-8a66-d9e8d19e97b3" data-name="path564" class="uuid-ba608075-7438-4183-828d-8b6e355cdbce" d="M590.389,97.178h0c-.218-.218-.571-.218-.789,0l-1.843,1.835-1.837-1.836c-.222-.214-.575-.208-.789.014-.208.216-.208.559,0,.775l1.838,1.839-1.838,1.838c-.222.214-.228.567-.014.789s.567.228.789.014c.005-.005.01-.009.014-.014l1.838-1.838,1.839,1.838c.214.222.567.228.789.014.222-.214.228-.567.014-.789-.005-.005-.009-.01-.014-.014l-1.839-1.838,1.839-1.839c.218-.216.221-.568.005-.786,0,0-.001-.001-.002-.002Z"/>
</svg>