<?xml version="1.0" encoding="UTF-8"?>
<svg id="uuid-94168f69-c463-429a-91e3-f933c20000bd" data-name="Layer 1" xmlns="http://www.w3.org/2000/svg" width="595.276" height="339.954" viewBox="0 0 595.276 339.954">
  <defs>
    <style>
      .uuid-03c31099-7809-454a-b393-3840746e0083 {
        stroke: #d9e6b4;
      }

      .uuid-03c31099-7809-454a-b393-3840746e0083, .uuid-3cd1b48d-d2c9-4710-b57c-81a0d76eb5e3, .uuid-eb6e6242-2756-4230-9521-5b264fa5957d, .uuid-edafdd0e-a6b9-4cc2-8e84-b447e2804954 {
        fill: none;
        stroke-miterlimit: 10;
      }

      .uuid-a59825de-03a5-4168-9e40-407342978105 {
        fill: #f2f7e6;
      }

      .uuid-71dbf75d-c00a-4072-8d7d-20c1fb5a40ed {
        fill: #fddbc7;
      }

      .uuid-1d899f22-2d37-4643-8eaf-1bee5b92210f {
        fill: #06c;
      }

      .uuid-33269586-b013-40e2-9354-51c92a2fd8ed {
        fill: #fff;
      }

      .uuid-3cd1b48d-d2c9-4710-b57c-81a0d76eb5e3 {
        stroke: #000;
      }

      .uuid-02a222c9-2dfd-4389-997e-75e55e40b842 {
        fill: #ccb33a;
      }

      .uuid-fb85b938-a374-48b1-a8bc-ec0de875664f {
        fill: #baade3;
      }

      .uuid-7b30dc71-389e-458c-948a-f0b0aa1c4b51 {
        fill: #dbe8f5;
      }

      .uuid-eb6e6242-2756-4230-9521-5b264fa5957d {
        stroke: #8c77d1;
      }

      .uuid-edafdd0e-a6b9-4cc2-8e84-b447e2804954 {
        stroke: #fab890;
      }

      .uuid-f5ad69f1-3272-4c05-b55c-011ab00e941a {
        fill: #a1c2e7;
      }

      .uuid-1bc72e12-8d31-4330-be83-8d2e9d73a263 {
        fill: #e00;
      }
    </style>
  </defs>
  <rect class="uuid-33269586-b013-40e2-9354-51c92a2fd8ed" width="595.276" height="339.954"/>
  <rect class="uuid-eb6e6242-2756-4230-9521-5b264fa5957d" x="403.991" y="281.806" width="175.857" height="36.347"/>
  <rect class="uuid-1d899f22-2d37-4643-8eaf-1bee5b92210f" x="209.709" y="16.848" width="175.857" height="36.347"/>
  <g>
    <path class="uuid-33269586-b013-40e2-9354-51c92a2fd8ed" d="M238.638,30.539h1.199v2.938h3.478v-2.938h1.2v6.996h-1.2v-2.988h-3.478v2.988h-1.199v-6.996Z"/>
    <path class="uuid-33269586-b013-40e2-9354-51c92a2fd8ed" d="M247.897,31.579h-2.338v-1.04h5.876v1.04h-2.338v5.957h-1.2v-5.957Z"/>
    <path class="uuid-33269586-b013-40e2-9354-51c92a2fd8ed" d="M254.376,31.579h-2.338v-1.04h5.876v1.04h-2.338v5.957h-1.2v-5.957Z"/>
    <path class="uuid-33269586-b013-40e2-9354-51c92a2fd8ed" d="M259.007,30.539h3.128c1.419,0,2.339.89,2.339,2.179,0,1.259-.919,2.149-2.339,2.149h-1.929v2.668h-1.2v-6.996ZM261.946,33.888c.85,0,1.319-.47,1.319-1.179,0-.69-.47-1.16-1.309-1.16h-1.749v2.339h1.739Z"/>
    <path class="uuid-33269586-b013-40e2-9354-51c92a2fd8ed" d="M268.047,30.539h3.108c1.389,0,2.339.859,2.339,2.119,0,.91-.54,1.619-1.389,1.919l1.479,2.958h-1.329l-1.35-2.798h-1.659v2.798h-1.2v-6.996ZM271.046,33.778c.75,0,1.239-.44,1.239-1.109,0-.68-.49-1.12-1.239-1.12h-1.799v2.229h1.799Z"/>
    <path class="uuid-33269586-b013-40e2-9354-51c92a2fd8ed" d="M274.147,35.037c0-1.469,1.06-2.589,2.438-2.589,1.37,0,2.369,1.089,2.369,2.589v.27h-3.698c.11.81.72,1.399,1.499,1.399.47,0,.91-.18,1.189-.47l.74.669c-.61.51-1.219.73-1.979.73-1.439,0-2.559-1.129-2.559-2.599ZM277.885,34.607c-.12-.73-.64-1.239-1.309-1.239-.68,0-1.179.49-1.309,1.239h2.618Z"/>
    <path class="uuid-33269586-b013-40e2-9354-51c92a2fd8ed" d="M283.695,36.886c-.36.45-.909.699-1.539.699-1.27,0-2.259-1.129-2.259-2.548,0-1.429,1.029-2.549,2.339-2.549.58,0,1.089.23,1.469.66v-.62h1.119v7.106h-1.129v-2.748ZM283.695,36.086v-2.109c-.29-.34-.72-.54-1.189-.54-.859,0-1.499.68-1.499,1.599,0,.909.64,1.599,1.499,1.599.49,0,.9-.19,1.189-.55Z"/>
    <path class="uuid-33269586-b013-40e2-9354-51c92a2fd8ed" d="M286.188,35.827v-3.298h1.139v2.968c0,.74.43,1.209,1.1,1.209.45,0,.83-.2,1.089-.6v-3.578h1.129v5.007h-1.129v-.81c-.38.59-.919.89-1.589.89-1.02,0-1.739-.74-1.739-1.789Z"/>
    <path class="uuid-33269586-b013-40e2-9354-51c92a2fd8ed" d="M291.817,35.037c0-1.469,1.06-2.589,2.438-2.589,1.37,0,2.369,1.089,2.369,2.589v.27h-3.698c.11.81.72,1.399,1.499,1.399.47,0,.91-.18,1.189-.47l.74.669c-.61.51-1.219.73-1.979.73-1.439,0-2.559-1.129-2.559-2.599ZM295.555,34.607c-.12-.73-.64-1.239-1.309-1.239-.68,0-1.179.49-1.309,1.239h2.618Z"/>
    <path class="uuid-33269586-b013-40e2-9354-51c92a2fd8ed" d="M297.377,36.956l.53-.75c.659.41,1.1.569,1.609.569.6,0,1.009-.28,1.009-.68,0-.31-.21-.47-.699-.569l-.88-.15c-.979-.18-1.449-.63-1.449-1.379,0-.939.77-1.549,1.939-1.549.699,0,1.329.2,1.969.6l-.53.75c-.51-.33-.999-.48-1.509-.48-.52,0-.859.22-.859.58,0,.32.18.46.699.55l.89.17c1,.18,1.479.64,1.479,1.389,0,.919-.88,1.629-2.049,1.629-.86,0-1.619-.24-2.149-.68Z"/>
    <path class="uuid-33269586-b013-40e2-9354-51c92a2fd8ed" d="M303.137,36.236v-2.809h-1v-.899h1v-1.379l1.129-.24v1.619h1.39v.899h-1.39v2.559c0,.49.19.68.7.68.22,0,.38-.03.68-.12v.949c-.29.09-.67.14-.97.14-1.01,0-1.539-.48-1.539-1.399Z"/>
    <path class="uuid-33269586-b013-40e2-9354-51c92a2fd8ed" d="M309.526,36.236v-2.809h-.999v-.899h.999v-1.379l1.129-.24v1.619h1.39v.899h-1.39v2.559c0,.49.19.68.7.68.22,0,.38-.03.68-.12v.949c-.29.09-.67.14-.97.14-1.01,0-1.539-.48-1.539-1.399Z"/>
    <path class="uuid-33269586-b013-40e2-9354-51c92a2fd8ed" d="M312.737,35.037c0-1.479,1.079-2.589,2.519-2.589,1.43,0,2.509,1.109,2.509,2.589s-1.079,2.588-2.509,2.588c-1.439,0-2.519-1.109-2.519-2.588ZM316.655,35.037c0-.93-.59-1.629-1.399-1.629-.819,0-1.409.7-1.409,1.629,0,.939.59,1.629,1.409,1.629.81,0,1.399-.689,1.399-1.629Z"/>
    <path class="uuid-33269586-b013-40e2-9354-51c92a2fd8ed" d="M321.435,30.539h1.1l-4.008,9.085h-1.09l3.998-9.085Z"/>
    <path class="uuid-33269586-b013-40e2-9354-51c92a2fd8ed" d="M323.126,32.528h1.13v1.08c.279-.76.76-1.169,1.379-1.169.19.01.32.03.49.1v.989c-.18-.07-.41-.12-.62-.12-.55,0-.999.31-1.249.83v3.298h-1.13v-5.007Z"/>
    <path class="uuid-33269586-b013-40e2-9354-51c92a2fd8ed" d="M326.597,35.037c0-1.469,1.06-2.589,2.438-2.589,1.369,0,2.369,1.089,2.369,2.589v.27h-3.698c.11.81.72,1.399,1.499,1.399.47,0,.91-.18,1.189-.47l.739.669c-.609.51-1.219.73-1.979.73-1.439,0-2.559-1.129-2.559-2.599ZM330.335,34.607c-.12-.73-.64-1.239-1.31-1.239-.68,0-1.18.49-1.31,1.239h2.619Z"/>
    <path class="uuid-33269586-b013-40e2-9354-51c92a2fd8ed" d="M331.817,32.528h1.229l1.399,3.638,1.39-3.638h1.179l-2.059,5.007h-1.1l-2.038-5.007Z"/>
    <path class="uuid-33269586-b013-40e2-9354-51c92a2fd8ed" d="M337.687,30.819c0-.38.31-.7.7-.7.379,0,.699.32.699.7s-.32.689-.699.689c-.391,0-.7-.31-.7-.689ZM337.816,32.528h1.13v5.007h-1.13v-5.007Z"/>
    <path class="uuid-33269586-b013-40e2-9354-51c92a2fd8ed" d="M340.116,35.037c0-1.469,1.06-2.589,2.438-2.589,1.369,0,2.369,1.089,2.369,2.589v.27h-3.698c.11.81.72,1.399,1.499,1.399.47,0,.91-.18,1.189-.47l.739.669c-.609.51-1.219.73-1.979.73-1.439,0-2.559-1.129-2.559-2.599ZM343.854,34.607c-.12-.73-.64-1.239-1.31-1.239-.68,0-1.18.49-1.31,1.239h2.619Z"/>
    <path class="uuid-33269586-b013-40e2-9354-51c92a2fd8ed" d="M345.507,32.528h1.08l.879,3.528,1.04-3.528h.949l1.029,3.528.88-3.528h1.049l-1.349,5.007h-1.08l-1.02-3.528-1.009,3.528h-1.1l-1.35-5.007Z"/>
    <path class="uuid-33269586-b013-40e2-9354-51c92a2fd8ed" d="M352.887,36.956l.529-.75c.66.41,1.1.569,1.609.569.6,0,1.01-.28,1.01-.68,0-.31-.21-.47-.7-.569l-.879-.15c-.979-.18-1.449-.63-1.449-1.379,0-.939.77-1.549,1.938-1.549.7,0,1.329.2,1.969.6l-.529.75c-.51-.33-1-.48-1.51-.48-.52,0-.859.22-.859.58,0,.32.181.46.7.55l.89.17c.999.18,1.479.64,1.479,1.389,0,.919-.879,1.629-2.049,1.629-.859,0-1.619-.24-2.148-.68Z"/>
  </g>
  <rect class="uuid-f5ad69f1-3272-4c05-b55c-011ab00e941a" x="209.709" y="76.439" width="175.857" height="36.347"/>
  <g>
    <path d="M236.898,93.629c0-2.029,1.579-3.608,3.618-3.608,1.069,0,2.089.459,2.729,1.249l-.8.78c-.5-.62-1.189-.95-1.929-.95-1.359,0-2.389,1.089-2.389,2.529s1.029,2.529,2.389,2.529c.739,0,1.429-.33,1.929-.95l.8.78c-.64.79-1.659,1.249-2.729,1.249-2.039,0-3.618-1.579-3.618-3.608Z"/>
    <path d="M244.318,89.961l1.129-.2v3.178c.38-.59.929-.9,1.579-.9,1.029,0,1.749.73,1.749,1.789v3.298h-1.14v-2.979c0-.729-.43-1.199-1.099-1.199-.46,0-.83.21-1.089.61v3.568h-1.129v-7.166Z"/>
    <path d="M249.908,94.629c0-1.469,1.06-2.589,2.438-2.589,1.37,0,2.369,1.089,2.369,2.589v.27h-3.698c.11.81.72,1.399,1.499,1.399.47,0,.91-.18,1.189-.47l.74.669c-.61.51-1.219.73-1.979.73-1.439,0-2.559-1.129-2.559-2.599ZM253.646,94.199c-.12-.73-.64-1.239-1.309-1.239-.68,0-1.179.49-1.309,1.239h2.618Z"/>
    <path d="M255.658,94.629c0-1.449,1.1-2.589,2.529-2.589.779,0,1.499.31,1.999.85l-.699.729c-.35-.39-.78-.589-1.26-.589-.809,0-1.439.7-1.439,1.599,0,.909.63,1.599,1.439,1.599.48,0,.91-.2,1.26-.58l.699.719c-.5.54-1.219.85-1.999.85-1.429,0-2.529-1.129-2.529-2.588Z"/>
    <path d="M261.118,89.941l1.129-.19v4.498l2.079-2.129h1.299l-2.309,2.319,2.429,2.688h-1.439l-2.059-2.309v2.309h-1.129v-7.186Z"/>
    <path d="M270.087,94.549l-1.809-2.429h1.33l1.169,1.649,1.169-1.649h1.27l-1.829,2.458,1.909,2.549h-1.319l-1.259-1.749-1.259,1.749h-1.259l1.889-2.579Z"/>
    <path d="M273.628,93.809h3.488v.959h-3.488v-.959Z"/>
    <path d="M278.348,95.418v-3.298h1.139v2.968c0,.74.43,1.209,1.1,1.209.45,0,.83-.2,1.089-.6v-3.578h1.129v5.007h-1.129v-.81c-.38.59-.919.89-1.589.89-1.02,0-1.739-.74-1.739-1.789Z"/>
    <path d="M283.758,96.548l.53-.75c.66.41,1.099.569,1.609.569.6,0,1.009-.28,1.009-.68,0-.31-.209-.47-.699-.569l-.88-.15c-.979-.18-1.449-.63-1.449-1.379,0-.939.77-1.549,1.939-1.549.7,0,1.33.2,1.969.6l-.53.75c-.51-.33-1-.48-1.509-.48-.52,0-.859.22-.859.58,0,.32.18.46.7.55l.889.17c1,.18,1.479.64,1.479,1.389,0,.919-.88,1.629-2.049,1.629-.859,0-1.619-.24-2.148-.68Z"/>
    <path d="M288.817,94.629c0-1.469,1.06-2.589,2.438-2.589,1.37,0,2.369,1.089,2.369,2.589v.27h-3.698c.11.81.72,1.399,1.499,1.399.47,0,.91-.18,1.189-.47l.74.669c-.61.51-1.219.73-1.979.73-1.439,0-2.559-1.129-2.559-2.599ZM292.555,94.199c-.12-.73-.64-1.239-1.309-1.239-.68,0-1.179.49-1.309,1.239h2.618Z"/>
    <path d="M294.777,92.12h1.129v1.08c.28-.76.759-1.169,1.379-1.169.19.01.32.03.49.1v.989c-.18-.07-.41-.12-.62-.12-.549,0-1,.31-1.249.83v3.298h-1.129v-5.007Z"/>
    <path d="M298.417,93.809h3.488v.959h-3.488v-.959Z"/>
    <path d="M303.747,95.828v-2.809h-.999v-.899h.999v-1.379l1.129-.24v1.619h1.39v.899h-1.39v2.559c0,.49.19.68.7.68.22,0,.38-.03.68-.12v.949c-.29.09-.67.14-.97.14-1.01,0-1.539-.48-1.539-1.399Z"/>
    <path d="M307.167,99.246v-.979c.13.03.29.04.439.04.399,0,.64-.18.81-.569l.229-.56-1.889-5.057h1.249l1.279,3.708,1.39-3.708h1.239l-2.398,5.877c-.39.969-.85,1.319-1.789,1.319-.16,0-.36-.02-.56-.07Z"/>
    <path d="M312.736,92.12h1.109v.709c.36-.47.92-.75,1.56-.75,1.27,0,2.259,1.129,2.259,2.549,0,1.429-1.02,2.548-2.329,2.548-.589,0-1.109-.22-1.469-.64v2.679h-1.13v-7.096ZM316.555,94.629c0-.91-.64-1.599-1.489-1.599-.5,0-.909.2-1.199.56v2.089c.29.35.72.56,1.199.56.859,0,1.489-.689,1.489-1.609Z"/>
    <path d="M318.617,94.629c0-1.469,1.06-2.589,2.438-2.589,1.369,0,2.369,1.089,2.369,2.589v.27h-3.698c.11.81.72,1.399,1.499,1.399.47,0,.91-.18,1.189-.47l.739.669c-.609.51-1.219.73-1.979.73-1.439,0-2.559-1.129-2.559-2.599ZM322.355,94.199c-.12-.73-.64-1.239-1.31-1.239-.68,0-1.18.49-1.31,1.239h2.619Z"/>
    <path d="M326.826,89.961l1.13-.2v3.178c.38-.59.93-.9,1.579-.9,1.029,0,1.749.73,1.749,1.789v3.298h-1.14v-2.979c0-.729-.43-1.199-1.1-1.199-.459,0-.829.21-1.089.61v3.568h-1.13v-7.166Z"/>
    <path d="M332.417,94.629c0-1.469,1.06-2.589,2.438-2.589,1.369,0,2.369,1.089,2.369,2.589v.27h-3.698c.11.81.72,1.399,1.499,1.399.47,0,.91-.18,1.189-.47l.739.669c-.609.51-1.219.73-1.979.73-1.439,0-2.559-1.129-2.559-2.599ZM336.155,94.199c-.12-.73-.64-1.239-1.31-1.239-.68,0-1.18.49-1.31,1.239h2.619Z"/>
    <path d="M338.066,95.688c0-.899.74-1.469,1.919-1.469.47,0,.91.1,1.35.32v-.56c0-.66-.38-1-1.149-1-.42,0-.88.12-1.459.39l-.4-.82c.75-.34,1.409-.51,2.079-.51,1.31,0,2.049.66,2.049,1.819v3.268h-1.119v-.52c-.43.419-.909.609-1.489.609-1.05,0-1.779-.629-1.779-1.529ZM340.155,96.418c.45,0,.84-.13,1.18-.42v-.81c-.359-.17-.72-.24-1.149-.24-.649,0-1.06.27-1.06.72,0,.459.4.75,1.029.75Z"/>
    <path d="M343.597,94.629c0-1.429,1.029-2.549,2.339-2.549.569,0,1.089.23,1.459.65v-2.769l1.13-.2v7.366h-1.12v-.66c-.359.45-.919.709-1.549.709-1.27,0-2.259-1.129-2.259-2.548ZM347.395,95.678v-2.109c-.29-.34-.72-.54-1.189-.54-.859,0-1.499.68-1.499,1.599,0,.909.64,1.599,1.499,1.599.49,0,.899-.19,1.189-.55Z"/>
    <path d="M349.696,94.629c0-1.469,1.06-2.589,2.438-2.589,1.369,0,2.369,1.089,2.369,2.589v.27h-3.698c.11.81.72,1.399,1.499,1.399.47,0,.91-.18,1.189-.47l.739.669c-.609.51-1.219.73-1.979.73-1.439,0-2.559-1.129-2.559-2.599ZM353.435,94.199c-.12-.73-.64-1.239-1.31-1.239-.68,0-1.18.49-1.31,1.239h2.619Z"/>
    <path d="M355.656,92.12h1.13v1.08c.279-.76.76-1.169,1.379-1.169.19.01.32.03.49.1v.989c-.181-.07-.41-.12-.62-.12-.55,0-.999.31-1.249.83v3.298h-1.13v-5.007Z"/>
  </g>
  <g>
    <path d="M444.169,119.494h1.17l3.647,5.087-.02-5.087h1.129v6.996h-1.069l-3.748-5.227.021,5.227h-1.13v-6.996Z"/>
    <path d="M451.409,123.992c0-1.479,1.08-2.589,2.519-2.589,1.43,0,2.509,1.109,2.509,2.589s-1.079,2.588-2.509,2.588c-1.438,0-2.519-1.109-2.519-2.588ZM455.327,123.992c0-.93-.59-1.629-1.399-1.629-.819,0-1.409.7-1.409,1.629,0,.939.59,1.629,1.409,1.629.81,0,1.399-.689,1.399-1.629Z"/>
    <path d="M459.859,119.325l1.129-.2v3.178c.38-.59.93-.9,1.579-.9,1.029,0,1.749.73,1.749,1.789v3.298h-1.14v-2.979c0-.729-.43-1.199-1.099-1.199-.46,0-.83.21-1.09.61v3.568h-1.129v-7.166Z"/>
    <path d="M465.449,123.992c0-1.469,1.06-2.589,2.438-2.589,1.369,0,2.368,1.089,2.368,2.589v.27h-3.697c.109.81.72,1.399,1.499,1.399.47,0,.909-.18,1.189-.47l.739.669c-.609.51-1.219.73-1.979.73-1.439,0-2.559-1.129-2.559-2.599ZM469.187,123.562c-.119-.73-.64-1.239-1.309-1.239-.68,0-1.18.49-1.31,1.239h2.618Z"/>
    <path d="M471.1,125.051c0-.899.739-1.469,1.919-1.469.47,0,.909.1,1.349.32v-.56c0-.66-.38-1-1.149-1-.42,0-.879.12-1.459.39l-.399-.82c.749-.34,1.409-.51,2.078-.51,1.31,0,2.049.66,2.049,1.819v3.268h-1.119v-.52c-.43.419-.909.609-1.489.609-1.049,0-1.778-.629-1.778-1.529ZM473.188,125.781c.449,0,.839-.13,1.179-.42v-.81c-.359-.17-.72-.24-1.149-.24-.649,0-1.06.27-1.06.72,0,.459.4.75,1.03.75Z"/>
    <path d="M476.629,123.992c0-1.429,1.029-2.549,2.339-2.549.569,0,1.09.23,1.459.65v-2.769l1.13-.2v7.366h-1.119v-.66c-.36.45-.92.709-1.55.709-1.27,0-2.259-1.129-2.259-2.548ZM480.427,125.041v-2.109c-.289-.34-.72-.54-1.189-.54-.859,0-1.499.68-1.499,1.599,0,.909.64,1.599,1.499,1.599.49,0,.9-.19,1.189-.55Z"/>
    <path d="M482.729,123.992c0-1.469,1.06-2.589,2.438-2.589,1.37,0,2.369,1.089,2.369,2.589v.27h-3.698c.11.81.72,1.399,1.499,1.399.47,0,.91-.18,1.189-.47l.74.669c-.61.51-1.22.73-1.979.73-1.438,0-2.559-1.129-2.559-2.599ZM486.467,123.562c-.12-.73-.64-1.239-1.31-1.239-.68,0-1.179.49-1.309,1.239h2.618Z"/>
    <path d="M488.688,121.483h1.13v1.08c.279-.76.759-1.169,1.379-1.169.189.01.319.03.489.1v.989c-.18-.07-.409-.12-.619-.12-.55,0-1,.31-1.249.83v3.298h-1.13v-5.007Z"/>
  </g>
  <g>
    <path d="M105.185,123.912l-1.809-2.429h1.33l1.169,1.649,1.17-1.649h1.269l-1.828,2.458,1.908,2.549h-1.319l-1.259-1.749-1.26,1.749h-1.259l1.889-2.579Z"/>
    <path d="M108.726,123.172h3.488v.959h-3.488v-.959Z"/>
    <path d="M113.446,124.782v-3.298h1.14v2.968c0,.74.43,1.209,1.1,1.209.45,0,.829-.2,1.09-.6v-3.578h1.129v5.007h-1.129v-.81c-.38.59-.92.89-1.59.89-1.02,0-1.739-.74-1.739-1.789Z"/>
    <path d="M118.856,125.911l.529-.75c.66.41,1.1.569,1.609.569.6,0,1.01-.28,1.01-.68,0-.31-.21-.47-.7-.569l-.879-.15c-.979-.18-1.449-.63-1.449-1.379,0-.939.77-1.549,1.938-1.549.7,0,1.329.2,1.969.6l-.529.75c-.51-.33-1-.48-1.509-.48-.521,0-.86.22-.86.58,0,.32.181.46.7.55l.89.17c.999.18,1.479.64,1.479,1.389,0,.919-.879,1.629-2.049,1.629-.859,0-1.619-.24-2.148-.68Z"/>
    <path d="M123.916,123.992c0-1.469,1.06-2.589,2.438-2.589,1.369,0,2.369,1.089,2.369,2.589v.27h-3.698c.11.81.72,1.399,1.499,1.399.47,0,.91-.18,1.189-.47l.739.669c-.609.51-1.219.73-1.979.73-1.439,0-2.559-1.129-2.559-2.599ZM127.654,123.562c-.12-.73-.64-1.239-1.31-1.239-.68,0-1.18.49-1.31,1.239h2.619Z"/>
    <path d="M129.875,121.483h1.13v1.08c.279-.76.76-1.169,1.379-1.169.19.01.32.03.49.1v.989c-.18-.07-.41-.12-.62-.12-.55,0-.999.31-1.249.83v3.298h-1.13v-5.007Z"/>
    <path d="M133.515,123.172h3.488v.959h-3.488v-.959Z"/>
    <path d="M138.845,125.191v-2.809h-1v-.899h1v-1.379l1.129-.24v1.619h1.39v.899h-1.39v2.559c0,.49.19.68.7.68.22,0,.38-.03.68-.12v.949c-.29.09-.67.14-.97.14-1.01,0-1.539-.48-1.539-1.399Z"/>
    <path d="M142.265,128.609v-.979c.13.03.29.04.439.04.399,0,.64-.18.81-.569l.229-.56-1.889-5.057h1.249l1.279,3.708,1.39-3.708h1.239l-2.398,5.877c-.39.969-.85,1.319-1.789,1.319-.16,0-.36-.02-.56-.07Z"/>
    <path d="M147.834,121.483h1.109v.709c.36-.47.92-.75,1.56-.75,1.27,0,2.259,1.129,2.259,2.549,0,1.429-1.02,2.548-2.329,2.548-.589,0-1.109-.22-1.469-.64v2.679h-1.13v-7.096ZM151.653,123.992c0-.91-.64-1.599-1.489-1.599-.5,0-.909.2-1.199.56v2.089c.29.35.72.56,1.199.56.859,0,1.489-.689,1.489-1.609Z"/>
    <path d="M153.715,123.992c0-1.469,1.06-2.589,2.438-2.589,1.369,0,2.369,1.089,2.369,2.589v.27h-3.698c.11.81.72,1.399,1.499,1.399.47,0,.91-.18,1.189-.47l.739.669c-.609.51-1.219.73-1.979.73-1.439,0-2.559-1.129-2.559-2.599ZM157.454,123.562c-.12-.73-.64-1.239-1.31-1.239-.68,0-1.18.49-1.31,1.239h2.619Z"/>
    <path d="M159.525,122.113c0-.4.31-.73.699-.73s.7.33.7.73-.311.719-.7.719-.699-.32-.699-.719ZM159.525,125.861c0-.399.31-.729.699-.729s.7.33.7.729-.311.72-.7.72-.699-.32-.699-.72Z"/>
    <path d="M164.285,119.774c0-.38.31-.7.7-.7.379,0,.699.32.699.7s-.32.689-.699.689c-.391,0-.7-.31-.7-.689ZM164.415,121.483h1.13v5.007h-1.13v-5.007Z"/>
    <path d="M166.945,121.483h1.13v.82c.38-.59.93-.9,1.579-.9,1.029,0,1.749.73,1.749,1.789v3.298h-1.14v-2.979c0-.729-.43-1.199-1.1-1.199-.459,0-.829.21-1.089.61v3.568h-1.13v-5.007Z"/>
    <path d="M173.235,125.191v-2.809h-.999v-.899h.999v-1.379l1.129-.24v1.619h1.39v.899h-1.39v2.559c0,.49.19.68.7.68.22,0,.38-.03.68-.12v.949c-.29.09-.67.14-.97.14-1.01,0-1.539-.48-1.539-1.399Z"/>
    <path d="M176.445,123.992c0-1.469,1.06-2.589,2.438-2.589,1.369,0,2.369,1.089,2.369,2.589v.27h-3.698c.11.81.72,1.399,1.499,1.399.47,0,.91-.18,1.189-.47l.739.669c-.609.51-1.219.73-1.979.73-1.439,0-2.559-1.129-2.559-2.599ZM180.183,123.562c-.12-.73-.64-1.239-1.31-1.239-.68,0-1.18.49-1.31,1.239h2.619Z"/>
    <path d="M182.404,121.483h1.13v1.08c.279-.76.76-1.169,1.379-1.169.19.01.32.03.49.1v.989c-.181-.07-.41-.12-.62-.12-.55,0-.999.31-1.249.83v3.298h-1.13v-5.007Z"/>
    <path d="M186.334,121.483h1.13v.82c.38-.59.93-.9,1.579-.9,1.029,0,1.749.73,1.749,1.789v3.298h-1.14v-2.979c0-.729-.43-1.199-1.1-1.199-.459,0-.829.21-1.089.61v3.568h-1.13v-5.007Z"/>
    <path d="M191.894,125.051c0-.899.74-1.469,1.919-1.469.47,0,.91.1,1.35.32v-.56c0-.66-.38-1-1.149-1-.42,0-.88.12-1.459.39l-.4-.82c.75-.34,1.409-.51,2.079-.51,1.31,0,2.049.66,2.049,1.819v3.268h-1.119v-.52c-.43.419-.909.609-1.489.609-1.05,0-1.779-.629-1.779-1.529ZM193.983,125.781c.45,0,.84-.13,1.18-.42v-.81c-.359-.17-.72-.24-1.149-.24-.649,0-1.06.27-1.06.72,0,.459.4.75,1.029.75Z"/>
    <path d="M197.654,119.325l1.13-.2v7.366h-1.13v-7.166Z"/>
  </g>
  <rect class="uuid-7b30dc71-389e-458c-948a-f0b0aa1c4b51" x="209.709" y="156.031" width="175.857" height="36.347"/>
  <g>
    <path d="M268.408,169.723h1.559l2.049,4.248,2.039-4.248h1.559v6.996h-1.129v-5.477l-2.479,4.978-2.489-5.007v5.507h-1.109v-6.996Z"/>
    <path d="M276.798,175.28c0-.899.739-1.469,1.919-1.469.47,0,.909.1,1.349.32v-.56c0-.66-.38-1-1.149-1-.42,0-.879.12-1.459.39l-.4-.82c.75-.34,1.409-.51,2.079-.51,1.31,0,2.049.66,2.049,1.819v3.268h-1.119v-.52c-.43.419-.91.609-1.489.609-1.049,0-1.779-.629-1.779-1.529ZM278.887,176.01c.45,0,.839-.13,1.179-.42v-.81c-.36-.17-.72-.24-1.149-.24-.649,0-1.06.27-1.06.72,0,.459.4.75,1.03.75Z"/>
    <path d="M283.027,175.42v-2.809h-1v-.899h1v-1.379l1.129-.24v1.619h1.389v.899h-1.389v2.559c0,.49.19.68.7.68.22,0,.379-.03.68-.12v.949c-.29.09-.67.14-.97.14-1.009,0-1.539-.48-1.539-1.399Z"/>
    <path d="M286.238,174.221c0-1.449,1.1-2.589,2.529-2.589.779,0,1.499.31,1.999.85l-.699.729c-.35-.39-.78-.589-1.259-.589-.81,0-1.439.7-1.439,1.599,0,.909.63,1.599,1.439,1.599.479,0,.909-.2,1.259-.58l.699.719c-.5.54-1.219.85-1.999.85-1.429,0-2.529-1.129-2.529-2.588Z"/>
    <path d="M291.698,169.553l1.129-.2v3.178c.38-.59.929-.9,1.579-.9,1.029,0,1.749.73,1.749,1.789v3.298h-1.14v-2.979c0-.729-.43-1.199-1.099-1.199-.46,0-.83.21-1.089.61v3.568h-1.129v-7.166Z"/>
    <path d="M299.907,169.723h3.108c1.389,0,2.338.859,2.338,2.119,0,.91-.539,1.619-1.389,1.919l1.479,2.958h-1.33l-1.349-2.798h-1.659v2.798h-1.199v-6.996ZM302.905,172.961c.75,0,1.239-.44,1.239-1.109,0-.68-.489-1.12-1.239-1.12h-1.799v2.229h1.799Z"/>
    <path d="M306.347,175.01v-3.298h1.14v2.968c0,.74.43,1.209,1.1,1.209.45,0,.829-.2,1.09-.6v-3.578h1.129v5.007h-1.129v-.81c-.38.59-.92.89-1.59.89-1.02,0-1.739-.74-1.739-1.789Z"/>
    <path d="M312.207,169.553l1.13-.2v7.366h-1.13v-7.166Z"/>
    <path d="M314.497,174.221c0-1.469,1.06-2.589,2.438-2.589,1.369,0,2.369,1.089,2.369,2.589v.27h-3.698c.11.81.72,1.399,1.499,1.399.47,0,.91-.18,1.189-.47l.739.669c-.609.51-1.219.73-1.979.73-1.439,0-2.559-1.129-2.559-2.599ZM318.235,173.791c-.12-.73-.64-1.239-1.31-1.239-.68,0-1.18.49-1.31,1.239h2.619Z"/>
    <path d="M322.518,175.93l2.868-2.999c.51-.54.68-.889.68-1.339,0-.58-.54-1.02-1.27-1.02-.649,0-1.149.229-1.818.85l-.62-.75c.77-.709,1.579-1.059,2.459-1.059,1.369,0,2.309.779,2.309,1.919,0,.68-.24,1.169-.989,1.959l-2.229,2.298,3.348-.01v.939h-4.737v-.79Z"/>
  </g>
  <rect class="uuid-7b30dc71-389e-458c-948a-f0b0aa1c4b51" x="15.428" y="156.031" width="175.857" height="36.347"/>
  <g>
    <path d="M75.266,169.723h1.559l2.049,4.248,2.039-4.248h1.559v6.996h-1.129v-5.477l-2.479,4.978-2.489-5.007v5.507h-1.109v-6.996Z"/>
    <path d="M83.657,175.28c0-.899.739-1.469,1.919-1.469.47,0,.909.1,1.349.32v-.56c0-.66-.38-1-1.149-1-.42,0-.879.12-1.459.39l-.4-.82c.75-.34,1.409-.51,2.079-.51,1.31,0,2.049.66,2.049,1.819v3.268h-1.119v-.52c-.43.419-.91.609-1.489.609-1.049,0-1.779-.629-1.779-1.529ZM85.746,176.01c.45,0,.839-.13,1.179-.42v-.81c-.36-.17-.72-.24-1.149-.24-.649,0-1.06.27-1.06.72,0,.459.4.75,1.03.75Z"/>
    <path d="M89.886,175.42v-2.809h-1v-.899h1v-1.379l1.129-.24v1.619h1.389v.899h-1.389v2.559c0,.49.19.68.7.68.22,0,.379-.03.68-.12v.949c-.29.09-.67.14-.97.14-1.009,0-1.539-.48-1.539-1.399Z"/>
    <path d="M93.096,174.221c0-1.449,1.1-2.589,2.529-2.589.779,0,1.499.31,1.999.85l-.699.729c-.35-.39-.78-.589-1.259-.589-.81,0-1.439.7-1.439,1.599,0,.909.63,1.599,1.439,1.599.479,0,.909-.2,1.259-.58l.699.719c-.5.54-1.219.85-1.999.85-1.429,0-2.529-1.129-2.529-2.588Z"/>
    <path d="M98.556,169.553l1.129-.2v3.178c.38-.59.929-.9,1.579-.9,1.029,0,1.749.73,1.749,1.789v3.298h-1.14v-2.979c0-.729-.43-1.199-1.099-1.199-.46,0-.83.21-1.089.61v3.568h-1.129v-7.166Z"/>
    <path d="M106.766,169.723h3.108c1.389,0,2.339.859,2.339,2.119,0,.91-.54,1.619-1.389,1.919l1.479,2.958h-1.329l-1.35-2.798h-1.659v2.798h-1.2v-6.996ZM109.764,172.961c.75,0,1.239-.44,1.239-1.109,0-.68-.49-1.12-1.239-1.12h-1.799v2.229h1.799Z"/>
    <path d="M113.206,175.01v-3.298h1.139v2.968c0,.74.43,1.209,1.1,1.209.45,0,.83-.2,1.089-.6v-3.578h1.129v5.007h-1.129v-.81c-.38.59-.919.89-1.589.89-1.02,0-1.739-.74-1.739-1.789Z"/>
    <path d="M119.066,169.553l1.129-.2v7.366h-1.129v-7.166Z"/>
    <path d="M121.356,174.221c0-1.469,1.06-2.589,2.438-2.589,1.37,0,2.369,1.089,2.369,2.589v.27h-3.698c.11.81.72,1.399,1.499,1.399.47,0,.91-.18,1.189-.47l.74.669c-.61.51-1.219.73-1.979.73-1.439,0-2.559-1.129-2.559-2.599ZM125.094,173.791c-.12-.73-.64-1.239-1.309-1.239-.68,0-1.179.49-1.309,1.239h2.618Z"/>
    <path d="M130.475,170.872l-1.239.53v-.97l1.639-.709h.69v6.996h-1.09v-5.847Z"/>
  </g>
  <rect class="uuid-7b30dc71-389e-458c-948a-f0b0aa1c4b51" x="403.991" y="156.031" width="175.857" height="36.347"/>
  <g>
    <path d="M439.805,169.723h1.559l2.049,4.248,2.039-4.248h1.56v6.996h-1.13v-5.477l-2.479,4.978-2.488-5.007v5.507h-1.109v-6.996Z"/>
    <path d="M448.194,175.28c0-.899.74-1.469,1.919-1.469.47,0,.91.1,1.35.32v-.56c0-.66-.38-1-1.149-1-.42,0-.88.12-1.459.39l-.4-.82c.75-.34,1.409-.51,2.079-.51,1.31,0,2.049.66,2.049,1.819v3.268h-1.119v-.52c-.43.419-.909.609-1.489.609-1.05,0-1.779-.629-1.779-1.529ZM450.283,176.01c.45,0,.84-.13,1.18-.42v-.81c-.359-.17-.72-.24-1.149-.24-.649,0-1.06.27-1.06.72,0,.459.4.75,1.029.75Z"/>
    <path d="M454.424,175.42v-2.809h-1v-.899h1v-1.379l1.129-.24v1.619h1.39v.899h-1.39v2.559c0,.49.19.68.7.68.22,0,.38-.03.68-.12v.949c-.29.09-.67.14-.97.14-1.01,0-1.539-.48-1.539-1.399Z"/>
    <path d="M457.635,174.221c0-1.449,1.1-2.589,2.528-2.589.78,0,1.499.31,1.999.85l-.699.729c-.35-.39-.779-.589-1.26-.589-.81,0-1.439.7-1.439,1.599,0,.909.63,1.599,1.439,1.599.48,0,.91-.2,1.26-.58l.699.719c-.5.54-1.219.85-1.999.85-1.429,0-2.528-1.129-2.528-2.588Z"/>
    <path d="M463.094,169.553l1.13-.2v3.178c.38-.59.93-.9,1.579-.9,1.029,0,1.749.73,1.749,1.789v3.298h-1.14v-2.979c0-.729-.43-1.199-1.1-1.199-.459,0-.829.21-1.089.61v3.568h-1.13v-7.166Z"/>
    <path d="M471.304,169.723h3.108c1.389,0,2.338.859,2.338,2.119,0,.91-.539,1.619-1.389,1.919l1.479,2.958h-1.33l-1.349-2.798h-1.659v2.798h-1.199v-6.996ZM474.302,172.961c.75,0,1.239-.44,1.239-1.109,0-.68-.489-1.12-1.239-1.12h-1.799v2.229h1.799Z"/>
    <path d="M477.743,175.01v-3.298h1.14v2.968c0,.74.43,1.209,1.1,1.209.45,0,.829-.2,1.09-.6v-3.578h1.129v5.007h-1.129v-.81c-.38.59-.92.89-1.59.89-1.02,0-1.739-.74-1.739-1.789Z"/>
    <path d="M483.604,169.553l1.13-.2v7.366h-1.13v-7.166Z"/>
    <path d="M485.894,174.221c0-1.469,1.06-2.589,2.438-2.589,1.369,0,2.369,1.089,2.369,2.589v.27h-3.698c.11.81.72,1.399,1.499,1.399.47,0,.91-.18,1.189-.47l.739.669c-.609.51-1.219.73-1.979.73-1.439,0-2.559-1.129-2.559-2.599ZM489.632,173.791c-.12-.73-.64-1.239-1.31-1.239-.68,0-1.18.49-1.31,1.239h2.619Z"/>
    <path d="M493.754,175.78l.729-.7c.56.58,1.06.79,1.839.79.91,0,1.529-.47,1.529-1.159,0-.63-.51-1.06-1.249-1.06h-.859v-.919h.77c.68,0,1.119-.41,1.119-1.04s-.579-1.109-1.329-1.109c-.699,0-1.169.22-1.739.83l-.739-.689c.64-.71,1.549-1.109,2.509-1.109,1.389,0,2.389.819,2.389,1.969,0,.74-.53,1.359-1.319,1.589.93.2,1.549.819,1.549,1.609,0,1.189-1.1,2.049-2.608,2.049-1.029,0-1.959-.38-2.589-1.049Z"/>
    <path d="M502.413,174.27c0-2.049.85-3.698,2.429-4.667l.59.729c-1.289.83-1.999,2.219-1.999,3.938,0,1.729.71,3.118,1.999,3.948l-.59.72c-1.579-.969-2.429-2.619-2.429-4.667Z"/>
    <path d="M506.704,169.723h2.559c2.009,0,3.508,1.529,3.508,3.498s-1.499,3.498-3.508,3.498h-2.559v-6.996ZM509.292,175.68c1.26,0,2.249-1.069,2.249-2.458s-.989-2.458-2.249-2.458h-1.389v4.917h1.389Z"/>
    <path d="M513.753,174.221c0-1.469,1.06-2.589,2.438-2.589,1.369,0,2.369,1.089,2.369,2.589v.27h-3.698c.11.81.72,1.399,1.499,1.399.47,0,.91-.18,1.189-.47l.739.669c-.609.51-1.219.73-1.979.73-1.439,0-2.559-1.129-2.559-2.599ZM517.491,173.791c-.12-.73-.64-1.239-1.31-1.239-.68,0-1.18.49-1.31,1.239h2.619Z"/>
    <path d="M520.242,172.611h-1.079v-.899h1.079v-.859c0-1.089.61-1.679,1.729-1.679.279,0,.56.03.749.09v.959c-.249-.05-.399-.07-.6-.07-.52,0-.749.23-.749.72v.839h1.349v.899h-1.349v4.108h-1.13v-4.108Z"/>
    <path d="M523.243,175.28c0-.899.74-1.469,1.919-1.469.47,0,.91.1,1.35.32v-.56c0-.66-.38-1-1.149-1-.42,0-.88.12-1.459.39l-.4-.82c.75-.34,1.409-.51,2.079-.51,1.31,0,2.049.66,2.049,1.819v3.268h-1.119v-.52c-.43.419-.909.609-1.489.609-1.05,0-1.779-.629-1.779-1.529ZM525.332,176.01c.45,0,.84-.13,1.18-.42v-.81c-.359-.17-.72-.24-1.149-.24-.649,0-1.06.27-1.06.72,0,.459.4.75,1.029.75Z"/>
    <path d="M528.913,175.01v-3.298h1.14v2.968c0,.74.43,1.209,1.1,1.209.45,0,.829-.2,1.09-.6v-3.578h1.129v5.007h-1.129v-.81c-.38.59-.92.89-1.59.89-1.02,0-1.739-.74-1.739-1.789Z"/>
    <path d="M534.772,169.553l1.13-.2v7.366h-1.13v-7.166Z"/>
    <path d="M537.913,175.42v-2.809h-.999v-.899h.999v-1.379l1.129-.24v1.619h1.39v.899h-1.39v2.559c0,.49.19.68.7.68.22,0,.38-.03.68-.12v.949c-.29.09-.67.14-.97.14-1.01,0-1.539-.48-1.539-1.399Z"/>
    <path d="M544.182,174.281c0,2.049-.85,3.698-2.429,4.667l-.59-.73c1.289-.83,1.999-2.219,1.999-3.938,0-1.729-.71-3.119-1.999-3.948l.59-.719c1.579.969,2.429,2.619,2.429,4.667Z"/>
  </g>
  <rect class="uuid-a59825de-03a5-4168-9e40-407342978105" x="209.709" y="218.919" width="175.857" height="36.347"/>
  <g>
    <path d="M272.968,228.855h1.129v1.08c.28-.76.759-1.169,1.379-1.169.19.01.32.03.49.1v.989c-.18-.07-.41-.12-.62-.12-.549,0-1,.31-1.249.83v3.298h-1.129v-5.007Z"/>
    <path d="M276.438,231.364c0-1.469,1.06-2.589,2.438-2.589,1.37,0,2.369,1.089,2.369,2.589v.27h-3.698c.11.81.72,1.399,1.499,1.399.47,0,.91-.18,1.189-.47l.74.669c-.61.51-1.219.73-1.979.73-1.439,0-2.559-1.129-2.559-2.599ZM280.175,230.934c-.12-.73-.64-1.239-1.309-1.239-.68,0-1.179.49-1.309,1.239h2.618Z"/>
    <path d="M281.658,228.855h1.229l1.399,3.638,1.39-3.638h1.179l-2.059,5.007h-1.099l-2.039-5.007Z"/>
    <path d="M287.527,227.146c0-.38.31-.7.7-.7.38,0,.7.32.7.7s-.32.689-.7.689c-.39,0-.7-.31-.7-.689ZM287.657,228.855h1.129v5.007h-1.129v-5.007Z"/>
    <path d="M289.958,231.364c0-1.469,1.06-2.589,2.438-2.589,1.37,0,2.369,1.089,2.369,2.589v.27h-3.698c.11.81.72,1.399,1.499,1.399.47,0,.91-.18,1.189-.47l.74.669c-.61.51-1.219.73-1.979.73-1.439,0-2.559-1.129-2.559-2.599ZM293.695,230.934c-.12-.73-.64-1.239-1.309-1.239-.68,0-1.179.49-1.309,1.239h2.618Z"/>
    <path d="M295.348,228.855h1.079l.88,3.528,1.039-3.528h.95l1.029,3.528.88-3.528h1.049l-1.349,5.007h-1.08l-1.019-3.528-1.009,3.528h-1.1l-1.349-5.007Z"/>
    <path d="M302.728,233.283l.529-.75c.66.41,1.1.569,1.609.569.6,0,1.01-.28,1.01-.68,0-.31-.21-.47-.7-.569l-.879-.15c-.979-.18-1.449-.63-1.449-1.379,0-.939.77-1.549,1.938-1.549.7,0,1.329.2,1.969.6l-.529.75c-.51-.33-1-.48-1.509-.48-.521,0-.86.22-.86.58,0,.32.181.46.7.55l.89.17c.999.18,1.479.64,1.479,1.389,0,.919-.879,1.629-2.049,1.629-.859,0-1.619-.24-2.148-.68Z"/>
    <path d="M307.827,230.544h3.488v.959h-3.488v-.959Z"/>
    <path d="M311.998,228.855h1.229l1.399,3.638,1.39-3.638h1.179l-2.059,5.007h-1.1l-2.038-5.007Z"/>
    <path d="M317.817,233.073l2.868-2.999c.51-.54.68-.889.68-1.339,0-.58-.539-1.02-1.27-1.02-.649,0-1.149.229-1.818.85l-.62-.75c.77-.709,1.579-1.059,2.459-1.059,1.369,0,2.309.779,2.309,1.919,0,.68-.24,1.169-.989,1.959l-2.229,2.298,3.348-.01v.939h-4.737v-.79Z"/>
    <path d="M269.978,238.866h5.007v1.02h-3.808v1.949h2.658v1h-2.658v2.009h3.848v1.02h-5.047v-6.996Z"/>
    <path d="M275.988,244.423c0-.899.739-1.469,1.919-1.469.47,0,.909.1,1.349.32v-.56c0-.66-.38-1-1.149-1-.42,0-.879.12-1.459.39l-.4-.82c.75-.34,1.409-.51,2.079-.51,1.31,0,2.049.66,2.049,1.819v3.268h-1.119v-.52c-.43.419-.91.609-1.489.609-1.049,0-1.779-.629-1.779-1.529ZM278.077,245.153c.45,0,.839-.13,1.179-.42v-.81c-.36-.17-.72-.24-1.149-.24-.649,0-1.06.27-1.06.72,0,.459.4.75,1.03.75Z"/>
    <path d="M281.748,240.855h1.129v1.08c.28-.76.759-1.169,1.379-1.169.19.01.32.03.49.1v.989c-.18-.07-.41-.12-.62-.12-.549,0-.999.31-1.249.83v3.298h-1.129v-5.007Z"/>
    <path d="M285.678,238.696l1.129-.2v7.366h-1.129v-7.166Z"/>
    <path d="M287.998,247.981v-.979c.13.03.29.04.44.04.4,0,.64-.18.81-.569l.23-.56-1.889-5.057h1.25l1.279,3.708,1.389-3.708h1.239l-2.398,5.877c-.39.969-.85,1.319-1.789,1.319-.16,0-.36-.02-.56-.07Z"/>
    <path d="M295.558,244.423c0-.899.739-1.469,1.919-1.469.47,0,.909.1,1.349.32v-.56c0-.66-.38-1-1.149-1-.42,0-.879.12-1.459.39l-.4-.82c.75-.34,1.409-.51,2.079-.51,1.309,0,2.049.66,2.049,1.819v3.268h-1.12v-.52c-.43.419-.91.609-1.489.609-1.049,0-1.779-.629-1.779-1.529ZM297.646,245.153c.45,0,.839-.13,1.179-.42v-.81c-.36-.17-.72-.24-1.149-.24-.649,0-1.06.27-1.06.72,0,.459.4.75,1.03.75Z"/>
    <path d="M301.087,243.364c0-1.449,1.1-2.589,2.528-2.589.78,0,1.499.31,1.999.85l-.699.729c-.35-.39-.78-.589-1.26-.589-.81,0-1.438.7-1.438,1.599,0,.909.629,1.599,1.438,1.599.479,0,.91-.2,1.26-.58l.699.719c-.5.54-1.219.85-1.999.85-1.429,0-2.528-1.129-2.528-2.588Z"/>
    <path d="M306.167,243.364c0-1.449,1.1-2.589,2.528-2.589.78,0,1.499.31,1.999.85l-.699.729c-.35-.39-.78-.589-1.26-.589-.81,0-1.438.7-1.438,1.599,0,.909.629,1.599,1.438,1.599.479,0,.91-.2,1.26-.58l.699.719c-.5.54-1.219.85-1.999.85-1.429,0-2.528-1.129-2.528-2.588Z"/>
    <path d="M311.247,243.364c0-1.469,1.06-2.589,2.438-2.589,1.369,0,2.369,1.089,2.369,2.589v.27h-3.698c.11.81.72,1.399,1.499,1.399.47,0,.91-.18,1.189-.47l.739.669c-.609.51-1.219.73-1.979.73-1.439,0-2.559-1.129-2.559-2.599ZM314.985,242.934c-.12-.73-.64-1.239-1.31-1.239-.68,0-1.18.49-1.31,1.239h2.619Z"/>
    <path d="M316.808,245.283l.529-.75c.66.41,1.1.569,1.609.569.6,0,1.01-.28,1.01-.68,0-.31-.21-.47-.7-.569l-.879-.15c-.979-.18-1.449-.63-1.449-1.379,0-.939.77-1.549,1.938-1.549.7,0,1.329.2,1.969.6l-.529.75c-.51-.33-1-.48-1.509-.48-.521,0-.86.22-.86.58,0,.32.181.46.7.55l.89.17c.999.18,1.479.64,1.479,1.389,0,.919-.879,1.629-2.049,1.629-.859,0-1.619-.24-2.148-.68Z"/>
    <path d="M321.598,245.283l.529-.75c.66.41,1.1.569,1.609.569.6,0,1.01-.28,1.01-.68,0-.31-.21-.47-.7-.569l-.879-.15c-.979-.18-1.449-.63-1.449-1.379,0-.939.77-1.549,1.938-1.549.7,0,1.329.2,1.969.6l-.529.75c-.51-.33-1-.48-1.51-.48-.52,0-.859.22-.859.58,0,.32.181.46.7.55l.89.17c.999.18,1.479.64,1.479,1.389,0,.919-.879,1.629-2.049,1.629-.859,0-1.619-.24-2.148-.68Z"/>
  </g>
  <rect class="uuid-71dbf75d-c00a-4072-8d7d-20c1fb5a40ed" x="15.428" y="218.919" width="175.857" height="36.347"/>
  <g>
    <path d="M78.501,228.855h1.129v1.08c.28-.76.759-1.169,1.379-1.169.19.01.32.03.49.1v.989c-.18-.07-.41-.12-.62-.12-.549,0-.999.31-1.249.83v3.298h-1.129v-5.007Z"/>
    <path d="M81.972,231.364c0-1.469,1.06-2.589,2.438-2.589,1.37,0,2.369,1.089,2.369,2.589v.27h-3.698c.11.81.72,1.399,1.499,1.399.47,0,.91-.18,1.189-.47l.74.669c-.61.51-1.219.73-1.979.73-1.439,0-2.559-1.129-2.559-2.599ZM85.709,230.934c-.12-.73-.64-1.239-1.309-1.239-.68,0-1.179.49-1.309,1.239h2.618Z"/>
    <path d="M87.191,228.855h1.229l1.399,3.638,1.39-3.638h1.179l-2.059,5.007h-1.099l-2.039-5.007Z"/>
    <path d="M93.061,227.146c0-.38.31-.7.7-.7.38,0,.7.32.7.7s-.32.689-.7.689c-.39,0-.7-.31-.7-.689ZM93.191,228.855h1.129v5.007h-1.129v-5.007Z"/>
    <path d="M95.491,231.364c0-1.469,1.06-2.589,2.438-2.589,1.37,0,2.369,1.089,2.369,2.589v.27h-3.698c.11.81.72,1.399,1.499,1.399.47,0,.91-.18,1.189-.47l.74.669c-.61.51-1.219.73-1.979.73-1.439,0-2.559-1.129-2.559-2.599ZM99.229,230.934c-.12-.73-.64-1.239-1.309-1.239-.68,0-1.179.49-1.309,1.239h2.618Z"/>
    <path d="M100.882,228.855h1.079l.88,3.528,1.039-3.528h.95l1.029,3.528.879-3.528h1.05l-1.35,5.007h-1.079l-1.02-3.528-1.009,3.528h-1.1l-1.349-5.007Z"/>
    <path d="M108.262,233.283l.53-.75c.66.41,1.099.569,1.609.569.6,0,1.009-.28,1.009-.68,0-.31-.209-.47-.699-.569l-.88-.15c-.979-.18-1.449-.63-1.449-1.379,0-.939.77-1.549,1.939-1.549.7,0,1.33.2,1.969.6l-.53.75c-.51-.33-1-.48-1.509-.48-.52,0-.859.22-.859.58,0,.32.18.46.7.55l.889.17c1,.18,1.479.64,1.479,1.389,0,.919-.88,1.629-2.049,1.629-.859,0-1.619-.24-2.148-.68Z"/>
    <path d="M113.361,230.544h3.488v.959h-3.488v-.959Z"/>
    <path d="M117.531,228.855h1.229l1.399,3.638,1.39-3.638h1.179l-2.059,5.007h-1.099l-2.039-5.007Z"/>
    <path d="M123.191,232.923l.73-.7c.56.58,1.059.79,1.839.79.91,0,1.529-.47,1.529-1.159,0-.63-.51-1.06-1.25-1.06h-.859v-.919h.77c.68,0,1.119-.41,1.119-1.04s-.58-1.109-1.329-1.109c-.7,0-1.169.22-1.739.83l-.739-.689c.64-.71,1.549-1.109,2.508-1.109,1.39,0,2.389.819,2.389,1.969,0,.74-.529,1.359-1.319,1.589.93.2,1.549.819,1.549,1.609,0,1.189-1.099,2.049-2.608,2.049-1.029,0-1.959-.38-2.589-1.049Z"/>
    <path d="M68.346,238.866h1.2v5.957h3.728v1.04h-4.927v-6.996Z"/>
    <path d="M74.207,244.423c0-.899.739-1.469,1.919-1.469.47,0,.909.1,1.349.32v-.56c0-.66-.38-1-1.149-1-.42,0-.879.12-1.459.39l-.4-.82c.75-.34,1.409-.51,2.079-.51,1.31,0,2.049.66,2.049,1.819v3.268h-1.119v-.52c-.43.419-.91.609-1.489.609-1.049,0-1.779-.629-1.779-1.529ZM76.295,245.153c.45,0,.839-.13,1.179-.42v-.81c-.36-.17-.72-.24-1.149-.24-.649,0-1.06.27-1.06.72,0,.459.4.75,1.03.75Z"/>
    <path d="M80.436,244.563v-2.809h-1v-.899h1v-1.379l1.129-.24v1.619h1.389v.899h-1.389v2.559c0,.49.19.68.7.68.22,0,.379-.03.68-.12v.949c-.29.09-.67.14-.97.14-1.009,0-1.539-.48-1.539-1.399Z"/>
    <path d="M83.646,243.364c0-1.469,1.06-2.589,2.438-2.589,1.37,0,2.369,1.089,2.369,2.589v.27h-3.698c.11.81.72,1.399,1.499,1.399.47,0,.91-.18,1.189-.47l.74.669c-.61.51-1.219.73-1.979.73-1.439,0-2.559-1.129-2.559-2.599ZM87.384,242.934c-.12-.73-.64-1.239-1.309-1.239-.68,0-1.179.49-1.309,1.239h2.618Z"/>
    <path d="M89.207,245.283l.53-.75c.659.41,1.099.569,1.609.569.6,0,1.009-.28,1.009-.68,0-.31-.209-.47-.699-.569l-.88-.15c-.979-.18-1.449-.63-1.449-1.379,0-.939.77-1.549,1.939-1.549.7,0,1.33.2,1.969.6l-.53.75c-.51-.33-1-.48-1.509-.48-.52,0-.859.22-.859.58,0,.32.18.46.699.55l.89.17c1,.18,1.479.64,1.479,1.389,0,.919-.88,1.629-2.049,1.629-.86,0-1.619-.24-2.149-.68Z"/>
    <path d="M94.966,244.563v-2.809h-1v-.899h1v-1.379l1.129-.24v1.619h1.389v.899h-1.389v2.559c0,.49.19.68.7.68.22,0,.379-.03.68-.12v.949c-.29.09-.67.14-.97.14-1.009,0-1.539-.48-1.539-1.399Z"/>
    <path d="M101.416,241.754h-1.08v-.899h1.08v-.859c0-1.089.609-1.679,1.729-1.679.28,0,.56.03.75.09v.959c-.25-.05-.4-.07-.6-.07-.52,0-.75.23-.75.72v.839h1.349v.899h-1.349v4.108h-1.129v-4.108Z"/>
    <path d="M104.416,243.364c0-1.469,1.06-2.589,2.438-2.589,1.37,0,2.369,1.089,2.369,2.589v.27h-3.698c.11.81.72,1.399,1.499,1.399.47,0,.91-.18,1.189-.47l.74.669c-.61.51-1.219.73-1.979.73-1.439,0-2.559-1.129-2.559-2.599ZM108.154,242.934c-.12-.73-.64-1.239-1.309-1.239-.68,0-1.179.49-1.309,1.239h2.618Z"/>
    <path d="M110.066,244.423c0-.899.739-1.469,1.919-1.469.47,0,.909.1,1.349.32v-.56c0-.66-.38-1-1.149-1-.42,0-.879.12-1.459.39l-.4-.82c.75-.34,1.409-.51,2.079-.51,1.31,0,2.049.66,2.049,1.819v3.268h-1.119v-.52c-.43.419-.91.609-1.489.609-1.049,0-1.779-.629-1.779-1.529ZM112.155,245.153c.45,0,.839-.13,1.179-.42v-.81c-.36-.17-.72-.24-1.149-.24-.649,0-1.06.27-1.06.72,0,.459.4.75,1.03.75Z"/>
    <path d="M116.295,244.563v-2.809h-1v-.899h1v-1.379l1.129-.24v1.619h1.389v.899h-1.389v2.559c0,.49.19.68.7.68.22,0,.379-.03.68-.12v.949c-.29.09-.67.14-.97.14-1.009,0-1.539-.48-1.539-1.399Z"/>
    <path d="M119.776,244.153v-3.298h1.139v2.968c0,.74.43,1.209,1.1,1.209.45,0,.83-.2,1.089-.6v-3.578h1.129v5.007h-1.129v-.81c-.38.59-.919.89-1.589.89-1.019,0-1.739-.74-1.739-1.789Z"/>
    <path d="M125.636,240.855h1.129v1.08c.28-.76.759-1.169,1.379-1.169.19.01.32.03.49.1v.989c-.18-.07-.41-.12-.62-.12-.549,0-1,.31-1.249.83v3.298h-1.129v-5.007Z"/>
    <path d="M129.105,243.364c0-1.469,1.06-2.589,2.438-2.589,1.37,0,2.369,1.089,2.369,2.589v.27h-3.698c.11.81.72,1.399,1.499,1.399.47,0,.91-.18,1.189-.47l.74.669c-.61.51-1.219.73-1.979.73-1.439,0-2.559-1.129-2.559-2.599ZM132.843,242.934c-.12-.73-.64-1.239-1.309-1.239-.68,0-1.179.49-1.309,1.239h2.618Z"/>
    <path d="M134.666,245.283l.53-.75c.659.41,1.099.569,1.609.569.6,0,1.009-.28,1.009-.68,0-.31-.209-.47-.699-.569l-.88-.15c-.979-.18-1.449-.63-1.449-1.379,0-.939.77-1.549,1.939-1.549.7,0,1.33.2,1.969.6l-.53.75c-.51-.33-1-.48-1.509-.48-.52,0-.859.22-.859.58,0,.32.18.46.699.55l.89.17c1,.18,1.479.64,1.479,1.389,0,.919-.88,1.629-2.049,1.629-.86,0-1.619-.24-2.149-.68Z"/>
  </g>
  <rect class="uuid-fb85b938-a374-48b1-a8bc-ec0de875664f" x="403.991" y="218.919" width="175.857" height="36.347"/>
  <g>
    <path d="M468.389,228.855h1.13v1.08c.279-.76.76-1.169,1.379-1.169.19.01.32.03.49.1v.989c-.181-.07-.41-.12-.62-.12-.55,0-.999.31-1.249.83v3.298h-1.13v-5.007Z"/>
    <path d="M471.859,231.364c0-1.469,1.06-2.589,2.438-2.589,1.369,0,2.369,1.089,2.369,2.589v.27h-3.698c.11.81.72,1.399,1.499,1.399.47,0,.91-.18,1.189-.47l.739.669c-.609.51-1.219.73-1.979.73-1.439,0-2.559-1.129-2.559-2.599ZM475.598,230.934c-.12-.73-.64-1.239-1.31-1.239-.68,0-1.18.49-1.31,1.239h2.619Z"/>
    <path d="M477.08,228.855h1.229l1.399,3.638,1.39-3.638h1.179l-2.059,5.007h-1.1l-2.038-5.007Z"/>
    <path d="M482.949,227.146c0-.38.31-.7.7-.7.379,0,.699.32.699.7s-.32.689-.699.689c-.391,0-.7-.31-.7-.689ZM483.079,228.855h1.13v5.007h-1.13v-5.007Z"/>
    <path d="M485.379,231.364c0-1.469,1.06-2.589,2.438-2.589,1.369,0,2.369,1.089,2.369,2.589v.27h-3.698c.11.81.72,1.399,1.499,1.399.47,0,.91-.18,1.189-.47l.739.669c-.609.51-1.219.73-1.979.73-1.439,0-2.559-1.129-2.559-2.599ZM489.117,230.934c-.12-.73-.64-1.239-1.31-1.239-.68,0-1.18.49-1.31,1.239h2.619Z"/>
    <path d="M490.769,228.855h1.08l.879,3.528,1.04-3.528h.949l1.029,3.528.88-3.528h1.049l-1.349,5.007h-1.08l-1.02-3.528-1.009,3.528h-1.1l-1.35-5.007Z"/>
    <path d="M498.149,233.283l.529-.75c.66.41,1.1.569,1.609.569.6,0,1.01-.28,1.01-.68,0-.31-.21-.47-.7-.569l-.879-.15c-.979-.18-1.449-.63-1.449-1.379,0-.939.77-1.549,1.938-1.549.7,0,1.329.2,1.969.6l-.529.75c-.51-.33-1-.48-1.509-.48-.521,0-.86.22-.86.58,0,.32.181.46.7.55l.89.17c.999.18,1.479.64,1.479,1.389,0,.919-.879,1.629-2.049,1.629-.859,0-1.619-.24-2.148-.68Z"/>
    <path d="M503.249,230.544h3.488v.959h-3.488v-.959Z"/>
    <path d="M507.419,228.855h1.229l1.399,3.638,1.39-3.638h1.179l-2.059,5.007h-1.1l-2.038-5.007Z"/>
    <path d="M514.338,228.015l-1.239.53v-.97l1.639-.709h.689v6.996h-1.089v-5.847Z"/>
    <path d="M458.899,244.843l.649-.879c.899.74,1.549,1.02,2.358,1.02.92,0,1.56-.47,1.56-1.12,0-.569-.34-.839-1.27-1l-1.289-.22c-1.21-.22-1.799-.819-1.799-1.779,0-1.27,1.009-2.109,2.578-2.109,1.05,0,2.009.31,2.809.899l-.609.899c-.7-.53-1.449-.81-2.239-.81-.84,0-1.399.43-1.399,1,0,.51.32.77,1.08.89l1.249.21c1.409.25,2.068.869,2.068,1.929,0,1.289-1.139,2.199-2.808,2.199-1.1,0-2.05-.38-2.938-1.129Z"/>
    <path d="M466.198,244.563v-2.809h-.999v-.899h.999v-1.379l1.129-.24v1.619h1.39v.899h-1.39v2.559c0,.49.19.68.7.68.22,0,.38-.03.68-.12v.949c-.29.09-.67.14-.97.14-1.01,0-1.539-.48-1.539-1.399Z"/>
    <path d="M469.458,244.423c0-.899.74-1.469,1.919-1.469.47,0,.91.1,1.35.32v-.56c0-.66-.38-1-1.149-1-.42,0-.88.12-1.459.39l-.4-.82c.75-.34,1.409-.51,2.079-.51,1.31,0,2.049.66,2.049,1.819v3.268h-1.119v-.52c-.43.419-.909.609-1.489.609-1.05,0-1.779-.629-1.779-1.529ZM471.547,245.153c.45,0,.84-.13,1.18-.42v-.81c-.359-.17-.72-.24-1.149-.24-.649,0-1.06.27-1.06.72,0,.459.4.75,1.029.75Z"/>
    <path d="M475.218,238.726l1.13-.19v2.989c.35-.44.909-.71,1.539-.71,1.27,0,2.259,1.129,2.259,2.549,0,1.429-1.02,2.548-2.329,2.548-.589,0-1.109-.24-1.489-.689v.64h-1.109v-7.136ZM479.036,243.364c0-.91-.64-1.599-1.489-1.599-.5,0-.909.2-1.199.56v2.089c.29.35.72.56,1.199.56.859,0,1.489-.689,1.489-1.609Z"/>
    <path d="M481.328,238.696l1.13-.2v7.366h-1.13v-7.166Z"/>
    <path d="M483.618,243.364c0-1.469,1.06-2.589,2.438-2.589,1.369,0,2.369,1.089,2.369,2.589v.27h-3.698c.11.81.72,1.399,1.499,1.399.47,0,.91-.18,1.189-.47l.739.669c-.609.51-1.219.73-1.979.73-1.439,0-2.559-1.129-2.559-2.599ZM487.356,242.934c-.12-.73-.64-1.239-1.31-1.239-.68,0-1.18.49-1.31,1.239h2.619Z"/>
    <path d="M491.239,240.855h1.229l1.399,3.638,1.39-3.638h1.179l-2.059,5.007h-1.1l-2.038-5.007Z"/>
    <path d="M496.868,243.364c0-1.469,1.06-2.589,2.438-2.589,1.369,0,2.369,1.089,2.369,2.589v.27h-3.698c.11.81.72,1.399,1.499,1.399.47,0,.91-.18,1.189-.47l.739.669c-.609.51-1.219.73-1.979.73-1.439,0-2.559-1.129-2.559-2.599ZM500.606,242.934c-.12-.73-.64-1.239-1.31-1.239-.68,0-1.18.49-1.31,1.239h2.619Z"/>
    <path d="M502.828,240.855h1.13v1.08c.279-.76.76-1.169,1.379-1.169.19.01.32.03.49.1v.989c-.181-.07-.41-.12-.62-.12-.55,0-.999.31-1.249.83v3.298h-1.13v-5.007Z"/>
    <path d="M506.328,245.283l.529-.75c.66.41,1.1.569,1.609.569.6,0,1.01-.28,1.01-.68,0-.31-.21-.47-.7-.569l-.879-.15c-.979-.18-1.449-.63-1.449-1.379,0-.939.77-1.549,1.938-1.549.7,0,1.329.2,1.969.6l-.529.75c-.51-.33-1-.48-1.51-.48-.52,0-.859.22-.859.58,0,.32.181.46.7.55l.89.17c.999.18,1.479.64,1.479,1.389,0,.919-.879,1.629-2.049,1.629-.859,0-1.619-.24-2.148-.68Z"/>
    <path d="M511.428,239.146c0-.38.31-.7.7-.7.379,0,.699.32.699.7s-.32.689-.699.689c-.391,0-.7-.31-.7-.689ZM511.558,240.855h1.13v5.007h-1.13v-5.007Z"/>
    <path d="M513.858,243.364c0-1.479,1.079-2.589,2.519-2.589,1.43,0,2.509,1.109,2.509,2.589s-1.079,2.588-2.509,2.588c-1.439,0-2.519-1.109-2.519-2.588ZM517.776,243.364c0-.93-.59-1.629-1.399-1.629-.819,0-1.409.7-1.409,1.629,0,.939.59,1.629,1.409,1.629.81,0,1.399-.689,1.399-1.629Z"/>
    <path d="M520.058,240.855h1.13v.82c.38-.59.93-.9,1.579-.9,1.029,0,1.749.73,1.749,1.789v3.298h-1.14v-2.979c0-.729-.43-1.199-1.1-1.199-.459,0-.829.21-1.089.61v3.568h-1.13v-5.007Z"/>
  </g>
  <rect class="uuid-03c31099-7809-454a-b393-3840746e0083" x="209.709" y="281.806" width="175.857" height="36.347"/>
  <g>
    <path d="M269.783,288.498h3.119c1.309,0,2.199.75,2.199,1.839,0,.709-.44,1.279-1.14,1.549.84.25,1.379.859,1.379,1.659,0,1.159-.93,1.949-2.309,1.949h-3.249v-6.996ZM272.771,291.446c.679,0,1.129-.39,1.129-.989,0-.59-.439-.979-1.129-.979h-1.789v1.969h1.789ZM272.881,294.515c.759,0,1.249-.43,1.249-1.08s-.479-1.069-1.249-1.069h-1.899v2.149h1.899Z"/>
    <path d="M276.273,292.995c0-1.469,1.06-2.589,2.438-2.589,1.37,0,2.369,1.089,2.369,2.589v.27h-3.698c.11.81.72,1.399,1.499,1.399.47,0,.91-.18,1.189-.47l.74.669c-.61.51-1.219.73-1.979.73-1.439,0-2.559-1.129-2.559-2.599ZM280.011,292.566c-.12-.73-.64-1.239-1.309-1.239-.68,0-1.179.49-1.309,1.239h2.618Z"/>
    <path d="M282.703,294.195v-2.809h-1v-.899h1v-1.379l1.129-.24v1.619h1.389v.899h-1.389v2.559c0,.49.19.68.7.68.22,0,.379-.03.68-.12v.949c-.29.09-.67.14-.97.14-1.009,0-1.539-.48-1.539-1.399Z"/>
    <path d="M285.963,294.055c0-.899.739-1.469,1.919-1.469.47,0,.909.1,1.349.32v-.56c0-.66-.38-1-1.149-1-.42,0-.879.12-1.459.39l-.4-.82c.75-.34,1.409-.51,2.079-.51,1.31,0,2.049.66,2.049,1.819v3.268h-1.119v-.52c-.43.419-.91.609-1.489.609-1.049,0-1.779-.629-1.779-1.529ZM288.052,294.785c.45,0,.839-.13,1.179-.42v-.81c-.36-.17-.72-.24-1.149-.24-.649,0-1.06.27-1.06.72,0,.459.4.75,1.03.75Z"/>
    <path d="M294.592,294.195v-2.809h-1v-.899h1v-1.379l1.129-.24v1.619h1.389v.899h-1.389v2.559c0,.49.19.68.7.68.22,0,.379-.03.68-.12v.949c-.29.09-.67.14-.97.14-1.009,0-1.539-.48-1.539-1.399Z"/>
    <path d="M297.803,292.995c0-1.469,1.06-2.589,2.438-2.589,1.369,0,2.369,1.089,2.369,2.589v.27h-3.698c.11.81.72,1.399,1.499,1.399.47,0,.91-.18,1.189-.47l.739.669c-.609.51-1.219.73-1.979.73-1.439,0-2.559-1.129-2.559-2.599ZM301.541,292.566c-.12-.73-.64-1.239-1.31-1.239-.68,0-1.18.49-1.309,1.239h2.619Z"/>
    <path d="M303.363,294.914l.529-.75c.66.41,1.1.569,1.609.569.6,0,1.01-.28,1.01-.68,0-.31-.21-.47-.7-.569l-.879-.15c-.979-.18-1.449-.63-1.449-1.379,0-.939.77-1.549,1.938-1.549.7,0,1.329.2,1.969.6l-.529.75c-.51-.33-1-.48-1.51-.48-.52,0-.859.22-.859.58,0,.32.181.46.7.55l.89.17c.999.18,1.479.64,1.479,1.389,0,.919-.879,1.629-2.049,1.629-.859,0-1.619-.24-2.148-.68Z"/>
    <path d="M309.122,294.195v-2.809h-.999v-.899h.999v-1.379l1.129-.24v1.619h1.39v.899h-1.39v2.559c0,.49.19.68.7.68.22,0,.38-.03.68-.12v.949c-.29.09-.67.14-.97.14-1.01,0-1.539-.48-1.539-1.399Z"/>
    <path d="M312.332,292.995c0-1.469,1.06-2.589,2.438-2.589,1.369,0,2.369,1.089,2.369,2.589v.27h-3.698c.11.81.72,1.399,1.499,1.399.47,0,.91-.18,1.189-.47l.739.669c-.609.51-1.219.73-1.979.73-1.439,0-2.559-1.129-2.559-2.599ZM316.07,292.566c-.12-.73-.64-1.239-1.31-1.239-.68,0-1.18.49-1.31,1.239h2.619Z"/>
    <path d="M318.292,290.487h1.13v1.08c.279-.76.76-1.169,1.379-1.169.19.01.32.03.49.1v.989c-.18-.07-.41-.12-.62-.12-.55,0-.999.31-1.249.83v3.298h-1.13v-5.007Z"/>
    <path d="M321.793,294.914l.529-.75c.66.41,1.1.569,1.609.569.6,0,1.01-.28,1.01-.68,0-.31-.21-.47-.7-.569l-.879-.15c-.979-.18-1.449-.63-1.449-1.379,0-.939.77-1.549,1.938-1.549.7,0,1.329.2,1.969.6l-.529.75c-.51-.33-1-.48-1.51-.48-.52,0-.859.22-.859.58,0,.32.181.46.7.55l.89.17c.999.18,1.479.64,1.479,1.389,0,.919-.879,1.629-2.049,1.629-.859,0-1.619-.24-2.148-.68Z"/>
  </g>
  <rect class="uuid-edafdd0e-a6b9-4cc2-8e84-b447e2804954" x="15.428" y="281.806" width="175.857" height="36.347"/>
  <g>
    <path d="M59.777,288.498h1.199v6.996h-1.199v-6.996Z"/>
    <path d="M62.467,290.487h1.129v.82c.38-.59.929-.9,1.579-.9,1.029,0,1.749.73,1.749,1.789v3.298h-1.14v-2.979c0-.729-.43-1.199-1.099-1.199-.46,0-.83.21-1.089.61v3.568h-1.129v-5.007Z"/>
    <path d="M68.756,294.195v-2.809h-1v-.899h1v-1.379l1.129-.24v1.619h1.389v.899h-1.389v2.559c0,.49.19.68.7.68.22,0,.379-.03.68-.12v.949c-.29.09-.67.14-.97.14-1.009,0-1.539-.48-1.539-1.399Z"/>
    <path d="M71.967,292.995c0-1.469,1.06-2.589,2.438-2.589,1.37,0,2.369,1.089,2.369,2.589v.27h-3.698c.11.81.72,1.399,1.499,1.399.47,0,.91-.18,1.189-.47l.74.669c-.61.51-1.219.73-1.979.73-1.439,0-2.559-1.129-2.559-2.599ZM75.705,292.566c-.12-.73-.64-1.239-1.309-1.239-.68,0-1.179.49-1.309,1.239h2.618Z"/>
    <path d="M77.927,290.487h1.129v1.08c.28-.76.759-1.169,1.379-1.169.19.01.32.03.49.1v.989c-.18-.07-.41-.12-.62-.12-.549,0-1,.31-1.249.83v3.298h-1.129v-5.007Z"/>
    <path d="M81.856,290.487h1.129v.82c.38-.59.929-.9,1.579-.9,1.029,0,1.749.73,1.749,1.789v3.298h-1.14v-2.979c0-.729-.43-1.199-1.099-1.199-.46,0-.83.21-1.089.61v3.568h-1.129v-5.007Z"/>
    <path d="M87.417,294.055c0-.899.739-1.469,1.919-1.469.47,0,.909.1,1.349.32v-.56c0-.66-.38-1-1.149-1-.42,0-.879.12-1.459.39l-.4-.82c.75-.34,1.409-.51,2.079-.51,1.31,0,2.049.66,2.049,1.819v3.268h-1.119v-.52c-.43.419-.91.609-1.489.609-1.049,0-1.779-.629-1.779-1.529ZM89.505,294.785c.45,0,.839-.13,1.179-.42v-.81c-.36-.17-.72-.24-1.149-.24-.649,0-1.06.27-1.06.72,0,.459.4.75,1.03.75Z"/>
    <path d="M93.176,288.328l1.129-.2v7.366h-1.129v-7.166Z"/>
    <path d="M97.716,292.995c0-1.469,1.06-2.589,2.438-2.589,1.37,0,2.369,1.089,2.369,2.589v.27h-3.698c.11.81.72,1.399,1.499,1.399.47,0,.91-.18,1.189-.47l.74.669c-.61.51-1.219.73-1.979.73-1.439,0-2.559-1.129-2.559-2.599ZM101.454,292.566c-.12-.73-.64-1.239-1.309-1.239-.68,0-1.179.49-1.309,1.239h2.618Z"/>
    <path d="M103.676,290.487h1.129v.79c.37-.57.87-.87,1.479-.87.69,0,1.219.37,1.479.959.39-.629.949-.959,1.659-.959.97,0,1.639.75,1.639,1.809v3.278h-1.129v-3.028c0-.7-.39-1.149-1.009-1.149-.41,0-.75.19-1,.6.01.1.02.2.02.3v3.278h-1.139v-3.028c0-.7-.39-1.149-1.01-1.149-.41,0-.739.19-.989.58v3.598h-1.129v-5.007Z"/>
    <path d="M112.436,290.487h1.109v.709c.36-.47.919-.75,1.559-.75,1.27,0,2.259,1.129,2.259,2.549,0,1.429-1.02,2.548-2.329,2.548-.59,0-1.109-.22-1.469-.64v2.679h-1.129v-7.096ZM116.254,292.995c0-.91-.64-1.599-1.489-1.599-.5,0-.91.2-1.199.56v2.089c.29.35.72.56,1.199.56.859,0,1.489-.689,1.489-1.609Z"/>
    <path d="M118.546,288.328l1.129-.2v7.366h-1.129v-7.166Z"/>
    <path d="M120.836,292.995c0-1.479,1.08-2.589,2.519-2.589,1.429,0,2.509,1.109,2.509,2.589s-1.08,2.588-2.509,2.588c-1.439,0-2.519-1.109-2.519-2.588ZM124.754,292.995c0-.93-.59-1.629-1.399-1.629-.819,0-1.409.7-1.409,1.629,0,.939.59,1.629,1.409,1.629.81,0,1.399-.689,1.399-1.629Z"/>
    <path d="M126.686,297.613v-.979c.13.03.29.04.44.04.4,0,.64-.18.81-.569l.23-.56-1.889-5.057h1.25l1.279,3.708,1.389-3.708h1.239l-2.398,5.877c-.39.969-.85,1.319-1.789,1.319-.16,0-.36-.02-.56-.07Z"/>
    <path d="M131.876,292.995c0-1.469,1.06-2.589,2.438-2.589,1.37,0,2.369,1.089,2.369,2.589v.27h-3.698c.11.81.72,1.399,1.499,1.399.47,0,.91-.18,1.189-.47l.74.669c-.61.51-1.219.73-1.979.73-1.439,0-2.559-1.129-2.559-2.599ZM135.614,292.566c-.12-.73-.64-1.239-1.309-1.239-.68,0-1.179.49-1.309,1.239h2.618Z"/>
    <path d="M137.626,292.995c0-1.469,1.06-2.589,2.438-2.589,1.37,0,2.369,1.089,2.369,2.589v.27h-3.698c.11.81.72,1.399,1.499,1.399.47,0,.91-.18,1.189-.47l.74.669c-.61.51-1.219.73-1.979.73-1.439,0-2.559-1.129-2.559-2.599ZM141.364,292.566c-.12-.73-.64-1.239-1.309-1.239-.68,0-1.179.49-1.309,1.239h2.618Z"/>
    <path d="M143.186,294.914l.53-.75c.659.41,1.099.569,1.609.569.6,0,1.009-.28,1.009-.68,0-.31-.209-.47-.699-.569l-.88-.15c-.979-.18-1.449-.63-1.449-1.379,0-.939.77-1.549,1.939-1.549.7,0,1.33.2,1.969.6l-.53.75c-.51-.33-1-.48-1.509-.48-.52,0-.859.22-.859.58,0,.32.18.46.699.55l.89.17c1,.18,1.479.64,1.479,1.389,0,.919-.88,1.629-2.049,1.629-.86,0-1.619-.24-2.149-.68Z"/>
  </g>
  <g>
    <path d="M82.376,303.786h3.108c1.389,0,2.339.859,2.339,2.119,0,.91-.54,1.619-1.389,1.919l1.479,2.958h-1.329l-1.35-2.798h-1.659v2.798h-1.2v-6.996ZM85.375,307.024c.75,0,1.239-.44,1.239-1.109,0-.68-.49-1.12-1.239-1.12h-1.799v2.229h1.799Z"/>
    <path d="M88.477,308.284c0-1.469,1.06-2.589,2.438-2.589,1.37,0,2.369,1.089,2.369,2.589v.27h-3.698c.11.81.72,1.399,1.499,1.399.47,0,.91-.18,1.189-.47l.74.669c-.61.51-1.219.73-1.979.73-1.439,0-2.559-1.129-2.559-2.599ZM92.214,307.854c-.12-.73-.64-1.239-1.309-1.239-.68,0-1.179.49-1.309,1.239h2.618Z"/>
    <path d="M94.227,308.284c0-1.429,1.029-2.549,2.339-2.549.569,0,1.089.23,1.459.65v-2.769l1.129-.2v7.366h-1.119v-.66c-.36.45-.919.709-1.549.709-1.27,0-2.259-1.129-2.259-2.548ZM98.024,309.333v-2.109c-.29-.34-.72-.54-1.189-.54-.859,0-1.499.68-1.499,1.599,0,.909.64,1.599,1.499,1.599.49,0,.9-.19,1.189-.55Z"/>
    <path d="M102.356,310.202l.53-.75c.66.41,1.099.569,1.609.569.6,0,1.009-.28,1.009-.68,0-.31-.209-.47-.699-.569l-.88-.15c-.979-.18-1.449-.63-1.449-1.379,0-.939.77-1.549,1.939-1.549.7,0,1.33.2,1.969.6l-.53.75c-.51-.33-1-.48-1.509-.48-.52,0-.859.22-.859.58,0,.32.18.46.7.55l.889.17c1,.18,1.479.64,1.479,1.389,0,.919-.88,1.629-2.049,1.629-.859,0-1.619-.24-2.148-.68Z"/>
    <path d="M108.116,309.483v-2.809h-1v-.899h1v-1.379l1.129-.24v1.619h1.389v.899h-1.389v2.559c0,.49.19.68.7.68.22,0,.379-.03.68-.12v.949c-.29.09-.67.14-.97.14-1.009,0-1.539-.48-1.539-1.399Z"/>
    <path d="M111.376,309.343c0-.899.739-1.469,1.919-1.469.47,0,.909.1,1.349.32v-.56c0-.66-.38-1-1.149-1-.42,0-.879.12-1.459.39l-.4-.82c.75-.34,1.409-.51,2.079-.51,1.31,0,2.049.66,2.049,1.819v3.268h-1.119v-.52c-.43.419-.91.609-1.489.609-1.049,0-1.779-.629-1.779-1.529ZM113.465,310.073c.45,0,.839-.13,1.179-.42v-.81c-.36-.17-.72-.24-1.149-.24-.649,0-1.06.27-1.06.72,0,.459.4.75,1.03.75Z"/>
    <path d="M117.136,305.775h1.129v1.08c.28-.76.759-1.169,1.379-1.169.19.01.32.03.49.1v.989c-.18-.07-.41-.12-.62-.12-.549,0-1,.31-1.249.83v3.298h-1.129v-5.007Z"/>
    <path d="M120.636,310.202l.53-.75c.66.41,1.099.569,1.609.569.6,0,1.009-.28,1.009-.68,0-.31-.209-.47-.699-.569l-.88-.15c-.979-.18-1.449-.63-1.449-1.379,0-.939.77-1.549,1.939-1.549.7,0,1.33.2,1.969.6l-.53.75c-.51-.33-1-.48-1.509-.48-.52,0-.859.22-.859.58,0,.32.18.46.7.55l.889.17c1,.18,1.479.64,1.479,1.389,0,.919-.88,1.629-2.049,1.629-.859,0-1.619-.24-2.148-.68Z"/>
  </g>
  <g>
    <path d="M273.008,303.786h3.119c1.309,0,2.199.75,2.199,1.839,0,.709-.44,1.279-1.14,1.549.84.25,1.379.859,1.379,1.659,0,1.159-.93,1.949-2.309,1.949h-3.249v-6.996ZM275.997,306.734c.679,0,1.129-.39,1.129-.989,0-.59-.439-.979-1.129-.979h-1.789v1.969h1.789ZM276.106,309.803c.759,0,1.249-.43,1.249-1.08s-.479-1.069-1.249-1.069h-1.899v2.149h1.899Z"/>
    <path d="M279.828,303.616l1.129-.2v7.366h-1.129v-7.166Z"/>
    <path d="M282.088,309.343c0-.899.739-1.469,1.919-1.469.47,0,.909.1,1.349.32v-.56c0-.66-.38-1-1.149-1-.42,0-.879.12-1.459.39l-.4-.82c.75-.34,1.409-.51,2.079-.51,1.31,0,2.049.66,2.049,1.819v3.268h-1.119v-.52c-.43.419-.91.609-1.489.609-1.049,0-1.779-.629-1.779-1.529ZM284.177,310.073c.45,0,.839-.13,1.179-.42v-.81c-.36-.17-.72-.24-1.149-.24-.649,0-1.06.27-1.06.72,0,.459.4.75,1.03.75Z"/>
    <path d="M287.618,308.284c0-1.449,1.1-2.589,2.529-2.589.779,0,1.499.31,1.999.85l-.699.729c-.35-.39-.78-.589-1.259-.589-.81,0-1.439.7-1.439,1.599,0,.909.63,1.599,1.439,1.599.479,0,.909-.2,1.259-.58l.699.719c-.5.54-1.219.85-1.999.85-1.429,0-2.529-1.129-2.529-2.588Z"/>
    <path d="M293.078,303.596l1.129-.19v4.498l2.079-2.129h1.299l-2.309,2.319,2.429,2.688h-1.439l-2.059-2.309v2.309h-1.129v-7.186Z"/>
    <path d="M300.288,310.202l.529-.75c.659.41,1.1.569,1.609.569.6,0,1.009-.28,1.009-.68,0-.31-.209-.47-.699-.569l-.88-.15c-.979-.18-1.449-.63-1.449-1.379,0-.939.77-1.549,1.939-1.549.699,0,1.329.2,1.969.6l-.529.75c-.51-.33-1-.48-1.51-.48-.52,0-.859.22-.859.58,0,.32.18.46.699.55l.89.17c1,.18,1.479.64,1.479,1.389,0,.919-.88,1.629-2.049,1.629-.859,0-1.619-.24-2.148-.68Z"/>
    <path d="M306.047,309.483v-2.809h-.999v-.899h.999v-1.379l1.13-.24v1.619h1.389v.899h-1.389v2.559c0,.49.189.68.699.68.22,0,.38-.03.68-.12v.949c-.29.09-.67.14-.97.14-1.009,0-1.539-.48-1.539-1.399Z"/>
    <path d="M309.308,309.343c0-.899.739-1.469,1.919-1.469.47,0,.909.1,1.349.32v-.56c0-.66-.38-1-1.149-1-.42,0-.879.12-1.459.39l-.399-.82c.749-.34,1.409-.51,2.078-.51,1.31,0,2.049.66,2.049,1.819v3.268h-1.119v-.52c-.43.419-.909.609-1.489.609-1.049,0-1.778-.629-1.778-1.529ZM311.396,310.073c.449,0,.839-.13,1.179-.42v-.81c-.359-.17-.72-.24-1.149-.24-.649,0-1.06.27-1.06.72,0,.459.4.75,1.03.75Z"/>
    <path d="M315.067,305.775h1.129v1.08c.28-.76.76-1.169,1.379-1.169.19.01.32.03.49.1v.989c-.18-.07-.41-.12-.62-.12-.549,0-.999.31-1.249.83v3.298h-1.129v-5.007Z"/>
    <path d="M318.567,310.202l.529-.75c.659.41,1.1.569,1.609.569.6,0,1.009-.28,1.009-.68,0-.31-.209-.47-.699-.569l-.88-.15c-.979-.18-1.449-.63-1.449-1.379,0-.939.77-1.549,1.939-1.549.699,0,1.329.2,1.969.6l-.529.75c-.51-.33-1-.48-1.51-.48-.52,0-.859.22-.859.58,0,.32.18.46.699.55l.89.17c1,.18,1.479.64,1.479,1.389,0,.919-.88,1.629-2.049,1.629-.859,0-1.619-.24-2.148-.68Z"/>
  </g>
  <g>
    <path d="M473.309,303.786h1.17l3.647,5.087-.02-5.087h1.129v6.996h-1.069l-3.748-5.227.021,5.227h-1.13v-6.996Z"/>
    <path d="M480.549,308.284c0-1.479,1.08-2.589,2.519-2.589,1.43,0,2.509,1.109,2.509,2.589s-1.079,2.588-2.509,2.588c-1.438,0-2.519-1.109-2.519-2.588ZM484.467,308.284c0-.93-.59-1.629-1.399-1.629-.819,0-1.409.7-1.409,1.629,0,.939.59,1.629,1.409,1.629.81,0,1.399-.689,1.399-1.629Z"/>
    <path d="M488.549,310.202l.53-.75c.659.41,1.099.569,1.608.569.6,0,1.01-.28,1.01-.68,0-.31-.21-.47-.699-.569l-.88-.15c-.979-.18-1.449-.63-1.449-1.379,0-.939.77-1.549,1.938-1.549.7,0,1.33.2,1.97.6l-.53.75c-.51-.33-.999-.48-1.509-.48-.52,0-.859.22-.859.58,0,.32.18.46.699.55l.89.17c.999.18,1.479.64,1.479,1.389,0,.919-.88,1.629-2.05,1.629-.859,0-1.618-.24-2.148-.68Z"/>
    <path d="M494.309,309.483v-2.809h-1v-.899h1v-1.379l1.129-.24v1.619h1.39v.899h-1.39v2.559c0,.49.19.68.7.68.22,0,.379-.03.68-.12v.949c-.29.09-.67.14-.97.14-1.01,0-1.539-.48-1.539-1.399Z"/>
    <path d="M497.569,309.343c0-.899.739-1.469,1.919-1.469.47,0,.909.1,1.349.32v-.56c0-.66-.38-1-1.149-1-.42,0-.879.12-1.459.39l-.399-.82c.749-.34,1.409-.51,2.078-.51,1.31,0,2.049.66,2.049,1.819v3.268h-1.119v-.52c-.43.419-.909.609-1.489.609-1.049,0-1.778-.629-1.778-1.529ZM499.658,310.073c.449,0,.839-.13,1.179-.42v-.81c-.359-.17-.72-.24-1.149-.24-.649,0-1.06.27-1.06.72,0,.459.4.75,1.03.75Z"/>
    <path d="M503.328,305.775h1.13v1.08c.279-.76.759-1.169,1.379-1.169.189.01.319.03.489.1v.989c-.18-.07-.409-.12-.619-.12-.55,0-1,.31-1.249.83v3.298h-1.13v-5.007Z"/>
    <path d="M506.829,310.202l.529-.75c.659.41,1.1.569,1.609.569.6,0,1.009-.28,1.009-.68,0-.31-.209-.47-.699-.569l-.88-.15c-.979-.18-1.449-.63-1.449-1.379,0-.939.77-1.549,1.939-1.549.699,0,1.329.2,1.969.6l-.529.75c-.51-.33-1-.48-1.51-.48-.52,0-.859.22-.859.58,0,.32.18.46.699.55l.89.17c1,.18,1.479.64,1.479,1.389,0,.919-.88,1.629-2.049,1.629-.859,0-1.619-.24-2.148-.68Z"/>
  </g>
  <g>
    <path d="M458.6,291.996c0-2.019,1.569-3.608,3.588-3.608,1.109,0,2.159.439,2.828,1.249l-.839.75c-.48-.6-1.21-.919-1.989-.919-1.35,0-2.358,1.1-2.358,2.529,0,1.439,1.029,2.539,2.389,2.539,1.119,0,1.969-.77,2.118-1.829h-2.078v-1.029h3.348v.39c0,2.009-1.449,3.538-3.408,3.538-2.019,0-3.598-1.589-3.598-3.608Z"/>
    <path d="M466.579,292.995c0-1.469,1.06-2.589,2.438-2.589,1.369,0,2.369,1.089,2.369,2.589v.27h-3.698c.11.81.72,1.399,1.499,1.399.47,0,.91-.18,1.189-.47l.739.669c-.609.51-1.219.73-1.979.73-1.439,0-2.559-1.129-2.559-2.599ZM470.317,292.566c-.12-.73-.64-1.239-1.31-1.239-.68,0-1.18.49-1.31,1.239h2.619Z"/>
    <path d="M472.539,290.487h1.13v.82c.38-.59.93-.9,1.579-.9,1.029,0,1.749.73,1.749,1.789v3.298h-1.14v-2.979c0-.729-.43-1.199-1.1-1.199-.459,0-.829.21-1.089.61v3.568h-1.13v-5.007Z"/>
    <path d="M478.129,292.995c0-1.469,1.06-2.589,2.438-2.589,1.369,0,2.369,1.089,2.369,2.589v.27h-3.698c.11.81.72,1.399,1.499,1.399.47,0,.91-.18,1.189-.47l.739.669c-.609.51-1.219.73-1.979.73-1.439,0-2.559-1.129-2.559-2.599ZM481.867,292.566c-.12-.73-.64-1.239-1.31-1.239-.68,0-1.18.49-1.31,1.239h2.619Z"/>
    <path d="M484.089,290.487h1.13v1.08c.279-.76.76-1.169,1.379-1.169.19.01.32.03.49.1v.989c-.18-.07-.41-.12-.62-.12-.55,0-.999.31-1.249.83v3.298h-1.13v-5.007Z"/>
    <path d="M487.609,294.055c0-.899.74-1.469,1.919-1.469.47,0,.91.1,1.35.32v-.56c0-.66-.38-1-1.149-1-.42,0-.88.12-1.459.39l-.4-.82c.75-.34,1.409-.51,2.079-.51,1.31,0,2.049.66,2.049,1.819v3.268h-1.119v-.52c-.43.419-.909.609-1.489.609-1.05,0-1.779-.629-1.779-1.529ZM489.698,294.785c.45,0,.84-.13,1.18-.42v-.81c-.359-.17-.72-.24-1.149-.24-.649,0-1.06.27-1.06.72,0,.459.4.75,1.029.75Z"/>
    <path d="M493.368,288.328l1.13-.2v7.366h-1.13v-7.166Z"/>
    <path d="M498.139,290.487h1.109v.709c.36-.47.92-.75,1.56-.75,1.27,0,2.259,1.129,2.259,2.549,0,1.429-1.02,2.548-2.329,2.548-.589,0-1.109-.22-1.469-.64v2.679h-1.13v-7.096ZM501.957,292.995c0-.91-.64-1.599-1.489-1.599-.5,0-.909.2-1.199.56v2.089c.29.35.72.56,1.199.56.859,0,1.489-.689,1.489-1.609Z"/>
    <path d="M504.208,293.785v-3.298h1.14v2.968c0,.74.43,1.209,1.1,1.209.45,0,.829-.2,1.09-.6v-3.578h1.129v5.007h-1.129v-.81c-.38.59-.92.89-1.59.89-1.02,0-1.739-.74-1.739-1.789Z"/>
    <path d="M510.068,288.358l1.13-.19v2.989c.35-.44.909-.71,1.539-.71,1.27,0,2.259,1.129,2.259,2.549,0,1.429-1.02,2.548-2.329,2.548-.589,0-1.109-.24-1.489-.689v.64h-1.109v-7.136ZM513.887,292.995c0-.91-.64-1.599-1.489-1.599-.5,0-.909.2-1.199.56v2.089c.29.35.72.56,1.199.56.859,0,1.489-.689,1.489-1.609Z"/>
    <path d="M516.178,288.328l1.13-.2v7.366h-1.13v-7.166Z"/>
    <path d="M518.559,288.778c0-.38.31-.7.7-.7.379,0,.699.32.699.7s-.32.689-.699.689c-.391,0-.7-.31-.7-.689ZM518.688,290.487h1.13v5.007h-1.13v-5.007Z"/>
    <path d="M520.988,292.995c0-1.449,1.1-2.589,2.528-2.589.78,0,1.499.31,1.999.85l-.699.729c-.35-.39-.779-.589-1.26-.589-.81,0-1.439.7-1.439,1.599,0,.909.63,1.599,1.439,1.599.48,0,.91-.2,1.26-.58l.699.719c-.5.54-1.219.85-1.999.85-1.429,0-2.528-1.129-2.528-2.588Z"/>
  </g>
  <g>
    <polyline class="uuid-3cd1b48d-d2c9-4710-b57c-81a0d76eb5e3" points="297.638 112.786 297.638 137.194 103.357 137.194 103.357 150.649"/>
    <polygon points="99.617 149.555 103.357 156.031 107.096 149.555 99.617 149.555"/>
  </g>
  <g>
    <polyline class="uuid-3cd1b48d-d2c9-4710-b57c-81a0d76eb5e3" points="297.638 112.786 297.638 136.194 297.638 134.194 297.638 150.649"/>
    <polygon points="293.898 149.555 297.638 156.031 301.377 149.555 293.898 149.555"/>
  </g>
  <g>
    <polyline class="uuid-3cd1b48d-d2c9-4710-b57c-81a0d76eb5e3" points="297.638 193.144 297.638 205.903 297.638 205.903 297.638 213.537"/>
    <polygon points="293.898 212.442 297.638 218.919 301.377 212.442 293.898 212.442"/>
  </g>
  <g>
    <polyline class="uuid-3cd1b48d-d2c9-4710-b57c-81a0d76eb5e3" points="297.638 53.194 297.638 64.799 297.638 64.799 297.638 71.254"/>
    <polygon points="293.898 70.16 297.638 76.636 301.377 70.16 293.898 70.16"/>
  </g>
  <g>
    <polyline class="uuid-3cd1b48d-d2c9-4710-b57c-81a0d76eb5e3" points="103.357 193.144 103.357 205.903 103.356 205.903 103.356 213.537"/>
    <polygon points="99.617 212.442 103.356 218.919 107.096 212.442 99.617 212.442"/>
  </g>
  <g>
    <polyline class="uuid-3cd1b48d-d2c9-4710-b57c-81a0d76eb5e3" points="491.919 193.144 491.919 205.903 491.919 205.903 491.919 213.537"/>
    <polygon points="488.179 212.442 491.919 218.919 495.659 212.442 488.179 212.442"/>
  </g>
  <g>
    <polyline class="uuid-3cd1b48d-d2c9-4710-b57c-81a0d76eb5e3" points="297.638 256.031 297.638 268.791 297.638 268.791 297.638 276.424"/>
    <polygon points="293.898 275.33 297.638 281.806 301.377 275.33 293.898 275.33"/>
  </g>
  <g>
    <polyline class="uuid-3cd1b48d-d2c9-4710-b57c-81a0d76eb5e3" points="103.357 256.031 103.357 268.791 103.356 268.791 103.356 276.424"/>
    <polygon points="99.617 275.33 103.356 281.806 107.096 275.33 99.617 275.33"/>
  </g>
  <g>
    <polyline class="uuid-3cd1b48d-d2c9-4710-b57c-81a0d76eb5e3" points="491.919 256.031 491.919 268.791 491.919 268.791 491.919 276.424"/>
    <polygon points="488.179 275.33 491.919 281.806 495.659 275.33 488.179 275.33"/>
  </g>
  <g>
    <polyline class="uuid-3cd1b48d-d2c9-4710-b57c-81a0d76eb5e3" points="297.638 112.786 297.638 137.194 491.919 137.194 491.919 150.649"/>
    <polygon points="488.179 149.555 491.919 156.031 495.659 149.555 488.179 149.555"/>
  </g>
  <rect class="uuid-33269586-b013-40e2-9354-51c92a2fd8ed" x="290.708" y="119.071" width="14.232" height="11.61"/>
  <g>
    <path d="M258.707,123.912l-1.809-2.429h1.33l1.169,1.649,1.169-1.649h1.27l-1.829,2.458,1.909,2.549h-1.319l-1.259-1.749-1.259,1.749h-1.259l1.889-2.579Z"/>
    <path d="M262.248,123.172h3.488v.959h-3.488v-.959Z"/>
    <path d="M266.968,124.782v-3.298h1.139v2.968c0,.74.43,1.209,1.1,1.209.45,0,.83-.2,1.089-.6v-3.578h1.129v5.007h-1.129v-.81c-.38.59-.919.89-1.589.89-1.02,0-1.739-.74-1.739-1.789Z"/>
    <path d="M272.378,125.911l.53-.75c.66.41,1.099.569,1.609.569.6,0,1.009-.28,1.009-.68,0-.31-.209-.47-.699-.569l-.88-.15c-.979-.18-1.449-.63-1.449-1.379,0-.939.77-1.549,1.939-1.549.7,0,1.33.2,1.969.6l-.53.75c-.51-.33-1-.48-1.509-.48-.52,0-.859.22-.859.58,0,.32.18.46.7.55l.889.17c1,.18,1.479.64,1.479,1.389,0,.919-.88,1.629-2.049,1.629-.859,0-1.619-.24-2.148-.68Z"/>
    <path d="M277.438,123.992c0-1.469,1.06-2.589,2.438-2.589,1.37,0,2.369,1.089,2.369,2.589v.27h-3.698c.11.81.72,1.399,1.499,1.399.47,0,.91-.18,1.189-.47l.74.669c-.61.51-1.219.73-1.979.73-1.439,0-2.559-1.129-2.559-2.599ZM281.175,123.562c-.12-.73-.64-1.239-1.309-1.239-.68,0-1.179.49-1.309,1.239h2.618Z"/>
    <path d="M283.397,121.483h1.129v1.08c.28-.76.759-1.169,1.379-1.169.19.01.32.03.49.1v.989c-.18-.07-.41-.12-.62-.12-.549,0-1,.31-1.249.83v3.298h-1.129v-5.007Z"/>
    <path d="M287.037,123.172h3.488v.959h-3.488v-.959Z"/>
    <path d="M292.367,125.191v-2.809h-1v-.899h1v-1.379l1.129-.24v1.619h1.389v.899h-1.389v2.559c0,.49.19.68.7.68.22,0,.379-.03.68-.12v.949c-.29.09-.67.14-.97.14-1.009,0-1.539-.48-1.539-1.399Z"/>
    <path d="M295.787,128.609v-.979c.13.03.29.04.44.04.4,0,.64-.18.81-.569l.23-.56-1.889-5.057h1.25l1.279,3.708,1.39-3.708h1.239l-2.399,5.877c-.39.969-.85,1.319-1.789,1.319-.16,0-.36-.02-.56-.07Z"/>
    <path d="M301.357,121.483h1.109v.709c.359-.47.919-.75,1.559-.75,1.27,0,2.259,1.129,2.259,2.549,0,1.429-1.02,2.548-2.328,2.548-.59,0-1.109-.22-1.47-.64v2.679h-1.129v-7.096ZM305.175,123.992c0-.91-.64-1.599-1.489-1.599-.499,0-.909.2-1.199.56v2.089c.29.35.72.56,1.199.56.859,0,1.489-.689,1.489-1.609Z"/>
    <path d="M307.237,123.992c0-1.469,1.06-2.589,2.438-2.589,1.37,0,2.369,1.089,2.369,2.589v.27h-3.698c.11.81.72,1.399,1.499,1.399.47,0,.91-.18,1.189-.47l.74.669c-.61.51-1.22.73-1.979.73-1.438,0-2.559-1.129-2.559-2.599ZM310.976,123.562c-.12-.73-.64-1.239-1.31-1.239-.68,0-1.179.49-1.309,1.239h2.618Z"/>
    <path d="M313.048,122.113c0-.4.31-.73.699-.73s.699.33.699.73-.31.719-.699.719-.699-.32-.699-.719ZM313.048,125.861c0-.399.31-.729.699-.729s.699.33.699.729-.31.72-.699.72-.699-.32-.699-.72Z"/>
    <path d="M317.947,119.354l1.129-.19v2.989c.35-.44.909-.71,1.539-.71,1.27,0,2.259,1.129,2.259,2.549,0,1.429-1.02,2.548-2.328,2.548-.59,0-1.109-.24-1.489-.689v.64h-1.109v-7.136ZM321.765,123.992c0-.91-.64-1.599-1.489-1.599-.499,0-.909.2-1.199.56v2.089c.29.35.72.56,1.199.56.859,0,1.489-.689,1.489-1.609Z"/>
    <path d="M323.827,123.992c0-1.469,1.06-2.589,2.438-2.589,1.37,0,2.369,1.089,2.369,2.589v.27h-3.698c.11.81.72,1.399,1.499,1.399.47,0,.91-.18,1.189-.47l.74.669c-.61.51-1.22.73-1.979.73-1.438,0-2.559-1.129-2.559-2.599ZM327.565,123.562c-.12-.73-.64-1.239-1.31-1.239-.68,0-1.179.49-1.309,1.239h2.618Z"/>
    <path d="M330.257,125.191v-2.809h-1v-.899h1v-1.379l1.129-.24v1.619h1.39v.899h-1.39v2.559c0,.49.19.68.7.68.22,0,.379-.03.68-.12v.949c-.29.09-.67.14-.97.14-1.01,0-1.539-.48-1.539-1.399Z"/>
    <path d="M333.518,125.051c0-.899.739-1.469,1.919-1.469.47,0,.909.1,1.349.32v-.56c0-.66-.38-1-1.149-1-.42,0-.879.12-1.459.39l-.399-.82c.749-.34,1.409-.51,2.078-.51,1.31,0,2.049.66,2.049,1.819v3.268h-1.119v-.52c-.43.419-.909.609-1.489.609-1.049,0-1.778-.629-1.778-1.529ZM335.606,125.781c.449,0,.839-.13,1.179-.42v-.81c-.359-.17-.72-.24-1.149-.24-.649,0-1.06.27-1.06.72,0,.459.4.75,1.03.75Z"/>
  </g>
  <g id="uuid-551eb4ad-4a15-49a0-bc84-57c285c9015c" data-name="zcq3ef">
    <polygon class="uuid-1bc72e12-8d31-4330-be83-8d2e9d73a263" points="65.914 305.495 70.078 305.488 71.294 301.684 71.418 301.566 72.702 305.473 76.826 305.495 76.826 305.592 73.534 308.002 74.74 311.897 71.373 309.567 68.024 311.897 69.259 307.972 65.914 305.543 65.914 305.495"/>
  </g>
  <g id="uuid-b2b43ae9-fb36-4420-8502-e2ff37424221" data-name="zcq3ef">
    <polygon points="257.496 305.495 261.66 305.488 262.876 301.684 263 301.566 264.284 305.473 268.408 305.495 268.408 305.592 265.117 308.002 266.323 311.897 262.956 309.567 259.606 311.897 260.841 307.972 257.496 305.543 257.496 305.495"/>
  </g>
  <g id="uuid-cd3f05e2-b4b9-450f-8046-0585f459d673" data-name="zcq3ef">
    <polygon class="uuid-02a222c9-2dfd-4389-997e-75e55e40b842" points="456.6 305.495 460.764 305.488 461.979 301.684 462.104 301.566 463.387 305.473 467.512 305.495 467.512 305.592 464.22 308.002 465.426 311.897 462.059 309.567 458.71 311.897 459.945 307.972 456.6 305.543 456.6 305.495"/>
  </g>
</svg>