<?xml version="1.0" encoding="UTF-8"?>
<svg id="uuid-6616c656-642a-4b72-b447-a219fc5054fc" data-name="Layer 1" xmlns="http://www.w3.org/2000/svg" width="595.276" height="305.117" viewBox="0 0 595.276 305.117">
  <defs>
    <style>
      .uuid-f9c68ad1-35f8-4301-bd11-8decf65528a4 {
        fill: #3f9c35;
      }

      .uuid-8c764dcc-c878-47eb-8038-cc7149fb0000 {
        stroke: #faaa4f;
      }

      .uuid-8c764dcc-c878-47eb-8038-cc7149fb0000, .uuid-21f888f4-801b-4f89-ba17-e6b4ae26ee81, .uuid-db58f31d-e003-4e99-ae97-1cf563b1fabb, .uuid-32703d2b-2c7b-4240-ba38-57292189c238 {
        fill: #fff;
      }

      .uuid-8c764dcc-c878-47eb-8038-cc7149fb0000, .uuid-db58f31d-e003-4e99-ae97-1cf563b1fabb, .uuid-db93e77c-d8ab-4244-8be9-db7b2155f328, .uuid-32703d2b-2c7b-4240-ba38-57292189c238 {
        stroke-miterlimit: 10;
      }

      .uuid-79914f96-004b-4237-96d8-628d8475b372 {
        fill: #be0000;
      }

      .uuid-c90c9a39-349f-4b75-81d7-832ceb3df6b8 {
        fill: #06c;
      }

      .uuid-db58f31d-e003-4e99-ae97-1cf563b1fabb {
        stroke: #f56d6d;
      }

      .uuid-db93e77c-d8ab-4244-8be9-db7b2155f328 {
        fill: none;
        stroke: #000;
      }

      .uuid-32703d2b-2c7b-4240-ba38-57292189c238 {
        stroke: #3f9c35;
      }
    </style>
  </defs>
  <rect class="uuid-21f888f4-801b-4f89-ba17-e6b4ae26ee81" width="595.276" height="305.117"/>
  <g>
    <line class="uuid-db93e77c-d8ab-4244-8be9-db7b2155f328" x1="105.726" y1="63.556" x2="105.726" y2="109.044"/>
    <polygon points="101.986 107.95 105.726 114.427 109.466 107.95 101.986 107.95"/>
  </g>
  <g>
    <line class="uuid-db93e77c-d8ab-4244-8be9-db7b2155f328" x1="297.638" y1="63.556" x2="297.638" y2="109.044"/>
    <polygon points="293.898 107.95 297.638 114.427 301.378 107.95 293.898 107.95"/>
  </g>
  <g>
    <line class="uuid-db93e77c-d8ab-4244-8be9-db7b2155f328" x1="489.55" y1="63.556" x2="489.55" y2="109.044"/>
    <polygon points="485.81 107.95 489.55 114.427 493.289 107.95 485.81 107.95"/>
  </g>
  <rect class="uuid-21f888f4-801b-4f89-ba17-e6b4ae26ee81" x="95.249" y="79.571" width="412.145" height="13.878"/>
  <rect class="uuid-c90c9a39-349f-4b75-81d7-832ceb3df6b8" x="24.443" y="25.339" width="546.39" height="38.216"/>
  <rect class="uuid-8c764dcc-c878-47eb-8038-cc7149fb0000" x="24.443" y="114.427" width="162.566" height="166.26"/>
  <rect class="uuid-32703d2b-2c7b-4240-ba38-57292189c238" x="216.355" y="114.427" width="162.566" height="166.26"/>
  <rect class="uuid-db58f31d-e003-4e99-ae97-1cf563b1fabb" x="408.267" y="114.427" width="162.566" height="166.26"/>
  <g>
    <path class="uuid-21f888f4-801b-4f89-ba17-e6b4ae26ee81" d="M189.08,40.221h1.22l1.039,5.127,1.5-5.127h1.139l1.499,5.117,1.04-5.117h1.179l-1.529,6.996h-1.25l-1.529-5.287-1.529,5.287h-1.25l-1.529-6.996Z"/>
    <path class="uuid-21f888f4-801b-4f89-ba17-e6b4ae26ee81" d="M198.77,40.051l1.129-.2v3.178c.38-.59.929-.9,1.579-.9,1.029,0,1.749.73,1.749,1.789v3.298h-1.14v-2.979c0-.729-.43-1.199-1.099-1.199-.46,0-.83.21-1.089.61v3.568h-1.129v-7.166Z"/>
    <path class="uuid-21f888f4-801b-4f89-ba17-e6b4ae26ee81" d="M204.33,45.778c0-.9.739-1.469,1.919-1.469.47,0,.909.1,1.349.32v-.56c0-.66-.38-1-1.149-1-.42,0-.879.12-1.459.39l-.4-.82c.75-.34,1.409-.51,2.079-.51,1.31,0,2.049.66,2.049,1.819v3.268h-1.119v-.52c-.43.419-.91.609-1.489.609-1.049,0-1.779-.629-1.779-1.529ZM206.418,46.508c.45,0,.839-.13,1.179-.42v-.81c-.36-.17-.72-.24-1.149-.24-.649,0-1.06.27-1.06.72,0,.459.4.75,1.03.75Z"/>
    <path class="uuid-21f888f4-801b-4f89-ba17-e6b4ae26ee81" d="M210.559,45.918v-2.809h-1v-.899h1v-1.379l1.129-.24v1.619h1.389v.899h-1.389v2.559c0,.49.19.68.7.68.22,0,.379-.03.68-.12v.949c-.29.09-.67.14-.97.14-1.009,0-1.539-.48-1.539-1.399Z"/>
    <path class="uuid-21f888f4-801b-4f89-ba17-e6b4ae26ee81" d="M216.949,45.918v-2.809h-1v-.899h1v-1.379l1.129-.24v1.619h1.389v.899h-1.389v2.559c0,.49.19.68.7.68.22,0,.379-.03.68-.12v.949c-.29.09-.67.14-.97.14-1.009,0-1.539-.48-1.539-1.399Z"/>
    <path class="uuid-21f888f4-801b-4f89-ba17-e6b4ae26ee81" d="M220.369,49.336v-.979c.13.03.29.04.44.04.4,0,.64-.18.81-.569l.23-.56-1.889-5.057h1.25l1.279,3.708,1.389-3.708h1.239l-2.398,5.877c-.39.969-.85,1.319-1.789,1.319-.16,0-.36-.02-.56-.07Z"/>
    <path class="uuid-21f888f4-801b-4f89-ba17-e6b4ae26ee81" d="M225.939,42.21h1.109v.709c.36-.47.919-.75,1.559-.75,1.269,0,2.259,1.129,2.259,2.549,0,1.429-1.02,2.548-2.329,2.548-.59,0-1.109-.22-1.469-.64v2.679h-1.129v-7.096ZM229.757,44.719c0-.91-.64-1.599-1.489-1.599-.5,0-.91.2-1.199.56v2.089c.29.35.72.56,1.199.56.859,0,1.489-.689,1.489-1.609Z"/>
    <path class="uuid-21f888f4-801b-4f89-ba17-e6b4ae26ee81" d="M231.819,44.719c0-1.469,1.06-2.589,2.438-2.589,1.37,0,2.369,1.09,2.369,2.589v.27h-3.698c.11.81.72,1.399,1.499,1.399.47,0,.91-.18,1.189-.47l.74.669c-.61.51-1.219.73-1.979.73-1.439,0-2.559-1.129-2.559-2.599ZM235.557,44.289c-.12-.73-.64-1.239-1.309-1.239-.68,0-1.179.489-1.309,1.239h2.618Z"/>
    <path class="uuid-21f888f4-801b-4f89-ba17-e6b4ae26ee81" d="M239.798,44.719c0-1.479,1.08-2.589,2.519-2.589,1.429,0,2.509,1.109,2.509,2.589s-1.08,2.588-2.509,2.588c-1.439,0-2.519-1.109-2.519-2.588ZM243.716,44.719c0-.93-.59-1.629-1.399-1.629-.819,0-1.409.7-1.409,1.629,0,.939.59,1.629,1.409,1.629.81,0,1.399-.689,1.399-1.629Z"/>
    <path class="uuid-21f888f4-801b-4f89-ba17-e6b4ae26ee81" d="M246.448,43.11h-1.08v-.899h1.08v-.859c0-1.089.609-1.679,1.729-1.679.28,0,.56.03.75.09v.959c-.25-.05-.4-.07-.6-.07-.52,0-.75.23-.75.72v.839h1.349v.899h-1.349v4.108h-1.129v-4.108Z"/>
    <path class="uuid-21f888f4-801b-4f89-ba17-e6b4ae26ee81" d="M252.748,45.918v-2.809h-1v-.899h1v-1.379l1.129-.24v1.619h1.389v.899h-1.389v2.559c0,.49.19.68.7.68.22,0,.379-.03.68-.12v.949c-.29.09-.67.14-.97.14-1.009,0-1.539-.48-1.539-1.399Z"/>
    <path class="uuid-21f888f4-801b-4f89-ba17-e6b4ae26ee81" d="M256.268,42.21h1.129v1.08c.28-.76.759-1.169,1.379-1.169.19.01.32.03.49.1v.989c-.18-.07-.41-.12-.62-.12-.549,0-1,.31-1.249.83v3.298h-1.129v-5.007Z"/>
    <path class="uuid-21f888f4-801b-4f89-ba17-e6b4ae26ee81" d="M259.788,45.778c0-.9.739-1.469,1.919-1.469.47,0,.909.1,1.349.32v-.56c0-.66-.38-1-1.149-1-.42,0-.879.12-1.459.39l-.4-.82c.75-.34,1.409-.51,2.079-.51,1.31,0,2.049.66,2.049,1.819v3.268h-1.119v-.52c-.43.419-.91.609-1.489.609-1.049,0-1.779-.629-1.779-1.529ZM261.877,46.508c.45,0,.839-.13,1.179-.42v-.81c-.36-.17-.72-.24-1.149-.24-.649,0-1.06.27-1.06.72,0,.459.4.75,1.03.75Z"/>
    <path class="uuid-21f888f4-801b-4f89-ba17-e6b4ae26ee81" d="M266.078,43.11h-1.08v-.899h1.08v-.859c0-1.089.609-1.679,1.729-1.679.28,0,.56.03.75.09v.959c-.25-.05-.4-.07-.6-.07-.52,0-.75.23-.75.72v.839h1.349v.899h-1.349v4.108h-1.129v-4.108Z"/>
    <path class="uuid-21f888f4-801b-4f89-ba17-e6b4ae26ee81" d="M270.237,43.11h-1.08v-.899h1.08v-.859c0-1.089.609-1.679,1.729-1.679.28,0,.56.03.75.09v.959c-.25-.05-.4-.07-.6-.07-.52,0-.75.23-.75.72v.839h1.349v.899h-1.349v4.108h-1.129v-4.108Z"/>
    <path class="uuid-21f888f4-801b-4f89-ba17-e6b4ae26ee81" d="M273.528,40.501c0-.38.31-.7.7-.7.38,0,.7.32.7.7s-.32.689-.7.689c-.39,0-.7-.31-.7-.689ZM273.658,42.21h1.129v5.007h-1.129v-5.007Z"/>
    <path class="uuid-21f888f4-801b-4f89-ba17-e6b4ae26ee81" d="M275.958,44.719c0-1.449,1.1-2.589,2.529-2.589.779,0,1.499.31,1.999.85l-.699.729c-.35-.39-.78-.589-1.259-.589-.81,0-1.439.7-1.439,1.599,0,.909.63,1.599,1.439,1.599.479,0,.909-.2,1.259-.58l.699.719c-.5.54-1.219.85-1.999.85-1.429,0-2.529-1.129-2.529-2.588Z"/>
    <path class="uuid-21f888f4-801b-4f89-ba17-e6b4ae26ee81" d="M283.218,46.638l.53-.75c.659.41,1.099.569,1.609.569.6,0,1.009-.28,1.009-.679,0-.31-.209-.47-.699-.57l-.88-.15c-.979-.18-1.449-.63-1.449-1.379,0-.939.77-1.549,1.939-1.549.7,0,1.33.2,1.969.6l-.53.75c-.51-.33-1-.48-1.509-.48-.52,0-.859.22-.859.58,0,.32.18.46.699.55l.89.17c1,.18,1.479.64,1.479,1.389,0,.919-.88,1.629-2.049,1.629-.86,0-1.619-.24-2.149-.68Z"/>
    <path class="uuid-21f888f4-801b-4f89-ba17-e6b4ae26ee81" d="M288.458,40.051l1.129-.2v3.178c.38-.59.929-.9,1.579-.9,1.029,0,1.749.73,1.749,1.789v3.298h-1.14v-2.979c0-.729-.43-1.199-1.099-1.199-.46,0-.83.21-1.089.61v3.568h-1.129v-7.166Z"/>
    <path class="uuid-21f888f4-801b-4f89-ba17-e6b4ae26ee81" d="M294.047,44.719c0-1.479,1.08-2.589,2.519-2.589,1.429,0,2.509,1.109,2.509,2.589s-1.08,2.588-2.509,2.588c-1.439,0-2.519-1.109-2.519-2.588ZM297.965,44.719c0-.93-.59-1.629-1.399-1.629-.819,0-1.409.7-1.409,1.629,0,.939.59,1.629,1.409,1.629.81,0,1.399-.689,1.399-1.629Z"/>
    <path class="uuid-21f888f4-801b-4f89-ba17-e6b4ae26ee81" d="M300.207,45.508v-3.298h1.14v2.968c0,.74.43,1.209,1.1,1.209.449,0,.829-.2,1.089-.6v-3.578h1.13v5.007h-1.13v-.81c-.38.59-.919.89-1.589.89-1.02,0-1.739-.74-1.739-1.789Z"/>
    <path class="uuid-21f888f4-801b-4f89-ba17-e6b4ae26ee81" d="M306.067,40.051l1.129-.2v7.366h-1.129v-7.166Z"/>
    <path class="uuid-21f888f4-801b-4f89-ba17-e6b4ae26ee81" d="M308.357,44.719c0-1.429,1.029-2.549,2.339-2.549.569,0,1.089.23,1.459.65v-2.769l1.129-.2v7.366h-1.119v-.66c-.359.45-.919.709-1.549.709-1.27,0-2.259-1.129-2.259-2.548ZM312.155,45.768v-2.109c-.29-.34-.72-.54-1.189-.54-.859,0-1.499.68-1.499,1.599,0,.909.64,1.599,1.499,1.599.489,0,.899-.19,1.189-.55Z"/>
    <path class="uuid-21f888f4-801b-4f89-ba17-e6b4ae26ee81" d="M317.556,45.918v-2.809h-.999v-.899h.999v-1.379l1.13-.24v1.619h1.389v.899h-1.389v2.559c0,.49.189.68.699.68.22,0,.38-.03.68-.12v.949c-.29.09-.67.14-.97.14-1.009,0-1.539-.48-1.539-1.399Z"/>
    <path class="uuid-21f888f4-801b-4f89-ba17-e6b4ae26ee81" d="M321.077,40.051l1.129-.2v3.178c.38-.59.93-.9,1.579-.9,1.029,0,1.749.73,1.749,1.789v3.298h-1.14v-2.979c0-.729-.43-1.199-1.099-1.199-.46,0-.83.21-1.09.61v3.568h-1.129v-7.166Z"/>
    <path class="uuid-21f888f4-801b-4f89-ba17-e6b4ae26ee81" d="M326.667,44.719c0-1.469,1.06-2.589,2.438-2.589,1.369,0,2.369,1.09,2.369,2.589v.27h-3.698c.109.81.72,1.399,1.499,1.399.47,0,.909-.18,1.189-.47l.739.669c-.609.51-1.219.73-1.979.73-1.439,0-2.559-1.129-2.559-2.599ZM330.404,44.289c-.119-.73-.64-1.239-1.309-1.239-.68,0-1.18.489-1.31,1.239h2.618Z"/>
    <path class="uuid-21f888f4-801b-4f89-ba17-e6b4ae26ee81" d="M334.426,46.638l.53-.75c.659.41,1.099.569,1.608.569.6,0,1.01-.28,1.01-.679,0-.31-.21-.47-.699-.57l-.88-.15c-.979-.18-1.449-.63-1.449-1.379,0-.939.77-1.549,1.938-1.549.7,0,1.33.2,1.97.6l-.53.75c-.51-.33-.999-.48-1.509-.48-.52,0-.859.22-.859.58,0,.32.18.46.699.55l.89.17c1,.18,1.479.64,1.479,1.389,0,.919-.88,1.629-2.049,1.629-.86,0-1.619-.24-2.149-.68Z"/>
    <path class="uuid-21f888f4-801b-4f89-ba17-e6b4ae26ee81" d="M339.486,44.719c0-1.469,1.06-2.589,2.438-2.589,1.369,0,2.369,1.09,2.369,2.589v.27h-3.698c.11.81.72,1.399,1.499,1.399.47,0,.91-.18,1.189-.47l.739.669c-.609.51-1.219.73-1.979.73-1.439,0-2.559-1.129-2.559-2.599ZM343.224,44.289c-.12-.73-.64-1.239-1.31-1.239-.68,0-1.18.489-1.31,1.239h2.619Z"/>
    <path class="uuid-21f888f4-801b-4f89-ba17-e6b4ae26ee81" d="M345.446,42.21h1.13v1.08c.279-.76.76-1.169,1.379-1.169.19.01.32.03.49.1v.989c-.18-.07-.41-.12-.62-.12-.55,0-.999.31-1.249.83v3.298h-1.13v-5.007Z"/>
    <path class="uuid-21f888f4-801b-4f89-ba17-e6b4ae26ee81" d="M348.937,42.21h1.229l1.399,3.638,1.39-3.638h1.179l-2.059,5.007h-1.1l-2.038-5.007Z"/>
    <path class="uuid-21f888f4-801b-4f89-ba17-e6b4ae26ee81" d="M354.806,40.501c0-.38.31-.7.7-.7.379,0,.699.32.699.7s-.32.689-.699.689c-.391,0-.7-.31-.7-.689ZM354.936,42.21h1.13v5.007h-1.13v-5.007Z"/>
    <path class="uuid-21f888f4-801b-4f89-ba17-e6b4ae26ee81" d="M357.236,44.719c0-1.449,1.1-2.589,2.528-2.589.78,0,1.499.31,1.999.85l-.699.729c-.35-.39-.779-.589-1.26-.589-.81,0-1.439.7-1.439,1.599,0,.909.63,1.599,1.439,1.599.48,0,.91-.2,1.26-.58l.699.719c-.5.54-1.219.85-1.999.85-1.429,0-2.528-1.129-2.528-2.588Z"/>
    <path class="uuid-21f888f4-801b-4f89-ba17-e6b4ae26ee81" d="M362.316,44.719c0-1.469,1.06-2.589,2.438-2.589,1.369,0,2.369,1.09,2.369,2.589v.27h-3.698c.11.81.72,1.399,1.499,1.399.47,0,.91-.18,1.189-.47l.739.669c-.609.51-1.219.73-1.979.73-1.439,0-2.559-1.129-2.559-2.599ZM366.054,44.289c-.12-.73-.64-1.239-1.31-1.239-.68,0-1.18.489-1.31,1.239h2.619Z"/>
    <path class="uuid-21f888f4-801b-4f89-ba17-e6b4ae26ee81" d="M370.265,45.778c0-.9.74-1.469,1.919-1.469.47,0,.91.1,1.35.32v-.56c0-.66-.38-1-1.149-1-.42,0-.88.12-1.459.39l-.4-.82c.75-.34,1.409-.51,2.079-.51,1.31,0,2.049.66,2.049,1.819v3.268h-1.119v-.52c-.43.419-.909.609-1.489.609-1.05,0-1.779-.629-1.779-1.529ZM372.354,46.508c.45,0,.84-.13,1.18-.42v-.81c-.359-.17-.72-.24-1.149-.24-.649,0-1.06.27-1.06.72,0,.459.4.75,1.029.75Z"/>
    <path class="uuid-21f888f4-801b-4f89-ba17-e6b4ae26ee81" d="M375.795,44.719c0-1.449,1.1-2.589,2.528-2.589.78,0,1.499.31,1.999.85l-.699.729c-.35-.39-.78-.589-1.26-.589-.81,0-1.438.7-1.438,1.599,0,.909.629,1.599,1.438,1.599.479,0,.91-.2,1.26-.58l.699.719c-.5.54-1.219.85-1.999.85-1.429,0-2.528-1.129-2.528-2.588Z"/>
    <path class="uuid-21f888f4-801b-4f89-ba17-e6b4ae26ee81" d="M380.875,44.719c0-1.449,1.1-2.589,2.528-2.589.78,0,1.499.31,1.999.85l-.699.729c-.35-.39-.78-.589-1.26-.589-.81,0-1.438.7-1.438,1.599,0,.909.629,1.599,1.438,1.599.479,0,.91-.2,1.26-.58l.699.719c-.5.54-1.219.85-1.999.85-1.429,0-2.528-1.129-2.528-2.588Z"/>
    <path class="uuid-21f888f4-801b-4f89-ba17-e6b4ae26ee81" d="M385.956,44.719c0-1.469,1.06-2.589,2.438-2.589,1.369,0,2.369,1.09,2.369,2.589v.27h-3.698c.11.81.72,1.399,1.499,1.399.47,0,.91-.18,1.189-.47l.739.669c-.609.51-1.219.73-1.979.73-1.439,0-2.559-1.129-2.559-2.599ZM389.694,44.289c-.12-.73-.64-1.239-1.31-1.239-.68,0-1.18.489-1.31,1.239h2.619Z"/>
    <path class="uuid-21f888f4-801b-4f89-ba17-e6b4ae26ee81" d="M391.916,42.21h1.109v.709c.36-.47.92-.75,1.56-.75,1.27,0,2.259,1.129,2.259,2.549,0,1.429-1.02,2.548-2.329,2.548-.589,0-1.109-.22-1.469-.64v2.679h-1.13v-7.096ZM395.734,44.719c0-.91-.64-1.599-1.489-1.599-.5,0-.909.2-1.199.56v2.089c.29.35.72.56,1.199.56.859,0,1.489-.689,1.489-1.609Z"/>
    <path class="uuid-21f888f4-801b-4f89-ba17-e6b4ae26ee81" d="M398.416,45.918v-2.809h-1v-.899h1v-1.379l1.129-.24v1.619h1.39v.899h-1.39v2.559c0,.49.19.68.7.68.22,0,.38-.03.68-.12v.949c-.29.09-.67.14-.97.14-1.01,0-1.539-.48-1.539-1.399Z"/>
    <path class="uuid-21f888f4-801b-4f89-ba17-e6b4ae26ee81" d="M403.964,43.299l.459-.35c.45-.35.63-.62.63-.959,0-.51-.489-.899-1.149-.899-.59,0-1.109.32-1.429.879l-.87-.43c.46-.879,1.33-1.409,2.349-1.409,1.229,0,2.169.779,2.169,1.809,0,.709-.279,1.139-1.159,1.769l-.279.21c-.42.31-.57.61-.54,1.129h-.93c-.05-.839.14-1.289.75-1.749ZM402.995,46.608c0-.39.31-.699.699-.699.38,0,.68.31.68.699s-.3.7-.68.7c-.39,0-.699-.31-.699-.7Z"/>
  </g>
  <g>
    <path d="M36.475,126.472h3.418c1.489,0,2.469.969,2.469,2.309,0,1.27-.979,2.249-2.469,2.249h-1.699v2.438h-1.719v-6.996ZM39.583,129.66c.7,0,1.04-.379,1.04-.889,0-.5-.34-.88-1.029-.88h-1.399v1.769h1.389Z"/>
    <path d="M43.575,126.472h5.287v1.439h-3.568v1.33h2.519v1.399h-2.519v1.39h3.608v1.439h-5.327v-6.996Z"/>
    <path d="M50.254,126.472h3.398c1.439,0,2.469.929,2.469,2.229,0,.89-.51,1.609-1.299,1.959l1.469,2.809h-1.919l-1.27-2.568h-1.129v2.568h-1.719v-6.996ZM53.492,129.55c.53,0,.89-.33.89-.83s-.36-.83-.89-.83h-1.519v1.659h1.519Z"/>
    <path d="M57.284,126.472h2.159l1.689,3.358,1.679-3.358h2.159v6.996h-1.619v-4.748l-2.239,4.248-2.249-4.288v4.788h-1.579v-6.996Z"/>
    <path d="M66.434,126.472h1.719v6.996h-1.719v-6.996Z"/>
    <path d="M69.024,132.518l.879-1.269c.97.68,1.579.93,2.269.93.739,0,1.189-.3,1.189-.74,0-.41-.24-.61-.919-.729l-1.489-.26c-1.109-.189-1.719-.889-1.719-1.879,0-1.359,1.039-2.208,2.778-2.208,1.08,0,2.149.35,2.869.919l-.87,1.249c-.68-.52-1.349-.77-2.089-.77-.68,0-1.069.28-1.069.66,0,.36.229.54.79.64l1.399.24c1.31.22,1.999.909,1.999,1.979,0,1.37-1.159,2.299-2.988,2.299-1.109,0-2.099-.37-3.028-1.06Z"/>
    <path d="M75.674,132.518l.879-1.269c.97.68,1.579.93,2.269.93.739,0,1.189-.3,1.189-.74,0-.41-.24-.61-.919-.729l-1.489-.26c-1.109-.189-1.719-.889-1.719-1.879,0-1.359,1.04-2.208,2.778-2.208,1.08,0,2.149.35,2.869.919l-.87,1.249c-.68-.52-1.349-.77-2.089-.77-.68,0-1.069.28-1.069.66,0,.36.229.54.79.64l1.399.24c1.31.22,1.999.909,1.999,1.979,0,1.37-1.159,2.299-2.988,2.299-1.109,0-2.099-.37-3.028-1.06Z"/>
    <path d="M82.714,126.472h1.719v6.996h-1.719v-6.996Z"/>
    <path d="M85.134,126.472h1.859l1.849,5.207,1.879-5.207h1.789l-2.729,6.996h-1.959l-2.688-6.996Z"/>
    <path d="M93.314,126.472h5.287v1.439h-3.568v1.33h2.519v1.399h-2.519v1.39h3.608v1.439h-5.327v-6.996Z"/>
    <path d="M102.144,126.472h2.159l1.689,3.358,1.679-3.358h2.159v6.996h-1.619v-4.748l-2.239,4.248-2.249-4.288v4.788h-1.579v-6.996Z"/>
    <path d="M111.014,130.9c0-1.52,1.159-2.669,2.688-2.669s2.688,1.149,2.688,2.669-1.159,2.668-2.688,2.668-2.688-1.149-2.688-2.668ZM114.812,130.9c0-.77-.46-1.319-1.109-1.319s-1.109.549-1.109,1.319.459,1.319,1.109,1.319,1.109-.549,1.109-1.319Z"/>
    <path d="M117.194,130.88c0-1.449,1.059-2.599,2.398-2.599.54,0,1.03.22,1.379.62v-2.549l1.619-.25v7.366h-1.599v-.669c-.34.43-.91.699-1.519.699-1.27,0-2.279-1.169-2.279-2.618ZM120.972,131.749v-1.739c-.25-.26-.59-.4-.959-.4-.709,0-1.229.54-1.229,1.279,0,.729.53,1.27,1.229,1.27.39,0,.709-.14.959-.41Z"/>
    <path d="M123.624,130.9c0-1.509,1.119-2.669,2.599-2.669,1.489,0,2.539,1.129,2.539,2.729v.35h-3.548c.15.58.62.969,1.209.969.43,0,.79-.15,1.02-.43l1.069.89c-.669.589-1.299.83-2.169.83-1.519,0-2.718-1.169-2.718-2.668ZM127.262,130.39c-.14-.55-.529-.9-1.049-.9-.51,0-.87.33-1,.9h2.049Z"/>
  </g>
  <g>
    <path d="M48.88,145.513h1.129v.79c.37-.57.87-.87,1.479-.87.689,0,1.219.37,1.479.959.39-.629.949-.959,1.659-.959.97,0,1.639.75,1.639,1.809v3.278h-1.129v-3.028c0-.7-.39-1.149-1.009-1.149-.41,0-.75.19-1,.6.01.1.02.2.02.3v3.278h-1.139v-3.028c0-.7-.39-1.149-1.01-1.149-.41,0-.74.19-.989.58v3.598h-1.129v-5.007Z"/>
    <path d="M59.029,144.564h-2.338v-1.04h5.876v1.04h-2.338v5.956h-1.2v-5.956Z"/>
    <path d="M63.66,143.525h1.2v5.957h3.728v1.039h-4.927v-6.996Z"/>
    <path d="M69.32,149.501l.65-.879c.899.739,1.549,1.02,2.358,1.02.919,0,1.559-.47,1.559-1.12,0-.569-.339-.839-1.269-.999l-1.29-.22c-1.209-.22-1.799-.819-1.799-1.779,0-1.27,1.009-2.109,2.579-2.109,1.049,0,2.009.31,2.809.899l-.61.899c-.7-.53-1.449-.81-2.239-.81-.839,0-1.399.43-1.399,1,0,.51.32.77,1.079.89l1.25.21c1.409.25,2.069.869,2.069,1.928,0,1.29-1.14,2.199-2.809,2.199-1.099,0-2.049-.38-2.938-1.13Z"/>
    <path d="M79.02,149.221v-2.809h-1v-.899h1v-1.379l1.129-.24v1.619h1.389v.899h-1.389v2.559c0,.489.19.68.7.68.22,0,.379-.03.68-.12v.949c-.29.09-.67.141-.97.141-1.009,0-1.539-.48-1.539-1.399Z"/>
    <path d="M82.54,145.513h1.129v1.08c.28-.76.759-1.169,1.379-1.169.19.01.32.03.49.1v.989c-.18-.07-.41-.12-.62-.12-.549,0-.999.31-1.249.83v3.298h-1.129v-5.007Z"/>
    <path d="M86.06,149.082c0-.9.739-1.469,1.919-1.469.47,0,.909.1,1.349.32v-.56c0-.66-.38-1-1.149-1-.42,0-.879.12-1.459.39l-.4-.82c.75-.34,1.409-.51,2.079-.51,1.31,0,2.049.66,2.049,1.819v3.268h-1.119v-.52c-.43.42-.91.609-1.489.609-1.049,0-1.779-.629-1.779-1.528ZM88.149,149.811c.45,0,.839-.13,1.179-.42v-.81c-.36-.17-.72-.24-1.149-.24-.649,0-1.06.27-1.06.72,0,.46.4.75,1.03.75Z"/>
    <path d="M92.35,146.413h-1.08v-.899h1.08v-.859c0-1.089.609-1.679,1.729-1.679.28,0,.56.03.75.09v.959c-.25-.05-.4-.07-.6-.07-.52,0-.75.23-.75.72v.839h1.349v.899h-1.349v4.107h-1.129v-4.107Z"/>
    <path d="M96.509,146.413h-1.08v-.899h1.08v-.859c0-1.089.609-1.679,1.729-1.679.28,0,.56.03.75.09v.959c-.25-.05-.4-.07-.6-.07-.52,0-.75.23-.75.72v.839h1.349v.899h-1.349v4.107h-1.129v-4.107Z"/>
    <path d="M99.799,143.804c0-.38.31-.7.7-.7.38,0,.7.32.7.7s-.32.689-.7.689c-.39,0-.7-.31-.7-.689ZM99.929,145.513h1.129v5.007h-1.129v-5.007Z"/>
    <path d="M102.23,148.022c0-1.449,1.1-2.589,2.529-2.589.779,0,1.499.31,1.999.85l-.699.729c-.35-.39-.78-.589-1.259-.589-.81,0-1.439.7-1.439,1.599,0,.909.63,1.599,1.439,1.599.479,0,.909-.2,1.259-.579l.699.719c-.5.54-1.219.85-1.999.85-1.429,0-2.529-1.129-2.529-2.588Z"/>
  </g>
  <g>
    <path d="M49.02,161.695h3.128c1.419,0,2.339.89,2.339,2.179,0,1.26-.919,2.149-2.339,2.149h-1.929v2.668h-1.2v-6.996ZM51.959,165.044c.85,0,1.319-.47,1.319-1.18,0-.689-.47-1.159-1.309-1.159h-1.749v2.339h1.739Z"/>
    <path d="M55.67,161.525l1.129-.199v7.365h-1.129v-7.166Z"/>
    <path d="M57.931,167.253c0-.9.739-1.47,1.919-1.47.47,0,.909.1,1.349.32v-.561c0-.659-.38-.999-1.149-.999-.42,0-.879.12-1.459.39l-.4-.819c.75-.34,1.409-.51,2.079-.51,1.31,0,2.049.659,2.049,1.819v3.268h-1.119v-.52c-.43.42-.91.609-1.489.609-1.049,0-1.779-.629-1.779-1.528ZM60.02,167.982c.45,0,.839-.13,1.179-.42v-.81c-.36-.17-.72-.24-1.149-.24-.649,0-1.06.27-1.06.72,0,.46.4.75,1.03.75Z"/>
    <path d="M63.55,161.975c0-.38.31-.7.7-.7.38,0,.7.32.7.7s-.32.689-.7.689c-.39,0-.7-.31-.7-.689ZM63.68,163.684h1.129v5.007h-1.129v-5.007Z"/>
    <path d="M66.21,163.684h1.129v.819c.38-.59.929-.899,1.579-.899,1.029,0,1.749.729,1.749,1.789v3.298h-1.14v-2.979c0-.729-.43-1.199-1.099-1.199-.46,0-.83.21-1.089.61v3.567h-1.129v-5.007Z"/>
    <path d="M71.89,165.373h3.488v.96h-3.488v-.96Z"/>
    <path d="M77.22,167.392v-2.809h-1v-.899h1v-1.38l1.129-.239v1.619h1.389v.899h-1.389v2.559c0,.489.19.68.7.68.22,0,.379-.03.68-.12v.949c-.29.09-.67.141-.97.141-1.009,0-1.539-.48-1.539-1.399Z"/>
    <path d="M80.43,166.193c0-1.47,1.06-2.589,2.438-2.589,1.37,0,2.369,1.09,2.369,2.589v.27h-3.698c.11.81.72,1.399,1.499,1.399.47,0,.91-.18,1.189-.47l.74.669c-.61.51-1.219.73-1.979.73-1.439,0-2.559-1.13-2.559-2.599ZM84.167,165.763c-.12-.73-.64-1.239-1.309-1.239-.68,0-1.179.489-1.309,1.239h2.618Z"/>
    <path d="M87.379,166.113l-1.809-2.429h1.33l1.169,1.649,1.169-1.649h1.27l-1.829,2.458,1.909,2.549h-1.319l-1.259-1.749-1.259,1.749h-1.259l1.889-2.578Z"/>
    <path d="M91.93,167.392v-2.809h-1v-.899h1v-1.38l1.129-.239v1.619h1.389v.899h-1.389v2.559c0,.489.19.68.7.68.22,0,.379-.03.68-.12v.949c-.29.09-.67.141-.97.141-1.009,0-1.539-.48-1.539-1.399Z"/>
    <path d="M98.319,167.392v-2.809h-1v-.899h1v-1.38l1.129-.239v1.619h1.389v.899h-1.389v2.559c0,.489.19.68.7.68.22,0,.379-.03.68-.12v.949c-.29.09-.67.141-.97.141-1.009,0-1.539-.48-1.539-1.399Z"/>
    <path d="M101.839,163.684h1.129v1.079c.28-.76.759-1.169,1.379-1.169.19.01.32.029.49.1v.989c-.18-.069-.41-.12-.62-.12-.549,0-1,.311-1.249.83v3.298h-1.129v-5.007Z"/>
    <path d="M105.36,167.253c0-.9.739-1.47,1.919-1.47.47,0,.909.1,1.349.32v-.561c0-.659-.38-.999-1.149-.999-.42,0-.879.12-1.459.39l-.4-.819c.75-.34,1.409-.51,2.079-.51,1.31,0,2.049.659,2.049,1.819v3.268h-1.119v-.52c-.43.42-.91.609-1.489.609-1.049,0-1.779-.629-1.779-1.528ZM107.449,167.982c.45,0,.839-.13,1.179-.42v-.81c-.36-.17-.72-.24-1.149-.24-.649,0-1.06.27-1.06.72,0,.46.4.75,1.03.75Z"/>
    <path d="M111.649,164.584h-1.08v-.899h1.08v-.859c0-1.09.609-1.68,1.729-1.68.28,0,.56.03.75.09v.96c-.25-.05-.4-.07-.6-.07-.52,0-.75.23-.75.72v.84h1.349v.899h-1.349v4.107h-1.129v-4.107Z"/>
    <path d="M115.809,164.584h-1.08v-.899h1.08v-.859c0-1.09.609-1.68,1.729-1.68.28,0,.56.03.75.09v.96c-.25-.05-.4-.07-.6-.07-.52,0-.75.23-.75.72v.84h1.349v.899h-1.349v4.107h-1.129v-4.107Z"/>
    <path d="M119.099,161.975c0-.38.31-.7.7-.7.38,0,.7.32.7.7s-.32.689-.7.689c-.39,0-.7-.31-.7-.689ZM119.229,163.684h1.129v5.007h-1.129v-5.007Z"/>
    <path d="M121.529,166.193c0-1.449,1.1-2.589,2.529-2.589.779,0,1.499.31,1.999.85l-.699.729c-.35-.39-.78-.59-1.259-.59-.81,0-1.439.7-1.439,1.6,0,.909.63,1.599,1.439,1.599.479,0,.909-.2,1.259-.579l.699.719c-.5.54-1.219.85-1.999.85-1.429,0-2.529-1.129-2.529-2.588Z"/>
  </g>
  <g>
    <path d="M38.698,191.833v-3.957h1.719v3.957c0,.97.54,1.6,1.379,1.6s1.379-.63,1.379-1.6v-3.957h1.719v3.957c0,1.919-1.209,3.139-3.099,3.139s-3.098-1.22-3.098-3.139Z"/>
    <path d="M45.798,194.341l.709-1.079c.74.39,1.16.52,1.659.52.459,0,.74-.16.74-.42,0-.199-.15-.31-.48-.369l-.989-.181c-1-.189-1.52-.699-1.52-1.499,0-1.049.81-1.679,2.159-1.679.719,0,1.429.2,2.099.59l-.74,1.029c-.52-.3-.999-.439-1.479-.439-.39,0-.62.13-.62.35,0,.21.13.3.53.369l.969.181c1.02.189,1.549.709,1.549,1.489,0,1.009-.95,1.769-2.219,1.769-.939,0-1.769-.22-2.369-.63Z"/>
    <path d="M51.148,192.303c0-1.51,1.119-2.669,2.599-2.669,1.489,0,2.539,1.129,2.539,2.729v.35h-3.548c.15.58.62.97,1.209.97.43,0,.79-.15,1.02-.43l1.069.89c-.669.589-1.299.829-2.169.829-1.519,0-2.718-1.169-2.718-2.668ZM54.786,191.794c-.14-.55-.529-.9-1.049-.9-.51,0-.87.33-1,.9h2.049Z"/>
    <path d="M58.978,189.715h1.529l.72,3.078.87-3.078h1.329l.859,3.068.71-3.068h1.489l-1.37,5.157h-1.539l-.839-3.039-.82,3.039h-1.559l-1.379-5.157Z"/>
    <path d="M67.278,187.756l1.619-.25v3.048c.4-.6.959-.919,1.629-.919,1,0,1.709.729,1.709,1.759v3.479h-1.619v-3.009c0-.579-.34-.959-.859-.959-.35,0-.63.14-.86.43v3.538h-1.619v-7.116Z"/>
    <path d="M73.228,192.303c0-1.51,1.119-2.669,2.599-2.669,1.489,0,2.539,1.129,2.539,2.729v.35h-3.548c.15.58.62.97,1.209.97.43,0,.79-.15,1.02-.43l1.069.89c-.669.589-1.299.829-2.169.829-1.519,0-2.718-1.169-2.718-2.668ZM76.865,191.794c-.14-.55-.529-.9-1.049-.9-.51,0-.87.33-1,.9h2.049Z"/>
    <path d="M79.378,189.715h1.619v.839c.4-.6.959-.919,1.629-.919,1,0,1.709.729,1.709,1.759v3.479h-1.619v-3.009c0-.579-.34-.959-.859-.959-.35,0-.63.14-.86.43v3.538h-1.619v-5.157Z"/>
    <path d="M85.268,190.553c0-.52.41-.949.91-.949s.909.43.909.949-.41.95-.909.95-.91-.43-.91-.95ZM85.268,194.032c0-.52.41-.949.91-.949s.909.43.909.949-.41.949-.909.949-.91-.43-.91-.949Z"/>
  </g>
  <g>
    <circle class="uuid-79914f96-004b-4237-96d8-628d8475b372" cx="235.67" cy="163.681" r="3.964"/>
    <g>
      <path class="uuid-21f888f4-801b-4f89-ba17-e6b4ae26ee81" d="M237.041,165.428c-.096,0-.192-.037-.265-.11l-2.743-2.743c-.146-.146-.146-.384,0-.53s.384-.146.53,0l2.743,2.743c.146.146.146.384,0,.53-.073.073-.169.11-.265.11Z"/>
      <path class="uuid-21f888f4-801b-4f89-ba17-e6b4ae26ee81" d="M234.299,165.428c-.096,0-.192-.037-.265-.11-.146-.146-.146-.384,0-.53l2.743-2.743c.146-.146.384-.146.53,0s.146.384,0,.53l-2.743,2.743c-.073.073-.169.11-.265.11Z"/>
    </g>
  </g>
  <g>
    <circle class="uuid-f9c68ad1-35f8-4301-bd11-8decf65528a4" cx="40.438" cy="148.52" r="3.964"/>
    <path class="uuid-21f888f4-801b-4f89-ba17-e6b4ae26ee81" d="M39.691,150.642c-.098,0-.193-.039-.263-.108l-1.257-1.238c-.147-.145-.149-.383-.004-.53.145-.147.382-.15.53-.004l.985.969,2.489-2.629c.142-.152.379-.156.53-.015.15.143.157.38.015.53l-2.752,2.907c-.069.073-.165.115-.266.117h-.007Z"/>
  </g>
  <g>
    <circle class="uuid-f9c68ad1-35f8-4301-bd11-8decf65528a4" cx="40.438" cy="163.681" r="3.964"/>
    <path class="uuid-21f888f4-801b-4f89-ba17-e6b4ae26ee81" d="M39.691,165.803c-.098,0-.193-.039-.263-.108l-1.257-1.238c-.147-.145-.149-.383-.004-.53.145-.147.382-.15.53-.004l.985.969,2.489-2.629c.142-.152.379-.156.53-.015.15.143.157.38.015.53l-2.752,2.907c-.069.073-.165.115-.266.117h-.007Z"/>
  </g>
  <g>
    <path d="M52.19,209.173h1.559l2.049,4.248,2.039-4.248h1.559v6.996h-1.129v-5.477l-2.479,4.978-2.489-5.008v5.507h-1.109v-6.996Z"/>
    <path d="M60.801,209.453c0-.38.31-.7.7-.7.38,0,.7.32.7.7s-.32.689-.7.689c-.39,0-.7-.31-.7-.689ZM60.931,211.162h1.129v5.007h-1.129v-5.007Z"/>
    <path d="M63.791,217.868l.39-.829c.589.289,1.069.419,1.569.419.84,0,1.279-.379,1.279-1.109v-.849c-.36.439-.909.699-1.539.699-1.27,0-2.259-1.13-2.259-2.549s1.029-2.528,2.339-2.528c.58,0,1.099.229,1.469.67v-.63h1.119v5.187c0,1.29-.839,2.01-2.359,2.01-.719,0-1.419-.181-2.009-.49ZM67.029,214.71v-2.099c-.29-.34-.72-.54-1.189-.54-.859,0-1.499.67-1.499,1.589,0,.91.64,1.6,1.499,1.6.49,0,.9-.2,1.189-.55Z"/>
    <path d="M69.551,211.162h1.129v1.079c.28-.76.759-1.169,1.379-1.169.19.01.32.029.49.1v.989c-.18-.069-.41-.12-.62-.12-.549,0-.999.311-1.249.83v3.298h-1.129v-5.007Z"/>
    <path d="M73.071,214.729c0-.899.739-1.469,1.919-1.469.47,0,.909.1,1.349.32v-.561c0-.659-.38-.999-1.149-.999-.42,0-.879.12-1.459.39l-.4-.819c.75-.34,1.409-.51,2.079-.51,1.31,0,2.049.659,2.049,1.819v3.268h-1.119v-.52c-.43.42-.91.609-1.489.609-1.049,0-1.779-.629-1.779-1.529ZM75.16,215.46c.45,0,.839-.13,1.179-.42v-.81c-.36-.17-.72-.24-1.149-.24-.649,0-1.06.27-1.06.72,0,.46.4.75,1.03.75Z"/>
    <path d="M79.3,214.87v-2.809h-1v-.899h1v-1.38l1.129-.239v1.619h1.389v.899h-1.389v2.559c0,.489.19.68.7.68.22,0,.379-.03.68-.12v.949c-.29.09-.67.141-.97.141-1.009,0-1.539-.48-1.539-1.399Z"/>
    <path d="M82.68,209.453c0-.38.31-.7.7-.7.38,0,.7.32.7.7s-.32.689-.7.689c-.39,0-.7-.31-.7-.689ZM82.81,211.162h1.129v5.007h-1.129v-5.007Z"/>
    <path d="M85.34,211.162h1.129v.819c.38-.59.929-.899,1.579-.899,1.029,0,1.749.729,1.749,1.789v3.298h-1.14v-2.979c0-.729-.43-1.199-1.099-1.199-.46,0-.83.21-1.089.61v3.567h-1.129v-5.007Z"/>
    <path d="M91.49,217.868l.39-.829c.589.289,1.069.419,1.569.419.84,0,1.279-.379,1.279-1.109v-.849c-.36.439-.909.699-1.539.699-1.27,0-2.259-1.13-2.259-2.549s1.029-2.528,2.339-2.528c.58,0,1.099.229,1.469.67v-.63h1.119v5.187c0,1.29-.839,2.01-2.359,2.01-.719,0-1.419-.181-2.009-.49ZM94.728,214.71v-2.099c-.29-.34-.72-.54-1.189-.54-.859,0-1.499.67-1.499,1.589,0,.91.64,1.6,1.499,1.6.49,0,.9-.2,1.189-.55Z"/>
    <path d="M100.12,214.87v-2.809h-1v-.899h1v-1.38l1.129-.239v1.619h1.389v.899h-1.389v2.559c0,.489.19.68.7.68.22,0,.379-.03.68-.12v.949c-.29.09-.67.141-.97.141-1.009,0-1.539-.48-1.539-1.399Z"/>
    <path d="M103.33,213.671c0-1.479,1.08-2.589,2.519-2.589,1.429,0,2.509,1.109,2.509,2.589s-1.08,2.588-2.509,2.588c-1.439,0-2.519-1.109-2.519-2.588ZM107.248,213.671c0-.93-.59-1.63-1.399-1.63-.819,0-1.409.7-1.409,1.63,0,.939.59,1.629,1.409,1.629.81,0,1.399-.689,1.399-1.629Z"/>
    <path d="M111.78,211.162h1.129v.789c.37-.569.87-.869,1.479-.869.689,0,1.219.37,1.479.959.39-.629.949-.959,1.659-.959.97,0,1.639.75,1.639,1.809v3.278h-1.129v-3.028c0-.699-.39-1.149-1.009-1.149-.41,0-.75.19-1,.6.01.101.02.2.02.3v3.278h-1.139v-3.028c0-.699-.39-1.149-1.01-1.149-.41,0-.74.19-.989.58v3.598h-1.129v-5.007Z"/>
    <path d="M120.31,213.671c0-1.47,1.06-2.589,2.438-2.589,1.37,0,2.369,1.089,2.369,2.589v.27h-3.698c.11.81.72,1.399,1.499,1.399.47,0,.91-.18,1.189-.47l.74.669c-.61.51-1.219.73-1.979.73-1.439,0-2.559-1.13-2.559-2.599ZM124.047,213.241c-.12-.73-.64-1.239-1.309-1.239-.68,0-1.179.489-1.309,1.239h2.618Z"/>
    <path d="M125.87,215.59l.53-.75c.66.41,1.099.569,1.609.569.6,0,1.009-.279,1.009-.68,0-.31-.209-.47-.699-.569l-.88-.149c-.979-.181-1.449-.63-1.449-1.38,0-.939.77-1.549,1.939-1.549.7,0,1.33.2,1.969.6l-.53.75c-.51-.33-1-.48-1.509-.48-.52,0-.859.22-.859.58,0,.319.18.46.7.55l.889.17c1,.18,1.479.64,1.479,1.389,0,.92-.88,1.63-2.049,1.63-.859,0-1.619-.24-2.148-.68Z"/>
    <path d="M131.109,209.003l1.129-.199v3.178c.38-.59.929-.899,1.579-.899,1.029,0,1.749.729,1.749,1.789v3.298h-1.14v-2.979c0-.729-.43-1.199-1.099-1.199-.46,0-.83.21-1.089.61v3.567h-1.129v-7.166Z"/>
  </g>
  <g>
    <path d="M52.19,231.973h1.559l2.049,4.247,2.039-4.247h1.559v6.996h-1.129v-5.478l-2.479,4.978-2.489-5.007v5.507h-1.109v-6.996Z"/>
    <path d="M60.801,232.253c0-.38.31-.699.7-.699.38,0,.7.319.7.699s-.32.689-.7.689c-.39,0-.7-.31-.7-.689ZM60.931,233.962h1.129v5.008h-1.129v-5.008Z"/>
    <path d="M64.77,236.39l-1.809-2.429h1.33l1.169,1.649,1.169-1.649h1.27l-1.829,2.459,1.909,2.549h-1.319l-1.259-1.749-1.259,1.749h-1.259l1.889-2.579Z"/>
    <path d="M68.391,236.47c0-1.469,1.06-2.589,2.438-2.589,1.37,0,2.369,1.09,2.369,2.589v.27h-3.698c.11.81.72,1.399,1.499,1.399.47,0,.91-.18,1.189-.47l.74.67c-.61.51-1.219.729-1.979.729-1.439,0-2.559-1.129-2.559-2.599ZM72.128,236.041c-.12-.729-.64-1.239-1.309-1.239-.68,0-1.179.489-1.309,1.239h2.618Z"/>
    <path d="M74.141,236.47c0-1.429,1.029-2.549,2.339-2.549.569,0,1.089.23,1.459.65v-2.769l1.129-.2v7.366h-1.119v-.66c-.36.45-.92.71-1.549.71-1.27,0-2.259-1.13-2.259-2.549ZM77.938,237.52v-2.109c-.29-.34-.72-.539-1.189-.539-.859,0-1.499.68-1.499,1.599,0,.909.64,1.6,1.499,1.6.49,0,.9-.19,1.189-.55Z"/>
    <path d="M82.491,236.47c0-1.469,1.06-2.589,2.438-2.589,1.37,0,2.369,1.09,2.369,2.589v.27h-3.698c.11.81.72,1.399,1.499,1.399.47,0,.91-.18,1.189-.47l.74.67c-.61.51-1.219.729-1.979.729-1.439,0-2.559-1.129-2.559-2.599ZM86.229,236.041c-.12-.729-.64-1.239-1.309-1.239-.68,0-1.179.489-1.309,1.239h2.618Z"/>
    <path d="M88.451,233.962h1.129v.82c.38-.59.929-.9,1.579-.9,1.029,0,1.749.73,1.749,1.789v3.299h-1.14v-2.979c0-.729-.43-1.199-1.099-1.199-.46,0-.83.21-1.089.609v3.568h-1.129v-5.008Z"/>
    <path d="M93.46,233.962h1.229l1.399,3.639,1.39-3.639h1.179l-2.059,5.008h-1.099l-2.039-5.008Z"/>
    <path d="M99.33,232.253c0-.38.31-.699.7-.699.38,0,.7.319.7.699s-.32.689-.7.689c-.39,0-.7-.31-.7-.689ZM99.46,233.962h1.129v5.008h-1.129v-5.008Z"/>
    <path d="M101.99,233.962h1.129v1.08c.28-.76.759-1.17,1.379-1.17.19.01.32.03.49.101v.989c-.18-.07-.41-.12-.62-.12-.549,0-.999.31-1.249.829v3.299h-1.129v-5.008Z"/>
    <path d="M105.46,236.47c0-1.479,1.08-2.589,2.519-2.589,1.429,0,2.509,1.109,2.509,2.589s-1.08,2.589-2.509,2.589c-1.439,0-2.519-1.109-2.519-2.589ZM109.378,236.47c0-.93-.59-1.629-1.399-1.629-.819,0-1.409.699-1.409,1.629,0,.939.59,1.629,1.409,1.629.81,0,1.399-.689,1.399-1.629Z"/>
    <path d="M111.66,233.962h1.129v.82c.38-.59.929-.9,1.579-.9,1.029,0,1.749.73,1.749,1.789v3.299h-1.14v-2.979c0-.729-.43-1.199-1.099-1.199-.46,0-.83.21-1.089.609v3.568h-1.129v-5.008Z"/>
    <path d="M117.48,233.962h1.129v.79c.37-.57.87-.87,1.479-.87.689,0,1.219.37,1.479.96.39-.63.949-.96,1.659-.96.97,0,1.639.75,1.639,1.81v3.278h-1.129v-3.028c0-.7-.39-1.149-1.009-1.149-.41,0-.75.189-1,.6.01.1.02.2.02.3v3.278h-1.139v-3.028c0-.7-.39-1.149-1.01-1.149-.41,0-.74.189-.989.579v3.599h-1.129v-5.008Z"/>
    <path d="M126.01,236.47c0-1.469,1.06-2.589,2.438-2.589,1.37,0,2.369,1.09,2.369,2.589v.27h-3.698c.11.81.72,1.399,1.499,1.399.47,0,.91-.18,1.189-.47l.74.67c-.61.51-1.219.729-1.979.729-1.439,0-2.559-1.129-2.559-2.599ZM129.748,236.041c-.12-.729-.64-1.239-1.309-1.239-.68,0-1.179.489-1.309,1.239h2.618Z"/>
    <path d="M131.97,233.962h1.129v.82c.38-.59.929-.9,1.579-.9,1.029,0,1.749.73,1.749,1.789v3.299h-1.14v-2.979c0-.729-.43-1.199-1.099-1.199-.46,0-.83.21-1.089.609v3.568h-1.129v-5.008Z"/>
    <path d="M138.259,237.67v-2.809h-1v-.899h1v-1.379l1.129-.24v1.619h1.389v.899h-1.389v2.559c0,.49.19.68.7.68.22,0,.379-.029.68-.119v.949c-.29.09-.67.14-.97.14-1.009,0-1.539-.479-1.539-1.399Z"/>
  </g>
  <g>
    <path d="M53.939,254.313h-2.338v-1.039h5.876v1.039h-2.338v5.957h-1.2v-5.957Z"/>
    <path d="M57.151,257.771c0-1.469,1.06-2.589,2.438-2.589,1.37,0,2.369,1.09,2.369,2.589v.27h-3.698c.11.81.72,1.399,1.499,1.399.47,0,.91-.18,1.189-.47l.74.67c-.61.51-1.219.729-1.979.729-1.439,0-2.559-1.129-2.559-2.599ZM60.889,257.341c-.12-.729-.64-1.239-1.309-1.239-.68,0-1.179.489-1.309,1.239h2.618Z"/>
    <path d="M63.111,255.262h1.129v.79c.37-.57.87-.87,1.479-.87.689,0,1.219.37,1.479.96.39-.63.949-.96,1.659-.96.97,0,1.639.75,1.639,1.81v3.278h-1.129v-3.028c0-.7-.39-1.149-1.009-1.149-.41,0-.75.189-1,.6.01.1.02.2.02.3v3.278h-1.139v-3.028c0-.7-.39-1.149-1.01-1.149-.41,0-.74.189-.989.579v3.599h-1.129v-5.008Z"/>
    <path d="M71.871,255.262h1.109v.71c.36-.47.919-.75,1.559-.75,1.269,0,2.259,1.13,2.259,2.549,0,1.43-1.02,2.549-2.329,2.549-.59,0-1.109-.22-1.469-.64v2.679h-1.129v-7.097ZM75.688,257.771c0-.909-.64-1.599-1.489-1.599-.5,0-.91.199-1.199.56v2.089c.29.35.72.56,1.199.56.859,0,1.489-.689,1.489-1.609Z"/>
    <path d="M77.75,257.771c0-1.479,1.08-2.589,2.519-2.589,1.429,0,2.509,1.109,2.509,2.589s-1.08,2.589-2.509,2.589c-1.439,0-2.519-1.109-2.519-2.589ZM81.668,257.771c0-.93-.59-1.629-1.399-1.629-.819,0-1.409.699-1.409,1.629,0,.939.59,1.629,1.409,1.629.81,0,1.399-.689,1.399-1.629Z"/>
    <path d="M83.95,255.262h1.129v1.08c.28-.76.759-1.17,1.379-1.17.19.01.32.03.49.101v.989c-.18-.07-.41-.12-.62-.12-.549,0-.999.31-1.249.829v3.299h-1.129v-5.008Z"/>
    <path d="M87.471,258.831c0-.899.739-1.469,1.919-1.469.47,0,.909.1,1.349.319v-.56c0-.66-.38-1-1.149-1-.42,0-.879.12-1.459.391l-.4-.82c.75-.34,1.409-.51,2.079-.51,1.31,0,2.049.66,2.049,1.819v3.269h-1.119v-.52c-.43.419-.91.609-1.489.609-1.049,0-1.779-.63-1.779-1.529ZM89.56,259.56c.45,0,.839-.13,1.179-.42v-.81c-.36-.17-.72-.239-1.149-.239-.649,0-1.06.27-1.06.72,0,.459.4.749,1.03.749Z"/>
    <path d="M93.23,255.262h1.129v1.08c.28-.76.759-1.17,1.379-1.17.19.01.32.03.49.101v.989c-.18-.07-.41-.12-.62-.12-.549,0-1,.31-1.249.829v3.299h-1.129v-5.008Z"/>
    <path d="M97.06,262.388v-.979c.13.03.29.04.44.04.4,0,.64-.18.81-.569l.23-.56-1.889-5.058h1.25l1.279,3.708,1.389-3.708h1.239l-2.398,5.877c-.39.97-.85,1.319-1.789,1.319-.16,0-.36-.02-.56-.07Z"/>
    <path d="M105.5,258.97v-2.809h-1v-.899h1v-1.379l1.129-.24v1.619h1.389v.899h-1.389v2.559c0,.49.19.68.7.68.22,0,.379-.029.68-.119v.949c-.29.09-.67.14-.97.14-1.009,0-1.539-.479-1.539-1.399Z"/>
    <path d="M109.02,255.262h1.129v1.08c.28-.76.759-1.17,1.379-1.17.19.01.32.03.49.101v.989c-.18-.07-.41-.12-.62-.12-.549,0-.999.31-1.249.829v3.299h-1.129v-5.008Z"/>
    <path d="M112.54,258.831c0-.899.739-1.469,1.919-1.469.47,0,.909.1,1.349.319v-.56c0-.66-.38-1-1.149-1-.42,0-.879.12-1.459.391l-.4-.82c.75-.34,1.409-.51,2.079-.51,1.31,0,2.049.66,2.049,1.819v3.269h-1.119v-.52c-.43.419-.91.609-1.489.609-1.049,0-1.779-.63-1.779-1.529ZM114.628,259.56c.45,0,.839-.13,1.179-.42v-.81c-.36-.17-.72-.239-1.149-.239-.649,0-1.06.27-1.06.72,0,.459.4.749,1.03.749Z"/>
    <path d="M118.299,255.262h1.129v.82c.38-.59.929-.9,1.579-.9,1.029,0,1.749.73,1.749,1.789v3.299h-1.14v-2.979c0-.729-.43-1.199-1.099-1.199-.46,0-.83.21-1.089.609v3.568h-1.129v-5.008Z"/>
    <path d="M123.669,259.69l.53-.749c.66.409,1.099.569,1.609.569.6,0,1.009-.28,1.009-.68,0-.31-.209-.47-.699-.569l-.88-.15c-.979-.18-1.449-.63-1.449-1.379,0-.939.77-1.55,1.939-1.55.7,0,1.33.2,1.969.601l-.53.749c-.51-.33-1-.479-1.509-.479-.52,0-.859.22-.859.579,0,.32.18.46.7.55l.889.17c1,.181,1.479.64,1.479,1.39,0,.919-.88,1.629-2.049,1.629-.859,0-1.619-.24-2.148-.68Z"/>
    <path d="M128.769,253.553c0-.38.31-.699.7-.699.38,0,.7.319.7.699s-.32.689-.7.689c-.39,0-.7-.31-.7-.689ZM128.899,255.262h1.129v5.008h-1.129v-5.008Z"/>
    <path d="M132.049,258.97v-2.809h-1v-.899h1v-1.379l1.129-.24v1.619h1.389v.899h-1.389v2.559c0,.49.19.68.7.68.22,0,.379-.029.68-.119v.949c-.29.09-.67.14-.97.14-1.009,0-1.539-.479-1.539-1.399Z"/>
    <path d="M135.429,253.553c0-.38.31-.699.7-.699.38,0,.7.319.7.699s-.32.689-.7.689c-.39,0-.7-.31-.7-.689ZM135.559,255.262h1.129v5.008h-1.129v-5.008Z"/>
    <path d="M137.859,257.771c0-1.479,1.08-2.589,2.519-2.589,1.429,0,2.509,1.109,2.509,2.589s-1.08,2.589-2.509,2.589c-1.439,0-2.519-1.109-2.519-2.589ZM141.777,257.771c0-.93-.59-1.629-1.399-1.629-.819,0-1.409.699-1.409,1.629,0,.939.59,1.629,1.409,1.629.81,0,1.399-.689,1.399-1.629Z"/>
    <path d="M144.059,255.262h1.129v.82c.38-.59.929-.9,1.579-.9,1.029,0,1.749.73,1.749,1.789v3.299h-1.14v-2.979c0-.729-.43-1.199-1.099-1.199-.46,0-.83.21-1.089.609v3.568h-1.129v-5.008Z"/>
  </g>
  <circle cx="39.851" cy="213.348" r="2"/>
  <circle cx="39.851" cy="234.858" r="2"/>
  <circle cx="39.851" cy="254.993" r="2"/>
  <g>
    <path d="M231.117,132.518l.879-1.269c.97.68,1.579.93,2.269.93.739,0,1.189-.3,1.189-.74,0-.41-.24-.61-.919-.729l-1.489-.26c-1.109-.189-1.719-.889-1.719-1.879,0-1.359,1.039-2.208,2.778-2.208,1.08,0,2.149.35,2.869.919l-.87,1.249c-.68-.52-1.349-.77-2.089-.77-.68,0-1.069.28-1.069.66,0,.36.229.54.79.64l1.399.24c1.31.22,1.999.909,1.999,1.979,0,1.37-1.159,2.299-2.988,2.299-1.109,0-2.099-.37-3.028-1.06Z"/>
    <path d="M239.785,127.941h-2.249v-1.469h6.216v1.469h-2.249v5.527h-1.719v-5.527Z"/>
    <path d="M244.747,126.472h3.398c1.439,0,2.469.929,2.469,2.229,0,.89-.51,1.609-1.299,1.959l1.469,2.809h-1.919l-1.27-2.568h-1.129v2.568h-1.719v-6.996ZM247.984,129.55c.53,0,.89-.33.89-.83s-.36-.83-.89-.83h-1.519v1.659h1.519Z"/>
    <path d="M251.676,126.472h1.719v6.996h-1.719v-6.996Z"/>
    <path d="M254.526,129.97c0-2.039,1.609-3.608,3.688-3.608,1.12,0,2.229.53,2.838,1.359l-1.159,1.1c-.46-.62-1.02-.93-1.679-.93-1.089,0-1.909.89-1.909,2.079s.819,2.079,1.909,2.079c.66,0,1.219-.31,1.679-.929l1.159,1.099c-.609.83-1.719,1.359-2.838,1.359-2.079,0-3.688-1.569-3.688-3.608Z"/>
    <path d="M263.835,127.941h-2.249v-1.469h6.216v1.469h-2.249v5.527h-1.719v-5.527Z"/>
    <path d="M270.946,126.472h2.159l1.689,3.358,1.679-3.358h2.159v6.996h-1.619v-4.748l-2.239,4.248-2.249-4.288v4.788h-1.579v-6.996Z"/>
    <path d="M279.816,130.9c0-1.52,1.159-2.669,2.688-2.669s2.688,1.149,2.688,2.669-1.159,2.668-2.688,2.668-2.688-1.149-2.688-2.668ZM283.614,130.9c0-.77-.46-1.319-1.109-1.319s-1.109.549-1.109,1.319.459,1.319,1.109,1.319,1.109-.549,1.109-1.319Z"/>
    <path d="M285.996,130.88c0-1.449,1.059-2.599,2.398-2.599.54,0,1.03.22,1.379.62v-2.549l1.619-.25v7.366h-1.599v-.669c-.34.43-.91.699-1.519.699-1.27,0-2.279-1.169-2.279-2.618ZM289.774,131.749v-1.739c-.25-.26-.59-.4-.959-.4-.709,0-1.229.54-1.229,1.279,0,.729.53,1.27,1.229,1.27.39,0,.709-.14.959-.41Z"/>
    <path d="M292.426,130.9c0-1.509,1.119-2.669,2.599-2.669,1.489,0,2.539,1.129,2.539,2.729v.35h-3.548c.15.58.62.969,1.209.969.43,0,.79-.15,1.02-.43l1.069.89c-.669.589-1.299.83-2.169.83-1.519,0-2.718-1.169-2.718-2.668ZM296.063,130.39c-.14-.55-.529-.9-1.049-.9-.51,0-.87.33-1,.9h2.049Z"/>
  </g>
  <g>
    <path d="M244.112,145.513h1.129v.79c.37-.57.87-.87,1.479-.87.689,0,1.219.37,1.479.959.39-.629.949-.959,1.659-.959.97,0,1.639.75,1.639,1.809v3.278h-1.129v-3.028c0-.7-.39-1.149-1.009-1.149-.41,0-.75.19-1,.6.01.1.02.2.02.3v3.278h-1.139v-3.028c0-.7-.39-1.149-1.01-1.149-.41,0-.74.19-.989.58v3.598h-1.129v-5.007Z"/>
    <path d="M254.261,144.564h-2.338v-1.04h5.876v1.04h-2.338v5.956h-1.2v-5.956Z"/>
    <path d="M258.892,143.525h1.2v5.957h3.728v1.039h-4.927v-6.996Z"/>
    <path d="M264.552,149.501l.65-.879c.899.739,1.549,1.02,2.358,1.02.919,0,1.559-.47,1.559-1.12,0-.569-.339-.839-1.269-.999l-1.29-.22c-1.209-.22-1.799-.819-1.799-1.779,0-1.27,1.009-2.109,2.579-2.109,1.049,0,2.009.31,2.809.899l-.61.899c-.7-.53-1.449-.81-2.239-.81-.839,0-1.399.43-1.399,1,0,.51.32.77,1.079.89l1.25.21c1.409.25,2.069.869,2.069,1.928,0,1.29-1.14,2.199-2.809,2.199-1.099,0-2.049-.38-2.938-1.13Z"/>
    <path d="M274.251,149.221v-2.809h-1v-.899h1v-1.379l1.129-.24v1.619h1.389v.899h-1.389v2.559c0,.489.19.68.7.68.22,0,.379-.03.68-.12v.949c-.29.09-.67.141-.97.141-1.009,0-1.539-.48-1.539-1.399Z"/>
    <path d="M277.771,145.513h1.129v1.08c.28-.76.759-1.169,1.379-1.169.19.01.32.03.49.1v.989c-.18-.07-.41-.12-.62-.12-.549,0-.999.31-1.249.83v3.298h-1.129v-5.007Z"/>
    <path d="M281.292,149.082c0-.9.739-1.469,1.919-1.469.47,0,.909.1,1.349.32v-.56c0-.66-.38-1-1.149-1-.42,0-.879.12-1.459.39l-.4-.82c.75-.34,1.409-.51,2.079-.51,1.31,0,2.049.66,2.049,1.819v3.268h-1.119v-.52c-.43.42-.91.609-1.489.609-1.049,0-1.779-.629-1.779-1.528ZM283.38,149.811c.45,0,.839-.13,1.179-.42v-.81c-.36-.17-.72-.24-1.149-.24-.649,0-1.06.27-1.06.72,0,.46.4.75,1.03.75Z"/>
    <path d="M287.581,146.413h-1.08v-.899h1.08v-.859c0-1.089.609-1.679,1.729-1.679.28,0,.56.03.75.09v.959c-.25-.05-.4-.07-.6-.07-.52,0-.75.23-.75.72v.839h1.349v.899h-1.349v4.107h-1.129v-4.107Z"/>
    <path d="M291.741,146.413h-1.08v-.899h1.08v-.859c0-1.089.609-1.679,1.729-1.679.28,0,.56.03.75.09v.959c-.25-.05-.4-.07-.6-.07-.52,0-.75.23-.75.72v.839h1.349v.899h-1.349v4.107h-1.129v-4.107Z"/>
    <path d="M295.031,143.804c0-.38.31-.7.7-.7.38,0,.7.32.7.7s-.32.689-.7.689c-.39,0-.7-.31-.7-.689ZM295.161,145.513h1.129v5.007h-1.129v-5.007Z"/>
    <path d="M297.461,148.022c0-1.449,1.1-2.589,2.529-2.589.779,0,1.499.31,1.998.85l-.699.729c-.35-.39-.779-.589-1.259-.589-.81,0-1.439.7-1.439,1.599,0,.909.63,1.599,1.439,1.599.479,0,.909-.2,1.259-.579l.699.719c-.499.54-1.219.85-1.998.85-1.429,0-2.529-1.129-2.529-2.588Z"/>
    <path d="M304.941,148.022c0-1.479,1.079-2.589,2.519-2.589,1.429,0,2.509,1.109,2.509,2.589s-1.08,2.588-2.509,2.588c-1.439,0-2.519-1.109-2.519-2.588ZM308.859,148.022c0-.93-.59-1.629-1.399-1.629-.819,0-1.409.7-1.409,1.629,0,.939.59,1.629,1.409,1.629.81,0,1.399-.689,1.399-1.629Z"/>
    <path d="M311.14,145.513h1.13v.82c.38-.59.929-.9,1.579-.9,1.029,0,1.749.73,1.749,1.789v3.298h-1.14v-2.978c0-.729-.43-1.199-1.1-1.199-.46,0-.829.21-1.089.61v3.567h-1.13v-5.007Z"/>
    <path d="M316.96,143.355l1.129-.2v7.365h-1.129v-7.166Z"/>
    <path d="M319.28,152.639v-.979c.131.03.29.04.44.04.399,0,.64-.18.81-.569l.229-.561-1.889-5.057h1.249l1.279,3.708,1.39-3.708h1.239l-2.398,5.877c-.391.969-.85,1.319-1.789,1.319-.16,0-.36-.021-.561-.07Z"/>
  </g>
  <g>
    <path d="M244.251,161.695h3.108c1.389,0,2.339.859,2.339,2.119,0,.909-.54,1.619-1.389,1.919l1.479,2.958h-1.329l-1.35-2.798h-1.659v2.798h-1.2v-6.996ZM247.25,164.933c.75,0,1.239-.439,1.239-1.109,0-.68-.49-1.119-1.239-1.119h-1.799v2.229h1.799Z"/>
    <path d="M250.352,166.193c0-1.47,1.06-2.589,2.438-2.589,1.37,0,2.369,1.09,2.369,2.589v.27h-3.698c.11.81.72,1.399,1.499,1.399.47,0,.91-.18,1.189-.47l.74.669c-.61.51-1.219.73-1.979.73-1.439,0-2.559-1.13-2.559-2.599ZM254.09,165.763c-.12-.73-.64-1.239-1.309-1.239-.68,0-1.179.489-1.309,1.239h2.618Z"/>
    <path d="M255.353,170.8v-.899c.13.029.24.04.4.04.39,0,.56-.17.56-.55v-5.707h1.129v5.757c0,.909-.53,1.439-1.479,1.439-.22,0-.47-.03-.609-.08ZM256.172,161.975c0-.38.32-.7.7-.7.39,0,.709.32.709.7s-.32.689-.709.689c-.38,0-.7-.31-.7-.689Z"/>
    <path d="M258.602,166.193c0-1.47,1.06-2.589,2.438-2.589,1.37,0,2.369,1.09,2.369,2.589v.27h-3.698c.11.81.72,1.399,1.499,1.399.47,0,.91-.18,1.189-.47l.74.669c-.61.51-1.219.73-1.979.73-1.439,0-2.559-1.13-2.559-2.599ZM262.34,165.763c-.12-.73-.64-1.239-1.309-1.239-.68,0-1.179.489-1.309,1.239h2.618Z"/>
    <path d="M264.352,166.193c0-1.449,1.1-2.589,2.529-2.589.779,0,1.499.31,1.999.85l-.699.729c-.35-.39-.78-.59-1.26-.59-.809,0-1.439.7-1.439,1.6,0,.909.63,1.599,1.439,1.599.48,0,.91-.2,1.26-.579l.699.719c-.5.54-1.219.85-1.999.85-1.429,0-2.529-1.129-2.529-2.588Z"/>
    <path d="M270.531,167.392v-2.809h-1v-.899h1v-1.38l1.129-.239v1.619h1.389v.899h-1.389v2.559c0,.489.19.68.7.68.22,0,.379-.03.68-.12v.949c-.29.09-.67.141-.97.141-1.009,0-1.539-.48-1.539-1.399Z"/>
    <path d="M273.702,168.112l.53-.75c.66.41,1.099.569,1.609.569.6,0,1.009-.279,1.009-.679,0-.311-.209-.471-.699-.57l-.88-.149c-.979-.181-1.449-.63-1.449-1.38,0-.939.77-1.549,1.939-1.549.7,0,1.33.2,1.969.6l-.53.75c-.51-.33-1-.48-1.509-.48-.52,0-.859.221-.859.58,0,.319.18.46.7.55l.889.17c1,.18,1.479.64,1.479,1.389,0,.92-.88,1.63-2.049,1.63-.859,0-1.619-.24-2.148-.68Z"/>
    <path d="M281.191,163.684h1.109v.709c.36-.47.919-.749,1.559-.749,1.27,0,2.259,1.129,2.259,2.549,0,1.429-1.02,2.548-2.329,2.548-.59,0-1.109-.22-1.469-.64v2.679h-1.129v-7.096ZM285.009,166.193c0-.91-.64-1.6-1.489-1.6-.5,0-.91.2-1.199.56v2.089c.29.35.72.56,1.199.56.859,0,1.489-.689,1.489-1.608Z"/>
    <path d="M287.301,161.525l1.129-.199v7.365h-1.129v-7.166Z"/>
    <path d="M289.562,167.253c0-.9.739-1.47,1.919-1.47.47,0,.909.1,1.349.32v-.561c0-.659-.38-.999-1.149-.999-.42,0-.879.12-1.459.39l-.4-.819c.75-.34,1.409-.51,2.079-.51,1.31,0,2.049.659,2.049,1.819v3.268h-1.119v-.52c-.43.42-.91.609-1.489.609-1.049,0-1.779-.629-1.779-1.528ZM291.65,167.982c.45,0,.839-.13,1.179-.42v-.81c-.36-.17-.72-.24-1.149-.24-.649,0-1.06.27-1.06.72,0,.46.4.75,1.03.75Z"/>
    <path d="M295.181,161.975c0-.38.31-.7.7-.7.38,0,.7.32.7.7s-.32.689-.7.689c-.39,0-.7-.31-.7-.689ZM295.311,163.684h1.129v5.007h-1.129v-5.007Z"/>
    <path d="M297.841,163.684h1.129v.819c.38-.59.929-.899,1.579-.899,1.029,0,1.749.729,1.749,1.789v3.298h-1.14v-2.979c0-.729-.43-1.199-1.1-1.199-.46,0-.829.21-1.089.61v3.567h-1.129v-5.007Z"/>
    <path d="M303.521,165.373h3.488v.96h-3.488v-.96Z"/>
    <path d="M308.85,167.392v-2.809h-.999v-.899h.999v-1.38l1.13-.239v1.619h1.389v.899h-1.389v2.559c0,.489.189.68.699.68.22,0,.38-.03.68-.12v.949c-.29.09-.67.141-.97.141-1.009,0-1.539-.48-1.539-1.399Z"/>
    <path d="M312.061,166.193c0-1.47,1.06-2.589,2.438-2.589,1.369,0,2.369,1.09,2.369,2.589v.27h-3.698c.109.81.72,1.399,1.499,1.399.47,0,.909-.18,1.189-.47l.739.669c-.609.51-1.219.73-1.979.73-1.439,0-2.559-1.13-2.559-2.599ZM315.798,165.763c-.119-.73-.64-1.239-1.309-1.239-.68,0-1.18.489-1.31,1.239h2.618Z"/>
    <path d="M319.009,166.113l-1.809-2.429h1.329l1.17,1.649,1.169-1.649h1.27l-1.829,2.458,1.909,2.549h-1.319l-1.26-1.749-1.259,1.749h-1.26l1.889-2.578Z"/>
    <path d="M323.56,167.392v-2.809h-.999v-.899h.999v-1.38l1.13-.239v1.619h1.389v.899h-1.389v2.559c0,.489.189.68.699.68.22,0,.38-.03.68-.12v.949c-.29.09-.67.141-.97.141-1.009,0-1.539-.48-1.539-1.399Z"/>
  </g>
  <g>
    <path d="M233.93,191.833v-3.957h1.719v3.957c0,.97.54,1.6,1.379,1.6s1.379-.63,1.379-1.6v-3.957h1.719v3.957c0,1.919-1.209,3.139-3.099,3.139s-3.098-1.22-3.098-3.139Z"/>
    <path d="M241.03,194.341l.709-1.079c.74.39,1.16.52,1.659.52.459,0,.74-.16.74-.42,0-.199-.15-.31-.48-.369l-.989-.181c-1-.189-1.52-.699-1.52-1.499,0-1.049.81-1.679,2.159-1.679.719,0,1.429.2,2.099.59l-.74,1.029c-.52-.3-.999-.439-1.479-.439-.39,0-.62.13-.62.35,0,.21.13.3.53.369l.969.181c1.02.189,1.549.709,1.549,1.489,0,1.009-.95,1.769-2.219,1.769-.939,0-1.769-.22-2.369-.63Z"/>
    <path d="M246.38,192.303c0-1.51,1.119-2.669,2.599-2.669,1.489,0,2.539,1.129,2.539,2.729v.35h-3.548c.15.58.62.97,1.209.97.43,0,.79-.15,1.02-.43l1.069.89c-.669.589-1.299.829-2.169.829-1.519,0-2.718-1.169-2.718-2.668ZM250.018,191.794c-.14-.55-.529-.9-1.049-.9-.51,0-.87.33-1,.9h2.049Z"/>
    <path d="M254.21,189.715h1.529l.72,3.078.87-3.078h1.329l.859,3.068.71-3.068h1.489l-1.37,5.157h-1.539l-.839-3.039-.82,3.039h-1.559l-1.379-5.157Z"/>
    <path d="M262.51,187.756l1.619-.25v3.048c.4-.6.959-.919,1.629-.919,1,0,1.709.729,1.709,1.759v3.479h-1.619v-3.009c0-.579-.34-.959-.859-.959-.35,0-.63.14-.86.43v3.538h-1.619v-7.116Z"/>
    <path d="M268.459,192.303c0-1.51,1.119-2.669,2.599-2.669,1.489,0,2.539,1.129,2.539,2.729v.35h-3.548c.15.58.62.97,1.209.97.43,0,.79-.15,1.02-.43l1.069.89c-.669.589-1.299.829-2.169.829-1.519,0-2.718-1.169-2.718-2.668ZM272.097,191.794c-.14-.55-.529-.9-1.049-.9-.51,0-.87.33-1,.9h2.049Z"/>
    <path d="M274.61,189.715h1.619v.839c.4-.6.959-.919,1.629-.919,1,0,1.709.729,1.709,1.759v3.479h-1.619v-3.009c0-.579-.34-.959-.859-.959-.35,0-.63.14-.86.43v3.538h-1.619v-5.157Z"/>
    <path d="M280.5,190.553c0-.52.41-.949.91-.949s.909.43.909.949-.41.95-.909.95-.91-.43-.91-.95ZM280.5,194.032c0-.52.41-.949.91-.949s.909.43.909.949-.41.949-.909.949-.91-.43-.91-.949Z"/>
  </g>
  <g>
    <circle class="uuid-f9c68ad1-35f8-4301-bd11-8decf65528a4" cx="235.67" cy="148.52" r="3.964"/>
    <path class="uuid-21f888f4-801b-4f89-ba17-e6b4ae26ee81" d="M234.923,150.642c-.098,0-.193-.039-.263-.108l-1.257-1.238c-.147-.145-.149-.383-.004-.53.145-.147.382-.15.53-.004l.985.969,2.489-2.629c.142-.152.379-.156.53-.015.15.143.157.38.015.53l-2.752,2.907c-.069.073-.165.115-.266.117h-.007Z"/>
  </g>
  <g>
    <path d="M249.391,209.173h1.389l2.708,6.996h-1.29l-.719-1.959h-2.869l-.72,1.959h-1.249l2.749-6.996ZM251.15,213.27l-1.099-2.958-1.089,2.958h2.188Z"/>
    <path d="M254.252,209.003l1.129-.199v7.365h-1.129v-7.166Z"/>
    <path d="M256.772,209.003l1.129-.199v7.365h-1.129v-7.166Z"/>
    <path d="M261.092,215.59l.53-.75c.66.41,1.099.569,1.609.569.6,0,1.009-.279,1.009-.68,0-.31-.209-.47-.699-.569l-.88-.149c-.979-.181-1.449-.63-1.449-1.38,0-.939.77-1.549,1.939-1.549.7,0,1.33.2,1.969.6l-.53.75c-.51-.33-1-.48-1.509-.48-.52,0-.859.22-.859.58,0,.319.18.46.7.55l.889.17c1,.18,1.479.64,1.479,1.389,0,.92-.88,1.63-2.049,1.63-.859,0-1.619-.24-2.148-.68Z"/>
    <path d="M266.152,213.671c0-1.47,1.06-2.589,2.438-2.589,1.37,0,2.369,1.089,2.369,2.589v.27h-3.698c.11.81.72,1.399,1.499,1.399.47,0,.91-.18,1.189-.47l.74.669c-.61.51-1.219.73-1.979.73-1.439,0-2.559-1.13-2.559-2.599ZM269.89,213.241c-.12-.73-.64-1.239-1.309-1.239-.68,0-1.179.489-1.309,1.239h2.618Z"/>
    <path d="M272.112,211.162h1.129v1.079c.28-.76.759-1.169,1.379-1.169.19.01.32.029.49.1v.989c-.18-.069-.41-.12-.62-.12-.549,0-1,.311-1.249.83v3.298h-1.129v-5.007Z"/>
    <path d="M275.602,211.162h1.229l1.399,3.638,1.39-3.638h1.179l-2.059,5.007h-1.099l-2.039-5.007Z"/>
    <path d="M281.472,209.453c0-.38.31-.7.7-.7.38,0,.7.32.7.7s-.32.689-.7.689c-.39,0-.7-.31-.7-.689ZM281.602,211.162h1.129v5.007h-1.129v-5.007Z"/>
    <path d="M283.902,213.671c0-1.449,1.1-2.589,2.529-2.589.779,0,1.499.31,1.999.85l-.699.729c-.35-.39-.78-.59-1.26-.59-.809,0-1.439.7-1.439,1.6,0,.909.63,1.599,1.439,1.599.48,0,.91-.2,1.26-.579l.699.719c-.5.54-1.219.85-1.999.85-1.429,0-2.529-1.129-2.529-2.588Z"/>
    <path d="M288.981,213.671c0-1.47,1.06-2.589,2.438-2.589,1.37,0,2.369,1.089,2.369,2.589v.27h-3.698c.11.81.72,1.399,1.499,1.399.47,0,.91-.18,1.189-.47l.74.669c-.61.51-1.219.73-1.979.73-1.439,0-2.559-1.13-2.559-2.599ZM292.719,213.241c-.12-.73-.64-1.239-1.309-1.239-.68,0-1.179.489-1.309,1.239h2.618Z"/>
    <path d="M294.542,215.59l.53-.75c.66.41,1.099.569,1.609.569.6,0,1.009-.279,1.009-.68,0-.31-.209-.47-.699-.569l-.88-.149c-.979-.181-1.449-.63-1.449-1.38,0-.939.77-1.549,1.939-1.549.7,0,1.33.2,1.969.6l-.53.75c-.51-.33-1-.48-1.509-.48-.52,0-.859.22-.859.58,0,.319.18.46.7.55l.889.17c1,.18,1.48.64,1.48,1.389,0,.92-.88,1.63-2.05,1.63-.859,0-1.619-.24-2.148-.68Z"/>
    <path d="M301.891,209.453c0-.38.311-.7.7-.7.38,0,.699.32.699.7s-.319.689-.699.689c-.39,0-.7-.31-.7-.689ZM302.021,211.162h1.13v5.007h-1.13v-5.007Z"/>
    <path d="M304.551,211.162h1.13v.819c.38-.59.929-.899,1.579-.899,1.029,0,1.749.729,1.749,1.789v3.298h-1.14v-2.979c0-.729-.43-1.199-1.1-1.199-.46,0-.829.21-1.089.61v3.567h-1.13v-5.007Z"/>
    <path d="M312.622,211.162h1.129v.789c.37-.569.87-.869,1.479-.869.689,0,1.219.37,1.479.959.39-.629.949-.959,1.658-.959.97,0,1.64.75,1.64,1.809v3.278h-1.13v-3.028c0-.699-.39-1.149-1.009-1.149-.41,0-.75.19-1,.6.01.101.021.2.021.3v3.278h-1.14v-3.028c0-.699-.39-1.149-1.01-1.149-.409,0-.739.19-.989.58v3.598h-1.129v-5.007Z"/>
    <path d="M321.151,213.671c0-1.47,1.06-2.589,2.438-2.589,1.37,0,2.369,1.089,2.369,2.589v.27h-3.698c.11.81.72,1.399,1.499,1.399.47,0,.91-.18,1.189-.47l.74.669c-.61.51-1.22.73-1.979.73-1.438,0-2.559-1.13-2.559-2.599ZM324.889,213.241c-.12-.73-.64-1.239-1.31-1.239-.68,0-1.179.489-1.309,1.239h2.618Z"/>
    <path d="M326.711,215.59l.529-.75c.659.41,1.1.569,1.609.569.6,0,1.009-.279,1.009-.68,0-.31-.209-.47-.699-.569l-.88-.149c-.979-.181-1.449-.63-1.449-1.38,0-.939.77-1.549,1.939-1.549.699,0,1.329.2,1.969.6l-.529.75c-.51-.33-1-.48-1.51-.48-.52,0-.859.22-.859.58,0,.319.18.46.699.55l.89.17c1,.18,1.479.64,1.479,1.389,0,.92-.88,1.63-2.049,1.63-.859,0-1.619-.24-2.148-.68Z"/>
    <path d="M331.951,209.003l1.13-.199v3.178c.38-.59.929-.899,1.579-.899,1.029,0,1.749.729,1.749,1.789v3.298h-1.14v-2.979c0-.729-.43-1.199-1.1-1.199-.46,0-.829.21-1.089.61v3.567h-1.13v-7.166Z"/>
  </g>
  <g>
    <path d="M247.422,231.973h3.128c1.419,0,2.339.89,2.339,2.179,0,1.259-.919,2.148-2.339,2.148h-1.929v2.669h-1.2v-6.996ZM250.36,235.321c.85,0,1.319-.47,1.319-1.179,0-.69-.47-1.16-1.309-1.16h-1.749v2.339h1.739Z"/>
    <path d="M254.042,233.962h1.129v1.08c.28-.76.759-1.17,1.379-1.17.19.01.32.03.49.101v.989c-.18-.07-.41-.12-.62-.12-.549,0-.999.31-1.249.829v3.299h-1.129v-5.008Z"/>
    <path d="M257.512,236.47c0-1.479,1.08-2.589,2.519-2.589,1.429,0,2.509,1.109,2.509,2.589s-1.08,2.589-2.509,2.589c-1.439,0-2.519-1.109-2.519-2.589ZM261.43,236.47c0-.93-.59-1.629-1.399-1.629-.819,0-1.409.699-1.409,1.629,0,.939.59,1.629,1.409,1.629.81,0,1.399-.689,1.399-1.629Z"/>
    <path d="M263.482,236.47c0-1.429,1.029-2.549,2.339-2.549.569,0,1.089.23,1.459.65v-2.769l1.129-.2v7.366h-1.119v-.66c-.36.45-.919.71-1.549.71-1.27,0-2.259-1.13-2.259-2.549ZM267.28,237.52v-2.109c-.29-.34-.72-.539-1.189-.539-.859,0-1.499.68-1.499,1.599,0,.909.64,1.6,1.499,1.6.49,0,.9-.19,1.189-.55Z"/>
    <path d="M269.772,237.26v-3.299h1.139v2.969c0,.739.43,1.209,1.1,1.209.45,0,.83-.199,1.089-.6v-3.578h1.129v5.008h-1.129v-.81c-.38.59-.919.89-1.589.89-1.02,0-1.739-.74-1.739-1.789Z"/>
    <path d="M275.402,236.47c0-1.449,1.1-2.589,2.529-2.589.779,0,1.499.311,1.999.85l-.699.729c-.35-.39-.78-.589-1.26-.589-.809,0-1.439.699-1.439,1.599,0,.909.63,1.6,1.439,1.6.48,0,.91-.2,1.26-.58l.699.72c-.5.54-1.219.85-1.999.85-1.429,0-2.529-1.13-2.529-2.589Z"/>
    <path d="M281.581,237.67v-2.809h-1v-.899h1v-1.379l1.129-.24v1.619h1.389v.899h-1.389v2.559c0,.49.19.68.7.68.22,0,.379-.029.68-.119v.949c-.29.09-.67.14-.97.14-1.009,0-1.539-.479-1.539-1.399Z"/>
    <path d="M284.961,232.253c0-.38.31-.699.7-.699.38,0,.7.319.7.699s-.32.689-.7.689c-.39,0-.7-.31-.7-.689ZM285.091,233.962h1.129v5.008h-1.129v-5.008Z"/>
    <path d="M287.392,236.47c0-1.479,1.08-2.589,2.519-2.589,1.429,0,2.509,1.109,2.509,2.589s-1.08,2.589-2.509,2.589c-1.439,0-2.519-1.109-2.519-2.589ZM291.31,236.47c0-.93-.59-1.629-1.399-1.629-.819,0-1.409.699-1.409,1.629,0,.939.59,1.629,1.409,1.629.81,0,1.399-.689,1.399-1.629Z"/>
    <path d="M293.591,233.962h1.129v.82c.38-.59.929-.9,1.579-.9,1.029,0,1.749.73,1.749,1.789v3.299h-1.14v-2.979c0-.729-.43-1.199-1.099-1.199-.46,0-.83.21-1.089.609v3.568h-1.129v-5.008Z"/>
    <path d="M301.211,238.389l.53-.749c.659.409,1.099.569,1.608.569.6,0,1.01-.28,1.01-.68,0-.31-.21-.47-.699-.569l-.88-.15c-.979-.18-1.449-.63-1.449-1.379,0-.939.77-1.55,1.938-1.55.7,0,1.33.2,1.97.601l-.53.749c-.51-.33-.999-.479-1.509-.479-.52,0-.859.22-.859.579,0,.32.18.46.699.55l.89.17c.999.181,1.479.64,1.479,1.39,0,.919-.88,1.629-2.05,1.629-.859,0-1.618-.24-2.148-.68Z"/>
    <path d="M306.271,236.47c0-1.469,1.06-2.589,2.438-2.589,1.37,0,2.369,1.09,2.369,2.589v.27h-3.698c.11.81.72,1.399,1.499,1.399.47,0,.91-.18,1.189-.47l.74.67c-.61.51-1.22.729-1.979.729-1.438,0-2.559-1.129-2.559-2.599ZM310.009,236.041c-.12-.729-.64-1.239-1.31-1.239-.68,0-1.179.489-1.309,1.239h2.618Z"/>
    <path d="M312.021,236.47c0-1.449,1.1-2.589,2.529-2.589.779,0,1.499.311,1.998.85l-.699.729c-.35-.39-.779-.589-1.26-.589-.809,0-1.438.699-1.438,1.599,0,.909.63,1.6,1.438,1.6.48,0,.91-.2,1.26-.58l.699.72c-.499.54-1.219.85-1.998.85-1.43,0-2.529-1.13-2.529-2.589Z"/>
    <path d="M317.441,237.26v-3.299h1.14v2.969c0,.739.43,1.209,1.1,1.209.449,0,.829-.199,1.089-.6v-3.578h1.13v5.008h-1.13v-.81c-.38.59-.919.89-1.589.89-1.02,0-1.739-.74-1.739-1.789Z"/>
    <path d="M323.301,233.962h1.129v1.08c.28-.76.76-1.17,1.379-1.17.19.01.32.03.49.101v.989c-.18-.07-.41-.12-.62-.12-.549,0-.999.31-1.249.829v3.299h-1.129v-5.008Z"/>
    <path d="M327.09,232.253c0-.38.311-.699.7-.699.38,0,.699.319.699.699s-.319.689-.699.689c-.39,0-.7-.31-.7-.689ZM327.22,233.962h1.13v5.008h-1.13v-5.008Z"/>
    <path d="M330.371,237.67v-2.809h-1v-.899h1v-1.379l1.129-.24v1.619h1.39v.899h-1.39v2.559c0,.49.19.68.7.68.22,0,.379-.029.68-.119v.949c-.29.09-.67.14-.97.14-1.01,0-1.539-.479-1.539-1.399Z"/>
    <path d="M333.791,241.088v-.979c.13.03.29.04.439.04.4,0,.64-.18.81-.569l.23-.56-1.89-5.058h1.25l1.279,3.708,1.389-3.708h1.239l-2.398,5.877c-.39.97-.85,1.319-1.789,1.319-.16,0-.359-.02-.56-.07Z"/>
  </g>
  <g>
    <path d="M246.912,259.47l3.928-5.207-3.898.03v-1.02h5.417v.799l-3.918,5.208,3.978-.03v1.02h-5.507v-.8Z"/>
    <path d="M253.032,257.771c0-1.469,1.06-2.589,2.438-2.589,1.37,0,2.369,1.09,2.369,2.589v.27h-3.698c.11.81.72,1.399,1.499,1.399.47,0,.91-.18,1.189-.47l.74.67c-.61.51-1.219.729-1.979.729-1.439,0-2.559-1.129-2.559-2.599ZM256.77,257.341c-.12-.729-.64-1.239-1.309-1.239-.68,0-1.179.489-1.309,1.239h2.618Z"/>
    <path d="M258.992,255.262h1.129v1.08c.28-.76.759-1.17,1.379-1.17.19.01.32.03.49.101v.989c-.18-.07-.41-.12-.62-.12-.549,0-.999.31-1.249.829v3.299h-1.129v-5.008Z"/>
    <path d="M262.462,257.771c0-1.479,1.08-2.589,2.519-2.589,1.429,0,2.509,1.109,2.509,2.589s-1.08,2.589-2.509,2.589c-1.439,0-2.519-1.109-2.519-2.589ZM266.38,257.771c0-.93-.59-1.629-1.399-1.629-.819,0-1.409.699-1.409,1.629,0,.939.59,1.629,1.409,1.629.81,0,1.399-.689,1.399-1.629Z"/>
    <path d="M268.622,256.952h3.488v.959h-3.488v-.959Z"/>
    <path d="M273.952,258.97v-2.809h-1v-.899h1v-1.379l1.129-.24v1.619h1.389v.899h-1.389v2.559c0,.49.19.68.7.68.22,0,.379-.029.68-.119v.949c-.29.09-.67.14-.97.14-1.009,0-1.539-.479-1.539-1.399Z"/>
    <path d="M277.472,255.262h1.129v1.08c.28-.76.759-1.17,1.379-1.17.19.01.32.03.49.101v.989c-.18-.07-.41-.12-.62-.12-.549,0-.999.31-1.249.829v3.299h-1.129v-5.008Z"/>
    <path d="M281.312,258.561v-3.299h1.139v2.969c0,.739.43,1.209,1.1,1.209.45,0,.83-.199,1.089-.6v-3.578h1.129v5.008h-1.129v-.81c-.38.59-.919.89-1.589.89-1.019,0-1.739-.74-1.739-1.789Z"/>
    <path d="M286.722,259.69l.53-.749c.659.409,1.099.569,1.609.569.6,0,1.009-.28,1.009-.68,0-.31-.209-.47-.699-.569l-.88-.15c-.979-.18-1.449-.63-1.449-1.379,0-.939.77-1.55,1.939-1.55.7,0,1.33.2,1.969.601l-.53.749c-.51-.33-1-.479-1.509-.479-.52,0-.859.22-.859.579,0,.32.18.46.699.55l.89.17c1,.181,1.479.64,1.479,1.39,0,.919-.88,1.629-2.049,1.629-.86,0-1.619-.24-2.149-.68Z"/>
    <path d="M292.481,258.97v-2.809h-1v-.899h1v-1.379l1.129-.24v1.619h1.389v.899h-1.389v2.559c0,.49.19.68.7.68.22,0,.379-.029.68-.119v.949c-.29.09-.67.14-.97.14-1.009,0-1.539-.479-1.539-1.399Z"/>
    <path d="M298.021,257.771c0-1.469,1.06-2.589,2.439-2.589,1.369,0,2.368,1.09,2.368,2.589v.27h-3.697c.109.81.72,1.399,1.499,1.399.47,0,.909-.18,1.189-.47l.739.67c-.609.51-1.219.729-1.979.729-1.439,0-2.559-1.129-2.559-2.599ZM301.759,257.341c-.119-.729-.64-1.239-1.309-1.239-.68,0-1.18.489-1.31,1.239h2.618Z"/>
    <path d="M303.982,255.262h1.129v.82c.38-.59.93-.9,1.579-.9,1.029,0,1.749.73,1.749,1.789v3.299h-1.14v-2.979c0-.729-.43-1.199-1.099-1.199-.46,0-.83.21-1.09.609v3.568h-1.129v-5.008Z"/>
    <path d="M310.332,256.162h-1.08v-.899h1.08v-.859c0-1.089.609-1.679,1.729-1.679.28,0,.56.029.75.09v.959c-.25-.05-.4-.069-.6-.069-.521,0-.75.229-.75.72v.839h1.35v.899h-1.35v4.108h-1.129v-4.108Z"/>
    <path d="M313.332,257.771c0-1.479,1.079-2.589,2.519-2.589,1.429,0,2.509,1.109,2.509,2.589s-1.08,2.589-2.509,2.589c-1.439,0-2.519-1.109-2.519-2.589ZM317.25,257.771c0-.93-.59-1.629-1.399-1.629-.819,0-1.409.699-1.409,1.629,0,.939.59,1.629,1.409,1.629.81,0,1.399-.689,1.399-1.629Z"/>
    <path d="M319.532,255.262h1.129v1.08c.28-.76.76-1.17,1.379-1.17.19.01.32.03.49.101v.989c-.18-.07-.41-.12-.62-.12-.549,0-.999.31-1.249.829v3.299h-1.129v-5.008Z"/>
    <path d="M323.001,257.771c0-1.449,1.1-2.589,2.528-2.589.779,0,1.499.311,1.999.85l-.699.729c-.351-.39-.78-.589-1.26-.589-.81,0-1.439.699-1.439,1.599,0,.909.63,1.6,1.439,1.6.479,0,.909-.2,1.26-.58l.699.72c-.5.54-1.22.85-1.999.85-1.429,0-2.528-1.13-2.528-2.589Z"/>
    <path d="M328.082,257.771c0-1.469,1.06-2.589,2.438-2.589,1.369,0,2.368,1.09,2.368,2.589v.27h-3.697c.109.81.72,1.399,1.499,1.399.47,0,.909-.18,1.189-.47l.739.67c-.609.51-1.219.729-1.979.729-1.439,0-2.559-1.129-2.559-2.599ZM331.819,257.341c-.119-.729-.64-1.239-1.309-1.239-.68,0-1.18.489-1.31,1.239h2.618Z"/>
    <path d="M334.042,255.262h1.129v.79c.37-.57.87-.87,1.479-.87.689,0,1.219.37,1.479.96.39-.63.949-.96,1.658-.96.97,0,1.64.75,1.64,1.81v3.278h-1.13v-3.028c0-.7-.39-1.149-1.009-1.149-.41,0-.75.189-1,.6.01.1.021.2.021.3v3.278h-1.14v-3.028c0-.7-.39-1.149-1.01-1.149-.409,0-.739.189-.989.579v3.599h-1.129v-5.008Z"/>
    <path d="M342.571,257.771c0-1.469,1.06-2.589,2.438-2.589,1.37,0,2.369,1.09,2.369,2.589v.27h-3.698c.11.81.72,1.399,1.499,1.399.47,0,.91-.18,1.189-.47l.74.67c-.61.51-1.22.729-1.979.729-1.438,0-2.559-1.129-2.559-2.599ZM346.309,257.341c-.12-.729-.64-1.239-1.31-1.239-.68,0-1.179.489-1.309,1.239h2.618Z"/>
    <path d="M348.531,255.262h1.13v.82c.38-.59.929-.9,1.579-.9,1.029,0,1.749.73,1.749,1.789v3.299h-1.14v-2.979c0-.729-.43-1.199-1.1-1.199-.46,0-.829.21-1.089.609v3.568h-1.13v-5.008Z"/>
    <path d="M354.821,258.97v-2.809h-1v-.899h1v-1.379l1.129-.24v1.619h1.39v.899h-1.39v2.559c0,.49.19.68.7.68.22,0,.379-.029.68-.119v.949c-.29.09-.67.14-.97.14-1.01,0-1.539-.479-1.539-1.399Z"/>
  </g>
  <circle cx="235.082" cy="213.348" r="2"/>
  <circle cx="235.082" cy="234.858" r="2"/>
  <circle cx="235.082" cy="254.993" r="2"/>
  <g>
    <circle class="uuid-79914f96-004b-4237-96d8-628d8475b372" cx="426.952" cy="147.747" r="3.964"/>
    <g>
      <path class="uuid-21f888f4-801b-4f89-ba17-e6b4ae26ee81" d="M428.324,149.494c-.096,0-.192-.037-.265-.11l-2.743-2.743c-.146-.146-.146-.384,0-.53s.384-.146.53,0l2.743,2.743c.146.146.146.384,0,.53-.073.073-.169.11-.265.11Z"/>
      <path class="uuid-21f888f4-801b-4f89-ba17-e6b4ae26ee81" d="M425.581,149.494c-.096,0-.192-.037-.265-.11-.146-.146-.146-.384,0-.53l2.743-2.743c.146-.146.384-.146.53,0s.146.384,0,.53l-2.743,2.743c-.073.073-.169.11-.265.11Z"/>
    </g>
  </g>
  <g>
    <path d="M422.989,126.472h2.848c1.959,0,3.519,1.559,3.519,3.498s-1.56,3.498-3.519,3.498h-2.848v-6.996ZM425.836,131.999c.97,0,1.739-.899,1.739-2.029s-.77-2.029-1.739-2.029h-1.129v4.058h1.129Z"/>
    <path d="M430.489,126.472h1.719v6.996h-1.719v-6.996Z"/>
    <path d="M433.079,132.518l.88-1.269c.97.68,1.579.93,2.269.93.739,0,1.189-.3,1.189-.74,0-.41-.24-.61-.92-.729l-1.489-.26c-1.109-.189-1.719-.889-1.719-1.879,0-1.359,1.04-2.208,2.778-2.208,1.08,0,2.149.35,2.869.919l-.87,1.249c-.68-.52-1.349-.77-2.089-.77-.68,0-1.069.28-1.069.66,0,.36.229.54.79.64l1.398.24c1.31.22,1.999.909,1.999,1.979,0,1.37-1.159,2.299-2.988,2.299-1.109,0-2.099-.37-3.028-1.06Z"/>
    <path d="M442.087,126.472h1.959l2.688,6.996h-1.859l-.579-1.669h-2.559l-.59,1.669h-1.789l2.729-6.996ZM443.836,130.469l-.81-2.318-.819,2.318h1.629Z"/>
    <path d="M447.539,126.472h3.458c1.359,0,2.328.799,2.328,1.909,0,.65-.409,1.2-1.02,1.52.729.29,1.22.889,1.22,1.609,0,1.149-.979,1.959-2.369,1.959h-3.617v-6.996ZM450.796,129.28c.479,0,.8-.29.8-.72,0-.44-.311-.72-.8-.72h-1.539v1.439h1.539ZM450.936,132.099c.52,0,.85-.3.85-.77s-.33-.77-.85-.77h-1.679v1.539h1.679Z"/>
    <path d="M454.829,126.472h1.719v5.527h3.468v1.469h-5.187v-6.996Z"/>
    <path d="M461.308,126.472h5.287v1.439h-3.568v1.33h2.519v1.399h-2.519v1.39h3.608v1.439h-5.327v-6.996Z"/>
    <path d="M470.138,126.472h2.159l1.688,3.358,1.68-3.358h2.158v6.996h-1.619v-4.748l-2.238,4.248-2.249-4.288v4.788h-1.579v-6.996Z"/>
    <path d="M479.008,130.9c0-1.52,1.159-2.669,2.688-2.669s2.688,1.149,2.688,2.669-1.159,2.668-2.688,2.668-2.688-1.149-2.688-2.668ZM482.806,130.9c0-.77-.46-1.319-1.109-1.319s-1.109.549-1.109,1.319.459,1.319,1.109,1.319,1.109-.549,1.109-1.319Z"/>
    <path d="M485.188,130.88c0-1.449,1.06-2.599,2.398-2.599.54,0,1.03.22,1.38.62v-2.549l1.619-.25v7.366h-1.6v-.669c-.34.43-.909.699-1.519.699-1.27,0-2.279-1.169-2.279-2.618ZM488.966,131.749v-1.739c-.25-.26-.59-.4-.96-.4-.709,0-1.229.54-1.229,1.279,0,.729.53,1.27,1.229,1.27.39,0,.71-.14.96-.41Z"/>
    <path d="M491.618,130.9c0-1.509,1.119-2.669,2.599-2.669,1.489,0,2.539,1.129,2.539,2.729v.35h-3.549c.15.58.62.969,1.21.969.43,0,.789-.15,1.02-.43l1.069.89c-.67.589-1.3.83-2.169.83-1.52,0-2.719-1.169-2.719-2.668ZM495.255,130.39c-.14-.55-.529-.9-1.049-.9-.51,0-.87.33-1,.9h2.049Z"/>
  </g>
  <g>
    <path d="M435.534,143.525h3.108c1.389,0,2.339.859,2.339,2.119,0,.91-.54,1.619-1.39,1.919l1.479,2.958h-1.329l-1.35-2.798h-1.659v2.798h-1.199v-6.996ZM438.532,146.763c.75,0,1.239-.44,1.239-1.109,0-.68-.489-1.12-1.239-1.12h-1.799v2.229h1.799Z"/>
    <path d="M441.634,148.022c0-1.469,1.06-2.589,2.438-2.589,1.369,0,2.369,1.09,2.369,2.589v.27h-3.698c.109.81.72,1.399,1.499,1.399.47,0,.909-.18,1.189-.47l.739.669c-.609.51-1.219.73-1.979.73-1.439,0-2.559-1.13-2.559-2.599ZM445.372,147.592c-.119-.73-.64-1.239-1.309-1.239-.68,0-1.18.489-1.31,1.239h2.618Z"/>
    <path d="M446.634,152.63v-.899c.13.029.24.04.4.04.39,0,.56-.17.56-.55v-5.707h1.129v5.757c0,.909-.529,1.439-1.479,1.439-.22,0-.47-.03-.609-.08ZM447.454,143.804c0-.38.32-.7.7-.7.39,0,.709.32.709.7s-.319.689-.709.689c-.38,0-.7-.31-.7-.689Z"/>
    <path d="M449.884,148.022c0-1.469,1.06-2.589,2.438-2.589,1.369,0,2.369,1.09,2.369,2.589v.27h-3.698c.109.81.72,1.399,1.499,1.399.47,0,.909-.18,1.189-.47l.739.669c-.609.51-1.219.73-1.979.73-1.439,0-2.559-1.13-2.559-2.599ZM453.622,147.592c-.119-.73-.64-1.239-1.309-1.239-.68,0-1.18.489-1.31,1.239h2.618Z"/>
    <path d="M455.634,148.022c0-1.449,1.1-2.589,2.528-2.589.779,0,1.499.31,1.999.85l-.699.729c-.351-.39-.78-.589-1.26-.589-.81,0-1.439.7-1.439,1.599,0,.909.63,1.599,1.439,1.599.479,0,.909-.2,1.26-.579l.699.719c-.5.54-1.22.85-1.999.85-1.429,0-2.528-1.129-2.528-2.588Z"/>
    <path d="M461.813,149.221v-2.809h-.999v-.899h.999v-1.379l1.13-.24v1.619h1.389v.899h-1.389v2.559c0,.489.189.68.699.68.22,0,.38-.03.68-.12v.949c-.29.09-.67.141-.97.141-1.009,0-1.539-.48-1.539-1.399Z"/>
    <path d="M464.984,149.941l.529-.75c.66.41,1.1.569,1.609.569.6,0,1.009-.279,1.009-.679,0-.311-.209-.471-.699-.57l-.88-.149c-.979-.181-1.449-.63-1.449-1.379,0-.939.77-1.549,1.939-1.549.699,0,1.329.2,1.969.6l-.529.75c-.51-.33-1-.48-1.51-.48-.52,0-.859.22-.859.58,0,.32.18.46.7.55l.889.17c1,.18,1.479.64,1.479,1.389,0,.92-.88,1.63-2.049,1.63-.859,0-1.619-.24-2.148-.68Z"/>
    <path d="M472.473,145.513h1.13v.79c.369-.57.869-.87,1.479-.87.69,0,1.22.37,1.479.959.39-.629.949-.959,1.659-.959.97,0,1.639.75,1.639,1.809v3.278h-1.129v-3.028c0-.7-.39-1.149-1.01-1.149-.409,0-.749.19-.999.6.01.1.02.2.02.3v3.278h-1.139v-3.028c0-.7-.391-1.149-1.01-1.149-.41,0-.739.19-.989.58v3.598h-1.13v-5.007Z"/>
    <path d="M482.622,144.564h-2.338v-1.04h5.876v1.04h-2.338v5.956h-1.2v-5.956Z"/>
    <path d="M487.252,143.525h1.2v5.957h3.728v1.039h-4.928v-6.996Z"/>
    <path d="M492.914,149.501l.649-.879c.899.739,1.549,1.02,2.358,1.02.92,0,1.56-.47,1.56-1.12,0-.569-.34-.839-1.27-.999l-1.289-.22c-1.209-.22-1.799-.819-1.799-1.779,0-1.27,1.009-2.109,2.578-2.109,1.05,0,2.009.31,2.809.899l-.609.899c-.7-.53-1.449-.81-2.239-.81-.839,0-1.398.43-1.398,1,0,.51.319.77,1.079.89l1.249.21c1.409.25,2.069.869,2.069,1.928,0,1.29-1.14,2.199-2.809,2.199-1.1,0-2.049-.38-2.938-1.13Z"/>
  </g>
  <g>
    <path d="M435.534,161.695h3.128c1.42,0,2.339.89,2.339,2.179,0,1.26-.919,2.149-2.339,2.149h-1.929v2.668h-1.199v-6.996ZM438.472,165.044c.85,0,1.319-.47,1.319-1.18,0-.689-.47-1.159-1.31-1.159h-1.749v2.339h1.739Z"/>
    <path d="M442.184,161.525l1.129-.199v7.365h-1.129v-7.166Z"/>
    <path d="M444.444,167.253c0-.9.739-1.47,1.919-1.47.47,0,.909.1,1.35.32v-.561c0-.659-.38-.999-1.149-.999-.42,0-.88.12-1.459.39l-.4-.819c.75-.34,1.409-.51,2.079-.51,1.31,0,2.049.659,2.049,1.819v3.268h-1.119v-.52c-.43.42-.91.609-1.489.609-1.05,0-1.779-.629-1.779-1.528ZM446.533,167.982c.45,0,.84-.13,1.18-.42v-.81c-.36-.17-.72-.24-1.149-.24-.649,0-1.06.27-1.06.72,0,.46.399.75,1.029.75Z"/>
    <path d="M450.063,161.975c0-.38.311-.7.7-.7.38,0,.699.32.699.7s-.319.689-.699.689c-.39,0-.7-.31-.7-.689ZM450.193,163.684h1.13v5.007h-1.13v-5.007Z"/>
    <path d="M452.723,163.684h1.13v.819c.38-.59.929-.899,1.579-.899,1.029,0,1.749.729,1.749,1.789v3.298h-1.14v-2.979c0-.729-.43-1.199-1.1-1.199-.46,0-.829.21-1.089.61v3.567h-1.13v-5.007Z"/>
    <path d="M458.403,165.373h3.488v.96h-3.488v-.96Z"/>
    <path d="M463.733,167.392v-2.809h-.999v-.899h.999v-1.38l1.13-.239v1.619h1.389v.899h-1.389v2.559c0,.489.189.68.699.68.22,0,.38-.03.68-.12v.949c-.29.09-.67.141-.97.141-1.009,0-1.539-.48-1.539-1.399Z"/>
    <path d="M466.943,166.193c0-1.47,1.06-2.589,2.438-2.589,1.37,0,2.369,1.09,2.369,2.589v.27h-3.698c.11.81.72,1.399,1.499,1.399.47,0,.91-.18,1.189-.47l.74.669c-.61.51-1.22.73-1.979.73-1.438,0-2.559-1.13-2.559-2.599ZM470.681,165.763c-.12-.73-.64-1.239-1.31-1.239-.68,0-1.179.489-1.309,1.239h2.618Z"/>
    <path d="M473.892,166.113l-1.809-2.429h1.329l1.17,1.649,1.169-1.649h1.27l-1.829,2.458,1.909,2.549h-1.319l-1.26-1.749-1.259,1.749h-1.26l1.889-2.578Z"/>
    <path d="M478.443,167.392v-2.809h-.999v-.899h.999v-1.38l1.13-.239v1.619h1.389v.899h-1.389v2.559c0,.489.189.68.699.68.22,0,.38-.03.68-.12v.949c-.29.09-.67.141-.97.141-1.009,0-1.539-.48-1.539-1.399Z"/>
    <path d="M483.983,166.193c0-1.479,1.08-2.589,2.519-2.589,1.43,0,2.509,1.109,2.509,2.589s-1.079,2.588-2.509,2.588c-1.438,0-2.519-1.109-2.519-2.588ZM487.901,166.193c0-.93-.59-1.63-1.399-1.63-.819,0-1.409.7-1.409,1.63,0,.939.59,1.629,1.409,1.629.81,0,1.399-.689,1.399-1.629Z"/>
    <path d="M490.183,163.684h1.129v.819c.38-.59.93-.899,1.579-.899,1.029,0,1.749.729,1.749,1.789v3.298h-1.14v-2.979c0-.729-.43-1.199-1.099-1.199-.46,0-.83.21-1.09.61v3.567h-1.129v-5.007Z"/>
    <path d="M496.002,161.525l1.13-.199v7.365h-1.13v-7.166Z"/>
    <path d="M498.323,170.81v-.979c.13.03.29.04.439.04.4,0,.64-.18.81-.569l.23-.561-1.89-5.057h1.25l1.279,3.708,1.389-3.708h1.239l-2.398,5.877c-.39.969-.85,1.319-1.789,1.319-.16,0-.359-.021-.56-.07Z"/>
  </g>
  <g>
    <path d="M425.212,191.833v-3.957h1.719v3.957c0,.97.54,1.6,1.379,1.6s1.38-.63,1.38-1.6v-3.957h1.719v3.957c0,1.919-1.209,3.139-3.099,3.139s-3.098-1.22-3.098-3.139Z"/>
    <path d="M432.312,194.341l.71-1.079c.739.39,1.159.52,1.659.52.459,0,.739-.16.739-.42,0-.199-.149-.31-.479-.369l-.989-.181c-1-.189-1.52-.699-1.52-1.499,0-1.049.81-1.679,2.159-1.679.719,0,1.429.2,2.099.59l-.74,1.029c-.52-.3-.999-.439-1.479-.439-.39,0-.62.13-.62.35,0,.21.13.3.53.369l.969.181c1.02.189,1.55.709,1.55,1.489,0,1.009-.95,1.769-2.219,1.769-.939,0-1.77-.22-2.369-.63Z"/>
    <path d="M437.662,192.303c0-1.51,1.119-2.669,2.599-2.669,1.489,0,2.539,1.129,2.539,2.729v.35h-3.549c.15.58.62.97,1.21.97.43,0,.789-.15,1.02-.43l1.069.89c-.67.589-1.3.829-2.169.829-1.52,0-2.719-1.169-2.719-2.668ZM441.299,191.794c-.14-.55-.529-.9-1.049-.9-.51,0-.87.33-1,.9h2.049Z"/>
    <path d="M445.492,189.715h1.529l.72,3.078.869-3.078h1.329l.859,3.068.71-3.068h1.489l-1.369,5.157h-1.539l-.84-3.039-.819,3.039h-1.56l-1.379-5.157Z"/>
    <path d="M453.792,187.756l1.619-.25v3.048c.399-.6.959-.919,1.629-.919,1,0,1.709.729,1.709,1.759v3.479h-1.619v-3.009c0-.579-.34-.959-.859-.959-.35,0-.63.14-.859.43v3.538h-1.619v-7.116Z"/>
    <path d="M459.742,192.303c0-1.51,1.119-2.669,2.599-2.669,1.488,0,2.538,1.129,2.538,2.729v.35h-3.548c.149.58.619.97,1.209.97.43,0,.79-.15,1.02-.43l1.069.89c-.669.589-1.299.829-2.169.829-1.519,0-2.718-1.169-2.718-2.668ZM463.379,191.794c-.14-.55-.529-.9-1.05-.9-.51,0-.869.33-.999.9h2.049Z"/>
    <path d="M465.892,189.715h1.618v.839c.4-.6.96-.919,1.63-.919.999,0,1.709.729,1.709,1.759v3.479h-1.619v-3.009c0-.579-.34-.959-.859-.959-.351,0-.63.14-.86.43v3.538h-1.618v-5.157Z"/>
    <path d="M471.782,190.553c0-.52.409-.949.909-.949s.909.43.909.949-.409.95-.909.95-.909-.43-.909-.95ZM471.782,194.032c0-.52.409-.949.909-.949s.909.43.909.949-.409.949-.909.949-.909-.43-.909-.949Z"/>
  </g>
  <g>
    <circle class="uuid-f9c68ad1-35f8-4301-bd11-8decf65528a4" cx="426.952" cy="165.235" r="3.964"/>
    <path class="uuid-21f888f4-801b-4f89-ba17-e6b4ae26ee81" d="M426.205,167.356c-.098,0-.193-.039-.263-.108l-1.257-1.238c-.147-.145-.149-.383-.004-.53.145-.147.382-.15.53-.004l.985.969,2.489-2.629c.142-.152.379-.156.53-.015.15.143.157.38.015.53l-2.752,2.907c-.069.073-.165.115-.266.117h-.007Z"/>
  </g>
  <g>
    <path d="M438.705,209.173h1.199v5.957h3.728v1.039h-4.927v-6.996Z"/>
    <path d="M444.394,213.671c0-1.47,1.061-2.589,2.439-2.589,1.369,0,2.368,1.089,2.368,2.589v.27h-3.698c.11.81.721,1.399,1.5,1.399.469,0,.909-.18,1.189-.47l.739.669c-.61.51-1.22.73-1.979.73-1.438,0-2.559-1.13-2.559-2.599ZM448.132,213.241c-.119-.73-.64-1.239-1.309-1.239-.68,0-1.18.489-1.31,1.239h2.618Z"/>
    <path d="M450.705,217.868l.39-.829c.589.289,1.069.419,1.569.419.84,0,1.279-.379,1.279-1.109v-.849c-.36.439-.91.699-1.539.699-1.27,0-2.26-1.13-2.26-2.549s1.029-2.528,2.34-2.528c.579,0,1.099.229,1.469.67v-.63h1.119v5.187c0,1.29-.84,2.01-2.358,2.01-.72,0-1.419-.181-2.009-.49ZM453.943,214.71v-2.099c-.29-.34-.721-.54-1.189-.54-.859,0-1.5.67-1.5,1.589,0,.91.641,1.6,1.5,1.6.489,0,.899-.2,1.189-.55Z"/>
    <path d="M456.205,214.729c0-.899.739-1.469,1.919-1.469.47,0,.909.1,1.349.32v-.561c0-.659-.379-.999-1.148-.999-.42,0-.88.12-1.459.39l-.4-.819c.75-.34,1.409-.51,2.078-.51,1.311,0,2.049.659,2.049,1.819v3.268h-1.119v-.52c-.43.42-.909.609-1.488.609-1.05,0-1.779-.629-1.779-1.529ZM458.293,215.46c.45,0,.839-.13,1.179-.42v-.81c-.359-.17-.719-.24-1.148-.24-.65,0-1.061.27-1.061.72,0,.46.4.75,1.03.75Z"/>
    <path d="M461.734,213.671c0-1.449,1.1-2.589,2.529-2.589.779,0,1.499.31,1.998.85l-.699.729c-.35-.39-.779-.59-1.259-.59-.81,0-1.439.7-1.439,1.6,0,.909.63,1.599,1.439,1.599.479,0,.909-.2,1.259-.579l.699.719c-.499.54-1.219.85-1.998.85-1.43,0-2.529-1.129-2.529-2.588Z"/>
    <path d="M466.994,218.288v-.979c.131.03.291.04.44.04.399,0,.64-.18.81-.569l.23-.561-1.89-5.057h1.249l1.279,3.708,1.39-3.708h1.239l-2.398,5.877c-.391.969-.85,1.319-1.789,1.319-.16,0-.359-.021-.561-.07Z"/>
    <path d="M474.554,214.729c0-.899.739-1.469,1.919-1.469.47,0,.909.1,1.349.32v-.561c0-.659-.379-.999-1.148-.999-.42,0-.88.12-1.459.39l-.4-.819c.75-.34,1.409-.51,2.078-.51,1.311,0,2.049.659,2.049,1.819v3.268h-1.119v-.52c-.43.42-.909.609-1.488.609-1.05,0-1.779-.629-1.779-1.529ZM476.643,215.46c.45,0,.839-.13,1.179-.42v-.81c-.359-.17-.719-.24-1.148-.24-.65,0-1.061.27-1.061.72,0,.46.4.75,1.03.75Z"/>
    <path d="M480.314,211.162h1.109v.709c.359-.47.92-.749,1.559-.749,1.27,0,2.26,1.129,2.26,2.549,0,1.429-1.02,2.548-2.329,2.548-.59,0-1.109-.22-1.47-.64v2.679h-1.129v-7.096ZM484.132,213.671c0-.91-.641-1.6-1.49-1.6-.499,0-.909.2-1.199.56v2.089c.29.35.721.56,1.199.56.859,0,1.49-.689,1.49-1.608Z"/>
    <path d="M486.423,211.162h1.109v.709c.36-.47.92-.749,1.56-.749,1.27,0,2.259,1.129,2.259,2.549,0,1.429-1.02,2.548-2.328,2.548-.59,0-1.109-.22-1.47-.64v2.679h-1.13v-7.096ZM490.242,213.671c0-.91-.64-1.6-1.489-1.6-.499,0-.909.2-1.199.56v2.089c.29.35.72.56,1.199.56.859,0,1.489-.689,1.489-1.608Z"/>
    <path d="M492.534,209.003l1.13-.199v7.365h-1.13v-7.166Z"/>
    <path d="M494.914,209.453c0-.38.311-.7.699-.7.381,0,.7.32.7.7s-.319.689-.7.689c-.389,0-.699-.31-.699-.689ZM495.043,211.162h1.13v5.007h-1.13v-5.007Z"/>
    <path d="M497.343,213.671c0-1.449,1.1-2.589,2.529-2.589.779,0,1.499.31,1.998.85l-.699.729c-.35-.39-.779-.59-1.259-.59-.81,0-1.439.7-1.439,1.6,0,.909.63,1.599,1.439,1.599.479,0,.909-.2,1.259-.579l.699.719c-.499.54-1.219.85-1.998.85-1.43,0-2.529-1.129-2.529-2.588Z"/>
    <path d="M502.544,214.729c0-.899.738-1.469,1.918-1.469.471,0,.91.1,1.35.32v-.561c0-.659-.38-.999-1.149-.999-.42,0-.88.12-1.459.39l-.399-.819c.749-.34,1.408-.51,2.078-.51,1.31,0,2.049.659,2.049,1.819v3.268h-1.119v-.52c-.43.42-.91.609-1.489.609-1.05,0-1.778-.629-1.778-1.529ZM504.632,215.46c.45,0,.84-.13,1.18-.42v-.81c-.359-.17-.72-.24-1.149-.24-.649,0-1.06.27-1.06.72,0,.46.4.75,1.029.75Z"/>
    <path d="M508.773,214.87v-2.809h-1v-.899h1v-1.38l1.129-.239v1.619h1.39v.899h-1.39v2.559c0,.489.19.68.7.68.22,0,.38-.03.68-.12v.949c-.29.09-.67.141-.97.141-1.01,0-1.539-.48-1.539-1.399Z"/>
    <path d="M512.154,209.453c0-.38.31-.7.699-.7.38,0,.699.32.699.7s-.319.689-.699.689c-.39,0-.699-.31-.699-.689ZM512.283,211.162h1.13v5.007h-1.13v-5.007Z"/>
    <path d="M514.584,213.671c0-1.479,1.08-2.589,2.519-2.589,1.429,0,2.509,1.109,2.509,2.589s-1.08,2.588-2.509,2.588c-1.438,0-2.519-1.109-2.519-2.588ZM518.501,213.671c0-.93-.59-1.63-1.399-1.63-.819,0-1.409.7-1.409,1.63,0,.939.59,1.629,1.409,1.629.81,0,1.399-.689,1.399-1.629Z"/>
    <path d="M520.783,211.162h1.13v.819c.38-.59.929-.899,1.579-.899,1.029,0,1.749.729,1.749,1.789v3.298h-1.14v-2.979c0-.729-.43-1.199-1.1-1.199-.459,0-.829.21-1.089.61v3.567h-1.13v-5.007Z"/>
    <path d="M526.154,215.59l.529-.75c.659.41,1.1.569,1.609.569.6,0,1.009-.279,1.009-.68,0-.31-.21-.47-.699-.569l-.88-.149c-.979-.181-1.449-.63-1.449-1.38,0-.939.77-1.549,1.939-1.549.699,0,1.329.2,1.969.6l-.529.75c-.51-.33-1-.48-1.51-.48-.52,0-.859.22-.859.58,0,.319.18.46.699.55l.89.17c.999.18,1.479.64,1.479,1.389,0,.92-.88,1.63-2.049,1.63-.859,0-1.619-.24-2.148-.68Z"/>
  </g>
  <g>
    <path d="M438.705,231.973h1.169l3.647,5.087-.02-5.087h1.129v6.996h-1.068l-3.748-5.228.02,5.228h-1.129v-6.996Z"/>
    <path d="M445.814,237.53c0-.899.74-1.469,1.92-1.469.469,0,.908.1,1.349.319v-.56c0-.66-.38-1-1.149-1-.42,0-.879.12-1.459.391l-.4-.82c.75-.34,1.41-.51,2.079-.51,1.31,0,2.049.66,2.049,1.819v3.269h-1.119v-.52c-.43.419-.909.609-1.489.609-1.049,0-1.779-.63-1.779-1.529ZM447.904,238.259c.449,0,.839-.13,1.179-.42v-.81c-.36-.17-.72-.239-1.149-.239-.649,0-1.06.27-1.06.72,0,.459.399.749,1.03.749Z"/>
    <path d="M452.044,237.67v-2.809h-1v-.899h1v-1.379l1.129-.24v1.619h1.389v.899h-1.389v2.559c0,.49.189.68.699.68.221,0,.38-.029.68-.119v.949c-.289.09-.67.14-.969.14-1.01,0-1.539-.479-1.539-1.399Z"/>
    <path d="M455.423,232.253c0-.38.311-.699.7-.699.38,0,.7.319.7.699s-.32.689-.7.689c-.39,0-.7-.31-.7-.689ZM455.554,233.962h1.129v5.008h-1.129v-5.008Z"/>
    <path d="M457.494,233.962h1.23l1.398,3.639,1.39-3.639h1.179l-2.059,5.008h-1.1l-2.039-5.008Z"/>
    <path d="M463.125,236.47c0-1.469,1.059-2.589,2.438-2.589,1.37,0,2.369,1.09,2.369,2.589v.27h-3.697c.109.81.719,1.399,1.498,1.399.471,0,.91-.18,1.189-.47l.74.67c-.609.51-1.219.729-1.979.729-1.439,0-2.559-1.129-2.559-2.599ZM466.862,236.041c-.12-.729-.64-1.239-1.31-1.239-.68,0-1.179.489-1.309,1.239h2.618Z"/>
    <path d="M473.222,233.012h-2.338v-1.039h5.877v1.039h-2.339v5.957h-1.2v-5.957Z"/>
    <path d="M477.853,231.973h1.2v5.956h3.728v1.04h-4.928v-6.996Z"/>
    <path d="M483.513,237.95l.65-.88c.899.74,1.549,1.02,2.358,1.02.919,0,1.56-.47,1.56-1.119,0-.569-.34-.84-1.27-1l-1.289-.22c-1.209-.22-1.799-.819-1.799-1.778,0-1.27,1.009-2.109,2.578-2.109,1.049,0,2.009.31,2.809.899l-.609.899c-.7-.529-1.449-.81-2.239-.81-.839,0-1.399.43-1.399,1,0,.51.32.77,1.08.89l1.249.21c1.409.249,2.069.869,2.069,1.929,0,1.289-1.141,2.198-2.809,2.198-1.1,0-2.049-.38-2.939-1.129Z"/>
    <path d="M492.584,236.52c0-2.049.85-3.697,2.429-4.667l.59.729c-1.29.829-1.999,2.219-1.999,3.938,0,1.729.709,3.118,1.999,3.948l-.59.72c-1.579-.97-2.429-2.619-2.429-4.668Z"/>
    <path d="M496.454,236.47c0-1.429,1.029-2.549,2.339-2.549.569,0,1.09.23,1.459.65v-2.769l1.129-.2v7.366h-1.119v-.66c-.359.45-.919.71-1.549.71-1.27,0-2.259-1.13-2.259-2.549ZM500.251,237.52v-2.109c-.289-.34-.72-.539-1.189-.539-.859,0-1.499.68-1.499,1.599,0,.909.64,1.6,1.499,1.6.49,0,.9-.19,1.189-.55Z"/>
    <path d="M502.523,237.53c0-.899.74-1.469,1.92-1.469.469,0,.908.1,1.349.319v-.56c0-.66-.38-1-1.149-1-.42,0-.879.12-1.459.391l-.4-.82c.75-.34,1.41-.51,2.079-.51,1.31,0,2.049.66,2.049,1.819v3.269h-1.119v-.52c-.43.419-.909.609-1.489.609-1.049,0-1.779-.63-1.779-1.529ZM504.613,238.259c.449,0,.839-.13,1.179-.42v-.81c-.36-.17-.72-.239-1.149-.239-.649,0-1.06.27-1.06.72,0,.459.399.749,1.03.749Z"/>
    <path d="M508.753,237.67v-2.809h-1v-.899h1v-1.379l1.129-.24v1.619h1.389v.899h-1.389v2.559c0,.49.189.68.699.68.221,0,.38-.029.68-.119v.949c-.289.09-.67.14-.969.14-1.01,0-1.539-.479-1.539-1.399Z"/>
    <path d="M512.013,237.53c0-.899.739-1.469,1.919-1.469.47,0,.909.1,1.349.319v-.56c0-.66-.379-1-1.148-1-.42,0-.88.12-1.459.391l-.4-.82c.75-.34,1.409-.51,2.078-.51,1.311,0,2.049.66,2.049,1.819v3.269h-1.119v-.52c-.43.419-.909.609-1.488.609-1.05,0-1.779-.63-1.779-1.529ZM514.102,238.259c.45,0,.839-.13,1.179-.42v-.81c-.359-.17-.719-.239-1.148-.239-.65,0-1.061.27-1.061.72,0,.459.4.749,1.03.749Z"/>
    <path d="M517.773,231.833l1.129-.189v2.988c.35-.439.91-.71,1.539-.71,1.27,0,2.26,1.13,2.26,2.549,0,1.43-1.02,2.549-2.329,2.549-.59,0-1.109-.24-1.489-.689v.64h-1.109v-7.137ZM521.591,236.47c0-.909-.641-1.599-1.49-1.599-.499,0-.909.199-1.199.56v2.089c.29.35.721.56,1.199.56.859,0,1.49-.689,1.49-1.609Z"/>
    <path d="M523.673,237.53c0-.899.738-1.469,1.918-1.469.471,0,.91.1,1.35.319v-.56c0-.66-.38-1-1.149-1-.42,0-.88.12-1.459.391l-.399-.82c.749-.34,1.408-.51,2.078-.51,1.31,0,2.049.66,2.049,1.819v3.269h-1.119v-.52c-.43.419-.91.609-1.489.609-1.05,0-1.778-.63-1.778-1.529ZM525.761,238.259c.45,0,.84-.13,1.18-.42v-.81c-.359-.17-.72-.239-1.149-.239-.649,0-1.06.27-1.06.72,0,.459.4.749,1.029.749Z"/>
    <path d="M528.983,238.389l.53-.749c.659.409,1.099.569,1.608.569.6,0,1.009-.28,1.009-.68,0-.31-.209-.47-.699-.569l-.879-.15c-.98-.18-1.449-.63-1.449-1.379,0-.939.77-1.55,1.938-1.55.7,0,1.329.2,1.97.601l-.53.749c-.51-.33-.999-.479-1.509-.479-.52,0-.859.22-.859.579,0,.32.18.46.699.55l.889.17c1,.181,1.48.64,1.48,1.39,0,.919-.881,1.629-2.05,1.629-.859,0-1.618-.24-2.148-.68Z"/>
    <path d="M534.042,236.47c0-1.469,1.06-2.589,2.438-2.589,1.37,0,2.369,1.09,2.369,2.589v.27h-3.698c.109.81.72,1.399,1.499,1.399.47,0,.909-.18,1.189-.47l.739.67c-.609.51-1.219.729-1.979.729-1.439,0-2.559-1.129-2.559-2.599ZM537.781,236.041c-.12-.729-.641-1.239-1.31-1.239-.68,0-1.179.489-1.31,1.239h2.619Z"/>
    <path d="M539.603,238.389l.529-.749c.659.409,1.1.569,1.609.569.6,0,1.009-.28,1.009-.68,0-.31-.21-.47-.699-.569l-.88-.15c-.979-.18-1.449-.63-1.449-1.379,0-.939.77-1.55,1.939-1.55.699,0,1.329.2,1.969.601l-.529.749c-.51-.33-1-.479-1.51-.479-.52,0-.859.22-.859.579,0,.32.18.46.699.55l.89.17c.999.181,1.479.64,1.479,1.39,0,.919-.88,1.629-2.049,1.629-.859,0-1.619-.24-2.148-.68Z"/>
    <path d="M547.591,236.531c0,2.049-.85,3.697-2.43,4.667l-.59-.729c1.29-.83,2-2.219,2-3.938,0-1.729-.71-3.119-2-3.948l.59-.72c1.58.97,2.43,2.619,2.43,4.668Z"/>
  </g>
  <g>
    <path d="M438.705,253.274h2.559c2.009,0,3.508,1.529,3.508,3.498s-1.499,3.498-3.508,3.498h-2.559v-6.996ZM441.292,259.23c1.26,0,2.249-1.069,2.249-2.458s-.989-2.459-2.249-2.459h-1.389v4.917h1.389Z"/>
    <path d="M445.754,257.771c0-1.469,1.06-2.589,2.438-2.589,1.369,0,2.369,1.09,2.369,2.589v.27h-3.698c.11.81.72,1.399,1.499,1.399.47,0,.91-.18,1.189-.47l.74.67c-.61.51-1.22.729-1.979.729-1.438,0-2.559-1.129-2.559-2.599ZM449.492,257.341c-.119-.729-.639-1.239-1.309-1.239-.68,0-1.18.489-1.309,1.239h2.617Z"/>
    <path d="M451.714,253.133l1.129-.189v2.988c.35-.439.91-.71,1.539-.71,1.27,0,2.26,1.13,2.26,2.549,0,1.43-1.02,2.549-2.329,2.549-.59,0-1.109-.24-1.489-.689v.64h-1.109v-7.137ZM455.533,257.771c0-.909-.641-1.599-1.49-1.599-.499,0-.909.199-1.199.56v2.089c.29.35.721.56,1.199.56.859,0,1.49-.689,1.49-1.609Z"/>
    <path d="M457.785,258.561v-3.299h1.139v2.969c0,.739.43,1.209,1.1,1.209.449,0,.83-.199,1.09-.6v-3.578h1.129v5.008h-1.129v-.81c-.381.59-.92.89-1.59.89-1.02,0-1.738-.74-1.738-1.789Z"/>
    <path d="M463.974,261.969l.39-.83c.589.29,1.069.42,1.569.42.84,0,1.279-.38,1.279-1.109v-.85c-.36.439-.91.699-1.539.699-1.27,0-2.26-1.129-2.26-2.548s1.029-2.529,2.34-2.529c.579,0,1.099.23,1.469.67v-.63h1.119v5.188c0,1.289-.84,2.009-2.358,2.009-.72,0-1.419-.18-2.009-.489ZM467.212,258.811v-2.1c-.29-.34-.721-.539-1.189-.539-.859,0-1.5.669-1.5,1.589,0,.909.641,1.599,1.5,1.599.489,0,.899-.199,1.189-.549Z"/>
    <path d="M470.064,261.969l.39-.83c.589.29,1.069.42,1.569.42.84,0,1.279-.38,1.279-1.109v-.85c-.36.439-.91.699-1.539.699-1.27,0-2.26-1.129-2.26-2.548s1.029-2.529,2.34-2.529c.579,0,1.099.23,1.469.67v-.63h1.119v5.188c0,1.289-.84,2.009-2.358,2.009-.72,0-1.419-.18-2.009-.489ZM473.302,258.811v-2.1c-.29-.34-.721-.539-1.189-.539-.859,0-1.5.669-1.5,1.589,0,.909.641,1.599,1.5,1.599.489,0,.899-.199,1.189-.549Z"/>
    <path d="M475.684,253.553c0-.38.31-.699.7-.699.379,0,.699.319.699.699s-.32.689-.699.689c-.391,0-.7-.31-.7-.689ZM475.814,255.262h1.129v5.008h-1.129v-5.008Z"/>
    <path d="M478.343,255.262h1.13v.82c.38-.59.929-.9,1.579-.9,1.029,0,1.749.73,1.749,1.789v3.299h-1.14v-2.979c0-.729-.43-1.199-1.1-1.199-.459,0-.829.21-1.089.609v3.568h-1.13v-5.008Z"/>
    <path d="M484.494,261.969l.391-.83c.589.29,1.068.42,1.568.42.84,0,1.279-.38,1.279-1.109v-.85c-.359.439-.909.699-1.539.699-1.27,0-2.259-1.129-2.259-2.548s1.029-2.529,2.339-2.529c.58,0,1.1.23,1.469.67v-.63h1.119v5.188c0,1.289-.839,2.009-2.358,2.009-.72,0-1.419-.18-2.009-.489ZM487.732,258.811v-2.1c-.289-.34-.72-.539-1.189-.539-.859,0-1.499.669-1.499,1.589,0,.909.64,1.599,1.499,1.599.49,0,.9-.199,1.189-.549Z"/>
    <path d="M492.054,259.69l.529-.749c.66.409,1.1.569,1.609.569.6,0,1.01-.28,1.01-.68,0-.31-.21-.47-.699-.569l-.881-.15c-.979-.18-1.449-.63-1.449-1.379,0-.939.77-1.55,1.939-1.55.699,0,1.33.2,1.969.601l-.529.749c-.51-.33-1-.479-1.51-.479-.52,0-.859.22-.859.579,0,.32.18.46.7.55l.89.17c.999.181,1.479.64,1.479,1.39,0,.919-.879,1.629-2.049,1.629-.859,0-1.619-.24-2.148-.68Z"/>
    <path d="M497.113,257.771c0-1.449,1.1-2.589,2.529-2.589.779,0,1.499.311,1.998.85l-.699.729c-.35-.39-.779-.589-1.259-.589-.81,0-1.439.699-1.439,1.599,0,.909.63,1.6,1.439,1.6.479,0,.909-.2,1.259-.58l.699.72c-.499.54-1.219.85-1.998.85-1.43,0-2.529-1.13-2.529-2.589Z"/>
    <path d="M502.193,257.771c0-1.469,1.061-2.589,2.439-2.589,1.369,0,2.368,1.09,2.368,2.589v.27h-3.698c.11.81.721,1.399,1.5,1.399.469,0,.909-.18,1.189-.47l.739.67c-.61.51-1.22.729-1.979.729-1.438,0-2.559-1.129-2.559-2.599ZM505.931,257.341c-.119-.729-.64-1.239-1.309-1.239-.68,0-1.18.489-1.31,1.239h2.618Z"/>
    <path d="M508.154,255.262h1.129v.82c.38-.59.93-.9,1.579-.9,1.029,0,1.749.73,1.749,1.789v3.299h-1.14v-2.979c0-.729-.43-1.199-1.099-1.199-.461,0-.83.21-1.09.609v3.568h-1.129v-5.008Z"/>
    <path d="M513.713,258.831c0-.899.739-1.469,1.919-1.469.47,0,.909.1,1.35.319v-.56c0-.66-.381-1-1.15-1-.42,0-.879.12-1.459.391l-.399-.82c.749-.34,1.409-.51,2.079-.51,1.309,0,2.049.66,2.049,1.819v3.269h-1.119v-.52c-.43.419-.91.609-1.49.609-1.049,0-1.778-.63-1.778-1.529ZM515.802,259.56c.449,0,.84-.13,1.18-.42v-.81c-.36-.17-.721-.239-1.15-.239-.648,0-1.059.27-1.059.72,0,.459.399.749,1.029.749Z"/>
    <path d="M519.473,255.262h1.13v1.08c.279-.76.759-1.17,1.379-1.17.189.01.319.03.489.101v.989c-.18-.07-.409-.12-.62-.12-.549,0-.999.31-1.248.829v3.299h-1.13v-5.008Z"/>
    <path d="M523.263,253.553c0-.38.31-.699.699-.699.38,0,.699.319.699.699s-.319.689-.699.689c-.39,0-.699-.31-.699-.689ZM523.392,255.262h1.13v5.008h-1.13v-5.008Z"/>
    <path d="M525.693,257.771c0-1.479,1.08-2.589,2.519-2.589,1.429,0,2.509,1.109,2.509,2.589s-1.08,2.589-2.509,2.589c-1.438,0-2.519-1.109-2.519-2.589ZM529.611,257.771c0-.93-.59-1.629-1.399-1.629-.819,0-1.409.699-1.409,1.629,0,.939.59,1.629,1.409,1.629.81,0,1.399-.689,1.399-1.629Z"/>
    <path d="M531.443,259.69l.53-.749c.659.409,1.099.569,1.608.569.6,0,1.01-.28,1.01-.68,0-.31-.209-.47-.699-.569l-.88-.15c-.979-.18-1.449-.63-1.449-1.379,0-.939.77-1.55,1.938-1.55.7,0,1.33.2,1.97.601l-.53.749c-.51-.33-.999-.479-1.509-.479-.52,0-.859.22-.859.579,0,.32.18.46.699.55l.89.17c1,.181,1.479.64,1.479,1.39,0,.919-.88,1.629-2.049,1.629-.86,0-1.619-.24-2.149-.68Z"/>
  </g>
  <circle cx="426.364" cy="213.348" r="2"/>
  <circle cx="426.364" cy="234.858" r="2"/>
  <circle cx="426.364" cy="254.993" r="2"/>
  <g>
    <path d="M47.44,81.995h3.119c1.309,0,2.199.75,2.199,1.839,0,.709-.44,1.279-1.14,1.549.84.25,1.379.859,1.379,1.659,0,1.159-.93,1.949-2.309,1.949h-3.249v-6.996ZM50.429,84.944c.679,0,1.129-.39,1.129-.989,0-.59-.44-.979-1.129-.979h-1.789v1.969h1.789ZM50.539,88.012c.759,0,1.249-.43,1.249-1.08s-.479-1.069-1.249-1.069h-1.899v2.149h1.899Z"/>
    <path d="M53.931,86.493c0-1.479,1.08-2.589,2.519-2.589,1.429,0,2.509,1.109,2.509,2.589s-1.08,2.588-2.509,2.588c-1.439,0-2.519-1.109-2.519-2.588ZM57.849,86.493c0-.93-.59-1.629-1.399-1.629-.819,0-1.409.7-1.409,1.629,0,.939.59,1.629,1.409,1.629.81,0,1.399-.689,1.399-1.629Z"/>
    <path d="M60.521,87.692v-2.809h-1v-.899h1v-1.379l1.129-.24v1.619h1.389v.899h-1.389v2.559c0,.49.19.68.7.68.22,0,.379-.03.68-.12v.949c-.29.09-.67.14-.97.14-1.009,0-1.539-.48-1.539-1.399Z"/>
    <path d="M64.041,81.825l1.129-.2v3.178c.38-.59.929-.9,1.579-.9,1.029,0,1.749.73,1.749,1.789v3.298h-1.14v-2.979c0-.729-.43-1.199-1.099-1.199-.46,0-.83.21-1.089.61v3.568h-1.129v-7.166Z"/>
    <path d="M72.11,83.984h1.129v.79c.37-.57.87-.87,1.479-.87.689,0,1.219.37,1.479.959.39-.629.949-.959,1.659-.959.97,0,1.639.75,1.639,1.809v3.278h-1.129v-3.028c0-.7-.39-1.149-1.009-1.149-.41,0-.75.19-1,.6.01.1.02.2.02.3v3.278h-1.139v-3.028c0-.7-.39-1.149-1.01-1.149-.41,0-.74.19-.989.58v3.598h-1.129v-5.007Z"/>
    <path d="M82.259,83.035h-2.338v-1.04h5.876v1.04h-2.338v5.957h-1.2v-5.957Z"/>
    <path d="M86.89,81.995h1.2v5.957h3.728v1.04h-4.927v-6.996Z"/>
    <path d="M92.55,87.972l.65-.879c.899.74,1.549,1.02,2.358,1.02.919,0,1.559-.47,1.559-1.12,0-.569-.339-.839-1.269-1l-1.29-.22c-1.209-.22-1.799-.819-1.799-1.779,0-1.27,1.009-2.109,2.579-2.109,1.049,0,2.009.31,2.809.899l-.61.899c-.7-.53-1.449-.81-2.239-.81-.839,0-1.399.43-1.399,1,0,.51.32.77,1.079.89l1.25.21c1.409.25,2.069.869,2.069,1.929,0,1.289-1.14,2.199-2.809,2.199-1.099,0-2.049-.38-2.938-1.129Z"/>
    <path d="M101.37,87.552c0-.899.739-1.469,1.919-1.469.47,0,.909.1,1.349.32v-.56c0-.66-.38-1-1.149-1-.42,0-.879.12-1.459.39l-.4-.82c.75-.34,1.409-.51,2.079-.51,1.31,0,2.049.66,2.049,1.819v3.268h-1.119v-.52c-.43.419-.91.609-1.489.609-1.049,0-1.779-.629-1.779-1.529ZM103.459,88.282c.45,0,.839-.13,1.179-.42v-.81c-.36-.17-.72-.24-1.149-.24-.649,0-1.06.27-1.06.72,0,.459.4.75,1.03.75Z"/>
    <path d="M107.13,83.984h1.129v.82c.38-.59.929-.9,1.579-.9,1.029,0,1.749.73,1.749,1.789v3.298h-1.14v-2.979c0-.729-.43-1.199-1.099-1.199-.46,0-.83.21-1.089.61v3.568h-1.129v-5.007Z"/>
    <path d="M112.72,86.493c0-1.429,1.029-2.549,2.339-2.549.569,0,1.089.23,1.459.65v-2.769l1.129-.2v7.366h-1.119v-.66c-.36.45-.919.709-1.549.709-1.27,0-2.259-1.129-2.259-2.548ZM116.518,87.542v-2.109c-.29-.34-.72-.54-1.189-.54-.859,0-1.499.68-1.499,1.599,0,.909.64,1.599,1.499,1.599.49,0,.9-.19,1.189-.55Z"/>
    <path d="M121.299,83.984h1.109v.709c.36-.47.919-.75,1.559-.75,1.27,0,2.259,1.129,2.259,2.549,0,1.429-1.02,2.548-2.329,2.548-.59,0-1.109-.22-1.469-.64v2.679h-1.129v-7.096ZM125.117,86.493c0-.91-.64-1.599-1.489-1.599-.5,0-.91.2-1.199.56v2.089c.29.35.72.56,1.199.56.859,0,1.489-.689,1.489-1.609Z"/>
    <path d="M127.41,81.825l1.129-.2v7.366h-1.129v-7.166Z"/>
    <path d="M129.669,87.552c0-.899.739-1.469,1.919-1.469.47,0,.909.1,1.349.32v-.56c0-.66-.38-1-1.149-1-.42,0-.879.12-1.459.39l-.4-.82c.75-.34,1.409-.51,2.079-.51,1.31,0,2.049.66,2.049,1.819v3.268h-1.119v-.52c-.43.419-.91.609-1.489.609-1.049,0-1.779-.629-1.779-1.529ZM131.758,88.282c.45,0,.839-.13,1.179-.42v-.81c-.36-.17-.72-.24-1.149-.24-.649,0-1.06.27-1.06.72,0,.459.4.75,1.03.75Z"/>
    <path d="M135.289,82.275c0-.38.31-.7.7-.7.38,0,.7.32.7.7s-.32.689-.7.689c-.39,0-.7-.31-.7-.689ZM135.419,83.984h1.129v5.007h-1.129v-5.007Z"/>
    <path d="M137.949,83.984h1.129v.82c.38-.59.929-.9,1.579-.9,1.029,0,1.749.73,1.749,1.789v3.298h-1.14v-2.979c0-.729-.43-1.199-1.099-1.199-.46,0-.83.21-1.089.61v3.568h-1.129v-5.007Z"/>
    <path d="M143.629,85.673h3.488v.959h-3.488v-.959Z"/>
    <path d="M148.959,87.692v-2.809h-1v-.899h1v-1.379l1.129-.24v1.619h1.389v.899h-1.389v2.559c0,.49.19.68.7.68.22,0,.379-.03.68-.12v.949c-.29.09-.67.14-.97.14-1.009,0-1.539-.48-1.539-1.399Z"/>
    <path d="M152.169,86.493c0-1.469,1.06-2.589,2.438-2.589,1.37,0,2.369,1.089,2.369,2.589v.27h-3.698c.11.81.72,1.399,1.499,1.399.47,0,.91-.18,1.189-.47l.74.669c-.61.51-1.219.73-1.979.73-1.439,0-2.559-1.129-2.559-2.599ZM155.907,86.063c-.12-.73-.64-1.239-1.309-1.239-.68,0-1.179.49-1.309,1.239h2.618Z"/>
    <path d="M159.118,86.413l-1.809-2.429h1.33l1.169,1.649,1.169-1.649h1.27l-1.829,2.458,1.909,2.549h-1.319l-1.259-1.749-1.259,1.749h-1.259l1.889-2.579Z"/>
    <path d="M163.669,87.692v-2.809h-1v-.899h1v-1.379l1.129-.24v1.619h1.389v.899h-1.389v2.559c0,.49.19.68.7.68.22,0,.379-.03.68-.12v.949c-.29.09-.67.14-.97.14-1.009,0-1.539-.48-1.539-1.399Z"/>
  </g>
  <g>
    <path d="M272.251,85.493c0-2.019,1.559-3.608,3.538-3.608s3.538,1.589,3.538,3.608-1.559,3.608-3.538,3.608-3.538-1.589-3.538-3.608ZM278.099,85.493c0-1.439-1-2.529-2.309-2.529s-2.318,1.089-2.318,2.529,1.009,2.529,2.318,2.529,2.309-1.09,2.309-2.529Z"/>
    <path d="M280.552,83.984h1.129v.82c.38-.59.929-.9,1.579-.9,1.029,0,1.749.73,1.749,1.789v3.298h-1.14v-2.979c0-.729-.43-1.199-1.099-1.199-.46,0-.83.21-1.089.61v3.568h-1.129v-5.007Z"/>
    <path d="M286.372,81.825l1.129-.2v7.366h-1.129v-7.166Z"/>
    <path d="M288.691,91.11v-.979c.13.03.29.04.44.04.4,0,.64-.18.81-.569l.23-.56-1.889-5.057h1.25l1.279,3.708,1.389-3.708h1.239l-2.398,5.877c-.39.969-.85,1.319-1.789,1.319-.16,0-.36-.02-.56-.07Z"/>
    <path d="M296.511,83.984h1.129v.79c.37-.57.87-.87,1.479-.87.689,0,1.219.37,1.479.959.39-.629.949-.959,1.658-.959.97,0,1.64.75,1.64,1.809v3.278h-1.13v-3.028c0-.7-.39-1.149-1.009-1.149-.41,0-.75.19-1,.6.01.1.021.2.021.3v3.278h-1.14v-3.028c0-.7-.39-1.149-1.009-1.149-.41,0-.739.19-.989.58v3.598h-1.129v-5.007Z"/>
    <path d="M306.66,83.035h-2.338v-1.04h5.876v1.04h-2.338v5.957h-1.2v-5.957Z"/>
    <path d="M311.291,81.995h1.199v5.957h3.728v1.04h-4.927v-6.996Z"/>
    <path d="M316.951,87.972l.65-.879c.899.74,1.549,1.02,2.358,1.02.919,0,1.559-.47,1.559-1.12,0-.569-.339-.839-1.269-1l-1.29-.22c-1.209-.22-1.799-.819-1.799-1.779,0-1.27,1.01-2.109,2.579-2.109,1.049,0,2.009.31,2.809.899l-.61.899c-.699-.53-1.449-.81-2.238-.81-.84,0-1.399.43-1.399,1,0,.51.32.77,1.079.89l1.25.21c1.409.25,2.068.869,2.068,1.929,0,1.289-1.14,2.199-2.809,2.199-1.1,0-2.049-.38-2.938-1.129Z"/>
  </g>
  <g>
    <path d="M456.745,85.493c0-2.019,1.559-3.608,3.538-3.608s3.538,1.589,3.538,3.608-1.56,3.608-3.538,3.608-3.538-1.589-3.538-3.608ZM462.591,85.493c0-1.439-.999-2.529-2.309-2.529s-2.318,1.089-2.318,2.529,1.009,2.529,2.318,2.529,2.309-1.09,2.309-2.529Z"/>
    <path d="M465.044,83.984h1.13v.82c.38-.59.929-.9,1.579-.9,1.029,0,1.749.73,1.749,1.789v3.298h-1.14v-2.979c0-.729-.43-1.199-1.1-1.199-.46,0-.829.21-1.089.61v3.568h-1.13v-5.007Z"/>
    <path d="M470.865,81.825l1.129-.2v7.366h-1.129v-7.166Z"/>
    <path d="M473.184,91.11v-.979c.131.03.29.04.44.04.399,0,.64-.18.81-.569l.229-.56-1.889-5.057h1.249l1.279,3.708,1.39-3.708h1.239l-2.398,5.877c-.391.969-.85,1.319-1.789,1.319-.16,0-.36-.02-.561-.07Z"/>
    <path d="M481.004,83.984h1.109v.709c.359-.47.919-.75,1.559-.75,1.27,0,2.259,1.129,2.259,2.549,0,1.429-1.02,2.548-2.328,2.548-.59,0-1.109-.22-1.47-.64v2.679h-1.129v-7.096ZM484.822,86.493c0-.91-.64-1.599-1.489-1.599-.499,0-.909.2-1.199.56v2.089c.29.35.72.56,1.199.56.859,0,1.489-.689,1.489-1.609Z"/>
    <path d="M487.114,81.825l1.13-.2v7.366h-1.13v-7.166Z"/>
    <path d="M489.375,87.552c0-.899.739-1.469,1.919-1.469.47,0,.909.1,1.349.32v-.56c0-.66-.38-1-1.149-1-.42,0-.879.12-1.459.39l-.399-.82c.749-.34,1.409-.51,2.078-.51,1.31,0,2.049.66,2.049,1.819v3.268h-1.119v-.52c-.43.419-.909.609-1.489.609-1.049,0-1.778-.629-1.778-1.529ZM491.463,88.282c.449,0,.839-.13,1.179-.42v-.81c-.359-.17-.72-.24-1.149-.24-.649,0-1.06.27-1.06.72,0,.459.4.75,1.03.75Z"/>
    <path d="M494.994,82.275c0-.38.311-.7.7-.7.38,0,.699.32.699.7s-.319.689-.699.689c-.39,0-.7-.31-.7-.689ZM495.124,83.984h1.13v5.007h-1.13v-5.007Z"/>
    <path d="M497.654,83.984h1.13v.82c.38-.59.929-.9,1.579-.9,1.029,0,1.749.73,1.749,1.789v3.298h-1.14v-2.979c0-.729-.43-1.199-1.1-1.199-.46,0-.829.21-1.089.61v3.568h-1.13v-5.007Z"/>
    <path d="M503.334,85.673h3.488v.959h-3.488v-.959Z"/>
    <path d="M508.664,87.692v-2.809h-1v-.899h1v-1.379l1.129-.24v1.619h1.39v.899h-1.39v2.559c0,.49.19.68.7.68.22,0,.379-.03.68-.12v.949c-.29.09-.67.14-.97.14-1.01,0-1.539-.48-1.539-1.399Z"/>
    <path d="M511.874,86.493c0-1.469,1.06-2.589,2.438-2.589,1.37,0,2.369,1.089,2.369,2.589v.27h-3.698c.11.81.72,1.399,1.499,1.399.47,0,.91-.18,1.189-.47l.74.669c-.61.51-1.22.73-1.979.73-1.438,0-2.559-1.129-2.559-2.599ZM515.612,86.063c-.12-.73-.64-1.239-1.31-1.239-.68,0-1.179.49-1.309,1.239h2.618Z"/>
    <path d="M518.823,86.413l-1.809-2.429h1.329l1.17,1.649,1.169-1.649h1.27l-1.829,2.458,1.909,2.549h-1.319l-1.26-1.749-1.259,1.749h-1.26l1.889-2.579Z"/>
    <path d="M523.374,87.692v-2.809h-1v-.899h1v-1.379l1.129-.24v1.619h1.39v.899h-1.39v2.559c0,.49.19.68.7.68.22,0,.379-.03.68-.12v.949c-.29.09-.67.14-.97.14-1.01,0-1.539-.48-1.539-1.399Z"/>
  </g>
</svg>