<?xml version="1.0" encoding="UTF-8"?>
<svg id="uuid-cf98f5df-ae59-4904-be7a-da29ecc423f7" data-name="Layer 1" xmlns="http://www.w3.org/2000/svg" width="595.276" height="398.152" viewBox="0 0 595.276 398.152">
  <defs>
    <style>
      .uuid-959ee434-7b7f-45c2-be2a-16b4d5a8b00c {
        stroke: #faaa4f;
      }

      .uuid-959ee434-7b7f-45c2-be2a-16b4d5a8b00c, .uuid-2aea7dc1-948f-4e2a-a50a-a5ac2974f393, .uuid-67fdbf72-0787-460f-960c-2f131d4465bf {
        fill: #fff;
      }

      .uuid-959ee434-7b7f-45c2-be2a-16b4d5a8b00c, .uuid-eb25595d-2e66-4b44-bf38-6fd22774335d, .uuid-67fdbf72-0787-460f-960c-2f131d4465bf {
        stroke-miterlimit: 10;
      }

      .uuid-5ad29f28-7cf6-4a9c-8298-73d7e096706a {
        fill: #06c;
      }

      .uuid-eb25595d-2e66-4b44-bf38-6fd22774335d, .uuid-41db706c-7479-4bf8-a583-885fe273cdac {
        fill: none;
        stroke: #000;
      }

      .uuid-cabcc71d-8904-4c50-9bc7-5e59bb6dd3b1 {
        fill: #a6d3b6;
      }

      .uuid-41db706c-7479-4bf8-a583-885fe273cdac {
        stroke-dasharray: 3 3;
        stroke-linecap: round;
        stroke-linejoin: round;
      }

      .uuid-67fdbf72-0787-460f-960c-2f131d4465bf {
        stroke: #3f9c35;
      }
    </style>
  </defs>
  <rect class="uuid-2aea7dc1-948f-4e2a-a50a-a5ac2974f393" width="595.276" height="398.152"/>
  <rect class="uuid-959ee434-7b7f-45c2-be2a-16b4d5a8b00c" x="26.768" y="121.85" width="220.162" height="156.853"/>
  <rect class="uuid-5ad29f28-7cf6-4a9c-8298-73d7e096706a" x="26.768" y="25.469" width="220.162" height="53.79"/>
  <rect class="uuid-cabcc71d-8904-4c50-9bc7-5e59bb6dd3b1" x="348.346" y="321.294" width="220.162" height="53.79"/>
  <g>
    <path d="M51.283,139.083h3.418c2.351,0,4.222,1.871,4.222,4.198s-1.871,4.198-4.222,4.198h-3.418v-8.396ZM54.701,145.715c1.164,0,2.087-1.079,2.087-2.435s-.923-2.435-2.087-2.435h-1.355v4.869h1.355Z"/>
    <path d="M59.947,144.396c0-1.811,1.344-3.202,3.119-3.202,1.787,0,3.046,1.355,3.046,3.274v.419h-4.258c.18.696.744,1.164,1.451,1.164.516,0,.947-.18,1.223-.516l1.284,1.067c-.804.708-1.56.996-2.603.996-1.823,0-3.263-1.403-3.263-3.203ZM64.313,143.784c-.168-.66-.636-1.08-1.259-1.08-.611,0-1.043.396-1.199,1.08h2.458Z"/>
    <path d="M66.883,146.842l.852-1.295c.887.468,1.391.624,1.991.624.552,0,.888-.192.888-.504,0-.24-.18-.372-.576-.444l-1.188-.216c-1.199-.228-1.823-.839-1.823-1.799,0-1.259.971-2.015,2.59-2.015.864,0,1.715.24,2.519.708l-.887,1.235c-.624-.359-1.2-.527-1.775-.527-.468,0-.744.156-.744.419,0,.252.156.36.636.444l1.164.216c1.223.228,1.859.852,1.859,1.787,0,1.211-1.139,2.123-2.663,2.123-1.127,0-2.123-.264-2.842-.756Z"/>
    <path d="M74.215,145.607v-2.818h-1.2v-1.499h1.2v-1.715l1.943-.396v2.111h1.655v1.499h-1.655v2.435c0,.552.216.744.815.744.228,0,.408-.024.792-.132v1.571c-.36.108-.936.192-1.331.192-1.463,0-2.219-.672-2.219-1.991Z"/>
    <path d="M78.775,139.25c0-.6.492-1.091,1.091-1.091s1.091.492,1.091,1.091-.492,1.091-1.091,1.091-1.091-.492-1.091-1.091ZM78.895,141.29h1.943v6.188h-1.943v-6.188Z"/>
    <path d="M82.351,141.29h1.943v1.007c.479-.72,1.151-1.104,1.955-1.104,1.2,0,2.051.875,2.051,2.111v4.174h-1.943v-3.61c0-.696-.408-1.151-1.031-1.151-.42,0-.756.168-1.031.516v4.246h-1.943v-6.188Z"/>
    <path d="M89.479,145.703c0-1.14.888-1.799,2.411-1.799.444,0,.888.084,1.439.288v-.504c0-.6-.396-.899-1.224-.899-.468,0-1.02.132-1.739.432l-.672-1.355c1.02-.456,1.931-.672,2.842-.672,1.715,0,2.711.852,2.711,2.327v3.958h-1.919v-.54c-.54.456-1.056.635-1.715.635-1.259,0-2.135-.768-2.135-1.871ZM92.213,146.291c.408,0,.78-.108,1.116-.312v-.792c-.36-.084-.708-.132-1.068-.132-.635,0-.995.216-.995.612s.348.624.947.624Z"/>
    <path d="M97.351,145.607v-2.818h-1.2v-1.499h1.2v-1.715l1.943-.396v2.111h1.655v1.499h-1.655v2.435c0,.552.216.744.815.744.228,0,.408-.024.792-.132v1.571c-.36.108-.936.192-1.331.192-1.463,0-2.219-.672-2.219-1.991Z"/>
    <path d="M101.911,139.25c0-.6.492-1.091,1.091-1.091s1.091.492,1.091,1.091-.492,1.091-1.091,1.091-1.091-.492-1.091-1.091ZM102.03,141.29h1.943v6.188h-1.943v-6.188Z"/>
    <path d="M105.211,144.396c0-1.823,1.391-3.202,3.226-3.202s3.226,1.379,3.226,3.202-1.391,3.203-3.226,3.203-3.226-1.379-3.226-3.203ZM109.768,144.396c0-.923-.552-1.583-1.331-1.583s-1.332.66-1.332,1.583.552,1.583,1.332,1.583,1.331-.66,1.331-1.583Z"/>
    <path d="M112.902,141.29h1.943v1.007c.479-.72,1.151-1.104,1.955-1.104,1.2,0,2.051.875,2.051,2.111v4.174h-1.943v-3.61c0-.696-.408-1.151-1.031-1.151-.42,0-.756.168-1.031.516v4.246h-1.943v-6.188Z"/>
    <path d="M120.499,139.083h4.078c1.727,0,2.962,1.116,2.962,2.675,0,1.067-.612,1.931-1.559,2.351l1.763,3.37h-2.303l-1.523-3.083h-1.355v3.083h-2.063v-8.396ZM124.384,142.777c.636,0,1.067-.396,1.067-.996s-.432-.996-1.067-.996h-1.823v1.991h1.823Z"/>
    <path d="M128.586,145.463v-4.174h1.943v3.61c0,.696.408,1.151,1.032,1.151.419,0,.755-.168,1.031-.516v-4.246h1.943v6.188h-1.943v-1.007c-.479.719-1.151,1.103-1.955,1.103-1.199,0-2.051-.875-2.051-2.11Z"/>
    <path d="M136.05,138.939l1.943-.3v8.839h-1.943v-8.539Z"/>
    <path d="M139.23,144.396c0-1.811,1.343-3.202,3.118-3.202,1.787,0,3.046,1.355,3.046,3.274v.419h-4.258c.18.696.744,1.164,1.451,1.164.516,0,.947-.18,1.223-.516l1.284,1.067c-.804.708-1.56.996-2.603.996-1.823,0-3.262-1.403-3.262-3.203ZM143.596,143.784c-.168-.66-.636-1.08-1.259-1.08-.612,0-1.043.396-1.199,1.08h2.458Z"/>
  </g>
  <g>
    <path d="M50.911,164.716c0-1.775,1.295-3.106,3.022-3.106,1.715,0,3.01,1.331,3.01,3.106s-1.295,3.106-3.01,3.106c-1.727,0-3.022-1.331-3.022-3.106ZM55.613,164.716c0-1.115-.708-1.955-1.679-1.955-.983,0-1.691.839-1.691,1.955,0,1.127.708,1.955,1.691,1.955.972,0,1.679-.828,1.679-1.955Z"/>
    <path d="M58.351,161.706h1.355v.983c.456-.708,1.115-1.079,1.895-1.079,1.235,0,2.099.875,2.099,2.146v3.958h-1.367v-3.574c0-.875-.516-1.439-1.319-1.439-.552,0-.995.252-1.307.731v4.282h-1.355v-6.009Z"/>
    <path d="M67.759,164.716c0-1.739,1.319-3.106,3.035-3.106.936,0,1.799.372,2.398,1.02l-.839.875c-.42-.468-.936-.708-1.511-.708-.972,0-1.727.84-1.727,1.919,0,1.092.755,1.919,1.727,1.919.576,0,1.091-.24,1.511-.695l.839.863c-.6.648-1.463,1.02-2.398,1.02-1.715,0-3.035-1.355-3.035-3.106Z"/>
    <path d="M74.311,159.115l1.355-.24v8.839h-1.355v-8.599Z"/>
    <path d="M77.167,159.655c0-.456.372-.839.839-.839.456,0,.839.384.839.839s-.384.828-.839.828c-.468,0-.839-.372-.839-.828ZM77.323,161.706h1.355v6.009h-1.355v-6.009Z"/>
    <path d="M80.083,164.716c0-1.763,1.271-3.106,2.927-3.106,1.643,0,2.842,1.307,2.842,3.106v.324h-4.438c.132.971.863,1.679,1.799,1.679.564,0,1.091-.216,1.427-.563l.888.804c-.732.611-1.463.875-2.375.875-1.727,0-3.07-1.355-3.07-3.119ZM84.568,164.2c-.144-.875-.768-1.487-1.571-1.487-.815,0-1.415.588-1.571,1.487h3.143Z"/>
    <path d="M87.234,161.706h1.355v.983c.456-.708,1.115-1.079,1.895-1.079,1.235,0,2.099.875,2.099,2.146v3.958h-1.367v-3.574c0-.875-.516-1.439-1.319-1.439-.552,0-.995.252-1.307.731v4.282h-1.355v-6.009Z"/>
    <path d="M94.782,166.155v-3.37h-1.199v-1.08h1.199v-1.655l1.355-.288v1.943h1.667v1.08h-1.667v3.07c0,.587.228.815.839.815.264,0,.456-.036.815-.144v1.14c-.348.108-.803.168-1.163.168-1.211,0-1.847-.576-1.847-1.679Z"/>
    <path d="M101.167,167.019l.636-.899c.792.492,1.319.684,1.931.684.72,0,1.211-.335,1.211-.815,0-.372-.252-.563-.839-.684l-1.056-.18c-1.175-.216-1.739-.755-1.739-1.655,0-1.127.923-1.859,2.327-1.859.839,0,1.595.24,2.363.719l-.636.9c-.612-.396-1.199-.576-1.811-.576-.624,0-1.031.264-1.031.695,0,.384.216.552.839.66l1.067.204c1.199.216,1.775.768,1.775,1.667,0,1.104-1.055,1.955-2.458,1.955-1.031,0-1.943-.288-2.579-.816Z"/>
    <path d="M107.286,159.655c0-.456.372-.839.839-.839.456,0,.839.384.839.839s-.384.828-.839.828c-.468,0-.839-.372-.839-.828ZM107.442,161.706h1.355v6.009h-1.355v-6.009Z"/>
    <path d="M110.202,164.716c0-1.715,1.235-3.058,2.807-3.058.684,0,1.307.276,1.751.779v-3.322l1.355-.24v8.839h-1.343v-.792c-.432.54-1.104.852-1.859.852-1.523,0-2.711-1.355-2.711-3.059ZM114.76,165.975v-2.53c-.348-.408-.863-.648-1.427-.648-1.031,0-1.799.816-1.799,1.919,0,1.092.768,1.919,1.799,1.919.588,0,1.08-.228,1.427-.66Z"/>
    <path d="M117.522,164.716c0-1.763,1.271-3.106,2.927-3.106,1.643,0,2.842,1.307,2.842,3.106v.324h-4.438c.132.971.863,1.679,1.799,1.679.564,0,1.091-.216,1.427-.563l.888.804c-.732.611-1.463.875-2.375.875-1.727,0-3.07-1.355-3.07-3.119ZM122.008,164.2c-.144-.875-.768-1.487-1.571-1.487-.815,0-1.415.588-1.571,1.487h3.143Z"/>
  </g>
  <g>
    <path d="M50.959,189.482c0-2.435,1.895-4.33,4.341-4.33,1.283,0,2.507.552,3.274,1.499l-.959.936c-.6-.744-1.427-1.139-2.315-1.139-1.631,0-2.866,1.307-2.866,3.034s1.235,3.034,2.866,3.034c.888,0,1.715-.396,2.315-1.139l.959.936c-.768.947-1.991,1.499-3.274,1.499-2.446,0-4.341-1.895-4.341-4.33Z"/>
    <path d="M59.407,190.682c0-1.775,1.295-3.106,3.022-3.106,1.715,0,3.01,1.331,3.01,3.106s-1.295,3.106-3.01,3.106c-1.727,0-3.022-1.331-3.022-3.106ZM64.109,190.682c0-1.115-.708-1.955-1.679-1.955-.983,0-1.691.839-1.691,1.955,0,1.127.708,1.955,1.691,1.955.972,0,1.679-.828,1.679-1.955Z"/>
    <path d="M66.847,187.671h1.355v.983c.456-.708,1.115-1.079,1.895-1.079,1.235,0,2.099.875,2.099,2.146v3.958h-1.367v-3.574c0-.875-.516-1.439-1.319-1.439-.552,0-.995.252-1.307.731v4.282h-1.355v-6.009Z"/>
    <path d="M74.394,192.121v-3.37h-1.199v-1.08h1.199v-1.655l1.355-.288v1.943h1.667v1.08h-1.667v3.07c0,.587.228.815.839.815.264,0,.456-.036.815-.144v1.14c-.348.108-.803.168-1.163.168-1.211,0-1.847-.576-1.847-1.679Z"/>
    <path d="M78.619,187.671h1.355v1.295c.336-.912.912-1.403,1.655-1.403.228.012.384.036.587.12v1.187c-.216-.084-.492-.144-.744-.144-.66,0-1.199.372-1.499.995v3.958h-1.355v-6.009Z"/>
    <path d="M82.782,190.682c0-1.775,1.295-3.106,3.022-3.106,1.715,0,3.01,1.331,3.01,3.106s-1.295,3.106-3.01,3.106c-1.727,0-3.022-1.331-3.022-3.106ZM87.484,190.682c0-1.115-.708-1.955-1.679-1.955-.983,0-1.691.839-1.691,1.955,0,1.127.708,1.955,1.691,1.955.972,0,1.679-.828,1.679-1.955Z"/>
    <path d="M90.222,185.081l1.355-.24v8.839h-1.355v-8.599Z"/>
    <path d="M92.707,192.984l.636-.899c.792.492,1.319.684,1.931.684.72,0,1.211-.335,1.211-.815,0-.372-.252-.563-.839-.684l-1.056-.18c-1.175-.216-1.739-.755-1.739-1.655,0-1.127.923-1.859,2.327-1.859.839,0,1.595.24,2.363.719l-.636.9c-.612-.396-1.199-.576-1.811-.576-.624,0-1.031.264-1.031.695,0,.384.216.552.839.66l1.067.204c1.199.216,1.775.768,1.775,1.667,0,1.104-1.055,1.955-2.458,1.955-1.031,0-1.943-.288-2.579-.816Z"/>
    <path d="M101.478,189.482c0-2.422,1.871-4.33,4.246-4.33s4.246,1.907,4.246,4.33-1.871,4.33-4.246,4.33-4.246-1.907-4.246-4.33ZM108.494,189.482c0-1.727-1.199-3.034-2.771-3.034s-2.782,1.307-2.782,3.034,1.211,3.034,2.782,3.034,2.771-1.307,2.771-3.034Z"/>
    <path d="M111.438,190.082v-4.797h1.439v4.797c0,1.475.815,2.435,2.087,2.435s2.087-.959,2.087-2.435v-4.797h1.439v4.797c0,2.291-1.367,3.73-3.526,3.73s-3.526-1.439-3.526-3.73Z"/>
    <path d="M122.441,186.532h-2.807v-1.248h7.052v1.248h-2.807v7.148h-1.439v-7.148Z"/>
    <path d="M127.122,189.482c0-2.422,1.883-4.33,4.306-4.33,1.331,0,2.59.528,3.394,1.499l-1.007.9c-.576-.72-1.451-1.104-2.387-1.104-1.619,0-2.831,1.319-2.831,3.034,0,1.727,1.235,3.046,2.866,3.046,1.343,0,2.363-.923,2.543-2.195h-2.495v-1.235h4.018v.468c0,2.411-1.739,4.246-4.09,4.246-2.422,0-4.317-1.907-4.317-4.33Z"/>
    <path d="M136.758,189.482c0-2.422,1.871-4.33,4.246-4.33s4.246,1.907,4.246,4.33-1.871,4.33-4.246,4.33-4.246-1.907-4.246-4.33ZM143.774,189.482c0-1.727-1.199-3.034-2.771-3.034s-2.782,1.307-2.782,3.034,1.211,3.034,2.782,3.034,2.771-1.307,2.771-3.034Z"/>
    <path d="M146.825,185.285h1.439v8.396h-1.439v-8.396Z"/>
    <path d="M150.222,185.285h1.403l4.377,6.105-.024-6.105h1.355v8.396h-1.283l-4.498-6.272.024,6.272h-1.355v-8.396Z"/>
    <path d="M158.958,189.482c0-2.422,1.883-4.33,4.306-4.33,1.331,0,2.59.528,3.394,1.499l-1.007.9c-.576-.72-1.451-1.104-2.387-1.104-1.619,0-2.831,1.319-2.831,3.034,0,1.727,1.235,3.046,2.866,3.046,1.343,0,2.363-.923,2.543-2.195h-2.495v-1.235h4.018v.468c0,2.411-1.739,4.246-4.09,4.246-2.422,0-4.317-1.907-4.317-4.33Z"/>
    <path d="M168.629,188.427c0-.48.372-.875.839-.875s.84.396.84.875-.372.863-.84.863-.839-.384-.839-.863ZM168.629,192.925c0-.48.372-.875.839-.875s.84.396.84.875-.372.863-.84.863-.839-.384-.839-.863Z"/>
  </g>
  <g>
    <path d="M70.024,210.075h1.439v3.526h4.174v-3.526h1.439v8.396h-1.439v-3.586h-4.174v3.586h-1.439v-8.396Z"/>
    <path d="M78.592,215.472c0-1.775,1.295-3.106,3.022-3.106,1.715,0,3.01,1.331,3.01,3.106s-1.295,3.106-3.01,3.106c-1.727,0-3.022-1.331-3.022-3.106ZM83.294,215.472c0-1.115-.708-1.955-1.679-1.955-.983,0-1.691.839-1.691,1.955,0,1.127.708,1.955,1.691,1.955.972,0,1.679-.828,1.679-1.955Z"/>
    <path d="M85.349,212.461h1.295l1.055,4.234,1.248-4.234h1.139l1.235,4.234,1.056-4.234h1.259l-1.619,6.009h-1.295l-1.223-4.234-1.211,4.234h-1.319l-1.619-6.009Z"/>
    <path d="M98.188,216.911v-3.37h-1.199v-1.08h1.199v-1.655l1.355-.288v1.943h1.667v1.08h-1.667v3.07c0,.587.228.815.839.815.264,0,.456-.036.815-.144v1.14c-.348.108-.803.168-1.163.168-1.211,0-1.847-.576-1.847-1.679Z"/>
    <path d="M102.04,215.472c0-1.775,1.295-3.106,3.022-3.106,1.715,0,3.01,1.331,3.01,3.106s-1.295,3.106-3.01,3.106c-1.727,0-3.022-1.331-3.022-3.106ZM106.742,215.472c0-1.115-.708-1.955-1.679-1.955-.983,0-1.691.839-1.691,1.955,0,1.127.708,1.955,1.691,1.955.972,0,1.679-.828,1.679-1.955Z"/>
    <path d="M111.64,217.774l.636-.899c.792.492,1.319.684,1.931.684.72,0,1.211-.335,1.211-.815,0-.372-.252-.563-.839-.684l-1.056-.18c-1.175-.216-1.739-.755-1.739-1.655,0-1.127.923-1.859,2.327-1.859.839,0,1.595.24,2.363.719l-.636.9c-.612-.396-1.199-.576-1.811-.576-.624,0-1.031.264-1.031.695,0,.384.216.552.839.66l1.067.204c1.199.216,1.775.768,1.775,1.667,0,1.104-1.055,1.955-2.458,1.955-1.031,0-1.943-.288-2.579-.816Z"/>
    <path d="M117.711,215.472c0-1.763,1.271-3.106,2.927-3.106,1.643,0,2.842,1.307,2.842,3.106v.324h-4.438c.132.971.863,1.679,1.799,1.679.564,0,1.091-.216,1.427-.563l.888.804c-.732.611-1.463.875-2.375.875-1.727,0-3.07-1.355-3.07-3.119ZM122.197,214.956c-.144-.875-.768-1.487-1.571-1.487-.815,0-1.415.588-1.571,1.487h3.143Z"/>
    <path d="M124.863,212.461h1.355v.983c.456-.708,1.115-1.079,1.895-1.079,1.235,0,2.099.875,2.099,2.146v3.958h-1.367v-3.574c0-.875-.516-1.439-1.319-1.439-.552,0-.995.252-1.307.731v4.282h-1.355v-6.009Z"/>
    <path d="M131.571,215.472c0-1.715,1.235-3.058,2.807-3.058.684,0,1.307.276,1.751.779v-3.322l1.355-.24v8.839h-1.343v-.792c-.432.54-1.104.852-1.859.852-1.523,0-2.711-1.355-2.711-3.059ZM136.129,216.731v-2.53c-.348-.408-.863-.648-1.427-.648-1.031,0-1.799.816-1.799,1.919,0,1.092.768,1.919,1.799,1.919.588,0,1.08-.228,1.427-.66Z"/>
  </g>
  <g>
    <path d="M72.184,232.27h-2.807v-1.248h7.052v1.248h-2.807v7.148h-1.439v-7.148Z"/>
    <path d="M77.74,231.022h1.439v7.148h4.474v1.248h-5.913v-8.396Z"/>
    <path d="M84.533,238.195l.779-1.056c1.08.888,1.859,1.224,2.831,1.224,1.104,0,1.871-.564,1.871-1.344,0-.684-.408-1.007-1.523-1.199l-1.547-.264c-1.452-.264-2.159-.983-2.159-2.135,0-1.523,1.211-2.531,3.094-2.531,1.26,0,2.411.372,3.37,1.08l-.731,1.079c-.839-.636-1.739-.971-2.687-.971-1.007,0-1.679.516-1.679,1.199,0,.612.384.923,1.295,1.067l1.499.252c1.691.3,2.483,1.043,2.483,2.314,0,1.547-1.367,2.639-3.37,2.639-1.319,0-2.458-.456-3.526-1.355Z"/>
    <path d="M95.428,233.409h1.355v.948c.444-.684,1.043-1.043,1.775-1.043.828,0,1.463.444,1.775,1.151.468-.756,1.14-1.151,1.991-1.151,1.163,0,1.967.899,1.967,2.17v3.934h-1.355v-3.634c0-.84-.468-1.379-1.211-1.379-.492,0-.9.228-1.2.72.012.12.024.24.024.359v3.934h-1.368v-3.634c0-.84-.467-1.379-1.211-1.379-.492,0-.888.228-1.188.695v4.318h-1.355v-6.009Z"/>
    <path d="M105.664,236.419c0-1.775,1.295-3.106,3.022-3.106,1.715,0,3.01,1.331,3.01,3.106s-1.295,3.106-3.01,3.106c-1.727,0-3.022-1.331-3.022-3.106ZM110.366,236.419c0-1.115-.708-1.955-1.679-1.955-.983,0-1.691.839-1.691,1.955,0,1.127.708,1.955,1.691,1.955.972,0,1.679-.828,1.679-1.955Z"/>
    <path d="M112.828,236.419c0-1.715,1.235-3.058,2.807-3.058.684,0,1.307.276,1.751.78v-3.322l1.355-.24v8.839h-1.343v-.792c-.432.54-1.104.852-1.859.852-1.523,0-2.711-1.355-2.711-3.059ZM117.386,237.679v-2.53c-.348-.408-.863-.648-1.427-.648-1.031,0-1.799.816-1.799,1.919,0,1.092.768,1.919,1.799,1.919.588,0,1.08-.228,1.427-.66Z"/>
    <path d="M120.147,236.419c0-1.763,1.271-3.106,2.927-3.106,1.643,0,2.842,1.307,2.842,3.106v.324h-4.438c.132.971.863,1.679,1.799,1.679.564,0,1.091-.216,1.427-.563l.888.804c-.731.611-1.463.875-2.375.875-1.727,0-3.07-1.355-3.07-3.119ZM124.633,235.904c-.144-.875-.768-1.487-1.571-1.487-.815,0-1.415.588-1.571,1.487h3.143Z"/>
  </g>
  <g>
    <path d="M69.689,256.521c0-2.435,1.895-4.33,4.341-4.33,1.283,0,2.507.552,3.274,1.499l-.959.936c-.6-.744-1.427-1.139-2.315-1.139-1.631,0-2.866,1.307-2.866,3.034s1.235,3.034,2.866,3.034c.888,0,1.715-.396,2.315-1.139l.959.936c-.768.947-1.991,1.499-3.274,1.499-2.446,0-4.341-1.895-4.341-4.33Z"/>
    <path d="M78.137,257.72c0-1.763,1.271-3.106,2.927-3.106,1.643,0,2.842,1.307,2.842,3.106v.324h-4.438c.132.971.863,1.679,1.799,1.679.564,0,1.091-.216,1.427-.563l.888.804c-.731.611-1.463.875-2.375.875-1.727,0-3.07-1.355-3.07-3.119ZM82.623,257.205c-.144-.875-.768-1.487-1.571-1.487-.815,0-1.415.588-1.571,1.487h3.143Z"/>
    <path d="M85.289,254.71h1.355v1.295c.336-.912.912-1.403,1.655-1.403.228.012.384.036.587.12v1.187c-.216-.083-.492-.144-.744-.144-.66,0-1.199.372-1.499.995v3.958h-1.355v-6.009Z"/>
    <path d="M90.748,259.16v-3.37h-1.199v-1.08h1.199v-1.655l1.355-.288v1.943h1.667v1.08h-1.667v3.07c0,.587.228.815.839.815.264,0,.456-.036.815-.144v1.14c-.348.108-.803.168-1.163.168-1.211,0-1.847-.576-1.847-1.679Z"/>
    <path d="M94.805,252.659c0-.456.372-.839.839-.839.456,0,.839.384.839.839s-.384.828-.839.828c-.468,0-.839-.372-.839-.828ZM94.96,254.71h1.355v6.009h-1.355v-6.009Z"/>
    <path d="M98.812,255.79h-1.295v-1.08h1.295v-1.031c0-1.307.731-2.015,2.075-2.015.336,0,.671.036.899.108v1.151c-.3-.06-.479-.084-.72-.084-.624,0-.899.276-.899.864v1.007h1.619v1.08h-1.619v4.929h-1.355v-4.929Z"/>
    <path d="M102.761,252.659c0-.456.372-.839.839-.839.456,0,.839.384.839.839s-.384.828-.839.828c-.468,0-.839-.372-.839-.828ZM102.917,254.71h1.355v6.009h-1.355v-6.009Z"/>
    <path d="M105.676,257.72c0-1.739,1.319-3.106,3.035-3.106.936,0,1.799.372,2.398,1.019l-.839.876c-.42-.468-.936-.708-1.511-.708-.972,0-1.727.84-1.727,1.919,0,1.092.755,1.919,1.727,1.919.576,0,1.091-.24,1.511-.695l.839.863c-.6.648-1.463,1.02-2.398,1.02-1.715,0-3.035-1.355-3.035-3.106Z"/>
    <path d="M111.917,258.992c0-1.08.887-1.763,2.303-1.763.563,0,1.091.12,1.619.384v-.671c0-.792-.456-1.199-1.379-1.199-.504,0-1.056.144-1.751.468l-.48-.984c.9-.408,1.691-.611,2.495-.611,1.571,0,2.459.792,2.459,2.183v3.922h-1.343v-.624c-.516.503-1.091.731-1.787.731-1.259,0-2.135-.755-2.135-1.835ZM114.423,259.867c.54,0,1.008-.156,1.416-.504v-.971c-.432-.204-.864-.288-1.379-.288-.78,0-1.271.324-1.271.864,0,.552.48.899,1.235.899Z"/>
    <path d="M119.392,259.16v-3.37h-1.199v-1.08h1.199v-1.655l1.355-.288v1.943h1.667v1.08h-1.667v3.07c0,.587.228.815.839.815.264,0,.456-.036.815-.144v1.14c-.348.108-.803.168-1.163.168-1.211,0-1.847-.576-1.847-1.679Z"/>
    <path d="M123.244,257.72c0-1.763,1.271-3.106,2.927-3.106,1.643,0,2.842,1.307,2.842,3.106v.324h-4.438c.132.971.863,1.679,1.799,1.679.564,0,1.091-.216,1.427-.563l.888.804c-.732.611-1.463.875-2.375.875-1.727,0-3.07-1.355-3.07-3.119ZM127.729,257.205c-.144-.875-.768-1.487-1.571-1.487-.815,0-1.415.588-1.571,1.487h3.143Z"/>
    <path d="M133.048,258.668v-3.958h1.367v3.562c0,.888.516,1.451,1.319,1.451.54,0,.996-.24,1.307-.719v-4.294h1.355v6.009h-1.355v-.972c-.456.708-1.103,1.068-1.907,1.068-1.223,0-2.087-.888-2.087-2.147Z"/>
    <path d="M139.54,260.023l.636-.899c.792.492,1.319.684,1.931.684.72,0,1.211-.336,1.211-.815,0-.372-.252-.563-.839-.684l-1.056-.18c-1.175-.216-1.739-.756-1.739-1.655,0-1.127.923-1.859,2.327-1.859.839,0,1.595.24,2.363.719l-.636.9c-.612-.396-1.199-.576-1.811-.576-.624,0-1.031.264-1.031.695,0,.384.216.552.839.66l1.067.204c1.199.216,1.775.768,1.775,1.667,0,1.104-1.055,1.955-2.458,1.955-1.031,0-1.943-.288-2.579-.816Z"/>
    <path d="M145.576,258.992c0-1.08.887-1.763,2.303-1.763.563,0,1.091.12,1.619.384v-.671c0-.792-.456-1.199-1.379-1.199-.504,0-1.056.144-1.751.468l-.48-.984c.9-.408,1.691-.611,2.495-.611,1.571,0,2.459.792,2.459,2.183v3.922h-1.343v-.624c-.516.503-1.091.731-1.787.731-1.259,0-2.135-.755-2.135-1.835ZM148.082,259.867c.54,0,1.008-.156,1.416-.504v-.971c-.432-.204-.864-.288-1.379-.288-.78,0-1.271.324-1.271.864,0,.552.48.899,1.235.899Z"/>
    <path d="M152.883,262.758l.468-.996c.708.348,1.283.504,1.883.504,1.007,0,1.535-.456,1.535-1.332v-1.02c-.432.528-1.091.84-1.847.84-1.523,0-2.711-1.355-2.711-3.059s1.235-3.034,2.807-3.034c.696,0,1.319.276,1.763.804v-.756h1.343v6.225c0,1.547-1.008,2.411-2.831,2.411-.864,0-1.703-.216-2.411-.587ZM156.769,258.968v-2.519c-.348-.408-.863-.648-1.427-.648-1.031,0-1.799.804-1.799,1.907,0,1.091.768,1.919,1.799,1.919.588,0,1.08-.24,1.427-.66Z"/>
    <path d="M159.519,257.72c0-1.763,1.271-3.106,2.927-3.106,1.643,0,2.842,1.307,2.842,3.106v.324h-4.438c.132.971.863,1.679,1.799,1.679.564,0,1.091-.216,1.427-.563l.888.804c-.732.611-1.463.875-2.375.875-1.727,0-3.07-1.355-3.07-3.119ZM164.005,257.205c-.144-.875-.768-1.487-1.571-1.487-.815,0-1.415.588-1.571,1.487h3.143Z"/>
  </g>
  <circle cx="55.724" cy="213.797" r="2.25"/>
  <circle cx="55.724" cy="235.307" r="2.25"/>
  <circle cx="55.724" cy="255.442" r="2.25"/>
  <g>
    <rect class="uuid-67fdbf72-0787-460f-960c-2f131d4465bf" x="348.346" y="121.85" width="220.162" height="156.853"/>
    <g>
      <path d="M370.033,139.083h4.102c1.787,0,2.963,1.164,2.963,2.771,0,1.523-1.176,2.699-2.963,2.699h-2.039v2.926h-2.062v-8.396ZM373.762,142.909c.84,0,1.248-.456,1.248-1.067,0-.6-.408-1.056-1.235-1.056h-1.68v2.123h1.667Z"/>
      <path d="M377.617,144.396c0-1.811,1.344-3.202,3.118-3.202,1.787,0,3.047,1.355,3.047,3.274v.419h-4.258c.18.696.743,1.164,1.451,1.164.516,0,.947-.18,1.224-.516l1.283,1.067c-.804.708-1.56.996-2.603.996-1.823,0-3.263-1.403-3.263-3.203ZM381.983,143.784c-.168-.66-.636-1.08-1.26-1.08-.611,0-1.043.396-1.199,1.08h2.459Z"/>
      <path d="M384.781,144.396c0-1.811,1.344-3.202,3.118-3.202,1.787,0,3.047,1.355,3.047,3.274v.419h-4.258c.18.696.743,1.164,1.451,1.164.516,0,.947-.18,1.224-.516l1.283,1.067c-.804.708-1.56.996-2.603.996-1.823,0-3.263-1.403-3.263-3.203ZM389.147,143.784c-.168-.66-.636-1.08-1.26-1.08-.611,0-1.043.396-1.199,1.08h2.459Z"/>
      <path d="M392.161,141.29h1.942v1.403c.396-1.032.947-1.523,1.68-1.523.275.012.407.036.647.156v1.667c-.24-.12-.576-.192-.912-.192-.575,0-1.103.3-1.415.768v3.91h-1.942v-6.188Z"/>
      <path d="M400.006,139.083h2.351l3.227,8.396h-2.23l-.695-2.003h-3.07l-.708,2.003h-2.146l3.273-8.396ZM402.106,143.88l-.972-2.782-.983,2.782h1.955Z"/>
      <path d="M406.141,145.463v-4.174h1.942v3.61c0,.696.408,1.151,1.031,1.151.42,0,.756-.168,1.032-.516v-4.246h1.942v6.188h-1.942v-1.007c-.48.719-1.151,1.103-1.955,1.103-1.199,0-2.051-.875-2.051-2.11Z"/>
      <path d="M414.419,145.607v-2.818h-1.199v-1.499h1.199v-1.715l1.942-.396v2.111h1.655v1.499h-1.655v2.435c0,.552.216.744.816.744.228,0,.407-.024.791-.132v1.571c-.359.108-.936.192-1.331.192-1.463,0-2.219-.672-2.219-1.991Z"/>
      <path d="M419.1,138.939l1.942-.3v3.658c.48-.72,1.151-1.104,1.955-1.104,1.199,0,2.051.875,2.051,2.111v4.174h-1.942v-3.61c0-.696-.408-1.151-1.032-1.151-.419,0-.755.168-1.031.516v4.246h-1.942v-8.539Z"/>
      <path d="M426.24,144.396c0-1.811,1.344-3.202,3.118-3.202,1.787,0,3.047,1.355,3.047,3.274v.419h-4.258c.18.696.743,1.164,1.451,1.164.516,0,.947-.18,1.224-.516l1.283,1.067c-.804.708-1.56.996-2.603.996-1.823,0-3.263-1.403-3.263-3.203ZM430.606,143.784c-.168-.66-.636-1.08-1.26-1.08-.611,0-1.043.396-1.199,1.08h2.459Z"/>
      <path d="M433.621,141.29h1.942v1.007c.48-.72,1.151-1.104,1.955-1.104,1.199,0,2.051.875,2.051,2.111v4.174h-1.942v-3.61c0-.696-.408-1.151-1.032-1.151-.419,0-.755.168-1.031.516v4.246h-1.942v-6.188Z"/>
      <path d="M441.671,145.607v-2.818h-1.199v-1.499h1.199v-1.715l1.942-.396v2.111h1.655v1.499h-1.655v2.435c0,.552.216.744.816.744.228,0,.407-.024.791-.132v1.571c-.359.108-.936.192-1.331.192-1.463,0-2.219-.672-2.219-1.991Z"/>
      <path d="M446.232,139.25c0-.6.491-1.091,1.092-1.091s1.091.492,1.091,1.091-.491,1.091-1.091,1.091-1.092-.492-1.092-1.091ZM446.352,141.29h1.942v6.188h-1.942v-6.188Z"/>
      <path d="M449.532,144.396c0-1.811,1.392-3.202,3.202-3.202,1.02,0,1.955.408,2.579,1.14l-1.188,1.187c-.396-.468-.792-.671-1.319-.671-.768,0-1.343.66-1.343,1.547s.575,1.547,1.343,1.547c.527,0,.924-.204,1.319-.672l1.188,1.188c-.624.731-1.56,1.14-2.579,1.14-1.811,0-3.202-1.392-3.202-3.203Z"/>
      <path d="M455.988,145.703c0-1.14.888-1.799,2.41-1.799.444,0,.888.084,1.439.288v-.504c0-.6-.396-.899-1.223-.899-.468,0-1.02.132-1.739.432l-.672-1.355c1.02-.456,1.931-.672,2.843-.672,1.715,0,2.71.852,2.71,2.327v3.958h-1.919v-.54c-.539.456-1.055.635-1.715.635-1.26,0-2.135-.768-2.135-1.871ZM458.722,146.291c.408,0,.779-.108,1.115-.312v-.792c-.359-.084-.707-.132-1.067-.132-.636,0-.995.216-.995.612s.348.624.947.624Z"/>
      <path d="M463.859,145.607v-2.818h-1.199v-1.499h1.199v-1.715l1.942-.396v2.111h1.655v1.499h-1.655v2.435c0,.552.216.744.816.744.228,0,.407-.024.791-.132v1.571c-.359.108-.936.192-1.331.192-1.463,0-2.219-.672-2.219-1.991Z"/>
      <path d="M468.419,139.25c0-.6.491-1.091,1.092-1.091s1.091.492,1.091,1.091-.491,1.091-1.091,1.091-1.092-.492-1.092-1.091ZM468.54,141.29h1.942v6.188h-1.942v-6.188Z"/>
      <path d="M471.719,144.396c0-1.823,1.392-3.202,3.227-3.202s3.227,1.379,3.227,3.202-1.392,3.203-3.227,3.203-3.227-1.379-3.227-3.203ZM476.277,144.396c0-.923-.552-1.583-1.331-1.583s-1.331.66-1.331,1.583.552,1.583,1.331,1.583,1.331-.66,1.331-1.583Z"/>
      <path d="M479.412,141.29h1.942v1.007c.48-.72,1.151-1.104,1.955-1.104,1.199,0,2.051.875,2.051,2.111v4.174h-1.942v-3.61c0-.696-.408-1.151-1.032-1.151-.419,0-.755.168-1.031.516v4.246h-1.942v-6.188Z"/>
    </g>
    <g>
      <path d="M369.661,164.716c0-1.775,1.296-3.106,3.022-3.106,1.715,0,3.011,1.331,3.011,3.106s-1.296,3.106-3.011,3.106c-1.727,0-3.022-1.331-3.022-3.106ZM374.362,164.716c0-1.115-.707-1.955-1.679-1.955-.983,0-1.691.839-1.691,1.955,0,1.127.708,1.955,1.691,1.955.972,0,1.679-.828,1.679-1.955Z"/>
      <path d="M377.101,161.706h1.354v.983c.456-.708,1.116-1.079,1.896-1.079,1.235,0,2.099.875,2.099,2.146v3.958h-1.367v-3.574c0-.875-.516-1.439-1.319-1.439-.552,0-.995.252-1.308.731v4.282h-1.354v-6.009Z"/>
      <path d="M386.245,167.019l.636-.899c.791.492,1.319.684,1.931.684.72,0,1.212-.335,1.212-.815,0-.372-.252-.563-.84-.684l-1.056-.18c-1.175-.216-1.739-.755-1.739-1.655,0-1.127.924-1.859,2.327-1.859.84,0,1.595.24,2.362.719l-.636.9c-.611-.396-1.199-.576-1.811-.576-.624,0-1.031.264-1.031.695,0,.384.216.552.839.66l1.068.204c1.199.216,1.774.768,1.774,1.667,0,1.104-1.056,1.955-2.458,1.955-1.032,0-1.943-.288-2.579-.816Z"/>
      <path d="M392.316,164.716c0-1.763,1.271-3.106,2.927-3.106,1.643,0,2.843,1.307,2.843,3.106v.324h-4.438c.133.971.864,1.679,1.8,1.679.563,0,1.091-.216,1.427-.563l.888.804c-.731.611-1.463.875-2.375.875-1.727,0-3.07-1.355-3.07-3.119ZM396.801,164.2c-.144-.875-.768-1.487-1.57-1.487-.816,0-1.416.588-1.571,1.487h3.142Z"/>
      <path d="M399.468,161.706h1.354v1.295c.336-.912.912-1.403,1.655-1.403.229.012.384.036.588.12v1.187c-.216-.084-.491-.144-.743-.144-.66,0-1.2.372-1.5.995v3.958h-1.354v-6.009Z"/>
      <path d="M403.656,161.706h1.476l1.679,4.366,1.667-4.366h1.415l-2.471,6.009h-1.319l-2.446-6.009Z"/>
      <path d="M410.412,164.716c0-1.763,1.271-3.106,2.927-3.106,1.643,0,2.843,1.307,2.843,3.106v.324h-4.438c.133.971.864,1.679,1.8,1.679.563,0,1.091-.216,1.427-.563l.888.804c-.731.611-1.463.875-2.375.875-1.727,0-3.07-1.355-3.07-3.119ZM414.897,164.2c-.144-.875-.768-1.487-1.57-1.487-.816,0-1.416.588-1.571,1.487h3.142Z"/>
      <path d="M417.564,161.706h1.354v1.295c.336-.912.912-1.403,1.655-1.403.229.012.384.036.588.12v1.187c-.216-.084-.491-.144-.743-.144-.66,0-1.2.372-1.5.995v3.958h-1.354v-6.009Z"/>
      <path d="M424.44,167.019l.636-.899c.791.492,1.319.684,1.931.684.72,0,1.212-.335,1.212-.815,0-.372-.252-.563-.84-.684l-1.056-.18c-1.175-.216-1.739-.755-1.739-1.655,0-1.127.924-1.859,2.327-1.859.84,0,1.595.24,2.362.719l-.636.9c-.611-.396-1.199-.576-1.811-.576-.624,0-1.031.264-1.031.695,0,.384.216.552.839.66l1.068.204c1.199.216,1.774.768,1.774,1.667,0,1.104-1.056,1.955-2.458,1.955-1.032,0-1.943-.288-2.579-.816Z"/>
      <path d="M430.56,159.655c0-.456.371-.839.839-.839.456,0,.84.384.84.839s-.384.828-.84.828c-.468,0-.839-.372-.839-.828ZM430.715,161.706h1.355v6.009h-1.355v-6.009Z"/>
      <path d="M433.475,164.716c0-1.715,1.235-3.058,2.807-3.058.684,0,1.308.276,1.751.779v-3.322l1.355-.24v8.839h-1.344v-.792c-.432.54-1.104.852-1.858.852-1.523,0-2.711-1.355-2.711-3.059ZM438.033,165.975v-2.53c-.348-.408-.863-.648-1.427-.648-1.032,0-1.8.816-1.8,1.919,0,1.092.768,1.919,1.8,1.919.587,0,1.079-.228,1.427-.66Z"/>
      <path d="M440.795,164.716c0-1.763,1.271-3.106,2.927-3.106,1.643,0,2.842,1.307,2.842,3.106v.324h-4.438c.133.971.864,1.679,1.8,1.679.563,0,1.091-.216,1.427-.563l.888.804c-.731.611-1.463.875-2.375.875-1.727,0-3.07-1.355-3.07-3.119ZM445.281,164.2c-.144-.875-.768-1.487-1.57-1.487-.816,0-1.416.588-1.571,1.487h3.142Z"/>
    </g>
    <g>
      <path d="M369.708,189.482c0-2.435,1.896-4.33,4.342-4.33,1.283,0,2.507.552,3.274,1.499l-.96.936c-.6-.744-1.427-1.139-2.314-1.139-1.631,0-2.866,1.307-2.866,3.034s1.235,3.034,2.866,3.034c.888,0,1.715-.396,2.314-1.139l.96.936c-.768.947-1.991,1.499-3.274,1.499-2.446,0-4.342-1.895-4.342-4.33Z"/>
      <path d="M378.157,190.682c0-1.775,1.296-3.106,3.022-3.106,1.715,0,3.011,1.331,3.011,3.106s-1.296,3.106-3.011,3.106c-1.727,0-3.022-1.331-3.022-3.106ZM382.858,190.682c0-1.115-.707-1.955-1.679-1.955-.983,0-1.691.839-1.691,1.955,0,1.127.708,1.955,1.691,1.955.972,0,1.679-.828,1.679-1.955Z"/>
      <path d="M385.597,187.671h1.354v.983c.456-.708,1.116-1.079,1.896-1.079,1.235,0,2.099.875,2.099,2.146v3.958h-1.367v-3.574c0-.875-.516-1.439-1.319-1.439-.552,0-.995.252-1.308.731v4.282h-1.354v-6.009Z"/>
      <path d="M393.144,192.121v-3.37h-1.199v-1.08h1.199v-1.655l1.355-.288v1.943h1.667v1.08h-1.667v3.07c0,.587.228.815.84.815.264,0,.455-.036.815-.144v1.14c-.348.108-.804.168-1.164.168-1.211,0-1.847-.576-1.847-1.679Z"/>
      <path d="M397.369,187.671h1.354v1.295c.336-.912.912-1.403,1.655-1.403.229.012.384.036.588.12v1.187c-.216-.084-.491-.144-.743-.144-.66,0-1.2.372-1.5.995v3.958h-1.354v-6.009Z"/>
      <path d="M401.532,190.682c0-1.775,1.296-3.106,3.022-3.106,1.715,0,3.011,1.331,3.011,3.106s-1.296,3.106-3.011,3.106c-1.727,0-3.022-1.331-3.022-3.106ZM406.233,190.682c0-1.115-.707-1.955-1.679-1.955-.983,0-1.691.839-1.691,1.955,0,1.127.708,1.955,1.691,1.955.972,0,1.679-.828,1.679-1.955Z"/>
      <path d="M408.972,185.081l1.354-.24v8.839h-1.354v-8.599Z"/>
      <path d="M411.457,192.984l.636-.899c.792.492,1.319.684,1.931.684.72,0,1.212-.335,1.212-.815,0-.372-.252-.563-.84-.684l-1.056-.18c-1.175-.216-1.739-.755-1.739-1.655,0-1.127.924-1.859,2.327-1.859.84,0,1.595.24,2.362.719l-.636.9c-.611-.396-1.199-.576-1.811-.576-.624,0-1.031.264-1.031.695,0,.384.216.552.84.66l1.067.204c1.199.216,1.774.768,1.774,1.667,0,1.104-1.056,1.955-2.459,1.955-1.031,0-1.942-.288-2.578-.816Z"/>
      <path d="M420.551,185.285h1.439v8.396h-1.439v-8.396Z"/>
      <path d="M423.948,185.285h1.403l4.377,6.105-.023-6.105h1.354v8.396h-1.283l-4.497-6.272.023,6.272h-1.354v-8.396Z"/>
      <path d="M432.683,189.482c0-2.435,1.896-4.33,4.342-4.33,1.283,0,2.507.552,3.274,1.499l-.96.936c-.6-.744-1.427-1.139-2.314-1.139-1.631,0-2.866,1.307-2.866,3.034s1.235,3.034,2.866,3.034c.888,0,1.715-.396,2.314-1.139l.96.936c-.768.947-1.991,1.499-3.274,1.499-2.446,0-4.342-1.895-4.342-4.33Z"/>
      <path d="M441.192,189.482c0-2.422,1.87-4.33,4.245-4.33s4.246,1.907,4.246,4.33-1.871,4.33-4.246,4.33-4.245-1.907-4.245-4.33ZM448.208,189.482c0-1.727-1.199-3.034-2.771-3.034s-2.782,1.307-2.782,3.034,1.211,3.034,2.782,3.034,2.771-1.307,2.771-3.034Z"/>
      <path d="M451.32,185.285h1.871l2.458,5.097,2.447-5.097h1.87v8.396h-1.354v-6.572l-2.975,5.973-2.986-6.009v6.608h-1.331v-8.396Z"/>
      <path d="M461.927,185.285h1.439v8.396h-1.439v-8.396Z"/>
      <path d="M465.324,185.285h1.403l4.377,6.105-.023-6.105h1.354v8.396h-1.283l-4.497-6.272.023,6.272h-1.354v-8.396Z"/>
      <path d="M474.059,189.482c0-2.422,1.884-4.33,4.306-4.33,1.332,0,2.591.528,3.395,1.499l-1.008.9c-.575-.72-1.451-1.104-2.387-1.104-1.619,0-2.83,1.319-2.83,3.034,0,1.727,1.235,3.046,2.866,3.046,1.344,0,2.363-.923,2.543-2.195h-2.495v-1.235h4.018v.468c0,2.411-1.738,4.246-4.089,4.246-2.423,0-4.318-1.907-4.318-4.33Z"/>
      <path d="M483.731,188.427c0-.48.372-.875.84-.875s.84.396.84.875-.372.863-.84.863-.84-.384-.84-.863ZM483.731,192.925c0-.48.372-.875.84-.875s.84.396.84.875-.372.863-.84.863-.84-.384-.84-.863Z"/>
    </g>
    <g>
      <path d="M388.269,210.075h1.464l1.247,6.153,1.799-6.153h1.367l1.799,6.141,1.248-6.141h1.415l-1.835,8.396h-1.499l-1.835-6.345-1.835,6.345h-1.5l-1.835-8.396Z"/>
      <path d="M399.897,209.871l1.354-.24v3.814c.456-.708,1.116-1.079,1.896-1.079,1.235,0,2.099.875,2.099,2.146v3.958h-1.367v-3.574c0-.875-.516-1.439-1.319-1.439-.552,0-.995.252-1.308.731v4.282h-1.354v-8.599Z"/>
      <path d="M406.569,216.743c0-1.08.888-1.763,2.303-1.763.564,0,1.092.12,1.619.384v-.671c0-.792-.455-1.199-1.379-1.199-.504,0-1.056.144-1.751.467l-.479-.983c.899-.408,1.69-.611,2.494-.611,1.571,0,2.459.792,2.459,2.183v3.922h-1.344v-.624c-.516.503-1.091.731-1.787.731-1.259,0-2.135-.755-2.135-1.835ZM409.076,217.619c.54,0,1.008-.156,1.415-.504v-.971c-.432-.204-.863-.288-1.379-.288-.779,0-1.271.324-1.271.864,0,.552.479.899,1.235.899Z"/>
      <path d="M414.044,216.911v-3.37h-1.199v-1.08h1.199v-1.655l1.355-.288v1.943h1.667v1.08h-1.667v3.07c0,.587.228.815.84.815.264,0,.455-.036.815-.144v1.14c-.348.108-.804.168-1.164.168-1.211,0-1.847-.576-1.847-1.679Z"/>
      <path d="M421.712,216.911v-3.37h-1.199v-1.08h1.199v-1.655l1.355-.288v1.943h1.667v1.08h-1.667v3.07c0,.587.228.815.84.815.264,0,.455-.036.815-.144v1.14c-.348.108-.804.168-1.164.168-1.211,0-1.847-.576-1.847-1.679Z"/>
      <path d="M425.564,215.472c0-1.775,1.296-3.106,3.022-3.106,1.715,0,3.011,1.331,3.011,3.106s-1.296,3.106-3.011,3.106c-1.727,0-3.022-1.331-3.022-3.106ZM430.265,215.472c0-1.115-.707-1.955-1.679-1.955-.983,0-1.691.839-1.691,1.955,0,1.127.708,1.955,1.691,1.955.972,0,1.679-.828,1.679-1.955Z"/>
      <path d="M435.392,216.743c0-1.08.888-1.763,2.303-1.763.564,0,1.092.12,1.619.384v-.671c0-.792-.455-1.199-1.379-1.199-.504,0-1.056.144-1.751.467l-.479-.983c.899-.408,1.69-.611,2.494-.611,1.571,0,2.459.792,2.459,2.183v3.922h-1.344v-.624c-.516.503-1.091.731-1.787.731-1.259,0-2.135-.755-2.135-1.835ZM437.899,217.619c.54,0,1.008-.156,1.415-.504v-.971c-.432-.204-.863-.288-1.379-.288-.779,0-1.271.324-1.271.864,0,.552.479.899,1.235.899Z"/>
      <path d="M442.028,215.472c0-1.739,1.319-3.106,3.034-3.106.936,0,1.8.372,2.399,1.02l-.84.875c-.42-.468-.936-.708-1.511-.708-.972,0-1.728.84-1.728,1.919,0,1.092.756,1.919,1.728,1.919.575,0,1.091-.24,1.511-.695l.84.863c-.6.648-1.464,1.02-2.399,1.02-1.715,0-3.034-1.355-3.034-3.106Z"/>
      <path d="M448.124,215.472c0-1.739,1.319-3.106,3.034-3.106.936,0,1.8.372,2.399,1.02l-.84.875c-.42-.468-.936-.708-1.511-.708-.972,0-1.728.84-1.728,1.919,0,1.092.756,1.919,1.728,1.919.575,0,1.091-.24,1.511-.695l.84.863c-.6.648-1.464,1.02-2.399,1.02-1.715,0-3.034-1.355-3.034-3.106Z"/>
      <path d="M454.22,215.472c0-1.763,1.271-3.106,2.927-3.106,1.643,0,2.843,1.307,2.843,3.106v.324h-4.438c.133.971.864,1.679,1.8,1.679.563,0,1.091-.216,1.427-.563l.888.804c-.731.611-1.463.875-2.375.875-1.727,0-3.07-1.355-3.07-3.119ZM458.706,214.956c-.144-.875-.768-1.487-1.57-1.487-.816,0-1.416.588-1.571,1.487h3.142Z"/>
      <path d="M461.373,212.461h1.331v.852c.432-.563,1.104-.899,1.871-.899,1.522,0,2.71,1.355,2.71,3.058,0,1.715-1.223,3.059-2.794,3.059-.708,0-1.331-.264-1.764-.768v3.214h-1.354v-8.516ZM465.954,215.472c0-1.091-.768-1.919-1.787-1.919-.6,0-1.091.24-1.439.672v2.506c.349.42.864.672,1.439.672,1.031,0,1.787-.828,1.787-1.931Z"/>
      <path d="M469.171,216.911v-3.37h-1.199v-1.08h1.199v-1.655l1.355-.288v1.943h1.667v1.08h-1.667v3.07c0,.587.228.815.84.815.264,0,.455-.036.815-.144v1.14c-.348.108-.804.168-1.164.168-1.211,0-1.847-.576-1.847-1.679Z"/>
    </g>
    <g>
      <path d="M388.666,233.409h1.354v.948c.444-.684,1.044-1.043,1.775-1.043.827,0,1.463.444,1.775,1.151.468-.756,1.139-1.151,1.99-1.151,1.164,0,1.968.899,1.968,2.17v3.934h-1.355v-3.634c0-.84-.468-1.379-1.212-1.379-.491,0-.899.228-1.199.72.013.12.024.24.024.359v3.934h-1.367v-3.634c0-.84-.468-1.379-1.212-1.379-.491,0-.888.228-1.188.695v4.318h-1.354v-6.009Z"/>
      <path d="M400.844,232.27h-2.807v-1.248h7.052v1.248h-2.806v7.148h-1.439v-7.148Z"/>
      <path d="M406.402,231.022h1.438v7.148h4.474v1.248h-5.912v-8.396Z"/>
      <path d="M413.194,238.195l.779-1.056c1.079.888,1.859,1.224,2.83,1.224,1.104,0,1.871-.564,1.871-1.344,0-.684-.407-1.007-1.522-1.199l-1.548-.264c-1.451-.264-2.158-.983-2.158-2.135,0-1.523,1.211-2.531,3.094-2.531,1.26,0,2.411.372,3.37,1.08l-.731,1.079c-.84-.636-1.739-.971-2.687-.971-1.008,0-1.679.516-1.679,1.199,0,.612.384.923,1.295,1.067l1.499.252c1.691.3,2.482,1.043,2.482,2.314,0,1.547-1.367,2.639-3.37,2.639-1.319,0-2.458-.456-3.525-1.355Z"/>
      <path d="M423.813,236.419c0-1.763,1.271-3.106,2.927-3.106,1.643,0,2.842,1.307,2.842,3.106v.324h-4.438c.133.971.864,1.679,1.8,1.679.563,0,1.091-.216,1.427-.563l.888.804c-.731.611-1.463.875-2.375.875-1.727,0-3.07-1.355-3.07-3.119ZM428.298,235.904c-.144-.875-.768-1.487-1.57-1.487-.816,0-1.416.588-1.571,1.487h3.142Z"/>
      <path d="M430.965,233.409h1.354v.983c.456-.708,1.116-1.079,1.896-1.079,1.235,0,2.099.875,2.099,2.146v3.958h-1.367v-3.574c0-.875-.516-1.439-1.319-1.439-.552,0-.995.252-1.308.731v4.282h-1.354v-6.009Z"/>
      <path d="M438.584,234.489h-1.296v-1.08h1.296v-1.031c0-1.307.731-2.015,2.074-2.015.336,0,.672.036.9.108v1.151c-.3-.06-.48-.084-.72-.084-.624,0-.899.276-.899.864v1.007h1.619v1.08h-1.619v4.929h-1.355v-4.929Z"/>
      <path d="M442.185,236.419c0-1.775,1.296-3.106,3.022-3.106,1.715,0,3.011,1.331,3.011,3.106s-1.296,3.106-3.011,3.106c-1.727,0-3.022-1.331-3.022-3.106ZM446.886,236.419c0-1.115-.707-1.955-1.679-1.955-.983,0-1.691.839-1.691,1.955,0,1.127.708,1.955,1.691,1.955.972,0,1.679-.828,1.679-1.955Z"/>
      <path d="M449.625,233.409h1.354v1.295c.336-.912.912-1.403,1.655-1.403.229.012.384.036.588.12v1.187c-.216-.083-.491-.144-.743-.144-.66,0-1.2.372-1.5.995v3.958h-1.354v-6.009Z"/>
      <path d="M453.789,236.419c0-1.739,1.319-3.106,3.034-3.106.936,0,1.8.372,2.399,1.019l-.84.876c-.42-.468-.936-.708-1.512-.708-.971,0-1.727.84-1.727,1.919,0,1.092.756,1.919,1.727,1.919.576,0,1.092-.24,1.512-.695l.84.863c-.6.648-1.464,1.02-2.399,1.02-1.715,0-3.034-1.355-3.034-3.106Z"/>
      <path d="M459.884,236.419c0-1.763,1.271-3.106,2.927-3.106,1.643,0,2.843,1.307,2.843,3.106v.324h-4.438c.133.971.864,1.679,1.8,1.679.563,0,1.091-.216,1.427-.563l.888.804c-.731.611-1.463.875-2.375.875-1.727,0-3.07-1.355-3.07-3.119ZM464.37,235.904c-.144-.875-.768-1.487-1.57-1.487-.816,0-1.416.588-1.571,1.487h3.142Z"/>
      <path d="M467.037,233.409h1.354v.948c.444-.684,1.044-1.043,1.775-1.043.827,0,1.463.444,1.775,1.151.468-.756,1.139-1.151,1.99-1.151,1.164,0,1.968.899,1.968,2.17v3.934h-1.355v-3.634c0-.84-.468-1.379-1.212-1.379-.491,0-.899.228-1.199.72.013.12.024.24.024.359v3.934h-1.367v-3.634c0-.84-.468-1.379-1.212-1.379-.491,0-.888.228-1.188.695v4.318h-1.354v-6.009Z"/>
      <path d="M477.272,236.419c0-1.763,1.271-3.106,2.927-3.106,1.643,0,2.842,1.307,2.842,3.106v.324h-4.438c.133.971.864,1.679,1.8,1.679.563,0,1.091-.216,1.427-.563l.888.804c-.731.611-1.463.875-2.375.875-1.727,0-3.07-1.355-3.07-3.119ZM481.757,235.904c-.144-.875-.768-1.487-1.57-1.487-.816,0-1.416.588-1.571,1.487h3.142Z"/>
      <path d="M484.424,233.409h1.354v.983c.456-.708,1.116-1.079,1.896-1.079,1.235,0,2.099.875,2.099,2.146v3.958h-1.367v-3.574c0-.875-.516-1.439-1.319-1.439-.552,0-.995.252-1.308.731v4.282h-1.354v-6.009Z"/>
      <path d="M491.971,237.859v-3.37h-1.199v-1.08h1.199v-1.655l1.355-.288v1.943h1.667v1.08h-1.667v3.07c0,.587.228.815.84.815.264,0,.455-.036.815-.144v1.14c-.348.108-.804.168-1.164.168-1.211,0-1.847-.576-1.847-1.679Z"/>
    </g>
    <g>
      <path d="M391.196,252.323h1.667l3.25,8.396h-1.547l-.863-2.351h-3.442l-.863,2.351h-1.499l3.298-8.396ZM393.307,257.241l-1.319-3.55-1.308,3.55h2.627Z"/>
      <path d="M396.801,258.668v-3.958h1.367v3.562c0,.888.516,1.451,1.319,1.451.539,0,.995-.24,1.307-.719v-4.294h1.355v6.009h-1.355v-.972c-.455.708-1.104,1.068-1.906,1.068-1.224,0-2.087-.888-2.087-2.147Z"/>
      <path d="M404.577,259.16v-3.37h-1.199v-1.08h1.199v-1.655l1.355-.288v1.943h1.667v1.08h-1.667v3.07c0,.587.228.815.84.815.264,0,.455-.036.815-.144v1.14c-.348.108-.804.168-1.164.168-1.211,0-1.847-.576-1.847-1.679Z"/>
      <path d="M408.801,252.12l1.354-.24v3.814c.456-.708,1.116-1.079,1.896-1.079,1.235,0,2.099.875,2.099,2.146v3.958h-1.367v-3.574c0-.875-.516-1.439-1.319-1.439-.552,0-.995.252-1.308.731v4.282h-1.354v-8.599Z"/>
      <path d="M415.508,257.72c0-1.763,1.271-3.106,2.927-3.106,1.643,0,2.842,1.307,2.842,3.106v.324h-4.438c.133.971.864,1.679,1.8,1.679.563,0,1.091-.216,1.427-.563l.888.804c-.731.611-1.463.875-2.375.875-1.727,0-3.07-1.355-3.07-3.119ZM419.994,257.205c-.144-.875-.768-1.487-1.57-1.487-.816,0-1.416.588-1.571,1.487h3.142Z"/>
      <path d="M422.661,254.71h1.354v.983c.456-.708,1.116-1.079,1.896-1.079,1.235,0,2.099.875,2.099,2.146v3.958h-1.367v-3.574c0-.875-.516-1.439-1.319-1.439-.552,0-.995.252-1.308.731v4.282h-1.354v-6.009Z"/>
      <path d="M430.208,259.16v-3.37h-1.199v-1.08h1.199v-1.655l1.355-.288v1.943h1.667v1.08h-1.667v3.07c0,.587.228.815.84.815.264,0,.455-.036.815-.144v1.14c-.348.108-.804.168-1.164.168-1.211,0-1.847-.576-1.847-1.679Z"/>
      <path d="M434.264,252.659c0-.456.371-.839.839-.839.456,0,.84.384.84.839s-.384.828-.84.828c-.468,0-.839-.372-.839-.828ZM434.419,254.71h1.355v6.009h-1.355v-6.009Z"/>
      <path d="M437.18,257.72c0-1.739,1.319-3.106,3.034-3.106.936,0,1.8.372,2.399,1.019l-.84.876c-.42-.468-.936-.708-1.511-.708-.972,0-1.728.84-1.728,1.919,0,1.092.756,1.919,1.728,1.919.575,0,1.091-.24,1.511-.695l.84.863c-.6.648-1.464,1.02-2.399,1.02-1.715,0-3.034-1.355-3.034-3.106Z"/>
      <path d="M443.42,258.992c0-1.08.888-1.763,2.303-1.763.564,0,1.092.12,1.619.384v-.671c0-.792-.455-1.199-1.379-1.199-.504,0-1.056.144-1.751.468l-.479-.984c.899-.408,1.69-.611,2.494-.611,1.571,0,2.459.792,2.459,2.183v3.922h-1.344v-.624c-.516.503-1.091.731-1.787.731-1.259,0-2.135-.755-2.135-1.835ZM445.927,259.867c.54,0,1.008-.156,1.415-.504v-.971c-.432-.204-.863-.288-1.379-.288-.779,0-1.271.324-1.271.864,0,.552.479.899,1.235.899Z"/>
      <path d="M450.895,259.16v-3.37h-1.199v-1.08h1.199v-1.655l1.355-.288v1.943h1.667v1.08h-1.667v3.07c0,.587.228.815.84.815.264,0,.455-.036.815-.144v1.14c-.348.108-.804.168-1.164.168-1.211,0-1.847-.576-1.847-1.679Z"/>
      <path d="M454.953,252.659c0-.456.371-.839.839-.839.456,0,.84.384.84.839s-.384.828-.84.828c-.468,0-.839-.372-.839-.828ZM455.108,254.71h1.355v6.009h-1.355v-6.009Z"/>
      <path d="M457.868,257.72c0-1.775,1.296-3.106,3.022-3.106,1.715,0,3.011,1.331,3.011,3.106s-1.296,3.106-3.011,3.106c-1.727,0-3.022-1.331-3.022-3.106ZM462.569,257.72c0-1.115-.707-1.955-1.679-1.955-.983,0-1.691.839-1.691,1.955,0,1.127.708,1.955,1.691,1.955.972,0,1.679-.828,1.679-1.955Z"/>
      <path d="M465.308,254.71h1.354v.983c.456-.708,1.116-1.079,1.896-1.079,1.235,0,2.099.875,2.099,2.146v3.958h-1.367v-3.574c0-.875-.516-1.439-1.319-1.439-.552,0-.995.252-1.308.731v4.282h-1.354v-6.009Z"/>
      <path d="M474.992,254.71h1.354v.948c.444-.684,1.044-1.043,1.775-1.043.827,0,1.463.444,1.775,1.151.468-.756,1.139-1.151,1.99-1.151,1.164,0,1.968.899,1.968,2.17v3.934h-1.355v-3.634c0-.84-.468-1.379-1.212-1.379-.491,0-.899.228-1.199.72.013.12.024.24.024.359v3.934h-1.367v-3.634c0-.84-.468-1.379-1.212-1.379-.491,0-.888.228-1.188.695v4.318h-1.354v-6.009Z"/>
      <path d="M485.227,257.72c0-1.775,1.296-3.106,3.022-3.106,1.715,0,3.011,1.331,3.011,3.106s-1.296,3.106-3.011,3.106c-1.727,0-3.022-1.331-3.022-3.106ZM489.928,257.72c0-1.115-.707-1.955-1.679-1.955-.983,0-1.691.839-1.691,1.955,0,1.127.708,1.955,1.691,1.955.972,0,1.679-.828,1.679-1.955Z"/>
      <path d="M492.391,257.72c0-1.715,1.235-3.058,2.807-3.058.684,0,1.308.276,1.751.78v-3.322l1.355-.24v8.839h-1.344v-.792c-.432.54-1.104.852-1.858.852-1.523,0-2.711-1.355-2.711-3.059ZM496.949,258.979v-2.53c-.348-.408-.863-.648-1.427-.648-1.032,0-1.8.816-1.8,1.919,0,1.092.768,1.919,1.8,1.919.587,0,1.079-.228,1.427-.66Z"/>
      <path d="M499.71,257.72c0-1.763,1.271-3.106,2.927-3.106,1.643,0,2.843,1.307,2.843,3.106v.324h-4.438c.133.971.864,1.679,1.8,1.679.563,0,1.091-.216,1.427-.563l.888.804c-.731.611-1.463.875-2.375.875-1.727,0-3.07-1.355-3.07-3.119ZM504.196,257.205c-.144-.875-.768-1.487-1.57-1.487-.816,0-1.416.588-1.571,1.487h3.142Z"/>
    </g>
    <circle cx="374.473" cy="213.797" r="2.25"/>
    <circle cx="374.473" cy="235.307" r="2.25"/>
    <circle cx="374.473" cy="255.442" r="2.25"/>
  </g>
  <g>
    <line class="uuid-eb25595d-2e66-4b44-bf38-6fd22774335d" x1="136.849" y1="79.26" x2="136.849" y2="114.674"/>
    <polygon points="131.863 113.215 136.849 121.85 141.835 113.215 131.863 113.215"/>
  </g>
  <g>
    <line class="uuid-eb25595d-2e66-4b44-bf38-6fd22774335d" x1="458.427" y1="278.703" x2="458.427" y2="314.118"/>
    <polygon points="453.44 312.659 458.427 321.294 463.413 312.659 453.44 312.659"/>
  </g>
  <g>
    <line class="uuid-41db706c-7479-4bf8-a583-885fe273cdac" x1="246.93" y1="200.277" x2="341.169" y2="200.277"/>
    <polygon points="339.71 205.263 348.346 200.277 339.71 195.291 339.71 205.263"/>
  </g>
  <g>
    <path d="M150.108,93.559h1.389l2.708,6.996h-1.29l-.719-1.959h-2.869l-.72,1.959h-1.249l2.749-6.996ZM151.867,97.657l-1.099-2.958-1.089,2.958h2.188Z"/>
    <path d="M154.969,95.548h1.109v.709c.36-.47.919-.75,1.559-.75,1.269,0,2.259,1.129,2.259,2.549,0,1.429-1.02,2.548-2.329,2.548-.59,0-1.109-.22-1.469-.64v2.679h-1.129v-7.096ZM158.787,98.057c0-.91-.64-1.599-1.489-1.599-.5,0-.91.2-1.199.56v2.089c.29.35.72.56,1.199.56.859,0,1.489-.689,1.489-1.609Z"/>
    <path d="M161.079,95.548h1.109v.709c.36-.47.919-.75,1.559-.75,1.27,0,2.259,1.129,2.259,2.549,0,1.429-1.02,2.548-2.329,2.548-.59,0-1.109-.22-1.469-.64v2.679h-1.129v-7.096ZM164.896,98.057c0-.91-.64-1.599-1.489-1.599-.5,0-.91.2-1.199.56v2.089c.29.35.72.56,1.199.56.859,0,1.489-.689,1.489-1.609Z"/>
    <path d="M167.189,93.389l1.129-.2v7.366h-1.129v-7.166Z"/>
    <path d="M169.569,93.839c0-.38.31-.7.7-.7.38,0,.7.32.7.7s-.32.689-.7.689c-.39,0-.7-.31-.7-.689ZM169.699,95.548h1.129v5.007h-1.129v-5.007Z"/>
    <path d="M171.999,98.057c0-1.469,1.06-2.589,2.438-2.589,1.37,0,2.369,1.089,2.369,2.589v.27h-3.698c.11.81.72,1.399,1.499,1.399.47,0,.91-.18,1.189-.47l.74.669c-.61.51-1.219.73-1.979.73-1.439,0-2.559-1.129-2.559-2.599ZM175.737,97.627c-.12-.73-.64-1.239-1.309-1.239-.68,0-1.179.49-1.309,1.239h2.618Z"/>
    <path d="M177.559,99.976l.53-.75c.659.41,1.099.569,1.609.569.6,0,1.009-.28,1.009-.68,0-.31-.209-.47-.699-.569l-.88-.15c-.979-.18-1.449-.63-1.449-1.379,0-.939.77-1.549,1.939-1.549.7,0,1.33.2,1.969.6l-.53.75c-.51-.33-1-.48-1.509-.48-.52,0-.859.22-.859.58,0,.32.18.46.699.55l.89.17c1,.18,1.479.64,1.479,1.389,0,.919-.88,1.629-2.049,1.629-.86,0-1.619-.24-2.149-.68Z"/>
  </g>
  <g>
    <path d="M464.027,293.003h1.29l2.148,5.777,2.169-5.777h1.239l-2.738,6.996h-1.39l-2.719-6.996Z"/>
    <path d="M470.827,298.56c0-.9.74-1.469,1.919-1.469.47,0,.91.1,1.35.32v-.56c0-.66-.38-1-1.149-1-.42,0-.88.12-1.459.39l-.4-.82c.75-.34,1.409-.51,2.079-.51,1.31,0,2.049.66,2.049,1.819v3.268h-1.119v-.52c-.43.419-.909.609-1.489.609-1.05,0-1.779-.629-1.779-1.529ZM472.916,299.29c.45,0,.84-.13,1.18-.42v-.81c-.359-.17-.72-.24-1.149-.24-.649,0-1.06.27-1.06.72,0,.459.4.75,1.029.75Z"/>
    <path d="M476.586,292.833l1.13-.2v7.366h-1.13v-7.166Z"/>
    <path d="M478.966,293.283c0-.38.31-.7.7-.7.379,0,.699.32.699.7s-.32.689-.699.689c-.391,0-.7-.31-.7-.689ZM479.096,294.992h1.13v5.007h-1.13v-5.007Z"/>
    <path d="M481.397,297.5c0-1.429,1.029-2.549,2.339-2.549.569,0,1.089.23,1.459.65v-2.769l1.13-.2v7.366h-1.12v-.66c-.359.45-.919.709-1.549.709-1.27,0-2.259-1.129-2.259-2.548ZM485.195,298.55v-2.109c-.29-.34-.72-.54-1.189-.54-.859,0-1.499.68-1.499,1.599,0,.909.64,1.599,1.499,1.599.49,0,.899-.19,1.189-.55Z"/>
    <path d="M487.466,298.56c0-.9.74-1.469,1.919-1.469.47,0,.91.1,1.35.32v-.56c0-.66-.38-1-1.149-1-.42,0-.88.12-1.459.39l-.4-.82c.75-.34,1.409-.51,2.079-.51,1.31,0,2.049.66,2.049,1.819v3.268h-1.119v-.52c-.43.419-.909.609-1.489.609-1.05,0-1.779-.629-1.779-1.529ZM489.555,299.29c.45,0,.84-.13,1.18-.42v-.81c-.359-.17-.72-.24-1.149-.24-.649,0-1.06.27-1.06.72,0,.459.4.75,1.029.75Z"/>
    <path d="M493.696,298.7v-2.809h-.999v-.899h.999v-1.379l1.129-.24v1.619h1.39v.899h-1.39v2.559c0,.49.19.68.7.68.22,0,.38-.03.68-.12v.949c-.29.09-.67.14-.97.14-1.01,0-1.539-.48-1.539-1.399Z"/>
    <path d="M496.907,297.5c0-1.469,1.06-2.589,2.438-2.589,1.369,0,2.369,1.09,2.369,2.589v.27h-3.698c.11.81.72,1.399,1.499,1.399.47,0,.91-.18,1.189-.47l.739.669c-.609.51-1.219.73-1.979.73-1.439,0-2.559-1.129-2.559-2.599ZM500.645,297.071c-.12-.73-.64-1.239-1.31-1.239-.68,0-1.18.489-1.31,1.239h2.619Z"/>
    <path d="M502.466,299.419l.529-.75c.66.41,1.1.569,1.609.569.6,0,1.01-.28,1.01-.679,0-.31-.21-.47-.7-.57l-.879-.15c-.979-.18-1.449-.63-1.449-1.379,0-.939.77-1.549,1.938-1.549.7,0,1.329.2,1.969.6l-.529.75c-.51-.33-1-.48-1.51-.48-.52,0-.859.22-.859.58,0,.32.181.46.7.55l.89.17c.999.18,1.479.64,1.479,1.389,0,.919-.879,1.629-2.049,1.629-.859,0-1.619-.24-2.148-.68Z"/>
  </g>
  <g>
    <path d="M267.129,188.673h1.129v.79c.37-.57.87-.87,1.479-.87.689,0,1.219.37,1.479.959.39-.629.949-.959,1.659-.959.97,0,1.639.75,1.639,1.809v3.278h-1.129v-3.028c0-.7-.39-1.149-1.009-1.149-.41,0-.75.19-1,.6.01.1.02.2.02.3v3.278h-1.139v-3.028c0-.7-.39-1.149-1.01-1.149-.41,0-.74.19-.989.58v3.598h-1.129v-5.007Z"/>
    <path d="M277.278,187.724h-2.338v-1.04h5.876v1.04h-2.338v5.957h-1.2v-5.957Z"/>
    <path d="M281.909,186.684h1.2v5.957h3.728v1.04h-4.927v-6.996Z"/>
    <path d="M287.569,192.661l.649-.879c.899.74,1.549,1.02,2.358,1.02.92,0,1.56-.47,1.56-1.12,0-.569-.34-.839-1.27-1l-1.289-.22c-1.21-.22-1.799-.819-1.799-1.779,0-1.27,1.009-2.109,2.578-2.109,1.05,0,2.009.31,2.809.899l-.609.899c-.7-.53-1.449-.81-2.239-.81-.84,0-1.399.43-1.399,1,0,.51.32.77,1.08.89l1.249.21c1.409.25,2.068.869,2.068,1.929,0,1.29-1.139,2.199-2.808,2.199-1.1,0-2.05-.38-2.938-1.129Z"/>
    <path d="M297.269,192.381v-2.809h-1v-.899h1v-1.379l1.129-.24v1.619h1.39v.899h-1.39v2.559c0,.49.19.68.701.68.22,0,.38-.03.68-.12v.949c-.29.09-.67.14-.97.14-1.01,0-1.54-.48-1.54-1.399Z"/>
    <path d="M300.789,188.673h1.13v1.08c.279-.76.76-1.169,1.379-1.169.19.01.32.03.49.1v.989c-.181-.07-.41-.12-.62-.12-.55,0-.999.31-1.249.83v3.298h-1.13v-5.007Z"/>
    <path d="M304.308,192.241c0-.9.74-1.469,1.919-1.469.47,0,.91.1,1.35.32v-.56c0-.66-.38-1-1.149-1-.42,0-.88.12-1.459.39l-.4-.82c.75-.34,1.409-.51,2.079-.51,1.31,0,2.049.66,2.049,1.819v3.268h-1.119v-.52c-.43.419-.909.609-1.489.609-1.05,0-1.779-.629-1.779-1.529ZM306.397,192.971c.45,0,.84-.13,1.18-.42v-.81c-.359-.17-.72-.24-1.149-.24-.649,0-1.06.27-1.06.72,0,.459.4.75,1.029.75Z"/>
    <path d="M310.598,189.572h-1.079v-.899h1.079v-.859c0-1.089.61-1.679,1.729-1.679.279,0,.56.03.749.09v.959c-.249-.05-.399-.07-.6-.07-.52,0-.749.23-.749.72v.839h1.349v.899h-1.349v4.108h-1.13v-4.108Z"/>
    <path d="M314.757,189.572h-1.079v-.899h1.079v-.859c0-1.089.61-1.679,1.729-1.679.279,0,.56.03.749.09v.959c-.249-.05-.399-.07-.6-.07-.52,0-.749.23-.749.72v.839h1.349v.899h-1.349v4.108h-1.13v-4.108Z"/>
    <path d="M318.048,186.964c0-.38.31-.7.7-.7.379,0,.699.32.699.7s-.32.689-.699.689c-.391,0-.7-.31-.7-.689ZM318.178,188.673h1.13v5.007h-1.13v-5.007Z"/>
    <path d="M320.479,191.182c0-1.449,1.1-2.589,2.528-2.589.78,0,1.499.31,1.999.85l-.699.729c-.35-.39-.78-.589-1.26-.589-.81,0-1.438.7-1.438,1.599,0,.909.629,1.599,1.438,1.599.479,0,.91-.2,1.26-.58l.699.719c-.5.54-1.219.85-1.999.85-1.429,0-2.528-1.129-2.528-2.588Z"/>
  </g>
  <g>
    <path class="uuid-2aea7dc1-948f-4e2a-a50a-a5ac2974f393" d="M93.663,52.238c0-2.435,1.895-4.33,4.341-4.33,1.283,0,2.507.552,3.274,1.499l-.959.936c-.6-.744-1.427-1.139-2.315-1.139-1.631,0-2.866,1.307-2.866,3.034s1.235,3.034,2.866,3.034c.888,0,1.715-.396,2.315-1.139l.959.936c-.768.947-1.991,1.499-3.274,1.499-2.446,0-4.341-1.895-4.341-4.33Z"/>
    <path class="uuid-2aea7dc1-948f-4e2a-a50a-a5ac2974f393" d="M102.566,47.836l1.355-.24v8.839h-1.355v-8.599Z"/>
    <path class="uuid-2aea7dc1-948f-4e2a-a50a-a5ac2974f393" d="M105.422,48.376c0-.456.372-.839.84-.839.456,0,.839.384.839.839s-.384.828-.839.828c-.468,0-.84-.372-.84-.828ZM105.578,50.427h1.355v6.009h-1.355v-6.009Z"/>
    <path class="uuid-2aea7dc1-948f-4e2a-a50a-a5ac2974f393" d="M108.338,53.437c0-1.763,1.271-3.106,2.927-3.106,1.643,0,2.842,1.307,2.842,3.106v.324h-4.438c.132.971.863,1.679,1.799,1.679.564,0,1.091-.216,1.427-.563l.888.804c-.731.611-1.463.875-2.375.875-1.727,0-3.07-1.355-3.07-3.119ZM112.824,52.921c-.144-.875-.768-1.487-1.571-1.487-.815,0-1.415.588-1.571,1.487h3.143Z"/>
    <path class="uuid-2aea7dc1-948f-4e2a-a50a-a5ac2974f393" d="M115.49,50.427h1.355v.983c.456-.708,1.115-1.079,1.895-1.079,1.235,0,2.099.875,2.099,2.146v3.958h-1.367v-3.574c0-.875-.516-1.439-1.319-1.439-.552,0-.995.252-1.307.731v4.282h-1.355v-6.009Z"/>
    <path class="uuid-2aea7dc1-948f-4e2a-a50a-a5ac2974f393" d="M123.038,54.876v-3.37h-1.199v-1.08h1.199v-1.655l1.355-.288v1.943h1.667v1.08h-1.667v3.07c0,.587.228.815.839.815.264,0,.456-.036.815-.144v1.14c-.348.108-.803.168-1.163.168-1.211,0-1.847-.576-1.847-1.679Z"/>
    <path class="uuid-2aea7dc1-948f-4e2a-a50a-a5ac2974f393" d="M129.422,55.74l.636-.899c.792.492,1.319.684,1.931.684.72,0,1.211-.336,1.211-.815,0-.372-.252-.563-.839-.684l-1.056-.18c-1.175-.216-1.739-.756-1.739-1.655,0-1.127.923-1.859,2.327-1.859.839,0,1.595.24,2.363.719l-.636.9c-.612-.396-1.199-.576-1.811-.576-.624,0-1.031.264-1.031.695,0,.384.216.552.839.66l1.067.204c1.199.216,1.775.768,1.775,1.667,0,1.104-1.055,1.955-2.458,1.955-1.031,0-1.943-.288-2.579-.816Z"/>
    <path class="uuid-2aea7dc1-948f-4e2a-a50a-a5ac2974f393" d="M135.493,53.437c0-1.763,1.271-3.106,2.927-3.106,1.643,0,2.842,1.307,2.842,3.106v.324h-4.438c.132.971.863,1.679,1.799,1.679.564,0,1.091-.216,1.427-.563l.888.804c-.731.611-1.463.875-2.375.875-1.727,0-3.07-1.355-3.07-3.119ZM139.979,52.921c-.144-.875-.768-1.487-1.571-1.487-.815,0-1.415.588-1.571,1.487h3.143Z"/>
    <path class="uuid-2aea7dc1-948f-4e2a-a50a-a5ac2974f393" d="M142.645,50.427h1.355v1.295c.336-.912.912-1.403,1.655-1.403.228.012.384.036.587.12v1.187c-.216-.083-.492-.144-.744-.144-.66,0-1.199.372-1.499.995v3.958h-1.355v-6.009Z"/>
    <path class="uuid-2aea7dc1-948f-4e2a-a50a-a5ac2974f393" d="M146.833,50.427h1.475l1.679,4.366,1.667-4.366h1.416l-2.471,6.009h-1.319l-2.447-6.009Z"/>
    <path class="uuid-2aea7dc1-948f-4e2a-a50a-a5ac2974f393" d="M153.877,48.376c0-.456.372-.839.84-.839.456,0,.839.384.839.839s-.384.828-.839.828c-.468,0-.84-.372-.84-.828ZM154.033,50.427h1.355v6.009h-1.355v-6.009Z"/>
    <path class="uuid-2aea7dc1-948f-4e2a-a50a-a5ac2974f393" d="M156.793,53.437c0-1.739,1.319-3.106,3.035-3.106.936,0,1.799.372,2.398,1.019l-.839.876c-.42-.468-.936-.708-1.511-.708-.972,0-1.727.84-1.727,1.919,0,1.092.755,1.919,1.727,1.919.576,0,1.091-.24,1.511-.695l.839.863c-.6.648-1.463,1.02-2.398,1.02-1.715,0-3.035-1.355-3.035-3.106Z"/>
    <path class="uuid-2aea7dc1-948f-4e2a-a50a-a5ac2974f393" d="M162.889,53.437c0-1.763,1.271-3.106,2.927-3.106,1.643,0,2.842,1.307,2.842,3.106v.324h-4.438c.132.971.863,1.679,1.799,1.679.564,0,1.091-.216,1.427-.563l.888.804c-.732.611-1.463.875-2.375.875-1.727,0-3.07-1.355-3.07-3.119ZM167.375,52.921c-.144-.875-.768-1.487-1.571-1.487-.815,0-1.415.588-1.571,1.487h3.143Z"/>
  </g>
  <g>
    <path d="M418.599,351.037l.779-1.056c1.079.888,1.859,1.223,2.83,1.223,1.104,0,1.871-.563,1.871-1.343,0-.684-.407-1.008-1.522-1.2l-1.548-.264c-1.451-.264-2.158-.983-2.158-2.135,0-1.523,1.211-2.531,3.094-2.531,1.26,0,2.411.372,3.37,1.08l-.731,1.079c-.84-.635-1.739-.971-2.687-.971-1.008,0-1.679.516-1.679,1.199,0,.612.384.923,1.295,1.067l1.499.252c1.691.3,2.482,1.043,2.482,2.314,0,1.547-1.367,2.639-3.37,2.639-1.318,0-2.458-.456-3.525-1.355Z"/>
    <path d="M426.638,349.262c0-1.763,1.271-3.106,2.927-3.106,1.643,0,2.843,1.307,2.843,3.106v.324h-4.438c.133.971.864,1.679,1.8,1.679.563,0,1.091-.216,1.427-.563l.888.804c-.731.611-1.463.875-2.375.875-1.727,0-3.07-1.355-3.07-3.119ZM431.124,348.746c-.144-.875-.768-1.487-1.57-1.487-.816,0-1.416.588-1.571,1.487h3.142Z"/>
    <path d="M433.791,346.251h1.354v1.295c.336-.912.912-1.403,1.655-1.403.229.012.384.036.588.12v1.187c-.216-.084-.491-.144-.743-.144-.66,0-1.2.372-1.5.995v3.958h-1.354v-6.009Z"/>
    <path d="M437.979,346.251h1.476l1.679,4.366,1.667-4.366h1.415l-2.471,6.009h-1.319l-2.446-6.009Z"/>
    <path d="M444.734,349.262c0-1.763,1.271-3.106,2.927-3.106,1.643,0,2.843,1.307,2.843,3.106v.324h-4.438c.133.971.864,1.679,1.8,1.679.563,0,1.091-.216,1.427-.563l.888.804c-.731.611-1.463.875-2.375.875-1.727,0-3.07-1.355-3.07-3.119ZM449.219,348.746c-.144-.875-.768-1.487-1.57-1.487-.816,0-1.416.588-1.571,1.487h3.142Z"/>
    <path d="M451.886,346.251h1.354v1.295c.336-.912.912-1.403,1.655-1.403.229.012.384.036.588.12v1.187c-.216-.084-.491-.144-.743-.144-.66,0-1.2.372-1.5.995v3.958h-1.354v-6.009Z"/>
    <path d="M458.762,351.564l.636-.899c.791.492,1.319.684,1.931.684.72,0,1.212-.335,1.212-.815,0-.372-.252-.563-.84-.684l-1.056-.18c-1.175-.216-1.739-.755-1.739-1.655,0-1.127.924-1.859,2.327-1.859.84,0,1.595.24,2.362.719l-.636.9c-.611-.396-1.199-.576-1.811-.576-.624,0-1.031.264-1.031.695,0,.384.216.552.839.66l1.068.204c1.199.216,1.774.768,1.774,1.667,0,1.104-1.056,1.955-2.458,1.955-1.032,0-1.943-.288-2.579-.816Z"/>
    <path d="M464.833,349.262c0-1.763,1.271-3.106,2.927-3.106,1.643,0,2.843,1.307,2.843,3.106v.324h-4.438c.133.971.864,1.679,1.8,1.679.563,0,1.091-.216,1.427-.563l.888.804c-.731.611-1.463.875-2.375.875-1.727,0-3.07-1.355-3.07-3.119ZM469.319,348.746c-.144-.875-.768-1.487-1.57-1.487-.816,0-1.416.588-1.571,1.487h3.142Z"/>
    <path d="M471.986,346.251h1.354v1.295c.336-.912.912-1.403,1.655-1.403.229.012.384.036.588.12v1.187c-.216-.084-.491-.144-.743-.144-.66,0-1.2.372-1.5.995v3.958h-1.354v-6.009Z"/>
    <path d="M476.174,346.251h1.476l1.679,4.366,1.667-4.366h1.415l-2.471,6.009h-1.319l-2.446-6.009Z"/>
    <path d="M483.218,344.201c0-.456.371-.839.839-.839.456,0,.84.384.84.839s-.384.828-.84.828c-.468,0-.839-.372-.839-.828ZM483.374,346.251h1.355v6.009h-1.355v-6.009Z"/>
    <path d="M486.133,349.262c0-1.739,1.319-3.106,3.034-3.106.936,0,1.8.372,2.399,1.02l-.84.875c-.42-.468-.936-.708-1.511-.708-.972,0-1.728.84-1.728,1.919,0,1.092.756,1.919,1.728,1.919.575,0,1.091-.24,1.511-.695l.84.863c-.6.648-1.464,1.02-2.399,1.02-1.715,0-3.034-1.355-3.034-3.106Z"/>
    <path d="M492.229,349.262c0-1.763,1.271-3.106,2.927-3.106,1.643,0,2.842,1.307,2.842,3.106v.324h-4.438c.133.971.864,1.679,1.8,1.679.563,0,1.091-.216,1.427-.563l.888.804c-.731.611-1.463.875-2.375.875-1.727,0-3.07-1.355-3.07-3.119ZM496.714,348.746c-.144-.875-.768-1.487-1.57-1.487-.816,0-1.416.588-1.571,1.487h3.142Z"/>
  </g>
</svg>