<?xml version="1.0" encoding="UTF-8"?>
<svg id="uuid-1b2061a0-a609-4b0c-8ce1-718faaeddcf0" data-name="Layer 1" xmlns="http://www.w3.org/2000/svg" width="841.89" height="142.527" viewBox="0 0 841.89 142.527">
  <defs>
    <style>
      .uuid-190fade4-389d-472a-954a-25cf0403497f {
        stroke: #faaa4f;
      }

      .uuid-190fade4-389d-472a-954a-25cf0403497f, .uuid-77c3e412-a7c6-4860-8a58-926fed85b2da, .uuid-409040b5-2230-4685-97b8-1d4c7e7619f6, .uuid-0e3115c5-a829-4513-a01c-9c7655635dc9, .uuid-657907fe-dd86-4bd6-b8a3-f0ab6937361a {
        fill: #fff;
      }

      .uuid-190fade4-389d-472a-954a-25cf0403497f, .uuid-77c3e412-a7c6-4860-8a58-926fed85b2da, .uuid-0e3115c5-a829-4513-a01c-9c7655635dc9, .uuid-657907fe-dd86-4bd6-b8a3-f0ab6937361a {
        stroke-miterlimit: 10;
      }

      .uuid-77c3e412-a7c6-4860-8a58-926fed85b2da {
        stroke: #ffea6c;
      }

      .uuid-0e3115c5-a829-4513-a01c-9c7655635dc9 {
        stroke: #f56d6d;
      }

      .uuid-538813ed-78d0-4c4d-8825-01fa8e94cc00 {
        fill: none;
        stroke: #000;
        stroke-dasharray: 3 3;
        stroke-linecap: round;
        stroke-linejoin: round;
      }

      .uuid-657907fe-dd86-4bd6-b8a3-f0ab6937361a {
        stroke: #3f9c35;
      }
    </style>
  </defs>
  <rect class="uuid-409040b5-2230-4685-97b8-1d4c7e7619f6" width="841.89" height="142.527"/>
  <g>
    <rect class="uuid-0e3115c5-a829-4513-a01c-9c7655635dc9" x="23.246" y="27.921" width="158.962" height="63.979"/>
    <g>
      <path d="M35.234,38.567h4.102c1.787,0,2.962,1.164,2.962,2.771,0,1.523-1.175,2.699-2.962,2.699h-2.039v2.926h-2.063v-8.396ZM38.964,42.393c.839,0,1.247-.456,1.247-1.067,0-.6-.408-1.056-1.235-1.056h-1.679v2.123h1.667Z"/>
      <path d="M42.819,43.88c0-1.823,1.391-3.202,3.226-3.202s3.226,1.379,3.226,3.202-1.391,3.203-3.226,3.203-3.226-1.379-3.226-3.203ZM47.376,43.88c0-.923-.552-1.583-1.331-1.583s-1.332.66-1.332,1.583.552,1.583,1.332,1.583,1.331-.66,1.331-1.583Z"/>
      <path d="M50.51,40.774h1.943v1.403c.396-1.032.947-1.523,1.679-1.523.276.012.408.036.648.156v1.667c-.24-.12-.576-.192-.912-.192-.576,0-1.104.3-1.415.768v3.91h-1.943v-6.188Z"/>
      <path d="M56.63,45.091v-2.818h-1.2v-1.499h1.2v-1.715l1.943-.396v2.111h1.655v1.499h-1.655v2.435c0,.552.216.744.815.744.228,0,.408-.024.792-.132v1.571c-.36.108-.936.192-1.331.192-1.463,0-2.219-.672-2.219-1.991Z"/>
      <path d="M61.166,42.717h4.414v1.619h-4.414v-1.619Z"/>
      <path d="M66.95,38.423l1.943-.3v8.839h-1.943v-8.54Z"/>
      <path d="M70.13,43.88c0-1.811,1.343-3.202,3.118-3.202,1.787,0,3.046,1.355,3.046,3.274v.42h-4.258c.18.695.744,1.163,1.451,1.163.516,0,.947-.18,1.223-.516l1.284,1.067c-.804.708-1.56.996-2.603.996-1.823,0-3.262-1.403-3.262-3.203ZM74.496,43.268c-.168-.66-.636-1.08-1.259-1.08-.612,0-1.043.396-1.199,1.08h2.458Z"/>
      <path d="M76.658,40.774h2.111l1.403,3.886,1.415-3.886h2.003l-2.531,6.188h-1.895l-2.506-6.188Z"/>
      <path d="M83.978,43.88c0-1.811,1.343-3.202,3.118-3.202,1.787,0,3.046,1.355,3.046,3.274v.42h-4.258c.18.695.744,1.163,1.451,1.163.516,0,.947-.18,1.223-.516l1.284,1.067c-.804.708-1.56.996-2.603.996-1.823,0-3.262-1.403-3.262-3.203ZM88.343,43.268c-.168-.66-.636-1.08-1.259-1.08-.612,0-1.043.396-1.199,1.08h2.458Z"/>
      <path d="M91.357,38.423l1.943-.3v8.839h-1.943v-8.54Z"/>
    </g>
    <g>
      <path d="M35.138,56.101h1.332v.852c.432-.563,1.104-.899,1.871-.899,1.523,0,2.71,1.355,2.71,3.058,0,1.715-1.224,3.059-2.794,3.059-.708,0-1.332-.264-1.763-.768v3.214h-1.355v-8.516ZM39.72,59.111c0-1.091-.768-1.919-1.787-1.919-.6,0-1.091.24-1.439.672v2.506c.348.42.863.672,1.439.672,1.032,0,1.787-.828,1.787-1.931Z"/>
      <path d="M42.194,59.111c0-1.775,1.295-3.106,3.022-3.106,1.715,0,3.01,1.331,3.01,3.106s-1.295,3.106-3.01,3.106c-1.727,0-3.022-1.331-3.022-3.106ZM46.896,59.111c0-1.115-.708-1.955-1.679-1.955-.983,0-1.691.839-1.691,1.955,0,1.127.708,1.955,1.691,1.955.972,0,1.679-.828,1.679-1.955Z"/>
      <path d="M49.634,56.101h1.355v1.295c.336-.912.912-1.403,1.655-1.403.228.012.384.036.587.12v1.187c-.216-.083-.492-.144-.744-.144-.66,0-1.199.372-1.499.995v3.958h-1.355v-6.009Z"/>
      <path d="M55.093,60.551v-3.37h-1.199v-1.08h1.199v-1.655l1.355-.288v1.943h1.667v1.08h-1.667v3.07c0,.587.228.815.839.815.264,0,.456-.036.815-.144v1.14c-.348.108-.803.168-1.163.168-1.211,0-1.847-.576-1.847-1.679Z"/>
      <path d="M59.485,53.714h1.439v7.148h4.474v1.248h-5.913v-8.396Z"/>
      <path d="M66.314,59.111c0-1.763,1.271-3.106,2.927-3.106,1.643,0,2.842,1.307,2.842,3.106v.324h-4.438c.132.971.863,1.679,1.799,1.679.564,0,1.091-.216,1.427-.563l.888.804c-.731.611-1.463.875-2.375.875-1.727,0-3.07-1.355-3.07-3.119ZM70.8,58.596c-.144-.875-.768-1.487-1.571-1.487-.815,0-1.415.588-1.571,1.487h3.143Z"/>
      <path d="M72.578,56.101h1.475l1.679,4.366,1.667-4.366h1.416l-2.471,6.009h-1.319l-2.447-6.009Z"/>
      <path d="M79.333,59.111c0-1.763,1.271-3.106,2.927-3.106,1.643,0,2.842,1.307,2.842,3.106v.324h-4.438c.132.971.863,1.679,1.799,1.679.564,0,1.091-.216,1.427-.563l.888.804c-.731.611-1.463.875-2.375.875-1.727,0-3.07-1.355-3.07-3.119ZM83.819,58.596c-.144-.875-.768-1.487-1.571-1.487-.815,0-1.415.588-1.571,1.487h3.143Z"/>
      <path d="M86.485,53.511l1.355-.24v8.839h-1.355v-8.599Z"/>
      <path d="M89.678,53.714h1.871l2.458,5.097,2.447-5.097h1.871v8.396h-1.355v-6.572l-2.974,5.973-2.986-6.009v6.608h-1.332v-8.396Z"/>
      <path d="M100.921,60.551v-3.37h-1.199v-1.08h1.199v-1.655l1.355-.288v1.943h1.667v1.08h-1.667v3.07c0,.587.228.815.839.815.264,0,.456-.036.815-.144v1.14c-.348.108-.803.168-1.163.168-1.211,0-1.847-.576-1.847-1.679Z"/>
      <path d="M105.145,53.511l1.355-.24v8.839h-1.355v-8.599Z"/>
      <path d="M107.63,61.414l.636-.899c.792.492,1.319.684,1.931.684.72,0,1.211-.336,1.211-.815,0-.372-.252-.563-.839-.684l-1.056-.18c-1.175-.216-1.739-.756-1.739-1.655,0-1.127.923-1.859,2.327-1.859.839,0,1.595.24,2.363.719l-.636.9c-.612-.396-1.199-.576-1.811-.576-.624,0-1.031.264-1.031.695,0,.384.216.552.839.66l1.067.204c1.199.216,1.775.768,1.775,1.667,0,1.104-1.055,1.955-2.458,1.955-1.031,0-1.943-.288-2.579-.816Z"/>
      <path d="M113.737,56.857c0-.48.372-.875.839-.875s.84.396.84.875-.372.863-.84.863-.839-.384-.839-.863ZM113.737,61.354c0-.48.372-.876.839-.876s.84.396.84.876-.372.863-.84.863-.839-.384-.839-.863Z"/>
      <path d="M125.746,57.684c0,2.735-1.559,4.546-3.91,4.546-.803,0-1.679-.276-2.23-.72l.72-.972c.479.348,1.007.516,1.619.516,1.56,0,2.471-1.248,2.495-3.358-.576.792-1.427,1.235-2.315,1.235-1.643,0-2.818-1.08-2.818-2.579,0-1.595,1.259-2.771,2.962-2.771,2.062,0,3.478,1.667,3.478,4.102ZM124.379,56.892c-.216-1.319-.996-2.183-2.063-2.183-.983,0-1.715.684-1.715,1.619,0,.912.708,1.571,1.727,1.571.792,0,1.523-.384,2.051-1.008Z"/>
      <path d="M126.973,57.912c0-2.579,1.403-4.33,3.442-4.33s3.43,1.751,3.43,4.33-1.391,4.318-3.43,4.318-3.442-1.751-3.442-4.318ZM132.538,57.912c0-1.931-.828-3.166-2.123-3.166s-2.135,1.235-2.135,3.166c0,1.919.84,3.154,2.135,3.154s2.123-1.235,2.123-3.154Z"/>
      <path d="M135.097,59.795c0-.959.744-1.775,1.799-2.051-.899-.3-1.511-1.02-1.511-1.859,0-1.319,1.211-2.303,2.831-2.303s2.831.983,2.831,2.303c0,.839-.612,1.559-1.511,1.859,1.055.276,1.799,1.091,1.799,2.051,0,1.427-1.295,2.447-3.118,2.447s-3.118-1.02-3.118-2.447ZM140.014,59.711c0-.827-.755-1.439-1.799-1.439s-1.799.612-1.799,1.439.755,1.452,1.799,1.452,1.799-.624,1.799-1.452ZM139.763,55.957c0-.743-.672-1.295-1.547-1.295s-1.547.552-1.547,1.295.671,1.308,1.547,1.308,1.547-.564,1.547-1.308Z"/>
      <path d="M142.501,57.912c0-2.579,1.403-4.33,3.442-4.33s3.43,1.751,3.43,4.33-1.391,4.318-3.43,4.318-3.442-1.751-3.442-4.318ZM148.066,57.912c0-1.931-.828-3.166-2.123-3.166s-2.135,1.235-2.135,3.166c0,1.919.84,3.154,2.135,3.154s2.123-1.235,2.123-3.154Z"/>
    </g>
    <g>
      <path d="M36.35,69.138h1.416l-.756,3.526h4.102l.756-3.526h1.403l-1.787,8.396h-1.403l.768-3.586h-4.102l-.768,3.586h-1.416l1.787-8.396Z"/>
      <path d="M44.546,71.524h1.332l-1.295,6.009h-1.343l1.307-6.009ZM44.75,69.57c0-.492.432-.936.923-.936.408,0,.744.324.744.743,0,.504-.42.924-.923.924-.432,0-.744-.312-.744-.731Z"/>
      <path d="M46.263,79.284l.611-.947c.684.479,1.367.719,2.015.719.792,0,1.307-.408,1.463-1.163l.204-.959c-.432.408-.983.636-1.607.636-1.332,0-2.327-1.175-2.327-2.723,0-1.847,1.379-3.37,3.07-3.37.78,0,1.416.336,1.823.923l.18-.875h1.308l-1.367,6.513c-.288,1.379-1.235,2.123-2.687,2.123-.924,0-1.967-.336-2.687-.875ZM50.772,75.938l.528-2.614c-.3-.432-.84-.696-1.416-.696-1.091,0-1.943.923-1.943,2.111,0,1.007.636,1.715,1.559,1.715.468,0,.9-.18,1.271-.516Z"/>
      <path d="M55.153,68.934l1.391-.24-.792,3.79c.564-.684,1.224-1.031,1.979-1.031,1.283,0,1.979.947,1.679,2.279l-.815,3.802h-1.332l.756-3.478c.204-.912-.216-1.535-1.043-1.535-.528,0-1.007.252-1.379.72l-.899,4.293h-1.343l1.799-8.599Z"/>
      <path d="M60.578,74.847c0-1.871,1.427-3.418,3.167-3.418,1.475,0,2.506,1.103,2.506,2.674,0,.276-.012.516-.048.756h-4.33c.012.959.708,1.679,1.643,1.679.516,0,1.02-.168,1.379-.479l.72.875c-.732.503-1.416.72-2.207.72-1.667,0-2.831-1.151-2.831-2.807ZM65.052,74.019c-.036-.852-.6-1.475-1.391-1.475s-1.439.6-1.691,1.475h3.082Z"/>
      <path d="M66.794,76.658l.744-.864c.755.612,1.271.828,1.931.828.636,0,1.116-.36,1.116-.815,0-.324-.204-.516-.708-.647l-1.019-.264c-.936-.264-1.403-.792-1.403-1.571,0-1.164.875-1.907,2.255-1.907.899,0,1.727.312,2.446.899l-.744.852c-.587-.468-1.223-.72-1.775-.72-.624,0-.996.276-.996.708,0,.335.18.516.696.66l1.02.276c.996.275,1.475.768,1.475,1.511,0,1.176-1.02,2.051-2.398,2.051-1.032,0-1.991-.36-2.639-.996Z"/>
      <path d="M73.478,75.854l.695-3.25h-1.175l.24-1.08h1.151l.36-1.655,1.403-.288-.42,1.943h1.643l-.24,1.08h-1.643l-.647,3.01c-.132.624.084.864.768.864.192,0,.312-.012.684-.108l-.24,1.14c-.288.072-.66.12-1.02.12-1.248,0-1.799-.636-1.559-1.775Z"/>
      <path d="M81.253,71.524h1.319l-.132.624c.444-.419,1.007-.659,1.631-.659,1.319,0,2.327,1.175,2.327,2.734,0,1.859-1.379,3.382-3.07,3.382-.804,0-1.439-.348-1.823-.983l-.755,3.418h-1.332l1.835-8.516ZM82.249,73.132l-.552,2.554c.288.456.839.768,1.427.768,1.115,0,1.967-.923,1.967-2.123,0-1.02-.647-1.715-1.571-1.715-.467,0-.899.18-1.271.516Z"/>
      <path d="M88.417,71.524h1.343l-.264,1.188c.504-.852,1.104-1.283,1.787-1.283.24,0,.492.06.672.144l-.264,1.188c-.144-.108-.503-.18-.792-.18-.588,0-1.163.324-1.571.899l-.887,4.054h-1.332l1.308-6.009Z"/>
      <path d="M93.037,71.524h1.332l-1.295,6.009h-1.343l1.307-6.009ZM93.241,69.57c0-.492.432-.936.923-.936.408,0,.744.324.744.743,0,.504-.42.924-.923.924-.432,0-.744-.312-.744-.731Z"/>
      <path d="M95.102,74.847c0-1.895,1.451-3.43,3.25-3.43,1.571,0,2.699,1.175,2.699,2.807,0,1.883-1.475,3.43-3.25,3.43-1.559,0-2.698-1.175-2.698-2.807ZM99.731,74.247c0-1.007-.576-1.679-1.463-1.679-1.031,0-1.859.996-1.859,2.231,0,1.007.588,1.679,1.463,1.679,1.043,0,1.859-.972,1.859-2.231Z"/>
      <path d="M103.069,71.524h1.343l-.264,1.188c.504-.852,1.104-1.283,1.787-1.283.24,0,.492.06.672.144l-.264,1.188c-.144-.108-.503-.18-.792-.18-.587,0-1.164.324-1.571.899l-.887,4.054h-1.332l1.308-6.009Z"/>
      <path d="M107.689,71.524h1.332l-1.295,6.009h-1.343l1.307-6.009ZM107.893,69.57c0-.492.432-.936.923-.936.408,0,.744.324.744.743,0,.504-.42.924-.923.924-.432,0-.744-.312-.744-.731Z"/>
      <path d="M110.473,75.854l.695-3.25h-1.175l.24-1.08h1.151l.36-1.655,1.403-.288-.42,1.943h1.643l-.24,1.08h-1.643l-.647,3.01c-.132.624.084.864.768.864.192,0,.312-.012.684-.108l-.24,1.14c-.288.072-.66.12-1.02.12-1.248,0-1.799-.636-1.559-1.775Z"/>
      <path d="M113.63,80.028l.251-1.164c.216.048.396.072.528.072.504,0,.839-.18,1.091-.624l.408-.696-.959-6.093h1.392l.6,4.545,2.626-4.545h1.463l-4.27,7.172c-.624,1.019-1.319,1.463-2.279,1.463-.251,0-.503-.036-.851-.132Z"/>
    </g>
  </g>
  <g>
    <rect class="uuid-190fade4-389d-472a-954a-25cf0403497f" x="236.627" y="27.921" width="158.962" height="63.979"/>
    <g>
      <path d="M248.04,38.567h2.123l1.02,5.205,1.463-5.205h1.931l1.463,5.205,1.02-5.205h2.051l-1.871,8.396h-2.183l-1.475-5.409-1.487,5.409h-2.183l-1.871-8.396Z"/>
      <path d="M259.476,43.88c0-1.823,1.392-3.202,3.227-3.202s3.226,1.379,3.226,3.202-1.391,3.203-3.226,3.203-3.227-1.379-3.227-3.203ZM264.033,43.88c0-.923-.552-1.583-1.331-1.583s-1.332.66-1.332,1.583.552,1.583,1.332,1.583,1.331-.66,1.331-1.583Z"/>
      <path d="M267.167,40.774h1.943v1.403c.396-1.032.947-1.523,1.679-1.523.276.012.408.036.648.156v1.667c-.24-.12-.576-.192-.912-.192-.576,0-1.104.3-1.415.768v3.91h-1.943v-6.188Z"/>
      <path d="M272.471,38.387l1.943-.3v5.145l2.159-2.458h2.146l-2.519,2.771,2.699,3.418h-2.423l-2.062-2.734v2.734h-1.943v-8.575Z"/>
      <path d="M279.719,38.423l1.943-.3v8.839h-1.943v-8.54Z"/>
      <path d="M282.899,43.88c0-1.823,1.392-3.202,3.227-3.202s3.226,1.379,3.226,3.202-1.391,3.203-3.226,3.203-3.227-1.379-3.227-3.203ZM287.457,43.88c0-.923-.552-1.583-1.331-1.583s-1.332.66-1.332,1.583.552,1.583,1.332,1.583,1.331-.66,1.331-1.583Z"/>
      <path d="M290.363,45.187c0-1.14.888-1.799,2.411-1.799.444,0,.888.084,1.439.288v-.504c0-.6-.396-.899-1.223-.899-.468,0-1.02.132-1.739.432l-.672-1.355c1.02-.456,1.931-.672,2.842-.672,1.715,0,2.71.852,2.71,2.327v3.958h-1.919v-.54c-.54.456-1.055.636-1.715.636-1.259,0-2.135-.768-2.135-1.871ZM293.098,45.775c.408,0,.78-.108,1.115-.312v-.792c-.359-.084-.708-.132-1.067-.132-.635,0-.995.216-.995.612s.348.624.947.624Z"/>
      <path d="M297.323,43.856c0-1.739,1.271-3.118,2.878-3.118.648,0,1.235.264,1.655.744v-3.059l1.943-.3v8.839h-1.919v-.804c-.408.516-1.091.84-1.823.84-1.523,0-2.734-1.403-2.734-3.143ZM301.856,44.899v-2.087c-.3-.312-.708-.479-1.151-.479-.852,0-1.475.647-1.475,1.535,0,.875.636,1.523,1.475,1.523.468,0,.852-.168,1.151-.492Z"/>
      <path d="M305.171,42.717h4.414v1.619h-4.414v-1.619Z"/>
      <path d="M310.955,38.423l1.943-.3v8.839h-1.943v-8.54Z"/>
      <path d="M314.135,43.88c0-1.811,1.344-3.202,3.119-3.202,1.787,0,3.046,1.355,3.046,3.274v.42h-4.258c.18.695.744,1.163,1.451,1.163.516,0,.947-.18,1.223-.516l1.284,1.067c-.804.708-1.56.996-2.603.996-1.823,0-3.263-1.403-3.263-3.203ZM318.5,43.268c-.168-.66-.636-1.08-1.259-1.08-.611,0-1.043.396-1.199,1.08h2.458Z"/>
      <path d="M320.663,40.774h2.111l1.403,3.886,1.415-3.886h2.003l-2.531,6.188h-1.895l-2.507-6.188Z"/>
      <path d="M327.982,43.88c0-1.811,1.344-3.202,3.119-3.202,1.787,0,3.046,1.355,3.046,3.274v.42h-4.258c.18.695.744,1.163,1.451,1.163.516,0,.947-.18,1.223-.516l1.284,1.067c-.804.708-1.56.996-2.603.996-1.823,0-3.263-1.403-3.263-3.203ZM332.348,43.268c-.168-.66-.636-1.08-1.259-1.08-.611,0-1.043.396-1.199,1.08h2.458Z"/>
      <path d="M335.362,38.423l1.943-.3v8.839h-1.943v-8.54Z"/>
    </g>
    <g>
      <path d="M247.98,61.414l.636-.899c.792.492,1.319.684,1.931.684.72,0,1.211-.336,1.211-.815,0-.372-.252-.563-.839-.684l-1.056-.18c-1.175-.216-1.739-.756-1.739-1.655,0-1.127.923-1.859,2.327-1.859.839,0,1.595.24,2.363.719l-.636.9c-.612-.396-1.199-.576-1.811-.576-.624,0-1.031.264-1.031.695,0,.384.216.552.839.66l1.067.204c1.199.216,1.775.768,1.775,1.667,0,1.104-1.055,1.955-2.458,1.955-1.031,0-1.943-.288-2.579-.816Z"/>
      <path d="M254.051,59.111c0-1.763,1.271-3.106,2.927-3.106,1.643,0,2.842,1.307,2.842,3.106v.324h-4.438c.132.971.863,1.679,1.799,1.679.564,0,1.091-.216,1.427-.563l.888.804c-.732.611-1.463.875-2.375.875-1.727,0-3.07-1.355-3.07-3.119ZM258.537,58.596c-.144-.875-.768-1.487-1.571-1.487-.815,0-1.415.588-1.571,1.487h3.143Z"/>
      <path d="M261.203,53.511l1.355-.24v8.839h-1.355v-8.599Z"/>
      <path d="M263.951,59.111c0-1.763,1.271-3.106,2.927-3.106,1.643,0,2.842,1.307,2.842,3.106v.324h-4.438c.132.971.863,1.679,1.799,1.679.564,0,1.091-.216,1.427-.563l.888.804c-.731.611-1.463.875-2.375.875-1.727,0-3.07-1.355-3.07-3.119ZM268.437,58.596c-.144-.875-.768-1.487-1.571-1.487-.815,0-1.415.588-1.571,1.487h3.143Z"/>
      <path d="M270.852,59.111c0-1.739,1.319-3.106,3.035-3.106.936,0,1.799.372,2.398,1.019l-.839.876c-.42-.468-.936-.708-1.511-.708-.972,0-1.727.84-1.727,1.919,0,1.092.755,1.919,1.727,1.919.576,0,1.091-.24,1.511-.695l.839.863c-.6.648-1.463,1.02-2.398,1.02-1.715,0-3.035-1.355-3.035-3.106Z"/>
      <path d="M278.267,60.551v-3.37h-1.199v-1.08h1.199v-1.655l1.355-.288v1.943h1.667v1.08h-1.667v3.07c0,.587.228.815.839.815.264,0,.456-.036.815-.144v1.14c-.348.108-.803.168-1.163.168-1.211,0-1.847-.576-1.847-1.679Z"/>
      <path d="M282.119,59.111c0-1.775,1.295-3.106,3.022-3.106,1.715,0,3.01,1.331,3.01,3.106s-1.295,3.106-3.01,3.106c-1.727,0-3.022-1.331-3.022-3.106ZM286.821,59.111c0-1.115-.708-1.955-1.679-1.955-.983,0-1.691.839-1.691,1.955,0,1.127.708,1.955,1.691,1.955.972,0,1.679-.828,1.679-1.955Z"/>
      <path d="M289.559,56.101h1.355v1.295c.336-.912.912-1.403,1.655-1.403.228.012.384.036.587.12v1.187c-.216-.083-.492-.144-.744-.144-.66,0-1.199.372-1.499.995v3.958h-1.355v-6.009Z"/>
      <path d="M294.155,56.857c0-.48.372-.875.839-.875s.84.396.84.875-.372.863-.84.863-.839-.384-.839-.863ZM294.155,61.354c0-.48.372-.876.839-.876s.84.396.84.876-.372.863-.84.863-.839-.384-.839-.863Z"/>
      <path d="M300.035,56.101h1.355v.948c.444-.684,1.043-1.043,1.775-1.043.828,0,1.463.444,1.775,1.151.468-.756,1.14-1.151,1.991-1.151,1.163,0,1.967.899,1.967,2.17v3.934h-1.355v-3.634c0-.84-.468-1.379-1.211-1.379-.492,0-.9.228-1.2.72.012.12.024.24.024.359v3.934h-1.368v-3.634c0-.84-.467-1.379-1.211-1.379-.492,0-.888.228-1.188.695v4.318h-1.355v-6.009Z"/>
      <path d="M310.235,60.383c0-1.08.887-1.763,2.303-1.763.563,0,1.091.12,1.619.384v-.671c0-.792-.456-1.199-1.379-1.199-.504,0-1.056.144-1.751.468l-.48-.984c.9-.408,1.691-.611,2.495-.611,1.571,0,2.459.792,2.459,2.183v3.922h-1.343v-.624c-.516.503-1.091.731-1.787.731-1.259,0-2.135-.755-2.135-1.835ZM312.741,61.258c.54,0,1.008-.156,1.416-.504v-.971c-.432-.204-.864-.288-1.379-.288-.78,0-1.271.324-1.271.864,0,.552.48.899,1.235.899Z"/>
      <path d="M317.71,60.551v-3.37h-1.199v-1.08h1.199v-1.655l1.355-.288v1.943h1.667v1.08h-1.667v3.07c0,.587.228.815.839.815.264,0,.456-.036.815-.144v1.14c-.348.108-.803.168-1.163.168-1.211,0-1.847-.576-1.847-1.679Z"/>
      <path d="M321.562,59.111c0-1.739,1.319-3.106,3.035-3.106.936,0,1.799.372,2.398,1.019l-.839.876c-.42-.468-.936-.708-1.511-.708-.972,0-1.727.84-1.727,1.919,0,1.092.755,1.919,1.727,1.919.576,0,1.091-.24,1.511-.695l.839.863c-.6.648-1.463,1.02-2.398,1.02-1.715,0-3.035-1.355-3.035-3.106Z"/>
      <path d="M328.114,53.511l1.355-.24v3.814c.456-.708,1.115-1.079,1.895-1.079,1.235,0,2.099.875,2.099,2.146v3.958h-1.367v-3.574c0-.875-.516-1.439-1.319-1.439-.552,0-.995.252-1.307.731v4.282h-1.355v-8.599Z"/>
      <path d="M335.266,53.714h1.439v7.148h4.474v1.248h-5.913v-8.396Z"/>
      <path d="M342.298,60.383c0-1.08.887-1.763,2.303-1.763.563,0,1.091.12,1.619.384v-.671c0-.792-.456-1.199-1.379-1.199-.504,0-1.056.144-1.751.468l-.48-.984c.9-.408,1.691-.611,2.495-.611,1.571,0,2.459.792,2.459,2.183v3.922h-1.343v-.624c-.516.503-1.091.731-1.787.731-1.259,0-2.135-.755-2.135-1.835ZM344.805,61.258c.54,0,1.008-.156,1.416-.504v-.971c-.432-.204-.864-.288-1.379-.288-.78,0-1.271.324-1.271.864,0,.552.48.899,1.235.899Z"/>
      <path d="M349.209,53.546l1.355-.228v3.586c.42-.528,1.091-.852,1.847-.852,1.523,0,2.71,1.355,2.71,3.058,0,1.715-1.224,3.059-2.794,3.059-.708,0-1.332-.288-1.787-.828v.768h-1.332v-8.563ZM353.791,59.111c0-1.091-.768-1.919-1.787-1.919-.6,0-1.091.24-1.439.672v2.506c.348.42.863.672,1.439.672,1.032,0,1.787-.828,1.787-1.931Z"/>
      <path d="M356.266,59.111c0-1.763,1.271-3.106,2.927-3.106,1.643,0,2.842,1.307,2.842,3.106v.324h-4.438c.132.971.863,1.679,1.799,1.679.564,0,1.091-.216,1.427-.563l.888.804c-.731.611-1.463.875-2.375.875-1.727,0-3.07-1.355-3.07-3.119ZM360.751,58.596c-.144-.875-.768-1.487-1.571-1.487-.815,0-1.415.588-1.571,1.487h3.143Z"/>
      <path d="M363.417,53.511l1.355-.24v8.839h-1.355v-8.599Z"/>
      <path d="M365.902,61.414l.636-.899c.792.492,1.319.684,1.931.684.72,0,1.211-.336,1.211-.815,0-.372-.252-.563-.839-.684l-1.056-.18c-1.175-.216-1.739-.756-1.739-1.655,0-1.127.923-1.859,2.327-1.859.839,0,1.595.24,2.363.719l-.636.9c-.612-.396-1.199-.576-1.811-.576-.624,0-1.031.264-1.031.695,0,.384.216.552.839.66l1.067.204c1.199.216,1.775.768,1.775,1.667,0,1.104-1.055,1.955-2.458,1.955-1.031,0-1.943-.288-2.579-.816Z"/>
    </g>
  </g>
  <g>
    <rect class="uuid-77c3e412-a7c6-4860-8a58-926fed85b2da" x="450.009" y="27.921" width="158.962" height="63.979"/>
    <g>
      <path d="M462.997,38.567h1.943l3.729,5.085-.036-5.085h1.943v8.396h-1.823l-3.85-5.253.036,5.253h-1.943v-8.396Z"/>
      <path d="M471.865,45.187c0-1.14.888-1.799,2.411-1.799.443,0,.888.084,1.439.288v-.504c0-.6-.396-.899-1.224-.899-.468,0-1.02.132-1.739.432l-.672-1.355c1.02-.456,1.932-.672,2.843-.672,1.715,0,2.711.852,2.711,2.327v3.958h-1.919v-.54c-.54.456-1.056.636-1.716.636-1.259,0-2.135-.768-2.135-1.871ZM474.6,45.775c.408,0,.78-.108,1.116-.312v-.792c-.36-.084-.708-.132-1.068-.132-.635,0-.995.216-.995.612s.348.624.947.624Z"/>
      <path d="M479.101,40.774h1.943v.983c.456-.708,1.079-1.08,1.835-1.08.804,0,1.439.444,1.739,1.151.479-.744,1.175-1.151,2.026-1.151,1.14,0,1.943.899,1.943,2.171v4.114h-1.943v-3.73c0-.624-.371-1.031-.923-1.031-.36,0-.647.144-.899.468v4.293h-1.943v-3.73c0-.624-.372-1.031-.924-1.031-.359,0-.659.156-.911.479v4.282h-1.943v-6.188Z"/>
      <path d="M489.781,43.88c0-1.811,1.344-3.202,3.118-3.202,1.787,0,3.047,1.355,3.047,3.274v.42h-4.258c.18.695.743,1.163,1.451,1.163.516,0,.947-.18,1.223-.516l1.284,1.067c-.804.708-1.56.996-2.603.996-1.823,0-3.263-1.403-3.263-3.203ZM494.146,43.268c-.168-.66-.636-1.08-1.259-1.08-.611,0-1.044.396-1.199,1.08h2.458Z"/>
      <path d="M496.718,46.327l.852-1.295c.887.468,1.391.624,1.99.624.552,0,.888-.192.888-.504,0-.24-.18-.372-.575-.444l-1.188-.216c-1.199-.228-1.823-.839-1.823-1.799,0-1.259.972-2.015,2.591-2.015.863,0,1.715.24,2.519.708l-.888,1.235c-.624-.36-1.199-.527-1.775-.527-.468,0-.743.156-.743.419,0,.252.156.36.636.444l1.163.216c1.224.228,1.859.852,1.859,1.787,0,1.211-1.14,2.123-2.663,2.123-1.127,0-2.122-.264-2.842-.756Z"/>
      <path d="M503.353,40.774h1.919v.863c.408-.552,1.092-.899,1.836-.899,1.522,0,2.734,1.403,2.734,3.142s-1.271,3.119-2.879,3.119c-.672,0-1.259-.252-1.667-.72v3.19h-1.943v-8.695ZM507.935,43.868c0-.875-.636-1.523-1.476-1.523-.479,0-.852.168-1.163.504v2.063c.3.312.708.492,1.163.492.852,0,1.476-.647,1.476-1.535Z"/>
      <path d="M510.853,45.187c0-1.14.888-1.799,2.411-1.799.443,0,.888.084,1.439.288v-.504c0-.6-.396-.899-1.224-.899-.468,0-1.02.132-1.739.432l-.672-1.355c1.02-.456,1.932-.672,2.843-.672,1.715,0,2.711.852,2.711,2.327v3.958h-1.919v-.54c-.54.456-1.056.636-1.716.636-1.259,0-2.135-.768-2.135-1.871ZM513.587,45.775c.408,0,.78-.108,1.116-.312v-.792c-.36-.084-.708-.132-1.068-.132-.635,0-.995.216-.995.612s.348.624.947.624Z"/>
      <path d="M517.813,43.88c0-1.811,1.391-3.202,3.202-3.202,1.02,0,1.954.408,2.578,1.14l-1.188,1.187c-.396-.468-.791-.671-1.319-.671-.768,0-1.343.66-1.343,1.547s.575,1.547,1.343,1.547c.528,0,.924-.204,1.319-.671l1.188,1.187c-.624.732-1.559,1.14-2.578,1.14-1.812,0-3.202-1.392-3.202-3.203Z"/>
      <path d="M524.101,43.88c0-1.811,1.344-3.202,3.118-3.202,1.787,0,3.047,1.355,3.047,3.274v.42h-4.258c.18.695.743,1.163,1.451,1.163.516,0,.947-.18,1.223-.516l1.284,1.067c-.804.708-1.56.996-2.603.996-1.823,0-3.263-1.403-3.263-3.203ZM528.466,43.268c-.168-.66-.636-1.08-1.259-1.08-.611,0-1.044.396-1.199,1.08h2.458Z"/>
      <path d="M531.457,42.717h4.413v1.619h-4.413v-1.619Z"/>
      <path d="M537.24,38.423l1.943-.3v8.839h-1.943v-8.54Z"/>
      <path d="M540.421,43.88c0-1.811,1.343-3.202,3.118-3.202,1.787,0,3.046,1.355,3.046,3.274v.42h-4.258c.18.695.744,1.163,1.451,1.163.516,0,.947-.18,1.224-.516l1.283,1.067c-.804.708-1.56.996-2.603.996-1.823,0-3.262-1.403-3.262-3.203ZM544.786,43.268c-.168-.66-.636-1.08-1.26-1.08-.611,0-1.043.396-1.199,1.08h2.459Z"/>
      <path d="M546.948,40.774h2.111l1.403,3.886,1.415-3.886h2.003l-2.531,6.188h-1.895l-2.507-6.188Z"/>
      <path d="M554.269,43.88c0-1.811,1.343-3.202,3.118-3.202,1.787,0,3.046,1.355,3.046,3.274v.42h-4.258c.18.695.744,1.163,1.451,1.163.516,0,.947-.18,1.224-.516l1.283,1.067c-.804.708-1.56.996-2.603.996-1.823,0-3.262-1.403-3.262-3.203ZM558.634,43.268c-.168-.66-.636-1.08-1.26-1.08-.611,0-1.043.396-1.199,1.08h2.459Z"/>
      <path d="M561.647,38.423l1.943-.3v8.839h-1.943v-8.54Z"/>
    </g>
    <g>
      <path d="M462.901,56.101h1.355v.983c.455-.708,1.115-1.079,1.895-1.079,1.235,0,2.099.875,2.099,2.146v3.958h-1.367v-3.574c0-.875-.516-1.439-1.319-1.439-.552,0-.995.252-1.307.731v4.282h-1.355v-6.009Z"/>
      <path d="M469.573,60.383c0-1.08.888-1.763,2.303-1.763.563,0,1.092.12,1.619.384v-.671c0-.792-.456-1.199-1.379-1.199-.504,0-1.056.144-1.751.468l-.48-.984c.9-.408,1.691-.611,2.495-.611,1.571,0,2.459.792,2.459,2.183v3.922h-1.344v-.624c-.516.503-1.091.731-1.787.731-1.259,0-2.135-.755-2.135-1.835ZM472.08,61.258c.54,0,1.008-.156,1.415-.504v-.971c-.432-.204-.863-.288-1.379-.288-.78,0-1.271.324-1.271.864,0,.552.479.899,1.235.899Z"/>
      <path d="M476.484,56.101h1.355v.948c.444-.684,1.044-1.043,1.775-1.043.827,0,1.463.444,1.774,1.151.468-.756,1.14-1.151,1.991-1.151,1.163,0,1.967.899,1.967,2.17v3.934h-1.354v-3.634c0-.84-.468-1.379-1.212-1.379-.491,0-.899.228-1.199.72.012.12.024.24.024.359v3.934h-1.368v-3.634c0-.84-.467-1.379-1.211-1.379-.491,0-.888.228-1.188.695v4.318h-1.355v-6.009Z"/>
      <path d="M486.721,59.111c0-1.763,1.271-3.106,2.927-3.106,1.644,0,2.843,1.307,2.843,3.106v.324h-4.438c.132.971.863,1.679,1.799,1.679.563,0,1.091-.216,1.427-.563l.888.804c-.731.611-1.463.875-2.375.875-1.727,0-3.07-1.355-3.07-3.119ZM491.207,58.596c-.145-.875-.768-1.487-1.571-1.487-.815,0-1.415.588-1.571,1.487h3.143Z"/>
      <path d="M493.393,61.414l.636-.899c.792.492,1.319.684,1.931.684.72,0,1.212-.336,1.212-.815,0-.372-.252-.563-.84-.684l-1.056-.18c-1.175-.216-1.738-.756-1.738-1.655,0-1.127.923-1.859,2.326-1.859.84,0,1.596.24,2.363.719l-.636.9c-.612-.396-1.199-.576-1.812-.576-.623,0-1.031.264-1.031.695,0,.384.216.552.84.66l1.067.204c1.199.216,1.774.768,1.774,1.667,0,1.104-1.055,1.955-2.458,1.955-1.031,0-1.943-.288-2.579-.816Z"/>
      <path d="M499.681,56.101h1.331v.852c.432-.563,1.104-.899,1.871-.899,1.523,0,2.711,1.355,2.711,3.058,0,1.715-1.224,3.059-2.795,3.059-.708,0-1.331-.264-1.763-.768v3.214h-1.355v-8.516ZM504.262,59.111c0-1.091-.768-1.919-1.787-1.919-.6,0-1.091.24-1.438.672v2.506c.348.42.863.672,1.438.672,1.032,0,1.787-.828,1.787-1.931Z"/>
      <path d="M506.761,60.383c0-1.08.887-1.763,2.303-1.763.563,0,1.091.12,1.619.384v-.671c0-.792-.456-1.199-1.38-1.199-.504,0-1.055.144-1.751.468l-.479-.984c.899-.408,1.691-.611,2.494-.611,1.571,0,2.459.792,2.459,2.183v3.922h-1.343v-.624c-.516.503-1.092.731-1.787.731-1.26,0-2.135-.755-2.135-1.835ZM509.267,61.258c.54,0,1.008-.156,1.416-.504v-.971c-.433-.204-.864-.288-1.38-.288-.779,0-1.271.324-1.271.864,0,.552.48.899,1.235.899Z"/>
      <path d="M513.396,59.111c0-1.739,1.319-3.106,3.034-3.106.936,0,1.799.372,2.398,1.019l-.839.876c-.42-.468-.936-.708-1.512-.708-.972,0-1.727.84-1.727,1.919,0,1.092.755,1.919,1.727,1.919.576,0,1.092-.24,1.512-.695l.839.863c-.6.648-1.463,1.02-2.398,1.02-1.715,0-3.034-1.355-3.034-3.106Z"/>
      <path d="M519.492,59.111c0-1.763,1.271-3.106,2.927-3.106,1.643,0,2.842,1.307,2.842,3.106v.324h-4.438c.132.971.863,1.679,1.799,1.679.564,0,1.092-.216,1.428-.563l.888.804c-.731.611-1.464.875-2.375.875-1.728,0-3.07-1.355-3.07-3.119ZM523.978,58.596c-.144-.875-.768-1.487-1.571-1.487-.815,0-1.415.588-1.571,1.487h3.143Z"/>
      <path d="M526.464,56.857c0-.48.372-.875.84-.875s.84.396.84.875-.372.863-.84.863-.84-.384-.84-.863ZM526.464,61.354c0-.48.372-.876.84-.876s.84.396.84.876-.372.863-.84.863-.84-.384-.84-.863Z"/>
      <path d="M532.344,53.546l1.355-.228v3.586c.42-.528,1.092-.852,1.848-.852,1.522,0,2.71,1.355,2.71,3.058,0,1.715-1.224,3.059-2.794,3.059-.708,0-1.332-.288-1.787-.828v.768h-1.332v-8.563ZM536.926,59.111c0-1.091-.768-1.919-1.787-1.919-.6,0-1.092.24-1.439.672v2.506c.348.42.863.672,1.439.672,1.031,0,1.787-.828,1.787-1.931Z"/>
      <path d="M539.4,59.111c0-1.775,1.295-3.106,3.022-3.106,1.715,0,3.01,1.331,3.01,3.106s-1.295,3.106-3.01,3.106c-1.728,0-3.022-1.331-3.022-3.106ZM544.102,59.111c0-1.115-.707-1.955-1.679-1.955-.983,0-1.691.839-1.691,1.955,0,1.127.708,1.955,1.691,1.955.972,0,1.679-.828,1.679-1.955Z"/>
      <path d="M546.563,59.111c0-1.775,1.296-3.106,3.022-3.106,1.716,0,3.011,1.331,3.011,3.106s-1.295,3.106-3.011,3.106c-1.727,0-3.022-1.331-3.022-3.106ZM551.266,59.111c0-1.115-.708-1.955-1.68-1.955-.983,0-1.69.839-1.69,1.955,0,1.127.707,1.955,1.69,1.955.972,0,1.68-.828,1.68-1.955Z"/>
      <path d="M554.003,53.487l1.355-.228v5.397l2.495-2.555h1.559l-2.771,2.783,2.915,3.226h-1.728l-2.471-2.771v2.771h-1.355v-8.623Z"/>
      <path d="M560.328,54.05c0-.456.371-.839.839-.839.456,0,.84.384.84.839s-.384.828-.84.828c-.468,0-.839-.372-.839-.828ZM560.483,56.101h1.355v6.009h-1.355v-6.009Z"/>
      <path d="M563.519,56.101h1.355v.983c.455-.708,1.115-1.079,1.895-1.079,1.235,0,2.099.875,2.099,2.146v3.958h-1.367v-3.574c0-.875-.516-1.439-1.319-1.439-.552,0-.995.252-1.307.731v4.282h-1.355v-6.009Z"/>
      <path d="M571.139,57.181h-1.295v-1.08h1.295v-1.031c0-1.307.731-2.015,2.075-2.015.336,0,.671.036.899.108v1.151c-.3-.06-.479-.084-.72-.084-.624,0-.899.276-.899.864v1.007h1.619v1.08h-1.619v4.929h-1.355v-4.929Z"/>
      <path d="M574.739,59.111c0-1.775,1.295-3.106,3.022-3.106,1.715,0,3.01,1.331,3.01,3.106s-1.295,3.106-3.01,3.106c-1.728,0-3.022-1.331-3.022-3.106ZM579.44,59.111c0-1.115-.707-1.955-1.679-1.955-.983,0-1.691.839-1.691,1.955,0,1.127.708,1.955,1.691,1.955.972,0,1.679-.828,1.679-1.955Z"/>
    </g>
  </g>
  <g>
    <rect class="uuid-657907fe-dd86-4bd6-b8a3-f0ab6937361a" x="663.39" y="27.921" width="158.962" height="63.979"/>
    <g>
      <path d="M675.578,38.567h2.59l2.027,4.03,2.016-4.03h2.59v8.396h-1.943v-5.697l-2.686,5.097-2.699-5.145v5.745h-1.895v-8.396Z"/>
      <path d="M686.223,43.88c0-1.811,1.344-3.202,3.118-3.202,1.787,0,3.046,1.355,3.046,3.274v.42h-4.258c.18.695.744,1.163,1.451,1.163.516,0,.947-.18,1.224-.516l1.284,1.067c-.805.708-1.561.996-2.604.996-1.822,0-3.262-1.403-3.262-3.203ZM690.588,43.268c-.168-.66-.636-1.08-1.26-1.08-.611,0-1.043.396-1.199,1.08h2.459Z"/>
      <path d="M693.158,46.327l.852-1.295c.887.468,1.391.624,1.99.624.553,0,.889-.192.889-.504,0-.24-.181-.372-.576-.444l-1.188-.216c-1.199-.228-1.822-.839-1.822-1.799,0-1.259.971-2.015,2.59-2.015.863,0,1.715.24,2.519.708l-.888,1.235c-.623-.36-1.199-.527-1.775-.527-.467,0-.743.156-.743.419,0,.252.156.36.636.444l1.164.216c1.223.228,1.858.852,1.858,1.787,0,1.211-1.14,2.123-2.663,2.123-1.127,0-2.122-.264-2.842-.756Z"/>
      <path d="M699.793,38.423l1.943-.3v3.658c.48-.72,1.152-1.104,1.955-1.104,1.199,0,2.051.875,2.051,2.111v4.174h-1.943v-3.61c0-.696-.407-1.151-1.031-1.151-.42,0-.756.168-1.031.516v4.246h-1.943v-8.54Z"/>
      <path d="M707.066,42.717h4.413v1.619h-4.413v-1.619Z"/>
      <path d="M712.285,40.774h1.836l.863,3.694,1.043-3.694h1.596l1.031,3.682.852-3.682h1.787l-1.644,6.188h-1.847l-1.008-3.646-.983,3.646h-1.87l-1.656-6.188Z"/>
      <path d="M722.125,38.735c0-.6.492-1.091,1.092-1.091s1.092.492,1.092,1.091-.492,1.091-1.092,1.091-1.092-.492-1.092-1.091ZM722.245,40.774h1.943v6.188h-1.943v-6.188Z"/>
      <path d="M725.426,43.856c0-1.739,1.271-3.118,2.879-3.118.646,0,1.234.264,1.654.744v-3.059l1.943-.3v8.839h-1.92v-.804c-.407.516-1.091.84-1.822.84-1.523,0-2.734-1.403-2.734-3.143ZM729.959,44.899v-2.087c-.3-.312-.707-.479-1.151-.479-.852,0-1.476.647-1.476,1.535,0,.875.637,1.523,1.476,1.523.468,0,.852-.168,1.151-.492Z"/>
      <path d="M733.141,43.88c0-1.811,1.344-3.202,3.119-3.202,1.787,0,3.047,1.355,3.047,3.274v.42h-4.258c.18.695.743,1.163,1.451,1.163.516,0,.947-.18,1.223-.516l1.283,1.067c-.803.708-1.559.996-2.602.996-1.824,0-3.264-1.403-3.264-3.203ZM737.507,43.268c-.168-.66-.636-1.08-1.259-1.08-.611,0-1.044.396-1.199,1.08h2.458Z"/>
    </g>
    <g>
      <path d="M675.482,56.101h1.355v.983c.455-.708,1.115-1.079,1.895-1.079,1.235,0,2.099.875,2.099,2.146v3.958h-1.367v-3.574c0-.875-.516-1.439-1.319-1.439-.552,0-.995.252-1.307.731v4.282h-1.355v-6.009Z"/>
      <path d="M682.154,60.383c0-1.08.887-1.763,2.303-1.763.563,0,1.092.12,1.619.384v-.671c0-.792-.456-1.199-1.379-1.199-.504,0-1.057.144-1.752.468l-.479-.984c.899-.408,1.691-.611,2.495-.611,1.57,0,2.459.792,2.459,2.183v3.922h-1.344v-.624c-.516.503-1.092.731-1.787.731-1.26,0-2.135-.755-2.135-1.835ZM684.66,61.258c.541,0,1.008-.156,1.416-.504v-.971c-.432-.204-.863-.288-1.379-.288-.78,0-1.271.324-1.271.864,0,.552.479.899,1.234.899Z"/>
      <path d="M689.065,56.101h1.355v.948c.444-.684,1.044-1.043,1.774-1.043.828,0,1.464.444,1.775,1.151.468-.756,1.14-1.151,1.991-1.151,1.163,0,1.967.899,1.967,2.17v3.934h-1.354v-3.634c0-.84-.469-1.379-1.212-1.379-.491,0-.899.228-1.2.72.013.12.025.24.025.359v3.934h-1.368v-3.634c0-.84-.468-1.379-1.211-1.379-.491,0-.888.228-1.188.695v4.318h-1.355v-6.009Z"/>
      <path d="M699.302,59.111c0-1.763,1.271-3.106,2.927-3.106,1.643,0,2.842,1.307,2.842,3.106v.324h-4.438c.133.971.863,1.679,1.799,1.679.564,0,1.092-.216,1.428-.563l.888.804c-.731.611-1.464.875-2.375.875-1.728,0-3.07-1.355-3.07-3.119ZM703.787,58.596c-.144-.875-.768-1.487-1.57-1.487-.816,0-1.416.588-1.572,1.487h3.143Z"/>
      <path d="M705.974,61.414l.636-.899c.791.492,1.319.684,1.931.684.72,0,1.212-.336,1.212-.815,0-.372-.252-.563-.84-.684l-1.056-.18c-1.175-.216-1.739-.756-1.739-1.655,0-1.127.924-1.859,2.327-1.859.839,0,1.595.24,2.362.719l-.635.9c-.612-.396-1.199-.576-1.812-.576-.624,0-1.031.264-1.031.695,0,.384.216.552.839.66l1.068.204c1.199.216,1.774.768,1.774,1.667,0,1.104-1.056,1.955-2.458,1.955-1.031,0-1.943-.288-2.579-.816Z"/>
      <path d="M712.262,56.101h1.331v.852c.432-.563,1.104-.899,1.871-.899,1.522,0,2.71,1.355,2.71,3.058,0,1.715-1.223,3.059-2.794,3.059-.708,0-1.331-.264-1.763-.768v3.214h-1.355v-8.516ZM716.843,59.111c0-1.091-.768-1.919-1.787-1.919-.6,0-1.091.24-1.438.672v2.506c.348.42.863.672,1.438.672,1.032,0,1.787-.828,1.787-1.931Z"/>
      <path d="M719.342,60.383c0-1.08.887-1.763,2.303-1.763.562,0,1.091.12,1.619.384v-.671c0-.792-.457-1.199-1.38-1.199-.504,0-1.056.144-1.751.468l-.48-.984c.9-.408,1.691-.611,2.495-.611,1.571,0,2.459.792,2.459,2.183v3.922h-1.343v-.624c-.516.503-1.092.731-1.787.731-1.26,0-2.135-.755-2.135-1.835ZM721.848,61.258c.54,0,1.008-.156,1.416-.504v-.971c-.433-.204-.864-.288-1.38-.288-.78,0-1.271.324-1.271.864,0,.552.479.899,1.235.899Z"/>
      <path d="M725.977,59.111c0-1.739,1.32-3.106,3.035-3.106.936,0,1.799.372,2.398,1.019l-.84.876c-.42-.468-.936-.708-1.511-.708-.972,0-1.728.84-1.728,1.919,0,1.092.756,1.919,1.728,1.919.575,0,1.091-.24,1.511-.695l.84.863c-.6.648-1.463,1.02-2.398,1.02-1.715,0-3.035-1.355-3.035-3.106Z"/>
      <path d="M732.072,59.111c0-1.763,1.271-3.106,2.928-3.106,1.643,0,2.842,1.307,2.842,3.106v.324h-4.438c.132.971.863,1.679,1.799,1.679.564,0,1.092-.216,1.428-.563l.887.804c-.73.611-1.463.875-2.375.875-1.727,0-3.07-1.355-3.07-3.119ZM736.559,58.596c-.145-.875-.768-1.487-1.571-1.487-.815,0-1.415.588-1.571,1.487h3.143Z"/>
      <path d="M739.045,56.857c0-.48.371-.875.84-.875s.84.396.84.875-.373.863-.84.863-.84-.384-.84-.863ZM739.045,61.354c0-.48.371-.876.84-.876s.84.396.84.876-.373.863-.84.863-.84-.384-.84-.863Z"/>
      <path d="M744.758,54.05c0-.456.371-.839.839-.839.456,0,.839.384.839.839s-.383.828-.839.828c-.468,0-.839-.372-.839-.828ZM744.913,56.101h1.354v6.009h-1.354v-6.009Z"/>
      <path d="M747.409,61.414l.636-.899c.791.492,1.319.684,1.931.684.72,0,1.212-.336,1.212-.815,0-.372-.252-.563-.84-.684l-1.056-.18c-1.175-.216-1.739-.756-1.739-1.655,0-1.127.924-1.859,2.327-1.859.839,0,1.595.24,2.362.719l-.635.9c-.612-.396-1.199-.576-1.812-.576-.624,0-1.031.264-1.031.695,0,.384.216.552.839.66l1.068.204c1.199.216,1.774.768,1.774,1.667,0,1.104-1.056,1.955-2.458,1.955-1.031,0-1.943-.288-2.579-.816Z"/>
      <path d="M754.32,60.551v-3.37h-1.199v-1.08h1.199v-1.655l1.355-.288v1.943h1.667v1.08h-1.667v3.07c0,.587.229.815.84.815.264,0,.455-.036.814-.144v1.14c-.348.108-.803.168-1.162.168-1.212,0-1.848-.576-1.848-1.679Z"/>
      <path d="M758.377,54.05c0-.456.371-.839.84-.839.455,0,.839.384.839.839s-.384.828-.839.828c-.469,0-.84-.372-.84-.828ZM758.533,56.101h1.354v6.009h-1.354v-6.009Z"/>
      <path d="M761.293,59.111c0-1.775,1.295-3.106,3.021-3.106,1.716,0,3.011,1.331,3.011,3.106s-1.295,3.106-3.011,3.106c-1.727,0-3.021-1.331-3.021-3.106ZM765.994,59.111c0-1.115-.707-1.955-1.68-1.955-.982,0-1.69.839-1.69,1.955,0,1.127.708,1.955,1.69,1.955.973,0,1.68-.828,1.68-1.955Z"/>
      <path d="M768.684,58.128h4.187v1.151h-4.187v-1.151Z"/>
      <path d="M773.856,61.414l.636-.899c.791.492,1.319.684,1.931.684.72,0,1.212-.336,1.212-.815,0-.372-.252-.563-.84-.684l-1.056-.18c-1.175-.216-1.739-.756-1.739-1.655,0-1.127.924-1.859,2.327-1.859.839,0,1.595.24,2.362.719l-.635.9c-.612-.396-1.199-.576-1.812-.576-.624,0-1.031.264-1.031.695,0,.384.216.552.839.66l1.068.204c1.199.216,1.774.768,1.774,1.667,0,1.104-1.056,1.955-2.458,1.955-1.031,0-1.943-.288-2.579-.816Z"/>
      <path d="M779.784,64.652v-1.175c.155.036.348.048.528.048.479,0,.768-.216.971-.684l.275-.671-2.266-6.069h1.498l1.535,4.45,1.668-4.45h1.486l-2.878,7.052c-.468,1.163-1.019,1.583-2.146,1.583-.192,0-.433-.024-.672-.084Z"/>
      <path d="M785.928,61.414l.637-.899c.791.492,1.318.684,1.93.684.721,0,1.212-.336,1.212-.815,0-.372-.252-.563-.839-.684l-1.057-.18c-1.175-.216-1.738-.756-1.738-1.655,0-1.127.924-1.859,2.326-1.859.84,0,1.596.24,2.363.719l-.636.9c-.612-.396-1.199-.576-1.812-.576-.623,0-1.031.264-1.031.695,0,.384.217.552.84.66l1.067.204c1.199.216,1.774.768,1.774,1.667,0,1.104-1.055,1.955-2.458,1.955-1.031,0-1.942-.288-2.579-.816Z"/>
      <path d="M792.84,60.551v-3.37h-1.199v-1.08h1.199v-1.655l1.355-.288v1.943h1.666v1.08h-1.666v3.07c0,.587.227.815.839.815.265,0,.456-.036.815-.144v1.14c-.348.108-.803.168-1.163.168-1.212,0-1.847-.576-1.847-1.679Z"/>
      <path d="M796.691,59.111c0-1.763,1.271-3.106,2.928-3.106,1.643,0,2.842,1.307,2.842,3.106v.324h-4.438c.132.971.863,1.679,1.799,1.679.564,0,1.092-.216,1.428-.563l.887.804c-.73.611-1.463.875-2.375.875-1.727,0-3.07-1.355-3.07-3.119ZM801.178,58.596c-.145-.875-.768-1.487-1.571-1.487-.815,0-1.415.588-1.571,1.487h3.143Z"/>
      <path d="M803.844,56.101h1.355v.948c.443-.684,1.043-1.043,1.775-1.043.827,0,1.463.444,1.774,1.151.468-.756,1.14-1.151,1.991-1.151,1.163,0,1.967.899,1.967,2.17v3.934h-1.355v-3.634c0-.84-.467-1.379-1.211-1.379-.492,0-.9.228-1.199.72.012.12.023.24.023.359v3.934h-1.367v-3.634c0-.84-.467-1.379-1.211-1.379-.492,0-.888.228-1.188.695v4.318h-1.355v-6.009Z"/>
    </g>
    <g>
      <path d="M676.766,69.138h1.402l-1.522,7.148h4.39l-.265,1.248h-5.792l1.787-8.396Z"/>
      <path d="M682.106,74.847c0-1.895,1.451-3.43,3.25-3.43,1.571,0,2.698,1.175,2.698,2.807,0,1.883-1.475,3.43-3.25,3.43-1.56,0-2.698-1.175-2.698-2.807ZM686.735,74.247c0-1.007-.575-1.679-1.463-1.679-1.031,0-1.859.996-1.859,2.231,0,1.007.588,1.679,1.464,1.679,1.043,0,1.858-.972,1.858-2.231Z"/>
      <path d="M689.353,71.524h1.248l.144,4.234,2.087-4.234h1.14l.312,4.222,1.919-4.222h1.271l-2.891,6.009h-1.283l-.276-4.234-2.086,4.234h-1.296l-.288-6.009Z"/>
      <path d="M697.598,74.847c0-1.871,1.428-3.418,3.167-3.418,1.475,0,2.506,1.103,2.506,2.674,0,.276-.012.516-.048.756h-4.329c.012.959.707,1.679,1.643,1.679.516,0,1.02-.168,1.38-.479l.72.875c-.732.503-1.416.72-2.207.72-1.667,0-2.831-1.151-2.831-2.807ZM702.071,74.019c-.036-.852-.6-1.475-1.391-1.475s-1.439.6-1.691,1.475h3.082Z"/>
      <path d="M703.814,76.658l.743-.864c.756.612,1.271.828,1.931.828.636,0,1.116-.36,1.116-.815,0-.324-.204-.516-.708-.647l-1.02-.264c-.936-.264-1.403-.792-1.403-1.571,0-1.164.876-1.907,2.255-1.907.899,0,1.728.312,2.446.899l-.743.852c-.588-.468-1.224-.72-1.775-.72-.623,0-.995.276-.995.708,0,.335.18.516.695.66l1.02.276c.996.275,1.476.768,1.476,1.511,0,1.176-1.02,2.051-2.398,2.051-1.032,0-1.991-.36-2.639-.996Z"/>
      <path d="M710.498,75.854l.695-3.25h-1.176l.24-1.08h1.151l.359-1.655,1.403-.288-.42,1.943h1.644l-.24,1.08h-1.643l-.647,3.01c-.132.624.084.864.768.864.191,0,.312-.012.684-.108l-.24,1.14c-.288.072-.659.12-1.02.12-1.247,0-1.799-.636-1.559-1.775Z"/>
      <path d="M718.273,71.524h1.319l-.132.624c.443-.419,1.007-.659,1.631-.659,1.319,0,2.326,1.175,2.326,2.734,0,1.859-1.379,3.382-3.07,3.382-.803,0-1.438-.348-1.822-.983l-.756,3.418h-1.331l1.835-8.516ZM719.269,73.132l-.552,2.554c.288.456.84.768,1.428.768,1.115,0,1.967-.923,1.967-2.123,0-1.02-.647-1.715-1.571-1.715-.468,0-.899.18-1.271.516Z"/>
      <path d="M725.437,71.524h1.343l-.264,1.188c.504-.852,1.104-1.283,1.787-1.283.239,0,.491.06.672.144l-.265,1.188c-.144-.108-.503-.18-.791-.18-.588,0-1.164.324-1.571.899l-.888,4.054h-1.331l1.308-6.009Z"/>
      <path d="M730.057,71.524h1.332l-1.296,6.009h-1.343l1.307-6.009ZM730.261,69.57c0-.492.432-.936.924-.936.407,0,.743.324.743.743,0,.504-.42.924-.923.924-.433,0-.744-.312-.744-.731Z"/>
      <path d="M732.121,74.847c0-1.895,1.451-3.43,3.25-3.43,1.571,0,2.699,1.175,2.699,2.807,0,1.883-1.476,3.43-3.251,3.43-1.559,0-2.698-1.175-2.698-2.807ZM736.751,74.247c0-1.007-.576-1.679-1.464-1.679-1.031,0-1.858.996-1.858,2.231,0,1.007.588,1.679,1.463,1.679,1.044,0,1.859-.972,1.859-2.231Z"/>
      <path d="M740.089,71.524h1.344l-.265,1.188c.504-.852,1.104-1.283,1.787-1.283.24,0,.492.06.672.144l-.264,1.188c-.145-.108-.504-.18-.792-.18-.588,0-1.163.324-1.571.899l-.887,4.054h-1.332l1.308-6.009Z"/>
      <path d="M744.709,71.524h1.331l-1.295,6.009h-1.344l1.308-6.009ZM744.913,69.57c0-.492.432-.936.923-.936.408,0,.744.324.744.743,0,.504-.42.924-.924.924-.432,0-.743-.312-.743-.731Z"/>
      <path d="M747.493,75.854l.695-3.25h-1.176l.24-1.08h1.151l.359-1.655,1.403-.288-.42,1.943h1.644l-.24,1.08h-1.643l-.647,3.01c-.132.624.084.864.768.864.191,0,.312-.012.684-.108l-.24,1.14c-.288.072-.659.12-1.02.12-1.247,0-1.799-.636-1.559-1.775Z"/>
      <path d="M750.649,80.028l.252-1.164c.216.048.396.072.527.072.504,0,.84-.18,1.092-.624l.407-.696-.959-6.093h1.392l.6,4.545,2.626-4.545h1.464l-4.271,7.172c-.623,1.019-1.319,1.463-2.278,1.463-.252,0-.504-.036-.852-.132Z"/>
    </g>
  </g>
  <g>
    <line class="uuid-538813ed-78d0-4c4d-8825-01fa8e94cc00" x1="182.208" y1="59.91" x2="229.451" y2="59.91"/>
    <polygon points="227.992 64.896 236.627 59.91 227.992 54.924 227.992 64.896"/>
  </g>
  <g>
    <line class="uuid-538813ed-78d0-4c4d-8825-01fa8e94cc00" x1="23.246" y1="113.564" x2="46.968" y2="113.564"/>
    <polygon points="45.509 118.551 54.144 113.564 45.509 108.578 45.509 118.551"/>
  </g>
  <g>
    <line class="uuid-538813ed-78d0-4c4d-8825-01fa8e94cc00" x1="395.589" y1="59.91" x2="442.833" y2="59.91"/>
    <polygon points="441.374 64.896 450.009 59.91 441.374 54.924 441.374 64.896"/>
  </g>
  <g>
    <line class="uuid-538813ed-78d0-4c4d-8825-01fa8e94cc00" x1="608.971" y1="59.91" x2="656.214" y2="59.91"/>
    <polygon points="654.755 64.896 663.39 59.91 654.755 54.924 654.755 64.896"/>
  </g>
  <g>
    <path d="M63.342,114.08c0-1.775,1.295-3.106,3.022-3.106,1.715,0,3.01,1.331,3.01,3.106s-1.295,3.106-3.01,3.106c-1.727,0-3.022-1.331-3.022-3.106ZM68.044,114.08c0-1.115-.708-1.955-1.679-1.955-.983,0-1.691.839-1.691,1.955,0,1.127.708,1.955,1.691,1.955.972,0,1.679-.828,1.679-1.955Z"/>
    <path d="M69.894,111.07h1.475l1.679,4.366,1.667-4.366h1.416l-2.471,6.009h-1.319l-2.447-6.009Z"/>
    <path d="M76.65,114.08c0-1.763,1.271-3.106,2.927-3.106,1.643,0,2.842,1.307,2.842,3.106v.324h-4.438c.132.971.863,1.679,1.799,1.679.564,0,1.091-.216,1.427-.563l.888.804c-.732.611-1.463.875-2.375.875-1.727,0-3.07-1.355-3.07-3.119ZM81.136,113.564c-.144-.875-.768-1.487-1.571-1.487-.815,0-1.415.588-1.571,1.487h3.143Z"/>
    <path d="M83.802,111.07h1.355v1.295c.336-.912.912-1.403,1.655-1.403.228.012.384.036.587.12v1.187c-.216-.083-.492-.144-.744-.144-.66,0-1.199.372-1.499.995v3.958h-1.355v-6.009Z"/>
    <path d="M88.518,111.07h1.355v1.295c.336-.912.912-1.403,1.655-1.403.228.012.384.036.587.12v1.187c-.216-.083-.492-.144-.744-.144-.66,0-1.199.372-1.499.995v3.958h-1.355v-6.009Z"/>
    <path d="M93.066,109.019c0-.456.372-.839.839-.839.456,0,.839.384.839.839s-.384.828-.839.828c-.468,0-.839-.372-.839-.828ZM93.222,111.07h1.355v6.009h-1.355v-6.009Z"/>
    <path d="M95.982,114.08c0-1.715,1.235-3.058,2.807-3.058.684,0,1.307.276,1.751.78v-3.322l1.355-.24v8.839h-1.343v-.792c-.432.54-1.104.852-1.859.852-1.523,0-2.711-1.355-2.711-3.059ZM100.54,115.339v-2.53c-.348-.408-.863-.648-1.427-.648-1.031,0-1.799.816-1.799,1.919,0,1.092.768,1.919,1.799,1.919.588,0,1.08-.228,1.427-.66Z"/>
    <path d="M103.302,114.08c0-1.763,1.271-3.106,2.927-3.106,1.643,0,2.842,1.307,2.842,3.106v.324h-4.438c.132.971.863,1.679,1.799,1.679.564,0,1.091-.216,1.427-.563l.888.804c-.731.611-1.463.875-2.375.875-1.727,0-3.07-1.355-3.07-3.119ZM107.788,113.564c-.144-.875-.768-1.487-1.571-1.487-.815,0-1.415.588-1.571,1.487h3.143Z"/>
    <path d="M109.974,116.383l.636-.899c.792.492,1.319.684,1.931.684.72,0,1.211-.336,1.211-.815,0-.372-.252-.563-.839-.684l-1.056-.18c-1.175-.216-1.739-.756-1.739-1.655,0-1.127.923-1.859,2.327-1.859.839,0,1.595.24,2.363.719l-.636.9c-.612-.396-1.199-.576-1.811-.576-.624,0-1.031.264-1.031.695,0,.384.216.552.839.66l1.067.204c1.199.216,1.775.768,1.775,1.667,0,1.104-1.055,1.955-2.458,1.955-1.031,0-1.943-.288-2.579-.816Z"/>
  </g>
</svg>