<?xml version="1.0" encoding="UTF-8"?>
<svg id="uuid-28fa8663-11f7-4396-a07e-e0cfee84996a" data-name="svg449" xmlns="http://www.w3.org/2000/svg" width="595.276" height="259.362" viewBox="0 0 595.276 259.362">
  <defs>
    <style>
      .uuid-916c668e-ad8f-4519-9eb3-2fb0fb4f635e {
        fill: #151515;
      }

      .uuid-8cee12c9-1578-4458-85c3-2fe1b5795b0b, .uuid-3e54585a-a6c4-4662-8d25-a877f7385f35, .uuid-a9a6df58-7ed8-4e84-858c-4355ff8c7bf1 {
        fill: #fff;
      }

      .uuid-8eaae3f6-63fd-4677-a514-193546e93385 {
        fill: #d24490;
      }

      .uuid-1b555a95-b2ee-485a-973c-0115d4618f1b {
        fill: #d9e8f7;
      }

      .uuid-3e54585a-a6c4-4662-8d25-a877f7385f35 {
        stroke: #99c2eb;
      }

      .uuid-3e54585a-a6c4-4662-8d25-a877f7385f35, .uuid-0e8583b1-ed99-4989-9585-f1878c45fe55, .uuid-a9a6df58-7ed8-4e84-858c-4355ff8c7bf1 {
        stroke-miterlimit: 10;
      }

      .uuid-86124ebf-8c6d-472e-a05c-18251a020b52 {
        fill: #3fa535;
      }

      .uuid-0e8583b1-ed99-4989-9585-f1878c45fe55 {
        stroke: #c8c8c8;
      }

      .uuid-0e8583b1-ed99-4989-9585-f1878c45fe55, .uuid-737ba2ba-085e-483c-af40-7d832741d175, .uuid-65f98aaa-8061-4086-891e-0686e8232920 {
        fill: none;
      }

      .uuid-a9a6df58-7ed8-4e84-858c-4355ff8c7bf1 {
        stroke: #be0000;
      }

      .uuid-afb15059-47b1-4061-b02f-1c36a43f3d60 {
        fill: #be64a3;
      }

      .uuid-737ba2ba-085e-483c-af40-7d832741d175 {
        stroke: #3fa535;
      }

      .uuid-737ba2ba-085e-483c-af40-7d832741d175, .uuid-65f98aaa-8061-4086-891e-0686e8232920 {
        stroke-linejoin: round;
      }

      .uuid-65f98aaa-8061-4086-891e-0686e8232920 {
        stroke: #151515;
      }
    </style>
  </defs>
  <rect class="uuid-8cee12c9-1578-4458-85c3-2fe1b5795b0b" width="595.276" height="259.362"/>
  <rect id="uuid-bd645e6e-720e-4f15-85c5-6cf6cc968801" data-name="rect14" class="uuid-0e8583b1-ed99-4989-9585-f1878c45fe55" x="27.73" y="18.262" width="224.346" height="224.346"/>
  <rect id="uuid-5da6aeac-bc22-483d-b265-ae55e16dc878" data-name="rect16" class="uuid-0e8583b1-ed99-4989-9585-f1878c45fe55" x="339.541" y="18.262" width="224.346" height="224.346"/>
  <g id="uuid-5ded0cbc-b484-4fd8-8e50-71e779ad42c9" data-name="Service B">
    <rect id="uuid-f7096322-89ae-4cec-abce-d44c52d44ad2" data-name="rect19" class="uuid-1b555a95-b2ee-485a-973c-0115d4618f1b" x="353.714" y="46.585" width="196" height="181.85"/>
    <rect id="uuid-01a4bd43-f456-43e0-902e-adec5d1aecae" data-name="rect21" class="uuid-3e54585a-a6c4-4662-8d25-a877f7385f35" x="368.714" y="61.585" width="166" height="50"/>
    <rect id="uuid-be46425e-b8a0-4f20-aba5-2578cfc1bd97" data-name="rect23" class="uuid-3e54585a-a6c4-4662-8d25-a877f7385f35" x="368.714" y="164.262" width="166" height="50"/>
    <g id="uuid-4eae14db-93b2-4941-8fe9-28fd241841bc" data-name="g41">
      <path id="uuid-cc0de491-e48f-49cf-b060-d790eff6e6fd" data-name="path25" class="uuid-916c668e-ad8f-4519-9eb3-2fb0fb4f635e" d="M448.969,190.3c.751.749,1.758,1.186,2.818,1.223,1.116,0,1.883-.564,1.883-1.332,0-.683-.407-1-1.522-1.2l-1.548-.264c-1.451-.263-2.158-.983-2.158-2.135,0-1.511,1.211-2.518,3.093-2.518,1.212-.01,2.395.373,3.371,1.091l-.732,1.08c-.76-.617-1.707-.96-2.686-.972-1.008,0-1.667.5-1.667,1.188,0,.6.372.911,1.295,1.055l1.487.264c1.691.287,2.482,1.031,2.482,2.3,0,1.535-1.367,2.627-3.37,2.627-1.302-.003-2.557-.486-3.525-1.356l.779-1.051Z"/>
      <path id="uuid-ed90a6f2-7727-40d9-8cc6-153f72ff42ec" data-name="path27" class="uuid-916c668e-ad8f-4519-9eb3-2fb0fb4f635e" d="M459.167,192.706c-1.687.002-3.057-1.364-3.059-3.051,0-.023,0-.045,0-.068-.081-1.632,1.176-3.021,2.808-3.102.039-.002.079-.003.118-.004,1.593.018,2.869,1.324,2.85,2.917,0,.059-.003.118-.007.177v.336h-4.438c.098.924.871,1.629,1.8,1.642.532.015,1.048-.188,1.426-.563l.888.827c-.654.588-1.507.906-2.387.889ZM457.467,189.083h3.13c-.072-.823-.744-1.465-1.57-1.5-.829.025-1.504.673-1.563,1.5h.003Z"/>
      <path id="uuid-70ad96df-a28d-44ae-b8f4-7542b19bbec5" data-name="path29" class="uuid-916c668e-ad8f-4519-9eb3-2fb0fb4f635e" d="M463.261,186.577h1.355v1.306c.166-.793.846-1.374,1.655-1.415.202.004.401.044.588.12v1.188c-.236-.097-.488-.147-.743-.145-.654.006-1.243.399-1.5,1v3.957h-1.355v-6.011Z"/>
      <path id="uuid-964e0b56-da98-428a-9acc-178c755991dc" data-name="path31" class="uuid-916c668e-ad8f-4519-9eb3-2fb0fb4f635e" d="M467.269,186.577h1.475l1.667,4.388,1.667-4.388h1.427l-2.471,6.008h-1.306l-2.459-6.008Z"/>
      <path id="uuid-a54b4deb-e7ef-4da4-a06d-8278e9663650" data-name="path33" class="uuid-916c668e-ad8f-4519-9eb3-2fb0fb4f635e" d="M474.313,184.526c0-.467.378-.845.845-.845s.845.378.845.845-.378.845-.845.845-.845-.378-.845-.845ZM475.835,192.585h-1.354v-6.008h1.354v6.008Z"/>
      <path id="uuid-3906e6fb-392f-4e70-818b-c5c7ace856ce" data-name="path35" class="uuid-916c668e-ad8f-4519-9eb3-2fb0fb4f635e" d="M481.8,190.846l.817.816c-.598.669-1.455,1.049-2.352,1.044-1.716-.031-3.082-1.447-3.051-3.162.03-1.672,1.378-3.021,3.051-3.051.906-.015,1.777.351,2.4,1.008l-.839.875c-.375-.446-.928-.705-1.511-.708-1.059.109-1.828,1.056-1.719,2.114.095.921.832,1.645,1.754,1.723.558.011,1.091-.231,1.45-.659Z"/>
      <path id="uuid-4abd66ce-ca7f-42a8-a74e-1ffcc13fbb7d" data-name="path37" class="uuid-916c668e-ad8f-4519-9eb3-2fb0fb4f635e" d="M486.564,192.706c-1.688.002-3.058-1.365-3.06-3.052,0-.022,0-.044,0-.067-.081-1.633,1.177-3.022,2.81-3.103.039-.002.078-.003.117-.003,1.593.019,2.869,1.326,2.85,2.919,0,.058-.003.117-.007.175v.336h-4.439c.098.924.871,1.629,1.8,1.642.533.015,1.048-.188,1.427-.563l.887.827c-.654.588-1.507.905-2.386.889ZM484.864,189.083h3.13c-.072-.824-.745-1.466-1.571-1.5-.829.025-1.504.673-1.562,1.5h.003Z"/>
      <path id="uuid-fdda3f85-8ef2-47b1-b742-5643da74346b" data-name="path39" class="uuid-916c668e-ad8f-4519-9eb3-2fb0fb4f635e" d="M497.254,184.19c1.583,0,2.651.887,2.651,2.207-.016.839-.552,1.579-1.343,1.858.935.214,1.606,1.034,1.631,1.992,0,1.39-1.116,2.338-2.771,2.338h-3.9v-8.4l3.732.005ZM494.963,185.365v2.35h2.148c.827,0,1.355-.455,1.355-1.175s-.528-1.175-1.355-1.175h-2.148ZM498.741,190.114c-.008-.723-.6-1.303-1.323-1.295-.055,0-.11.005-.164.012h-2.291v2.579h2.291c.722.093,1.383-.416,1.476-1.138.007-.052.01-.105.011-.158h0Z"/>
    </g>
    <g id="uuid-af72207d-eaee-494c-8231-bdb1e1fc337c" data-name="g47">
      <line id="uuid-d7d510bf-e788-43dd-b5c9-43ce5e5445f0" data-name="line43" class="uuid-65f98aaa-8061-4086-891e-0686e8232920" x1="429.04" y1="116.966" x2="429.04" y2="164.261"/>
      <polygon id="uuid-58090c19-09dc-49cd-905e-a5b618677070" data-name="polygon45" class="uuid-916c668e-ad8f-4519-9eb3-2fb0fb4f635e" points="425.3 118.06 429.04 111.584 432.78 118.06 425.3 118.06"/>
    </g>
    <g id="uuid-aa563d32-ef05-4cbc-98b1-8c508e2c7e22" data-name="g53">
      <line id="uuid-7ed1eb01-25c5-4059-94ce-2d8eda99d72f" data-name="line49" class="uuid-65f98aaa-8061-4086-891e-0686e8232920" x1="474.394" y1="111.584" x2="474.394" y2="158.879"/>
      <polygon id="uuid-447f01c9-8a58-47d1-bcd0-8ccbcc2d57e7" data-name="polygon51" class="uuid-916c668e-ad8f-4519-9eb3-2fb0fb4f635e" points="470.654 157.785 474.394 164.261 478.134 157.785 470.654 157.785"/>
    </g>
    <g id="uuid-074a2af7-3cbd-47e6-afa4-c354c909d9d1" data-name="g91">
      <g id="uuid-e0a25fb9-748d-438d-9814-e0f94c156200" data-name="g75">
        <path id="uuid-eca4a4da-d64b-49e7-ab7d-28aa3f4fc711" data-name="path55" class="uuid-916c668e-ad8f-4519-9eb3-2fb0fb4f635e" d="M434.322,81.512h6.008v1.224h-4.57v2.338h3.19v1.2h-3.19v2.41h4.618v1.224h-6.056v-8.396Z"/>
        <path id="uuid-3670eed8-0049-40b4-833b-2ea70e4102d3" data-name="path57" class="uuid-916c668e-ad8f-4519-9eb3-2fb0fb4f635e" d="M441.846,83.9h1.354v.983c.396-.676,1.124-1.088,1.908-1.079,1.116-.031,2.047.848,2.078,1.964.002.061,0,.122-.003.183v3.958h-1.356v-3.575c.081-.71-.429-1.351-1.139-1.432-.06-.007-.12-.009-.18-.008-.531-.001-1.025.271-1.308.72v4.294h-1.354v-6.008Z"/>
        <path id="uuid-78aa55b5-acc6-4855-9371-d1f80a6998ca" data-name="path59" class="uuid-916c668e-ad8f-4519-9eb3-2fb0fb4f635e" d="M448.121,83.9h1.479l1.667,4.39,1.667-4.39h1.427l-2.471,6.009h-1.31l-2.459-6.009Z"/>
        <path id="uuid-222cf61b-4bc2-4a34-b132-67ff457f432e" data-name="path61" class="uuid-916c668e-ad8f-4519-9eb3-2fb0fb4f635e" d="M458.079,83.8c1.719-.051,3.154,1.302,3.205,3.021.051,1.719-1.302,3.154-3.021,3.205-1.719.051-3.154-1.302-3.205-3.021,0-.033-.001-.066-.001-.099-.059-1.656,1.236-3.046,2.892-3.104.043-.002.087-.002.13-.002ZM459.758,86.919c.149-.927-.482-1.799-1.409-1.948s-1.799.482-1.948,1.409c-.029.179-.029.361,0,.539-.13.927.516,1.784,1.443,1.914.927.13,1.784-.516,1.914-1.443.022-.157.022-.315,0-.472Z"/>
        <path id="uuid-72fd644f-23e0-403f-850e-60769e3d509e" data-name="path63" class="uuid-916c668e-ad8f-4519-9eb3-2fb0fb4f635e" d="M464.044,89.944l-2.266-6.044h1.51l1.524,4.461,1.679-4.461h1.475l-2.854,6.992c-.22.985-1.129,1.659-2.135,1.583-.231,0-.46-.029-.684-.084v-1.164c.175.026.351.042.528.048.448.022.851-.268.971-.7l.252-.631Z"/>
        <path id="uuid-2403a13f-2b63-4be5-a377-08491006a3e5" data-name="path65" class="uuid-916c668e-ad8f-4519-9eb3-2fb0fb4f635e" d="M471.821,81.512h3.753c1.434-.069,2.653,1.038,2.722,2.472.069,1.434-1.038,2.653-2.472,2.722-.083.004-.167.004-.25,0h-2.315v3.2h-1.438v-8.394ZM473.259,82.723v2.807h2.087c.775.094,1.479-.458,1.573-1.233.094-.775-.458-1.479-1.233-1.573-.109-.013-.218-.014-.327-.002h-2.1Z"/>
        <path id="uuid-8329f873-f358-42bc-a1c7-14345b9ddf27" data-name="path67" class="uuid-916c668e-ad8f-4519-9eb3-2fb0fb4f635e" d="M479.8,83.9h1.355v1.308c.166-.793.846-1.375,1.655-1.416.202.003.401.043.588.12v1.188c-.236-.096-.488-.145-.743-.143-.654.006-1.243.398-1.5,1v3.958h-1.355v-6.015Z"/>
        <path id="uuid-d1a8b7b9-52f2-4653-8602-689c4e63867e" data-name="path69" class="uuid-916c668e-ad8f-4519-9eb3-2fb0fb4f635e" d="M487.263,83.8c1.719-.051,3.154,1.302,3.205,3.021.051,1.719-1.302,3.154-3.021,3.205-1.719.051-3.154-1.302-3.205-3.021,0-.033-.001-.066-.001-.099-.059-1.656,1.236-3.046,2.892-3.104.043-.002.087-.002.13-.002ZM488.942,86.919c.147-.927-.485-1.798-1.413-1.945-.927-.147-1.798.485-1.945,1.413-.028.176-.028.356,0,.533-.147.927.485,1.798,1.413,1.945.927.147,1.798-.485,1.945-1.413.028-.176.028-.356,0-.533Z"/>
        <path id="uuid-c82a9821-36d0-4dfc-9d35-0b073d9c866a" data-name="path71" class="uuid-916c668e-ad8f-4519-9eb3-2fb0fb4f635e" d="M493.251,86.849l-2.194-2.95h1.583l1.4,1.979,1.4-1.979h1.51l-2.15,2.914,2.326,3.095h-1.594l-1.512-2.123-1.511,2.123h-1.509l2.251-3.059Z"/>
        <path id="uuid-feb76cc8-eaf0-4c89-a35d-55d9306989e2" data-name="path73" class="uuid-916c668e-ad8f-4519-9eb3-2fb0fb4f635e" d="M499.636,89.944l-2.267-6.044h1.511l1.52,4.46,1.678-4.461h1.476l-2.854,6.992c-.219.985-1.128,1.659-2.134,1.583-.231,0-.46-.029-.684-.084v-1.163c.175.025.351.042.527.048.448.023.852-.268.972-.7l.255-.631Z"/>
      </g>
      <g id="uuid-e06c4ec0-f14a-4954-bec4-d488c847d74b" data-name="g89">
        <g id="uuid-b7706497-1fee-49a3-b5fd-f7bbef0f04ff" data-name="g500">
          <path id="uuid-3ef3fb93-7337-489c-9f50-34e93582ceda" data-name="path502" class="uuid-8eaae3f6-63fd-4677-a514-193546e93385" d="M422.74,90.744h-.04c0-.331.007-.661,0-.991-.025-1.168-.057-2.334-.084-3.5-.036-1.667-.069-3.333-.1-5,.011-.118-.048-.232-.152-.29-3.305-2.041-6.607-4.085-9.906-6.134-.094-.06-.214-.06-.308,0-3.19,1.374-6.38,2.747-9.571,4.12-.124.031-.203.151-.184.277.029.857.051,1.716.072,2.573.029,1.182.057,2.363.084,3.544.032,1.364.065,2.728.092,4.094-.009.111.049.217.148.268,3.292,2.034,6.582,4.072,9.871,6.113.103.073.238.082.35.023.682-.3,1.367-.592,2.051-.888,2.5-1.078,5-2.154,7.5-3.227.13-.037.211-.167.186-.3-.012-.224,0-.45,0-.675M425.777,93.179c-.206.394-.559.691-.982.828-3.678,1.576-7.353,3.159-11.024,4.748-.54.253-1.173.205-1.669-.127-3.872-2.396-7.743-4.792-11.613-7.188-.559-.312-.898-.91-.879-1.55-.012-1.491-.056-2.982-.089-4.472-.027-1.19-.055-2.379-.084-3.566-.03-1.204-.059-2.407-.087-3.608,0-.092-.019-.182-.019-.273-.029-.524.286-1.007.778-1.191,3.77-1.624,7.541-3.249,11.312-4.876.12-.052.244-.1.364-.148h.592c.247.075.486.176.712.3,2.408,1.496,4.818,2.99,7.229,4.482,1.455.901,2.908,1.801,4.361,2.7.415.223.714.614.82,1.074.037.236.054.475.051.714.031,1.188.059,2.376.085,3.564.035,1.569.064,3.137.1,4.7-.01.35.003.701.04,1.049l.002,2.84Z"/>
        </g>
        <g id="uuid-ed3ff0cc-bc6a-461e-974f-6a0d19df5cb6" data-name="g504">
          <path id="uuid-7c5dbadb-5793-4ffc-ab57-78d129de69c8" data-name="path506" class="uuid-afb15059-47b1-4061-b02f-1c36a43f3d60" d="M408.928,97.942l-1.494.647c-1.266.545-2.535,1.082-3.8,1.638-.487.231-1.06.187-1.506-.116l-2.656-1.644c-2.1-1.3-4.2-2.608-6.3-3.9-.534-.283-.859-.846-.837-1.45,0-1.006-.034-2.011-.055-3.018-.027-1.216-.053-2.433-.085-3.649-.022-.851-.052-1.7-.072-2.551-.032-.467.252-.898.693-1.053,1.764-.757,3.527-1.517,5.289-2.279.1-.041.188-.122.191.084.016.816.039,1.631.068,2.446.019.126-.061.246-.184.278-1.063.451-2.119.911-3.18,1.363-.123.031-.204.15-.187.276.038,1.568.066,3.137.1,4.7.022,1.006.054,2.011.075,3.016-.012.112.044.219.141.275,2.48,1.533,4.957,3.067,7.431,4.6.139.104.326.119.48.037,1-.44,2-.865,3-1.3.112-.06.248-.052.351.022.828.52,1.661,1.031,2.534,1.571"/>
        </g>
        <g id="uuid-7d9440ef-ab5e-4dfe-995f-f404f7ab0411" data-name="g508">
          <path id="uuid-73440cc2-ef7c-4d29-99d3-909029a677b9" data-name="path510" class="uuid-8eaae3f6-63fd-4677-a514-193546e93385" d="M399.075,99.516l-1.158.5c-.974.421-1.952.835-2.924,1.264-.445.216-.972.178-1.382-.1-2.05-1.276-4.101-2.548-6.154-3.815-.18-.11-.354-.232-.54-.332-.502-.257-.799-.792-.752-1.354,0-1.1-.034-2.2-.058-3.292-.026-1.188-.054-2.377-.084-3.566-.033-.394.204-.76.576-.892,1.438-.621,2.877-1.243,4.317-1.864.148-.065.184-.024.187.12.01.683.022,1.366.045,2.048.016.112-.054.218-.163.248-.829.351-1.654.712-2.482,1.062-.124.028-.205.148-.184.274.037,1.294.061,2.587.089,3.882.013.584.032,1.168.039,1.752-.005.098.049.189.137.233,1.837,1.133,3.673,2.271,5.509,3.413.08.056.184.062.27.015.754-.329,1.51-.653,2.265-.98.077-.048.175-.048.252,0,.7.439,1.4.87,2.1,1.3.035.025.068.053.1.082"/>
        </g>
        <g id="uuid-faf29a20-ad7a-44ca-ae3b-adc7d70a132e" data-name="g512">
          <path id="uuid-098c4a84-b05b-49a0-8ced-d5ca8a15ae81" data-name="path514" class="uuid-8eaae3f6-63fd-4677-a514-193546e93385" d="M398.463,90.014c-.382-.238-.769-.476-1.157-.715s-.8-.5-1.2-.743c-.082-.04-.133-.126-.128-.217-.012-.688-.029-1.376-.051-2.065-.007-.175.039-.194.183-.1.74.463,1.481.92,2.221,1.379.065.04.135.072.135.169v2.3"/>
        </g>
        <g id="uuid-d0bbf784-e495-4e41-ac0b-7d956a7c17fa" data-name="g516">
          <path id="uuid-73f9affd-35ee-41ca-a0fa-c01338b19e59" data-name="path518" class="uuid-8eaae3f6-63fd-4677-a514-193546e93385" d="M402.094,96.04c-.638-.4-1.221-.791-1.837-1.123-.353-.145-.56-.515-.5-.892.043-.579.011-1.164.011-1.756.04-.007.081.051.132.081.665.41,1.327.826,1.993,1.231.107.053.17.166.16.285.006.64.026,1.28.04,1.92v.254"/>
        </g>
        <g id="uuid-ae7bd510-bb64-4b6e-abdf-f82b54ffabff" data-name="g520">
          <path id="uuid-bf2f372f-aa3b-41ad-aa87-134f57f9fad1" data-name="path522" class="uuid-afb15059-47b1-4061-b02f-1c36a43f3d60" d="M413.049,93.836v.655c0,.184-.078.229-.234.133-.786-.482-1.568-.97-2.354-1.452-.079-.048-.122-.138-.11-.229-.019-1.005-.039-2.01-.06-3.017-.024-1.132-.054-2.264-.076-3.4.003-.099-.051-.19-.139-.235-2.108-1.301-4.215-2.603-6.32-3.907-.142-.073-.227-.224-.216-.384,0-.682-.029-1.364-.043-2.046,0-.091-.041-.2.083-.259.104-.061.234-.056.333.012,2.744,1.705,5.489,3.408,8.236,5.107.455.264.729.755.715,1.281.015,1.076.035,2.152.06,3.228.025,1.189.053,2.378.084,3.565.008.316.028.632.041.948"/>
        </g>
      </g>
    </g>
    <g id="uuid-19815988-7cfd-4d96-ac5a-f12e7a39195d" data-name="g135">
      <g id="uuid-e9cfd04f-850a-4036-9047-a96f43979cfb" data-name="g892">
        <path id="uuid-53c70f98-d567-490f-be0e-6fcb591ce0cf" data-name="path894" class="uuid-8cee12c9-1578-4458-85c3-2fe1b5795b0b" d="M410.06,198.4c0,.722.586,1.308,1.308,1.308h.535v-6.447h-1.843v5.139Z"/>
      </g>
      <path id="uuid-3b80b23b-d7d2-4ba0-a82a-eec28379754c" data-name="path896" class="uuid-8cee12c9-1578-4458-85c3-2fe1b5795b0b" d="M408.832,182.819h-1.842v6.755h1.842v-6.755Z"/>
      <path id="uuid-6e01c3e3-ece7-45fd-be65-484133cf4486" data-name="path898" class="uuid-8cee12c9-1578-4458-85c3-2fe1b5795b0b" d="M411.9,185.89h-1.84v6.754h1.84v-6.754Z"/>
      <g id="uuid-6c8f230a-fba5-4151-a6a6-bc590e842f08" data-name="g900">
        <path id="uuid-875502eb-837c-492d-bd8a-e0fd522bb1b7" data-name="path902" class="uuid-8cee12c9-1578-4458-85c3-2fe1b5795b0b" d="M416.508,180.67v-1.842h-5.138c-.723,0-1.309.585-1.31,1.308v5.14h1.84v-2.07c.002-1.4,1.136-2.534,2.536-2.536h2.072Z"/>
      </g>
      <g id="uuid-7aae72f0-8c09-4c6a-bde4-604c1b8d3945" data-name="g904">
        <path id="uuid-441cbec6-6dc9-42fb-b67f-caffccf04387" data-name="path906" class="uuid-8cee12c9-1578-4458-85c3-2fe1b5795b0b" d="M419.578,202.776v-2.583c-1.713.978-3.4,1.839-5.044,2.583h5.044Z"/>
      </g>
      <g id="uuid-43921538-a6c0-4e71-b078-0a778113e281" data-name="g908">
        <path id="uuid-991821b0-d24e-4c9b-b6b1-d01df34f7f66" data-name="path910" class="uuid-8cee12c9-1578-4458-85c3-2fe1b5795b0b" d="M408.3,196.635h.534v-6.446h-1.844v5.138c0,.722.586,1.307,1.308,1.308"/>
      </g>
      <g id="uuid-40ad5217-ad1a-446a-b5ea-0811930a7ff5" data-name="g912">
        <path id="uuid-243c0855-65c6-4e40-89ea-212c0948b202" data-name="path914" class="uuid-8cee12c9-1578-4458-85c3-2fe1b5795b0b" d="M427.562,188.96v4.813c1.965-1.5,3.847-3.107,5.636-4.813h-5.636Z"/>
      </g>
      <g id="uuid-1c27539c-1a5e-40b2-8744-162bbc76fa47" data-name="g916">
        <path id="uuid-8405363e-ee6d-4c92-b13c-1e64bb5fb793" data-name="path918" class="uuid-8cee12c9-1578-4458-85c3-2fe1b5795b0b" d="M427.868,177.066c0-.722-.585-1.307-1.307-1.308h-5.14v1.842h6.447v-.534Z"/>
      </g>
      <g id="uuid-779923b8-e245-43b7-bf0f-3792e3f40c6f" data-name="g920">
        <path id="uuid-26dd99a1-dd02-40a2-b7ef-8c99f79aa290" data-name="path922" class="uuid-8cee12c9-1578-4458-85c3-2fe1b5795b0b" d="M430.938,180.136c0-.722-.585-1.307-1.307-1.308h-5.14v1.843h6.447v-.535Z"/>
      </g>
      <g id="uuid-6e448963-c4bc-4887-a760-e77cced679cd" data-name="g924">
        <path id="uuid-3b114807-972d-4af3-91b7-c6f15c3e23d6" data-name="path926" class="uuid-8cee12c9-1578-4458-85c3-2fe1b5795b0b" d="M420.193,196.329v2.436c1.271-.756,2.544-1.568,3.819-2.436h-3.819Z"/>
      </g>
      <path id="uuid-a952bb40-d835-4260-ad92-acffa3f2953a" data-name="path928" class="uuid-8cee12c9-1578-4458-85c3-2fe1b5795b0b" d="M423.876,178.828h-6.753v1.843h6.753v-1.843Z"/>
      <path id="uuid-a00ec921-4b1c-456e-9d3d-e0b7b22db98e" data-name="path930" class="uuid-8cee12c9-1578-4458-85c3-2fe1b5795b0b" d="M420.807,175.758h-6.753v1.842h6.753v-1.842Z"/>
      <g id="uuid-7bac4357-b801-4f93-b4f4-4b3d5537ba00" data-name="g932">
        <path id="uuid-c49467dc-6874-4f9f-8330-b6c334b8fb08" data-name="path934" class="uuid-8cee12c9-1578-4458-85c3-2fe1b5795b0b" d="M408.832,180.136c.002-1.4,1.136-2.534,2.536-2.536h2.07v-1.843h-5.138c-.722.001-1.307.586-1.309,1.308v5.14h1.842v-2.069Z"/>
      </g>
      <g id="uuid-2a3ac84b-4857-4d91-afc0-24eb5a68a83b" data-name="g936">
        <path id="uuid-619efc5c-381e-45d7-abe4-f0ce0e61eeff" data-name="path938" class="uuid-8cee12c9-1578-4458-85c3-2fe1b5795b0b" d="M432.7,181.9h-5.139v6.447h6.264c.06-.059.123-.119.182-.179v-4.96c0-.722-.585-1.307-1.307-1.308"/>
      </g>
      <g id="uuid-64696a66-2889-4134-8857-1cc95b8ba6f9" data-name="g940">
        <path id="uuid-78edd9bf-6fa4-409d-87e4-41fc07894c0e" data-name="path942" class="uuid-8cee12c9-1578-4458-85c3-2fe1b5795b0b" d="M427.562,195.715h6.446v-6.259c-2.034,1.956-4.187,3.785-6.446,5.477v.782Z"/>
      </g>
      <path id="uuid-16fe9ba7-b08c-439c-bef8-8ae5ed63d007" data-name="path944" class="uuid-8cee12c9-1578-4458-85c3-2fe1b5795b0b" d="M420.194,188.346h6.753v-6.446h-6.753v6.446Z"/>
      <g id="uuid-94645239-d098-4e55-94ac-9322e322a9b4" data-name="g946">
        <path id="uuid-ba4c5cba-68b9-471d-9a70-6df844dc0e7f" data-name="path948" class="uuid-8cee12c9-1578-4458-85c3-2fe1b5795b0b" d="M413.131,201.467c.001.291.1.572.281.8,2.115-.926,4.174-1.974,6.167-3.141v-2.8h-6.448v5.141Z"/>
      </g>
      <g id="uuid-f95f994c-2bbf-43f5-be79-02cbcf038fd9" data-name="g950">
        <path id="uuid-ce912439-7e23-4d41-a83f-725c8ed2b900" data-name="path952" class="uuid-8cee12c9-1578-4458-85c3-2fe1b5795b0b" d="M427.562,202.776h5.138c.722,0,1.308-.586,1.308-1.308h0v-5.139h-6.446v6.447Z"/>
      </g>
      <path id="uuid-6937e3a1-5717-4c77-8e47-252f7b0abcd2" data-name="path954" class="uuid-8cee12c9-1578-4458-85c3-2fe1b5795b0b" d="M413.131,195.715h6.448v-6.755h-6.448v6.755Z"/>
      <g id="uuid-eceb4890-b7f7-4ff9-ba21-3661acb104be" data-name="g956">
        <path id="uuid-0ecffb89-b1f1-4598-a35a-9f5e345f43d4" data-name="path958" class="uuid-8cee12c9-1578-4458-85c3-2fe1b5795b0b" d="M420.193,195.715h4.723c.028-.019.053-.035.08-.055.664-.465,1.313-.94,1.95-1.417v-5.283h-6.753v6.755Z"/>
      </g>
      <g id="uuid-6021a228-b1ae-4bea-951f-ea6646ee9578" data-name="g960">
        <path id="uuid-19d26c8d-ec88-43bc-8395-66724437532d" data-name="path962" class="uuid-8cee12c9-1578-4458-85c3-2fe1b5795b0b" d="M413.131,183.206v5.139h6.448v-6.445h-5.14c-.722,0-1.307.586-1.308,1.308"/>
      </g>
      <g id="uuid-399a211d-a2ba-4958-8195-c53ac4df0469" data-name="g964">
        <path id="uuid-eeff4fac-1f44-41c9-93f1-0c536a97f2ae" data-name="path966" class="uuid-8cee12c9-1578-4458-85c3-2fe1b5795b0b" d="M426.947,195.715v-.328l-.444.328h.444Z"/>
      </g>
      <g id="uuid-ddae87e2-0bf0-48c4-a56c-dfb763841261" data-name="g968">
        <path id="uuid-4a32be0d-617d-44bd-b59f-6d9f51d8de0f" data-name="path970" class="uuid-8cee12c9-1578-4458-85c3-2fe1b5795b0b" d="M425.525,196.414c-1.772,1.247-3.56,2.383-5.332,3.419v2.942h6.753v-6.446h-1.3l-.12.085"/>
      </g>
      <g id="uuid-b5b8886e-132c-41c8-844e-ec558baddfe7" data-name="g972">
        <path id="uuid-b13e0ca1-1894-4a34-9fd2-d9a1f8d748a7" data-name="path974" d="M438.068,183.534c-.881,1.171-1.826,2.293-2.831,3.36v-3.688c-.002-1.4-1.136-2.534-2.536-2.536h-.534v-.534c-.002-1.4-1.136-2.534-2.536-2.536h-.531v-.535c-.002-.452-.127-.894-.36-1.281,6.027-2.426,10.6-2.72,11.993-.74,1.132,1.608.162,4.7-2.661,8.49M434.012,188.166c-.06.06-.123.119-.183.179h-6.264v-6.445h5.14c.722,0,1.307.586,1.307,1.308v4.958ZM434.012,195.714h-6.447v-.781c2.26-1.691,4.413-3.521,6.447-5.477v6.258ZM434.012,201.468c0,.722-.585,1.307-1.307,1.308h-5.14v-6.447h6.447v5.139ZM426.951,188.345h-6.754v-6.445h6.754v6.445ZM426.951,194.245c-.638.479-1.289.952-1.952,1.419-.026.019-.052.035-.079.053h-4.723v-6.757h6.754v5.285ZM426.951,195.717h-.451c.149-.108.3-.217.444-.326l.007.326ZM426.951,202.779h-6.754v-2.943c1.772-1.036,3.56-2.173,5.332-3.419.04-.028.079-.057.12-.085h1.3l.002,6.447ZM419.583,188.348h-6.448v-5.139c0-.722.586-1.307,1.308-1.308h5.14v6.447ZM419.583,195.717h-6.448v-6.757h6.448v6.757ZM419.583,199.128c-1.993,1.167-4.052,2.216-6.167,3.143-.18-.228-.279-.509-.281-.8v-5.139h6.448v2.796ZM419.583,202.779h-5.044c1.641-.743,3.33-1.606,5.044-2.583v2.583ZM411.907,183.209v2.07h-1.847v-5.14c.001-.722.587-1.307,1.309-1.308h5.139v1.842h-2.069c-1.4.002-2.534,1.136-2.536,2.536M409.16,203.86c-4.52,1.374-7.76,1.24-8.892-.37-1.479-2.1.671-6.685,5.5-11.849v3.687c.002,1.4,1.136,2.534,2.536,2.536h.533v.533c.002,1.4,1.137,2.535,2.537,2.537h.534v.534c.003.451.127.893.36,1.28-1.064.426-2.107.809-3.1,1.112M406.997,190.188h1.843v6.448h-.54c-.722,0-1.308-.586-1.31-1.308l.007-5.14ZM406.997,182.82h1.843v6.754h-1.843v-6.754ZM411.911,193.258v6.447h-.534c-.722-.001-1.307-.586-1.309-1.308v-5.139h1.843ZM410.068,185.89h1.832v6.755h-1.84l.008-6.755ZM406.997,177.065c.002-.722.588-1.307,1.31-1.308h5.138v1.843h-2.068c-1.4.002-2.535,1.136-2.537,2.536v2.069h-1.843v-5.14ZM414.06,175.757h6.753v1.843h-6.753v-1.843ZM420.201,196.329h3.819c-1.273.867-2.546,1.679-3.819,2.436v-2.436ZM417.131,178.829h6.753v1.842h-6.753v-1.842ZM421.431,175.758h5.139c.722.001,1.307.586,1.308,1.308v.535h-6.447v-1.843ZM427.571,188.958h5.629c-1.789,1.707-3.67,3.314-5.636,4.813l.007-4.813ZM424.501,180.668v-1.842h5.14c.722,0,1.307.586,1.306,1.308v.534h-6.446ZM428.094,175.05c-.437-.337-.972-.52-1.524-.522h-18.27c-1.4.001-2.534,1.135-2.536,2.535v13.247c-5.775,5.944-8.114,11.054-6.248,13.709.8,1.129,2.278,1.7,4.332,1.7,1.898-.056,3.778-.386,5.581-.98,1.117-.34,2.287-.767,3.485-1.26.437.338.973.523,1.526.525h18.26c1.4-.002,2.534-1.137,2.536-2.537v-13.238c1.278-1.303,2.47-2.688,3.57-4.144,3.122-4.188,4.072-7.587,2.677-9.572-1.725-2.455-6.607-2.256-13.4.539"/>
      </g>
    </g>
  </g>
  <g id="uuid-108de764-808d-475a-aed3-03872deceadb" data-name="Service A">
    <rect id="uuid-21bfea22-2235-4e59-bee9-69a0a4646842" data-name="rect138" class="uuid-1b555a95-b2ee-485a-973c-0115d4618f1b" x="41.903" y="46.585" width="196" height="181.85"/>
    <rect id="uuid-d08ca82c-bc5f-42f4-a6bf-a098d12d458f" data-name="rect140" class="uuid-3e54585a-a6c4-4662-8d25-a877f7385f35" x="56.903" y="61.585" width="166" height="50"/>
    <rect id="uuid-f6cddb56-3dc9-4b9b-a893-7b3223890085" data-name="rect142" class="uuid-3e54585a-a6c4-4662-8d25-a877f7385f35" x="56.903" y="164.262" width="166" height="50"/>
    <g id="uuid-f5367aac-699a-4823-9634-332d878a550c" data-name="g148">
      <line id="uuid-6a02afe3-9fce-4df8-8ffd-35e1c59c7a7e" data-name="line144" class="uuid-65f98aaa-8061-4086-891e-0686e8232920" x1="117.229" y1="117.238" x2="117.229" y2="164.261"/>
      <polygon id="uuid-7b10df10-2a2f-467f-8afb-8c0ef482dd7b" data-name="polygon146" class="uuid-916c668e-ad8f-4519-9eb3-2fb0fb4f635e" points="113.489 118.332 117.229 111.855 120.969 118.332 113.489 118.332"/>
    </g>
    <g id="uuid-a3cc98d1-ede2-4788-b8a4-5aadddf75702" data-name="g154">
      <line id="uuid-e90de83f-6d5b-4691-8769-d0f217f52520" data-name="line150" class="uuid-65f98aaa-8061-4086-891e-0686e8232920" x1="162.583" y1="111.855" x2="162.583" y2="158.879"/>
      <polygon id="uuid-b0492660-88fc-4b05-85b1-112f6e52f183" data-name="polygon152" class="uuid-916c668e-ad8f-4519-9eb3-2fb0fb4f635e" points="158.843 157.785 162.583 164.261 166.323 157.785 158.843 157.785"/>
    </g>
    <g id="uuid-c58b24c0-159f-4453-b9e3-87e39b7691aa" data-name="g192">
      <g id="uuid-5bfda21f-a528-49f4-96d5-6d25f86967cb" data-name="g176">
        <path id="uuid-a0f399b7-669d-4d17-b754-a05852f98e95" data-name="path156" class="uuid-916c668e-ad8f-4519-9eb3-2fb0fb4f635e" d="M128.392,81.512h6.008v1.224h-4.57v2.338h3.191v1.2h-3.191v2.41h4.619v1.224h-6.057v-8.396Z"/>
        <path id="uuid-1c17711b-1832-4c74-a9c0-b43c22854a44" data-name="path158" class="uuid-916c668e-ad8f-4519-9eb3-2fb0fb4f635e" d="M135.916,83.9h1.355v.983c.395-.676,1.124-1.088,1.907-1.079,1.116-.031,2.047.848,2.078,1.964.002.061,0,.122-.003.183v3.958h-1.353v-3.575c.077-.714-.438-1.355-1.152-1.433-.056-.006-.112-.008-.168-.007-.531-.001-1.024.271-1.307.72v4.294h-1.355l-.002-6.008Z"/>
        <path id="uuid-896fa0b9-6c12-4238-8681-19aa04a1d54d" data-name="path160" class="uuid-916c668e-ad8f-4519-9eb3-2fb0fb4f635e" d="M142.192,83.9h1.475l1.667,4.39,1.666-4.39h1.427l-2.471,6.009h-1.306l-2.458-6.009Z"/>
        <path id="uuid-a5351568-aa54-49cc-b20b-e44a36912960" data-name="path162" class="uuid-916c668e-ad8f-4519-9eb3-2fb0fb4f635e" d="M152.15,83.8c1.719-.05,3.153,1.303,3.204,3.022.05,1.719-1.303,3.153-3.022,3.204-1.719.05-3.153-1.303-3.204-3.022,0-.033-.001-.065-.001-.098-.059-1.656,1.236-3.046,2.892-3.104.044-.002.087-.002.131-.002ZM153.828,86.919c.149-.927-.482-1.799-1.409-1.948s-1.799.482-1.948,1.409c-.029.179-.029.361,0,.539-.13.927.516,1.784,1.443,1.914.927.13,1.784-.516,1.914-1.443.022-.157.022-.315,0-.472Z"/>
        <path id="uuid-95527d6d-259c-4727-a534-6878e9a89c99" data-name="path164" class="uuid-916c668e-ad8f-4519-9eb3-2fb0fb4f635e" d="M158.115,89.944l-2.267-6.044h1.511l1.523,4.461,1.679-4.461h1.475l-2.854,6.992c-.22.985-1.129,1.659-2.135,1.583-.23,0-.46-.029-.683-.084v-1.164c.175.025.351.042.527.048.448.022.851-.268.972-.7l.252-.631Z"/>
        <path id="uuid-68d37e93-5089-45d8-b134-d05c8cc8cc6a" data-name="path166" class="uuid-916c668e-ad8f-4519-9eb3-2fb0fb4f635e" d="M165.891,81.512h3.754c1.434-.069,2.653,1.038,2.722,2.472.069,1.434-1.038,2.653-2.472,2.722-.083.004-.167.004-.25,0h-2.316v3.2h-1.438v-8.394ZM167.329,82.723v2.807h2.087c.775.094,1.479-.458,1.573-1.233s-.458-1.479-1.233-1.573c-.109-.013-.218-.014-.327-.002h-2.1Z"/>
        <path id="uuid-d49c10cc-0ffd-4bee-b329-d25d8a944cf6" data-name="path168" class="uuid-916c668e-ad8f-4519-9eb3-2fb0fb4f635e" d="M173.871,83.9h1.355v1.308c.166-.793.846-1.375,1.655-1.416.202.003.401.043.588.12v1.188c-.236-.096-.488-.145-.743-.143-.654.006-1.243.398-1.5,1v3.958h-1.355v-6.015Z"/>
        <path id="uuid-9d9c7fee-004b-428b-bcd8-7f9eb5230cd7" data-name="path170" class="uuid-916c668e-ad8f-4519-9eb3-2fb0fb4f635e" d="M181.333,83.8c1.719-.051,3.154,1.302,3.205,3.021.051,1.719-1.302,3.154-3.021,3.205-1.719.051-3.154-1.302-3.205-3.021,0-.033-.001-.066-.001-.099-.059-1.656,1.236-3.046,2.892-3.104.043-.002.087-.002.13-.002ZM183.012,86.919c.149-.927-.482-1.799-1.409-1.948s-1.799.482-1.948,1.409c-.029.179-.029.361,0,.539-.13.927.516,1.784,1.443,1.914.927.13,1.784-.516,1.914-1.443.022-.157.022-.315,0-.472Z"/>
        <path id="uuid-48e1d501-f534-4b6a-9466-7ada6d9d1888" data-name="path172" class="uuid-916c668e-ad8f-4519-9eb3-2fb0fb4f635e" d="M187.322,86.849l-2.195-2.95h1.583l1.4,1.979,1.4-1.979h1.511l-2.159,2.914,2.327,3.095h-1.589l-1.512-2.123-1.511,2.123h-1.511l2.256-3.059Z"/>
        <path id="uuid-295bedbd-18fc-4cce-a805-54803d502c0a" data-name="path174" class="uuid-916c668e-ad8f-4519-9eb3-2fb0fb4f635e" d="M193.706,89.944l-2.266-6.044h1.51l1.524,4.461,1.679-4.461h1.475l-2.854,6.992c-.22.985-1.129,1.659-2.135,1.583-.231,0-.46-.029-.684-.084v-1.164c.175.025.351.041.528.048.448.022.851-.268.971-.7l.252-.631Z"/>
      </g>
      <g id="uuid-ec1d3cc7-6507-44a6-9183-f425ec0da213" data-name="g190">
        <g id="uuid-264d7861-c99a-4ec6-b294-cc539cfd3335" data-name="g500-2">
          <path id="uuid-93bb2b09-4fbd-4217-a453-b5f98ebeefb5" data-name="path502-2" class="uuid-8eaae3f6-63fd-4677-a514-193546e93385" d="M116.81,90.744h-.042c0-.331.006-.661,0-.991-.026-1.168-.058-2.334-.084-3.5-.036-1.667-.069-3.333-.1-5,.011-.118-.048-.232-.152-.29-3.305-2.041-6.608-4.085-9.907-6.134-.094-.06-.214-.06-.308,0-3.189,1.374-6.379,2.747-9.57,4.12-.124.031-.203.151-.184.277.029.857.05,1.716.072,2.573.029,1.182.057,2.363.084,3.544.032,1.364.065,2.728.092,4.094-.01.111.049.217.148.268,3.292,2.034,6.582,4.072,9.87,6.113.103.073.239.082.351.023.681-.3,1.367-.592,2.051-.888,2.5-1.078,5-2.154,7.5-3.227.131-.037.212-.167.187-.3-.012-.224,0-.45,0-.675M119.846,93.179c-.206.394-.558.691-.981.828-3.679,1.576-7.354,3.159-11.024,4.748-.54.253-1.173.205-1.669-.127-3.872-2.396-7.743-4.792-11.614-7.188-.559-.312-.898-.91-.878-1.55-.012-1.491-.056-2.982-.09-4.472-.026-1.19-.054-2.379-.084-3.566-.029-1.204-.058-2.407-.086-3.608,0-.092-.019-.182-.019-.273-.029-.524.285-1.007.777-1.191,3.771-1.624,7.542-3.249,11.312-4.876.12-.052.244-.1.364-.148h.592c.247.075.486.176.712.3,2.408,1.496,4.818,2.99,7.23,4.482,1.454.901,2.908,1.801,4.361,2.7.415.223.714.614.82,1.074.037.236.054.475.051.714.03,1.188.058,2.376.085,3.564.035,1.569.064,3.137.1,4.7-.01.35.004.701.04,1.049v2.84Z"/>
        </g>
        <g id="uuid-18ec42ea-8c58-4e33-96f4-081269a0a13e" data-name="g504-2">
          <path id="uuid-b085d2d4-e879-4747-b637-ef60ae1a17d0" data-name="path506-2" class="uuid-afb15059-47b1-4061-b02f-1c36a43f3d60" d="M103,97.942c-.529.229-1.012.439-1.495.647-1.265.545-2.534,1.082-3.8,1.638-.485.229-1.056.185-1.5-.116l-2.656-1.644c-2.1-1.3-4.2-2.608-6.3-3.9-.534-.283-.859-.846-.838-1.45,0-1.006-.033-2.011-.054-3.018-.027-1.216-.055-2.432-.086-3.649-.021-.851-.052-1.7-.072-2.551-.031-.467.253-.897.694-1.053,1.764-.757,3.527-1.517,5.289-2.279.1-.041.188-.122.191.084.016.816.039,1.631.068,2.446.019.126-.061.246-.184.278-1.063.451-2.119.911-3.18,1.363-.124.031-.204.15-.187.276.037,1.568.065,3.137.1,4.7.021,1.006.053,2.011.075,3.016-.013.112.043.22.141.275,2.48,1.533,4.957,3.067,7.431,4.6.139.104.326.119.48.037,1-.44,2-.865,3-1.3.111-.06.247-.052.35.022.828.52,1.662,1.031,2.535,1.571"/>
        </g>
        <g id="uuid-32ca6a1a-eca1-427f-b5fa-8e20ce6cda45" data-name="g508-2">
          <path id="uuid-1e65d6d0-552f-4d13-85ac-c4f4ea49d8f6" data-name="path510-2" class="uuid-8eaae3f6-63fd-4677-a514-193546e93385" d="M93.145,99.516l-1.157.5c-.975.421-1.952.835-2.924,1.264-.446.216-.973.178-1.383-.1-2.049-1.276-4.1-2.548-6.153-3.815-.18-.11-.355-.232-.54-.332-.502-.257-.799-.792-.752-1.354,0-1.1-.035-2.2-.059-3.292-.025-1.188-.053-2.377-.084-3.566-.032-.394.204-.76.576-.892,1.439-.621,2.879-1.243,4.318-1.864.148-.065.184-.024.186.12.011.683.023,1.366.046,2.048.016.112-.054.218-.163.248-.829.351-1.655.712-2.483,1.062-.123.029-.204.149-.184.274.038,1.294.062,2.587.09,3.882.013.584.032,1.168.038,1.752-.004.098.05.189.138.233,1.837,1.133,3.674,2.271,5.509,3.413.079.056.184.062.269.015.755-.329,1.511-.653,2.266-.98.077-.048.175-.048.252,0,.7.439,1.4.87,2.1,1.3.035.025.068.053.1.082"/>
        </g>
        <g id="uuid-19d621d9-5be8-4c93-af5d-61fb9ced9b77" data-name="g512-2">
          <path id="uuid-ff5237c4-1b08-44cd-80e3-7e06ca4e0cf1" data-name="path514-2" class="uuid-8eaae3f6-63fd-4677-a514-193546e93385" d="M92.534,90.014c-.383-.238-.769-.476-1.157-.715-.4-.248-.8-.5-1.2-.743-.082-.041-.132-.126-.128-.217-.012-.688-.029-1.376-.05-2.065-.007-.175.038-.194.182-.1.74.463,1.482.92,2.222,1.379.065.04.134.072.134.169v2.3"/>
        </g>
        <g id="uuid-7d963e52-ef98-4b00-8737-0a3226263d9f" data-name="g516-2">
          <path id="uuid-22ff1e3f-8e61-486e-b4b0-39ebb15d6611" data-name="path518-2" class="uuid-8eaae3f6-63fd-4677-a514-193546e93385" d="M96.165,96.04c-.639-.4-1.221-.791-1.837-1.123-.354-.145-.561-.515-.5-.892.043-.579.011-1.164.011-1.756.04-.007.081.051.132.081.665.41,1.326.826,1.993,1.231.106.054.17.166.16.285,0,.64.025,1.28.04,1.92v.254"/>
        </g>
        <g id="uuid-59efe622-92c7-4718-8734-58a188ad0b11" data-name="g520-2">
          <path id="uuid-97457f00-5131-4f53-a3c4-be4da86701d6" data-name="path522-2" class="uuid-afb15059-47b1-4061-b02f-1c36a43f3d60" d="M107.12,93.836v.655c0,.184-.079.229-.235.133-.785-.482-1.568-.97-2.353-1.452-.079-.047-.123-.137-.111-.229-.018-1.005-.038-2.01-.06-3.017-.024-1.132-.053-2.264-.076-3.4.004-.099-.05-.19-.138-.235-2.108-1.301-4.215-2.603-6.32-3.907-.142-.073-.227-.224-.216-.384,0-.682-.03-1.364-.043-2.046,0-.091-.041-.2.083-.259.104-.061.234-.056.333.012,2.744,1.705,5.489,3.408,8.236,5.107.455.264.729.755.715,1.281.014,1.076.036,2.152.06,3.228.025,1.189.053,2.378.084,3.565.008.316.028.632.041.948"/>
        </g>
      </g>
    </g>
    <g id="uuid-c9d6fc1a-4366-44cc-9371-9a3966fef8ab" data-name="g210">
      <path id="uuid-443938da-5440-449c-9182-eaac5d6e576f" data-name="path194" class="uuid-916c668e-ad8f-4519-9eb3-2fb0fb4f635e" d="M136.229,190.3c.751.749,1.758,1.185,2.818,1.222,1.115,0,1.883-.563,1.883-1.331,0-.683-.407-1-1.523-1.2l-1.547-.264c-1.452-.264-2.159-.983-2.159-2.135,0-1.511,1.211-2.518,3.094-2.518,1.212-.01,2.394.373,3.37,1.091l-.731,1.079c-.761-.617-1.708-.959-2.687-.971-1.007,0-1.667.5-1.667,1.188,0,.6.372.911,1.295,1.054l1.488.264c1.691.288,2.482,1.032,2.482,2.3,0,1.535-1.367,2.627-3.37,2.627-1.302-.002-2.558-.485-3.526-1.356l.78-1.05Z"/>
      <path id="uuid-4ca0a622-6bd2-4015-91e9-96a98d6cbefb" data-name="path196" class="uuid-916c668e-ad8f-4519-9eb3-2fb0fb4f635e" d="M146.427,192.705c-1.687.003-3.057-1.363-3.06-3.05,0-.023,0-.045,0-.068-.081-1.633,1.178-3.023,2.811-3.104.039-.002.077-.003.116-.003,1.593.019,2.869,1.326,2.85,2.919,0,.059-.003.117-.007.176v.336h-4.438c.098.924.871,1.629,1.8,1.642.533.015,1.048-.189,1.427-.563l.888.827c-.655.588-1.508.905-2.388.888ZM144.727,189.083h3.13c-.072-.824-.745-1.466-1.571-1.5-.828.025-1.503.673-1.562,1.5h.003Z"/>
      <path id="uuid-946101ec-1aa3-4d95-96ca-420f2c42f569" data-name="path198" class="uuid-916c668e-ad8f-4519-9eb3-2fb0fb4f635e" d="M150.521,186.576h1.354v1.307c.167-.793.847-1.374,1.656-1.415.201.003.4.044.587.12v1.187c-.236-.097-.488-.146-.743-.144-.654.007-1.242.399-1.5,1v3.958h-1.354v-6.013Z"/>
      <path id="uuid-23a6f1f7-9b63-4818-abe3-700508825559" data-name="path200" class="uuid-916c668e-ad8f-4519-9eb3-2fb0fb4f635e" d="M154.529,186.576h1.471l1.667,4.389,1.667-4.389h1.427l-2.471,6.009h-1.306l-2.455-6.009Z"/>
      <path id="uuid-4fcd2b9e-165e-4af2-9347-2f62711d015c" data-name="path202" class="uuid-916c668e-ad8f-4519-9eb3-2fb0fb4f635e" d="M161.573,184.525c0-.467.378-.845.845-.845s.845.378.845.845-.378.845-.845.845-.845-.378-.845-.845ZM163.095,192.585h-1.354v-6.009h1.359l-.005,6.009Z"/>
      <path id="uuid-5bd07d2e-788a-4172-8f5c-9e87586331fa" data-name="path204" class="uuid-916c668e-ad8f-4519-9eb3-2fb0fb4f635e" d="M169.058,190.845l.816.817c-.598.669-1.454,1.049-2.351,1.043-1.716-.031-3.082-1.447-3.051-3.162.03-1.672,1.378-3.021,3.051-3.051.906-.015,1.776.351,2.4,1.008l-.84.876c-.375-.446-.927-.705-1.51-.708-1.059.109-1.828,1.056-1.719,2.114.095.921.832,1.645,1.754,1.723.558.011,1.092-.231,1.45-.66Z"/>
      <path id="uuid-400eba8f-b146-427c-9a92-accdd4fbdc27" data-name="path206" class="uuid-916c668e-ad8f-4519-9eb3-2fb0fb4f635e" d="M173.824,192.705c-1.687.003-3.057-1.363-3.06-3.05,0-.023,0-.045,0-.068-.081-1.633,1.178-3.023,2.811-3.104.039-.002.077-.003.116-.003,1.593.02,2.869,1.327,2.849,2.92,0,.058-.003.117-.007.175v.336h-4.434c.098.924.871,1.629,1.8,1.642.532.014,1.048-.189,1.427-.563l.887.827c-.655.588-1.51.906-2.39.888ZM172.124,189.083h3.13c-.071-.824-.744-1.466-1.57-1.5-.829.025-1.505.673-1.564,1.5h.004Z"/>
      <path id="uuid-17f7a605-0a45-4eaa-a069-d389bfbfd116" data-name="path208" class="uuid-916c668e-ad8f-4519-9eb3-2fb0fb4f635e" d="M183.147,184.189h1.667l3.25,8.4h-1.547l-.852-2.351h-3.454l-.863,2.351h-1.5l3.299-8.4ZM185.247,189.107l-1.3-3.574-1.319,3.574h2.619Z"/>
    </g>
    <g id="uuid-4c17abc7-cc6b-466b-b75c-8deb54b5a989" data-name="g254">
      <g id="uuid-df1da8da-b8d7-4b5f-85b0-ed0ec737dcab" data-name="g892-2">
        <path id="uuid-d892c653-d2d0-4798-82cf-aec246ea34ee" data-name="path894-2" class="uuid-8cee12c9-1578-4458-85c3-2fe1b5795b0b" d="M97.326,198.4c0,.722.586,1.308,1.308,1.308h.534v-6.447h-1.842v5.139Z"/>
      </g>
      <path id="uuid-83851ab9-b54d-46c2-b57a-cd9e4badb935" data-name="path896-2" class="uuid-8cee12c9-1578-4458-85c3-2fe1b5795b0b" d="M96.1,182.819h-1.845v6.755h1.845v-6.755Z"/>
      <path id="uuid-4c95c72c-07ca-446c-bfcf-478287b3dee6" data-name="path898-2" class="uuid-8cee12c9-1578-4458-85c3-2fe1b5795b0b" d="M99.169,185.89h-1.843v6.754h1.843v-6.754Z"/>
      <g id="uuid-7aca07c4-6808-4785-93ef-dc708fcb0811" data-name="g900-2">
        <path id="uuid-d7c88e55-2ee6-4ea3-bf7d-be862277e761" data-name="path902-2" class="uuid-8cee12c9-1578-4458-85c3-2fe1b5795b0b" d="M103.774,180.67v-1.842h-5.139c-.723,0-1.308.585-1.309,1.308v5.14h1.842v-2.07c.002-1.4,1.136-2.534,2.536-2.536h2.07Z"/>
      </g>
      <g id="uuid-75f067e9-e455-47c6-b6d0-5ea46b458d37" data-name="g904-2">
        <path id="uuid-23e1a7de-1944-4e7d-9876-69cf807d24ab" data-name="path906-2" class="uuid-8cee12c9-1578-4458-85c3-2fe1b5795b0b" d="M106.844,202.776v-2.583c-1.713.978-3.4,1.839-5.044,2.583h5.044Z"/>
      </g>
      <g id="uuid-96bfdbfb-b04d-4f66-8e7b-b856df77e83d" data-name="g908-2">
        <path id="uuid-19637159-64c8-4e97-bb4c-2beae256f276" data-name="path910-2" class="uuid-8cee12c9-1578-4458-85c3-2fe1b5795b0b" d="M95.564,196.635h.536v-6.446h-1.844v5.138c0,.722.586,1.307,1.308,1.308"/>
      </g>
      <g id="uuid-d2f9fb43-2f11-44cb-b756-3b03709f626d" data-name="g912-2">
        <path id="uuid-cfa0ad11-e1f9-452f-984e-e60d3b5616f8" data-name="path914-2" class="uuid-8cee12c9-1578-4458-85c3-2fe1b5795b0b" d="M114.827,188.96v4.813c1.965-1.5,3.847-3.107,5.636-4.813h-5.636Z"/>
      </g>
      <g id="uuid-82e483cd-0c4e-41a8-b6ab-f650ca84fc3d" data-name="g916-2">
        <path id="uuid-bb2e9436-1a5c-40fc-bd6a-9e29cc08d91f" data-name="path918-2" class="uuid-8cee12c9-1578-4458-85c3-2fe1b5795b0b" d="M115.133,177.066c0-.722-.585-1.307-1.307-1.308h-5.14v1.842h6.447v-.534Z"/>
      </g>
      <g id="uuid-cb935542-02b2-4961-bdcf-d9c7bf31b4f0" data-name="g920-2">
        <path id="uuid-c8ab6c6f-2873-4bc4-90f0-b8eb8e413b54" data-name="path922-2" class="uuid-8cee12c9-1578-4458-85c3-2fe1b5795b0b" d="M118.2,180.136c0-.722-.584-1.307-1.306-1.308h-5.14v1.843h6.446v-.535Z"/>
      </g>
      <g id="uuid-7d9cd960-3993-4372-9563-7432e4509e85" data-name="g924-2">
        <path id="uuid-84856f26-235d-4964-ac55-03b4b2e6faea" data-name="path926-2" class="uuid-8cee12c9-1578-4458-85c3-2fe1b5795b0b" d="M107.459,196.329v2.436c1.27-.756,2.543-1.568,3.818-2.436h-3.818Z"/>
      </g>
      <path id="uuid-1d8c5312-b0ca-4cdd-b2cc-3efcd6e18a1a" data-name="path928-2" class="uuid-8cee12c9-1578-4458-85c3-2fe1b5795b0b" d="M111.142,178.828h-6.753v1.843h6.753v-1.843Z"/>
      <path id="uuid-7c9d78c3-5bfe-4a5c-8db7-df01da28c573" data-name="path930-2" class="uuid-8cee12c9-1578-4458-85c3-2fe1b5795b0b" d="M108.073,175.758h-6.754v1.842h6.754v-1.842Z"/>
      <g id="uuid-27d4ba40-a43f-4d32-990a-621cb65214e5" data-name="g932-2">
        <path id="uuid-d9f2b743-d7a8-4c0b-b521-204c633e6528" data-name="path934-2" class="uuid-8cee12c9-1578-4458-85c3-2fe1b5795b0b" d="M96.1,180.136c.002-1.4,1.136-2.534,2.536-2.536h2.064v-1.843h-5.135c-.722,0-1.308.586-1.31,1.308v5.14h1.845v-2.069Z"/>
      </g>
      <g id="uuid-6d35cc1e-28bc-446e-98a8-c4789e6d1361" data-name="g936-2">
        <path id="uuid-b5a34dcf-b656-443d-a5e5-ebeccfe587a0" data-name="path938-2" class="uuid-8cee12c9-1578-4458-85c3-2fe1b5795b0b" d="M119.966,181.9h-5.138v6.447h6.264c.06-.059.122-.119.181-.179v-4.96c0-.722-.585-1.307-1.307-1.308"/>
      </g>
      <g id="uuid-85f0aa00-5934-4111-8ff4-3670f655239b" data-name="g940-2">
        <path id="uuid-0af6ab06-1e5e-4a97-b9fb-448506a49381" data-name="path942-2" class="uuid-8cee12c9-1578-4458-85c3-2fe1b5795b0b" d="M114.827,195.715h6.447v-6.259c-2.035,1.956-4.188,3.785-6.447,5.477v.782Z"/>
      </g>
      <path id="uuid-2953dd7f-5f3f-4864-ae6c-acbf6771706e" data-name="path944-2" class="uuid-8cee12c9-1578-4458-85c3-2fe1b5795b0b" d="M107.459,188.346h6.754v-6.446h-6.754v6.446Z"/>
      <g id="uuid-c1dafdab-14da-479b-8d4e-883494fed56e" data-name="g946-2">
        <path id="uuid-f3e357fc-bc7f-4174-9afa-978291dbf8b7" data-name="path948-2" class="uuid-8cee12c9-1578-4458-85c3-2fe1b5795b0b" d="M100.4,201.467c.001.291.1.572.281.8,2.115-.925,4.175-1.974,6.167-3.141v-2.8h-6.448v5.141Z"/>
      </g>
      <g id="uuid-c31b3935-dff6-4a01-a6c0-1d5fdb601481" data-name="g950-2">
        <path id="uuid-fe20ad37-be8c-4597-b135-3b049836807f" data-name="path952-2" class="uuid-8cee12c9-1578-4458-85c3-2fe1b5795b0b" d="M114.827,202.776h5.139c.722,0,1.307-.586,1.308-1.308v-5.139h-6.447v6.447Z"/>
      </g>
      <path id="uuid-5e52572d-8d27-483b-85f6-496734c44c59" data-name="path954-2" class="uuid-8cee12c9-1578-4458-85c3-2fe1b5795b0b" d="M100.4,195.715h6.448v-6.755h-6.448v6.755Z"/>
      <g id="uuid-7c3e4973-2ffa-47b7-8f32-fd525ff41f75" data-name="g956-2">
        <path id="uuid-9077ee29-2fd0-402f-ba3f-b878cd753ddb" data-name="path958-2" class="uuid-8cee12c9-1578-4458-85c3-2fe1b5795b0b" d="M107.459,195.715h4.722c.028-.019.054-.035.08-.055.664-.465,1.314-.94,1.951-1.417v-5.283h-6.753v6.755Z"/>
      </g>
      <g id="uuid-d84fcc96-2069-4b24-ab92-611edf075bd8" data-name="g960-2">
        <path id="uuid-8a894865-14cf-4d5c-8dba-e886671c38e8" data-name="path962-2" class="uuid-8cee12c9-1578-4458-85c3-2fe1b5795b0b" d="M100.4,183.206v5.139h6.448v-6.445h-5.148c-.722.001-1.307.586-1.308,1.308"/>
      </g>
      <g id="uuid-d45710f6-f9d1-4ee3-8a07-543138ecf81e" data-name="g964-2">
        <path id="uuid-5937abec-dfc3-4c5f-9843-cc0d5bbcee73" data-name="path966-2" class="uuid-8cee12c9-1578-4458-85c3-2fe1b5795b0b" d="M114.213,195.715v-.328l-.444.328h.444Z"/>
      </g>
      <g id="uuid-e05ffbc2-8bc7-4593-96f2-456b850a46c9" data-name="g968-2">
        <path id="uuid-6913dddd-a858-47b8-abaa-82870fb8e4a1" data-name="path970-2" class="uuid-8cee12c9-1578-4458-85c3-2fe1b5795b0b" d="M112.791,196.414c-1.772,1.247-3.56,2.383-5.332,3.419v2.942h6.753v-6.446h-1.3l-.12.085"/>
      </g>
      <g id="uuid-d6ac0a4e-91ab-431f-81b7-9c962d233e53" data-name="g972-2">
        <path id="uuid-12d3f740-0dcd-4250-92c6-c2d916af45cc" data-name="path974-2" d="M125.334,183.534c-.881,1.171-1.826,2.293-2.831,3.36v-3.688c-.002-1.4-1.136-2.534-2.536-2.536h-.535v-.534c-.001-1.399-1.133-2.533-2.532-2.536h-.534v-.535c-.003-.452-.127-.894-.36-1.281,6.026-2.426,10.6-2.72,11.993-.74,1.132,1.608.161,4.7-2.661,8.49M121.278,188.166c-.06.06-.123.119-.183.179h-6.264v-6.445h5.14c.722.001,1.306.586,1.307,1.308v4.958ZM121.278,195.714h-6.447v-.781c2.26-1.691,4.413-3.521,6.447-5.477v6.258ZM121.278,201.468c0,.722-.585,1.307-1.307,1.308h-5.14v-6.447h6.447v5.139ZM114.216,188.345h-6.753v-6.445h6.753v6.445ZM114.216,194.245c-.637.479-1.288.952-1.952,1.419-.025.019-.052.035-.078.053h-4.723v-6.757h6.753v5.285ZM114.216,195.717h-.444c.15-.108.3-.217.444-.326v.326ZM114.216,202.779h-6.753v-2.943c1.772-1.036,3.56-2.173,5.332-3.419.04-.028.079-.057.12-.085h1.3v6.447ZM106.848,188.348h-6.448v-5.139c0-.719.581-1.303,1.3-1.309h5.14l.008,6.448ZM106.848,195.717h-6.448v-6.757h6.448v6.757ZM106.848,199.128c-1.993,1.166-4.051,2.216-6.166,3.143-.181-.227-.281-.509-.282-.8v-5.139h6.448v2.796ZM106.848,202.779h-5.048c1.642-.743,3.331-1.606,5.044-2.583l.004,2.583ZM99.172,183.209v2.07h-1.846v-5.14c.001-.722.587-1.307,1.309-1.308h5.139v1.842h-2.074c-1.4.002-2.534,1.136-2.536,2.536M96.426,203.86c-4.52,1.374-7.76,1.24-8.892-.37-1.479-2.1.67-6.685,5.494-11.849v3.687c.002,1.4,1.136,2.534,2.536,2.536h.536v.533c.002,1.4,1.137,2.535,2.537,2.537h.533v.534c.003.451.128.893.36,1.28-1.064.426-2.106.809-3.1,1.112M94.259,190.188h1.841v6.448h-.534c-.722-.001-1.307-.586-1.309-1.308l.002-5.14ZM94.259,182.82h1.841v6.754h-1.845l.004-6.754ZM99.172,193.258v6.447h-.533c-.722-.001-1.307-.586-1.309-1.308v-5.139h1.842ZM97.33,185.89h1.842v6.755h-1.846l.004-6.755ZM94.259,177.065c.002-.722.587-1.307,1.309-1.308h5.132v1.843h-2.065c-1.4.001-2.535,1.136-2.537,2.536v2.069h-1.843l.004-5.14ZM101.322,175.757h6.753v1.843h-6.753v-1.843ZM107.463,196.329h3.819c-1.274.867-2.547,1.679-3.819,2.436v-2.436ZM104.392,178.829h6.754v1.842h-6.754v-1.842ZM108.692,175.758h5.139c.722.001,1.307.586,1.308,1.308v.535h-6.447v-1.843ZM114.832,188.958h5.636c-1.789,1.707-3.67,3.313-5.636,4.813v-4.813ZM111.761,180.668v-1.842h5.14c.722,0,1.307.586,1.307,1.308v.534h-6.447ZM115.355,175.05c-.437-.337-.972-.52-1.524-.522h-18.267c-1.4.002-2.534,1.135-2.536,2.535v13.247c-5.774,5.944-8.113,11.054-6.248,13.709.8,1.129,2.279,1.7,4.332,1.7,1.898-.056,3.778-.386,5.582-.98,1.117-.34,2.286-.767,3.485-1.26.436.339.973.523,1.525.525h18.263c1.4-.003,2.534-1.137,2.536-2.537v-13.238c1.277-1.303,2.47-2.687,3.569-4.144,3.123-4.188,4.072-7.587,2.678-9.572-1.726-2.455-6.607-2.256-13.4.539"/>
      </g>
    </g>
  </g>
  <g id="uuid-9dc57d2b-cd45-4e69-8429-12cc5e694d22" data-name="Pod">
    <g id="uuid-df9696be-d754-420d-aec1-3a8722cb280e" data-name="g263">
      <path id="uuid-0bf2b948-816e-4c1f-a590-8318ab1f6540" data-name="path257" class="uuid-916c668e-ad8f-4519-9eb3-2fb0fb4f635e" d="M42.838,27.087h4.1c1.51-.119,2.831,1.009,2.95,2.519.119,1.51-1.008,2.831-2.519,2.95-.144.011-.288.011-.432,0h-2.038v2.926h-2.062v-8.395ZM44.901,28.787v2.123h1.667c.839,0,1.248-.456,1.248-1.068s-.409-1.055-1.236-1.055h-1.679Z"/>
      <path id="uuid-c8a2148a-2a2a-4dff-817d-a2b93784cfbd" data-name="path259" class="uuid-916c668e-ad8f-4519-9eb3-2fb0fb4f635e" d="M54.128,29.2c1.767.015,3.187,1.461,3.172,3.228-.015,1.767-1.461,3.187-3.228,3.172-1.756-.015-3.172-1.443-3.172-3.2-.028-1.739,1.359-3.172,3.099-3.201.043,0,.086,0,.129,0ZM55.471,32.4c.125-.738-.372-1.438-1.111-1.563s-1.438.372-1.563,1.111c-.025.15-.025.303,0,.452-.115.738.391,1.43,1.13,1.544.738.115,1.43-.391,1.544-1.13.021-.137.021-.277,0-.415Z"/>
      <path id="uuid-00e65da7-d022-4396-a8cf-5a31f8290517" data-name="path261" class="uuid-916c668e-ad8f-4519-9eb3-2fb0fb4f635e" d="M62.888,34.678c-.45.54-1.12.849-1.823.84-1.622-.114-2.845-1.52-2.735-3.142-.075-1.647,1.199-3.043,2.846-3.118.011,0,.022,0,.033-.001.634-.007,1.239.265,1.656.743v-3.093l1.942-.3v8.875h-1.919v-.804ZM61.713,33.911c.437.011.857-.168,1.152-.491v-2.087c-.302-.312-.718-.485-1.152-.48-.844.031-1.504.74-1.474,1.584.029.802.672,1.445,1.474,1.474Z"/>
    </g>
    <g id="uuid-5d34b002-8e53-4cdd-a418-11040bbda72d" data-name="g271">
      <path id="uuid-ae9a2657-ca71-44cd-8c53-8c75e3c081a0" data-name="path265" class="uuid-916c668e-ad8f-4519-9eb3-2fb0fb4f635e" d="M354.649,27.087h4.1c1.51-.119,2.831,1.009,2.95,2.519.119,1.51-1.009,2.831-2.519,2.95-.144.011-.288.011-.432,0h-2.039v2.926h-2.062v-8.395ZM356.711,28.787v2.123h1.667c.84,0,1.248-.456,1.248-1.068s-.408-1.055-1.235-1.055h-1.68Z"/>
      <path id="uuid-2fdaf2ea-fc11-44a1-84b8-15567e3a0745" data-name="path267" class="uuid-916c668e-ad8f-4519-9eb3-2fb0fb4f635e" d="M365.939,29.2c1.767.015,3.188,1.46,3.173,3.227-.015,1.767-1.46,3.188-3.227,3.173-1.757-.015-3.173-1.443-3.173-3.2-.028-1.74,1.361-3.173,3.101-3.201.042,0,.084,0,.126,0ZM367.282,32.4c.125-.738-.372-1.438-1.111-1.563s-1.438.372-1.563,1.111c-.025.15-.025.303,0,.452-.115.738.391,1.43,1.13,1.544.738.115,1.43-.391,1.544-1.13.021-.137.021-.277,0-.415Z"/>
      <path id="uuid-9b22c9ad-1463-4faf-820c-6b2fe4b7f8ad" data-name="path269" class="uuid-916c668e-ad8f-4519-9eb3-2fb0fb4f635e" d="M374.7,34.678c-.45.54-1.121.849-1.824.84-1.622-.115-2.844-1.52-2.734-3.142-.076-1.646,1.198-3.042,2.844-3.118.012,0,.023,0,.035-.001.634-.006,1.239.266,1.655.745v-3.095l1.942-.3v8.875h-1.918v-.804ZM373.525,33.911c.437.011.857-.168,1.151-.491v-2.087c-.301-.311-.718-.485-1.151-.48-.844.031-1.504.74-1.474,1.584.029.802.672,1.445,1.474,1.474Z"/>
    </g>
  </g>
  <g id="uuid-337595f6-c937-441b-ba2d-66379b29c6e7" data-name="Plain text traffic">
    <g id="uuid-fa66ca95-b857-4e1d-a588-6a746e007b33" data-name="g310">
      <rect id="uuid-babd605e-6c5b-4758-b0ab-408cb6df22cb" data-name="rect274" class="uuid-1b555a95-b2ee-485a-973c-0115d4618f1b" x="96.416" y="130.01" width="87.589" height="15"/>
      <g id="uuid-eadaeb46-c46b-44cc-ac9f-b68aba35c0b7" data-name="g308">
        <path id="uuid-2f015523-9d24-4c90-a6a6-b3b21a4aea82" data-name="path276" class="uuid-916c668e-ad8f-4519-9eb3-2fb0fb4f635e" d="M106.825,133.935h2.62c.962-.118,1.838.566,1.956,1.528.011.09.015.181.012.272.015,1.278-1.008,2.327-2.287,2.343-.054,0-.108,0-.162-.004h-2.264l-.61,2.858h-.75l1.485-6.997ZM107.435,134.615l-.6,2.8h2.1c.881.071,1.652-.586,1.723-1.466.004-.054.006-.108.005-.163,0-.731-.509-1.17-1.349-1.17h-1.879Z"/>
        <path id="uuid-5cea747b-113c-4872-8aba-4d7810b830f5" data-name="path278" class="uuid-916c668e-ad8f-4519-9eb3-2fb0fb4f635e" d="M112.337,140.931h-.721l1.5-7.145.739-.151-1.518,7.296Z"/>
        <path id="uuid-709659f0-6aa3-4e35-aff9-3703248eb239" data-name="path280" class="uuid-916c668e-ad8f-4519-9eb3-2fb0fb4f635e" d="M113.9,139.632c.04-.913.812-1.621,1.725-1.582.048.002.096.006.144.013.572-.014,1.134.15,1.609.47l.129-.59c.2-.9-.179-1.359-1.109-1.359-.488.02-.966.146-1.4.37l-.2-.57c.543-.249,1.132-.385,1.729-.4,1.308,0,1.959.72,1.7,1.9l-.68,3.048h-.709l.1-.46c-.397.337-.899.524-1.42.531-.972-.003-1.618-.541-1.618-1.371ZM115.73,140.452c.488-.004.958-.182,1.328-.5l.211-.93c-.415-.299-.919-.447-1.43-.419-.73,0-1.25.4-1.25.949-.004.57.416.9,1.137.9h.004Z"/>
        <path id="uuid-940d689f-0543-4b24-bd41-8c6d1210c9fc" data-name="path282" class="uuid-916c668e-ad8f-4519-9eb3-2fb0fb4f635e" d="M119.7,140.931h-.721l1.07-4.877h.709l-1.058,4.877ZM120.2,134.385c.01-.312.257-.564.568-.58.255,0,.462.208.461.463,0,.002,0,.005,0,.007-.003.315-.255.572-.57.58-.247.006-.453-.189-.459-.436,0-.011,0-.022,0-.034Z"/>
        <path id="uuid-fb671ee7-b204-4f0a-b3f0-4fbe51f9e190" data-name="path284" class="uuid-916c668e-ad8f-4519-9eb3-2fb0fb4f635e" d="M122.245,136.054h.711l-.15.71c.361-.483.926-.771,1.529-.78.798-.051,1.486.555,1.537,1.354.013.202-.017.405-.088.595l-.64,3h-.719l.619-2.848c.2-.9-.209-1.5-1.019-1.5-.523.014-1.011.263-1.328.679l-.8,3.668h-.719l1.067-4.878Z"/>
        <path id="uuid-75fd0feb-19f2-4f8e-abc5-13c5f9a52e7b" data-name="path286" class="uuid-916c668e-ad8f-4519-9eb3-2fb0fb4f635e" d="M130.406,136.654h-.979l.139-.6h.97l.28-1.34.769-.169-.33,1.509h1.379l-.139.6h-1.371l-.638,2.948c-.12.56.06.779.67.779.19-.004.378-.037.558-.1l-.139.649c-.232.061-.47.091-.71.09-.889,0-1.3-.449-1.12-1.259l.661-3.107Z"/>
        <path id="uuid-f289d8b8-29b9-4ce0-9362-8d8d402beba3" data-name="path288" class="uuid-916c668e-ad8f-4519-9eb3-2fb0fb4f635e" d="M135.154,141.021c-1.177.049-2.171-.865-2.22-2.042-.003-.069-.002-.137.001-.206-.075-1.465,1.046-2.715,2.51-2.8,1.098.013,1.978.914,1.965,2.012,0,.046-.003.091-.006.137,0,.177-.012.354-.032.53h-3.738v.1c-.043.861.62,1.594,1.481,1.637.023.001.047.002.07.002.465.001.918-.149,1.289-.429l.379.519c-.496.353-1.09.541-1.699.54ZM133.704,138.133h3.02c.07-.767-.495-1.445-1.262-1.514-.023-.002-.045-.004-.068-.005-.85.05-1.552.68-1.694,1.519h.004Z"/>
        <path id="uuid-fdee4191-952a-4413-b6d1-4e6a3d32e2fc" data-name="path290" class="uuid-916c668e-ad8f-4519-9eb3-2fb0fb4f635e" d="M139.874,138.363l-1.209-2.309h.8l.92,1.839,1.7-1.839h.86l-2.28,2.389,1.3,2.488h-.791l-1.008-1.988-1.84,1.988h-.878l2.426-2.568Z"/>
        <path id="uuid-00f0e340-a68b-4518-84f3-52b2f2bb109b" data-name="path292" class="uuid-916c668e-ad8f-4519-9eb3-2fb0fb4f635e" d="M144.335,136.654h-.978l.138-.6h.971l.279-1.34.77-.169-.33,1.509h1.379l-.139.6h-1.371l-.639,2.948c-.119.56.061.779.67.779.19-.004.379-.037.559-.1l-.139.649c-.232.061-.471.091-.711.09-.888,0-1.3-.449-1.119-1.259l.66-3.107Z"/>
        <path id="uuid-cad30778-95b5-4bd5-8b9d-cbfc1a9a3094" data-name="path294" class="uuid-916c668e-ad8f-4519-9eb3-2fb0fb4f635e" d="M150.374,136.654h-.974l.138-.6h.971l.279-1.34.77-.169-.33,1.509h1.372l-.139.6h-1.371l-.639,2.948c-.119.56.061.779.67.779.19-.004.379-.037.559-.1l-.139.649c-.232.061-.471.091-.711.09-.888,0-1.3-.449-1.119-1.259l.663-3.107Z"/>
        <path id="uuid-a76314cc-0853-4c04-87c7-cf23d65bdc7b" data-name="path296" class="uuid-916c668e-ad8f-4519-9eb3-2fb0fb4f635e" d="M153.656,136.054h.718l-.2.89c.274-.57.837-.946,1.469-.98.174,0,.346.031.51.09l-.151.659c-.172-.077-.36-.114-.549-.109-.595.034-1.127.379-1.4.909l-.75,3.418h-.719l1.072-4.877Z"/>
        <path id="uuid-7d12ab66-23c6-4e5d-8f79-ae8197f27e9f" data-name="path298" class="uuid-916c668e-ad8f-4519-9eb3-2fb0fb4f635e" d="M156.126,139.632c.039-.913.812-1.622,1.725-1.582.05.002.1.007.149.013.572-.014,1.134.15,1.608.47l.131-.59c.2-.9-.18-1.359-1.11-1.359-.488.019-.966.146-1.4.37l-.2-.57c.543-.249,1.131-.385,1.728-.4,1.311,0,1.959.72,1.7,1.9l-.679,3.048h-.709l.1-.46c-.396.337-.898.524-1.418.531-.976-.003-1.625-.541-1.625-1.371ZM157.954,140.452c.489-.004.96-.181,1.33-.5l.209-.93c-.414-.299-.919-.447-1.429-.419-.729,0-1.248.4-1.248.949,0,.57.42.9,1.138.9h0Z"/>
        <path id="uuid-73c568ab-48fe-4e48-9325-a6aca05423c4" data-name="path300" class="uuid-916c668e-ad8f-4519-9eb3-2fb0fb4f635e" d="M162.835,136.054l.25-1.17c.088-.807.777-1.414,1.588-1.4.26-.005.519.043.76.14l-.129.649c-.205-.088-.427-.132-.65-.13-.491,0-.741.23-.86.8l-.24,1.109h1.391l-.141.6h-1.379l-.91,4.277h-.715l.908-4.277h-1.048l.14-.6,1.035.002Z"/>
        <path id="uuid-8f76a0bf-3f59-458b-9083-bf90c529bf4a" data-name="path302" class="uuid-916c668e-ad8f-4519-9eb3-2fb0fb4f635e" d="M166.454,136.054l.25-1.17c.089-.807.777-1.413,1.588-1.4.26-.005.519.043.76.14l-.129.649c-.205-.088-.427-.132-.65-.13-.491,0-.741.23-.86.8l-.24,1.109h1.391l-.141.6h-1.379l-.91,4.277h-.719l.909-4.277h-1.049l.14-.6,1.039.002Z"/>
        <path id="uuid-be90becc-4d1f-42af-9428-73ca0ce9fbdd" data-name="path304" class="uuid-916c668e-ad8f-4519-9eb3-2fb0fb4f635e" d="M169.165,140.931h-.72l1.07-4.877h.709l-1.059,4.877ZM169.665,134.385c.01-.312.257-.564.569-.58.255,0,.462.208.461.463,0,.002,0,.005,0,.007-.003.316-.255.572-.571.58-.248.006-.454-.19-.459-.438,0-.011,0-.021,0-.032Z"/>
        <path id="uuid-f6190286-e939-40e3-b747-c5f60aaf6272" data-name="path306" class="uuid-916c668e-ad8f-4519-9eb3-2fb0fb4f635e" d="M174.474,139.9l.34.47c-.495.418-1.122.648-1.77.649-1.148.014-2.089-.905-2.103-2.053,0-.045,0-.09.003-.135-.036-1.509,1.14-2.77,2.648-2.839.725-.006,1.407.341,1.83.929l-.541.451c-.282-.455-.783-.728-1.318-.72-1.108.083-1.952,1.028-1.908,2.139-.036.84.616,1.551,1.456,1.587.015,0,.029.001.044.001.481-.007.946-.176,1.319-.479Z"/>
      </g>
    </g>
    <g id="uuid-7023fd41-5ba8-48c7-b294-d0ba8428ed0f" data-name="g348">
      <rect id="uuid-c11bcb49-d996-4bb8-badc-4a6411b2ccf1" data-name="rect312" class="uuid-1b555a95-b2ee-485a-973c-0115d4618f1b" x="408.511" y="130.01" width="87.589" height="15"/>
      <g id="uuid-4e704164-b1b9-4429-92ba-35a93c9453ba" data-name="g346">
        <path id="uuid-149a67c9-4e47-4a40-9ec9-dec5fd0a9607" data-name="path314" class="uuid-916c668e-ad8f-4519-9eb3-2fb0fb4f635e" d="M418.915,133.935h2.618c.962-.119,1.838.565,1.957,1.527.011.091.015.182.012.273.016,1.278-1.007,2.327-2.285,2.343-.054,0-.109,0-.163-.004h-2.269l-.609,2.858h-.75l1.489-6.997ZM419.525,134.615l-.6,2.8h2.1c.881.071,1.653-.585,1.724-1.465.004-.054.006-.109.005-.164,0-.731-.51-1.17-1.349-1.17h-1.88Z"/>
        <path id="uuid-6a3b699c-69bb-4d00-b5c5-009768dd2911" data-name="path316" class="uuid-916c668e-ad8f-4519-9eb3-2fb0fb4f635e" d="M424.426,140.931h-.72l1.5-7.145.74-.151-1.52,7.296Z"/>
        <path id="uuid-571c3ffe-38ff-4b7e-adda-487deb36d726" data-name="path318" class="uuid-916c668e-ad8f-4519-9eb3-2fb0fb4f635e" d="M425.986,139.632c.039-.913.811-1.621,1.723-1.582.049.002.097.006.146.013.572-.014,1.134.15,1.608.47l.13-.59c.2-.9-.18-1.359-1.109-1.359-.488.02-.966.146-1.4.37l-.2-.57c.543-.249,1.132-.385,1.729-.4,1.309,0,1.959.72,1.7,1.9l-.68,3.048h-.709l.1-.46c-.397.337-.899.524-1.419.531-.97-.003-1.619-.541-1.619-1.371ZM427.815,140.452c.488-.004.959-.181,1.329-.5l.21-.93c-.415-.299-.919-.447-1.43-.419-.729,0-1.249.4-1.249.949,0,.57.425.9,1.14.9h0Z"/>
        <path id="uuid-c076a27e-e84c-4111-bbe8-f5f3594fdaaf" data-name="path320" class="uuid-916c668e-ad8f-4519-9eb3-2fb0fb4f635e" d="M431.785,140.931h-.719l1.069-4.877h.71l-1.06,4.877ZM432.285,134.385c.01-.312.258-.565.57-.58.255,0,.461.207.46.462,0,.003,0,.005,0,.008-.003.316-.255.572-.571.58-.248.006-.454-.19-.459-.438,0-.011,0-.021,0-.032Z"/>
        <path id="uuid-9550702d-d029-40e9-b729-ef9eff06bea7" data-name="path322" class="uuid-916c668e-ad8f-4519-9eb3-2fb0fb4f635e" d="M434.335,136.054h.71l-.15.71c.361-.483.926-.771,1.529-.78.798-.051,1.486.555,1.537,1.354.013.202-.017.405-.088.595l-.639,3h-.72l.62-2.848c.2-.9-.21-1.5-1.019-1.5-.523.014-1.012.263-1.33.679l-.8,3.668h-.72l1.07-4.878Z"/>
        <path id="uuid-74e7f975-8d61-41a1-b8ef-6500dffb8d39" data-name="path324" class="uuid-916c668e-ad8f-4519-9eb3-2fb0fb4f635e" d="M442.5,136.654h-.979l.14-.6h.969l.28-1.34.769-.169-.329,1.509h1.379l-.14.6h-1.37l-.64,2.948c-.119.56.061.779.67.779.191-.004.38-.037.56-.1l-.14.649c-.232.061-.47.091-.71.09-.888,0-1.3-.449-1.119-1.259l.66-3.107Z"/>
        <path id="uuid-d60c77d5-4fa3-4e5b-aadf-4777137629b5" data-name="path326" class="uuid-916c668e-ad8f-4519-9eb3-2fb0fb4f635e" d="M447.243,141.021c-1.176.049-2.17-.864-2.219-2.041-.003-.069-.002-.138.001-.207-.076-1.464,1.045-2.715,2.508-2.8,1.098.012,1.978.912,1.965,2.01,0,.046-.003.093-.006.139,0,.177-.01.354-.03.53h-3.738v.1c-.043.861.62,1.594,1.481,1.637.023.001.046.002.069.002.465.001.918-.149,1.289-.429l.38.519c-.497.353-1.091.541-1.7.54ZM445.794,138.133h3.019c.07-.766-.494-1.444-1.26-1.514-.023-.002-.046-.004-.069-.005-.848.051-1.549.681-1.69,1.519Z"/>
        <path id="uuid-53f3cae9-2761-4987-ab48-19f43c96baae" data-name="path328" class="uuid-916c668e-ad8f-4519-9eb3-2fb0fb4f635e" d="M451.964,138.363l-1.209-2.309h.8l.92,1.839,1.7-1.839h.859l-2.279,2.389,1.3,2.488h-.79l-1.009-1.988-1.839,1.988h-.88l2.427-2.568Z"/>
        <path id="uuid-69da3575-ee28-4305-8171-8e338332c8e3" data-name="path330" class="uuid-916c668e-ad8f-4519-9eb3-2fb0fb4f635e" d="M456.425,136.654h-.979l.139-.6h.97l.279-1.34.77-.169-.329,1.509h1.379l-.14.6h-1.37l-.64,2.948c-.119.56.061.779.67.779.191-.004.38-.037.56-.1l-.14.649c-.232.061-.47.091-.71.09-.889,0-1.3-.449-1.119-1.259l.66-3.107Z"/>
        <path id="uuid-23cca136-6602-4126-a75d-ebdfb8285814" data-name="path332" class="uuid-916c668e-ad8f-4519-9eb3-2fb0fb4f635e" d="M462.464,136.654h-.979l.139-.6h.97l.279-1.34.77-.169-.329,1.509h1.379l-.14.6h-1.37l-.64,2.948c-.119.56.061.779.67.779.191-.004.38-.037.56-.1l-.14.649c-.232.061-.47.091-.71.09-.889,0-1.3-.449-1.119-1.259l.66-3.107Z"/>
        <path id="uuid-99043a93-65f3-4760-8468-1da17c195872" data-name="path334" class="uuid-916c668e-ad8f-4519-9eb3-2fb0fb4f635e" d="M465.744,136.054h.719l-.2.89c.274-.57.837-.946,1.469-.98.174,0,.346.031.509.09l-.149.659c-.173-.077-.361-.114-.55-.109-.595.034-1.127.379-1.4.909l-.75,3.418h-.72l1.072-4.877Z"/>
        <path id="uuid-4e93617b-7f14-4028-95d8-18a0eff65fe8" data-name="path336" class="uuid-916c668e-ad8f-4519-9eb3-2fb0fb4f635e" d="M468.215,139.632c.04-.913.812-1.621,1.725-1.582.048.002.096.006.144.013.572-.014,1.134.15,1.609.47l.13-.59c.2-.9-.18-1.359-1.11-1.359-.488.02-.966.146-1.4.37l-.2-.57c.543-.249,1.131-.385,1.728-.4,1.31,0,1.959.72,1.7,1.9l-.679,3.048h-.709l.1-.46c-.397.337-.899.524-1.419.531-.969-.003-1.619-.541-1.619-1.371ZM470.044,140.452c.488-.004.959-.181,1.329-.5l.21-.93c-.414-.299-.919-.447-1.429-.419-.73,0-1.249.4-1.249.949,0,.57.419.9,1.139.9h0Z"/>
        <path id="uuid-d523ebed-b577-4c52-8fb9-6366e6c8c20a" data-name="path338" class="uuid-916c668e-ad8f-4519-9eb3-2fb0fb4f635e" d="M474.924,136.054l.25-1.17c.089-.807.777-1.414,1.589-1.4.26-.005.519.043.76.14l-.13.649c-.205-.088-.427-.132-.65-.13-.49,0-.74.23-.859.8l-.24,1.109h1.389l-.14.6h-1.379l-.909,4.277h-.72l.909-4.277h-1.05l.141-.6,1.039.002Z"/>
        <path id="uuid-549fa36c-4081-461c-a9c2-ae0662107d59" data-name="path340" class="uuid-916c668e-ad8f-4519-9eb3-2fb0fb4f635e" d="M478.543,136.054l.25-1.17c.089-.807.777-1.414,1.589-1.4.26-.005.519.043.76.14l-.13.649c-.205-.088-.426-.132-.649-.13-.491,0-.741.23-.86.8l-.24,1.109h1.39l-.141.6h-1.379l-.909,4.277h-.72l.909-4.277h-1.049l.14-.6,1.039.002Z"/>
        <path id="uuid-83a7637e-501e-4a1d-bbd9-c31a29cade6f" data-name="path342" class="uuid-916c668e-ad8f-4519-9eb3-2fb0fb4f635e" d="M481.254,140.931h-.72l1.07-4.877h.71l-1.06,4.877ZM481.754,134.385c.01-.312.258-.565.57-.58.255.001.46.208.459.463,0,.002,0,.005,0,.007-.002.316-.254.572-.57.58-.248.006-.454-.19-.459-.438,0-.011,0-.021,0-.032Z"/>
        <path id="uuid-44598882-fffd-4036-8ef2-9fe30ee98447" data-name="path344" class="uuid-916c668e-ad8f-4519-9eb3-2fb0fb4f635e" d="M486.563,139.9l.34.47c-.495.418-1.122.648-1.77.649-1.148.014-2.089-.905-2.103-2.053,0-.045,0-.09.003-.135-.036-1.509,1.141-2.77,2.649-2.839.724-.005,1.406.341,1.829.929l-.54.451c-.283-.455-.783-.728-1.319-.72-1.108.083-1.952,1.028-1.909,2.139-.035.842.619,1.552,1.461,1.587.013,0,.026,0,.039.001.481-.006.946-.175,1.32-.479Z"/>
      </g>
    </g>
  </g>
  <g id="uuid-5eb94ed5-ca77-405c-b6f9-3a61f90eff7a" data-name="TLS">
    <g id="uuid-84c01510-917c-497b-b075-569ca66eba3a" data-name="g391">
      <path id="uuid-1c9d9f84-56c9-42d3-aab8-dd21d1840d9c" data-name="path351" class="uuid-86124ebf-8c6d-472e-a05c-18251a020b52" d="M259.726,103.605h5.874v1.039h-2.329v5.956h-1.2v-5.957h-2.348l.003-1.038Z"/>
      <path id="uuid-e9823d8e-3a85-4db0-9aef-396f8096a740" data-name="path353" class="uuid-86124ebf-8c6d-472e-a05c-18251a020b52" d="M266.705,103.605h1.2v5.956h3.727v1.04h-4.927v-6.996Z"/>
      <path id="uuid-5e2a0c75-32ba-4868-8611-0d014f829ad2" data-name="path355" class="uuid-86124ebf-8c6d-472e-a05c-18251a020b52" d="M273.005,108.692c.626.624,1.465.988,2.349,1.02.929,0,1.569-.47,1.569-1.11,0-.569-.34-.83-1.269-1l-1.289-.22c-1.21-.219-1.8-.819-1.8-1.778,0-1.26,1.008-2.1,2.578-2.1,1.01-.009,1.995.311,2.808.91l-.609.9c-.634-.514-1.423-.799-2.239-.809-.84,0-1.389.419-1.389.989,0,.5.31.76,1.079.88l1.239.219c1.41.24,2.069.86,2.069,1.919,0,1.28-1.139,2.189-2.808,2.189-1.085-.002-2.131-.404-2.938-1.129l.65-.88Z"/>
      <path id="uuid-3f8743f3-42b5-45b4-946e-e25ac49994cc" data-name="path357" class="uuid-86124ebf-8c6d-472e-a05c-18251a020b52" d="M282.533,107.293v.949h-3.478v-.949h3.478Z"/>
      <path id="uuid-8654f500-01e9-4cb2-acba-0662f151a43c" data-name="path359" class="uuid-86124ebf-8c6d-472e-a05c-18251a020b52" d="M286.124,110.7c-1.406.002-2.548-1.136-2.55-2.542,0-.019,0-.038,0-.058-.067-1.361.981-2.519,2.342-2.586.032-.002.065-.003.097-.003,1.325.013,2.389,1.099,2.376,2.424,0,.052-.003.103-.007.155v.28h-3.7c.081.771.725,1.359,1.5,1.37.444.012.874-.157,1.189-.47l.74.69c-.545.489-1.256.753-1.988.74ZM284.705,107.681h2.609c-.061-.686-.621-1.221-1.31-1.249-.689.022-1.251.562-1.299,1.25h0Z"/>
      <path id="uuid-3cdfe2be-d866-424f-8f96-81ff23559e0d" data-name="path361" class="uuid-86124ebf-8c6d-472e-a05c-18251a020b52" d="M289.534,105.593h1.13v.821c.329-.564.936-.907,1.589-.9.931-.026,1.706.707,1.733,1.638.001.05,0,.101-.003.151v3.3h-1.13v-2.978c.067-.592-.359-1.126-.951-1.194-.05-.006-.099-.008-.149-.006-.442,0-.853.226-1.089.6v3.575h-1.13v-5.007Z"/>
      <path id="uuid-dac3bc2d-574e-42f4-adea-b51156aa90e3" data-name="path363" class="uuid-86124ebf-8c6d-472e-a05c-18251a020b52" d="M298.933,109.152l.68.68c-.498.557-1.212.873-1.959.869-1.43-.028-2.566-1.21-2.538-2.639.027-1.39,1.148-2.51,2.538-2.538.755-.012,1.48.292,2,.839l-.7.729c-.313-.371-.773-.586-1.259-.588-.883.084-1.53.869-1.446,1.752.074.777.697,1.389,1.476,1.448.465.008.909-.195,1.208-.552Z"/>
      <path id="uuid-f7d6ba21-8c62-494c-9a6c-898e8a0a8100" data-name="path365" class="uuid-86124ebf-8c6d-472e-a05c-18251a020b52" d="M300.584,105.593h1.13v1.09c.138-.661.705-1.145,1.379-1.179.168.002.335.036.49.1v.989c-.197-.081-.407-.122-.62-.12-.544.005-1.033.33-1.249.829v3.3h-1.13v-5.009Z"/>
      <path id="uuid-aafdbe57-8dae-456d-87ce-ef605b66d4a6" data-name="path367" class="uuid-86124ebf-8c6d-472e-a05c-18251a020b52" d="M305.794,110.63l-1.888-5.037h1.259l1.269,3.719,1.4-3.719h1.23l-2.379,5.828c-.183.82-.94,1.381-1.778,1.319-.192,0-.384-.024-.571-.07v-.97c.146.021.293.034.441.039.371.018.706-.222.808-.579l.209-.53Z"/>
      <path id="uuid-8ab8b957-11cd-4cd8-a90b-6c70aea3c82d" data-name="path369" class="uuid-86124ebf-8c6d-472e-a05c-18251a020b52" d="M309.884,105.593h1.109v.72c.366-.491.948-.774,1.56-.76,1.324.07,2.34,1.199,2.271,2.523,0,.009,0,.017-.002.026.068,1.339-.962,2.479-2.301,2.547-.016,0-.032.001-.048.002-.559.013-1.094-.225-1.459-.649v2.717h-1.13v-7.126ZM311.014,107.063v2.089c.297.355.738.557,1.2.55.884-.001,1.599-.719,1.598-1.602-.001-.882-.716-1.597-1.598-1.598-.466-.014-.912.194-1.2.561Z"/>
      <path id="uuid-a25ce051-eefb-408c-a76e-3c4a1ae0765a" data-name="path371" class="uuid-86124ebf-8c6d-472e-a05c-18251a020b52" d="M316.615,106.493h-1.01v-.9h1.01v-1.379l1.128-.24v1.619h1.4v.9h-1.4v2.539c0,.489.191.68.7.68.232-.002.461-.043.679-.121v.95c-.315.091-.641.138-.969.14-1.01,0-1.539-.48-1.539-1.4v-2.788Z"/>
      <path id="uuid-8e49c92a-cd93-4606-9823-f7a8ed370d3d" data-name="path373" class="uuid-86124ebf-8c6d-472e-a05c-18251a020b52" d="M322.453,110.7c-1.406.002-2.547-1.136-2.549-2.541,0-.02,0-.039,0-.059-.068-1.36.98-2.518,2.34-2.586.033-.002.065-.003.098-.003,1.325.013,2.389,1.099,2.376,2.424,0,.052-.003.103-.007.155v.28h-3.7c.081.771.725,1.359,1.5,1.37.444.012.874-.157,1.189-.47l.74.69c-.545.489-1.256.753-1.988.74ZM321.033,107.681h2.61c-.061-.686-.621-1.221-1.31-1.249-.69.022-1.251.562-1.3,1.25h0Z"/>
      <path id="uuid-54516163-905e-450f-9e3b-e274da5accc6" data-name="path375" class="uuid-86124ebf-8c6d-472e-a05c-18251a020b52" d="M329.443,109.931c-.374.465-.942.731-1.539.72-1.406-.155-2.421-1.42-2.266-2.827.134-1.219,1.114-2.173,2.336-2.273.559-.004,1.092.237,1.459.66v-2.758l1.13-.19v7.337h-1.12v-.669ZM328.243,109.702c.46.009.899-.194,1.19-.55v-2.109c-.298-.346-.733-.543-1.19-.539-.884.001-1.599.719-1.598,1.602.001.882.716,1.597,1.598,1.598v-.002Z"/>
      <path id="uuid-65abefdf-aed3-402e-bcba-6cd782a59747" data-name="path377" class="uuid-86124ebf-8c6d-472e-a05c-18251a020b52" d="M281.92,118.493h-1.01v-.9h1.01v-1.379l1.129-.24v1.619h1.4v.9h-1.4v2.539c0,.489.191.68.7.68.232-.002.462-.043.68-.121v.95c-.315.091-.642.138-.97.14-1.01,0-1.539-.48-1.539-1.4v-2.788Z"/>
      <path id="uuid-2600ae47-8708-4ffd-b592-d6589db9f391" data-name="path379" class="uuid-86124ebf-8c6d-472e-a05c-18251a020b52" d="M285.44,117.593h1.13v1.09c.138-.661.705-1.145,1.379-1.179.168.002.335.036.49.1v.989c-.197-.081-.407-.122-.62-.12-.544.005-1.033.33-1.249.829v3.3h-1.13v-5.009Z"/>
      <path id="uuid-2bff308f-cf2c-4cac-ac62-2291ac9dd205" data-name="path381" class="uuid-86124ebf-8c6d-472e-a05c-18251a020b52" d="M289.12,121.162c0-.9.73-1.469,1.909-1.469.467,0,.928.106,1.349.31v-.55c0-.66-.38-1-1.149-1-.509.021-1.007.154-1.459.39l-.4-.82c.646-.324,1.357-.498,2.08-.51,1.3,0,2.048.66,2.048,1.82v3.267h-1.119v-.51c-.398.386-.934.599-1.489.59-.866.106-1.653-.51-1.759-1.376-.006-.047-.009-.095-.011-.142ZM291.199,121.891c.429.01.848-.136,1.179-.409v-.82c-.363-.168-.759-.251-1.159-.24-.64,0-1.04.28-1.04.72,0,.458.4.749,1.021.749h-.001Z"/>
      <path id="uuid-cd3cdce0-be37-49d2-a24e-b4c41ede821c" data-name="path383" class="uuid-86124ebf-8c6d-472e-a05c-18251a020b52" d="M295.549,117.593v-.893c-.085-.845.531-1.599,1.376-1.684.118-.012.236-.01.354.005.253-.002.505.032.749.1v.96c-.196-.053-.397-.08-.6-.08-.52,0-.749.229-.749.719v.869h1.349v.9h-1.349v4.111h-1.13v-4.108h-1.079v-.9h1.079Z"/>
      <path id="uuid-17d834e9-95d7-4921-901e-8da3ec6b9bed" data-name="path385" class="uuid-86124ebf-8c6d-472e-a05c-18251a020b52" d="M299.659,117.593v-.893c-.085-.845.531-1.599,1.376-1.684.118-.012.236-.01.354.005.253-.002.505.032.749.1v.96c-.196-.053-.397-.08-.6-.08-.519,0-.749.229-.749.719v.869h1.349v.9h-1.349v4.111h-1.13v-4.108h-1.079v-.9h1.079Z"/>
      <path id="uuid-ce67ba57-97a3-40e1-8c01-45b8514af8bf" data-name="path387" class="uuid-86124ebf-8c6d-472e-a05c-18251a020b52" d="M302.95,115.884c0-.389.316-.705.705-.705s.705.316.705.705-.316.705-.705.705-.705-.316-.705-.705ZM304.22,122.601h-1.13v-5.008h1.13v5.008Z"/>
      <path id="uuid-f4aa3a7c-e437-4995-8140-c5db4fd737ae" data-name="path389" class="uuid-86124ebf-8c6d-472e-a05c-18251a020b52" d="M309.188,121.152l.679.68c-.498.558-1.211.874-1.959.869-1.43-.028-2.566-1.21-2.538-2.639.027-1.39,1.148-2.51,2.538-2.538.755-.012,1.48.292,2,.839l-.7.729c-.313-.371-.773-.586-1.259-.588-.883.084-1.53.869-1.446,1.752.074.777.697,1.389,1.476,1.448.466.008.91-.195,1.209-.552Z"/>
    </g>
  </g>
  <g id="uuid-9f61586e-cd33-4976-8a8b-9042e551c55b" data-name="Green Connectors">
    <g id="uuid-cf82d87a-3ebd-45ea-8a14-0ade3455a876" data-name="g398">
      <line id="uuid-bbd41820-ba28-4f7e-ae0d-f9e68522103c" data-name="line394" class="uuid-737ba2ba-085e-483c-af40-7d832741d175" x1="228.571" y1="95.089" x2="368.693" y2="95.089"/>
      <polygon id="uuid-cdeccd20-7934-4eeb-b903-3b5d3158c655" data-name="polygon396" class="uuid-86124ebf-8c6d-472e-a05c-18251a020b52" points="229.666 98.828 223.189 95.089 229.666 91.349 229.666 98.828"/>
    </g>
    <g id="uuid-b5385d49-898e-4d58-b8b8-3eeefa2aba4d" data-name="g404">
      <line id="uuid-2a97490f-e61e-48e3-a015-73e4947dbe1d" data-name="line400" class="uuid-737ba2ba-085e-483c-af40-7d832741d175" x1="223.189" y1="78.081" x2="363.311" y2="78.081"/>
      <polygon id="uuid-1f95b56c-2a32-4c6b-9cf4-70ded6ae7930" data-name="polygon402" class="uuid-86124ebf-8c6d-472e-a05c-18251a020b52" points="362.216 81.82 368.693 78.081 362.216 74.341 362.216 81.82"/>
    </g>
  </g>
  <g id="uuid-723adadd-d2cc-4908-8406-5e09b8429768" data-name=" 1">
    <g id="uuid-d474c49b-946b-4e1b-bad2-25345aa6942e" data-name="g411">
      <circle id="uuid-deb8fa14-beb1-40c1-893c-ab0330db71a3" data-name="circle407" class="uuid-a9a6df58-7ed8-4e84-858c-4355ff8c7bf1" cx="222.903" cy="214.353" r="7.5"/>
      <path id="uuid-43ff52f1-8a99-4bc8-8dd2-f83256d4cbd1" data-name="path409" d="M223.9,217.192h-1.387v-4.861l-1.242.512v-1.223l1.756-.73h.873v6.302Z"/>
    </g>
  </g>
  <g id="uuid-78989cc6-b81e-463d-8c69-5967295942e3" data-name=" 2">
    <g id="uuid-cbb66c51-f8f9-4b64-afa4-fa9ce4a54b87" data-name="g418">
      <circle id="uuid-93f5a5e8-10f9-4363-9afa-9e59711d5f67" data-name="circle414" class="uuid-a9a6df58-7ed8-4e84-858c-4355ff8c7bf1" cx="188.622" cy="137.51" r="7.5"/>
      <path id="uuid-10921f91-118c-4f90-8c07-65a5e2307d75" data-name="path416" d="M186.207,139.359l2.665-2.638c.251-.209.404-.512.423-.838,0-.4-.395-.711-.927-.711-.617.02-1.197.302-1.593.775l-.775-.947c.637-.649,1.504-1.021,2.413-1.036,1.341,0,2.233.73,2.233,1.828-.025.636-.324,1.23-.82,1.629l-1.818,1.756,2.728-.009v1.179h-4.529v-.988Z"/>
    </g>
  </g>
  <g id="uuid-dfb22e53-d940-4151-8db9-00027bc3d466" data-name=" 3">
    <g id="uuid-98582a46-c976-4dce-afae-e71f584bb865" data-name="g425">
      <circle id="uuid-6471df0f-e782-448d-a6b4-e3e78d5dae45" data-name="circle421" class="uuid-a9a6df58-7ed8-4e84-858c-4355ff8c7bf1" cx="222.903" cy="61.585" r="7.5"/>
      <path id="uuid-d832d49f-2429-4abd-b377-3c3e47e9bd65" data-name="path423" d="M222.621,64.513c-.935.03-1.838-.34-2.484-1.017l.936-.865c.368.462.942.712,1.531.667.683,0,1.134-.306,1.134-.774,0-.4-.325-.648-.829-.648h-.81v-1.144h.666c.514,0,.819-.261.819-.7s-.423-.775-.99-.775c-.578-.016-1.126.254-1.467.721l-.945-.855c.628-.701,1.526-1.101,2.467-1.1,1.377,0,2.331.748,2.331,1.819-.021.696-.51,1.289-1.189,1.441.726.053,1.302.633,1.351,1.359,0,1.088-1.053,1.871-2.521,1.871Z"/>
    </g>
  </g>
  <g id="uuid-b3660557-c420-4de6-b632-b91929a679ba" data-name=" 4">
    <g id="uuid-6a4dc843-a97e-43b9-95f5-5b4fca0cd0b9" data-name="g432">
      <circle id="uuid-89d4c1e8-bb7e-4f68-a464-c845cfdf0d81" data-name="circle428" class="uuid-a9a6df58-7ed8-4e84-858c-4355ff8c7bf1" cx="534.714" cy="61.585" r="7.5"/>
      <path id="uuid-aaccccd9-0739-4d69-bdb8-35b1100f7c1a" data-name="path430" d="M536.543,61.831h.748v1.179h-.748v1.413h-1.386v-1.413h-3.367v-1.143l3.133-3.745h1.62v3.709ZM535.157,61.831v-2.323l-1.926,2.323h1.926Z"/>
    </g>
  </g>
  <g id="uuid-9c96dbbb-a61f-4f32-ab08-83b6070bdeb4" data-name=" 5">
    <g id="uuid-1d851436-e693-4d7f-965f-2f92f51c5dad" data-name="g439">
      <circle id="uuid-a65a8e77-6886-455e-9cac-78343125a560" data-name="circle435" class="uuid-a9a6df58-7ed8-4e84-858c-4355ff8c7bf1" cx="500.89" cy="137.51" r="7.5"/>
      <path id="uuid-50972a2c-f79c-4a1f-909a-4dee2bc1113f" data-name="path437" d="M498.639,134.047h4.123v1.179h-2.962l-.062,1.413c.383-.191.805-.29,1.233-.288,1.051-.117,1.997.641,2.113,1.691.008.075.012.15.012.226,0,1.306-1.045,2.179-2.593,2.179-.844.009-1.663-.292-2.3-.846l.828-.964c.422.39.973.608,1.547.613.658,0,1.1-.36,1.1-.91,0-.531-.5-.918-1.161-.918-.371.008-.734.111-1.054.3l-.971-.288.147-3.387Z"/>
    </g>
  </g>
  <g id="uuid-62b5f81d-a464-42c0-a4d2-f90ff2f5def3" data-name=" 6">
    <g id="uuid-bac5fb2a-5dd6-4e82-a14d-59bb17f3b88d" data-name="g446">
      <circle id="uuid-1b813fc3-884a-407e-b21c-4621f4d67b6e" data-name="circle442" class="uuid-a9a6df58-7ed8-4e84-858c-4355ff8c7bf1" cx="534.714" cy="214.353" r="7.5"/>
      <path id="uuid-d7f72baa-7a78-4ee1-8bd0-85cf5f5c570c" data-name="path444" d="M531.973,214.14c-.175-1.67,1.037-3.166,2.707-3.342.117-.012.236-.018.354-.016.7-.005,1.378.238,1.917.684l-.8.991c-.338-.295-.776-.45-1.225-.433-1.026,0-1.575.774-1.575,2.161.356-.546.959-.88,1.611-.891,1.066-.098,2.009.687,2.107,1.753.005.052.007.104.008.156-.035,1.192-1.03,2.129-2.222,2.094-.036-.001-.073-.003-.109-.006-1.657,0-2.773-1.269-2.773-3.151ZM533.432,214.923c.079.639.599,1.134,1.242,1.18.519.056.985-.319,1.041-.838.001-.012.002-.024.003-.036-.015-.49-.424-.875-.914-.86-.026,0-.051.003-.076.006-.49-.007-.96.192-1.296.548Z"/>
    </g>
  </g>
</svg>