<?xml version="1.0" encoding="UTF-8" standalone="no"?>
<!-- Created with Inkscape (http://www.inkscape.org/) -->

<svg
   xmlns:dc="http://purl.org/dc/elements/1.1/"
   xmlns:cc="http://creativecommons.org/ns#"
   xmlns:rdf="http://www.w3.org/1999/02/22-rdf-syntax-ns#"
   xmlns:svg="http://www.w3.org/2000/svg"
   xmlns="http://www.w3.org/2000/svg"
   xmlns:sodipodi="http://sodipodi.sourceforge.net/DTD/sodipodi-0.dtd"
   xmlns:inkscape="http://www.inkscape.org/namespaces/inkscape"
   version="1.1"
   id="svg2"
   xml:space="preserve"
   width="563.85333"
   height="360.36801"
   viewBox="0 0 563.85333 360.36801"
   sodipodi:docname="call-path.svg"
   inkscape:version="0.92.2 5c3e80d, 2017-08-06"><metadata
     id="metadata8"><rdf:RDF><cc:Work
         rdf:about=""><dc:format>image/svg+xml</dc:format><dc:type
           rdf:resource="http://purl.org/dc/dcmitype/StillImage" /><dc:title></dc:title><dc:subject><rdf:Bag><rdf:li>DO328</rdf:li><rdf:li>service mesh</rdf:li></rdf:Bag></dc:subject></cc:Work></rdf:RDF></metadata><defs
     id="defs6"><clipPath
       clipPathUnits="userSpaceOnUse"
       id="clipPath18"><path
         d="M 0,270.276 H 422.89 V 0 H 0 Z"
         id="path16"
         inkscape:connector-curvature="0" /></clipPath></defs><sodipodi:namedview
     pagecolor="#ffffff"
     bordercolor="#666666"
     borderopacity="1"
     objecttolerance="10"
     gridtolerance="10"
     guidetolerance="10"
     inkscape:pageopacity="0"
     inkscape:pageshadow="2"
     inkscape:window-width="738"
     inkscape:window-height="480"
     id="namedview4"
     showgrid="false"
     inkscape:zoom="0.59767315"
     inkscape:cx="281.92667"
     inkscape:cy="180.18401"
     inkscape:window-x="0"
     inkscape:window-y="0"
     inkscape:window-maximized="0"
     inkscape:current-layer="g10" /><g
     id="g10"
     inkscape:groupmode="layer"
     inkscape:label="call-path"
     transform="matrix(1.3333333,0,0,-1.3333333,0,360.368)"><g
       id="g12"><g
         id="g14"
         clip-path="url(#clipPath18)"><g
           id="g20"
           transform="translate(159.0625,27.7364)"><path
             d="m 0,0 h -105.517 c -0.276,0 -0.5,0.224 -0.5,0.5 v 96.73 c 0,0.276 0.224,0.5 0.5,0.5 0.276,0 0.5,-0.224 0.5,-0.5 V 1 H 0 C 0.276,1 0.5,0.776 0.5,0.5 0.5,0.224 0.276,0 0,0"
             style="fill:#0066cc;fill-opacity:1;fill-rule:nonzero;stroke:none"
             id="path22"
             inkscape:connector-curvature="0" /></g><g
           id="g24"
           transform="translate(158.1138,24.9957)"><path
             d="M 0,0 5.613,3.24 0,6.481 Z"
             style="fill:#0066cc;fill-opacity:1;fill-rule:nonzero;stroke:none"
             id="path26"
             inkscape:connector-curvature="0" /></g><g
           id="g28"
           transform="translate(52.3648,157.1119)"><path
             d="m 0,0 c -0.276,0 -0.5,0.224 -0.5,0.5 v 37.834 c 0,0.276 0.224,0.5 0.5,0.5 0.276,0 0.5,-0.224 0.5,-0.5 V 0.5 C 0.5,0.224 0.276,0 0,0"
             style="fill:#0066cc;fill-opacity:1;fill-rule:nonzero;stroke:none"
             id="path30"
             inkscape:connector-curvature="0" /></g><g
           id="g32"
           transform="translate(49.1241,158.5601)"><path
             d="M 0,0 3.24,-5.612 6.481,0 Z"
             style="fill:#0066cc;fill-opacity:1;fill-rule:nonzero;stroke:none"
             id="path34"
             inkscape:connector-curvature="0" /></g><path
           d="M 97.439,119.38 H 7.292 v 31.75 h 90.147 z"
           style="fill:#d9e8f7;fill-opacity:1;fill-rule:nonzero;stroke:none"
           id="path36"
           inkscape:connector-curvature="0" /><path
           d="m 7.791,119.88 h 89.147 v 30.75 H 7.791 Z m 90.148,-1 H 6.792 v 32.75 h 91.147 z"
           style="fill:#0066cc;fill-opacity:1;fill-rule:nonzero;stroke:none"
           id="path38"
           inkscape:connector-curvature="0" /><g
           id="g40"
           transform="translate(28.3082,134.4605)"><path
             d="m 0,0 c 1.019,-0.838 1.755,-1.155 2.661,-1.155 1.052,0 1.777,0.532 1.777,1.257 0,0.645 -0.385,0.94 -1.438,1.132 L 1.54,1.483 c -1.37,0.249 -2.039,0.929 -2.039,2.016 0,1.426 1.144,2.377 2.922,2.377 1.188,0 2.275,-0.362 3.181,-1.03 L 4.914,3.827 C 4.121,4.438 3.261,4.744 2.377,4.744 1.426,4.744 0.804,4.269 0.804,3.623 0.804,3.057 1.155,2.763 2.026,2.626 L 3.431,2.377 C 5.027,2.106 5.774,1.404 5.774,0.204 c 0,-1.45 -1.291,-2.48 -3.181,-2.48 -1.246,0 -2.322,0.43 -3.329,1.279 z"
             style="fill:#000000;fill-opacity:1;fill-rule:nonzero;stroke:none"
             id="path42"
             inkscape:connector-curvature="0" /></g><g
           id="g44"
           transform="translate(36.4415,135.604)"><path
             d="M 0,0 H 2.955 C 2.808,0.838 2.23,1.415 1.472,1.415 0.713,1.415 0.147,0.86 0,0 m 1.608,-3.419 c -1.619,0 -2.887,1.29 -2.887,2.943 0,1.664 1.189,2.933 2.762,2.933 1.551,0 2.684,-1.234 2.684,-2.921 v -0.317 h -4.189 c 0.124,-0.895 0.826,-1.552 1.698,-1.552 0.532,0 1.03,0.193 1.347,0.533 L 3.861,-2.582 C 3.17,-3.159 2.491,-3.419 1.608,-3.419"
             style="fill:#000000;fill-opacity:1;fill-rule:nonzero;stroke:none"
             id="path46"
             inkscape:connector-curvature="0" /></g><g
           id="g48"
           transform="translate(41.9136,137.9703)"><path
             d="M 0,0 H 1.279 V -1.234 C 1.585,-0.362 2.128,0.102 2.842,0.102 3.057,0.09 3.204,0.068 3.396,-0.011 v -1.121 c -0.203,0.09 -0.463,0.135 -0.701,0.135 -0.612,0 -1.133,-0.35 -1.416,-0.939 v -3.736 l -1.279,0 z"
             style="fill:#000000;fill-opacity:1;fill-rule:nonzero;stroke:none"
             id="path50"
             inkscape:connector-curvature="0" /></g><g
           id="g52"
           transform="translate(45.8677,137.9703)"><path
             d="M 0,0 H 1.393 L 2.966,-4.144 4.54,0 H 5.888 L 3.555,-5.672 H 2.321 Z"
             style="fill:#000000;fill-opacity:1;fill-rule:nonzero;stroke:none"
             id="path54"
             inkscape:connector-curvature="0" /></g><path
           d="m 53.955,132.298 h -1.279 v 5.672 h 1.279 z m -1.438,7.608 c 0,0.43 0.362,0.793 0.793,0.793 0.442,0 0.804,-0.363 0.804,-0.793 0,-0.441 -0.351,-0.781 -0.804,-0.781 -0.442,0 -0.793,0.34 -0.793,0.781"
           style="fill:#000000;fill-opacity:1;fill-rule:nonzero;stroke:none"
           id="path56"
           inkscape:connector-curvature="0" /><g
           id="g58"
           transform="translate(59.584,133.9395)"><path
             d="m 0,0 0.77,-0.77 c -0.532,-0.611 -1.347,-0.985 -2.219,-0.985 -1.608,0 -2.864,1.291 -2.864,2.944 0,1.642 1.245,2.921 2.864,2.921 0.883,0 1.698,-0.339 2.264,-0.951 L 0.023,2.333 C -0.374,2.774 -0.86,3 -1.404,3 c -0.917,0 -1.63,-0.792 -1.63,-1.811 0,-1.03 0.713,-1.812 1.664,-1.812 0.544,0 1.031,0.215 1.37,0.623"
             style="fill:#000000;fill-opacity:1;fill-rule:nonzero;stroke:none"
             id="path60"
             inkscape:connector-curvature="0" /></g><g
           id="g62"
           transform="translate(62.3047,135.604)"><path
             d="M 0,0 H 2.955 C 2.808,0.838 2.23,1.415 1.472,1.415 0.713,1.415 0.147,0.86 0,0 m 1.608,-3.419 c -1.619,0 -2.887,1.29 -2.887,2.943 0,1.664 1.189,2.933 2.762,2.933 1.551,0 2.684,-1.234 2.684,-2.921 v -0.317 h -4.189 c 0.124,-0.895 0.826,-1.552 1.698,-1.552 0.532,0 1.03,0.193 1.347,0.533 L 3.861,-2.582 C 3.17,-3.159 2.491,-3.419 1.608,-3.419"
             style="fill:#000000;fill-opacity:1;fill-rule:nonzero;stroke:none"
             id="path64"
             inkscape:connector-curvature="0" /></g><g
           id="g66"
           transform="translate(74.6959,135.5811)"><path
             d="M 0,0 -1.223,3.374 -2.468,0 Z m -1.981,4.642 h 1.574 L 2.661,-3.283 H 1.2 l -0.804,2.219 h -3.26 l -0.815,-2.219 h -1.416 z"
             style="fill:#000000;fill-opacity:1;fill-rule:nonzero;stroke:none"
             id="path68"
             inkscape:connector-curvature="0" /></g><path
           d="m 255.514,119.38 h -90.148 v 31.75 h 90.148 z"
           style="fill:#d9e8f7;fill-opacity:1;fill-rule:nonzero;stroke:none"
           id="path70"
           inkscape:connector-curvature="0" /><path
           d="m 165.866,119.88 h 89.148 v 30.75 h -89.148 z m 90.148,-1 h -91.148 v 32.75 h 91.148 z"
           style="fill:#0066cc;fill-opacity:1;fill-rule:nonzero;stroke:none"
           id="path72"
           inkscape:connector-curvature="0" /><g
           id="g74"
           transform="translate(186.3892,134.4605)"><path
             d="m 0,0 c 1.019,-0.838 1.755,-1.155 2.661,-1.155 1.052,0 1.777,0.532 1.777,1.257 0,0.645 -0.385,0.94 -1.438,1.132 L 1.54,1.483 c -1.37,0.249 -2.039,0.929 -2.039,2.016 0,1.426 1.144,2.377 2.922,2.377 1.188,0 2.275,-0.362 3.181,-1.03 L 4.914,3.827 C 4.121,4.438 3.261,4.744 2.377,4.744 1.426,4.744 0.804,4.269 0.804,3.623 0.804,3.057 1.155,2.763 2.026,2.626 L 3.431,2.377 C 5.027,2.106 5.774,1.404 5.774,0.204 c 0,-1.45 -1.291,-2.48 -3.181,-2.48 -1.246,0 -2.322,0.43 -3.329,1.279 z"
             style="fill:#000000;fill-opacity:1;fill-rule:nonzero;stroke:none"
             id="path76"
             inkscape:connector-curvature="0" /></g><g
           id="g78"
           transform="translate(194.5225,135.604)"><path
             d="M 0,0 H 2.955 C 2.808,0.838 2.23,1.415 1.472,1.415 0.713,1.415 0.147,0.86 0,0 m 1.608,-3.419 c -1.619,0 -2.887,1.29 -2.887,2.943 0,1.664 1.189,2.933 2.762,2.933 1.551,0 2.684,-1.234 2.684,-2.921 v -0.317 h -4.189 c 0.124,-0.895 0.826,-1.552 1.698,-1.552 0.532,0 1.03,0.193 1.347,0.533 L 3.861,-2.582 C 3.17,-3.159 2.491,-3.419 1.608,-3.419"
             style="fill:#000000;fill-opacity:1;fill-rule:nonzero;stroke:none"
             id="path80"
             inkscape:connector-curvature="0" /></g><g
           id="g82"
           transform="translate(199.9947,137.9703)"><path
             d="M 0,0 H 1.279 V -1.234 C 1.585,-0.362 2.128,0.102 2.842,0.102 3.057,0.09 3.204,0.068 3.396,-0.011 v -1.121 c -0.203,0.09 -0.463,0.135 -0.701,0.135 -0.612,0 -1.133,-0.35 -1.416,-0.939 v -3.736 l -1.279,0 z"
             style="fill:#000000;fill-opacity:1;fill-rule:nonzero;stroke:none"
             id="path84"
             inkscape:connector-curvature="0" /></g><g
           id="g86"
           transform="translate(203.9488,137.9703)"><path
             d="M 0,0 H 1.393 L 2.966,-4.144 4.54,0 H 5.888 L 3.555,-5.672 H 2.321 Z"
             style="fill:#000000;fill-opacity:1;fill-rule:nonzero;stroke:none"
             id="path88"
             inkscape:connector-curvature="0" /></g><path
           d="m 212.037,132.298 h -1.28 v 5.672 h 1.28 z m -1.439,7.608 c 0,0.43 0.362,0.793 0.793,0.793 0.442,0 0.804,-0.363 0.804,-0.793 0,-0.441 -0.351,-0.781 -0.804,-0.781 -0.442,0 -0.793,0.34 -0.793,0.781"
           style="fill:#000000;fill-opacity:1;fill-rule:nonzero;stroke:none"
           id="path90"
           inkscape:connector-curvature="0" /><g
           id="g92"
           transform="translate(217.6646,133.9395)"><path
             d="m 0,0 0.771,-0.77 c -0.533,-0.611 -1.348,-0.985 -2.22,-0.985 -1.608,0 -2.864,1.291 -2.864,2.944 0,1.642 1.245,2.921 2.864,2.921 0.883,0 1.698,-0.339 2.264,-0.951 L 0.022,2.333 C -0.373,2.774 -0.86,3 -1.403,3 -2.321,3 -3.034,2.208 -3.034,1.189 c 0,-1.03 0.713,-1.812 1.664,-1.812 0.544,0 1.03,0.215 1.37,0.623"
             style="fill:#000000;fill-opacity:1;fill-rule:nonzero;stroke:none"
             id="path94"
             inkscape:connector-curvature="0" /></g><g
           id="g96"
           transform="translate(220.3853,135.604)"><path
             d="M 0,0 H 2.955 C 2.808,0.838 2.23,1.415 1.472,1.415 0.713,1.415 0.147,0.86 0,0 m 1.607,-3.419 c -1.619,0 -2.886,1.29 -2.886,2.943 0,1.664 1.188,2.933 2.762,2.933 1.551,0 2.684,-1.234 2.684,-2.921 v -0.317 h -4.189 c 0.124,-0.895 0.826,-1.552 1.698,-1.552 0.532,0 1.03,0.193 1.347,0.533 L 3.86,-2.582 C 3.17,-3.159 2.491,-3.419 1.607,-3.419"
             style="fill:#000000;fill-opacity:1;fill-rule:nonzero;stroke:none"
             id="path98"
             inkscape:connector-curvature="0" /></g><g
           id="g100"
           transform="translate(233.4898,134.6304)"><path
             d="m 0,0 c 0,0.736 -0.555,1.211 -1.403,1.211 h -2.163 v -2.434 h 2.163 C -0.555,-1.223 0,-0.736 0,0 M -3.566,4.483 V 2.264 h 2.026 c 0.781,0 1.28,0.43 1.28,1.11 0,0.679 -0.499,1.109 -1.28,1.109 z m 2.163,1.11 C 0.091,5.593 1.099,4.755 1.099,3.51 1.099,2.717 0.601,2.072 -0.17,1.755 0.771,1.46 1.37,0.77 1.37,-0.125 c 0,-1.313 -1.053,-2.208 -2.615,-2.208 h -3.68 v 7.926 z"
             style="fill:#000000;fill-opacity:1;fill-rule:nonzero;stroke:none"
             id="path102"
             inkscape:connector-curvature="0" /></g><path
           d="m 255.514,12.193 h -90.148 v 31.75 h 90.148 z"
           style="fill:#d9e8f7;fill-opacity:1;fill-rule:nonzero;stroke:none"
           id="path104"
           inkscape:connector-curvature="0" /><path
           d="m 165.866,12.693 h 89.148 v 30.75 h -89.148 z m 90.148,-1 h -91.148 v 32.75 h 91.148 z"
           style="fill:#0066cc;fill-opacity:1;fill-rule:nonzero;stroke:none"
           id="path106"
           inkscape:connector-curvature="0" /><g
           id="g108"
           transform="translate(186.7012,27.273)"><path
             d="m 0,0 c 1.019,-0.838 1.755,-1.155 2.661,-1.155 1.052,0 1.777,0.532 1.777,1.257 0,0.645 -0.385,0.94 -1.438,1.132 L 1.54,1.483 c -1.371,0.249 -2.039,0.929 -2.039,2.016 0,1.426 1.144,2.377 2.922,2.377 1.189,0 2.276,-0.362 3.181,-1.03 L 4.914,3.827 C 4.121,4.438 3.261,4.744 2.377,4.744 1.426,4.744 0.804,4.269 0.804,3.623 0.804,3.057 1.155,2.763 2.026,2.626 L 3.43,2.377 C 5.027,2.106 5.774,1.404 5.774,0.204 c 0,-1.45 -1.291,-2.48 -3.181,-2.48 -1.246,0 -2.322,0.43 -3.329,1.279 z"
             style="fill:#000000;fill-opacity:1;fill-rule:nonzero;stroke:none"
             id="path110"
             inkscape:connector-curvature="0" /></g><g
           id="g112"
           transform="translate(194.8345,28.4165)"><path
             d="M 0,0 H 2.955 C 2.808,0.838 2.23,1.415 1.472,1.415 0.713,1.415 0.147,0.86 0,0 m 1.608,-3.419 c -1.619,0 -2.887,1.29 -2.887,2.943 0,1.664 1.188,2.933 2.762,2.933 1.551,0 2.684,-1.234 2.684,-2.921 v -0.317 h -4.189 c 0.124,-0.895 0.826,-1.552 1.698,-1.552 0.532,0 1.03,0.193 1.347,0.533 L 3.861,-2.582 C 3.17,-3.159 2.491,-3.419 1.608,-3.419"
             style="fill:#000000;fill-opacity:1;fill-rule:nonzero;stroke:none"
             id="path114"
             inkscape:connector-curvature="0" /></g><g
           id="g116"
           transform="translate(200.3067,30.7828)"><path
             d="M 0,0 H 1.279 V -1.234 C 1.585,-0.362 2.128,0.102 2.842,0.102 3.057,0.09 3.204,0.068 3.396,-0.011 v -1.121 c -0.203,0.09 -0.463,0.135 -0.701,0.135 -0.612,0 -1.133,-0.35 -1.416,-0.939 v -3.736 l -1.279,0 z"
             style="fill:#000000;fill-opacity:1;fill-rule:nonzero;stroke:none"
             id="path118"
             inkscape:connector-curvature="0" /></g><g
           id="g120"
           transform="translate(204.2608,30.7828)"><path
             d="M 0,0 H 1.393 L 2.966,-4.144 4.54,0 H 5.888 L 3.555,-5.672 H 2.321 Z"
             style="fill:#000000;fill-opacity:1;fill-rule:nonzero;stroke:none"
             id="path122"
             inkscape:connector-curvature="0" /></g><path
           d="m 212.348,25.11 h -1.279 v 5.672 h 1.279 z m -1.437,7.609 c 0,0.43 0.362,0.792 0.792,0.792 0.441,0 0.803,-0.362 0.803,-0.792 0,-0.442 -0.35,-0.781 -0.803,-0.781 -0.442,0 -0.792,0.339 -0.792,0.781"
           style="fill:#000000;fill-opacity:1;fill-rule:nonzero;stroke:none"
           id="path124"
           inkscape:connector-curvature="0" /><g
           id="g126"
           transform="translate(217.9771,26.752)"><path
             d="m 0,0 0.771,-0.77 c -0.533,-0.611 -1.348,-0.985 -2.22,-0.985 -1.608,0 -2.864,1.291 -2.864,2.944 0,1.642 1.245,2.921 2.864,2.921 0.883,0 1.698,-0.339 2.264,-0.951 L 0.022,2.333 C -0.373,2.774 -0.86,3 -1.403,3 -2.321,3 -3.034,2.208 -3.034,1.189 c 0,-1.03 0.713,-1.812 1.664,-1.812 0.544,0 1.03,0.215 1.37,0.623"
             style="fill:#000000;fill-opacity:1;fill-rule:nonzero;stroke:none"
             id="path128"
             inkscape:connector-curvature="0" /></g><g
           id="g130"
           transform="translate(220.6978,28.4165)"><path
             d="M 0,0 H 2.955 C 2.808,0.838 2.23,1.415 1.472,1.415 0.713,1.415 0.147,0.86 0,0 m 1.607,-3.419 c -1.619,0 -2.886,1.29 -2.886,2.943 0,1.664 1.188,2.933 2.762,2.933 1.551,0 2.684,-1.234 2.684,-2.921 v -0.317 h -4.189 c 0.124,-0.895 0.826,-1.552 1.698,-1.552 0.532,0 1.03,0.193 1.347,0.533 L 3.86,-2.582 C 3.17,-3.159 2.491,-3.419 1.607,-3.419"
             style="fill:#000000;fill-opacity:1;fill-rule:nonzero;stroke:none"
             id="path132"
             inkscape:connector-curvature="0" /></g><g
           id="g134"
           transform="translate(228.8775,33.0357)"><path
             d="M 0,0 H 5.672 V -1.155 H 1.358 V -3.362 H 4.37 V -4.495 H 1.358 v -2.276 h 4.36 V -7.925 H 0 Z"
             style="fill:#000000;fill-opacity:1;fill-rule:nonzero;stroke:none"
             id="path136"
             inkscape:connector-curvature="0" /></g><path
           d="m 413.589,172.974 h -90.147 v 31.75 h 90.147 z"
           style="fill:#d9e8f7;fill-opacity:1;fill-rule:nonzero;stroke:none"
           id="path138"
           inkscape:connector-curvature="0" /><path
           d="m 323.942,173.474 h 89.147 v 30.75 h -89.147 z m 90.147,-1 h -91.147 v 32.75 h 91.147 z"
           style="fill:#0066cc;fill-opacity:1;fill-rule:nonzero;stroke:none"
           id="path140"
           inkscape:connector-curvature="0" /><g
           id="g142"
           transform="translate(344.3121,188.0547)"><path
             d="m 0,0 c 1.019,-0.838 1.755,-1.155 2.66,-1.155 1.054,0 1.778,0.532 1.778,1.257 0,0.645 -0.385,0.94 -1.438,1.132 L 1.54,1.483 c -1.37,0.249 -2.038,0.929 -2.038,2.016 0,1.426 1.144,2.377 2.921,2.377 1.188,0 2.275,-0.362 3.181,-1.03 L 4.914,3.827 C 4.121,4.438 3.261,4.744 2.378,4.744 1.427,4.744 0.804,4.268 0.804,3.623 c 0,-0.566 0.35,-0.86 1.222,-0.997 L 3.431,2.377 C 5.026,2.106 5.774,1.404 5.774,0.204 c 0,-1.45 -1.291,-2.48 -3.181,-2.48 -1.245,0 -2.322,0.43 -3.329,1.279 z"
             style="fill:#000000;fill-opacity:1;fill-rule:nonzero;stroke:none"
             id="path144"
             inkscape:connector-curvature="0" /></g><g
           id="g146"
           transform="translate(352.4459,189.1983)"><path
             d="M 0,0 H 2.955 C 2.808,0.838 2.23,1.415 1.472,1.415 0.713,1.415 0.147,0.86 0,0 m 1.607,-3.419 c -1.619,0 -2.886,1.291 -2.886,2.943 0,1.664 1.188,2.933 2.762,2.933 1.551,0 2.684,-1.234 2.684,-2.921 v -0.317 h -4.189 c 0.124,-0.895 0.826,-1.552 1.698,-1.552 0.532,0 1.03,0.193 1.347,0.533 L 3.86,-2.582 C 3.17,-3.159 2.491,-3.419 1.607,-3.419"
             style="fill:#000000;fill-opacity:1;fill-rule:nonzero;stroke:none"
             id="path148"
             inkscape:connector-curvature="0" /></g><g
           id="g150"
           transform="translate(357.9185,191.5645)"><path
             d="M 0,0 H 1.279 V -1.234 C 1.585,-0.362 2.128,0.102 2.842,0.102 3.057,0.09 3.204,0.068 3.396,-0.011 v -1.121 c -0.204,0.09 -0.464,0.135 -0.702,0.135 -0.611,0 -1.132,-0.35 -1.415,-0.939 v -3.736 l -1.279,0 z"
             style="fill:#000000;fill-opacity:1;fill-rule:nonzero;stroke:none"
             id="path152"
             inkscape:connector-curvature="0" /></g><g
           id="g154"
           transform="translate(361.8726,191.5645)"><path
             d="M 0,0 H 1.393 L 2.966,-4.144 4.54,0 H 5.887 L 3.555,-5.672 H 2.32 Z"
             style="fill:#000000;fill-opacity:1;fill-rule:nonzero;stroke:none"
             id="path156"
             inkscape:connector-curvature="0" /></g><path
           d="m 369.96,185.892 h -1.279 v 5.672 h 1.279 z m -1.439,7.609 c 0,0.43 0.362,0.792 0.793,0.792 0.441,0 0.804,-0.362 0.804,-0.792 0,-0.442 -0.351,-0.782 -0.804,-0.782 -0.441,0 -0.793,0.34 -0.793,0.782"
           style="fill:#000000;fill-opacity:1;fill-rule:nonzero;stroke:none"
           id="path158"
           inkscape:connector-curvature="0" /><g
           id="g160"
           transform="translate(375.5875,187.5337)"><path
             d="m 0,0 0.77,-0.77 c -0.532,-0.611 -1.347,-0.985 -2.219,-0.985 -1.608,0 -2.864,1.291 -2.864,2.944 0,1.642 1.245,2.921 2.864,2.921 0.883,0 1.698,-0.339 2.264,-0.951 L 0.022,2.333 C -0.373,2.774 -0.86,3 -1.404,3 c -0.917,0 -1.63,-0.792 -1.63,-1.811 0,-1.03 0.713,-1.812 1.664,-1.812 0.544,0 1.03,0.215 1.37,0.623"
             style="fill:#000000;fill-opacity:1;fill-rule:nonzero;stroke:none"
             id="path162"
             inkscape:connector-curvature="0" /></g><g
           id="g164"
           transform="translate(378.3082,189.1983)"><path
             d="M 0,0 H 2.955 C 2.808,0.838 2.23,1.415 1.472,1.415 0.713,1.415 0.147,0.86 0,0 m 1.607,-3.419 c -1.619,0 -2.886,1.291 -2.886,2.943 0,1.664 1.188,2.933 2.762,2.933 1.551,0 2.683,-1.234 2.683,-2.921 v -0.317 h -4.188 c 0.124,-0.895 0.826,-1.552 1.698,-1.552 0.532,0 1.03,0.193 1.347,0.533 L 3.86,-2.582 C 3.17,-3.159 2.491,-3.419 1.607,-3.419"
             style="fill:#000000;fill-opacity:1;fill-rule:nonzero;stroke:none"
             id="path166"
             inkscape:connector-curvature="0" /></g><g
           id="g168"
           transform="translate(392.3755,188.0318)"><path
             d="m 0,0 0.895,-0.86 c -0.737,-0.872 -1.88,-1.393 -3.058,-1.393 -2.32,0 -4.099,1.789 -4.099,4.076 0,2.299 1.789,4.087 4.099,4.087 1.212,0 2.366,-0.52 3.091,-1.404 L 0.011,3.601 c -0.555,0.702 -1.336,1.098 -2.174,1.098 -1.54,0 -2.706,-1.245 -2.706,-2.876 0,-1.619 1.189,-2.853 2.752,-2.853 0.826,0 1.573,0.362 2.117,1.03"
             style="fill:#000000;fill-opacity:1;fill-rule:nonzero;stroke:none"
             id="path170"
             inkscape:connector-curvature="0" /></g><path
           d="m 413.589,65.787 h -90.147 v 31.75 h 90.147 z"
           style="fill:#d9e8f7;fill-opacity:1;fill-rule:nonzero;stroke:none"
           id="path172"
           inkscape:connector-curvature="0" /><path
           d="m 323.942,66.287 h 89.147 v 30.75 h -89.147 z m 90.147,-1 h -91.147 v 32.75 h 91.147 z"
           style="fill:#0066cc;fill-opacity:1;fill-rule:nonzero;stroke:none"
           id="path174"
           inkscape:connector-curvature="0" /><g
           id="g176"
           transform="translate(344.2047,80.8667)"><path
             d="m 0,0 c 1.019,-0.838 1.755,-1.155 2.66,-1.155 1.054,0 1.778,0.532 1.778,1.257 0,0.645 -0.385,0.94 -1.438,1.132 L 1.54,1.483 c -1.37,0.249 -2.038,0.929 -2.038,2.016 0,1.426 1.144,2.377 2.921,2.377 1.188,0 2.275,-0.362 3.181,-1.03 L 4.914,3.827 C 4.121,4.438 3.261,4.744 2.378,4.744 1.427,4.744 0.804,4.269 0.804,3.623 c 0,-0.566 0.35,-0.86 1.222,-0.997 L 3.431,2.377 C 5.026,2.106 5.774,1.404 5.774,0.204 c 0,-1.45 -1.291,-2.48 -3.181,-2.48 -1.245,0 -2.322,0.43 -3.329,1.279 z"
             style="fill:#000000;fill-opacity:1;fill-rule:nonzero;stroke:none"
             id="path178"
             inkscape:connector-curvature="0" /></g><g
           id="g180"
           transform="translate(352.3384,82.0103)"><path
             d="M 0,0 H 2.955 C 2.808,0.838 2.23,1.415 1.472,1.415 0.713,1.415 0.147,0.86 0,0 m 1.607,-3.419 c -1.619,0 -2.886,1.29 -2.886,2.943 0,1.664 1.188,2.933 2.762,2.933 1.551,0 2.684,-1.234 2.684,-2.921 v -0.317 h -4.189 c 0.124,-0.895 0.826,-1.552 1.698,-1.552 0.532,0 1.03,0.193 1.347,0.533 L 3.86,-2.582 C 3.17,-3.159 2.491,-3.419 1.607,-3.419"
             style="fill:#000000;fill-opacity:1;fill-rule:nonzero;stroke:none"
             id="path182"
             inkscape:connector-curvature="0" /></g><g
           id="g184"
           transform="translate(357.8111,84.3765)"><path
             d="M 0,0 H 1.279 V -1.234 C 1.585,-0.362 2.128,0.102 2.842,0.102 3.057,0.09 3.204,0.068 3.396,-0.011 v -1.121 c -0.204,0.09 -0.464,0.135 -0.702,0.135 -0.611,0 -1.132,-0.35 -1.415,-0.939 v -3.736 l -1.279,0 z"
             style="fill:#000000;fill-opacity:1;fill-rule:nonzero;stroke:none"
             id="path186"
             inkscape:connector-curvature="0" /></g><g
           id="g188"
           transform="translate(361.7652,84.3765)"><path
             d="M 0,0 H 1.393 L 2.966,-4.144 4.54,0 H 5.887 L 3.555,-5.672 H 2.32 Z"
             style="fill:#000000;fill-opacity:1;fill-rule:nonzero;stroke:none"
             id="path190"
             inkscape:connector-curvature="0" /></g><path
           d="m 369.852,78.704 h -1.279 v 5.672 h 1.279 z m -1.438,7.609 c 0,0.43 0.362,0.792 0.793,0.792 0.441,0 0.803,-0.362 0.803,-0.792 0,-0.442 -0.35,-0.782 -0.803,-0.782 -0.442,0 -0.793,0.34 -0.793,0.782"
           style="fill:#000000;fill-opacity:1;fill-rule:nonzero;stroke:none"
           id="path192"
           inkscape:connector-curvature="0" /><g
           id="g194"
           transform="translate(375.48,80.3457)"><path
             d="m 0,0 0.77,-0.77 c -0.532,-0.611 -1.347,-0.985 -2.219,-0.985 -1.608,0 -2.864,1.291 -2.864,2.944 0,1.642 1.245,2.921 2.864,2.921 0.883,0 1.698,-0.339 2.264,-0.951 L 0.022,2.333 C -0.373,2.774 -0.86,3 -1.404,3 c -0.917,0 -1.63,-0.792 -1.63,-1.811 0,-1.03 0.713,-1.812 1.664,-1.812 0.544,0 1.03,0.215 1.37,0.623"
             style="fill:#000000;fill-opacity:1;fill-rule:nonzero;stroke:none"
             id="path196"
             inkscape:connector-curvature="0" /></g><g
           id="g198"
           transform="translate(378.2007,82.0103)"><path
             d="M 0,0 H 2.955 C 2.808,0.838 2.23,1.415 1.472,1.415 0.713,1.415 0.147,0.86 0,0 m 1.607,-3.419 c -1.619,0 -2.886,1.29 -2.886,2.943 0,1.664 1.188,2.933 2.762,2.933 1.551,0 2.683,-1.234 2.683,-2.921 v -0.317 h -4.188 c 0.124,-0.895 0.826,-1.552 1.698,-1.552 0.532,0 1.03,0.193 1.347,0.533 L 3.86,-2.582 C 3.17,-3.159 2.491,-3.419 1.607,-3.419"
             style="fill:#000000;fill-opacity:1;fill-rule:nonzero;stroke:none"
             id="path200"
             inkscape:connector-curvature="0" /></g><g
           id="g202"
           transform="translate(387.7388,85.4522)"><path
             d="m 0,0 v -5.571 h 1.574 c 1.426,0 2.536,1.2 2.536,2.774 C 4.11,-1.223 3,0 1.574,0 Z M -1.358,1.177 H 1.54 c 2.287,0 3.974,-1.732 3.974,-3.974 0,-2.23 -1.687,-3.951 -3.974,-3.951 h -2.898 z"
             style="fill:#000000;fill-opacity:1;fill-rule:nonzero;stroke:none"
             id="path204"
             inkscape:connector-curvature="0" /></g><g
           id="g206"
           transform="translate(44.1153,201.212)"><path
             d="M 0,0 C -2.038,0 -3.329,1.347 -3.329,3.51 V 8.039 H -1.97 V 3.51 c 0,-1.393 0.782,-2.287 1.981,-2.287 1.2,0 1.97,0.894 1.97,2.287 V 8.039 H 3.34 V 3.51 C 3.34,1.37 2.038,0 0,0"
             style="fill:#000000;fill-opacity:1;fill-rule:nonzero;stroke:none"
             id="path208"
             inkscape:connector-curvature="0" /></g><g
           id="g210"
           transform="translate(49.1924,202.8423)"><path
             d="m 0,0 c 0.736,-0.464 1.245,-0.646 1.823,-0.646 0.679,0 1.143,0.306 1.143,0.759 0,0.351 -0.237,0.544 -0.781,0.646 l -1.008,0.17 c -1.098,0.203 -1.641,0.713 -1.641,1.562 0,1.064 0.871,1.755 2.196,1.755 0.792,0 1.506,-0.215 2.23,-0.68 L 3.362,2.729 C 2.774,3.103 2.23,3.272 1.653,3.272 1.064,3.272 0.679,3.023 0.679,2.604 0.679,2.242 0.883,2.083 1.483,1.981 L 2.479,1.8 C 3.611,1.585 4.155,1.064 4.155,0.215 4.155,-0.827 3.159,-1.63 1.845,-1.63 0.86,-1.63 0,-1.358 -0.6,-0.86 Z"
             style="fill:#000000;fill-opacity:1;fill-rule:nonzero;stroke:none"
             id="path212"
             inkscape:connector-curvature="0" /></g><g
           id="g214"
           transform="translate(55.6031,204.6314)"><path
             d="M 0,0 H 2.955 C 2.808,0.838 2.23,1.415 1.472,1.415 0.713,1.415 0.147,0.86 0,0 m 1.608,-3.419 c -1.619,0 -2.887,1.29 -2.887,2.943 0,1.664 1.188,2.933 2.762,2.933 1.551,0 2.684,-1.234 2.684,-2.921 v -0.317 h -4.189 c 0.124,-0.895 0.826,-1.552 1.698,-1.552 0.532,0 1.03,0.193 1.347,0.533 L 3.861,-2.582 C 3.17,-3.159 2.491,-3.419 1.608,-3.419"
             style="fill:#000000;fill-opacity:1;fill-rule:nonzero;stroke:none"
             id="path216"
             inkscape:connector-curvature="0" /></g><g
           id="g218"
           transform="translate(61.0753,206.9976)"><path
             d="M 0,0 H 1.279 V -1.234 C 1.585,-0.362 2.128,0.102 2.842,0.102 3.057,0.09 3.204,0.068 3.396,-0.011 v -1.121 c -0.203,0.09 -0.463,0.135 -0.701,0.135 -0.612,0 -1.133,-0.35 -1.416,-0.939 v -3.736 l -1.279,0 z"
             style="fill:#000000;fill-opacity:1;fill-rule:nonzero;stroke:none"
             id="path220"
             inkscape:connector-curvature="0" /></g><g
           id="g222"
           transform="translate(36.2891,216.7984)"><path
             d="M 0,0 C 0.692,9.1 8.63,15.916 17.729,15.224 25.867,14.605 32.334,8.138 32.953,0 Z m 8.817,25.373 c 0,4.231 3.43,7.66 7.66,7.66 4.23,0 7.659,-3.429 7.659,-7.66 0,-4.23 -3.429,-7.66 -7.659,-7.66 -4.227,0.009 -7.651,3.433 -7.66,7.66 m 13.051,-8.452 c 4.677,2.977 6.054,9.183 3.076,13.859 -2.978,4.676 -9.183,6.053 -13.859,3.075 C 6.408,30.877 5.031,24.672 8.009,19.996 8.797,18.759 9.847,17.709 11.085,16.921 3.078,14.527 -2.413,7.167 -2.426,-1.189 -2.418,-1.843 -1.89,-2.37 -1.237,-2.379 H 34.19 c 0.654,0.009 1.181,0.536 1.189,1.19 -0.013,8.356 -5.504,15.716 -13.511,18.11"
             style="fill:#000000;fill-opacity:1;fill-rule:nonzero;stroke:none"
             id="path224"
             inkscape:connector-curvature="0" /></g><g
           id="g226"
           transform="translate(159.0625,135.7955)"><path
             d="m 0,0 h -61.565 c -0.277,0 -0.5,0.224 -0.5,0.5 0,0.276 0.223,0.5 0.5,0.5 H 0 C 0.276,1 0.5,0.776 0.5,0.5 0.5,0.224 0.276,0 0,0"
             style="fill:#0066cc;fill-opacity:1;fill-rule:nonzero;stroke:none"
             id="path228"
             inkscape:connector-curvature="0" /></g><g
           id="g230"
           transform="translate(158.1138,133.0542)"><path
             d="M 0,0 5.613,3.241 0,6.482 Z"
             style="fill:#0066cc;fill-opacity:1;fill-rule:nonzero;stroke:none"
             id="path232"
             inkscape:connector-curvature="0" /></g><g
           id="g234"
           transform="translate(290.1109,138.4097)"><path
             d="m 0,0 h -33.14 c -0.276,0 -0.5,0.224 -0.5,0.5 0,0.276 0.224,0.5 0.5,0.5 H -0.5 v 50.915 c 0,0.276 0.224,0.5 0.5,0.5 h 27.555 c 0.276,0 0.5,-0.224 0.5,-0.5 0,-0.276 -0.224,-0.5 -0.5,-0.5 H 0.5 V 0.5 C 0.5,0.224 0.276,0 0,0"
             style="fill:#0066cc;fill-opacity:1;fill-rule:nonzero;stroke:none"
             id="path236"
             inkscape:connector-curvature="0" /></g><g
           id="g238"
           transform="translate(316.7164,187.084)"><path
             d="M 0,0 5.613,3.24 0,6.481 Z"
             style="fill:#0066cc;fill-opacity:1;fill-rule:nonzero;stroke:none"
             id="path240"
             inkscape:connector-curvature="0" /></g><g
           id="g242"
           transform="translate(317.6656,81.7657)"><path
             d="m 0,0 h -27.555 c -0.276,0 -0.5,0.224 -0.5,0.5 v 50.915 h -32.639 c -0.277,0 -0.5,0.224 -0.5,0.5 0,0.276 0.223,0.5 0.5,0.5 h 33.139 c 0.277,0 0.5,-0.224 0.5,-0.5 V 1 H 0 C 0.276,1 0.5,0.776 0.5,0.5 0.5,0.224 0.276,0 0,0"
             style="fill:#0066cc;fill-opacity:1;fill-rule:nonzero;stroke:none"
             id="path244"
             inkscape:connector-curvature="0" /></g><g
           id="g246"
           transform="translate(316.7164,79.0249)"><path
             d="M 0,0 5.613,3.24 0,6.481 Z"
             style="fill:#0066cc;fill-opacity:1;fill-rule:nonzero;stroke:none"
             id="path248"
             inkscape:connector-curvature="0" /></g></g></g></g></svg>