<?xml version="1.0" encoding="UTF-8" standalone="no"?>
<!-- Created with Inkscape (http://www.inkscape.org/) -->

<svg
   xmlns:dc="http://purl.org/dc/elements/1.1/"
   xmlns:cc="http://creativecommons.org/ns#"
   xmlns:rdf="http://www.w3.org/1999/02/22-rdf-syntax-ns#"
   xmlns:svg="http://www.w3.org/2000/svg"
   xmlns="http://www.w3.org/2000/svg"
   xmlns:sodipodi="http://sodipodi.sourceforge.net/DTD/sodipodi-0.dtd"
   xmlns:inkscape="http://www.inkscape.org/namespaces/inkscape"
   version="1.1"
   id="svg2"
   xml:space="preserve"
   width="1122.52"
   height="833.68134"
   viewBox="0 0 1122.52 833.68134"
   sodipodi:docname="traces-spans.svg"
   inkscape:version="0.92.2 5c3e80d, 2017-08-06"><metadata
     id="metadata8"><rdf:RDF><cc:Work
         rdf:about=""><dc:format>image/svg+xml</dc:format><dc:type
           rdf:resource="http://purl.org/dc/dcmitype/StillImage" /><dc:title></dc:title><dc:subject><rdf:Bag><rdf:li>DO328</rdf:li><rdf:li>service mesh</rdf:li></rdf:Bag></dc:subject></cc:Work></rdf:RDF></metadata><defs
     id="defs6"><clipPath
       clipPathUnits="userSpaceOnUse"
       id="clipPath42"><path
         d="M 0,625.261 H 841.89 V 0 H 0 Z"
         id="path40"
         inkscape:connector-curvature="0" /></clipPath></defs><sodipodi:namedview
     pagecolor="#ffffff"
     bordercolor="#666666"
     borderopacity="1"
     objecttolerance="10"
     gridtolerance="10"
     guidetolerance="10"
     inkscape:pageopacity="0"
     inkscape:pageshadow="2"
     inkscape:window-width="738"
     inkscape:window-height="480"
     id="namedview4"
     showgrid="false"
     inkscape:zoom="0.28308178"
     inkscape:cx="561.26001"
     inkscape:cy="416.84067"
     inkscape:window-x="0"
     inkscape:window-y="0"
     inkscape:window-maximized="0"
     inkscape:current-layer="g10" /><g
     id="g10"
     inkscape:groupmode="layer"
     inkscape:label="traces-spans"
     transform="matrix(1.3333333,0,0,-1.3333333,0,833.68133)"><g
       id="g12"
       transform="translate(759.1851,93.2779)"><path
         d="m 0,0 h -655.725 v 503.21 h 2 V 2 H 0 Z"
         style="fill:#000000;fill-opacity:1;fill-rule:nonzero;stroke:none"
         id="path14"
         inkscape:connector-curvature="0" /></g><g
       id="g16"
       transform="translate(97.9786,594.5914)"><path
         d="M 0,0 6.481,11.226 12.963,0 Z"
         style="fill:#000000;fill-opacity:1;fill-rule:nonzero;stroke:none"
         id="path18"
         inkscape:connector-curvature="0" /></g><g
       id="g20"
       transform="translate(757.2877,87.7965)"><path
         d="M 0,0 11.226,6.481 0,12.963 Z"
         style="fill:#000000;fill-opacity:1;fill-rule:nonzero;stroke:none"
         id="path22"
         inkscape:connector-curvature="0" /></g><path
       d="M 752.527,527.245 H 126.86 v 51.188 h 625.667 z"
       style="fill:#d9e8f7;fill-opacity:1;fill-rule:nonzero;stroke:none"
       id="path24"
       inkscape:connector-curvature="0" /><path
       d="m 127.36,527.745 h 624.667 v 50.188 H 127.36 Z m 625.667,-1 H 126.36 v 52.188 h 626.667 z"
       style="fill:#99c2eb;fill-opacity:1;fill-rule:nonzero;stroke:none"
       id="path26"
       inkscape:connector-curvature="0" /><path
       d="M 126.86,462.025 H 428.031 V 410.837 H 126.86 Z"
       style="fill:#d9e8f7;fill-opacity:1;fill-rule:nonzero;stroke:none"
       id="path28"
       inkscape:connector-curvature="0" /><path
       d="m 127.36,411.337 h 300.171 v 50.188 H 127.36 Z m 301.172,-1 H 126.361 v 52.188 h 302.171 z"
       style="fill:#99c2eb;fill-opacity:1;fill-rule:nonzero;stroke:none"
       id="path30"
       inkscape:connector-curvature="0" /><path
       d="M 451.356,232.295 H 752.527 V 181.108 H 451.356 Z"
       style="fill:#d9e8f7;fill-opacity:1;fill-rule:nonzero;stroke:none"
       id="path32"
       inkscape:connector-curvature="0" /><path
       d="m 451.856,181.608 h 300.171 v 50.187 H 451.856 Z m 301.171,-1 H 450.856 v 52.187 h 302.171 z"
       style="fill:#99c2eb;fill-opacity:1;fill-rule:nonzero;stroke:none"
       id="path34"
       inkscape:connector-curvature="0" /><g
       id="g36"><g
         id="g38"
         clip-path="url(#clipPath42)"><g
           id="g44"
           transform="translate(148.3648,470.1905)"><path
             d="m 0,0 c -0.552,0 -1,0.448 -1,1 v 57.085 c 0,0.553 0.448,1 1,1 0.552,0 1,-0.447 1,-1 V 1 C 1,0.448 0.552,0 0,0"
             style="fill:#0066cc;fill-opacity:1;fill-rule:nonzero;stroke:none"
             id="path46"
             inkscape:connector-curvature="0" /></g><g
           id="g48"
           transform="translate(141.8833,473.087)"><path
             d="M 0,0 6.481,-11.225 12.963,0 Z"
             style="fill:#0066cc;fill-opacity:1;fill-rule:nonzero;stroke:none"
             id="path50"
             inkscape:connector-curvature="0" /></g><g
           id="g52"
           transform="translate(405.1392,460.8619)"><path
             d="m 0,0 c -0.552,0 -1,0.448 -1,1 v 57.085 c 0,0.553 0.448,1 1,1 0.552,0 1,-0.447 1,-1 V 1 C 1,0.448 0.552,0 0,0"
             style="fill:#be0000;fill-opacity:1;fill-rule:nonzero;stroke:none"
             id="path54"
             inkscape:connector-curvature="0" /></g><g
           id="g56"
           transform="translate(398.6578,517.0508)"><path
             d="M 0,0 6.481,11.225 12.963,0 Z"
             style="fill:#be0000;fill-opacity:1;fill-rule:nonzero;stroke:none"
             id="path58"
             inkscape:connector-curvature="0" /></g><g
           id="g60"
           transform="translate(148.3648,351.5538)"><path
             d="m 0,0 c -0.552,0 -1,0.448 -1,1 v 57.085 c 0,0.553 0.448,1 1,1 0.552,0 1,-0.447 1,-1 V 1 C 1,0.448 0.552,0 0,0"
             style="fill:#0066cc;fill-opacity:1;fill-rule:nonzero;stroke:none"
             id="path62"
             inkscape:connector-curvature="0" /></g><g
           id="g64"
           transform="translate(141.8833,354.4503)"><path
             d="M 0,0 6.481,-11.225 12.963,0 Z"
             style="fill:#0066cc;fill-opacity:1;fill-rule:nonzero;stroke:none"
             id="path66"
             inkscape:connector-curvature="0" /></g><g
           id="g68"
           transform="translate(241.0679,342.2252)"><path
             d="m 0,0 c -0.552,0 -1,0.448 -1,1 v 57.085 c 0,0.553 0.448,1 1,1 0.552,0 1,-0.447 1,-1 V 1 C 1,0.448 0.552,0 0,0"
             style="fill:#be0000;fill-opacity:1;fill-rule:nonzero;stroke:none"
             id="path70"
             inkscape:connector-curvature="0" /></g><g
           id="g72"
           transform="translate(234.586,398.4141)"><path
             d="M 0,0 6.481,11.225 12.963,0 Z"
             style="fill:#be0000;fill-opacity:1;fill-rule:nonzero;stroke:none"
             id="path74"
             inkscape:connector-curvature="0" /></g><g
           id="g76"
           transform="translate(312.4366,351.5538)"><path
             d="m 0,0 c -0.552,0 -1,0.448 -1,1 v 57.085 c 0,0.553 0.448,1 1,1 0.552,0 1,-0.447 1,-1 V 1 C 1,0.448 0.552,0 0,0"
             style="fill:#0066cc;fill-opacity:1;fill-rule:nonzero;stroke:none"
             id="path78"
             inkscape:connector-curvature="0" /></g><g
           id="g80"
           transform="translate(305.9547,354.4503)"><path
             d="M 0,0 6.481,-11.225 12.963,0 Z"
             style="fill:#0066cc;fill-opacity:1;fill-rule:nonzero;stroke:none"
             id="path82"
             inkscape:connector-curvature="0" /></g><g
           id="g84"
           transform="translate(405.1392,342.2252)"><path
             d="m 0,0 c -0.552,0 -1,0.448 -1,1 v 57.085 c 0,0.553 0.448,1 1,1 0.552,0 1,-0.447 1,-1 V 1 C 1,0.448 0.552,0 0,0"
             style="fill:#be0000;fill-opacity:1;fill-rule:nonzero;stroke:none"
             id="path86"
             inkscape:connector-curvature="0" /></g><g
           id="g88"
           transform="translate(398.6578,398.4141)"><path
             d="M 0,0 6.481,11.225 12.963,0 Z"
             style="fill:#be0000;fill-opacity:1;fill-rule:nonzero;stroke:none"
             id="path90"
             inkscape:connector-curvature="0" /></g><g
           id="g92"
           transform="translate(473.5172,240.5084)"><path
             d="m 0,0 c -0.553,0 -1,0.447 -1,1 v 284 c 0,0.553 0.447,1 1,1 0.553,0 1,-0.447 1,-1 V 1 C 1,0.447 0.553,0 0,0"
             style="fill:#0066cc;fill-opacity:1;fill-rule:nonzero;stroke:none"
             id="path94"
             inkscape:connector-curvature="0" /></g><g
           id="g96"
           transform="translate(467.0357,243.4049)"><path
             d="M 0,0 6.48,-11.225 12.963,0 Z"
             style="fill:#0066cc;fill-opacity:1;fill-rule:nonzero;stroke:none"
             id="path98"
             inkscape:connector-curvature="0" /></g><g
           id="g100"
           transform="translate(730.3668,231.1803)"><path
             d="m 0,0 c -0.553,0 -1,0.447 -1,1 v 284 c 0,0.552 0.447,1 1,1 0.553,0 1,-0.448 1,-1 V 1 C 1,0.447 0.553,0 0,0"
             style="fill:#be0000;fill-opacity:1;fill-rule:nonzero;stroke:none"
             id="path102"
             inkscape:connector-curvature="0" /></g><g
           id="g104"
           transform="translate(723.8843,514.2838)"><path
             d="M 0,0 6.481,11.225 12.964,0 Z"
             style="fill:#be0000;fill-opacity:1;fill-rule:nonzero;stroke:none"
             id="path106"
             inkscape:connector-curvature="0" /></g><path
           d="m 80.184,191.661 h -2 v 375.714 h 2 z"
           style="fill:#99c2eb;fill-opacity:1;fill-rule:nonzero;stroke:none"
           id="path108"
           inkscape:connector-curvature="0" /><g
           id="g110"
           transform="translate(72.7017,565.4776)"><path
             d="M 0,0 6.481,11.225 12.963,0 Z"
             style="fill:#99c2eb;fill-opacity:1;fill-rule:nonzero;stroke:none"
             id="path112"
             inkscape:connector-curvature="0" /></g><g
           id="g114"
           transform="translate(72.7017,193.5582)"><path
             d="M 0,0 6.481,-11.226 12.963,0 Z"
             style="fill:#99c2eb;fill-opacity:1;fill-rule:nonzero;stroke:none"
             id="path116"
             inkscape:connector-curvature="0" /></g><g
           id="g118"
           transform="translate(445.8443,181.108)"><path
             d="M 0,0 H -391.566"
             style="fill:#ffffff;fill-opacity:1;fill-rule:nonzero;stroke:none"
             id="path120"
             inkscape:connector-curvature="0" /></g><g
           id="g122"
           transform="translate(445.8443,180.358)"><path
             d="m 0,0 h -3 c -0.414,0 -0.75,0.336 -0.75,0.75 0,0.414 0.336,0.75 0.75,0.75 H 0 C 0.414,1.5 0.75,1.164 0.75,0.75 0.75,0.336 0.414,0 0,0"
             style="fill:#99c2eb;fill-opacity:1;fill-rule:nonzero;stroke:none"
             id="path124"
             inkscape:connector-curvature="0" /></g><g
           id="g126"
           transform="translate(69.1422,180.358)"><path
             d="m 0,0 h -5.932 c -0.414,0 -0.75,0.336 -0.75,0.75 0,0.414 0.336,0.75 0.75,0.75 H 0 C 0.414,1.5 0.75,1.164 0.75,0.75 0.75,0.336 0.414,0 0,0 M 11.863,0 H 5.932 c -0.414,0 -0.75,0.336 -0.75,0.75 0,0.414 0.336,0.75 0.75,0.75 h 5.931 c 0.414,0 0.75,-0.336 0.75,-0.75 C 12.613,0.336 12.277,0 11.863,0 m 11.864,0 h -5.932 c -0.414,0 -0.75,0.336 -0.75,0.75 0,0.414 0.336,0.75 0.75,0.75 h 5.932 c 0.414,0 0.75,-0.336 0.75,-0.75 C 24.477,0.336 24.141,0 23.727,0 m 11.864,0 h -5.932 c -0.414,0 -0.75,0.336 -0.75,0.75 0,0.414 0.336,0.75 0.75,0.75 h 5.932 c 0.414,0 0.75,-0.336 0.75,-0.75 C 36.341,0.336 36.005,0 35.591,0 m 11.863,0 h -5.932 c -0.414,0 -0.75,0.336 -0.75,0.75 0,0.414 0.336,0.75 0.75,0.75 h 5.932 c 0.414,0 0.75,-0.336 0.75,-0.75 C 48.204,0.336 47.868,0 47.454,0 m 11.864,0 h -5.932 c -0.414,0 -0.75,0.336 -0.75,0.75 0,0.414 0.336,0.75 0.75,0.75 h 5.932 c 0.414,0 0.75,-0.336 0.75,-0.75 C 60.068,0.336 59.732,0 59.318,0 m 11.863,0 h -5.932 c -0.414,0 -0.75,0.336 -0.75,0.75 0,0.414 0.336,0.75 0.75,0.75 h 5.932 c 0.414,0 0.75,-0.336 0.75,-0.75 C 71.931,0.336 71.595,0 71.181,0 m 11.864,0 h -5.932 c -0.414,0 -0.75,0.336 -0.75,0.75 0,0.414 0.336,0.75 0.75,0.75 h 5.932 c 0.414,0 0.75,-0.336 0.75,-0.75 C 83.795,0.336 83.459,0 83.045,0 m 11.863,0 h -5.931 c -0.415,0 -0.75,0.336 -0.75,0.75 0,0.414 0.335,0.75 0.75,0.75 h 5.931 c 0.414,0 0.75,-0.336 0.75,-0.75 C 95.658,0.336 95.322,0 94.908,0 m 11.864,0 h -5.932 c -0.414,0 -0.75,0.336 -0.75,0.75 0,0.414 0.336,0.75 0.75,0.75 h 5.932 c 0.414,0 0.75,-0.336 0.75,-0.75 0,-0.414 -0.336,-0.75 -0.75,-0.75 m 11.864,0 h -5.932 c -0.414,0 -0.75,0.336 -0.75,0.75 0,0.414 0.336,0.75 0.75,0.75 h 5.932 c 0.414,0 0.75,-0.336 0.75,-0.75 0,-0.414 -0.336,-0.75 -0.75,-0.75 m 11.863,0 h -5.932 c -0.414,0 -0.75,0.336 -0.75,0.75 0,0.414 0.336,0.75 0.75,0.75 h 5.932 c 0.414,0 0.75,-0.336 0.75,-0.75 0,-0.414 -0.336,-0.75 -0.75,-0.75 m 11.864,0 h -5.932 c -0.414,0 -0.75,0.336 -0.75,0.75 0,0.414 0.336,0.75 0.75,0.75 h 5.932 c 0.414,0 0.75,-0.336 0.75,-0.75 0,-0.414 -0.336,-0.75 -0.75,-0.75 m 11.863,0 h -5.932 c -0.414,0 -0.75,0.336 -0.75,0.75 0,0.414 0.336,0.75 0.75,0.75 h 5.932 c 0.414,0 0.75,-0.336 0.75,-0.75 0,-0.414 -0.336,-0.75 -0.75,-0.75 m 11.864,0 h -5.932 c -0.414,0 -0.75,0.336 -0.75,0.75 0,0.414 0.336,0.75 0.75,0.75 h 5.932 c 0.414,0 0.75,-0.336 0.75,-0.75 0,-0.414 -0.336,-0.75 -0.75,-0.75 m 11.864,0 h -5.933 c -0.414,0 -0.75,0.336 -0.75,0.75 0,0.414 0.336,0.75 0.75,0.75 h 5.933 c 0.414,0 0.75,-0.336 0.75,-0.75 0,-0.414 -0.336,-0.75 -0.75,-0.75 m 11.863,0 h -5.932 c -0.414,0 -0.75,0.336 -0.75,0.75 0,0.414 0.336,0.75 0.75,0.75 h 5.932 c 0.414,0 0.75,-0.336 0.75,-0.75 0,-0.414 -0.336,-0.75 -0.75,-0.75 m 11.864,0 h -5.932 c -0.415,0 -0.75,0.336 -0.75,0.75 0,0.414 0.335,0.75 0.75,0.75 h 5.932 c 0.414,0 0.75,-0.336 0.75,-0.75 0,-0.414 -0.336,-0.75 -0.75,-0.75 m 11.863,0 h -5.932 c -0.414,0 -0.75,0.336 -0.75,0.75 0,0.414 0.336,0.75 0.75,0.75 h 5.932 c 0.414,0 0.75,-0.336 0.75,-0.75 0,-0.414 -0.336,-0.75 -0.75,-0.75 m 11.864,0 h -5.932 c -0.414,0 -0.75,0.336 -0.75,0.75 0,0.414 0.336,0.75 0.75,0.75 h 5.932 c 0.414,0 0.75,-0.336 0.75,-0.75 0,-0.414 -0.336,-0.75 -0.75,-0.75 m 11.863,0 h -5.932 c -0.414,0 -0.75,0.336 -0.75,0.75 0,0.414 0.336,0.75 0.75,0.75 h 5.932 c 0.415,0 0.75,-0.336 0.75,-0.75 0,-0.414 -0.335,-0.75 -0.75,-0.75 m 11.864,0 h -5.932 c -0.414,0 -0.75,0.336 -0.75,0.75 0,0.414 0.336,0.75 0.75,0.75 h 5.932 c 0.414,0 0.75,-0.336 0.75,-0.75 0,-0.414 -0.336,-0.75 -0.75,-0.75 m 11.864,0 h -5.933 c -0.414,0 -0.75,0.336 -0.75,0.75 0,0.414 0.336,0.75 0.75,0.75 h 5.933 c 0.414,0 0.75,-0.336 0.75,-0.75 0,-0.414 -0.336,-0.75 -0.75,-0.75 m 11.863,0 h -5.932 c -0.414,0 -0.75,0.336 -0.75,0.75 0,0.414 0.336,0.75 0.75,0.75 h 5.932 c 0.414,0 0.75,-0.336 0.75,-0.75 0,-0.414 -0.336,-0.75 -0.75,-0.75 m 11.864,0 h -5.932 c -0.414,0 -0.75,0.336 -0.75,0.75 0,0.414 0.336,0.75 0.75,0.75 h 5.932 c 0.414,0 0.75,-0.336 0.75,-0.75 0,-0.414 -0.336,-0.75 -0.75,-0.75 m 11.863,0 h -5.932 c -0.414,0 -0.75,0.336 -0.75,0.75 0,0.414 0.336,0.75 0.75,0.75 h 5.932 c 0.414,0 0.75,-0.336 0.75,-0.75 0,-0.414 -0.336,-0.75 -0.75,-0.75 m 11.864,0 h -5.932 c -0.414,0 -0.75,0.336 -0.75,0.75 0,0.414 0.336,0.75 0.75,0.75 h 5.932 c 0.414,0 0.75,-0.336 0.75,-0.75 0,-0.414 -0.336,-0.75 -0.75,-0.75 m 11.863,0 h -5.932 c -0.414,0 -0.75,0.336 -0.75,0.75 0,0.414 0.336,0.75 0.75,0.75 h 5.932 c 0.414,0 0.75,-0.336 0.75,-0.75 0,-0.414 -0.336,-0.75 -0.75,-0.75 m 11.864,0 h -5.932 c -0.414,0 -0.75,0.336 -0.75,0.75 0,0.414 0.336,0.75 0.75,0.75 h 5.932 c 0.414,0 0.75,-0.336 0.75,-0.75 0,-0.414 -0.336,-0.75 -0.75,-0.75 m 11.863,0 h -5.931 c -0.414,0 -0.75,0.336 -0.75,0.75 0,0.414 0.336,0.75 0.75,0.75 h 5.931 c 0.415,0 0.75,-0.336 0.75,-0.75 0,-0.414 -0.335,-0.75 -0.75,-0.75 m 11.864,0 h -5.932 c -0.414,0 -0.75,0.336 -0.75,0.75 0,0.414 0.336,0.75 0.75,0.75 h 5.932 c 0.414,0 0.75,-0.336 0.75,-0.75 0,-0.414 -0.336,-0.75 -0.75,-0.75 m 11.864,0 h -5.932 c -0.414,0 -0.75,0.336 -0.75,0.75 0,0.414 0.336,0.75 0.75,0.75 h 5.932 c 0.414,0 0.75,-0.336 0.75,-0.75 0,-0.414 -0.336,-0.75 -0.75,-0.75"
             style="fill:#99c2eb;fill-opacity:1;fill-rule:nonzero;stroke:none"
             id="path128"
             inkscape:connector-curvature="0" /></g><g
           id="g130"
           transform="translate(57.2784,180.358)"><path
             d="m 0,0 h -3 c -0.414,0 -0.75,0.336 -0.75,0.75 0,0.414 0.336,0.75 0.75,0.75 H 0 C 0.414,1.5 0.75,1.164 0.75,0.75 0.75,0.336 0.414,0 0,0"
             style="fill:#99c2eb;fill-opacity:1;fill-rule:nonzero;stroke:none"
             id="path132"
             inkscape:connector-curvature="0" /></g><g
           id="g134"
           transform="translate(124.8433,579.5919)"><path
             d="M 0,0 H -70.565"
             style="fill:#ffffff;fill-opacity:1;fill-rule:nonzero;stroke:none"
             id="path136"
             inkscape:connector-curvature="0" /></g><g
           id="g138"
           transform="translate(124.8433,578.8419)"><path
             d="m 0,0 h -3 c -0.414,0 -0.75,0.336 -0.75,0.75 0,0.414 0.336,0.75 0.75,0.75 H 0 C 0.414,1.5 0.75,1.164 0.75,0.75 0.75,0.336 0.414,0 0,0"
             style="fill:#99c2eb;fill-opacity:1;fill-rule:nonzero;stroke:none"
             id="path140"
             inkscape:connector-curvature="0" /></g><g
           id="g142"
           transform="translate(69.0176,578.8419)"><path
             d="m 0,0 h -5.87 c -0.414,0 -0.75,0.336 -0.75,0.75 0,0.414 0.336,0.75 0.75,0.75 H 0 C 0.414,1.5 0.75,1.164 0.75,0.75 0.75,0.336 0.414,0 0,0 m 11.739,0 h -5.87 c -0.414,0 -0.75,0.336 -0.75,0.75 0,0.414 0.336,0.75 0.75,0.75 h 5.87 c 0.414,0 0.75,-0.336 0.75,-0.75 C 12.489,0.336 12.153,0 11.739,0 m 11.739,0 h -5.87 c -0.414,0 -0.75,0.336 -0.75,0.75 0,0.414 0.336,0.75 0.75,0.75 h 5.87 c 0.414,0 0.75,-0.336 0.75,-0.75 C 24.228,0.336 23.892,0 23.478,0 m 11.739,0 h -5.869 c -0.414,0 -0.75,0.336 -0.75,0.75 0,0.414 0.336,0.75 0.75,0.75 h 5.869 c 0.414,0 0.75,-0.336 0.75,-0.75 C 35.967,0.336 35.631,0 35.217,0 m 11.739,0 h -5.87 c -0.414,0 -0.75,0.336 -0.75,0.75 0,0.414 0.336,0.75 0.75,0.75 h 5.87 c 0.414,0 0.75,-0.336 0.75,-0.75 C 47.706,0.336 47.37,0 46.956,0"
             style="fill:#99c2eb;fill-opacity:1;fill-rule:nonzero;stroke:none"
             id="path144"
             inkscape:connector-curvature="0" /></g><g
           id="g146"
           transform="translate(57.2784,578.8419)"><path
             d="m 0,0 h -3 c -0.414,0 -0.75,0.336 -0.75,0.75 0,0.414 0.336,0.75 0.75,0.75 H 0 C 0.414,1.5 0.75,1.164 0.75,0.75 0.75,0.336 0.414,0 0,0"
             style="fill:#99c2eb;fill-opacity:1;fill-rule:nonzero;stroke:none"
             id="path148"
             inkscape:connector-curvature="0" /></g><g
           id="g150"
           transform="translate(710.3961,84.5787)"><path
             d="M 0,0 H 9.59 V -1.136 H 5.429 V -11.515 H 4.162 v 10.379 l -4.162,0 z"
             style="fill:#000000;fill-opacity:1;fill-rule:nonzero;stroke:none"
             id="path152"
             inkscape:connector-curvature="0" /></g><path
           d="m 722.524,73.064 h -1.218 v 8.241 h 1.218 z m -1.432,10.643 c 0,0.461 0.379,0.822 0.823,0.822 0.461,0 0.823,-0.361 0.823,-0.822 0,-0.445 -0.362,-0.823 -0.823,-0.823 -0.444,0 -0.823,0.378 -0.823,0.823"
           style="fill:#000000;fill-opacity:1;fill-rule:nonzero;stroke:none"
           id="path154"
           inkscape:connector-curvature="0" /><g
           id="g156"
           transform="translate(724.5972,81.3053)"><path
             d="m 0,0 h 1.218 v -0.905 c 0.625,0.708 1.43,1.069 2.418,1.069 1.151,0 2.089,-0.575 2.598,-1.497 0.675,1.004 1.628,1.497 2.829,1.497 1.793,0 3.027,-1.299 3.027,-3.191 v -5.214 h -1.2 v 4.968 c 0,1.463 -0.823,2.368 -2.139,2.368 -0.904,0 -1.661,-0.46 -2.188,-1.349 0.049,-0.247 0.083,-0.493 0.083,-0.773 V -8.241 H 5.444 v 4.968 c 0,1.463 -0.822,2.368 -2.121,2.368 -0.888,0 -1.595,-0.411 -2.105,-1.2 V -8.241 H 0 Z"
             style="fill:#000000;fill-opacity:1;fill-rule:nonzero;stroke:none"
             id="path158"
             inkscape:connector-curvature="0" /></g><g
           id="g160"
           transform="translate(739.5894,77.7847)"><path
             d="M 0,0 H 5.511 C 5.297,1.464 4.162,2.583 2.796,2.583 1.365,2.583 0.23,1.514 0,0 m 3.01,-4.869 c -2.385,0 -4.243,1.859 -4.243,4.277 0,2.368 1.793,4.243 4.062,4.243 2.188,0 3.899,-1.875 3.899,-4.243 V -0.971 H -0.033 C 0.148,-2.599 1.431,-3.8 3.06,-3.8 c 0.855,0 1.711,0.28 2.269,0.757 L 6.086,-3.849 C 5.165,-4.54 4.194,-4.869 3.01,-4.869"
             style="fill:#000000;fill-opacity:1;fill-rule:nonzero;stroke:none"
             id="path162"
             inkscape:connector-curvature="0" /></g><g
           id="g164"
           transform="translate(29.6534,386.2774)"><path
             d="M 0,0 H 9.589 V -1.135 H 5.428 V -11.514 H 4.162 v 10.379 l -4.162,0 z"
             style="fill:#0066cc;fill-opacity:1;fill-rule:nonzero;stroke:none"
             id="path166"
             inkscape:connector-curvature="0" /></g><g
           id="g168"
           transform="translate(39.7076,383.004)"><path
             d="m 0,0 h 1.217 v -1.167 c 0.494,0.855 1.3,1.348 2.303,1.348 0.313,0 0.526,-0.033 0.773,-0.115 v -1.119 c -0.296,0.099 -0.575,0.149 -0.855,0.149 -1.02,0 -1.793,-0.593 -2.221,-1.695 V -8.241 H 0 Z"
             style="fill:#0066cc;fill-opacity:1;fill-rule:nonzero;stroke:none"
             id="path170"
             inkscape:connector-curvature="0" /></g><g
           id="g172"
           transform="translate(47.7872,375.5694)"><path
             d="M 0,0 C 0.987,0 1.793,0.296 2.451,0.954 V 2.5 C 1.776,2.96 1.02,3.158 0.066,3.158 -1.25,3.158 -2.089,2.533 -2.089,1.562 -2.089,0.641 -1.234,0 0,0 m -3.257,1.53 c 0,1.546 1.267,2.516 3.29,2.516 0.872,0 1.711,-0.197 2.418,-0.559 v 1.086 c 0,1.316 -0.757,1.99 -2.188,1.99 -0.806,0 -1.596,-0.214 -2.582,-0.724 L -2.78,6.777 c 1.184,0.576 2.155,0.822 3.158,0.822 2.089,0 3.257,-1.019 3.257,-2.862 V -0.806 H 2.451 V 0 C 1.71,-0.642 0.822,-0.954 -0.214,-0.954 c -1.809,0 -3.043,1.003 -3.043,2.484"
             style="fill:#0066cc;fill-opacity:1;fill-rule:nonzero;stroke:none"
             id="path174"
             inkscape:connector-curvature="0" /></g><g
           id="g176"
           transform="translate(59.7164,376.7535)"><path
             d="m 0,0 0.756,-0.822 c -0.871,-0.839 -2.006,-1.316 -3.191,-1.316 -2.352,0 -4.194,1.875 -4.194,4.277 0,2.384 1.842,4.276 4.194,4.276 1.201,0 2.369,-0.477 3.225,-1.299 L 0.016,4.228 c -0.658,0.69 -1.546,1.069 -2.434,1.069 -1.694,0 -3.01,-1.399 -3.01,-3.158 0,-1.793 1.332,-3.175 3.026,-3.175 0.888,0 1.694,0.345 2.402,1.036"
             style="fill:#0066cc;fill-opacity:1;fill-rule:nonzero;stroke:none"
             id="path178"
             inkscape:connector-curvature="0" /></g><g
           id="g180"
           transform="translate(62.4337,379.4839)"><path
             d="M 0,0 H 5.51 C 5.296,1.464 4.162,2.583 2.796,2.583 1.365,2.583 0.23,1.514 0,0 m 3.01,-4.869 c -2.385,0 -4.244,1.859 -4.244,4.277 0,2.369 1.793,4.244 4.063,4.244 2.188,0 3.899,-1.875 3.899,-4.244 V -0.97 H -0.033 C 0.148,-2.599 1.431,-3.8 3.06,-3.8 c 0.855,0 1.71,0.28 2.27,0.757 L 6.086,-3.849 C 5.165,-4.54 4.194,-4.869 3.01,-4.869"
             style="fill:#0066cc;fill-opacity:1;fill-rule:nonzero;stroke:none"
             id="path182"
             inkscape:connector-curvature="0" /></g><g
           id="g184"
           transform="translate(414.2672,550.8414)"><path
             d="m 0,0 c 1.25,-1.217 2.533,-1.81 3.964,-1.81 1.662,0 2.797,0.79 2.797,1.925 0,1.02 -0.658,1.53 -2.336,1.809 L 2.5,2.237 c -2.105,0.346 -3.141,1.332 -3.141,2.993 0,2.007 1.678,3.307 4.244,3.307 1.645,0 3.339,-0.559 4.638,-1.563 L 7.287,5.658 C 6.037,6.612 4.803,7.073 3.521,7.073 2.023,7.073 1.02,6.382 1.02,5.362 1.02,4.425 1.596,3.98 3.076,3.734 L 4.935,3.438 C 7.369,3.043 8.472,2.04 8.472,0.247 c 0,-2.122 -1.843,-3.537 -4.59,-3.537 -1.842,0 -3.618,0.74 -4.935,2.073 z"
             style="fill:#000000;fill-opacity:1;fill-rule:nonzero;stroke:none"
             id="path186"
             inkscape:connector-curvature="0" /></g><g
           id="g188"
           transform="translate(425.7857,553.7857)"><path
             d="m 0,0 v -3.783 c 0.526,-0.609 1.398,-0.988 2.336,-0.988 1.612,0 2.829,1.234 2.829,2.879 0,1.645 -1.233,2.895 -2.829,2.895 C 1.382,1.003 0.543,0.642 0,0 m -1.645,2.303 h 1.628 V 1.497 c 0.692,0.608 1.579,0.937 2.567,0.937 2.368,0 4.227,-1.892 4.227,-4.309 0,-2.435 -1.859,-4.326 -4.26,-4.326 -0.921,0 -1.81,0.296 -2.517,0.822 v -4.096 h -1.645 z"
             style="fill:#000000;fill-opacity:1;fill-rule:nonzero;stroke:none"
             id="path190"
             inkscape:connector-curvature="0" /></g><g
           id="g192"
           transform="translate(437.2388,548.7852)"><path
             d="m 0,0 c 0.889,0 1.629,0.263 2.221,0.79 v 1.447 c -0.642,0.346 -1.317,0.51 -2.156,0.51 -1.2,0 -1.94,-0.543 -1.94,-1.382 C -1.875,0.559 -1.118,0 0,0 m -3.454,1.332 c 0,1.579 1.283,2.55 3.389,2.55 0.805,0 1.579,-0.165 2.286,-0.461 V 4.31 c 0,1.184 -0.707,1.776 -2.04,1.776 -0.773,0 -1.563,-0.214 -2.599,-0.708 l -0.608,1.234 c 1.25,0.593 2.336,0.856 3.437,0.856 2.172,0 3.422,-1.07 3.422,-2.994 V -1.069 H 2.221 v 0.723 C 1.48,-0.938 0.642,-1.217 -0.378,-1.217 c -1.826,0 -3.076,1.036 -3.076,2.549"
             style="fill:#000000;fill-opacity:1;fill-rule:nonzero;stroke:none"
             id="path194"
             inkscape:connector-curvature="0" /></g><g
           id="g196"
           transform="translate(442.9673,556.0884)"><path
             d="m 0,0 h 1.645 v -0.839 c 0.658,0.658 1.513,1.004 2.516,1.004 1.925,0 3.274,-1.333 3.274,-3.274 V -8.373 H 5.79 v 4.984 c 0,1.316 -0.807,2.122 -2.073,2.122 -0.888,0 -1.612,-0.378 -2.072,-1.085 v -6.021 l -1.645,0 z"
             style="fill:#000000;fill-opacity:1;fill-rule:nonzero;stroke:none"
             id="path198"
             inkscape:connector-curvature="0" /></g><g
           id="g200"
           transform="translate(462.5142,552.5191)"><path
             d="M 0,0 -2.007,5.05 -4.013,0 Z m -2.96,6.711 h 2.023 L 3.768,-4.803 H 1.892 L 0.56,-1.431 H -4.589 L -5.937,-4.803 H -7.73 Z"
             style="fill:#000000;fill-opacity:1;fill-rule:nonzero;stroke:none"
             id="path202"
             inkscape:connector-curvature="0" /></g><g
           id="g204"
           transform="translate(252.2671,434.8755)"><path
             d="m 0,0 c 1.25,-1.217 2.533,-1.81 3.964,-1.81 1.662,0 2.797,0.79 2.797,1.925 0,1.02 -0.658,1.53 -2.336,1.809 L 2.5,2.237 c -2.105,0.346 -3.141,1.332 -3.141,2.993 0,2.007 1.678,3.307 4.244,3.307 1.645,0 3.339,-0.559 4.638,-1.563 L 7.287,5.658 C 6.037,6.612 4.803,7.073 3.521,7.073 2.023,7.073 1.02,6.382 1.02,5.362 1.02,4.425 1.596,3.98 3.076,3.734 L 4.935,3.438 C 7.369,3.043 8.472,2.04 8.472,0.247 c 0,-2.122 -1.843,-3.537 -4.59,-3.537 -1.842,0 -3.618,0.74 -4.935,2.073 z"
             style="fill:#000000;fill-opacity:1;fill-rule:nonzero;stroke:none"
             id="path206"
             inkscape:connector-curvature="0" /></g><g
           id="g208"
           transform="translate(263.7862,437.8199)"><path
             d="m 0,0 v -3.783 c 0.526,-0.609 1.398,-0.988 2.336,-0.988 1.612,0 2.829,1.234 2.829,2.879 0,1.645 -1.233,2.895 -2.829,2.895 C 1.382,1.003 0.543,0.642 0,0 m -1.645,2.303 h 1.629 V 1.497 c 0.69,0.608 1.579,0.937 2.566,0.937 2.368,0 4.227,-1.892 4.227,-4.309 0,-2.435 -1.859,-4.326 -4.26,-4.326 -0.921,0 -1.809,0.296 -2.517,0.822 v -4.096 h -1.645 z"
             style="fill:#000000;fill-opacity:1;fill-rule:nonzero;stroke:none"
             id="path210"
             inkscape:connector-curvature="0" /></g><g
           id="g212"
           transform="translate(275.2388,432.8194)"><path
             d="M 0,0 C 0.888,0 1.628,0.263 2.221,0.79 V 2.237 C 1.579,2.583 0.905,2.747 0.066,2.747 -1.135,2.747 -1.875,2.204 -1.875,1.365 -1.875,0.559 -1.119,0 0,0 m -3.454,1.332 c 0,1.579 1.283,2.55 3.388,2.55 0.806,0 1.579,-0.165 2.287,-0.461 V 4.31 c 0,1.184 -0.708,1.776 -2.04,1.776 -0.773,0 -1.563,-0.214 -2.599,-0.708 l -0.608,1.234 c 1.25,0.593 2.335,0.856 3.437,0.856 2.172,0 3.422,-1.07 3.422,-2.994 V -1.069 H 2.221 v 0.723 C 1.48,-0.938 0.642,-1.217 -0.378,-1.217 c -1.826,0 -3.076,1.036 -3.076,2.549"
             style="fill:#000000;fill-opacity:1;fill-rule:nonzero;stroke:none"
             id="path214"
             inkscape:connector-curvature="0" /></g><g
           id="g216"
           transform="translate(280.9673,440.1226)"><path
             d="m 0,0 h 1.645 v -0.839 c 0.658,0.658 1.513,1.004 2.516,1.004 1.925,0 3.274,-1.333 3.274,-3.274 V -8.373 H 5.79 v 4.984 c 0,1.316 -0.806,2.122 -2.073,2.122 -0.888,0 -1.612,-0.378 -2.072,-1.085 v -6.021 l -1.645,0 z"
             style="fill:#000000;fill-opacity:1;fill-rule:nonzero;stroke:none"
             id="path218"
             inkscape:connector-curvature="0" /></g><g
           id="g220"
           transform="translate(301.3531,435.1055)"><path
             d="m 0,0 c 0,1.135 -0.921,1.892 -2.352,1.892 h -3.339 v -3.784 h 3.339 C -0.921,-1.892 0,-1.151 0,0 M -5.691,6.695 V 3.273 h 3.158 c 1.299,0 2.122,0.659 2.122,1.711 0,1.053 -0.823,1.711 -2.122,1.711 z m 3.256,1.464 c 2.254,0 3.734,-1.201 3.734,-3.043 0,-1.102 -0.608,-1.991 -1.595,-2.484 1.266,-0.493 2.04,-1.464 2.04,-2.714 0,-1.974 -1.563,-3.273 -3.965,-3.273 H -7.418 V 8.159 Z"
             style="fill:#000000;fill-opacity:1;fill-rule:nonzero;stroke:none"
             id="path222"
             inkscape:connector-curvature="0" /></g><g
           id="g224"
           transform="translate(577.1177,205.1461)"><path
             d="m 0,0 c 1.25,-1.217 2.533,-1.81 3.964,-1.81 1.661,0 2.797,0.79 2.797,1.925 0,1.021 -0.658,1.531 -2.336,1.81 L 2.5,2.237 c -2.105,0.346 -3.142,1.332 -3.142,2.994 0,2.007 1.678,3.306 4.245,3.306 1.644,0 3.338,-0.558 4.637,-1.562 L 7.287,5.659 C 6.036,6.612 4.803,7.073 3.52,7.073 2.023,7.073 1.02,6.383 1.02,5.362 1.02,4.425 1.596,3.981 3.076,3.734 L 4.935,3.438 C 7.369,3.043 8.471,2.04 8.471,0.247 c 0,-2.122 -1.842,-3.536 -4.589,-3.536 -1.843,0 -3.619,0.74 -4.935,2.072 z"
             style="fill:#000000;fill-opacity:1;fill-rule:nonzero;stroke:none"
             id="path226"
             inkscape:connector-curvature="0" /></g><g
           id="g228"
           transform="translate(588.6363,208.0904)"><path
             d="m 0,0 v -3.783 c 0.526,-0.609 1.398,-0.987 2.336,-0.987 1.612,0 2.829,1.234 2.829,2.878 0,1.646 -1.233,2.896 -2.829,2.896 C 1.382,1.004 0.543,0.642 0,0 m -1.645,2.303 h 1.628 V 1.497 c 0.692,0.608 1.579,0.938 2.567,0.938 2.368,0 4.227,-1.892 4.227,-4.31 0,-2.435 -1.859,-4.326 -4.26,-4.326 -0.921,0 -1.81,0.296 -2.517,0.822 v -4.096 h -1.645 z"
             style="fill:#000000;fill-opacity:1;fill-rule:nonzero;stroke:none"
             id="path230"
             inkscape:connector-curvature="0" /></g><g
           id="g232"
           transform="translate(600.0894,203.0904)"><path
             d="m 0,0 c 0.889,0 1.629,0.263 2.221,0.789 v 1.448 c -0.642,0.345 -1.317,0.51 -2.156,0.51 -1.2,0 -1.94,-0.543 -1.94,-1.382 C -1.875,0.56 -1.118,0 0,0 m -3.454,1.332 c 0,1.579 1.283,2.55 3.389,2.55 0.805,0 1.579,-0.164 2.286,-0.461 V 4.31 c 0,1.184 -0.707,1.776 -2.04,1.776 -0.773,0 -1.563,-0.214 -2.599,-0.707 l -0.608,1.233 c 1.25,0.592 2.336,0.856 3.437,0.856 2.171,0 3.422,-1.07 3.422,-2.994 V -1.069 H 2.221 v 0.723 C 1.48,-0.937 0.642,-1.218 -0.378,-1.218 c -1.826,0 -3.076,1.037 -3.076,2.55"
             style="fill:#000000;fill-opacity:1;fill-rule:nonzero;stroke:none"
             id="path234"
             inkscape:connector-curvature="0" /></g><g
           id="g236"
           transform="translate(605.8179,210.3931)"><path
             d="m 0,0 h 1.645 v -0.839 c 0.658,0.658 1.513,1.004 2.516,1.004 1.925,0 3.274,-1.332 3.274,-3.273 V -8.372 H 5.79 v 4.984 c 0,1.316 -0.807,2.122 -2.073,2.122 -0.888,0 -1.612,-0.379 -2.072,-1.086 v -6.02 H 0 Z"
             style="fill:#000000;fill-opacity:1;fill-rule:nonzero;stroke:none"
             id="path238"
             inkscape:connector-curvature="0" /></g><g
           id="g240"
           transform="translate(618.7847,213.5357)"><path
             d="m 0,0 h 8.487 v -1.514 h -6.76 v -3.454 h 4.441 v -1.48 H 1.727 v -3.553 h 6.827 v -1.514 H 0 Z"
             style="fill:#000000;fill-opacity:1;fill-rule:nonzero;stroke:none"
             id="path242"
             inkscape:connector-curvature="0" /></g><path
           d="M 126.86,344.588 H 265.348 V 293.4 H 126.86 Z"
           style="fill:#d9e8f7;fill-opacity:1;fill-rule:nonzero;stroke:none"
           id="path244"
           inkscape:connector-curvature="0" /><path
           d="m 127.36,293.901 h 137.488 v 50.188 H 127.36 Z m 138.488,-1 H 126.36 v 52.188 h 139.488 z"
           style="fill:#99c2eb;fill-opacity:1;fill-rule:nonzero;stroke:none"
           id="path246"
           inkscape:connector-curvature="0" /><path
           d="M 289.544,344.588 H 428.032 V 293.4 H 289.544 Z"
           style="fill:#d9e8f7;fill-opacity:1;fill-rule:nonzero;stroke:none"
           id="path248"
           inkscape:connector-curvature="0" /><path
           d="m 290.044,293.901 h 137.488 v 50.188 H 290.044 Z m 138.488,-1 H 289.044 v 52.188 h 139.488 z"
           style="fill:#99c2eb;fill-opacity:1;fill-rule:nonzero;stroke:none"
           id="path250"
           inkscape:connector-curvature="0" /><g
           id="g252"
           transform="translate(170.523,317.439)"><path
             d="m 0,0 c 1.25,-1.217 2.533,-1.81 3.964,-1.81 1.661,0 2.796,0.79 2.796,1.925 0,1.021 -0.657,1.531 -2.336,1.81 L 2.5,2.237 c -2.105,0.346 -3.142,1.332 -3.142,2.994 0,2.007 1.678,3.306 4.244,3.306 1.645,0 3.339,-0.558 4.639,-1.562 L 7.287,5.659 C 6.037,6.612 4.803,7.073 3.52,7.073 2.023,7.073 1.02,6.383 1.02,5.362 1.02,4.425 1.595,3.981 3.076,3.734 L 4.935,3.438 C 7.369,3.043 8.471,2.04 8.471,0.247 c 0,-2.122 -1.842,-3.536 -4.589,-3.536 -1.842,0 -3.619,0.74 -4.935,2.072 z"
             style="fill:#000000;fill-opacity:1;fill-rule:nonzero;stroke:none"
             id="path254"
             inkscape:connector-curvature="0" /></g><g
           id="g256"
           transform="translate(182.0415,320.3834)"><path
             d="m 0,0 v -3.783 c 0.526,-0.609 1.398,-0.987 2.336,-0.987 1.612,0 2.829,1.234 2.829,2.878 0,1.646 -1.233,2.896 -2.829,2.896 C 1.382,1.004 0.543,0.642 0,0 m -1.645,2.303 h 1.629 V 1.497 c 0.691,0.608 1.579,0.938 2.566,0.938 2.368,0 4.227,-1.892 4.227,-4.31 0,-2.435 -1.859,-4.326 -4.26,-4.326 -0.921,0 -1.809,0.296 -2.517,0.822 v -4.096 h -1.645 z"
             style="fill:#000000;fill-opacity:1;fill-rule:nonzero;stroke:none"
             id="path258"
             inkscape:connector-curvature="0" /></g><g
           id="g260"
           transform="translate(193.4942,315.3834)"><path
             d="M 0,0 C 0.888,0 1.628,0.263 2.221,0.789 V 2.237 C 1.579,2.582 0.905,2.747 0.066,2.747 -1.135,2.747 -1.875,2.204 -1.875,1.365 -1.875,0.56 -1.119,0 0,0 m -3.454,1.332 c 0,1.579 1.283,2.55 3.388,2.55 0.806,0 1.579,-0.164 2.287,-0.461 V 4.31 c 0,1.184 -0.708,1.776 -2.04,1.776 -0.773,0 -1.563,-0.214 -2.599,-0.707 l -0.608,1.233 c 1.25,0.592 2.335,0.856 3.437,0.856 2.172,0 3.422,-1.07 3.422,-2.994 V -1.069 H 2.221 v 0.723 C 1.48,-0.937 0.642,-1.218 -0.378,-1.218 c -1.826,0 -3.076,1.037 -3.076,2.55"
             style="fill:#000000;fill-opacity:1;fill-rule:nonzero;stroke:none"
             id="path262"
             inkscape:connector-curvature="0" /></g><g
           id="g264"
           transform="translate(199.2227,322.6861)"><path
             d="m 0,0 h 1.645 v -0.839 c 0.658,0.658 1.513,1.004 2.517,1.004 1.924,0 3.273,-1.332 3.273,-3.273 V -8.372 H 5.79 v 4.984 c 0,1.316 -0.806,2.122 -2.073,2.122 -0.888,0 -1.612,-0.379 -2.072,-1.086 v -6.02 H 0 Z"
             style="fill:#000000;fill-opacity:1;fill-rule:nonzero;stroke:none"
             id="path266"
             inkscape:connector-curvature="0" /></g><g
           id="g268"
           transform="translate(221.2041,317.275)"><path
             d="M 0,0 1.135,-1.151 C 0,-2.385 -1.711,-3.142 -3.471,-3.142 c -3.405,0 -6.037,2.616 -6.037,5.938 0,3.34 2.632,5.938 6.037,5.938 1.809,0 3.553,-0.756 4.638,-1.99 L 0.016,5.56 c -0.871,1.019 -2.155,1.579 -3.487,1.579 -2.434,0 -4.277,-1.875 -4.277,-4.343 0,-2.45 1.859,-4.342 4.327,-4.342 1.332,0 2.582,0.559 3.421,1.546"
             style="fill:#000000;fill-opacity:1;fill-rule:nonzero;stroke:none"
             id="path270"
             inkscape:connector-curvature="0" /></g><g
           id="g272"
           transform="translate(333.1402,317.439)"><path
             d="m 0,0 c 1.25,-1.217 2.533,-1.81 3.964,-1.81 1.662,0 2.797,0.79 2.797,1.925 0,1.021 -0.658,1.531 -2.336,1.81 L 2.5,2.237 c -2.105,0.346 -3.141,1.332 -3.141,2.994 0,2.007 1.678,3.306 4.244,3.306 1.645,0 3.339,-0.558 4.638,-1.562 L 7.287,5.659 C 6.037,6.612 4.803,7.073 3.521,7.073 2.023,7.073 1.02,6.383 1.02,5.362 1.02,4.425 1.596,3.981 3.076,3.734 L 4.935,3.438 C 7.369,3.043 8.472,2.04 8.472,0.247 c 0,-2.122 -1.843,-3.536 -4.59,-3.536 -1.842,0 -3.618,0.74 -4.935,2.072 z"
             style="fill:#000000;fill-opacity:1;fill-rule:nonzero;stroke:none"
             id="path274"
             inkscape:connector-curvature="0" /></g><g
           id="g276"
           transform="translate(344.6592,320.3834)"><path
             d="m 0,0 v -3.783 c 0.526,-0.609 1.398,-0.987 2.336,-0.987 1.612,0 2.829,1.234 2.829,2.878 0,1.646 -1.233,2.896 -2.829,2.896 C 1.382,1.004 0.543,0.642 0,0 m -1.645,2.303 h 1.629 V 1.497 c 0.69,0.608 1.579,0.938 2.566,0.938 2.368,0 4.227,-1.892 4.227,-4.31 0,-2.435 -1.859,-4.326 -4.26,-4.326 -0.921,0 -1.809,0.296 -2.517,0.822 v -4.096 h -1.645 z"
             style="fill:#000000;fill-opacity:1;fill-rule:nonzero;stroke:none"
             id="path278"
             inkscape:connector-curvature="0" /></g><g
           id="g280"
           transform="translate(356.1119,315.3834)"><path
             d="M 0,0 C 0.888,0 1.628,0.263 2.221,0.789 V 2.237 C 1.579,2.582 0.905,2.747 0.066,2.747 -1.135,2.747 -1.875,2.204 -1.875,1.365 -1.875,0.56 -1.119,0 0,0 m -3.454,1.332 c 0,1.579 1.283,2.55 3.388,2.55 0.806,0 1.579,-0.164 2.287,-0.461 V 4.31 c 0,1.184 -0.708,1.776 -2.04,1.776 -0.773,0 -1.563,-0.214 -2.599,-0.707 l -0.608,1.233 c 1.25,0.592 2.335,0.856 3.437,0.856 2.172,0 3.422,-1.07 3.422,-2.994 V -1.069 H 2.221 v 0.723 C 1.48,-0.937 0.642,-1.218 -0.378,-1.218 c -1.826,0 -3.076,1.037 -3.076,2.55"
             style="fill:#000000;fill-opacity:1;fill-rule:nonzero;stroke:none"
             id="path282"
             inkscape:connector-curvature="0" /></g><g
           id="g284"
           transform="translate(361.8404,322.6861)"><path
             d="m 0,0 h 1.645 v -0.839 c 0.658,0.658 1.513,1.004 2.516,1.004 1.925,0 3.274,-1.332 3.274,-3.273 V -8.372 H 5.79 v 4.984 c 0,1.316 -0.806,2.122 -2.073,2.122 -0.888,0 -1.612,-0.379 -2.072,-1.086 v -6.02 H 0 Z"
             style="fill:#000000;fill-opacity:1;fill-rule:nonzero;stroke:none"
             id="path286"
             inkscape:connector-curvature="0" /></g><g
           id="g288"
           transform="translate(376.5347,324.2818)"><path
             d="m 0,0 v -8.422 h 2.369 c 2.401,0 4.26,1.826 4.26,4.194 C 6.629,-1.825 4.77,0 2.369,0 Z m -1.727,1.547 h 4.063 c 3.471,0 6.069,-2.451 6.069,-5.775 0,-3.289 -2.582,-5.74 -6.069,-5.74 h -4.063 z"
             style="fill:#000000;fill-opacity:1;fill-rule:nonzero;stroke:none"
             id="path290"
             inkscape:connector-curvature="0" /></g><g
           id="g292"
           transform="translate(69.0162,34.3092)"><path
             d="m 0,0 h -39.643 c -0.552,0 -1,0.447 -1,1 0,0.553 0.448,1 1,1 H 0 C 0.552,2 1,1.553 1,1 1,0.447 0.552,0 0,0"
             style="fill:#0066cc;fill-opacity:1;fill-rule:nonzero;stroke:none"
             id="path294"
             inkscape:connector-curvature="0" /></g><g
           id="g296"
           transform="translate(66.8277,27.8297)"><path
             d="M 0,0 12.952,7.479 0,14.958 Z"
             style="fill:#0066cc;fill-opacity:1;fill-rule:nonzero;stroke:none"
             id="path298"
             inkscape:connector-curvature="0" /></g><g
           id="g300"
           transform="translate(90.3433,39.9146)"><path
             d="m 0,0 v -3.85 h 3.355 c 1.35,0 2.238,0.774 2.238,1.925 C 5.593,-0.757 4.705,0 3.355,0 Z m -1.727,1.513 h 5.23 c 2.287,0 3.833,-1.382 3.833,-3.405 0,-1.513 -0.921,-2.681 -2.368,-3.158 l 2.566,-4.951 H 5.625 L 3.24,-5.28 H 0 v -4.721 h -1.727 z"
             style="fill:#000000;fill-opacity:1;fill-rule:nonzero;stroke:none"
             id="path302"
             inkscape:connector-curvature="0" /></g><g
           id="g304"
           transform="translate(100.0367,34.7984)"><path
             d="M 0,0 H 4.967 C 4.721,1.283 3.734,2.237 2.517,2.237 1.25,2.237 0.247,1.333 0,0 m 2.747,-5.033 c -2.468,0 -4.392,1.891 -4.392,4.343 0,2.418 1.842,4.309 4.194,4.309 2.303,0 4.047,-1.908 4.047,-4.375 v -0.477 h -6.613 c 0.23,-1.399 1.382,-2.402 2.83,-2.402 0.822,0 1.595,0.28 2.122,0.74 l 1.052,-1.036 c -0.97,-0.756 -1.99,-1.102 -3.24,-1.102"
             style="fill:#000000;fill-opacity:1;fill-rule:nonzero;stroke:none"
             id="path306"
             inkscape:connector-curvature="0" /></g><g
           id="g308"
           transform="translate(112.3116,31.2125)"><path
             d="m 0,0 c 0.937,0 1.76,0.362 2.319,1.004 v 3.8 C 1.776,5.429 0.921,5.79 0,5.79 -1.612,5.79 -2.846,4.557 -2.846,2.912 -2.846,1.267 -1.612,0 0,0 m -4.458,2.896 c 0,2.417 1.859,4.309 4.261,4.309 0.937,0 1.825,-0.296 2.533,-0.822 v 0.69 H 3.964 V -4.704 H 2.319 v 4.178 C 1.612,-1.118 0.74,-1.431 -0.23,-1.431 c -2.369,0 -4.228,1.892 -4.228,4.327"
             style="fill:#000000;fill-opacity:1;fill-rule:nonzero;stroke:none"
             id="path310"
             inkscape:connector-curvature="0" /></g><g
           id="g312"
           transform="translate(119.8336,33.3179)"><path
             d="m 0,0 c 0,-1.315 0.806,-2.138 2.073,-2.138 0.888,0 1.595,0.395 2.056,1.102 V 4.968 H 5.773 V -3.404 H 4.129 v 0.839 C 3.471,-3.224 2.632,-3.569 1.612,-3.569 c -1.924,0 -3.257,1.348 -3.257,3.29 V 4.968 H 0 Z"
             style="fill:#000000;fill-opacity:1;fill-rule:nonzero;stroke:none"
             id="path314"
             inkscape:connector-curvature="0" /></g><g
           id="g316"
           transform="translate(128.8189,34.7984)"><path
             d="M 0,0 H 4.967 C 4.721,1.283 3.734,2.237 2.517,2.237 1.25,2.237 0.247,1.333 0,0 m 2.747,-5.033 c -2.468,0 -4.392,1.891 -4.392,4.343 0,2.418 1.842,4.309 4.194,4.309 2.303,0 4.047,-1.908 4.047,-4.375 v -0.477 h -6.613 c 0.23,-1.399 1.382,-2.402 2.83,-2.402 0.822,0 1.595,0.28 2.122,0.74 l 1.052,-1.036 c -0.97,-0.756 -1.99,-1.102 -3.24,-1.102"
             style="fill:#000000;fill-opacity:1;fill-rule:nonzero;stroke:none"
             id="path318"
             inkscape:connector-curvature="0" /></g><g
           id="g320"
           transform="translate(137.1626,32.0845)"><path
             d="m 0,0 c 0.872,-0.69 1.793,-1.053 2.73,-1.053 1.185,0 2.007,0.51 2.007,1.25 0,0.593 -0.427,0.938 -1.349,1.07 L 1.875,1.48 c -1.661,0.248 -2.5,1.02 -2.5,2.32 0,1.513 1.316,2.533 3.273,2.533 1.234,0 2.319,-0.346 3.372,-1.069 L 5.181,4.178 C 4.26,4.787 3.421,5.05 2.533,5.05 1.53,5.05 0.855,4.59 0.855,3.915 0.855,3.307 1.25,3.011 2.237,2.862 L 3.75,2.648 C 5.412,2.401 6.283,1.612 6.283,0.312 c 0,-1.497 -1.513,-2.631 -3.503,-2.631 -1.448,0 -2.747,0.427 -3.668,1.233 z"
             style="fill:#000000;fill-opacity:1;fill-rule:nonzero;stroke:none"
             id="path322"
             inkscape:connector-curvature="0" /></g><g
           id="g324"
           transform="translate(145.6373,36.9039)"><path
             d="M 0,0 H -1.776 V 1.382 H 0 V 3.521 L 1.628,3.915 V 1.382 H 4.096 V 0 H 1.628 v -4.54 c 0,-0.855 0.346,-1.167 1.234,-1.167 0.461,0 0.79,0.049 1.201,0.197 V -6.892 C 3.619,-7.04 2.994,-7.139 2.5,-7.139 0.872,-7.139 0,-6.365 0,-4.918 Z"
             style="fill:#000000;fill-opacity:1;fill-rule:nonzero;stroke:none"
             id="path326"
             inkscape:connector-curvature="0" /></g><g
           id="g328"
           transform="translate(216.9444,34.3092)"><path
             d="m 0,0 h -39.643 c -0.552,0 -1,0.447 -1,1 0,0.553 0.448,1 1,1 H 0 C 0.552,2 1,1.553 1,1 1,0.447 0.552,0 0,0"
             style="fill:#be0000;fill-opacity:1;fill-rule:nonzero;stroke:none"
             id="path330"
             inkscape:connector-curvature="0" /></g><g
           id="g332"
           transform="translate(214.7559,27.8297)"><path
             d="M 0,0 12.952,7.479 0,14.958 Z"
             style="fill:#be0000;fill-opacity:1;fill-rule:nonzero;stroke:none"
             id="path334"
             inkscape:connector-curvature="0" /></g><g
           id="g336"
           transform="translate(235.5777,39.9146)"><path
             d="m 0,0 v -3.85 h 3.355 c 1.35,0 2.238,0.774 2.238,1.925 C 5.593,-0.757 4.705,0 3.355,0 Z m -1.727,1.513 h 5.23 c 2.287,0 3.833,-1.382 3.833,-3.405 0,-1.513 -0.921,-2.681 -2.368,-3.158 l 2.566,-4.951 H 5.625 L 3.24,-5.28 H 0 v -4.721 h -1.727 z"
             style="fill:#000000;fill-opacity:1;fill-rule:nonzero;stroke:none"
             id="path338"
             inkscape:connector-curvature="0" /></g><g
           id="g340"
           transform="translate(245.2706,34.7984)"><path
             d="M 0,0 H 4.968 C 4.721,1.283 3.734,2.237 2.517,2.237 1.25,2.237 0.247,1.333 0,0 m 2.747,-5.033 c -2.467,0 -4.392,1.891 -4.392,4.343 0,2.418 1.843,4.309 4.195,4.309 2.303,0 4.046,-1.908 4.046,-4.375 v -0.477 h -6.612 c 0.23,-1.399 1.382,-2.402 2.829,-2.402 0.822,0 1.596,0.28 2.122,0.74 L 5.988,-3.931 C 5.017,-4.687 3.998,-5.033 2.747,-5.033"
             style="fill:#000000;fill-opacity:1;fill-rule:nonzero;stroke:none"
             id="path342"
             inkscape:connector-curvature="0" /></g><g
           id="g344"
           transform="translate(253.6148,32.0845)"><path
             d="m 0,0 c 0.872,-0.69 1.793,-1.053 2.73,-1.053 1.185,0 2.007,0.51 2.007,1.25 0,0.593 -0.427,0.938 -1.349,1.07 L 1.875,1.48 c -1.661,0.248 -2.5,1.02 -2.5,2.32 0,1.513 1.316,2.533 3.273,2.533 1.234,0 2.319,-0.346 3.372,-1.069 L 5.181,4.178 C 4.26,4.787 3.421,5.05 2.533,5.05 1.53,5.05 0.855,4.59 0.855,3.915 0.855,3.307 1.25,3.011 2.237,2.862 L 3.75,2.648 C 5.412,2.401 6.283,1.612 6.283,0.312 c 0,-1.497 -1.513,-2.631 -3.503,-2.631 -1.448,0 -2.747,0.427 -3.668,1.233 z"
             style="fill:#000000;fill-opacity:1;fill-rule:nonzero;stroke:none"
             id="path346"
             inkscape:connector-curvature="0" /></g><g
           id="g348"
           transform="translate(262.813,35.983)"><path
             d="m 0,0 v -3.783 c 0.526,-0.609 1.398,-0.988 2.336,-0.988 1.612,0 2.829,1.235 2.829,2.879 0,1.645 -1.233,2.896 -2.829,2.896 C 1.382,1.004 0.543,0.642 0,0 m -1.645,2.303 h 1.629 V 1.497 c 0.69,0.608 1.579,0.938 2.566,0.938 2.368,0 4.227,-1.892 4.227,-4.31 0,-2.435 -1.859,-4.326 -4.26,-4.326 -0.921,0 -1.809,0.296 -2.517,0.822 v -4.096 h -1.645 z"
             style="fill:#000000;fill-opacity:1;fill-rule:nonzero;stroke:none"
             id="path350"
             inkscape:connector-curvature="0" /></g><g
           id="g352"
           transform="translate(277.9014,34.108)"><path
             d="m 0,0 c 0,1.628 -1.217,2.895 -2.73,2.895 -1.53,0 -2.748,-1.267 -2.748,-2.895 0,-1.629 1.201,-2.911 2.748,-2.911 C -1.217,-2.911 0,-1.629 0,0 m -2.73,4.343 c 2.434,0 4.342,-1.908 4.342,-4.343 0,-2.451 -1.908,-4.359 -4.342,-4.359 -2.435,0 -4.359,1.908 -4.359,4.359 0,2.435 1.924,4.343 4.359,4.343"
             style="fill:#000000;fill-opacity:1;fill-rule:nonzero;stroke:none"
             id="path354"
             inkscape:connector-curvature="0" /></g><g
           id="g356"
           transform="translate(281.0806,38.2857)"><path
             d="m 0,0 h 1.645 v -0.839 c 0.658,0.658 1.513,1.004 2.517,1.004 1.924,0 3.273,-1.333 3.273,-3.273 V -8.372 H 5.79 v 4.983 c 0,1.317 -0.806,2.122 -2.073,2.122 -0.888,0 -1.612,-0.378 -2.072,-1.085 v -6.02 H 0 Z"
             style="fill:#000000;fill-opacity:1;fill-rule:nonzero;stroke:none"
             id="path358"
             inkscape:connector-curvature="0" /></g><g
           id="g360"
           transform="translate(290.5098,32.0845)"><path
             d="m 0,0 c 0.872,-0.69 1.793,-1.053 2.73,-1.053 1.185,0 2.007,0.51 2.007,1.25 0,0.593 -0.427,0.938 -1.349,1.07 L 1.875,1.48 c -1.661,0.248 -2.5,1.02 -2.5,2.32 0,1.513 1.316,2.533 3.273,2.533 1.234,0 2.319,-0.346 3.372,-1.069 L 5.181,4.178 C 4.26,4.787 3.421,5.05 2.533,5.05 1.53,5.05 0.855,4.59 0.855,3.915 0.855,3.307 1.25,3.011 2.237,2.862 L 3.75,2.648 C 5.412,2.401 6.283,1.612 6.283,0.312 c 0,-1.497 -1.513,-2.631 -3.503,-2.631 -1.448,0 -2.747,0.427 -3.668,1.233 z"
             style="fill:#000000;fill-opacity:1;fill-rule:nonzero;stroke:none"
             id="path362"
             inkscape:connector-curvature="0" /></g><g
           id="g364"
           transform="translate(299.4122,34.7984)"><path
             d="M 0,0 H 4.967 C 4.721,1.283 3.734,2.237 2.517,2.237 1.25,2.237 0.247,1.333 0,0 m 2.747,-5.033 c -2.468,0 -4.392,1.891 -4.392,4.343 0,2.418 1.842,4.309 4.194,4.309 2.303,0 4.047,-1.908 4.047,-4.375 v -0.477 h -6.613 c 0.23,-1.399 1.382,-2.402 2.83,-2.402 0.822,0 1.595,0.28 2.122,0.74 l 1.052,-1.036 c -0.97,-0.756 -1.99,-1.102 -3.24,-1.102"
             style="fill:#000000;fill-opacity:1;fill-rule:nonzero;stroke:none"
             id="path366"
             inkscape:connector-curvature="0" /></g></g></g></g></svg>