<?xml version="1.0" encoding="UTF-8" standalone="no"?>
<svg
   xmlns:dc="http://purl.org/dc/elements/1.1/"
   xmlns:cc="http://creativecommons.org/ns#"
   xmlns:rdf="http://www.w3.org/1999/02/22-rdf-syntax-ns#"
   xmlns:svg="http://www.w3.org/2000/svg"
   xmlns="http://www.w3.org/2000/svg"
   xmlns:sodipodi="http://sodipodi.sourceforge.net/DTD/sodipodi-0.dtd"
   xmlns:inkscape="http://www.inkscape.org/namespaces/inkscape"
   width="200.74147mm"
   height="135.35345mm"
   viewBox="0 0 200.74147 135.35345"
   version="1.1"
   id="svg2516"
   inkscape:version="1.0.2 (e86c870879, 2021-01-15)"
   sodipodi:docname="nodt.svg">
  <defs
     id="defs2510" />
  <sodipodi:namedview
     id="base"
     pagecolor="#ffffff"
     bordercolor="#666666"
     borderopacity="1.0"
     inkscape:pageopacity="0.0"
     inkscape:pageshadow="2"
     inkscape:zoom="0.35"
     inkscape:cx="376.49684"
     inkscape:cy="544.35749"
     inkscape:document-units="mm"
     inkscape:current-layer="layer1"
     inkscape:document-rotation="0"
     showgrid="false"
     inkscape:window-width="1530"
     inkscape:window-height="1205"
     inkscape:window-x="45"
     inkscape:window-y="72"
     inkscape:window-maximized="0" />
  <metadata
     id="metadata2513">
    <rdf:RDF>
      <cc:Work
         rdf:about="">
        <dc:format>image/svg+xml</dc:format>
        <dc:type
           rdf:resource="http://purl.org/dc/dcmitype/StillImage" />
        <dc:title></dc:title>
      </cc:Work>
    </rdf:RDF>
  </metadata>
  <g
     inkscape:label="Layer 1"
     inkscape:groupmode="layer"
     id="layer1"
     transform="translate(-6.2185433,-4.1387473)">
    <path
       d="M 206.96002,139.4922 H 6.2185433 V 35.525763 H 206.96002 Z"
       style="fill:#f0f0f0;fill-opacity:1;fill-rule:nonzero;stroke:none;stroke-width:0.352778"
       id="path12"
       inkscape:connector-curvature="0"
       inkscape:export-xdpi="96"
       inkscape:export-ydpi="96" />
    <path
       d="m 87.528873,85.542599 h -36.4938 V 72.689493 h 36.4938 z"
       style="fill:#ffffff;fill-opacity:1;fill-rule:nonzero;stroke:none;stroke-width:0.352778"
       id="path14"
       inkscape:connector-curvature="0"
       inkscape:export-xdpi="96"
       inkscape:export-ydpi="96" />
    <path
       d="m 51.299663,85.278015 h 35.96463 V 72.954077 h -35.96463 z m 36.4938,0.529167 H 50.770493 V 72.42491 h 37.02297 z"
       style="fill:#99c2eb;fill-opacity:1;fill-rule:nonzero;stroke:none;stroke-width:0.352778"
       id="path16"
       inkscape:connector-curvature="0"
       inkscape:export-xdpi="96"
       inkscape:export-ydpi="96" />
    <path
       d="M 153.32404,123.85956 H 116.8306 v -12.85311 h 36.49344 z"
       style="fill:#ffffff;fill-opacity:1;fill-rule:nonzero;stroke:none;stroke-width:0.352778"
       id="path18"
       inkscape:connector-curvature="0"
       inkscape:export-xdpi="96"
       inkscape:export-ydpi="96" />
    <path
       d="m 117.09518,123.59497 h 35.96428 v -12.32394 h -35.96428 z m 36.49345,0.52917 h -37.02262 v -13.38227 h 37.02262 z"
       style="fill:#99c2eb;fill-opacity:1;fill-rule:nonzero;stroke:none;stroke-width:0.352778"
       id="path20"
       inkscape:connector-curvature="0"
       inkscape:export-xdpi="96"
       inkscape:export-ydpi="96" />
    <path
       d="M 144.5046,101.17312 H 108.01115 V 88.320018 h 36.49345 z"
       style="fill:#ffffff;fill-opacity:1;fill-rule:nonzero;stroke:none;stroke-width:0.352778"
       id="path22"
       inkscape:connector-curvature="0"
       inkscape:export-xdpi="96"
       inkscape:export-ydpi="96" />
    <path
       d="m 108.27573,100.90854 h 35.96429 V 88.584601 h -35.96429 z m 36.49345,0.52917 H 107.74657 V 88.055435 h 37.02261 z"
       style="fill:#99c2eb;fill-opacity:1;fill-rule:nonzero;stroke:none;stroke-width:0.352778"
       id="path24"
       inkscape:connector-curvature="0"
       inkscape:export-xdpi="96"
       inkscape:export-ydpi="96" />
    <path
       d="m 198.29792,123.85956 h -36.49345 v -12.85311 h 36.49345 z"
       style="fill:#ffffff;fill-opacity:1;fill-rule:nonzero;stroke:none;stroke-width:0.352778"
       id="path26"
       inkscape:connector-curvature="0"
       inkscape:export-xdpi="96"
       inkscape:export-ydpi="96" />
    <path
       d="m 162.06905,123.59497 h 35.96429 v -12.32394 h -35.96429 z m 36.49345,0.52917 h -37.02261 v -13.38227 h 37.02261 z"
       style="fill:#99c2eb;fill-opacity:1;fill-rule:nonzero;stroke:none;stroke-width:0.352778"
       id="path28"
       inkscape:connector-curvature="0"
       inkscape:export-xdpi="96"
       inkscape:export-ydpi="96" />
    <path
       d="M 101.38387,112.51634 H 64.890423 V 99.663235 h 36.493447 z"
       style="fill:#ffffff;fill-opacity:1;fill-rule:nonzero;stroke:none;stroke-width:0.352778"
       id="path30"
       inkscape:connector-curvature="0"
       inkscape:export-xdpi="96"
       inkscape:export-ydpi="96" />
    <path
       d="M 65.154653,112.25176 H 101.11893 V 99.927818 H 65.154653 Z m 36.493797,0.52916 H 64.625843 V 99.398651 h 37.022607 z"
       style="fill:#99c2eb;fill-opacity:1;fill-rule:nonzero;stroke:none;stroke-width:0.352778"
       id="path32"
       inkscape:connector-curvature="0"
       inkscape:export-xdpi="96"
       inkscape:export-ydpi="96" />
    <path
       d="M 162.69629,78.487043 H 126.20284 V 65.633938 h 36.49345 z"
       style="fill:#ffffff;fill-opacity:1;fill-rule:nonzero;stroke:none;stroke-width:0.352778"
       id="path34"
       inkscape:connector-curvature="0"
       inkscape:export-xdpi="96"
       inkscape:export-ydpi="96" />
    <path
       d="m 126.46743,78.22246 h 35.96428 V 65.898521 h -35.96428 z m 36.49345,0.529167 H 125.93826 V 65.369355 h 37.02262 z"
       style="fill:#99c2eb;fill-opacity:1;fill-rule:nonzero;stroke:none;stroke-width:0.352778"
       id="path36"
       inkscape:connector-curvature="0"
       inkscape:export-xdpi="96"
       inkscape:export-ydpi="96" />
    <path
       d="m 50.174653,49.321141 h 36.45464 v -0.352778 h -36.45464 z"
       style="fill:#000000;fill-opacity:1;fill-rule:nonzero;stroke:none;stroke-width:0.352778"
       id="path38"
       inkscape:connector-curvature="0"
       inkscape:export-xdpi="96"
       inkscape:export-ydpi="96" />
    <path
       d="m 86.294753,50.287964 1.97979,-1.143 -1.97979,-1.143353 z"
       style="fill:#000000;fill-opacity:1;fill-rule:nonzero;stroke:none;stroke-width:0.352778"
       id="path42"
       inkscape:connector-curvature="0"
       inkscape:export-xdpi="96"
       inkscape:export-ydpi="96" />
    <path
       d="m 125.22706,49.321141 h 36.455 v -0.352778 h -36.455 z"
       style="fill:#000000;fill-opacity:1;fill-rule:nonzero;stroke:none;stroke-width:0.352778"
       id="path44"
       inkscape:connector-curvature="0"
       inkscape:export-xdpi="96"
       inkscape:export-ydpi="96" />
    <path
       d="m 161.34769,50.287964 1.97979,-1.143 -1.97979,-1.143353 z"
       style="fill:#000000;fill-opacity:1;fill-rule:nonzero;stroke:none;stroke-width:0.352778"
       id="path48"
       inkscape:connector-curvature="0"
       inkscape:export-xdpi="96"
       inkscape:export-ydpi="96" />
    <path
       d="m 181.85706,86.409374 h 0.35278 V 55.98723 h -0.35278 z"
       style="fill:#000000;fill-opacity:1;fill-rule:nonzero;stroke:none;stroke-width:0.352778"
       id="path50"
       inkscape:connector-curvature="0"
       inkscape:export-xdpi="96"
       inkscape:export-ydpi="96" />
    <path
       d="m 180.88999,86.074729 1.14336,1.980141 1.143,-1.980141 z"
       style="fill:#000000;fill-opacity:1;fill-rule:nonzero;stroke:none;stroke-width:0.352778"
       id="path54"
       inkscape:connector-curvature="0"
       inkscape:export-xdpi="96"
       inkscape:export-ydpi="96" />
    <path
       d="m 181.85706,109.2983 h 0.35278 v -8.02887 h -0.35278 z"
       style="fill:#000000;fill-opacity:1;fill-rule:nonzero;stroke:none;stroke-width:0.352778"
       id="path56"
       inkscape:connector-curvature="0"
       inkscape:export-xdpi="96"
       inkscape:export-ydpi="96" />
    <path
       d="m 180.88999,108.96397 1.14336,1.97979 1.143,-1.97979 z"
       style="fill:#000000;fill-opacity:1;fill-rule:nonzero;stroke:none;stroke-width:0.352778"
       id="path60"
       inkscape:connector-curvature="0"
       inkscape:export-xdpi="96"
       inkscape:export-ydpi="96" />
    <path
       d="m 126.08113,109.2983 h 0.35278 v -8.02887 h -0.35278 z"
       style="fill:#000000;fill-opacity:1;fill-rule:nonzero;stroke:none;stroke-width:0.352778"
       id="path62"
       inkscape:connector-curvature="0"
       inkscape:export-xdpi="96"
       inkscape:export-ydpi="96" />
    <path
       d="m 125.11459,108.96397 1.143,1.97979 1.14336,-1.97979 z"
       style="fill:#000000;fill-opacity:1;fill-rule:nonzero;stroke:none;stroke-width:0.352778"
       id="path66"
       inkscape:connector-curvature="0"
       inkscape:export-xdpi="96"
       inkscape:export-ydpi="96" />
    <path
       d="m 31.521883,41.272164 h 0.35277 V 27.124363 h -0.35277 z"
       style="fill:#000000;fill-opacity:1;fill-rule:nonzero;stroke:none;stroke-width:0.352778"
       id="path68"
       inkscape:connector-curvature="0"
       inkscape:export-xdpi="96"
       inkscape:export-ydpi="96" />
    <path
       d="m 30.554813,40.937624 1.14335,1.979789 1.143,-1.979789 z"
       style="fill:#000000;fill-opacity:1;fill-rule:nonzero;stroke:none;stroke-width:0.352778"
       id="path72"
       inkscape:connector-curvature="0"
       inkscape:export-xdpi="96"
       inkscape:export-ydpi="96" />
    <path
       d="M 49.944993,55.800963 H 13.451543 V 42.947858 h 36.49345 z"
       style="fill:#ffffff;fill-opacity:1;fill-rule:nonzero;stroke:none;stroke-width:0.352778"
       id="path74"
       inkscape:connector-curvature="0"
       inkscape:export-xdpi="96"
       inkscape:export-ydpi="96" />
    <path
       d="m 13.715773,55.53638 h 35.96428 V 43.212441 h -35.96428 z m 36.4938,0.529167 H 13.186963 V 42.683275 h 37.02261 z"
       style="fill:#99c2eb;fill-opacity:1;fill-rule:nonzero;stroke:none;stroke-width:0.352778"
       id="path76"
       inkscape:connector-curvature="0"
       inkscape:export-xdpi="96"
       inkscape:export-ydpi="96" />
    <path
       d="M 125.11241,55.800963 H 88.618963 V 42.947858 h 36.493447 z"
       style="fill:#ffffff;fill-opacity:1;fill-rule:nonzero;stroke:none;stroke-width:0.352778"
       id="path78"
       inkscape:connector-curvature="0"
       inkscape:export-xdpi="96"
       inkscape:export-ydpi="96" />
    <path
       d="M 88.883543,55.53638 H 124.84782 V 43.212441 H 88.883543 Z m 36.493447,0.529167 H 88.354373 V 42.683275 h 37.022617 z"
       style="fill:#99c2eb;fill-opacity:1;fill-rule:nonzero;stroke:none;stroke-width:0.352778"
       id="path80"
       inkscape:connector-curvature="0"
       inkscape:export-xdpi="96"
       inkscape:export-ydpi="96" />
    <path
       d="M 200.28018,55.800963 H 163.78673 V 42.947858 h 36.49345 z"
       style="fill:#ffffff;fill-opacity:1;fill-rule:nonzero;stroke:none;stroke-width:0.352778"
       id="path82"
       inkscape:connector-curvature="0"
       inkscape:export-xdpi="96"
       inkscape:export-ydpi="96" />
    <path
       d="m 164.05096,55.53638 h 35.96428 V 43.212441 h -35.96428 z m 36.4938,0.529167 H 163.52214 V 42.683275 h 37.02262 z"
       style="fill:#99c2eb;fill-opacity:1;fill-rule:nonzero;stroke:none;stroke-width:0.352778"
       id="path84"
       inkscape:connector-curvature="0"
       inkscape:export-xdpi="96"
       inkscape:export-ydpi="96" />
    <path
       d="m 120.88331,86.409374 h 0.35277 V 55.98723 h -0.35277 z"
       style="fill:#000000;fill-opacity:1;fill-rule:nonzero;stroke:none;stroke-width:0.352778"
       id="path86"
       inkscape:connector-curvature="0"
       inkscape:export-xdpi="96"
       inkscape:export-ydpi="96" />
    <path
       d="m 119.91627,86.074729 1.14336,1.980141 1.14335,-1.980141 z"
       style="fill:#000000;fill-opacity:1;fill-rule:nonzero;stroke:none;stroke-width:0.352778"
       id="path90"
       inkscape:connector-curvature="0"
       inkscape:export-xdpi="96"
       inkscape:export-ydpi="96" />
    <path
       d="m 92.182723,97.976957 h 0.35278 v -41.99008 h -0.35278 z"
       style="fill:#000000;fill-opacity:1;fill-rule:nonzero;stroke:none;stroke-width:0.352778"
       id="path92"
       inkscape:connector-curvature="0"
       inkscape:export-xdpi="96"
       inkscape:export-ydpi="96" />
    <path
       d="m 91.215723,97.642347 1.143,1.980142 1.14335,-1.980142 z"
       style="fill:#000000;fill-opacity:1;fill-rule:nonzero;stroke:none;stroke-width:0.352778"
       id="path96"
       inkscape:connector-curvature="0"
       inkscape:export-xdpi="96"
       inkscape:export-ydpi="96" />
    <path
       d="m 122.19105,61.504321 h -2.26271 v -1.412169 h 2.26271 z"
       style="fill:#e6e6e6;fill-opacity:1;fill-rule:nonzero;stroke:none;stroke-width:0.352778"
       id="path98"
       inkscape:connector-curvature="0"
       inkscape:export-xdpi="96"
       inkscape:export-ydpi="96" />
    <path
       d="m 93.467543,61.46481 h -2.26272 v -1.412169 h 2.26272 z"
       style="fill:#e6e6e6;fill-opacity:1;fill-rule:nonzero;stroke:none;stroke-width:0.352778"
       id="path100"
       inkscape:connector-curvature="0"
       inkscape:export-xdpi="96"
       inkscape:export-ydpi="96" />
    <path
       d="m 69.443763,70.943878 h -0.35278 V 60.631126 H 176.13504 v -4.830233 h 0.35278 v 5.183011 H 69.443763 Z"
       style="fill:#000000;fill-opacity:1;fill-rule:nonzero;stroke:none;stroke-width:0.352778"
       id="path104"
       inkscape:connector-curvature="0"
       inkscape:export-xdpi="96"
       inkscape:export-ydpi="96" />
    <path
       d="m 68.124093,70.609198 1.14335,1.980142 1.14335,-1.980142 z"
       style="fill:#000000;fill-opacity:1;fill-rule:nonzero;stroke:none;stroke-width:0.352778"
       id="path108"
       inkscape:connector-curvature="0"
       inkscape:export-xdpi="96"
       inkscape:export-ydpi="96" />
    <path
       d="m 122.19105,72.662682 h -2.26271 v -1.345141 h 2.26271 z"
       style="fill:#e6e6e6;fill-opacity:1;fill-rule:nonzero;stroke:none;stroke-width:0.352778"
       id="path110"
       inkscape:connector-curvature="0"
       inkscape:export-xdpi="96"
       inkscape:export-ydpi="96" />
    <path
       d="m 97.631163,97.970818 h -0.35278 V 71.892075 h 28.881567 v 0.352777 H 97.631163 Z"
       style="fill:#000000;fill-opacity:1;fill-rule:nonzero;stroke:none;stroke-width:0.352778"
       id="path114"
       inkscape:connector-curvature="0"
       inkscape:export-xdpi="96"
       inkscape:export-ydpi="96" />
    <path
       d="m 96.311523,97.636315 1.143,1.979788 1.14336,-1.979788 z"
       style="fill:#000000;fill-opacity:1;fill-rule:nonzero;stroke:none;stroke-width:0.352778"
       id="path118"
       inkscape:connector-curvature="0"
       inkscape:export-xdpi="96"
       inkscape:export-ydpi="96" />
    <path
       d="m 176.48786,86.699181 h -0.35278 V 72.244817 h -13.0429 v -0.352778 h 13.39568 z"
       style="fill:#000000;fill-opacity:1;fill-rule:nonzero;stroke:none;stroke-width:0.352778"
       id="path122"
       inkscape:connector-curvature="0"
       inkscape:export-xdpi="96"
       inkscape:export-ydpi="96" />
    <path
       d="m 175.16804,86.364641 1.14336,1.980142 1.14335,-1.980142 z"
       style="fill:#000000;fill-opacity:1;fill-rule:nonzero;stroke:none;stroke-width:0.352778"
       id="path126"
       inkscape:connector-curvature="0"
       inkscape:export-xdpi="96"
       inkscape:export-ydpi="96" />
    <path
       d="m 14.373213,130.26343 1.67393,2.32974 -0.009,-2.32974 h 0.51823 v 3.21027 h -0.49072 l -1.71979,-2.39395 0.009,2.39395 h -0.51823 v -3.21027 z"
       style="fill:#000000;fill-opacity:1;fill-rule:nonzero;stroke:none;stroke-width:0.352778"
       id="path130"
       inkscape:connector-curvature="0"
       inkscape:export-xdpi="96"
       inkscape:export-ydpi="96" />
    <path
       d="m 18.954663,132.33169 c 0,-0.43568 -0.27058,-0.74753 -0.64205,-0.74753 -0.37607,0 -0.64206,0.31185 -0.64206,0.74753 0,0.4311 0.26599,0.73836 0.64206,0.73836 0.37606,0 0.64205,-0.31185 0.64205,-0.73836 m -0.64205,-1.19239 c 0.6604,0 1.1557,0.51365 1.1557,1.1878 0,0.67875 -0.49989,1.19239 -1.1557,1.19239 -0.65582,0 -1.1557,-0.51823 -1.1557,-1.19239 0,-0.67415 0.49988,-1.1878 1.1557,-1.1878"
       style="fill:#000000;fill-opacity:1;fill-rule:nonzero;stroke:none;stroke-width:0.352778"
       id="path142"
       inkscape:connector-curvature="0"
       inkscape:export-xdpi="96"
       inkscape:export-ydpi="96" />
    <path
       d="m 21.651153,130.74024 v 2.25637 h 0.63747 c 0.57785,0 1.02729,-0.48578 1.02729,-1.1236 0,-0.63747 -0.44944,-1.13277 -1.02729,-1.13277 z m -0.55033,-0.47696 h 1.1744 c 0.92639,0 1.60972,0.70168 1.60972,1.60973 0,0.90346 -0.68333,1.6009 -1.60972,1.6009 h -1.1744 z"
       style="fill:#000000;fill-opacity:1;fill-rule:nonzero;stroke:none;stroke-width:0.352778"
       id="path146"
       inkscape:connector-curvature="0"
       inkscape:export-xdpi="96"
       inkscape:export-ydpi="96" />
    <path
       d="m 24.957743,133.47381 h -0.51823 v -2.29764 h 0.51823 z m -0.58244,-3.08222 c 0,-0.17427 0.14676,-0.32103 0.32103,-0.32103 0.17886,0 0.32562,0.14676 0.32562,0.32103 0,0.17886 -0.14217,0.31644 -0.32562,0.31644 -0.17921,0 -0.32103,-0.13758 -0.32103,-0.31644"
       style="fill:#000000;fill-opacity:1;fill-rule:nonzero;stroke:none;stroke-width:0.352778"
       id="path148"
       inkscape:connector-curvature="0"
       inkscape:export-xdpi="96"
       inkscape:export-ydpi="96" />
    <path
       d="m 25.631973,132.85913 c 0.2981,0.18803 0.50447,0.26141 0.73836,0.26141 0.27517,0 0.4632,-0.12383 0.4632,-0.30727 0,-0.14217 -0.0963,-0.22014 -0.31644,-0.26141 l -0.40817,-0.0688 c -0.44485,-0.0825 -0.66498,-0.28893 -0.66498,-0.63289 0,-0.43109 0.35313,-0.71084 0.8897,-0.71084 0.32103,0 0.60996,0.0871 0.90347,0.27516 l -0.24307,0.33938 c -0.23847,-0.15135 -0.45861,-0.22014 -0.6925,-0.22014 -0.23848,0 -0.3944,0.1009 -0.3944,0.27058 0,0.14676 0.0825,0.21096 0.32561,0.25224 l 0.40358,0.0734 c 0.45861,0.0871 0.67874,0.29809 0.67874,0.64205 0,0.42193 -0.40358,0.74754 -0.93557,0.74754 -0.39899,0 -0.74753,-0.11007 -0.9906,-0.31186 z"
       style="fill:#000000;fill-opacity:1;fill-rule:nonzero;stroke:none;stroke-width:0.352778"
       id="path152"
       inkscape:connector-curvature="0"
       inkscape:export-xdpi="96"
       inkscape:export-ydpi="96" />
    <path
       d="m 28.030433,131.58878 h -0.46319 v -0.41275 h 0.46319 v -0.63289 l 0.51823,-0.11006 v 0.74295 h 0.64206 v 0.41275 h -0.64206 v 1.16487 c 0,0.22472 0.0871,0.31185 0.32103,0.31185 0.10548,0 0.17427,-0.0137 0.31186,-0.055 v 0.43568 c -0.133,0.0413 -0.30727,0.0642 -0.44486,0.0642 -0.46319,0 -0.70626,-0.22014 -0.70626,-0.64206 z"
       style="fill:#000000;fill-opacity:1;fill-rule:nonzero;stroke:none;stroke-width:0.352778"
       id="path156"
       inkscape:connector-curvature="0"
       inkscape:export-xdpi="96"
       inkscape:export-ydpi="96" />
    <path
       d="m 29.644643,131.17603 h 0.51823 v 0.49988 c 0.12382,-0.35313 0.34396,-0.54116 0.63288,-0.54116 0.0871,0.005 0.14676,0.0138 0.22472,0.0459 v 0.45403 c -0.0826,-0.0367 -0.18803,-0.055 -0.28434,-0.055 -0.24765,0 -0.45861,0.14217 -0.57326,0.38065 v 1.51342 h -0.51823 z"
       style="fill:#000000;fill-opacity:1;fill-rule:nonzero;stroke:none;stroke-width:0.352778"
       id="path160"
       inkscape:connector-curvature="0"
       inkscape:export-xdpi="96"
       inkscape:export-ydpi="96" />
    <path
       d="m 31.964963,133.47381 h -0.51823 v -2.29764 h 0.51823 z m -0.58243,-3.08222 c 0,-0.17427 0.14675,-0.32103 0.32138,-0.32103 0.1785,0 0.32526,0.14676 0.32526,0.32103 0,0.17886 -0.14182,0.31644 -0.32526,0.31644 -0.17921,0 -0.32138,-0.13758 -0.32138,-0.31644"
       style="fill:#000000;fill-opacity:1;fill-rule:nonzero;stroke:none;stroke-width:0.352778"
       id="path162"
       inkscape:connector-curvature="0"
       inkscape:export-xdpi="96"
       inkscape:export-ydpi="96" />
    <path
       d="m 33.120733,131.85026 v 0.95849 c 0.133,0.16052 0.3302,0.25224 0.55034,0.25224 0.3944,0 0.68368,-0.31186 0.68368,-0.73378 0,-0.41734 -0.29351,-0.73378 -0.68368,-0.73378 -0.22931,0 -0.41275,0.0871 -0.55034,0.25683 m 0.66958,1.64641 c -0.27058,0 -0.51365,-0.11465 -0.67875,-0.32103 v 0.2981 h -0.50906 v -3.27907 l 0.51823,-0.0871 v 1.37584 c 0.16052,-0.20179 0.41734,-0.32562 0.70627,-0.32562 0.58243,0 1.0414,0.51823 1.0414,1.16946 0,0.65581 -0.47273,1.16946 -1.07809,1.16946"
       style="fill:#000000;fill-opacity:1;fill-rule:nonzero;stroke:none;stroke-width:0.352778"
       id="path166"
       inkscape:connector-curvature="0"
       inkscape:export-xdpi="96"
       inkscape:export-ydpi="96" />
    <path
       d="m 35.909023,132.54272 c 0,0.33479 0.1972,0.55034 0.50447,0.55034 0.21096,0 0.38065,-0.0963 0.50447,-0.28434 v -1.63266 h 0.51859 v 2.29764 h -0.51859 v -0.38064 c -0.17427,0.27058 -0.42192,0.41733 -0.73377,0.41733 -0.46779,0 -0.7934,-0.33478 -0.7934,-0.82091 v -1.51342 h 0.51823 z"
       style="fill:#000000;fill-opacity:1;fill-rule:nonzero;stroke:none;stroke-width:0.352778"
       id="path170"
       inkscape:connector-curvature="0"
       inkscape:export-xdpi="96"
       inkscape:export-ydpi="96" />
    <path
       d="m 38.358143,131.58878 h -0.46319 v -0.41275 h 0.46319 v -0.63289 l 0.51823,-0.11006 v 0.74295 h 0.64206 v 0.41275 h -0.64206 v 1.16487 c 0,0.22472 0.0871,0.31185 0.32103,0.31185 0.10548,0 0.17427,-0.0137 0.31186,-0.055 v 0.43568 c -0.133,0.0413 -0.30727,0.0642 -0.44485,0.0642 -0.4632,0 -0.70627,-0.22014 -0.70627,-0.64206 z"
       style="fill:#000000;fill-opacity:1;fill-rule:nonzero;stroke:none;stroke-width:0.352778"
       id="path174"
       inkscape:connector-curvature="0"
       inkscape:export-xdpi="96"
       inkscape:export-ydpi="96" />
    <path
       d="m 40.353033,132.13445 h 1.19698 c -0.0596,-0.33937 -0.29351,-0.57326 -0.60078,-0.57326 -0.30727,0 -0.53658,0.22472 -0.5962,0.57326 m 0.65123,1.38501 c -0.65581,0 -1.16946,-0.52282 -1.16946,-1.19239 0,-0.67416 0.48154,-1.1878 1.11901,-1.1878 0.6283,0 1.08691,0.49988 1.08691,1.18321 v 0.12841 h -1.69686 c 0.0504,0.36231 0.33479,0.6283 0.68792,0.6283 0.21554,0 0.41733,-0.0776 0.54574,-0.21555 l 0.33938,0.31645 c -0.27976,0.23389 -0.55492,0.33937 -0.91264,0.33937"
       style="fill:#000000;fill-opacity:1;fill-rule:nonzero;stroke:none;stroke-width:0.352778"
       id="path178"
       inkscape:connector-curvature="0"
       inkscape:export-xdpi="96"
       inkscape:export-ydpi="96" />
    <path
       d="m 43.673243,133.06102 c 0.22013,0 0.40816,-0.0871 0.54574,-0.25223 v -0.96767 c -0.13299,-0.15593 -0.3302,-0.24765 -0.54574,-0.24765 -0.39441,0 -0.68334,0.31185 -0.68334,0.73378 0,0.41733 0.29352,0.73377 0.68334,0.73377 m 0.55068,0.10548 c -0.16087,0.20638 -0.41769,0.3302 -0.70661,0.3302 -0.58244,0 -1.04105,-0.51823 -1.04105,-1.16945 0,-0.65582 0.47237,-1.16981 1.07315,-1.16981 0.26599,0 0.49989,0.11041 0.66957,0.30303 v -1.26577 l 0.51859,-0.0875 v 3.36655 h -0.51365 z"
       style="fill:#000000;fill-opacity:1;fill-rule:nonzero;stroke:none;stroke-width:0.352778"
       id="path182"
       inkscape:connector-curvature="0"
       inkscape:export-xdpi="96"
       inkscape:export-ydpi="96" />
    <path
       d="m 46.204703,130.26343 h 2.69663 v 0.47695 h -1.06856 v 2.73332 h -0.55034 v -2.73332 h -1.07773 z"
       style="fill:#000000;fill-opacity:1;fill-rule:nonzero;stroke:none;stroke-width:0.352778"
       id="path186"
       inkscape:connector-curvature="0"
       inkscape:export-xdpi="96"
       inkscape:export-ydpi="96" />
    <path
       d="m 49.162813,131.17603 h 0.51823 v 0.49988 c 0.12383,-0.35313 0.34396,-0.54116 0.63288,-0.54116 0.0871,0.005 0.14676,0.0138 0.22472,0.0459 v 0.45403 c -0.0825,-0.0367 -0.18803,-0.055 -0.28434,-0.055 -0.24765,0 -0.45861,0.14217 -0.57326,0.38065 v 1.51342 h -0.51823 z"
       style="fill:#000000;fill-opacity:1;fill-rule:nonzero;stroke:none;stroke-width:0.352778"
       id="path190"
       inkscape:connector-curvature="0"
       inkscape:export-xdpi="96"
       inkscape:export-ydpi="96" />
    <path
       d="m 51.726313,133.1482 c 0.20637,0 0.38523,-0.0596 0.54116,-0.18804 v -0.37606 c -0.1651,-0.078 -0.3302,-0.11006 -0.53199,-0.11006 -0.29351,0 -0.47696,0.12841 -0.47696,0.3302 0,0.21096 0.18345,0.34396 0.46779,0.34396 m -0.95392,-0.33479 c 0,-0.41275 0.33479,-0.67416 0.87595,-0.67416 0.21555,0 0.41275,0.0459 0.61913,0.14182 v -0.25189 c 0,-0.30268 -0.17428,-0.45861 -0.52741,-0.45861 -0.19261,0 -0.40357,0.055 -0.66957,0.17886 l -0.18344,-0.37606 c 0.34396,-0.16051 0.64664,-0.23389 0.95391,-0.23389 0.59619,0 0.94015,0.30268 0.94015,0.83467 v 1.49966 h -0.51364 v -0.23389 c -0.20638,0.18803 -0.42193,0.27058 -0.68333,0.27058 -0.48155,0 -0.81175,-0.28434 -0.81175,-0.69709"
       style="fill:#000000;fill-opacity:1;fill-rule:nonzero;stroke:none;stroke-width:0.352778"
       id="path194"
       inkscape:connector-curvature="0"
       inkscape:export-xdpi="96"
       inkscape:export-ydpi="96" />
    <path
       d="m 55.051343,132.80868 0.31186,0.31186 c -0.21555,0.24765 -0.54575,0.39899 -0.89888,0.39899 -0.65123,0 -1.16064,-0.52282 -1.16064,-1.19239 0,-0.66499 0.50483,-1.18322 1.16064,-1.18322 0.35772,0 0.68792,0.13759 0.91722,0.38524 l -0.32103,0.33478 c -0.16051,-0.17886 -0.35771,-0.27058 -0.57785,-0.27058 -0.37182,0 -0.6604,0.32103 -0.6604,0.73378 0,0.41734 0.28858,0.73378 0.67416,0.73378 0.22014,0 0.41734,-0.0871 0.55492,-0.25224"
       style="fill:#000000;fill-opacity:1;fill-rule:nonzero;stroke:none;stroke-width:0.352778"
       id="path198"
       inkscape:connector-curvature="0"
       inkscape:export-xdpi="96"
       inkscape:export-ydpi="96" />
    <path
       d="m 56.326033,133.47381 h -0.51823 v -2.29764 h 0.51823 z m -0.58208,-3.08222 c 0,-0.17427 0.14676,-0.32103 0.32103,-0.32103 0.17886,0 0.32561,0.14676 0.32561,0.32103 0,0.17886 -0.14217,0.31644 -0.32561,0.31644 -0.17921,0 -0.32103,-0.13758 -0.32103,-0.31644"
       style="fill:#000000;fill-opacity:1;fill-rule:nonzero;stroke:none;stroke-width:0.352778"
       id="path200"
       inkscape:connector-curvature="0"
       inkscape:export-xdpi="96"
       inkscape:export-ydpi="96" />
    <path
       d="m 56.963713,131.17603 h 0.51823 v 0.37606 c 0.17428,-0.27058 0.42193,-0.41275 0.7292,-0.41275 0.46778,0 0.79339,0.33937 0.79339,0.82091 v 1.51342 h -0.51823 v -1.36666 c 0,-0.33479 -0.1972,-0.55034 -0.50447,-0.55034 -0.20637,0 -0.37606,0.0963 -0.49989,0.27517 v 1.64183 h -0.51823 z"
       style="fill:#000000;fill-opacity:1;fill-rule:nonzero;stroke:none;stroke-width:0.352778"
       id="path204"
       inkscape:connector-curvature="0"
       inkscape:export-xdpi="96"
       inkscape:export-ydpi="96" />
    <path
       d="m 60.724403,133.05637 c 0.22013,0 0.40816,-0.0871 0.54574,-0.25224 v -0.96308 c -0.13299,-0.15593 -0.3302,-0.24765 -0.54574,-0.24765 -0.39441,0 -0.68333,0.30727 -0.68333,0.72919 0,0.41734 0.29351,0.73378 0.68333,0.73378 m -1.19733,-0.73378 c 0,-0.65581 0.47272,-1.16487 1.0735,-1.16487 0.266,0 0.50447,0.11006 0.67416,0.31185 v -0.29351 h 0.51364 v 2.37561 c 0,0.59161 -0.38523,0.91722 -1.08232,0.91722 -0.3302,0 -0.65123,-0.078 -0.92216,-0.22013 l 0.18344,-0.38524 c 0.26635,0.133 0.48649,0.19721 0.71579,0.19721 0.38523,0 0.58702,-0.17428 0.58702,-0.50906 v -0.38982 c -0.16051,0.20179 -0.41733,0.32561 -0.70167,0.32561 -0.58244,0 -1.0414,-0.51823 -1.0414,-1.16487"
       style="fill:#000000;fill-opacity:1;fill-rule:nonzero;stroke:none;stroke-width:0.352778"
       id="path208"
       inkscape:connector-curvature="0"
       inkscape:export-xdpi="96"
       inkscape:export-ydpi="96" />
    <path
       d="m 22.773733,49.695403 c 0.41275,0.339372 0.71084,0.467783 1.07773,0.467783 0.42651,0 0.72002,-0.215547 0.72002,-0.509058 0,-0.261408 -0.15592,-0.380647 -0.58243,-0.458611 l -0.59161,-0.100894 c -0.55492,-0.100895 -0.8255,-0.376414 -0.8255,-0.816681 0,-0.577497 0.4632,-0.963083 1.18322,-0.963083 0.48154,0 0.9218,0.146755 1.28869,0.417689 l -0.27975,0.412397 c -0.32103,-0.247297 -0.66957,-0.371122 -1.02729,-0.371122 -0.38523,0 -0.63747,0.192616 -0.63747,0.454025 0,0.229305 0.14217,0.348544 0.4953,0.403577 l 0.56868,0.100895 c 0.64664,0.110066 0.94932,0.394405 0.94932,0.880533 0,0.587022 -0.52281,1.004358 -1.28869,1.004358 -0.50448,0 -0.94016,-0.174272 -1.34832,-0.51823 z"
       style="fill:#000000;fill-opacity:1;fill-rule:nonzero;stroke:none;stroke-width:0.352778"
       id="path212"
       inkscape:connector-curvature="0"
       inkscape:export-xdpi="96"
       inkscape:export-ydpi="96" />
    <path
       d="m 26.066383,49.23203 h 1.19697 c -0.0596,-0.339373 -0.29351,-0.573264 -0.60078,-0.573264 -0.30727,0 -0.53657,0.224719 -0.59619,0.573264 m 0.65123,1.385005 c -0.65582,0 -1.16946,-0.522817 -1.16946,-1.192389 0,-0.674158 0.48154,-1.187803 1.11901,-1.187803 0.6283,0 1.08691,0.499887 1.08691,1.183217 v 0.128411 h -1.69686 c 0.0504,0.362303 0.33478,0.628297 0.68791,0.628297 0.21555,0 0.41734,-0.07761 0.54575,-0.215547 l 0.33937,0.316442 c -0.27975,0.233891 -0.55492,0.339372 -0.91263,0.339372"
       style="fill:#000000;fill-opacity:1;fill-rule:nonzero;stroke:none;stroke-width:0.352778"
       id="path216"
       inkscape:connector-curvature="0"
       inkscape:export-xdpi="96"
       inkscape:export-ydpi="96" />
    <path
       d="m 28.281583,48.273603 h 0.51823 v 0.499886 c 0.12382,-0.353131 0.34396,-0.541161 0.63288,-0.541161 0.0871,0.0046 0.14676,0.01376 0.22472,0.04586 v 0.454025 c -0.0825,-0.03669 -0.18803,-0.05503 -0.28434,-0.05503 -0.24765,0 -0.45861,0.142169 -0.57326,0.380647 v 1.513416 h -0.51823 z"
       style="fill:#000000;fill-opacity:1;fill-rule:nonzero;stroke:none;stroke-width:0.352778"
       id="path220"
       inkscape:connector-curvature="0"
       inkscape:export-xdpi="96"
       inkscape:export-ydpi="96" />
    <path
       d="m 29.881993,48.273603 h 0.56409 l 0.63747,1.678517 0.63747,-1.678517 h 0.54575 l -0.94474,2.297641 h -0.49989 z"
       style="fill:#000000;fill-opacity:1;fill-rule:nonzero;stroke:none;stroke-width:0.352778"
       id="path224"
       inkscape:connector-curvature="0"
       inkscape:export-xdpi="96"
       inkscape:export-ydpi="96" />
    <path
       d="m 33.156293,50.571386 h -0.51823 v -2.297642 h 0.51823 z m -0.58243,-3.08222 c 0,-0.174272 0.14675,-0.321028 0.32138,-0.321028 0.1785,0 0.32526,0.146756 0.32526,0.321028 0,0.178859 -0.14182,0.316442 -0.32526,0.316442 -0.17921,0 -0.32138,-0.137583 -0.32138,-0.316442"
       style="fill:#000000;fill-opacity:1;fill-rule:nonzero;stroke:none;stroke-width:0.352778"
       id="path226"
       inkscape:connector-curvature="0"
       inkscape:export-xdpi="96"
       inkscape:export-ydpi="96" />
    <path
       d="m 35.435663,49.906223 0.31186,0.311856 c -0.21555,0.24765 -0.54575,0.398991 -0.89888,0.398991 -0.65123,0 -1.16029,-0.522816 -1.16029,-1.192389 0,-0.664986 0.50448,-1.183216 1.16029,-1.183216 0.35772,0 0.68792,0.137583 0.91758,0.385233 l -0.32139,0.334786 c -0.16051,-0.178858 -0.35771,-0.27058 -0.57785,-0.27058 -0.37147,0 -0.6604,0.321027 -0.6604,0.733777 0,0.417337 0.28893,0.733778 0.67416,0.733778 0.22014,0 0.41734,-0.08714 0.55492,-0.252236"
       style="fill:#000000;fill-opacity:1;fill-rule:nonzero;stroke:none;stroke-width:0.352778"
       id="path230"
       inkscape:connector-curvature="0"
       inkscape:export-xdpi="96"
       inkscape:export-ydpi="96" />
    <path
       d="m 36.536363,49.23203 h 1.19698 c -0.0596,-0.339373 -0.29351,-0.573264 -0.60078,-0.573264 -0.30727,0 -0.53658,0.224719 -0.5962,0.573264 m 0.65123,1.385005 c -0.65581,0 -1.16946,-0.522817 -1.16946,-1.192389 0,-0.674158 0.48155,-1.187803 1.11902,-1.187803 0.62829,0 1.0869,0.499887 1.0869,1.183217 v 0.128411 h -1.69686 c 0.0505,0.362303 0.33479,0.628297 0.68792,0.628297 0.21555,0 0.41734,-0.07761 0.54575,-0.215547 l 0.33937,0.316442 c -0.27975,0.233891 -0.55492,0.339372 -0.91264,0.339372"
       style="fill:#000000;fill-opacity:1;fill-rule:nonzero;stroke:none;stroke-width:0.352778"
       id="path234"
       inkscape:connector-curvature="0"
       inkscape:export-xdpi="96"
       inkscape:export-ydpi="96" />
    <path
       d="m 40.700623,50.571315 h -0.49988 v -2.687461 l -0.56868,0.247297 v -0.4445 l 0.75212,-0.325614 h 0.31644 z"
       style="fill:#000000;fill-opacity:1;fill-rule:nonzero;stroke:none;stroke-width:0.352778"
       id="path238"
       inkscape:connector-curvature="0"
       inkscape:export-xdpi="96"
       inkscape:export-ydpi="96" />
    <path
       d="m 28.359433,24.790103 c -0.8255,0 -1.34831,-0.54575 -1.34831,-1.42169 v -1.83445 h 0.55033 v 1.83445 c 0,0.56409 0.31644,0.92639 0.80257,0.92639 0.48613,0 0.79798,-0.3623 0.79798,-0.92639 v -1.83445 h 0.55034 v 1.83445 c 0,0.86677 -0.52741,1.42169 -1.35291,1.42169"
       style="fill:#000000;fill-opacity:1;fill-rule:nonzero;stroke:none;stroke-width:0.352778"
       id="path242"
       inkscape:connector-curvature="0"
       inkscape:export-xdpi="96"
       inkscape:export-ydpi="96" />
    <path
       d="m 30.413913,24.129703 c 0.29809,0.18803 0.50447,0.26141 0.73836,0.26141 0.27517,0 0.4632,-0.12383 0.4632,-0.30727 0,-0.14217 -0.0963,-0.22013 -0.31644,-0.26141 l -0.40817,-0.0688 c -0.44485,-0.0825 -0.66498,-0.28893 -0.66498,-0.63288 0,-0.4311 0.35313,-0.71085 0.8897,-0.71085 0.32103,0 0.60995,0.0871 0.90347,0.27517 l -0.24307,0.33937 c -0.23848,-0.15134 -0.45861,-0.22014 -0.6925,-0.22014 -0.23848,0 -0.39441,0.1009 -0.39441,0.27059 0,0.14675 0.0825,0.21096 0.32562,0.25223 l 0.40357,0.0734 c 0.45862,0.0871 0.67875,0.2981 0.67875,0.64205 0,0.42193 -0.40358,0.74754 -0.93557,0.74754 -0.39899,0 -0.74753,-0.11007 -0.9906,-0.31185 z"
       style="fill:#000000;fill-opacity:1;fill-rule:nonzero;stroke:none;stroke-width:0.352778"
       id="path246"
       inkscape:connector-curvature="0"
       inkscape:export-xdpi="96"
       inkscape:export-ydpi="96" />
    <path
       d="m 33.009613,23.405023 h 1.19697 c -0.0596,-0.33937 -0.29351,-0.57326 -0.60078,-0.57326 -0.30727,0 -0.53657,0.22472 -0.59619,0.57326 m 0.65123,1.38501 c -0.65582,0 -1.16946,-0.52282 -1.16946,-1.19239 0,-0.67416 0.48154,-1.1878 1.11901,-1.1878 0.6283,0 1.08691,0.49988 1.08691,1.18322 v 0.12841 h -1.69686 c 0.0504,0.3623 0.33478,0.62829 0.68791,0.62829 0.21555,0 0.41734,-0.0776 0.54575,-0.21554 l 0.33937,0.31644 c -0.27975,0.23389 -0.55492,0.33937 -0.91263,0.33937"
       style="fill:#000000;fill-opacity:1;fill-rule:nonzero;stroke:none;stroke-width:0.352778"
       id="path250"
       inkscape:connector-curvature="0"
       inkscape:export-xdpi="96"
       inkscape:export-ydpi="96" />
    <path
       d="m 35.224633,22.446603 h 0.51823 v 0.49988 c 0.12383,-0.35313 0.34396,-0.54116 0.63288,-0.54116 0.0871,0.005 0.14676,0.0138 0.22472,0.0459 v 0.45403 c -0.0826,-0.0367 -0.18803,-0.055 -0.28433,-0.055 -0.24765,0 -0.45862,0.14217 -0.57327,0.38064 v 1.51342 h -0.51823 z"
       style="fill:#000000;fill-opacity:1;fill-rule:nonzero;stroke:none;stroke-width:0.352778"
       id="path254"
       inkscape:connector-curvature="0"
       inkscape:export-xdpi="96"
       inkscape:export-ydpi="96" />
    <path
       d="m 97.418263,49.695403 c 0.41275,0.339372 0.71085,0.467783 1.07773,0.467783 0.42651,0 0.72002,-0.215547 0.72002,-0.509058 0,-0.261408 -0.15592,-0.380647 -0.58243,-0.458611 l -0.59161,-0.100894 c -0.55492,-0.100895 -0.8255,-0.376414 -0.8255,-0.816681 0,-0.577497 0.4632,-0.963083 1.18322,-0.963083 0.48154,0 0.9218,0.146755 1.28869,0.417689 l -0.27975,0.412397 c -0.32103,-0.247297 -0.66957,-0.371122 -1.02729,-0.371122 -0.38523,0 -0.63747,0.192616 -0.63747,0.454025 0,0.229305 0.14217,0.348544 0.4953,0.403577 l 0.56868,0.100895 c 0.64664,0.110066 0.94932,0.394405 0.94932,0.880533 0,0.587022 -0.52281,1.004358 -1.28869,1.004358 -0.50447,0 -0.94016,-0.174272 -1.34832,-0.51823 z"
       style="fill:#000000;fill-opacity:1;fill-rule:nonzero;stroke:none;stroke-width:0.352778"
       id="path258"
       inkscape:connector-curvature="0"
       inkscape:export-xdpi="96"
       inkscape:export-ydpi="96" />
    <path
       d="m 100.71091,49.23203 h 1.19697 c -0.0596,-0.339373 -0.29351,-0.573264 -0.60078,-0.573264 -0.30727,0 -0.53657,0.224719 -0.59619,0.573264 m 0.65123,1.385005 c -0.65582,0 -1.16946,-0.522817 -1.16946,-1.192389 0,-0.674158 0.48154,-1.187803 1.11901,-1.187803 0.6283,0 1.08691,0.499887 1.08691,1.183217 v 0.128411 h -1.69686 c 0.0504,0.362303 0.33478,0.628297 0.68791,0.628297 0.21555,0 0.41734,-0.07761 0.54575,-0.215547 l 0.33937,0.316442 c -0.27975,0.233891 -0.55492,0.339372 -0.91263,0.339372"
       style="fill:#000000;fill-opacity:1;fill-rule:nonzero;stroke:none;stroke-width:0.352778"
       id="path262"
       inkscape:connector-curvature="0"
       inkscape:export-xdpi="96"
       inkscape:export-ydpi="96" />
    <path
       d="m 102.92611,48.273603 h 0.51823 v 0.499886 c 0.12382,-0.353131 0.34396,-0.541161 0.63288,-0.541161 0.0871,0.0046 0.14676,0.01376 0.22472,0.04586 v 0.454025 c -0.0826,-0.03669 -0.18803,-0.05503 -0.28434,-0.05503 -0.24765,0 -0.45861,0.142169 -0.57326,0.380647 v 1.513416 h -0.51823 z"
       style="fill:#000000;fill-opacity:1;fill-rule:nonzero;stroke:none;stroke-width:0.352778"
       id="path266"
       inkscape:connector-curvature="0"
       inkscape:export-xdpi="96"
       inkscape:export-ydpi="96" />
    <path
       d="m 104.52652,48.273603 h 0.56409 l 0.63747,1.678517 0.63747,-1.678517 h 0.54575 l -0.94474,2.297641 h -0.49989 z"
       style="fill:#000000;fill-opacity:1;fill-rule:nonzero;stroke:none;stroke-width:0.352778"
       id="path270"
       inkscape:connector-curvature="0"
       inkscape:export-xdpi="96"
       inkscape:export-ydpi="96" />
    <path
       d="m 107.8009,50.571386 h -0.51823 v -2.297642 h 0.51823 z m -0.58244,-3.08222 c 0,-0.174272 0.14676,-0.321028 0.32103,-0.321028 0.17921,0 0.32596,0.146756 0.32596,0.321028 0,0.178859 -0.14252,0.316442 -0.32596,0.316442 -0.17886,0 -0.32103,-0.137583 -0.32103,-0.316442"
       style="fill:#000000;fill-opacity:1;fill-rule:nonzero;stroke:none;stroke-width:0.352778"
       id="path272"
       inkscape:connector-curvature="0"
       inkscape:export-xdpi="96"
       inkscape:export-ydpi="96" />
    <path
       d="m 110.08055,49.906223 0.31185,0.311856 c -0.2159,0.24765 -0.54575,0.398991 -0.89888,0.398991 -0.65158,0 -1.16028,-0.522816 -1.16028,-1.192389 0,-0.664986 0.50447,-1.183216 1.16028,-1.183216 0.35772,0 0.68792,0.137583 0.91723,0.385233 l -0.32138,0.334786 c -0.16052,-0.178858 -0.35737,-0.27058 -0.5775,-0.27058 -0.37148,0 -0.6604,0.321027 -0.6604,0.733777 0,0.417337 0.28892,0.733778 0.67416,0.733778 0.22013,0 0.41698,-0.08714 0.55492,-0.252236"
       style="fill:#000000;fill-opacity:1;fill-rule:nonzero;stroke:none;stroke-width:0.352778"
       id="path276"
       inkscape:connector-curvature="0"
       inkscape:export-xdpi="96"
       inkscape:export-ydpi="96" />
    <path
       d="m 111.1809,49.23203 h 1.19732 c -0.0596,-0.339373 -0.29351,-0.573264 -0.60113,-0.573264 -0.30727,0 -0.53658,0.224719 -0.59619,0.573264 m 0.65122,1.385005 c -0.65581,0 -1.16946,-0.522817 -1.16946,-1.192389 0,-0.674158 0.48155,-1.187803 1.11902,-1.187803 0.62829,0 1.0869,0.499887 1.0869,1.183217 v 0.128411 h -1.69686 c 0.0505,0.362303 0.33479,0.628297 0.68792,0.628297 0.21555,0 0.41734,-0.07761 0.54575,-0.215547 l 0.33972,0.316442 c -0.27975,0.233891 -0.55527,0.339372 -0.91299,0.339372"
       style="fill:#000000;fill-opacity:1;fill-rule:nonzero;stroke:none;stroke-width:0.352778"
       id="path280"
       inkscape:connector-curvature="0"
       inkscape:export-xdpi="96"
       inkscape:export-ydpi="96" />
    <path
       d="m 114.34076,50.209048 1.31621,-1.375834 c 0.22931,-0.248003 0.31186,-0.403578 0.31186,-0.605366 0,-0.270581 -0.24765,-0.472723 -0.58702,-0.472723 -0.29351,0 -0.52282,0.110067 -0.83009,0.394759 l -0.28434,-0.343959 c 0.34855,-0.325613 0.72461,-0.486127 1.12819,-0.486127 0.62829,0 1.05939,0.357716 1.05939,0.875594 0,0.307622 -0.11465,0.532342 -0.45861,0.894644 l -1.02729,1.059392 1.54552,-0.0092 v 0.431094 h -2.17382 z"
       style="fill:#000000;fill-opacity:1;fill-rule:nonzero;stroke:none;stroke-width:0.352778"
       id="path284"
       inkscape:connector-curvature="0"
       inkscape:export-xdpi="96"
       inkscape:export-ydpi="96" />
    <path
       d="m 59.649343,79.437074 c 0.41275,0.339372 0.71085,0.467783 1.07774,0.467783 0.42651,0 0.72002,-0.215547 0.72002,-0.509058 0,-0.261408 -0.15593,-0.380647 -0.58244,-0.458611 l -0.59161,-0.100895 c -0.55492,-0.100894 -0.8255,-0.376061 -0.8255,-0.816327 0,-0.57785 0.4632,-0.963437 1.18322,-0.963437 0.48154,0 0.92181,0.146756 1.2887,0.417689 l -0.27976,0.412398 c -0.32102,-0.247298 -0.66957,-0.371123 -1.02729,-0.371123 -0.38523,0 -0.63747,0.192617 -0.63747,0.454025 0,0.229306 0.14217,0.348545 0.4953,0.403578 l 0.56868,0.100895 c 0.64664,0.110066 0.94933,0.394405 0.94933,0.880533 0,0.587022 -0.52282,1.004358 -1.2887,1.004358 -0.50447,0 -0.94015,-0.174272 -1.34832,-0.51823 z"
       style="fill:#000000;fill-opacity:1;fill-rule:nonzero;stroke:none;stroke-width:0.352778"
       id="path288"
       inkscape:connector-curvature="0"
       inkscape:export-xdpi="96"
       inkscape:export-ydpi="96" />
    <path
       d="m 62.941993,78.973877 h 1.19698 c -0.0596,-0.339373 -0.29351,-0.573264 -0.60078,-0.573264 -0.30727,0 -0.53658,0.224719 -0.5962,0.573264 m 0.65123,1.385005 c -0.65581,0 -1.16946,-0.522816 -1.16946,-1.192389 0,-0.674158 0.48154,-1.187802 1.11901,-1.187802 0.6283,0 1.08691,0.499886 1.08691,1.183216 v 0.128411 h -1.69686 c 0.0505,0.362303 0.33479,0.628298 0.68792,0.628298 0.21554,0 0.41733,-0.07796 0.54574,-0.215548 l 0.33938,0.316442 c -0.27976,0.233892 -0.55492,0.339372 -0.91264,0.339372"
       style="fill:#000000;fill-opacity:1;fill-rule:nonzero;stroke:none;stroke-width:0.352778"
       id="path292"
       inkscape:connector-curvature="0"
       inkscape:export-xdpi="96"
       inkscape:export-ydpi="96" />
    <path
       d="m 65.157193,78.015274 h 0.51823 v 0.499886 c 0.12383,-0.353131 0.34396,-0.541161 0.63288,-0.541161 0.0871,0.0046 0.14676,0.01376 0.22472,0.04586 v 0.454025 c -0.0825,-0.03669 -0.18803,-0.05503 -0.28434,-0.05503 -0.24765,0 -0.45861,0.14217 -0.57326,0.380648 v 1.513416 h -0.51823 z"
       style="fill:#000000;fill-opacity:1;fill-rule:nonzero;stroke:none;stroke-width:0.352778"
       id="path296"
       inkscape:connector-curvature="0"
       inkscape:export-xdpi="96"
       inkscape:export-ydpi="96" />
    <path
       d="m 66.757603,78.015274 h 0.56409 l 0.63747,1.678516 0.63747,-1.678516 h 0.54575 l -0.94474,2.297641 h -0.49989 z"
       style="fill:#000000;fill-opacity:1;fill-rule:nonzero;stroke:none;stroke-width:0.352778"
       id="path300"
       inkscape:connector-curvature="0"
       inkscape:export-xdpi="96"
       inkscape:export-ydpi="96" />
    <path
       d="m 70.032163,80.313021 h -0.51824 v -2.297642 h 0.51824 z m -0.58244,-3.081867 c 0,-0.174625 0.14675,-0.32138 0.32103,-0.32138 0.17886,0 0.32561,0.146755 0.32561,0.32138 0,0.178506 -0.14217,0.316442 -0.32561,0.316442 -0.17886,0 -0.32103,-0.137936 -0.32103,-0.316442"
       style="fill:#000000;fill-opacity:1;fill-rule:nonzero;stroke:none;stroke-width:0.352778"
       id="path302"
       inkscape:connector-curvature="0"
       inkscape:export-xdpi="96"
       inkscape:export-ydpi="96" />
    <path
       d="m 72.311283,79.647929 0.31185,0.311856 c -0.21555,0.24765 -0.54575,0.398991 -0.89888,0.398991 -0.65122,0 -1.16028,-0.522816 -1.16028,-1.192389 0,-0.664986 0.50447,-1.183216 1.16028,-1.183216 0.35772,0 0.68792,0.137583 0.91758,0.385233 l -0.32138,0.334786 c -0.16052,-0.178858 -0.35772,-0.27058 -0.57785,-0.27058 -0.37148,0 -0.6604,0.321027 -0.6604,0.733777 0,0.417337 0.28892,0.733778 0.67416,0.733778 0.22013,0 0.41733,-0.08714 0.55492,-0.252236"
       style="fill:#000000;fill-opacity:1;fill-rule:nonzero;stroke:none;stroke-width:0.352778"
       id="path306"
       inkscape:connector-curvature="0"
       inkscape:export-xdpi="96"
       inkscape:export-ydpi="96" />
    <path
       d="m 73.411983,78.973877 h 1.19697 c -0.0596,-0.339373 -0.29351,-0.573264 -0.60078,-0.573264 -0.30727,0 -0.53657,0.224719 -0.59619,0.573264 m 0.65123,1.385005 c -0.65582,0 -1.16946,-0.522816 -1.16946,-1.192389 0,-0.674158 0.48154,-1.187802 1.11901,-1.187802 0.6283,0 1.08691,0.499886 1.08691,1.183216 v 0.128411 h -1.69686 c 0.0504,0.362303 0.33478,0.628298 0.68791,0.628298 0.21555,0 0.41734,-0.07796 0.54575,-0.215548 l 0.33937,0.316442 c -0.27975,0.233892 -0.55492,0.339372 -0.91263,0.339372"
       style="fill:#000000;fill-opacity:1;fill-rule:nonzero;stroke:none;stroke-width:0.352778"
       id="path310"
       inkscape:connector-curvature="0"
       inkscape:export-xdpi="96"
       inkscape:export-ydpi="96" />
    <path
       d="m 78.245813,79.088424 v -1.449211 l -1.1878,1.449211 z m 0.49989,0 h 0.41275 v 0.431094 h -0.41275 v 0.793397 h -0.49989 v -0.793397 h -1.72438 v -0.408164 l 1.65559,-2.008716 h 0.56868 z"
       style="fill:#000000;fill-opacity:1;fill-rule:nonzero;stroke:none;stroke-width:0.352778"
       id="path314"
       inkscape:connector-curvature="0"
       inkscape:export-xdpi="96"
       inkscape:export-ydpi="96" />
    <path
       d="m 134.95342,72.381518 c 0.41275,0.339373 0.71085,0.467784 1.07774,0.467784 0.42651,0 0.72002,-0.215547 0.72002,-0.509059 0,-0.261408 -0.15593,-0.380647 -0.58244,-0.458611 l -0.5916,-0.100894 c -0.55492,-0.100895 -0.8255,-0.376061 -0.8255,-0.816328 0,-0.57785 0.46319,-0.963436 1.18321,-0.963436 0.48119,0 0.92181,0.146756 1.28905,0.417689 l -0.2801,0.412397 c -0.32103,-0.247297 -0.66958,-0.371122 -1.02764,-0.371122 -0.38489,0 -0.63712,0.192617 -0.63712,0.454025 0,0.229305 0.14217,0.348544 0.4953,0.403578 l 0.56868,0.100894 c 0.64664,0.110067 0.94932,0.394406 0.94932,0.880533 0,0.587023 -0.52282,1.004359 -1.2887,1.004359 -0.50447,0 -0.94015,-0.174272 -1.34867,-0.518231 z"
       style="fill:#000000;fill-opacity:1;fill-rule:nonzero;stroke:none;stroke-width:0.352778"
       id="path318"
       inkscape:connector-curvature="0"
       inkscape:export-xdpi="96"
       inkscape:export-ydpi="96" />
    <path
       d="m 138.24625,71.918321 h 1.19733 c -0.0596,-0.339372 -0.29351,-0.573264 -0.60113,-0.573264 -0.30727,0 -0.53658,0.22472 -0.5962,0.573264 m 0.65123,1.385006 c -0.65581,0 -1.16946,-0.522817 -1.16946,-1.192389 0,-0.674158 0.48154,-1.187803 1.11901,-1.187803 0.6283,0 1.08691,0.499886 1.08691,1.183217 v 0.128411 h -1.69686 c 0.0505,0.362303 0.33479,0.628297 0.68792,0.628297 0.21554,0 0.41733,-0.07796 0.54574,-0.215547 l 0.33973,0.316442 c -0.27975,0.233891 -0.55527,0.339372 -0.91299,0.339372"
       style="fill:#000000;fill-opacity:1;fill-rule:nonzero;stroke:none;stroke-width:0.352778"
       id="path322"
       inkscape:connector-curvature="0"
       inkscape:export-xdpi="96"
       inkscape:export-ydpi="96" />
    <path
       d="m 140.46113,70.959718 h 0.51823 v 0.499886 c 0.12383,-0.35313 0.34396,-0.541161 0.63289,-0.541161 0.0871,0.0046 0.14675,0.01376 0.22472,0.04586 v 0.454025 c -0.0826,-0.03669 -0.18803,-0.05503 -0.28434,-0.05503 -0.24765,0 -0.45861,0.142169 -0.57327,0.380647 v 1.513417 h -0.51823 z"
       style="fill:#000000;fill-opacity:1;fill-rule:nonzero;stroke:none;stroke-width:0.352778"
       id="path326"
       inkscape:connector-curvature="0"
       inkscape:export-xdpi="96"
       inkscape:export-ydpi="96" />
    <path
       d="m 142.06172,70.959718 h 0.56444 l 0.63712,1.678517 0.63782,-1.678517 h 0.54575 l -0.94474,2.297642 h -0.50024 z"
       style="fill:#000000;fill-opacity:1;fill-rule:nonzero;stroke:none;stroke-width:0.352778"
       id="path330"
       inkscape:connector-curvature="0"
       inkscape:export-xdpi="96"
       inkscape:export-ydpi="96" />
    <path
       d="m 145.3361,73.257466 h -0.51823 v -2.297642 h 0.51823 z m -0.58209,-3.081867 c 0,-0.174625 0.14676,-0.32138 0.32068,-0.32138 0.17921,0 0.32597,0.146755 0.32597,0.32138 0,0.178506 -0.14217,0.316442 -0.32597,0.316442 -0.17886,0 -0.32068,-0.137936 -0.32068,-0.316442"
       style="fill:#000000;fill-opacity:1;fill-rule:nonzero;stroke:none;stroke-width:0.352778"
       id="path332"
       inkscape:connector-curvature="0"
       inkscape:export-xdpi="96"
       inkscape:export-ydpi="96" />
    <path
       d="m 147.61554,72.592374 0.31185,0.311855 c -0.2159,0.24765 -0.54575,0.398992 -0.89888,0.398992 -0.65158,0 -1.16028,-0.522817 -1.16028,-1.192389 0,-0.664986 0.50447,-1.183217 1.16028,-1.183217 0.35772,0 0.68792,0.137584 0.91723,0.385234 l -0.32138,0.334786 c -0.16052,-0.178858 -0.35737,-0.270581 -0.5775,-0.270581 -0.37148,0 -0.6604,0.321028 -0.6604,0.733778 0,0.417336 0.28892,0.733778 0.67416,0.733778 0.22013,0 0.41698,-0.08714 0.55492,-0.252236"
       style="fill:#000000;fill-opacity:1;fill-rule:nonzero;stroke:none;stroke-width:0.352778"
       id="path336"
       inkscape:connector-curvature="0"
       inkscape:export-xdpi="96"
       inkscape:export-ydpi="96" />
    <path
       d="m 148.71624,71.918321 h 1.19733 c -0.06,-0.339372 -0.29352,-0.573264 -0.60114,-0.573264 -0.30727,0 -0.53657,0.22472 -0.59619,0.573264 m 0.65123,1.385006 c -0.65582,0 -1.16946,-0.522817 -1.16946,-1.192389 0,-0.674158 0.48154,-1.187803 1.11901,-1.187803 0.6283,0 1.08691,0.499886 1.08691,1.183217 v 0.128411 h -1.69686 c 0.0504,0.362303 0.33478,0.628297 0.68791,0.628297 0.21555,0 0.41734,-0.07796 0.54575,-0.215547 l 0.33972,0.316442 c -0.2801,0.233891 -0.55527,0.339372 -0.91298,0.339372"
       style="fill:#000000;fill-opacity:1;fill-rule:nonzero;stroke:none;stroke-width:0.352778"
       id="path340"
       inkscape:connector-curvature="0"
       inkscape:export-xdpi="96"
       inkscape:export-ydpi="96" />
    <path
       d="m 152.01803,70.046941 h 1.95368 v 0.431094 h -1.52718 l -0.0413,0.930981 c 0.21555,-0.110067 0.43074,-0.160514 0.66922,-0.160514 0.63782,0 1.06892,0.38982 1.06892,0.972608 0,0.646642 -0.49072,1.086909 -1.21568,1.086909 -0.43074,0 -0.81597,-0.146756 -1.12783,-0.435681 l 0.30233,-0.343958 c 0.27552,0.243064 0.52776,0.343958 0.8442,0.343958 0.40816,0 0.68298,-0.252589 0.68298,-0.628297 0,-0.353131 -0.28857,-0.601133 -0.69674,-0.601133 -0.21554,0 -0.41275,0.05539 -0.63782,0.169686 l -0.34819,-0.105128 z"
       style="fill:#000000;fill-opacity:1;fill-rule:nonzero;stroke:none;stroke-width:0.352778"
       id="path344"
       inkscape:connector-curvature="0"
       inkscape:export-xdpi="96"
       inkscape:export-ydpi="96" />
    <path
       d="m 73.542893,106.41131 c 0.41275,0.33937 0.71085,0.46778 1.07774,0.46778 0.42651,0 0.72002,-0.21554 0.72002,-0.50906 0,-0.2614 -0.15593,-0.38064 -0.58244,-0.45861 l -0.59161,-0.10089 c -0.55491,-0.1009 -0.8255,-0.37642 -0.8255,-0.81668 0,-0.5775 0.4632,-0.96309 1.18322,-0.96309 0.48154,0 0.92181,0.14676 1.2887,0.41769 l -0.27975,0.4124 c -0.32103,-0.2473 -0.66958,-0.37112 -1.02729,-0.37112 -0.38524,0 -0.63747,0.19262 -0.63747,0.45402 0,0.22931 0.14217,0.34855 0.4953,0.40358 l 0.56868,0.1009 c 0.64664,0.11006 0.94932,0.3944 0.94932,0.88053 0,0.58702 -0.52282,1.00436 -1.2887,1.00436 -0.50447,0 -0.94015,-0.17427 -1.34831,-0.51823 z"
       style="fill:#000000;fill-opacity:1;fill-rule:nonzero;stroke:none;stroke-width:0.352778"
       id="path348"
       inkscape:connector-curvature="0"
       inkscape:export-xdpi="96"
       inkscape:export-ydpi="96" />
    <path
       d="m 76.835553,105.94794 h 1.19697 c -0.0596,-0.33938 -0.29351,-0.57327 -0.60078,-0.57327 -0.30727,0 -0.53658,0.22472 -0.59619,0.57327 m 0.65122,1.385 c -0.65581,0 -1.16946,-0.52282 -1.16946,-1.19239 0,-0.67416 0.48155,-1.1878 1.11902,-1.1878 0.62829,0 1.0869,0.49989 1.0869,1.18322 v 0.12841 h -1.69686 c 0.0505,0.3623 0.33479,0.62829 0.68792,0.62829 0.21555,0 0.41734,-0.0776 0.54575,-0.21554 l 0.33937,0.31644 c -0.27975,0.23389 -0.55492,0.33937 -0.91264,0.33937"
       style="fill:#000000;fill-opacity:1;fill-rule:nonzero;stroke:none;stroke-width:0.352778"
       id="path352"
       inkscape:connector-curvature="0"
       inkscape:export-xdpi="96"
       inkscape:export-ydpi="96" />
    <path
       d="m 79.050743,104.98951 h 0.51823 v 0.49989 c 0.12383,-0.35314 0.34396,-0.54117 0.63289,-0.54117 0.0871,0.005 0.14675,0.0138 0.22472,0.0459 v 0.45403 c -0.0826,-0.0367 -0.18803,-0.055 -0.28434,-0.055 -0.24765,0 -0.45861,0.14217 -0.57327,0.38065 v 1.51341 h -0.51823 z"
       style="fill:#000000;fill-opacity:1;fill-rule:nonzero;stroke:none;stroke-width:0.352778"
       id="path356"
       inkscape:connector-curvature="0"
       inkscape:export-xdpi="96"
       inkscape:export-ydpi="96" />
    <path
       d="m 80.651153,104.98951 h 0.5641 l 0.63747,1.67852 0.63746,-1.67852 h 0.54575 l -0.94474,2.29764 h -0.49988 z"
       style="fill:#000000;fill-opacity:1;fill-rule:nonzero;stroke:none;stroke-width:0.352778"
       id="path360"
       inkscape:connector-curvature="0"
       inkscape:export-xdpi="96"
       inkscape:export-ydpi="96" />
    <path
       d="m 83.925603,107.28712 h -0.51823 v -2.29765 h 0.51823 z m -0.58243,-3.08187 c 0,-0.17427 0.14675,-0.32103 0.32102,-0.32103 0.17886,0 0.32562,0.14676 0.32562,0.32103 0,0.17886 -0.14217,0.31644 -0.32562,0.31644 -0.17885,0 -0.32102,-0.13758 -0.32102,-0.31644"
       style="fill:#000000;fill-opacity:1;fill-rule:nonzero;stroke:none;stroke-width:0.352778"
       id="path362"
       inkscape:connector-curvature="0"
       inkscape:export-xdpi="96"
       inkscape:export-ydpi="96" />
    <path
       d="m 86.204833,106.62216 0.31185,0.31186 c -0.21554,0.24765 -0.54574,0.39899 -0.89887,0.39899 -0.65123,0 -1.16029,-0.52281 -1.16029,-1.19239 0,-0.66498 0.50447,-1.18321 1.16029,-1.18321 0.35771,0 0.68791,0.13758 0.91757,0.38523 l -0.32138,0.33479 c -0.16051,-0.17886 -0.35772,-0.27058 -0.57785,-0.27058 -0.37147,0 -0.6604,0.32102 -0.6604,0.73377 0,0.41734 0.28893,0.73378 0.67416,0.73378 0.22013,0 0.41734,-0.0871 0.55492,-0.25224"
       style="fill:#000000;fill-opacity:1;fill-rule:nonzero;stroke:none;stroke-width:0.352778"
       id="path366"
       inkscape:connector-curvature="0"
       inkscape:export-xdpi="96"
       inkscape:export-ydpi="96" />
    <path
       d="m 87.305533,105.94794 h 1.19698 c -0.0596,-0.33938 -0.29352,-0.57327 -0.60078,-0.57327 -0.30727,0 -0.53658,0.22472 -0.5962,0.57327 m 0.65123,1.385 c -0.65582,0 -1.16946,-0.52282 -1.16946,-1.19239 0,-0.67416 0.48154,-1.1878 1.11901,-1.1878 0.6283,0 1.08691,0.49989 1.08691,1.18322 v 0.12841 h -1.69686 c 0.0505,0.3623 0.33478,0.62829 0.68792,0.62829 0.21554,0 0.41733,-0.0776 0.54574,-0.21554 l 0.33937,0.31644 c -0.27975,0.23389 -0.55491,0.33937 -0.91263,0.33937"
       style="fill:#000000;fill-opacity:1;fill-rule:nonzero;stroke:none;stroke-width:0.352778"
       id="path370"
       inkscape:connector-curvature="0"
       inkscape:export-xdpi="96"
       inkscape:export-ydpi="96" />
    <path
       d="m 90.983523,106.0718 c 0.078,0.49988 0.38065,0.8255 0.78881,0.8255 0.37606,0 0.65582,-0.26141 0.65582,-0.60996 0,-0.35313 -0.27058,-0.60078 -0.6604,-0.60078 -0.30692,0 -0.58703,0.14217 -0.78423,0.38524 m -0.52282,-0.30727 c 0,-1.04105 0.5962,-1.73355 1.49508,-1.73355 0.30727,0 0.63747,0.10548 0.85301,0.27516 l -0.27481,0.37148 c -0.18345,-0.133 -0.38559,-0.1972 -0.61948,-0.1972 -0.59619,0 -0.94474,0.46778 -0.95391,1.27493 0.22472,-0.29809 0.54575,-0.46778 0.88512,-0.46778 0.62865,0 1.07315,0.41275 1.07315,0.98601 0,0.60996 -0.47696,1.05516 -1.12818,1.05516 -0.78881,0 -1.32998,-0.63782 -1.32998,-1.56421"
       style="fill:#000000;fill-opacity:1;fill-rule:nonzero;stroke:none;stroke-width:0.352778"
       id="path374"
       inkscape:connector-curvature="0"
       inkscape:export-xdpi="96"
       inkscape:export-ydpi="96" />
    <path
       d="m 125.59554,117.75396 c 0.41275,0.33937 0.71084,0.46778 1.07773,0.46778 0.42651,0 0.72002,-0.21554 0.72002,-0.50905 0,-0.26141 -0.15593,-0.38065 -0.58243,-0.45861 l -0.59161,-0.1009 c -0.55528,-0.10089 -0.8255,-0.37641 -0.8255,-0.81668 0,-0.5775 0.46319,-0.96308 1.18321,-0.96308 0.48155,0 0.92216,0.14675 1.2887,0.41769 l -0.27975,0.41239 c -0.32103,-0.24729 -0.66957,-0.37112 -1.02764,-0.37112 -0.38488,0 -0.63712,0.19262 -0.63712,0.45403 0,0.2293 0.14217,0.34854 0.4953,0.40357 l 0.56832,0.1009 c 0.647,0.11006 0.94968,0.3944 0.94968,0.88053 0,0.58702 -0.52281,1.00436 -1.28869,1.00436 -0.50448,0 -0.94016,-0.17427 -1.34832,-0.51823 z"
       style="fill:#000000;fill-opacity:1;fill-rule:nonzero;stroke:none;stroke-width:0.352778"
       id="path378"
       inkscape:connector-curvature="0"
       inkscape:export-xdpi="96"
       inkscape:export-ydpi="96" />
    <path
       d="m 128.88836,117.29059 h 1.19733 c -0.06,-0.33937 -0.29351,-0.57327 -0.60113,-0.57327 -0.30727,0 -0.53658,0.22472 -0.5962,0.57327 m 0.65123,1.385 c -0.65581,0 -1.16946,-0.52281 -1.16946,-1.19239 0,-0.67415 0.48154,-1.1878 1.11901,-1.1878 0.6283,0 1.08691,0.49989 1.08691,1.18322 v 0.12841 h -1.69686 c 0.0505,0.3623 0.33479,0.6283 0.68792,0.6283 0.21555,0 0.41733,-0.0776 0.54575,-0.21555 l 0.33972,0.31644 c -0.28011,0.23389 -0.55527,0.33937 -0.91299,0.33937"
       style="fill:#000000;fill-opacity:1;fill-rule:nonzero;stroke:none;stroke-width:0.352778"
       id="path382"
       inkscape:connector-curvature="0"
       inkscape:export-xdpi="96"
       inkscape:export-ydpi="96" />
    <path
       d="m 131.10321,116.33216 h 0.51823 v 0.49989 c 0.12382,-0.35313 0.34396,-0.54116 0.63288,-0.54116 0.0871,0.005 0.14676,0.0138 0.22472,0.0459 v 0.45402 c -0.0826,-0.0367 -0.18803,-0.055 -0.28434,-0.055 -0.24765,0 -0.45861,0.14217 -0.57326,0.38065 v 1.51342 h -0.51823 z"
       style="fill:#000000;fill-opacity:1;fill-rule:nonzero;stroke:none;stroke-width:0.352778"
       id="path386"
       inkscape:connector-curvature="0"
       inkscape:export-xdpi="96"
       inkscape:export-ydpi="96" />
    <path
       d="m 132.7038,116.33216 h 0.56444 l 0.63712,1.67852 0.63782,-1.67852 h 0.54575 l -0.94474,2.29764 h -0.49989 z"
       style="fill:#000000;fill-opacity:1;fill-rule:nonzero;stroke:none;stroke-width:0.352778"
       id="path390"
       inkscape:connector-curvature="0"
       inkscape:export-xdpi="96"
       inkscape:export-ydpi="96" />
    <path
       d="m 135.97831,118.62998 h -0.51823 v -2.29764 h 0.51823 z m -0.58243,-3.08222 c 0,-0.17427 0.14675,-0.32103 0.32103,-0.32103 0.17921,0 0.32596,0.14676 0.32596,0.32103 0,0.17886 -0.14252,0.31644 -0.32596,0.31644 -0.17886,0 -0.32103,-0.13758 -0.32103,-0.31644"
       style="fill:#000000;fill-opacity:1;fill-rule:nonzero;stroke:none;stroke-width:0.352778"
       id="path392"
       inkscape:connector-curvature="0"
       inkscape:export-xdpi="96"
       inkscape:export-ydpi="96" />
    <path
       d="m 138.25765,117.96478 0.31185,0.31186 c -0.2159,0.24765 -0.54574,0.39899 -0.89887,0.39899 -0.65159,0 -1.16029,-0.52282 -1.16029,-1.19239 0,-0.66499 0.50447,-1.18322 1.16029,-1.18322 0.35771,0 0.68791,0.13759 0.91722,0.38524 l -0.32138,0.33478 c -0.16052,-0.17886 -0.35737,-0.27058 -0.5775,-0.27058 -0.37148,0 -0.6604,0.32103 -0.6604,0.73378 0,0.41734 0.28892,0.73378 0.67416,0.73378 0.22013,0 0.41698,-0.0871 0.55492,-0.25224"
       style="fill:#000000;fill-opacity:1;fill-rule:nonzero;stroke:none;stroke-width:0.352778"
       id="path396"
       inkscape:connector-curvature="0"
       inkscape:export-xdpi="96"
       inkscape:export-ydpi="96" />
    <path
       d="m 139.35835,117.29059 h 1.19733 c -0.0596,-0.33937 -0.29351,-0.57327 -0.60114,-0.57327 -0.30727,0 -0.53657,0.22472 -0.59619,0.57327 m 0.65123,1.385 c -0.65582,0 -1.16946,-0.52281 -1.16946,-1.19239 0,-0.67415 0.48154,-1.1878 1.11901,-1.1878 0.6283,0 1.08691,0.49989 1.08691,1.18322 v 0.12841 h -1.69686 c 0.0504,0.3623 0.33478,0.6283 0.68791,0.6283 0.21555,0 0.41734,-0.0776 0.54575,-0.21555 l 0.33973,0.31644 c -0.27976,0.23389 -0.55528,0.33937 -0.91299,0.33937"
       style="fill:#000000;fill-opacity:1;fill-rule:nonzero;stroke:none;stroke-width:0.352778"
       id="path400"
       inkscape:connector-curvature="0"
       inkscape:export-xdpi="96"
       inkscape:export-ydpi="96" />
    <path
       d="m 144.26969,115.86431 h -1.83903 v -0.44486 h 2.38971 v 0.37607 l -1.45415,2.83421 h -0.58702 z"
       style="fill:#000000;fill-opacity:1;fill-rule:nonzero;stroke:none;stroke-width:0.352778"
       id="path404"
       inkscape:connector-curvature="0"
       inkscape:export-xdpi="96"
       inkscape:export-ydpi="96" />
    <path
       d="m 116.68444,95.06781 c 0.41275,0.339372 0.71085,0.467784 1.07774,0.467784 0.4265,0 0.72002,-0.215548 0.72002,-0.509059 0,-0.261408 -0.15593,-0.380647 -0.58244,-0.458611 l -0.59161,-0.100894 c -0.55527,-0.100895 -0.8255,-0.376061 -0.8255,-0.816328 0,-0.57785 0.4632,-0.963436 1.18322,-0.963436 0.48154,0 0.92216,0.146755 1.28869,0.417689 l -0.27975,0.412397 c -0.32103,-0.247297 -0.66957,-0.371122 -1.02764,-0.371122 -0.38488,0 -0.63712,0.192616 -0.63712,0.454025 0,0.229305 0.14217,0.348544 0.4953,0.403577 l 0.56833,0.100895 c 0.64699,0.110067 0.94968,0.394405 0.94968,0.880533 0,0.587022 -0.52282,1.004358 -1.2887,1.004358 -0.50447,0 -0.94015,-0.174272 -1.34832,-0.51823 z"
       style="fill:#000000;fill-opacity:1;fill-rule:nonzero;stroke:none;stroke-width:0.352778"
       id="path408"
       inkscape:connector-curvature="0"
       inkscape:export-xdpi="96"
       inkscape:export-ydpi="96" />
    <path
       d="m 119.97727,94.604613 h 1.19733 c -0.06,-0.339372 -0.29352,-0.573264 -0.60114,-0.573264 -0.30727,0 -0.53657,0.22472 -0.59619,0.573264 m 0.65123,1.385005 c -0.65582,0 -1.16946,-0.522816 -1.16946,-1.192388 0,-0.674159 0.48154,-1.187803 1.11901,-1.187803 0.6283,0 1.08691,0.499886 1.08691,1.183217 v 0.128411 h -1.69686 c 0.0504,0.362302 0.33478,0.628297 0.68791,0.628297 0.21555,0 0.41734,-0.07796 0.54575,-0.215547 l 0.33972,0.316441 c -0.2801,0.233892 -0.55527,0.339372 -0.91298,0.339372"
       style="fill:#000000;fill-opacity:1;fill-rule:nonzero;stroke:none;stroke-width:0.352778"
       id="path412"
       inkscape:connector-curvature="0"
       inkscape:export-xdpi="96"
       inkscape:export-ydpi="96" />
    <path
       d="m 122.19211,93.646045 h 0.51823 v 0.499886 c 0.12383,-0.35313 0.34396,-0.541161 0.63289,-0.541161 0.0871,0.0046 0.14675,0.01376 0.22472,0.04586 v 0.454025 c -0.0826,-0.03669 -0.18803,-0.05503 -0.28434,-0.05503 -0.24765,0 -0.45861,0.142169 -0.57327,0.380647 v 1.513417 h -0.51823 z"
       style="fill:#000000;fill-opacity:1;fill-rule:nonzero;stroke:none;stroke-width:0.352778"
       id="path416"
       inkscape:connector-curvature="0"
       inkscape:export-xdpi="96"
       inkscape:export-ydpi="96" />
    <path
       d="m 123.7927,93.646045 h 0.56444 l 0.63712,1.678517 0.63782,-1.678517 h 0.54575 l -0.94474,2.297642 h -0.49988 z"
       style="fill:#000000;fill-opacity:1;fill-rule:nonzero;stroke:none;stroke-width:0.352778"
       id="path420"
       inkscape:connector-curvature="0"
       inkscape:export-xdpi="96"
       inkscape:export-ydpi="96" />
    <path
       d="m 127.06715,95.943898 h -0.51823 v -2.297641 h 0.51823 z m -0.58244,-3.082219 c 0,-0.174272 0.14676,-0.321028 0.32103,-0.321028 0.17921,0 0.32597,0.146756 0.32597,0.321028 0,0.178858 -0.14217,0.316442 -0.32597,0.316442 -0.17886,0 -0.32103,-0.137584 -0.32103,-0.316442"
       style="fill:#000000;fill-opacity:1;fill-rule:nonzero;stroke:none;stroke-width:0.352778"
       id="path422"
       inkscape:connector-curvature="0"
       inkscape:export-xdpi="96"
       inkscape:export-ydpi="96" />
    <path
       d="m 129.34655,95.278665 0.31186,0.311856 c -0.2159,0.24765 -0.54575,0.398992 -0.89888,0.398992 -0.65158,0 -1.16029,-0.522817 -1.16029,-1.192389 0,-0.664986 0.50448,-1.183217 1.16029,-1.183217 0.35772,0 0.68792,0.137583 0.91722,0.385233 l -0.32138,0.334787 c -0.16051,-0.178859 -0.35736,-0.270581 -0.5775,-0.270581 -0.37147,0 -0.6604,0.321028 -0.6604,0.733778 0,0.417336 0.28893,0.733778 0.67416,0.733778 0.22014,0 0.41699,-0.08714 0.55492,-0.252237"
       style="fill:#000000;fill-opacity:1;fill-rule:nonzero;stroke:none;stroke-width:0.352778"
       id="path426"
       inkscape:connector-curvature="0"
       inkscape:export-xdpi="96"
       inkscape:export-ydpi="96" />
    <path
       d="m 130.44725,94.604613 h 1.19733 c -0.0596,-0.339372 -0.29351,-0.573264 -0.60113,-0.573264 -0.30727,0 -0.53658,0.22472 -0.5962,0.573264 m 0.65123,1.385005 c -0.65581,0 -1.16946,-0.522816 -1.16946,-1.192388 0,-0.674159 0.48154,-1.187803 1.11901,-1.187803 0.6283,0 1.08691,0.499886 1.08691,1.183217 v 0.128411 h -1.69686 c 0.0504,0.362302 0.33479,0.628297 0.68792,0.628297 0.21554,0 0.41733,-0.07796 0.54574,-0.215547 l 0.33973,0.316441 c -0.27975,0.233892 -0.55527,0.339372 -0.91299,0.339372"
       style="fill:#000000;fill-opacity:1;fill-rule:nonzero;stroke:none;stroke-width:0.352778"
       id="path430"
       inkscape:connector-curvature="0"
       inkscape:export-xdpi="96"
       inkscape:export-ydpi="96" />
    <path
       d="m 135.39994,93.590906 c 0,-0.284339 -0.25683,-0.499886 -0.59161,-0.499886 -0.33937,0 -0.5962,0.215547 -0.5962,0.499886 0,0.284339 0.26141,0.4953 0.5962,0.4953 0.3302,0 0.59161,-0.210961 0.59161,-0.4953 m 0.0963,1.430867 c 0,-0.311856 -0.29351,-0.545748 -0.68791,-0.545748 -0.39899,0 -0.69251,0.233892 -0.69251,0.545748 0,0.316794 0.29352,0.554919 0.69251,0.554919 0.3944,0 0.68791,-0.238125 0.68791,-0.554919 m -1.8803,0.03669 c 0,-0.371475 0.28434,-0.678745 0.6925,-0.784225 -0.34854,-0.114653 -0.58702,-0.38982 -0.58702,-0.715434 0,-0.499886 0.4632,-0.875947 1.08267,-0.875947 0.61878,0 1.08691,0.376061 1.08691,0.875947 0,0.325614 -0.23883,0.600781 -0.58279,0.715434 0.40817,0.10548 0.69251,0.41275 0.69251,0.784225 0,0.5461 -0.4953,0.935566 -1.19239,0.935566 -0.70168,0 -1.19239,-0.389466 -1.19239,-0.935566"
       style="fill:#000000;fill-opacity:1;fill-rule:nonzero;stroke:none;stroke-width:0.352778"
       id="path434"
       inkscape:connector-curvature="0"
       inkscape:export-xdpi="96"
       inkscape:export-ydpi="96" />
    <path
       d="M 198.29792,101.17312 H 161.80447 V 88.320018 h 36.49345 z"
       style="fill:#ffffff;fill-opacity:1;fill-rule:nonzero;stroke:none;stroke-width:0.352778"
       id="path436"
       inkscape:connector-curvature="0"
       inkscape:export-xdpi="96"
       inkscape:export-ydpi="96" />
    <path
       d="m 162.06905,100.90854 h 35.96429 V 88.584601 h -35.96429 z m 36.49345,0.52917 H 161.53989 V 88.055435 h 37.02261 z"
       style="fill:#99c2eb;fill-opacity:1;fill-rule:nonzero;stroke:none;stroke-width:0.352778"
       id="path438"
       inkscape:connector-curvature="0"
       inkscape:export-xdpi="96"
       inkscape:export-ydpi="96" />
    <path
       d="m 170.46411,95.06781 c 0.41275,0.339372 0.71084,0.467784 1.07773,0.467784 0.42651,0 0.72002,-0.215548 0.72002,-0.509059 0,-0.261408 -0.15593,-0.380647 -0.58243,-0.458611 l -0.59161,-0.100894 c -0.55492,-0.100895 -0.8255,-0.376061 -0.8255,-0.816328 0,-0.57785 0.46319,-0.963436 1.18321,-0.963436 0.48119,0 0.92181,0.146755 1.28905,0.417689 l -0.2801,0.412397 c -0.32103,-0.247297 -0.66957,-0.371122 -1.02764,-0.371122 -0.38488,0 -0.63712,0.192616 -0.63712,0.454025 0,0.229305 0.14217,0.348544 0.4953,0.403577 l 0.56868,0.100895 c 0.64664,0.110067 0.94932,0.394405 0.94932,0.880533 0,0.587022 -0.52281,1.004358 -1.28869,1.004358 -0.50448,0 -0.94016,-0.174272 -1.34867,-0.51823 z"
       style="fill:#000000;fill-opacity:1;fill-rule:nonzero;stroke:none;stroke-width:0.352778"
       id="path442"
       inkscape:connector-curvature="0"
       inkscape:export-xdpi="96"
       inkscape:export-ydpi="96" />
    <path
       d="m 173.75693,94.604613 h 1.19733 c -0.0596,-0.339372 -0.29351,-0.573264 -0.60113,-0.573264 -0.30727,0 -0.53658,0.22472 -0.5962,0.573264 m 0.65123,1.385005 c -0.65581,0 -1.16946,-0.522816 -1.16946,-1.192388 0,-0.674159 0.48154,-1.187803 1.11901,-1.187803 0.6283,0 1.08691,0.499886 1.08691,1.183217 v 0.128411 h -1.69686 c 0.0505,0.362302 0.33479,0.628297 0.68792,0.628297 0.21555,0 0.41733,-0.07796 0.54575,-0.215547 l 0.33972,0.316441 c -0.27975,0.233892 -0.55527,0.339372 -0.91299,0.339372"
       style="fill:#000000;fill-opacity:1;fill-rule:nonzero;stroke:none;stroke-width:0.352778"
       id="path446"
       inkscape:connector-curvature="0"
       inkscape:export-xdpi="96"
       inkscape:export-ydpi="96" />
    <path
       d="m 175.97178,93.646045 h 0.51823 v 0.499886 c 0.12382,-0.35313 0.34396,-0.541161 0.63288,-0.541161 0.0871,0.0046 0.14676,0.01376 0.22472,0.04586 v 0.454025 c -0.0825,-0.03669 -0.18803,-0.05503 -0.28434,-0.05503 -0.24765,0 -0.45861,0.142169 -0.57326,0.380647 v 1.513417 h -0.51823 z"
       style="fill:#000000;fill-opacity:1;fill-rule:nonzero;stroke:none;stroke-width:0.352778"
       id="path450"
       inkscape:connector-curvature="0"
       inkscape:export-xdpi="96"
       inkscape:export-ydpi="96" />
    <path
       d="m 177.57237,93.646045 h 0.56444 l 0.63712,1.678517 0.63782,-1.678517 h 0.54575 l -0.94474,2.297642 h -0.50024 z"
       style="fill:#000000;fill-opacity:1;fill-rule:nonzero;stroke:none;stroke-width:0.352778"
       id="path454"
       inkscape:connector-curvature="0"
       inkscape:export-xdpi="96"
       inkscape:export-ydpi="96" />
    <path
       d="m 180.84706,95.943898 h -0.51823 v -2.297641 h 0.51823 z m -0.58244,-3.082219 c 0,-0.174272 0.14676,-0.321028 0.32068,-0.321028 0.17921,0 0.32597,0.146756 0.32597,0.321028 0,0.178858 -0.14217,0.316442 -0.32597,0.316442 -0.17851,0 -0.32068,-0.137584 -0.32068,-0.316442"
       style="fill:#000000;fill-opacity:1;fill-rule:nonzero;stroke:none;stroke-width:0.352778"
       id="path456"
       inkscape:connector-curvature="0"
       inkscape:export-xdpi="96"
       inkscape:export-ydpi="96" />
    <path
       d="m 183.12622,95.278665 0.31185,0.311856 c -0.2159,0.24765 -0.54574,0.398992 -0.89888,0.398992 -0.65158,0 -1.16028,-0.522817 -1.16028,-1.192389 0,-0.664986 0.50447,-1.183217 1.16028,-1.183217 0.35772,0 0.68792,0.137583 0.91723,0.385233 l -0.32138,0.334787 c -0.16052,-0.178859 -0.35737,-0.270581 -0.5775,-0.270581 -0.37148,0 -0.6604,0.321028 -0.6604,0.733778 0,0.417336 0.28892,0.733778 0.67416,0.733778 0.22013,0 0.41698,-0.08714 0.55492,-0.252237"
       style="fill:#000000;fill-opacity:1;fill-rule:nonzero;stroke:none;stroke-width:0.352778"
       id="path460"
       inkscape:connector-curvature="0"
       inkscape:export-xdpi="96"
       inkscape:export-ydpi="96" />
    <path
       d="m 184.22692,94.604613 h 1.19733 c -0.06,-0.339372 -0.29351,-0.573264 -0.60114,-0.573264 -0.30727,0 -0.53657,0.22472 -0.59619,0.573264 m 0.65123,1.385005 c -0.65582,0 -1.16946,-0.522816 -1.16946,-1.192388 0,-0.674159 0.48154,-1.187803 1.11901,-1.187803 0.6283,0 1.08691,0.499886 1.08691,1.183217 v 0.128411 h -1.69686 c 0.0504,0.362302 0.33478,0.628297 0.68791,0.628297 0.21555,0 0.41734,-0.07796 0.54575,-0.215547 l 0.33973,0.316441 c -0.28011,0.233892 -0.55528,0.339372 -0.91299,0.339372"
       style="fill:#000000;fill-opacity:1;fill-rule:nonzero;stroke:none;stroke-width:0.352778"
       id="path464"
       inkscape:connector-curvature="0"
       inkscape:export-xdpi="96"
       inkscape:export-ydpi="96" />
    <path
       d="m 189.29432,93.944213 c -0.078,-0.499886 -0.38064,-0.8255 -0.78881,-0.8255 -0.37606,0 -0.65616,0.261408 -0.65616,0.609953 0,0.35313 0.27093,0.60078 0.66075,0.60078 0.30692,0 0.58702,-0.142169 0.78422,-0.385233 m 0.52282,0.307269 c 0,1.041048 -0.59619,1.73355 -1.49507,1.73355 -0.30727,0 -0.63747,-0.10548 -0.85302,-0.275166 l 0.27482,-0.371475 c 0.18379,0.132997 0.38558,0.197203 0.61947,0.197203 0.5962,0 0.94474,-0.467784 0.95356,-1.274939 -0.22436,0.298097 -0.54539,0.467783 -0.88476,0.467783 -0.62865,0 -1.07315,-0.41275 -1.07315,-0.986014 0,-0.609953 0.47695,-1.055158 1.12818,-1.055158 0.78881,0 1.32997,0.637822 1.32997,1.564216"
       style="fill:#000000;fill-opacity:1;fill-rule:nonzero;stroke:none;stroke-width:0.352778"
       id="path468"
       inkscape:connector-curvature="0"
       inkscape:export-xdpi="96"
       inkscape:export-ydpi="96" />
    <path
       d="m 169.58114,117.75396 c 0.41275,0.33937 0.71085,0.46778 1.07773,0.46778 0.42651,0 0.72002,-0.21554 0.72002,-0.50905 0,-0.26141 -0.15592,-0.38065 -0.58243,-0.45861 l -0.59161,-0.1009 c -0.55527,-0.10089 -0.8255,-0.37641 -0.8255,-0.81668 0,-0.5775 0.4632,-0.96308 1.18322,-0.96308 0.48154,0 0.92216,0.14675 1.28869,0.41769 l -0.27975,0.41239 c -0.32103,-0.24729 -0.66957,-0.37112 -1.02764,-0.37112 -0.38488,0 -0.63712,0.19262 -0.63712,0.45403 0,0.2293 0.14217,0.34854 0.4953,0.40357 l 0.56833,0.1009 c 0.64699,0.11006 0.94967,0.3944 0.94967,0.88053 0,0.58702 -0.52281,1.00436 -1.28869,1.00436 -0.50447,0 -0.94016,-0.17427 -1.34832,-0.51823 z"
       style="fill:#000000;fill-opacity:1;fill-rule:nonzero;stroke:none;stroke-width:0.352778"
       id="path472"
       inkscape:connector-curvature="0"
       inkscape:export-xdpi="96"
       inkscape:export-ydpi="96" />
    <path
       d="m 172.87397,117.29059 h 1.19732 c -0.06,-0.33937 -0.29351,-0.57327 -0.60113,-0.57327 -0.30727,0 -0.53657,0.22472 -0.59619,0.57327 m 0.65122,1.385 c -0.65581,0 -1.16945,-0.52281 -1.16945,-1.19239 0,-0.67415 0.48154,-1.1878 1.11901,-1.1878 0.62829,0 1.0869,0.49989 1.0869,1.18322 v 0.12841 h -1.69686 c 0.0505,0.3623 0.33479,0.6283 0.68792,0.6283 0.21555,0 0.41734,-0.0776 0.54575,-0.21555 l 0.33972,0.31644 c -0.2801,0.23389 -0.55527,0.33937 -0.91299,0.33937"
       style="fill:#000000;fill-opacity:1;fill-rule:nonzero;stroke:none;stroke-width:0.352778"
       id="path476"
       inkscape:connector-curvature="0"
       inkscape:export-xdpi="96"
       inkscape:export-ydpi="96" />
    <path
       d="m 175.08881,116.33216 h 0.51823 v 0.49989 c 0.12383,-0.35313 0.34396,-0.54116 0.63288,-0.54116 0.0871,0.005 0.14676,0.0138 0.22472,0.0459 v 0.45402 c -0.0825,-0.0367 -0.18803,-0.055 -0.28433,-0.055 -0.24765,0 -0.45862,0.14217 -0.57327,0.38065 v 1.51342 h -0.51823 z"
       style="fill:#000000;fill-opacity:1;fill-rule:nonzero;stroke:none;stroke-width:0.352778"
       id="path480"
       inkscape:connector-curvature="0"
       inkscape:export-xdpi="96"
       inkscape:export-ydpi="96" />
    <path
       d="m 176.6894,116.33216 h 0.56444 l 0.63712,1.67852 0.63782,-1.67852 h 0.54575 l -0.94474,2.29764 h -0.49989 z"
       style="fill:#000000;fill-opacity:1;fill-rule:nonzero;stroke:none;stroke-width:0.352778"
       id="path484"
       inkscape:connector-curvature="0"
       inkscape:export-xdpi="96"
       inkscape:export-ydpi="96" />
    <path
       d="m 179.96406,118.62998 h -0.51823 v -2.29764 h 0.51823 z m -0.58279,-3.08222 c 0,-0.17427 0.14675,-0.32103 0.32138,-0.32103 0.17886,0 0.32561,0.14676 0.32561,0.32103 0,0.17886 -0.14217,0.31644 -0.32561,0.31644 -0.17886,0 -0.32138,-0.13758 -0.32138,-0.31644"
       style="fill:#000000;fill-opacity:1;fill-rule:nonzero;stroke:none;stroke-width:0.352778"
       id="path486"
       inkscape:connector-curvature="0"
       inkscape:export-xdpi="96"
       inkscape:export-ydpi="96" />
    <path
       d="m 182.24325,117.96478 0.31186,0.31186 c -0.2159,0.24765 -0.54575,0.39899 -0.89888,0.39899 -0.65158,0 -1.16029,-0.52282 -1.16029,-1.19239 0,-0.66499 0.50447,-1.18322 1.16029,-1.18322 0.35771,0 0.68791,0.13759 0.91722,0.38524 l -0.32138,0.33478 c -0.16051,-0.17886 -0.35736,-0.27058 -0.5775,-0.27058 -0.37147,0 -0.6604,0.32103 -0.6604,0.73378 0,0.41734 0.28893,0.73378 0.67416,0.73378 0.22013,0 0.41698,-0.0871 0.55492,-0.25224"
       style="fill:#000000;fill-opacity:1;fill-rule:nonzero;stroke:none;stroke-width:0.352778"
       id="path490"
       inkscape:connector-curvature="0"
       inkscape:export-xdpi="96"
       inkscape:export-ydpi="96" />
    <path
       d="m 183.34395,117.29059 h 1.19733 c -0.0596,-0.33937 -0.29351,-0.57327 -0.60113,-0.57327 -0.30727,0 -0.53658,0.22472 -0.5962,0.57327 m 0.65123,1.385 c -0.65581,0 -1.16946,-0.52281 -1.16946,-1.19239 0,-0.67415 0.48154,-1.1878 1.11901,-1.1878 0.6283,0 1.08691,0.49989 1.08691,1.18322 v 0.12841 h -1.69686 c 0.0505,0.3623 0.33479,0.6283 0.68792,0.6283 0.21554,0 0.41733,-0.0776 0.54574,-0.21555 l 0.33973,0.31644 c -0.27975,0.23389 -0.55527,0.33937 -0.91299,0.33937"
       style="fill:#000000;fill-opacity:1;fill-rule:nonzero;stroke:none;stroke-width:0.352778"
       id="path494"
       inkscape:connector-curvature="0"
       inkscape:export-xdpi="96"
       inkscape:export-ydpi="96" />
    <path
       d="m 187.50768,118.62987 h -0.49988 v -2.68746 l -0.56833,0.2473 v -0.4445 l 0.75212,-0.32561 h 0.31609 z"
       style="fill:#000000;fill-opacity:1;fill-rule:nonzero;stroke:none;stroke-width:0.352778"
       id="path498"
       inkscape:connector-curvature="0"
       inkscape:export-xdpi="96"
       inkscape:export-ydpi="96" />
    <path
       d="m 190.19557,117.02015 c 0,-0.73837 -0.31645,-1.20615 -0.8121,-1.20615 -0.49495,0 -0.81174,0.47237 -0.81174,1.20615 0,0.74295 0.31679,1.21073 0.81174,1.21073 0.49989,0 0.8121,-0.4632 0.8121,-1.21073 m -2.12373,0 c 0,-0.9772 0.53199,-1.651 1.31163,-1.651 0.78458,0 1.31198,0.6738 1.31198,1.651 0,0.98601 -0.5274,1.65558 -1.31198,1.65558 -0.78387,0 -1.31163,-0.66957 -1.31163,-1.65558"
       style="fill:#000000;fill-opacity:1;fill-rule:nonzero;stroke:none;stroke-width:0.352778"
       id="path502"
       inkscape:connector-curvature="0"
       inkscape:export-xdpi="96"
       inkscape:export-ydpi="96" />
    <path
       d="m 172.50119,49.695403 c 0.41275,0.339372 0.71084,0.467783 1.07773,0.467783 0.42651,0 0.72002,-0.215547 0.72002,-0.509058 0,-0.261408 -0.15593,-0.380647 -0.58243,-0.458611 l -0.59161,-0.100894 c -0.55528,-0.100895 -0.8255,-0.376414 -0.8255,-0.816681 0,-0.577497 0.46319,-0.963083 1.18321,-0.963083 0.48155,0 0.92216,0.146755 1.2887,0.417689 l -0.27975,0.412397 c -0.32103,-0.247297 -0.66957,-0.371122 -1.02764,-0.371122 -0.38488,0 -0.63712,0.192616 -0.63712,0.454025 0,0.229305 0.14217,0.348544 0.4953,0.403577 l 0.56832,0.100895 c 0.647,0.110066 0.94968,0.394405 0.94968,0.880533 0,0.587022 -0.52281,1.004358 -1.28869,1.004358 -0.50448,0 -0.94016,-0.174272 -1.34832,-0.51823 z"
       style="fill:#000000;fill-opacity:1;fill-rule:nonzero;stroke:none;stroke-width:0.352778"
       id="path506"
       inkscape:connector-curvature="0"
       inkscape:export-xdpi="96"
       inkscape:export-ydpi="96" />
    <path
       d="m 175.79401,49.23203 h 1.19733 c -0.06,-0.339373 -0.29351,-0.573264 -0.60113,-0.573264 -0.30727,0 -0.53658,0.224719 -0.5962,0.573264 m 0.65123,1.385005 c -0.65581,0 -1.16946,-0.522817 -1.16946,-1.192389 0,-0.674158 0.48154,-1.187803 1.11901,-1.187803 0.6283,0 1.08691,0.499887 1.08691,1.183217 v 0.128411 h -1.69686 c 0.0505,0.362303 0.33479,0.628297 0.68792,0.628297 0.21555,0 0.41733,-0.07761 0.54575,-0.215547 l 0.33972,0.316442 c -0.28011,0.233891 -0.55527,0.339372 -0.91299,0.339372"
       style="fill:#000000;fill-opacity:1;fill-rule:nonzero;stroke:none;stroke-width:0.352778"
       id="path510"
       inkscape:connector-curvature="0"
       inkscape:export-xdpi="96"
       inkscape:export-ydpi="96" />
    <path
       d="m 178.00886,48.273603 h 0.51823 v 0.499886 c 0.12382,-0.353131 0.34396,-0.541161 0.63288,-0.541161 0.0871,0.0046 0.14676,0.01376 0.22472,0.04586 v 0.454025 c -0.0825,-0.03669 -0.18803,-0.05503 -0.28434,-0.05503 -0.24765,0 -0.45861,0.142169 -0.57326,0.380647 v 1.513416 h -0.51823 z"
       style="fill:#000000;fill-opacity:1;fill-rule:nonzero;stroke:none;stroke-width:0.352778"
       id="path514"
       inkscape:connector-curvature="0"
       inkscape:export-xdpi="96"
       inkscape:export-ydpi="96" />
    <path
       d="m 179.60945,48.273603 h 0.56444 l 0.63712,1.678517 0.63782,-1.678517 h 0.54575 l -0.94474,2.297641 h -0.49989 z"
       style="fill:#000000;fill-opacity:1;fill-rule:nonzero;stroke:none;stroke-width:0.352778"
       id="path518"
       inkscape:connector-curvature="0"
       inkscape:export-xdpi="96"
       inkscape:export-ydpi="96" />
    <path
       d="m 182.884,50.571386 h -0.51823 v -2.297642 h 0.51823 z m -0.58244,-3.08222 c 0,-0.174272 0.14676,-0.321028 0.32103,-0.321028 0.17921,0 0.32597,0.146756 0.32597,0.321028 0,0.178859 -0.14252,0.316442 -0.32597,0.316442 -0.17886,0 -0.32103,-0.137583 -0.32103,-0.316442"
       style="fill:#000000;fill-opacity:1;fill-rule:nonzero;stroke:none;stroke-width:0.352778"
       id="path520"
       inkscape:connector-curvature="0"
       inkscape:export-xdpi="96"
       inkscape:export-ydpi="96" />
    <path
       d="m 185.1633,49.906223 0.31185,0.311856 c -0.2159,0.24765 -0.54574,0.398991 -0.89888,0.398991 -0.65158,0 -1.16028,-0.522816 -1.16028,-1.192389 0,-0.664986 0.50447,-1.183216 1.16028,-1.183216 0.35772,0 0.68792,0.137583 0.91723,0.385233 l -0.32138,0.334786 c -0.16052,-0.178858 -0.35737,-0.27058 -0.5775,-0.27058 -0.37148,0 -0.6604,0.321027 -0.6604,0.733777 0,0.417337 0.28892,0.733778 0.67416,0.733778 0.22013,0 0.41698,-0.08714 0.55492,-0.252236"
       style="fill:#000000;fill-opacity:1;fill-rule:nonzero;stroke:none;stroke-width:0.352778"
       id="path524"
       inkscape:connector-curvature="0"
       inkscape:export-xdpi="96"
       inkscape:export-ydpi="96" />
    <path
       d="m 186.264,49.23203 h 1.19733 c -0.0596,-0.339373 -0.29351,-0.573264 -0.60114,-0.573264 -0.30727,0 -0.53657,0.224719 -0.59619,0.573264 m 0.65123,1.385005 c -0.65582,0 -1.16946,-0.522817 -1.16946,-1.192389 0,-0.674158 0.48154,-1.187803 1.11901,-1.187803 0.6283,0 1.08691,0.499887 1.08691,1.183217 v 0.128411 h -1.69686 c 0.0504,0.362303 0.33478,0.628297 0.68791,0.628297 0.21555,0 0.41734,-0.07761 0.54575,-0.215547 l 0.33973,0.316442 c -0.27976,0.233891 -0.55528,0.339372 -0.91299,0.339372"
       style="fill:#000000;fill-opacity:1;fill-rule:nonzero;stroke:none;stroke-width:0.352778"
       id="path528"
       inkscape:connector-curvature="0"
       inkscape:export-xdpi="96"
       inkscape:export-ydpi="96" />
    <path
       d="m 190.52869,50.617141 c -0.47237,0 -0.89887,-0.174272 -1.1878,-0.481542 l 0.33937,-0.316441 c 0.25683,0.261408 0.48648,0.357716 0.84385,0.357716 0.41275,0 0.69709,-0.215547 0.69709,-0.531989 0,-0.284339 -0.23389,-0.481541 -0.56833,-0.481541 h -0.39934 v -0.417336 h 0.35771 c 0.30727,0 0.50942,-0.188031 0.50942,-0.481542 0,-0.288925 -0.26141,-0.509058 -0.61031,-0.509058 -0.32103,0 -0.53199,0.100894 -0.79763,0.380647 l -0.33973,-0.316442 c 0.2981,-0.325614 0.71085,-0.509058 1.1557,-0.509058 0.63783,0 1.09608,0.380647 1.09608,0.898878 0,0.35313 -0.25188,0.637469 -0.62371,0.733777 0.43568,0.08714 0.72496,0.371475 0.72496,0.733778 0,0.545747 -0.49988,0.940153 -1.19733,0.940153"
       style="fill:#000000;fill-opacity:1;fill-rule:nonzero;stroke:none;stroke-width:0.352778"
       id="path532"
       inkscape:connector-curvature="0"
       inkscape:export-xdpi="96"
       inkscape:export-ydpi="96" />
    <path
       d="m 25.190293,18.480603 c 0.28011,-3.68371 3.49356,-6.44278 7.17726,-6.16267 3.2946,0.25047 5.91221,2.86843 6.16303,6.16267 z m 3.56941,-10.2714797 c 0,-1.71238 1.38818,-3.10056 3.10091,-3.10056 1.71239,0 3.10057,1.38818 3.10057,3.10056 0,1.71239 -1.38818,3.1005697 -3.10057,3.1005697 -1.71132,-0.003 -3.09739,-1.3895997 -3.10091,-3.1005697 m 5.28355,3.4215897 c 1.893,-1.20544 2.45039,-3.7172197 1.24495,-5.6102197 -1.20544,-1.89336 -3.71757,-2.45075 -5.61058,-1.24531 -1.893,1.2058 -2.45039,3.71758 -1.24495,5.6105797 0.31891,0.50095 0.74401,0.92604 1.24495,1.24495 -3.24132,0.96908 -5.46382,3.94829 -5.46946,7.33143 0.004,0.26458 0.21696,0.47802 0.48154,0.48154 h 14.34147 c 0.26459,-0.004 0.47802,-0.21696 0.48155,-0.48154 -0.006,-3.38314 -2.22815,-6.36235 -5.46947,-7.33143"
       style="fill:#000000;fill-opacity:1;fill-rule:nonzero;stroke:none;stroke-width:0.352778"
       id="path536"
       inkscape:connector-curvature="0"
       inkscape:export-xdpi="96"
       inkscape:export-ydpi="96" />
  </g>
</svg>
