<?xml version="1.0" encoding="UTF-8" standalone="no"?>
<svg
   xmlns:dc="http://purl.org/dc/elements/1.1/"
   xmlns:cc="http://creativecommons.org/ns#"
   xmlns:rdf="http://www.w3.org/1999/02/22-rdf-syntax-ns#"
   xmlns:svg="http://www.w3.org/2000/svg"
   xmlns="http://www.w3.org/2000/svg"
   xmlns:sodipodi="http://sodipodi.sourceforge.net/DTD/sodipodi-0.dtd"
   xmlns:inkscape="http://www.inkscape.org/namespaces/inkscape"
   width="200.74147mm"
   height="135.3537mm"
   viewBox="0 0 200.74147 135.3537"
   version="1.1"
   id="svg1860"
   inkscape:version="1.0.2 (e86c870879, 2021-01-15)"
   sodipodi:docname="dt.svg">
  <defs
     id="defs1854" />
  <sodipodi:namedview
     id="base"
     pagecolor="#ffffff"
     bordercolor="#666666"
     borderopacity="1.0"
     inkscape:pageopacity="0.0"
     inkscape:pageshadow="2"
     inkscape:zoom="0.35"
     inkscape:cx="379.35397"
     inkscape:cy="547.21509"
     inkscape:document-units="mm"
     inkscape:current-layer="layer1"
     inkscape:document-rotation="0"
     showgrid="false"
     inkscape:window-width="1530"
     inkscape:window-height="1205"
     inkscape:window-x="45"
     inkscape:window-y="72"
     inkscape:window-maximized="0" />
  <metadata
     id="metadata1857">
    <rdf:RDF>
      <cc:Work
         rdf:about="">
        <dc:format>image/svg+xml</dc:format>
        <dc:type
           rdf:resource="http://purl.org/dc/dcmitype/StillImage" />
        <dc:title></dc:title>
      </cc:Work>
    </rdf:RDF>
  </metadata>
  <g
     inkscape:label="Layer 1"
     inkscape:groupmode="layer"
     id="layer1"
     transform="translate(-5.4625948,-3.3826745)">
    <path
       d="M 206.20407,138.73637 H 5.4625948 V 34.76994 H 206.20407 Z"
       style="fill:#f0f0f0;fill-opacity:1;fill-rule:nonzero;stroke:none;stroke-width:0.352778"
       id="path538"
       inkscape:connector-curvature="0"
       inkscape:export-xdpi="96"
       inkscape:export-ydpi="96" />
    <path
       d="m 86.772925,84.786419 h -36.4938 V 71.933314 h 36.4938 z"
       style="fill:#ffffff;fill-opacity:1;fill-rule:nonzero;stroke:none;stroke-width:0.352778"
       id="path540"
       inkscape:connector-curvature="0"
       inkscape:export-xdpi="96"
       inkscape:export-ydpi="96" />
    <path
       d="m 50.543715,84.521836 h 35.96463 V 72.197897 h -35.96463 z m 36.4938,0.529167 H 50.014545 V 71.668731 h 37.02297 z"
       style="fill:#99c2eb;fill-opacity:1;fill-rule:nonzero;stroke:none;stroke-width:0.352778"
       id="path542"
       inkscape:connector-curvature="0"
       inkscape:export-xdpi="96"
       inkscape:export-ydpi="96" />
    <path
       d="m 152.56809,123.10338 h -36.49344 v -12.85311 h 36.49344 z"
       style="fill:#ffffff;fill-opacity:1;fill-rule:nonzero;stroke:none;stroke-width:0.352778"
       id="path544"
       inkscape:connector-curvature="0"
       inkscape:export-xdpi="96"
       inkscape:export-ydpi="96" />
    <path
       d="m 116.33923,122.83879 h 35.96428 v -12.32393 h -35.96428 z m 36.49345,0.52917 h -37.02262 v -13.38227 h 37.02262 z"
       style="fill:#99c2eb;fill-opacity:1;fill-rule:nonzero;stroke:none;stroke-width:0.352778"
       id="path546"
       inkscape:connector-curvature="0"
       inkscape:export-xdpi="96"
       inkscape:export-ydpi="96" />
    <path
       d="M 143.74865,100.4173 H 107.2552 V 87.564192 h 36.49345 z"
       style="fill:#ffffff;fill-opacity:1;fill-rule:nonzero;stroke:none;stroke-width:0.352778"
       id="path548"
       inkscape:connector-curvature="0"
       inkscape:export-xdpi="96"
       inkscape:export-ydpi="96" />
    <path
       d="m 107.51978,100.15271 h 35.96429 V 87.828775 h -35.96429 z m 36.49345,0.52917 H 106.99062 V 87.299608 h 37.02261 z"
       style="fill:#99c2eb;fill-opacity:1;fill-rule:nonzero;stroke:none;stroke-width:0.352778"
       id="path550"
       inkscape:connector-curvature="0"
       inkscape:export-xdpi="96"
       inkscape:export-ydpi="96" />
    <path
       d="m 199.52423,123.10338 h -36.49345 v -12.85311 h 36.49345 z"
       style="fill:#d9e8f7;fill-opacity:1;fill-rule:nonzero;stroke:none;stroke-width:0.352778"
       id="path552"
       inkscape:connector-curvature="0"
       inkscape:export-xdpi="96"
       inkscape:export-ydpi="96" />
    <path
       d="m 163.20681,122.92699 h 36.14068 v -12.50033 h -36.14068 z m 36.49381,0.35278 h -36.84623 v -13.20589 h 36.84623 z"
       style="fill:#0066cc;fill-opacity:1;fill-rule:nonzero;stroke:none;stroke-width:0.352778"
       id="path554"
       inkscape:connector-curvature="0"
       inkscape:export-xdpi="96"
       inkscape:export-ydpi="96" />
    <path
       d="M 100.62792,111.76016 H 64.134475 V 98.907055 h 36.493445 z"
       style="fill:#ffffff;fill-opacity:1;fill-rule:nonzero;stroke:none;stroke-width:0.352778"
       id="path556"
       inkscape:connector-curvature="0"
       inkscape:export-xdpi="96"
       inkscape:export-ydpi="96" />
    <path
       d="M 64.398705,111.49558 H 100.36298 V 99.171639 H 64.398705 Z m 36.493795,0.52916 H 63.869895 V 98.642472 H 100.8925 Z"
       style="fill:#99c2eb;fill-opacity:1;fill-rule:nonzero;stroke:none;stroke-width:0.352778"
       id="path558"
       inkscape:connector-curvature="0"
       inkscape:export-xdpi="96"
       inkscape:export-ydpi="96" />
    <path
       d="M 161.94034,77.730864 H 125.44689 V 64.877759 h 36.49345 z"
       style="fill:#ffffff;fill-opacity:1;fill-rule:nonzero;stroke:none;stroke-width:0.352778"
       id="path560"
       inkscape:connector-curvature="0"
       inkscape:export-xdpi="96"
       inkscape:export-ydpi="96" />
    <path
       d="m 125.71148,77.466281 h 35.96428 V 65.142342 h -35.96428 z m 36.49345,0.529166 H 125.18231 V 64.613175 h 37.02262 z"
       style="fill:#99c2eb;fill-opacity:1;fill-rule:nonzero;stroke:none;stroke-width:0.352778"
       id="path562"
       inkscape:connector-curvature="0"
       inkscape:export-xdpi="96"
       inkscape:export-ydpi="96" />
    <path
       d="m 85.873315,48.56503 h -36.45465 c -0.0977,0 -0.17639,-0.079 -0.17639,-0.17639 0,-0.0974 0.0787,-0.17639 0.17639,-0.17639 h 36.45465 c 0.0974,0 0.17638,0.079 0.17638,0.17639 0,0.0974 -0.079,0.17639 -0.17638,0.17639"
       style="fill:#0066cc;fill-opacity:1;fill-rule:nonzero;stroke:none;stroke-width:0.352778"
       id="path566"
       inkscape:connector-curvature="0"
       inkscape:export-xdpi="96"
       inkscape:export-ydpi="96" />
    <path
       d="m 85.538805,49.53171 1.97979,-1.143 -1.97979,-1.14335 z"
       style="fill:#0066cc;fill-opacity:1;fill-rule:nonzero;stroke:none;stroke-width:0.352778"
       id="path570"
       inkscape:connector-curvature="0"
       inkscape:export-xdpi="96"
       inkscape:export-ydpi="96" />
    <path
       d="m 160.92628,48.56503 h -36.45499 c -0.0974,0 -0.17639,-0.079 -0.17639,-0.17639 0,-0.0974 0.079,-0.17639 0.17639,-0.17639 h 36.45499 c 0.0974,0 0.17639,0.079 0.17639,0.17639 0,0.0974 -0.079,0.17639 -0.17639,0.17639"
       style="fill:#0066cc;fill-opacity:1;fill-rule:nonzero;stroke:none;stroke-width:0.352778"
       id="path574"
       inkscape:connector-curvature="0"
       inkscape:export-xdpi="96"
       inkscape:export-ydpi="96" />
    <path
       d="m 160.59174,49.53171 1.97979,-1.143 -1.97979,-1.14335 z"
       style="fill:#0066cc;fill-opacity:1;fill-rule:nonzero;stroke:none;stroke-width:0.352778"
       id="path578"
       inkscape:connector-curvature="0"
       inkscape:export-xdpi="96"
       inkscape:export-ydpi="96" />
    <path
       d="m 181.27747,85.829583 c -0.0974,0 -0.17639,-0.07902 -0.17639,-0.176389 V 55.23105 c 0,-0.0977 0.079,-0.17639 0.17639,-0.17639 0.0974,0 0.17639,0.0787 0.17639,0.17639 v 30.422144 c 0,0.09737 -0.079,0.176389 -0.17639,0.176389"
       style="fill:#0066cc;fill-opacity:1;fill-rule:nonzero;stroke:none;stroke-width:0.352778"
       id="path582"
       inkscape:connector-curvature="0"
       inkscape:export-xdpi="96"
       inkscape:export-ydpi="96" />
    <path
       d="m 180.13404,85.318691 1.14336,1.979788 1.143,-1.979788 z"
       style="fill:#0066cc;fill-opacity:1;fill-rule:nonzero;stroke:none;stroke-width:0.352778"
       id="path586"
       inkscape:connector-curvature="0"
       inkscape:export-xdpi="96"
       inkscape:export-ydpi="96" />
    <path
       d="m 181.27747,108.71883 c -0.0974,0 -0.17639,-0.079 -0.17639,-0.17639 v -8.02887 c 0,-0.0974 0.079,-0.17639 0.17639,-0.17639 0.0974,0 0.17639,0.079 0.17639,0.17639 v 8.02887 c 0,0.0974 -0.079,0.17639 -0.17639,0.17639"
       style="fill:#0066cc;fill-opacity:1;fill-rule:nonzero;stroke:none;stroke-width:0.352778"
       id="path590"
       inkscape:connector-curvature="0"
       inkscape:export-xdpi="96"
       inkscape:export-ydpi="96" />
    <path
       d="m 180.13404,108.2079 1.14336,1.97979 1.143,-1.97979 z"
       style="fill:#0066cc;fill-opacity:1;fill-rule:nonzero;stroke:none;stroke-width:0.352778"
       id="path594"
       inkscape:connector-curvature="0"
       inkscape:export-xdpi="96"
       inkscape:export-ydpi="96" />
    <path
       d="m 125.67796,108.54247 h -0.35278 v -8.02886 h 0.35278 z"
       style="fill:#000000;fill-opacity:1;fill-rule:nonzero;stroke:none;stroke-width:0.352778"
       id="path596"
       inkscape:connector-curvature="0"
       inkscape:export-xdpi="96"
       inkscape:export-ydpi="96" />
    <path
       d="m 124.35864,108.2079 1.143,1.97979 1.14336,-1.97979 z"
       style="fill:#000000;fill-opacity:1;fill-rule:nonzero;stroke:none;stroke-width:0.352778"
       id="path600"
       inkscape:connector-curvature="0"
       inkscape:export-xdpi="96"
       inkscape:export-ydpi="96" />
    <path
       d="m 30.942145,40.6923 c -0.0974,0 -0.17639,-0.079 -0.17639,-0.17639 V 26.36847 c 0,-0.0974 0.079,-0.17639 0.17639,-0.17639 0.0974,0 0.17639,0.079 0.17639,0.17639 v 14.14744 c 0,0.0974 -0.079,0.17639 -0.17639,0.17639"
       style="fill:#0066cc;fill-opacity:1;fill-rule:nonzero;stroke:none;stroke-width:0.352778"
       id="path604"
       inkscape:connector-curvature="0"
       inkscape:export-xdpi="96"
       inkscape:export-ydpi="96" />
    <path
       d="m 29.798865,40.18141 1.14335,1.98014 1.143,-1.98014 z"
       style="fill:#0066cc;fill-opacity:1;fill-rule:nonzero;stroke:none;stroke-width:0.352778"
       id="path608"
       inkscape:connector-curvature="0"
       inkscape:export-xdpi="96"
       inkscape:export-ydpi="96" />
    <path
       d="m 49.189045,55.04443 h -36.49345 v -12.8531 h 36.49345 z"
       style="fill:#d9e8f7;fill-opacity:1;fill-rule:nonzero;stroke:none;stroke-width:0.352778"
       id="path610"
       inkscape:connector-curvature="0"
       inkscape:export-xdpi="96"
       inkscape:export-ydpi="96" />
    <path
       d="m 12.871635,54.86804 h 36.14067 V 42.36771 h -36.14067 z m 36.4938,0.35278 H 12.519205 V 42.01494 h 36.84623 z"
       style="fill:#0066cc;fill-opacity:1;fill-rule:nonzero;stroke:none;stroke-width:0.352778"
       id="path612"
       inkscape:connector-curvature="0"
       inkscape:export-xdpi="96"
       inkscape:export-ydpi="96" />
    <path
       d="M 124.35646,55.04443 H 87.863015 v -12.8531 h 36.493445 z"
       style="fill:#d9e8f7;fill-opacity:1;fill-rule:nonzero;stroke:none;stroke-width:0.352778"
       id="path614"
       inkscape:connector-curvature="0"
       inkscape:export-xdpi="96"
       inkscape:export-ydpi="96" />
    <path
       d="M 88.039405,54.86804 H 124.18007 V 42.36771 H 88.039405 Z m 36.493445,0.35278 H 87.686625 V 42.01494 h 36.846225 z"
       style="fill:#0066cc;fill-opacity:1;fill-rule:nonzero;stroke:none;stroke-width:0.352778"
       id="path616"
       inkscape:connector-curvature="0"
       inkscape:export-xdpi="96"
       inkscape:export-ydpi="96" />
    <path
       d="m 199.52423,55.04443 h -36.49345 v -12.8531 h 36.49345 z"
       style="fill:#d9e8f7;fill-opacity:1;fill-rule:nonzero;stroke:none;stroke-width:0.352778"
       id="path618"
       inkscape:connector-curvature="0"
       inkscape:export-xdpi="96"
       inkscape:export-ydpi="96" />
    <path
       d="m 163.20681,54.86804 h 36.14068 V 42.36771 h -36.14068 z m 36.49381,0.35278 H 162.85439 V 42.01494 h 36.84623 z"
       style="fill:#0066cc;fill-opacity:1;fill-rule:nonzero;stroke:none;stroke-width:0.352778"
       id="path620"
       inkscape:connector-curvature="0"
       inkscape:export-xdpi="96"
       inkscape:export-ydpi="96" />
    <path
       d="m 120.48013,85.653194 h -0.35277 V 55.23105 h 0.35277 z"
       style="fill:#000000;fill-opacity:1;fill-rule:nonzero;stroke:none;stroke-width:0.352778"
       id="path622"
       inkscape:connector-curvature="0"
       inkscape:export-xdpi="96"
       inkscape:export-ydpi="96" />
    <path
       d="m 119.16032,85.318691 1.14336,1.979788 1.14335,-1.979788 z"
       style="fill:#000000;fill-opacity:1;fill-rule:nonzero;stroke:none;stroke-width:0.352778"
       id="path626"
       inkscape:connector-curvature="0"
       inkscape:export-xdpi="96"
       inkscape:export-ydpi="96" />
    <path
       d="m 91.779555,97.220777 h -0.35278 V 55.23105 h 0.35278 z"
       style="fill:#000000;fill-opacity:1;fill-rule:nonzero;stroke:none;stroke-width:0.352778"
       id="path628"
       inkscape:connector-curvature="0"
       inkscape:export-xdpi="96"
       inkscape:export-ydpi="96" />
    <path
       d="m 90.459775,96.886274 1.143,1.979788 1.14335,-1.979788 z"
       style="fill:#000000;fill-opacity:1;fill-rule:nonzero;stroke:none;stroke-width:0.352778"
       id="path632"
       inkscape:connector-curvature="0"
       inkscape:export-xdpi="96"
       inkscape:export-ydpi="96" />
    <path
       d="m 121.4351,60.748142 h -2.26271 V 59.33562 h 2.26271 z"
       style="fill:#e6e6e6;fill-opacity:1;fill-rule:nonzero;stroke:none;stroke-width:0.352778"
       id="path634"
       inkscape:connector-curvature="0"
       inkscape:export-xdpi="96"
       inkscape:export-ydpi="96" />
    <path
       d="m 92.711595,60.708631 h -2.26272 v -1.412522 h 2.26272 z"
       style="fill:#e6e6e6;fill-opacity:1;fill-rule:nonzero;stroke:none;stroke-width:0.352778"
       id="path636"
       inkscape:connector-curvature="0"
       inkscape:export-xdpi="96"
       inkscape:export-ydpi="96" />
    <path
       d="m 68.687815,70.18784 h -0.35278 V 59.875088 H 175.37909 V 55.0445 h 0.35278 v 5.183366 H 68.687815 Z"
       style="fill:#000000;fill-opacity:1;fill-rule:nonzero;stroke:none;stroke-width:0.352778"
       id="path640"
       inkscape:connector-curvature="0"
       inkscape:export-xdpi="96"
       inkscape:export-ydpi="96" />
    <path
       d="m 67.368145,69.853301 1.14335,1.979789 1.14335,-1.979789 z"
       style="fill:#000000;fill-opacity:1;fill-rule:nonzero;stroke:none;stroke-width:0.352778"
       id="path644"
       inkscape:connector-curvature="0"
       inkscape:export-xdpi="96"
       inkscape:export-ydpi="96" />
    <path
       d="m 121.4351,71.906503 h -2.26271 v -1.345142 h 2.26271 z"
       style="fill:#e6e6e6;fill-opacity:1;fill-rule:nonzero;stroke:none;stroke-width:0.352778"
       id="path646"
       inkscape:connector-curvature="0"
       inkscape:export-xdpi="96"
       inkscape:export-ydpi="96" />
    <path
       d="m 96.875215,97.214604 h -0.35278 V 71.136213 H 125.404 v 0.352778 H 96.875215 Z"
       style="fill:#000000;fill-opacity:1;fill-rule:nonzero;stroke:none;stroke-width:0.352778"
       id="path650"
       inkscape:connector-curvature="0"
       inkscape:export-xdpi="96"
       inkscape:export-ydpi="96" />
    <path
       d="m 95.555575,96.8801 1.143,1.979789 1.14336,-1.979789 z"
       style="fill:#000000;fill-opacity:1;fill-rule:nonzero;stroke:none;stroke-width:0.352778"
       id="path654"
       inkscape:connector-curvature="0"
       inkscape:export-xdpi="96"
       inkscape:export-ydpi="96" />
    <path
       d="m 175.73191,85.942931 h -0.35278 V 71.48892 h -13.0429 v -0.352778 h 13.39568 z"
       style="fill:#000000;fill-opacity:1;fill-rule:nonzero;stroke:none;stroke-width:0.352778"
       id="path658"
       inkscape:connector-curvature="0"
       inkscape:export-xdpi="96"
       inkscape:export-ydpi="96" />
    <path
       d="m 174.41209,85.608427 1.14336,1.980142 1.14335,-1.980142 z"
       style="fill:#000000;fill-opacity:1;fill-rule:nonzero;stroke:none;stroke-width:0.352778"
       id="path662"
       inkscape:connector-curvature="0"
       inkscape:export-xdpi="96"
       inkscape:export-ydpi="96" />
    <path
       d="m 13.566775,132.7177 -0.70167,-3.21063 h 0.55951 l 0.47695,2.35267 0.68792,-2.35267 h 0.52281 l 0.68792,2.35267 0.47696,-2.35267 h 0.54116 l -0.70168,3.21063 h -0.57326 l -0.70168,-2.43522 -0.70167,2.43522 z"
       style="fill:#000000;fill-opacity:1;fill-rule:nonzero;stroke:none;stroke-width:0.352778"
       id="path666"
       inkscape:connector-curvature="0"
       inkscape:export-xdpi="96"
       inkscape:export-ydpi="96" />
    <path
       d="m 17.827105,132.71763 h -0.51824 v -2.29799 h 0.51824 z m -0.58244,-3.08187 c 0,-0.17427 0.14675,-0.32102 0.32103,-0.32102 0.17886,0 0.32561,0.14675 0.32561,0.32102 0,0.17886 -0.14217,0.31609 -0.32561,0.31609 -0.17886,0 -0.32103,-0.13723 -0.32103,-0.31609"
       style="fill:#000000;fill-opacity:1;fill-rule:nonzero;stroke:none;stroke-width:0.352778"
       id="path668"
       inkscape:connector-curvature="0"
       inkscape:export-xdpi="96"
       inkscape:export-ydpi="96" />
    <path
       d="m 18.748905,130.83253 h -0.46319 v -0.41275 h 0.46319 v -0.63289 l 0.51823,-0.10971 v 0.7426 h 0.64241 v 0.41275 h -0.64241 v 1.16522 c 0,0.22437 0.0871,0.31186 0.32103,0.31186 0.10548,0 0.17463,-0.0141 0.31186,-0.0554 v 0.43603 c -0.133,0.0413 -0.30692,0.0639 -0.44486,0.0639 -0.46319,0 -0.70626,-0.22013 -0.70626,-0.64206 z"
       style="fill:#000000;fill-opacity:1;fill-rule:nonzero;stroke:none;stroke-width:0.352778"
       id="path672"
       inkscape:connector-curvature="0"
       inkscape:export-xdpi="96"
       inkscape:export-ydpi="96" />
    <path
       d="m 20.363295,129.43831 0.51823,-0.0871 v 1.44498 c 0.17427,-0.27093 0.42192,-0.41275 0.72919,-0.41275 0.46778,0 0.79339,0.33937 0.79339,0.82092 v 1.51341 h -0.51823 v -1.36666 c 0,-0.33479 -0.1972,-0.55069 -0.50447,-0.55069 -0.20637,0 -0.37606,0.0967 -0.49988,0.27552 v 1.64183 h -0.51823 z"
       style="fill:#000000;fill-opacity:1;fill-rule:nonzero;stroke:none;stroke-width:0.352778"
       id="path676"
       inkscape:connector-curvature="0"
       inkscape:export-xdpi="96"
       inkscape:export-ydpi="96" />
    <path
       d="m 24.678605,129.98403 v 2.25636 h 0.63747 c 0.57785,0 1.02729,-0.48577 1.02729,-1.12324 0,-0.63782 -0.44944,-1.13312 -1.02729,-1.13312 z m -0.55033,-0.47696 h 1.1744 c 0.92639,0 1.60972,0.70203 1.60972,1.61008 0,0.90311 -0.68333,1.60055 -1.60972,1.60055 h -1.1744 z"
       style="fill:#000000;fill-opacity:1;fill-rule:nonzero;stroke:none;stroke-width:0.352778"
       id="path680"
       inkscape:connector-curvature="0"
       inkscape:export-xdpi="96"
       inkscape:export-ydpi="96" />
    <path
       d="m 27.985335,132.71763 h -0.51823 v -2.29799 h 0.51823 z m -0.58244,-3.08187 c 0,-0.17427 0.14676,-0.32102 0.32103,-0.32102 0.17886,0 0.32562,0.14675 0.32562,0.32102 0,0.17886 -0.14217,0.31609 -0.32562,0.31609 -0.17886,0 -0.32103,-0.13723 -0.32103,-0.31609"
       style="fill:#000000;fill-opacity:1;fill-rule:nonzero;stroke:none;stroke-width:0.352778"
       id="path682"
       inkscape:connector-curvature="0"
       inkscape:export-xdpi="96"
       inkscape:export-ydpi="96" />
    <path
       d="m 28.659425,132.10309 c 0.2981,0.18803 0.50447,0.26141 0.73836,0.26141 0.27517,0 0.4632,-0.12383 0.4632,-0.30727 0,-0.14217 -0.0963,-0.22013 -0.31644,-0.26141 l -0.40817,-0.0688 c -0.44485,-0.0826 -0.66498,-0.28892 -0.66498,-0.63288 0,-0.4311 0.35313,-0.71085 0.8897,-0.71085 0.32103,0 0.60996,0.0871 0.90347,0.27482 l -0.24307,0.33972 c -0.23847,-0.15169 -0.45861,-0.22013 -0.6925,-0.22013 -0.23848,0 -0.3944,0.10054 -0.3944,0.27058 0,0.14675 0.0825,0.21061 0.32561,0.25223 l 0.40358,0.0734 c 0.45861,0.0871 0.67874,0.29775 0.67874,0.64206 0,0.42192 -0.40358,0.74754 -0.93557,0.74754 -0.39899,0 -0.74753,-0.11007 -0.9906,-0.31186 z"
       style="fill:#000000;fill-opacity:1;fill-rule:nonzero;stroke:none;stroke-width:0.352778"
       id="path686"
       inkscape:connector-curvature="0"
       inkscape:export-xdpi="96"
       inkscape:export-ydpi="96" />
    <path
       d="m 31.057885,130.83253 h -0.46319 v -0.41275 h 0.46319 v -0.63289 l 0.51823,-0.10971 v 0.7426 h 0.64206 v 0.41275 h -0.64206 v 1.16522 c 0,0.22437 0.0871,0.31186 0.32103,0.31186 0.10548,0 0.17427,-0.0141 0.31186,-0.0554 v 0.43603 c -0.133,0.0413 -0.30727,0.0639 -0.44485,0.0639 -0.4632,0 -0.70627,-0.22013 -0.70627,-0.64206 z"
       style="fill:#000000;fill-opacity:1;fill-rule:nonzero;stroke:none;stroke-width:0.352778"
       id="path690"
       inkscape:connector-curvature="0"
       inkscape:export-xdpi="96"
       inkscape:export-ydpi="96" />
    <path
       d="m 32.672095,130.41981 h 0.51823 v 0.49989 c 0.12383,-0.35313 0.34396,-0.54116 0.63288,-0.54116 0.0871,0.005 0.14676,0.0138 0.22472,0.0459 v 0.45402 c -0.0825,-0.0367 -0.18803,-0.0547 -0.28434,-0.0547 -0.24765,0 -0.45861,0.14182 -0.57326,0.38065 v 1.51342 h -0.51823 z"
       style="fill:#000000;fill-opacity:1;fill-rule:nonzero;stroke:none;stroke-width:0.352778"
       id="path694"
       inkscape:connector-curvature="0"
       inkscape:export-xdpi="96"
       inkscape:export-ydpi="96" />
    <path
       d="m 34.992565,132.71763 h -0.51823 v -2.29799 h 0.51823 z m -0.58244,-3.08187 c 0,-0.17427 0.14676,-0.32102 0.32103,-0.32102 0.17886,0 0.32561,0.14675 0.32561,0.32102 0,0.17886 -0.14217,0.31609 -0.32561,0.31609 -0.17886,0 -0.32103,-0.13723 -0.32103,-0.31609"
       style="fill:#000000;fill-opacity:1;fill-rule:nonzero;stroke:none;stroke-width:0.352778"
       id="path696"
       inkscape:connector-curvature="0"
       inkscape:export-xdpi="96"
       inkscape:export-ydpi="96" />
    <path
       d="m 36.148365,131.09401 v 0.95849 c 0.133,0.16052 0.3302,0.25259 0.55034,0.25259 0.3944,0 0.68333,-0.31221 0.68333,-0.73378 0,-0.41768 -0.29352,-0.73413 -0.68333,-0.73413 -0.22931,0 -0.41275,0.0875 -0.55034,0.25683 m 0.66957,1.64641 c -0.27058,0 -0.51364,-0.11465 -0.67874,-0.32103 v 0.29845 h -0.50906 v -3.27942 l 0.51823,-0.0871 v 1.37583 c 0.16052,-0.20179 0.41734,-0.32561 0.70626,-0.32561 0.58244,0 1.04105,0.51823 1.04105,1.16981 0,0.65546 -0.47237,1.16911 -1.07774,1.16911"
       style="fill:#000000;fill-opacity:1;fill-rule:nonzero;stroke:none;stroke-width:0.352778"
       id="path700"
       inkscape:connector-curvature="0"
       inkscape:export-xdpi="96"
       inkscape:export-ydpi="96" />
    <path
       d="m 38.936825,131.78647 c 0,0.33479 0.19721,0.55069 0.50448,0.55069 0.21096,0 0.38064,-0.0967 0.50447,-0.28469 v -1.63266 h 0.51823 v 2.298 h -0.51823 v -0.38065 c -0.17427,0.27023 -0.42192,0.41698 -0.73378,0.41698 -0.46778,0 -0.7934,-0.33478 -0.7934,-0.82091 v -1.51342 h 0.51823 z"
       style="fill:#000000;fill-opacity:1;fill-rule:nonzero;stroke:none;stroke-width:0.352778"
       id="path704"
       inkscape:connector-curvature="0"
       inkscape:export-xdpi="96"
       inkscape:export-ydpi="96" />
    <path
       d="m 41.385595,130.83253 h -0.46319 v -0.41275 h 0.46319 v -0.63289 l 0.51824,-0.10971 v 0.7426 h 0.64205 v 0.41275 h -0.64205 v 1.16522 c 0,0.22437 0.0871,0.31186 0.32102,0.31186 0.10548,0 0.17428,-0.0141 0.31186,-0.0554 v 0.43603 c -0.133,0.0413 -0.30727,0.0639 -0.44485,0.0639 -0.4632,0 -0.70627,-0.22013 -0.70627,-0.64206 z"
       style="fill:#000000;fill-opacity:1;fill-rule:nonzero;stroke:none;stroke-width:0.352778"
       id="path708"
       inkscape:connector-curvature="0"
       inkscape:export-xdpi="96"
       inkscape:export-ydpi="96" />
    <path
       d="m 43.380485,131.37824 h 1.19698 c -0.0596,-0.33937 -0.29351,-0.57327 -0.60078,-0.57327 -0.30727,0 -0.53658,0.22508 -0.5962,0.57327 m 0.65123,1.38536 c -0.65581,0 -1.16946,-0.52317 -1.16946,-1.19239 0,-0.67416 0.48154,-1.1878 1.11901,-1.1878 0.6283,0 1.08691,0.49988 1.08691,1.18286 v 0.12841 h -1.69686 c 0.0505,0.36266 0.33479,0.62865 0.68792,0.62865 0.21554,0 0.41733,-0.078 0.54574,-0.2159 l 0.33938,0.31679 c -0.27976,0.2339 -0.55492,0.33938 -0.91264,0.33938"
       style="fill:#000000;fill-opacity:1;fill-rule:nonzero;stroke:none;stroke-width:0.352778"
       id="path712"
       inkscape:connector-curvature="0"
       inkscape:export-xdpi="96"
       inkscape:export-ydpi="96" />
    <path
       d="m 46.700695,132.30499 c 0.22013,0 0.40816,-0.0871 0.54574,-0.25259 v -0.96767 c -0.13299,-0.15558 -0.3302,-0.2473 -0.54574,-0.2473 -0.39441,0 -0.68333,0.31186 -0.68333,0.73378 0,0.41733 0.29351,0.73378 0.68333,0.73378 m 0.55068,0.10548 c -0.16086,0.20637 -0.41769,0.32984 -0.70661,0.32984 -0.58244,0 -1.04105,-0.51787 -1.04105,-1.1691 0,-0.65582 0.47237,-1.16981 1.07315,-1.16981 0.266,0 0.49989,0.11006 0.66957,0.30303 v -1.26612 l 0.51859,-0.0871 v 3.36656 h -0.51365 z"
       style="fill:#000000;fill-opacity:1;fill-rule:nonzero;stroke:none;stroke-width:0.352778"
       id="path716"
       inkscape:connector-curvature="0"
       inkscape:export-xdpi="96"
       inkscape:export-ydpi="96" />
    <path
       d="m 49.232325,129.50721 h 2.69664 v 0.47696 h -1.06857 v 2.73367 h -0.55033 v -2.73367 h -1.07774 z"
       style="fill:#000000;fill-opacity:1;fill-rule:nonzero;stroke:none;stroke-width:0.352778"
       id="path720"
       inkscape:connector-curvature="0"
       inkscape:export-xdpi="96"
       inkscape:export-ydpi="96" />
    <path
       d="m 52.190265,130.41981 h 0.51823 v 0.49989 c 0.12383,-0.35313 0.34396,-0.54116 0.63288,-0.54116 0.0871,0.005 0.14676,0.0138 0.22472,0.0459 v 0.45402 c -0.0825,-0.0367 -0.18803,-0.0547 -0.28434,-0.0547 -0.24765,0 -0.45861,0.14182 -0.57326,0.38065 v 1.51342 h -0.51823 z"
       style="fill:#000000;fill-opacity:1;fill-rule:nonzero;stroke:none;stroke-width:0.352778"
       id="path724"
       inkscape:connector-curvature="0"
       inkscape:export-xdpi="96"
       inkscape:export-ydpi="96" />
    <path
       d="m 54.753935,132.39212 c 0.20638,0 0.38524,-0.06 0.54116,-0.18803 v -0.37641 c -0.1651,-0.0776 -0.3302,-0.10972 -0.53199,-0.10972 -0.29351,0 -0.47695,0.12806 -0.47695,0.32985 0,0.21096 0.18344,0.34431 0.46778,0.34431 m -0.95391,-0.33478 c 0,-0.41275 0.33479,-0.67416 0.87595,-0.67416 0.21555,0 0.41275,0.0459 0.61912,0.14181 v -0.25223 c 0,-0.30233 -0.17427,-0.45861 -0.5274,-0.45861 -0.19262,0 -0.40358,0.0554 -0.66957,0.17886 l -0.18345,-0.37571 c 0.34396,-0.16052 0.64665,-0.23389 0.95391,-0.23389 0.5962,0 0.94016,0.30233 0.94016,0.83467 v 1.49966 h -0.51365 v -0.2339 c -0.20637,0.18803 -0.42192,0.27023 -0.68333,0.27023 -0.48154,0 -0.81174,-0.28398 -0.81174,-0.69673"
       style="fill:#000000;fill-opacity:1;fill-rule:nonzero;stroke:none;stroke-width:0.352778"
       id="path728"
       inkscape:connector-curvature="0"
       inkscape:export-xdpi="96"
       inkscape:export-ydpi="96" />
    <path
       d="m 58.078795,132.05243 0.31186,0.31221 c -0.21555,0.24765 -0.54575,0.39899 -0.89888,0.39899 -0.65123,0 -1.16029,-0.52317 -1.16029,-1.19239 0,-0.66534 0.50448,-1.18357 1.16029,-1.18357 0.35772,0 0.68792,0.13759 0.91757,0.38524 l -0.32138,0.33478 c -0.16051,-0.17885 -0.35771,-0.27022 -0.57785,-0.27022 -0.37147,0 -0.6604,0.32067 -0.6604,0.73377 0,0.41699 0.28893,0.73378 0.67416,0.73378 0.22014,0 0.41734,-0.0871 0.55492,-0.25259"
       style="fill:#000000;fill-opacity:1;fill-rule:nonzero;stroke:none;stroke-width:0.352778"
       id="path732"
       inkscape:connector-curvature="0"
       inkscape:export-xdpi="96"
       inkscape:export-ydpi="96" />
    <path
       d="m 59.353625,132.71763 h -0.51823 v -2.29799 h 0.51823 z m -0.58243,-3.08187 c 0,-0.17427 0.14675,-0.32102 0.32103,-0.32102 0.17885,0 0.32561,0.14675 0.32561,0.32102 0,0.17886 -0.14217,0.31609 -0.32561,0.31609 -0.17886,0 -0.32103,-0.13723 -0.32103,-0.31609"
       style="fill:#000000;fill-opacity:1;fill-rule:nonzero;stroke:none;stroke-width:0.352778"
       id="path734"
       inkscape:connector-curvature="0"
       inkscape:export-xdpi="96"
       inkscape:export-ydpi="96" />
    <path
       d="m 59.991165,130.41981 h 0.51824 v 0.37606 c 0.17427,-0.27058 0.42192,-0.41275 0.72919,-0.41275 0.46778,0 0.79339,0.33938 0.79339,0.82127 v 1.51342 h -0.51823 v -1.36666 c 0,-0.33514 -0.1972,-0.55069 -0.50447,-0.55069 -0.20637,0 -0.37606,0.0967 -0.49988,0.27517 v 1.64218 h -0.51824 z"
       style="fill:#000000;fill-opacity:1;fill-rule:nonzero;stroke:none;stroke-width:0.352778"
       id="path738"
       inkscape:connector-curvature="0"
       inkscape:export-xdpi="96"
       inkscape:export-ydpi="96" />
    <path
       d="m 63.751855,132.30015 c 0.22013,0 0.40816,-0.0871 0.54574,-0.25223 v -0.96309 c -0.13299,-0.15592 -0.3302,-0.24729 -0.54574,-0.24729 -0.39441,0 -0.68333,0.30727 -0.68333,0.72883 0,0.41769 0.29351,0.73378 0.68333,0.73378 m -1.19733,-0.73378 c 0,-0.65546 0.47272,-1.16487 1.0735,-1.16487 0.266,0 0.50447,0.11007 0.67416,0.31186 v -0.29351 h 0.51364 v 2.3756 c 0,0.59161 -0.38523,0.91758 -1.08232,0.91758 -0.3302,0 -0.65123,-0.0783 -0.92216,-0.22014 l 0.18345,-0.38558 c 0.26634,0.133 0.48648,0.19755 0.71578,0.19755 0.38523,0 0.58702,-0.17427 0.58702,-0.50941 v -0.38982 c -0.16051,0.20179 -0.41733,0.32597 -0.70167,0.32597 -0.58244,0 -1.0414,-0.51858 -1.0414,-1.16523"
       style="fill:#000000;fill-opacity:1;fill-rule:nonzero;stroke:none;stroke-width:0.352778"
       id="path742"
       inkscape:connector-curvature="0"
       inkscape:export-xdpi="96"
       inkscape:export-ydpi="96" />
    <path
       d="m 22.017785,48.93919 c 0.41275,0.33937 0.71084,0.46778 1.07773,0.46778 0.42651,0 0.72002,-0.21555 0.72002,-0.50906 0,-0.2614 -0.15592,-0.38064 -0.58243,-0.45861 l -0.59161,-0.10089 c -0.55492,-0.1009 -0.8255,-0.37642 -0.8255,-0.81668 0,-0.5775 0.4632,-0.96273 1.18322,-0.96273 0.48154,0 0.9218,0.14675 1.28869,0.41733 l -0.27975,0.4124 c -0.32103,-0.2473 -0.66957,-0.37112 -1.02729,-0.37112 -0.38523,0 -0.63747,0.19261 -0.63747,0.45402 0,0.22931 0.14217,0.34855 0.4953,0.40358 l 0.56868,0.1009 c 0.64664,0.11006 0.94932,0.3944 0.94932,0.88053 0,0.58702 -0.52281,1.00436 -1.28869,1.00436 -0.50448,0 -0.94016,-0.17428 -1.34832,-0.51788 z"
       style="fill:#000000;fill-opacity:1;fill-rule:nonzero;stroke:none;stroke-width:0.352778"
       id="path746"
       inkscape:connector-curvature="0"
       inkscape:export-xdpi="96"
       inkscape:export-ydpi="96" />
    <path
       d="m 25.310435,48.47581 h 1.19697 c -0.0596,-0.33937 -0.29351,-0.57326 -0.60078,-0.57326 -0.30727,0 -0.53657,0.22507 -0.59619,0.57326 m 0.65123,1.38536 c -0.65582,0 -1.16946,-0.52317 -1.16946,-1.19239 0,-0.67415 0.48154,-1.1878 1.11901,-1.1878 0.6283,0 1.08691,0.49989 1.08691,1.18287 v 0.12841 h -1.69686 c 0.0504,0.36265 0.33478,0.62865 0.68791,0.62865 0.21555,0 0.41734,-0.078 0.54575,-0.2159 l 0.33937,0.31679 c -0.27975,0.23389 -0.55492,0.33937 -0.91263,0.33937"
       style="fill:#000000;fill-opacity:1;fill-rule:nonzero;stroke:none;stroke-width:0.352778"
       id="path750"
       inkscape:connector-curvature="0"
       inkscape:export-xdpi="96"
       inkscape:export-ydpi="96" />
    <path
       d="m 27.525635,47.51739 h 0.51823 v 0.49988 c 0.12382,-0.35313 0.34396,-0.54116 0.63288,-0.54116 0.0871,0.005 0.14676,0.0138 0.22472,0.0459 v 0.45403 c -0.0825,-0.0367 -0.18803,-0.0547 -0.28434,-0.0547 -0.24765,0 -0.45861,0.14182 -0.57326,0.38065 v 1.51341 h -0.51823 z"
       style="fill:#000000;fill-opacity:1;fill-rule:nonzero;stroke:none;stroke-width:0.352778"
       id="path754"
       inkscape:connector-curvature="0"
       inkscape:export-xdpi="96"
       inkscape:export-ydpi="96" />
    <path
       d="m 29.126045,47.51739 h 0.56409 l 0.63747,1.67887 0.63747,-1.67887 h 0.54575 l -0.94474,2.29799 h -0.49989 z"
       style="fill:#000000;fill-opacity:1;fill-rule:nonzero;stroke:none;stroke-width:0.352778"
       id="path758"
       inkscape:connector-curvature="0"
       inkscape:export-xdpi="96"
       inkscape:export-ydpi="96" />
    <path
       d="m 32.400345,49.81521 h -0.51823 v -2.298 h 0.51823 z m -0.58243,-3.08187 c 0,-0.17427 0.14675,-0.32103 0.32138,-0.32103 0.1785,0 0.32526,0.14676 0.32526,0.32103 0,0.17886 -0.14182,0.31609 -0.32526,0.31609 -0.17921,0 -0.32138,-0.13723 -0.32138,-0.31609"
       style="fill:#000000;fill-opacity:1;fill-rule:nonzero;stroke:none;stroke-width:0.352778"
       id="path760"
       inkscape:connector-curvature="0"
       inkscape:export-xdpi="96"
       inkscape:export-ydpi="96" />
    <path
       d="m 34.679715,49.15001 0.31186,0.31221 c -0.21555,0.24765 -0.54575,0.39899 -0.89888,0.39899 -0.65123,0 -1.16029,-0.52317 -1.16029,-1.19239 0,-0.66534 0.50448,-1.18357 1.16029,-1.18357 0.35772,0 0.68792,0.13758 0.91758,0.38523 l -0.32139,0.33479 c -0.16051,-0.17886 -0.35771,-0.27023 -0.57785,-0.27023 -0.37147,0 -0.6604,0.32068 -0.6604,0.73378 0,0.41698 0.28893,0.73378 0.67416,0.73378 0.22014,0 0.41734,-0.0871 0.55492,-0.25259"
       style="fill:#000000;fill-opacity:1;fill-rule:nonzero;stroke:none;stroke-width:0.352778"
       id="path764"
       inkscape:connector-curvature="0"
       inkscape:export-xdpi="96"
       inkscape:export-ydpi="96" />
    <path
       d="m 35.780415,48.47581 h 1.19698 c -0.0596,-0.33937 -0.29351,-0.57326 -0.60078,-0.57326 -0.30727,0 -0.53658,0.22507 -0.5962,0.57326 m 0.65123,1.38536 c -0.65581,0 -1.16946,-0.52317 -1.16946,-1.19239 0,-0.67415 0.48155,-1.1878 1.11902,-1.1878 0.62829,0 1.0869,0.49989 1.0869,1.18287 v 0.12841 h -1.69686 c 0.0504,0.36265 0.33479,0.62865 0.68792,0.62865 0.21555,0 0.41734,-0.078 0.54575,-0.2159 l 0.33937,0.31679 c -0.27975,0.23389 -0.55492,0.33937 -0.91264,0.33937"
       style="fill:#000000;fill-opacity:1;fill-rule:nonzero;stroke:none;stroke-width:0.352778"
       id="path768"
       inkscape:connector-curvature="0"
       inkscape:export-xdpi="96"
       inkscape:export-ydpi="96" />
    <path
       d="m 39.944675,49.81528 h -0.49988 v -2.68746 l -0.56868,0.24729 v -0.44485 l 0.75212,-0.32561 h 0.31644 z"
       style="fill:#000000;fill-opacity:1;fill-rule:nonzero;stroke:none;stroke-width:0.352778"
       id="path772"
       inkscape:connector-curvature="0"
       inkscape:export-xdpi="96"
       inkscape:export-ydpi="96" />
    <path
       d="m 27.603485,24.03389 c -0.8255,0 -1.34831,-0.54575 -1.34831,-1.42134 V 20.7781 h 0.55033 v 1.83445 c 0,0.56374 0.31644,0.92639 0.80257,0.92639 0.48613,0 0.79798,-0.36265 0.79798,-0.92639 V 20.7781 h 0.55034 v 1.83445 c 0,0.86677 -0.52741,1.42134 -1.35291,1.42134"
       style="fill:#000000;fill-opacity:1;fill-rule:nonzero;stroke:none;stroke-width:0.352778"
       id="path776"
       inkscape:connector-curvature="0"
       inkscape:export-xdpi="96"
       inkscape:export-ydpi="96" />
    <path
       d="m 29.657965,23.37345 c 0.29809,0.18803 0.50447,0.26141 0.73836,0.26141 0.27517,0 0.4632,-0.12347 0.4632,-0.30727 0,-0.14181 -0.0963,-0.22013 -0.31644,-0.26141 l -0.40817,-0.0684 c -0.44485,-0.0829 -0.66498,-0.28928 -0.66498,-0.63289 0,-0.43144 0.35313,-0.7112 0.8897,-0.7112 0.32103,0 0.60995,0.0871 0.90347,0.27517 l -0.24307,0.33937 c -0.23848,-0.15134 -0.45861,-0.22013 -0.6925,-0.22013 -0.23848,0 -0.39441,0.10089 -0.39441,0.27093 0,0.14676 0.0825,0.21061 0.32562,0.25224 l 0.40357,0.0734 c 0.45862,0.0871 0.67875,0.29774 0.67875,0.6417 0,0.42192 -0.40358,0.74753 -0.93557,0.74753 -0.39899,0 -0.74753,-0.10971 -0.9906,-0.31185 z"
       style="fill:#000000;fill-opacity:1;fill-rule:nonzero;stroke:none;stroke-width:0.352778"
       id="path780"
       inkscape:connector-curvature="0"
       inkscape:export-xdpi="96"
       inkscape:export-ydpi="96" />
    <path
       d="m 32.253665,22.64895 h 1.19697 c -0.0596,-0.33937 -0.29351,-0.57326 -0.60078,-0.57326 -0.30727,0 -0.53657,0.22472 -0.59619,0.57326 m 0.65123,1.38501 c -0.65582,0 -1.16946,-0.52282 -1.16946,-1.19239 0,-0.67416 0.48154,-1.1878 1.11901,-1.1878 0.6283,0 1.08691,0.49988 1.08691,1.18321 v 0.12842 h -1.69686 c 0.0504,0.3623 0.33478,0.62829 0.68791,0.62829 0.21555,0 0.41734,-0.078 0.54575,-0.21554 l 0.33937,0.31644 c -0.27975,0.23389 -0.55492,0.33937 -0.91263,0.33937"
       style="fill:#000000;fill-opacity:1;fill-rule:nonzero;stroke:none;stroke-width:0.352778"
       id="path784"
       inkscape:connector-curvature="0"
       inkscape:export-xdpi="96"
       inkscape:export-ydpi="96" />
    <path
       d="m 34.468685,21.69053 h 0.51823 v 0.49988 c 0.12383,-0.35313 0.34396,-0.54116 0.63288,-0.54116 0.0871,0.005 0.14676,0.0138 0.22472,0.0459 v 0.45403 c -0.0825,-0.037 -0.18803,-0.055 -0.28433,-0.055 -0.24765,0 -0.45862,0.14216 -0.57327,0.38064 v 1.51342 h -0.51823 z"
       style="fill:#000000;fill-opacity:1;fill-rule:nonzero;stroke:none;stroke-width:0.352778"
       id="path788"
       inkscape:connector-curvature="0"
       inkscape:export-xdpi="96"
       inkscape:export-ydpi="96" />
    <path
       d="m 96.662315,48.93919 c 0.41275,0.33937 0.71085,0.46778 1.07773,0.46778 0.42651,0 0.72002,-0.21555 0.72002,-0.50906 0,-0.2614 -0.15592,-0.38064 -0.58243,-0.45861 l -0.59161,-0.10089 c -0.55492,-0.1009 -0.8255,-0.37642 -0.8255,-0.81668 0,-0.5775 0.4632,-0.96273 1.18322,-0.96273 0.48154,0 0.9218,0.14675 1.28869,0.41733 l -0.27975,0.4124 c -0.32103,-0.2473 -0.66957,-0.37112 -1.02729,-0.37112 -0.38523,0 -0.63747,0.19261 -0.63747,0.45402 0,0.22931 0.14217,0.34855 0.4953,0.40358 l 0.56868,0.1009 c 0.64664,0.11006 0.94932,0.3944 0.94932,0.88053 0,0.58702 -0.52281,1.00436 -1.28869,1.00436 -0.50447,0 -0.94016,-0.17428 -1.34832,-0.51788 z"
       style="fill:#000000;fill-opacity:1;fill-rule:nonzero;stroke:none;stroke-width:0.352778"
       id="path792"
       inkscape:connector-curvature="0"
       inkscape:export-xdpi="96"
       inkscape:export-ydpi="96" />
    <path
       d="m 99.954965,48.47581 h 1.196965 c -0.0596,-0.33937 -0.29351,-0.57326 -0.60078,-0.57326 -0.30727,0 -0.53657,0.22507 -0.596185,0.57326 m 0.651225,1.38536 c -0.655815,0 -1.169455,-0.52317 -1.169455,-1.19239 0,-0.67415 0.48154,-1.1878 1.119005,-1.1878 0.6283,0 1.08691,0.49989 1.08691,1.18287 v 0.12841 h -1.696855 c 0.0504,0.36265 0.334775,0.62865 0.687905,0.62865 0.21555,0 0.41734,-0.078 0.54575,-0.2159 l 0.33937,0.31679 c -0.27975,0.23389 -0.55492,0.33937 -0.91263,0.33937"
       style="fill:#000000;fill-opacity:1;fill-rule:nonzero;stroke:none;stroke-width:0.352778"
       id="path796"
       inkscape:connector-curvature="0"
       inkscape:export-xdpi="96"
       inkscape:export-ydpi="96" />
    <path
       d="m 102.17016,47.51739 h 0.51823 v 0.49988 c 0.12382,-0.35313 0.34396,-0.54116 0.63288,-0.54116 0.0871,0.005 0.14676,0.0138 0.22472,0.0459 v 0.45403 c -0.0825,-0.0367 -0.18803,-0.0547 -0.28434,-0.0547 -0.24765,0 -0.45861,0.14182 -0.57326,0.38065 v 1.51341 h -0.51823 z"
       style="fill:#000000;fill-opacity:1;fill-rule:nonzero;stroke:none;stroke-width:0.352778"
       id="path800"
       inkscape:connector-curvature="0"
       inkscape:export-xdpi="96"
       inkscape:export-ydpi="96" />
    <path
       d="m 103.77057,47.51739 h 0.56409 l 0.63747,1.67887 0.63747,-1.67887 h 0.54575 l -0.94474,2.29799 h -0.49989 z"
       style="fill:#000000;fill-opacity:1;fill-rule:nonzero;stroke:none;stroke-width:0.352778"
       id="path804"
       inkscape:connector-curvature="0"
       inkscape:export-xdpi="96"
       inkscape:export-ydpi="96" />
    <path
       d="m 107.04495,49.81521 h -0.51823 v -2.298 h 0.51823 z m -0.58244,-3.08187 c 0,-0.17427 0.14676,-0.32103 0.32103,-0.32103 0.17921,0 0.32596,0.14676 0.32596,0.32103 0,0.17886 -0.14252,0.31609 -0.32596,0.31609 -0.17886,0 -0.32103,-0.13723 -0.32103,-0.31609"
       style="fill:#000000;fill-opacity:1;fill-rule:nonzero;stroke:none;stroke-width:0.352778"
       id="path806"
       inkscape:connector-curvature="0"
       inkscape:export-xdpi="96"
       inkscape:export-ydpi="96" />
    <path
       d="m 109.3246,49.15001 0.31185,0.31221 c -0.2159,0.24765 -0.54575,0.39899 -0.89888,0.39899 -0.65158,0 -1.16028,-0.52317 -1.16028,-1.19239 0,-0.66534 0.50447,-1.18357 1.16028,-1.18357 0.35772,0 0.68792,0.13758 0.91723,0.38523 l -0.32138,0.33479 c -0.16052,-0.17886 -0.35737,-0.27023 -0.5775,-0.27023 -0.37148,0 -0.6604,0.32068 -0.6604,0.73378 0,0.41698 0.28892,0.73378 0.67416,0.73378 0.22013,0 0.41698,-0.0871 0.55492,-0.25259"
       style="fill:#000000;fill-opacity:1;fill-rule:nonzero;stroke:none;stroke-width:0.352778"
       id="path810"
       inkscape:connector-curvature="0"
       inkscape:export-xdpi="96"
       inkscape:export-ydpi="96" />
    <path
       d="m 110.42495,48.47581 h 1.19732 c -0.0596,-0.33937 -0.29351,-0.57326 -0.60113,-0.57326 -0.30727,0 -0.53658,0.22507 -0.59619,0.57326 m 0.65122,1.38536 c -0.65581,0 -1.16946,-0.52317 -1.16946,-1.19239 0,-0.67415 0.48155,-1.1878 1.11902,-1.1878 0.62829,0 1.0869,0.49989 1.0869,1.18287 v 0.12841 h -1.69686 c 0.0504,0.36265 0.33479,0.62865 0.68792,0.62865 0.21555,0 0.41734,-0.078 0.54575,-0.2159 l 0.33972,0.31679 c -0.27975,0.23389 -0.55527,0.33937 -0.91299,0.33937"
       style="fill:#000000;fill-opacity:1;fill-rule:nonzero;stroke:none;stroke-width:0.352778"
       id="path814"
       inkscape:connector-curvature="0"
       inkscape:export-xdpi="96"
       inkscape:export-ydpi="96" />
    <path
       d="m 113.58481,49.45283 1.31621,-1.37583 c 0.22931,-0.248 0.31186,-0.40358 0.31186,-0.60537 0,-0.27058 -0.24765,-0.47237 -0.58702,-0.47237 -0.29351,0 -0.52282,0.10972 -0.83009,0.39441 l -0.28434,-0.34396 c 0.34855,-0.32561 0.72461,-0.48613 1.12819,-0.48613 0.62829,0 1.05939,0.35772 1.05939,0.87595 0,0.30727 -0.11465,0.53199 -0.45861,0.89429 l -1.02729,1.05939 1.54552,-0.009 v 0.4311 h -2.17382 z"
       style="fill:#000000;fill-opacity:1;fill-rule:nonzero;stroke:none;stroke-width:0.352778"
       id="path818"
       inkscape:connector-curvature="0"
       inkscape:export-xdpi="96"
       inkscape:export-ydpi="96" />
    <path
       d="m 58.893395,78.681036 c 0.41275,0.339372 0.71085,0.46743 1.07774,0.46743 0.42651,0 0.72002,-0.215194 0.72002,-0.508705 0,-0.261409 -0.15593,-0.380648 -0.58244,-0.458964 l -0.59161,-0.100542 c -0.55492,-0.100894 -0.8255,-0.376414 -0.8255,-0.81668 0,-0.577498 0.4632,-0.963084 1.18322,-0.963084 0.48154,0 0.92181,0.146756 1.2887,0.417689 l -0.27976,0.412397 c -0.32102,-0.24765 -0.66957,-0.371122 -1.02729,-0.371122 -0.38523,0 -0.63747,0.192617 -0.63747,0.454025 0,0.228953 0.14217,0.348192 0.4953,0.403225 l 0.56868,0.101247 c 0.64664,0.109714 0.94933,0.394406 0.94933,0.880534 0,0.587022 -0.52282,1.004005 -1.2887,1.004005 -0.50447,0 -0.94015,-0.174272 -1.34832,-0.517878 z"
       style="fill:#000000;fill-opacity:1;fill-rule:nonzero;stroke:none;stroke-width:0.352778"
       id="path822"
       inkscape:connector-curvature="0"
       inkscape:export-xdpi="96"
       inkscape:export-ydpi="96" />
    <path
       d="m 62.186045,78.217662 h 1.19698 c -0.0596,-0.339372 -0.29351,-0.573264 -0.60078,-0.573264 -0.30727,0 -0.53658,0.22472 -0.5962,0.573264 m 0.65123,1.385006 c -0.65581,0 -1.16946,-0.522817 -1.16946,-1.192389 0,-0.674159 0.48154,-1.187803 1.11901,-1.187803 0.6283,0 1.08691,0.499886 1.08691,1.183217 v 0.128411 h -1.69686 c 0.0504,0.362302 0.33479,0.628297 0.68792,0.628297 0.21554,0 0.41733,-0.07796 0.54574,-0.215547 l 0.33938,0.316441 c -0.27976,0.233892 -0.55492,0.339373 -0.91264,0.339373"
       style="fill:#000000;fill-opacity:1;fill-rule:nonzero;stroke:none;stroke-width:0.352778"
       id="path826"
       inkscape:connector-curvature="0"
       inkscape:export-xdpi="96"
       inkscape:export-ydpi="96" />
    <path
       d="m 64.401245,77.259235 h 0.51823 v 0.499887 c 0.12383,-0.353131 0.34396,-0.541162 0.63288,-0.541162 0.0871,0.0046 0.14676,0.01376 0.22472,0.04586 v 0.454025 c -0.0826,-0.03704 -0.18803,-0.05503 -0.28434,-0.05503 -0.24765,0 -0.45861,0.14217 -0.57326,0.380647 v 1.513417 h -0.51823 z"
       style="fill:#000000;fill-opacity:1;fill-rule:nonzero;stroke:none;stroke-width:0.352778"
       id="path830"
       inkscape:connector-curvature="0"
       inkscape:export-xdpi="96"
       inkscape:export-ydpi="96" />
    <path
       d="m 66.001655,77.259235 h 0.56409 l 0.63747,1.678517 0.63747,-1.678517 h 0.54575 l -0.94474,2.297642 h -0.49989 z"
       style="fill:#000000;fill-opacity:1;fill-rule:nonzero;stroke:none;stroke-width:0.352778"
       id="path834"
       inkscape:connector-curvature="0"
       inkscape:export-xdpi="96"
       inkscape:export-ydpi="96" />
    <path
       d="m 69.276215,79.556842 h -0.51824 V 77.2592 h 0.51824 z m -0.58244,-3.08222 c 0,-0.174272 0.14675,-0.321027 0.32103,-0.321027 0.17886,0 0.32561,0.146755 0.32561,0.321027 0,0.178859 -0.14217,0.316795 -0.32561,0.316795 -0.17886,0 -0.32103,-0.137936 -0.32103,-0.316795"
       style="fill:#000000;fill-opacity:1;fill-rule:nonzero;stroke:none;stroke-width:0.352778"
       id="path836"
       inkscape:connector-curvature="0"
       inkscape:export-xdpi="96"
       inkscape:export-ydpi="96" />
    <path
       d="m 71.555335,78.891856 0.31185,0.311855 c -0.21555,0.24765 -0.54575,0.398992 -0.89888,0.398992 -0.65122,0 -1.16028,-0.522817 -1.16028,-1.192389 0,-0.664986 0.50447,-1.183569 1.16028,-1.183569 0.35772,0 0.68792,0.137936 0.91758,0.385586 l -0.32138,0.334786 c -0.16052,-0.179211 -0.35772,-0.270581 -0.57785,-0.270581 -0.37148,0 -0.6604,0.321028 -0.6604,0.733778 0,0.417336 0.28892,0.733778 0.67416,0.733778 0.22013,0 0.41733,-0.08714 0.55492,-0.252236"
       style="fill:#000000;fill-opacity:1;fill-rule:nonzero;stroke:none;stroke-width:0.352778"
       id="path840"
       inkscape:connector-curvature="0"
       inkscape:export-xdpi="96"
       inkscape:export-ydpi="96" />
    <path
       d="m 72.656035,78.217662 h 1.19697 c -0.0596,-0.339372 -0.29351,-0.573264 -0.60078,-0.573264 -0.30727,0 -0.53657,0.22472 -0.59619,0.573264 m 0.65123,1.385006 c -0.65582,0 -1.16946,-0.522817 -1.16946,-1.192389 0,-0.674159 0.48154,-1.187803 1.11901,-1.187803 0.6283,0 1.08691,0.499886 1.08691,1.183217 v 0.128411 h -1.69686 c 0.0504,0.362302 0.33478,0.628297 0.68791,0.628297 0.21555,0 0.41734,-0.07796 0.54575,-0.215547 l 0.33937,0.316441 c -0.27975,0.233892 -0.55492,0.339373 -0.91263,0.339373"
       style="fill:#000000;fill-opacity:1;fill-rule:nonzero;stroke:none;stroke-width:0.352778"
       id="path844"
       inkscape:connector-curvature="0"
       inkscape:export-xdpi="96"
       inkscape:export-ydpi="96" />
    <path
       d="m 77.489865,78.332385 v -1.449211 l -1.1878,1.449211 z m 0.49989,0 h 0.41275 v 0.431095 h -0.41275 v 0.793397 h -0.49989 V 78.76348 h -1.72438 v -0.408517 l 1.65559,-2.008716 h 0.56868 z"
       style="fill:#000000;fill-opacity:1;fill-rule:nonzero;stroke:none;stroke-width:0.352778"
       id="path848"
       inkscape:connector-curvature="0"
       inkscape:export-xdpi="96"
       inkscape:export-ydpi="96" />
    <path
       d="m 134.19747,71.62548 c 0.41275,0.339372 0.71085,0.467431 1.07774,0.467431 0.42651,0 0.72002,-0.215195 0.72002,-0.508706 0,-0.261408 -0.15593,-0.380647 -0.58244,-0.458964 l -0.5916,-0.100541 c -0.55492,-0.100895 -0.8255,-0.376414 -0.8255,-0.816681 0,-0.577497 0.46319,-0.963083 1.18321,-0.963083 0.48119,0 0.92181,0.146755 1.28905,0.417689 l -0.2801,0.412397 c -0.32103,-0.24765 -0.66958,-0.371122 -1.02764,-0.371122 -0.38489,0 -0.63712,0.192616 -0.63712,0.454025 0,0.228953 0.14217,0.348191 0.4953,0.403225 l 0.56868,0.101247 c 0.64664,0.109714 0.94932,0.394405 0.94932,0.880533 0,0.587022 -0.52282,1.004006 -1.2887,1.004006 -0.50447,0 -0.94015,-0.174272 -1.34867,-0.517878 z"
       style="fill:#000000;fill-opacity:1;fill-rule:nonzero;stroke:none;stroke-width:0.352778"
       id="path852"
       inkscape:connector-curvature="0"
       inkscape:export-xdpi="96"
       inkscape:export-ydpi="96" />
    <path
       d="m 137.4903,71.162107 h 1.19733 c -0.0596,-0.339373 -0.29351,-0.573264 -0.60113,-0.573264 -0.30727,0 -0.53658,0.224719 -0.5962,0.573264 m 0.65123,1.385005 c -0.65581,0 -1.16946,-0.522816 -1.16946,-1.192389 0,-0.674158 0.48154,-1.187802 1.11901,-1.187802 0.6283,0 1.08691,0.499886 1.08691,1.183216 v 0.128411 h -1.69686 c 0.0505,0.362303 0.33479,0.628298 0.68792,0.628298 0.21554,0 0.41733,-0.07796 0.54574,-0.215548 l 0.33973,0.316442 c -0.27975,0.233892 -0.55527,0.339372 -0.91299,0.339372"
       style="fill:#000000;fill-opacity:1;fill-rule:nonzero;stroke:none;stroke-width:0.352778"
       id="path856"
       inkscape:connector-curvature="0"
       inkscape:export-xdpi="96"
       inkscape:export-ydpi="96" />
    <path
       d="m 139.70518,70.20368 h 0.51823 v 0.499886 c 0.12383,-0.35313 0.34396,-0.541161 0.63289,-0.541161 0.0871,0.0046 0.14675,0.01376 0.22472,0.04586 v 0.454025 c -0.0826,-0.03704 -0.18803,-0.05503 -0.28434,-0.05503 -0.24765,0 -0.45861,0.142169 -0.57327,0.380647 v 1.513417 h -0.51823 z"
       style="fill:#000000;fill-opacity:1;fill-rule:nonzero;stroke:none;stroke-width:0.352778"
       id="path860"
       inkscape:connector-curvature="0"
       inkscape:export-xdpi="96"
       inkscape:export-ydpi="96" />
    <path
       d="m 141.30577,70.20368 h 0.56444 l 0.63712,1.678517 0.63782,-1.678517 h 0.54575 l -0.94474,2.297642 h -0.50024 z"
       style="fill:#000000;fill-opacity:1;fill-rule:nonzero;stroke:none;stroke-width:0.352778"
       id="path864"
       inkscape:connector-curvature="0"
       inkscape:export-xdpi="96"
       inkscape:export-ydpi="96" />
    <path
       d="m 144.58015,72.501286 h -0.51823 v -2.297641 h 0.51823 z m -0.58209,-3.082219 c 0,-0.174272 0.14676,-0.321028 0.32068,-0.321028 0.17921,0 0.32597,0.146756 0.32597,0.321028 0,0.178858 -0.14217,0.316794 -0.32597,0.316794 -0.17886,0 -0.32068,-0.137936 -0.32068,-0.316794"
       style="fill:#000000;fill-opacity:1;fill-rule:nonzero;stroke:none;stroke-width:0.352778"
       id="path866"
       inkscape:connector-curvature="0"
       inkscape:export-xdpi="96"
       inkscape:export-ydpi="96" />
    <path
       d="m 146.85959,71.8363 0.31185,0.311856 c -0.2159,0.24765 -0.54575,0.398991 -0.89888,0.398991 -0.65158,0 -1.16028,-0.522816 -1.16028,-1.192388 0,-0.664986 0.50447,-1.18357 1.16028,-1.18357 0.35772,0 0.68792,0.137936 0.91723,0.385586 l -0.32138,0.334786 c -0.16052,-0.179211 -0.35737,-0.27058 -0.5775,-0.27058 -0.37148,0 -0.6604,0.321028 -0.6604,0.733778 0,0.417336 0.28892,0.733777 0.67416,0.733777 0.22013,0 0.41698,-0.08714 0.55492,-0.252236"
       style="fill:#000000;fill-opacity:1;fill-rule:nonzero;stroke:none;stroke-width:0.352778"
       id="path870"
       inkscape:connector-curvature="0"
       inkscape:export-xdpi="96"
       inkscape:export-ydpi="96" />
    <path
       d="m 147.96029,71.162107 h 1.19733 c -0.06,-0.339373 -0.29352,-0.573264 -0.60114,-0.573264 -0.30727,0 -0.53657,0.224719 -0.59619,0.573264 m 0.65123,1.385005 c -0.65582,0 -1.16946,-0.522816 -1.16946,-1.192389 0,-0.674158 0.48154,-1.187802 1.11901,-1.187802 0.6283,0 1.08691,0.499886 1.08691,1.183216 v 0.128411 h -1.69686 c 0.0504,0.362303 0.33478,0.628298 0.68791,0.628298 0.21555,0 0.41734,-0.07796 0.54575,-0.215548 l 0.33972,0.316442 c -0.2801,0.233892 -0.55527,0.339372 -0.91298,0.339372"
       style="fill:#000000;fill-opacity:1;fill-rule:nonzero;stroke:none;stroke-width:0.352778"
       id="path874"
       inkscape:connector-curvature="0"
       inkscape:export-xdpi="96"
       inkscape:export-ydpi="96" />
    <path
       d="m 151.26208,69.290726 h 1.95368 v 0.431448 h -1.52718 l -0.0413,0.930627 c 0.21555,-0.109713 0.43074,-0.160513 0.66922,-0.160513 0.63782,0 1.06892,0.390172 1.06892,0.972608 0,0.646641 -0.49072,1.086908 -1.21568,1.086908 -0.43074,0 -0.81597,-0.146755 -1.12783,-0.43568 l 0.30233,-0.343959 c 0.27552,0.243064 0.52776,0.343959 0.8442,0.343959 0.40816,0 0.68298,-0.252237 0.68298,-0.628298 0,-0.35313 -0.28857,-0.601133 -0.69674,-0.601133 -0.21554,0 -0.41275,0.05539 -0.63782,0.170039 l -0.34819,-0.105481 z"
       style="fill:#000000;fill-opacity:1;fill-rule:nonzero;stroke:none;stroke-width:0.352778"
       id="path878"
       inkscape:connector-curvature="0"
       inkscape:export-xdpi="96"
       inkscape:export-ydpi="96" />
    <path
       d="m 72.786945,105.65509 c 0.41275,0.33938 0.71085,0.46779 1.07774,0.46779 0.42651,0 0.72002,-0.21555 0.72002,-0.50906 0,-0.26141 -0.15593,-0.38065 -0.58244,-0.45861 l -0.59161,-0.1009 c -0.55491,-0.10089 -0.8255,-0.37641 -0.8255,-0.81668 0,-0.57749 0.4632,-0.96273 1.18322,-0.96273 0.48154,0 0.92181,0.14676 1.2887,0.41734 l -0.27975,0.4124 c -0.32103,-0.2473 -0.66958,-0.37113 -1.02729,-0.37113 -0.38524,0 -0.63747,0.19262 -0.63747,0.45403 0,0.2293 0.14217,0.34854 0.4953,0.40358 l 0.56868,0.10089 c 0.64664,0.11007 0.94932,0.39441 0.94932,0.88053 0,0.58703 -0.52282,1.00436 -1.2887,1.00436 -0.50447,0 -0.94015,-0.17427 -1.34831,-0.51787 z"
       style="fill:#000000;fill-opacity:1;fill-rule:nonzero;stroke:none;stroke-width:0.352778"
       id="path882"
       inkscape:connector-curvature="0"
       inkscape:export-xdpi="96"
       inkscape:export-ydpi="96" />
    <path
       d="m 76.079605,105.19172 h 1.19697 c -0.0596,-0.33937 -0.29351,-0.57326 -0.60078,-0.57326 -0.30727,0 -0.53658,0.22507 -0.59619,0.57326 m 0.65122,1.38536 c -0.65581,0 -1.16946,-0.52317 -1.16946,-1.19239 0,-0.67416 0.48155,-1.1878 1.11902,-1.1878 0.62829,0 1.0869,0.49988 1.0869,1.18286 v 0.12841 h -1.69686 c 0.0505,0.36266 0.33479,0.62865 0.68792,0.62865 0.21555,0 0.41734,-0.078 0.54575,-0.2159 l 0.33937,0.3168 c -0.27975,0.23389 -0.55492,0.33937 -0.91264,0.33937"
       style="fill:#000000;fill-opacity:1;fill-rule:nonzero;stroke:none;stroke-width:0.352778"
       id="path886"
       inkscape:connector-curvature="0"
       inkscape:export-xdpi="96"
       inkscape:export-ydpi="96" />
    <path
       d="m 78.294795,104.23329 h 0.51823 v 0.49989 c 0.12383,-0.35313 0.34396,-0.54116 0.63289,-0.54116 0.0871,0.005 0.14675,0.0138 0.22472,0.0459 v 0.45402 c -0.0825,-0.0367 -0.18803,-0.0547 -0.28434,-0.0547 -0.24765,0 -0.45861,0.14182 -0.57327,0.38065 v 1.51342 h -0.51823 z"
       style="fill:#000000;fill-opacity:1;fill-rule:nonzero;stroke:none;stroke-width:0.352778"
       id="path890"
       inkscape:connector-curvature="0"
       inkscape:export-xdpi="96"
       inkscape:export-ydpi="96" />
    <path
       d="m 79.895205,104.23329 h 0.5641 l 0.63747,1.67887 0.63746,-1.67887 h 0.54575 l -0.94474,2.298 h -0.49988 z"
       style="fill:#000000;fill-opacity:1;fill-rule:nonzero;stroke:none;stroke-width:0.352778"
       id="path894"
       inkscape:connector-curvature="0"
       inkscape:export-xdpi="96"
       inkscape:export-ydpi="96" />
    <path
       d="m 83.169655,106.53129 h -0.51823 v -2.298 h 0.51823 z m -0.58243,-3.08222 c 0,-0.17427 0.14675,-0.32103 0.32102,-0.32103 0.17886,0 0.32562,0.14676 0.32562,0.32103 0,0.17886 -0.14217,0.31644 -0.32562,0.31644 -0.17885,0 -0.32102,-0.13758 -0.32102,-0.31644"
       style="fill:#000000;fill-opacity:1;fill-rule:nonzero;stroke:none;stroke-width:0.352778"
       id="path896"
       inkscape:connector-curvature="0"
       inkscape:export-xdpi="96"
       inkscape:export-ydpi="96" />
    <path
       d="m 85.448885,105.86591 0.31185,0.31221 c -0.21554,0.24765 -0.54574,0.39899 -0.89887,0.39899 -0.65123,0 -1.16029,-0.52316 -1.16029,-1.19238 0,-0.66534 0.50447,-1.18357 1.16029,-1.18357 0.35771,0 0.68791,0.13758 0.91757,0.38523 l -0.32138,0.33479 c -0.16051,-0.17886 -0.35772,-0.27023 -0.57785,-0.27023 -0.37147,0 -0.6604,0.32067 -0.6604,0.73378 0,0.41698 0.28893,0.73377 0.67416,0.73377 0.22013,0 0.41734,-0.0871 0.55492,-0.25259"
       style="fill:#000000;fill-opacity:1;fill-rule:nonzero;stroke:none;stroke-width:0.352778"
       id="path900"
       inkscape:connector-curvature="0"
       inkscape:export-xdpi="96"
       inkscape:export-ydpi="96" />
    <path
       d="m 86.549585,105.19172 h 1.19698 c -0.0596,-0.33937 -0.29352,-0.57326 -0.60078,-0.57326 -0.30727,0 -0.53658,0.22507 -0.5962,0.57326 m 0.65123,1.38536 c -0.65582,0 -1.16946,-0.52317 -1.16946,-1.19239 0,-0.67416 0.48154,-1.1878 1.11901,-1.1878 0.6283,0 1.08691,0.49988 1.08691,1.18286 v 0.12841 h -1.69686 c 0.0504,0.36266 0.33478,0.62865 0.68792,0.62865 0.21554,0 0.41733,-0.078 0.54574,-0.2159 l 0.33937,0.3168 c -0.27975,0.23389 -0.55491,0.33937 -0.91263,0.33937"
       style="fill:#000000;fill-opacity:1;fill-rule:nonzero;stroke:none;stroke-width:0.352778"
       id="path904"
       inkscape:connector-curvature="0"
       inkscape:export-xdpi="96"
       inkscape:export-ydpi="96" />
    <path
       d="m 90.227575,105.31576 c 0.078,0.49988 0.38065,0.8255 0.78881,0.8255 0.37606,0 0.65582,-0.26141 0.65582,-0.60995 0,-0.35314 -0.27058,-0.60079 -0.6604,-0.60079 -0.30692,0 -0.58703,0.14217 -0.78423,0.38524 m -0.52282,-0.30727 c 0,-1.04105 0.5962,-1.73355 1.49508,-1.73355 0.30727,0 0.63747,0.10548 0.85301,0.27517 l -0.27481,0.37147 c -0.18345,-0.133 -0.38559,-0.19756 -0.61948,-0.19756 -0.59619,0 -0.94474,0.46779 -0.95391,1.2753 0.22472,-0.2981 0.54575,-0.46814 0.88512,-0.46814 0.62865,0 1.07315,0.4131 1.07315,0.98637 0,0.60995 -0.47696,1.05515 -1.12818,1.05515 -0.78881,0 -1.32998,-0.63782 -1.32998,-1.56421"
       style="fill:#000000;fill-opacity:1;fill-rule:nonzero;stroke:none;stroke-width:0.352778"
       id="path908"
       inkscape:connector-curvature="0"
       inkscape:export-xdpi="96"
       inkscape:export-ydpi="96" />
    <path
       d="m 124.83959,116.99771 c 0.41275,0.33937 0.71084,0.46778 1.07773,0.46778 0.42651,0 0.72002,-0.21554 0.72002,-0.50905 0,-0.26141 -0.15593,-0.38065 -0.58243,-0.45861 l -0.59161,-0.1009 c -0.55528,-0.10089 -0.8255,-0.37641 -0.8255,-0.81668 0,-0.5775 0.46319,-0.96273 1.18321,-0.96273 0.48155,0 0.92216,0.14676 1.2887,0.41734 l -0.27975,0.41239 c -0.32103,-0.24729 -0.66957,-0.37112 -1.02764,-0.37112 -0.38488,0 -0.63712,0.19262 -0.63712,0.45403 0,0.2293 0.14217,0.34854 0.4953,0.40357 l 0.56832,0.1009 c 0.647,0.11006 0.94968,0.3944 0.94968,0.88053 0,0.58702 -0.52281,1.00436 -1.28869,1.00436 -0.50448,0 -0.94016,-0.17427 -1.34832,-0.51788 z"
       style="fill:#000000;fill-opacity:1;fill-rule:nonzero;stroke:none;stroke-width:0.352778"
       id="path912"
       inkscape:connector-curvature="0"
       inkscape:export-xdpi="96"
       inkscape:export-ydpi="96" />
    <path
       d="m 128.13241,116.53437 h 1.19733 c -0.06,-0.33937 -0.29351,-0.57326 -0.60113,-0.57326 -0.30727,0 -0.53658,0.22507 -0.5962,0.57326 m 0.65123,1.38536 c -0.65581,0 -1.16946,-0.52317 -1.16946,-1.19239 0,-0.67416 0.48154,-1.1878 1.11901,-1.1878 0.6283,0 1.08691,0.49989 1.08691,1.18286 v 0.12841 h -1.69686 c 0.0504,0.36266 0.33479,0.62865 0.68792,0.62865 0.21555,0 0.41733,-0.078 0.54575,-0.2159 l 0.33972,0.3168 c -0.28011,0.23389 -0.55527,0.33937 -0.91299,0.33937"
       style="fill:#000000;fill-opacity:1;fill-rule:nonzero;stroke:none;stroke-width:0.352778"
       id="path916"
       inkscape:connector-curvature="0"
       inkscape:export-xdpi="96"
       inkscape:export-ydpi="96" />
    <path
       d="m 130.34726,115.57595 h 0.51823 v 0.49988 c 0.12382,-0.35313 0.34396,-0.54116 0.63288,-0.54116 0.0871,0.005 0.14676,0.0138 0.22472,0.0459 v 0.45403 c -0.0825,-0.0367 -0.18803,-0.0547 -0.28434,-0.0547 -0.24765,0 -0.45861,0.14181 -0.57326,0.38064 v 1.51342 h -0.51823 z"
       style="fill:#000000;fill-opacity:1;fill-rule:nonzero;stroke:none;stroke-width:0.352778"
       id="path920"
       inkscape:connector-curvature="0"
       inkscape:export-xdpi="96"
       inkscape:export-ydpi="96" />
    <path
       d="m 131.94785,115.57595 h 0.56444 l 0.63712,1.67887 0.63782,-1.67887 h 0.54575 l -0.94474,2.29799 h -0.49989 z"
       style="fill:#000000;fill-opacity:1;fill-rule:nonzero;stroke:none;stroke-width:0.352778"
       id="path924"
       inkscape:connector-curvature="0"
       inkscape:export-xdpi="96"
       inkscape:export-ydpi="96" />
    <path
       d="m 135.22236,117.8738 h -0.51823 v -2.29799 h 0.51823 z m -0.58243,-3.08187 c 0,-0.17427 0.14675,-0.32102 0.32103,-0.32102 0.17921,0 0.32596,0.14675 0.32596,0.32102 0,0.17886 -0.14252,0.31609 -0.32596,0.31609 -0.17886,0 -0.32103,-0.13723 -0.32103,-0.31609"
       style="fill:#000000;fill-opacity:1;fill-rule:nonzero;stroke:none;stroke-width:0.352778"
       id="path926"
       inkscape:connector-curvature="0"
       inkscape:export-xdpi="96"
       inkscape:export-ydpi="96" />
    <path
       d="m 137.5017,117.20857 0.31185,0.31221 c -0.2159,0.24765 -0.54574,0.39899 -0.89887,0.39899 -0.65159,0 -1.16029,-0.52317 -1.16029,-1.19239 0,-0.66534 0.50447,-1.18357 1.16029,-1.18357 0.35771,0 0.68791,0.13758 0.91722,0.38523 l -0.32138,0.33479 c -0.16052,-0.17886 -0.35737,-0.27023 -0.5775,-0.27023 -0.37148,0 -0.6604,0.32068 -0.6604,0.73378 0,0.41698 0.28892,0.73378 0.67416,0.73378 0.22013,0 0.41698,-0.0871 0.55492,-0.25259"
       style="fill:#000000;fill-opacity:1;fill-rule:nonzero;stroke:none;stroke-width:0.352778"
       id="path930"
       inkscape:connector-curvature="0"
       inkscape:export-xdpi="96"
       inkscape:export-ydpi="96" />
    <path
       d="m 138.6024,116.53437 h 1.19733 c -0.0596,-0.33937 -0.29351,-0.57326 -0.60114,-0.57326 -0.30727,0 -0.53657,0.22507 -0.59619,0.57326 m 0.65123,1.38536 c -0.65582,0 -1.16946,-0.52317 -1.16946,-1.19239 0,-0.67416 0.48154,-1.1878 1.11901,-1.1878 0.6283,0 1.08691,0.49989 1.08691,1.18286 v 0.12841 h -1.69686 c 0.0504,0.36266 0.33478,0.62865 0.68791,0.62865 0.21555,0 0.41734,-0.078 0.54575,-0.2159 l 0.33973,0.3168 c -0.27976,0.23389 -0.55528,0.33937 -0.91299,0.33937"
       style="fill:#000000;fill-opacity:1;fill-rule:nonzero;stroke:none;stroke-width:0.352778"
       id="path934"
       inkscape:connector-curvature="0"
       inkscape:export-xdpi="96"
       inkscape:export-ydpi="96" />
    <path
       d="m 143.51374,115.10809 h -1.83903 v -0.44485 h 2.38971 v 0.37641 l -1.45415,2.83422 h -0.58702 z"
       style="fill:#000000;fill-opacity:1;fill-rule:nonzero;stroke:none;stroke-width:0.352778"
       id="path938"
       inkscape:connector-curvature="0"
       inkscape:export-xdpi="96"
       inkscape:export-ydpi="96" />
    <path
       d="m 115.92849,94.311772 c 0.41275,0.339372 0.71085,0.467431 1.07774,0.467431 0.4265,0 0.72002,-0.215195 0.72002,-0.508706 0,-0.261408 -0.15593,-0.380647 -0.58244,-0.458964 l -0.59161,-0.100542 c -0.55527,-0.100894 -0.8255,-0.376413 -0.8255,-0.81668 0,-0.577497 0.4632,-0.963083 1.18322,-0.963083 0.48154,0 0.92216,0.146755 1.28869,0.417688 l -0.27975,0.412398 c -0.32103,-0.24765 -0.66957,-0.371123 -1.02764,-0.371123 -0.38488,0 -0.63712,0.192617 -0.63712,0.454025 0,0.228953 0.14217,0.348192 0.4953,0.403225 l 0.56833,0.101248 c 0.64699,0.109714 0.94968,0.394405 0.94968,0.880533 0,0.587022 -0.52282,1.004006 -1.2887,1.004006 -0.50447,0 -0.94015,-0.174273 -1.34832,-0.517878 z"
       style="fill:#000000;fill-opacity:1;fill-rule:nonzero;stroke:none;stroke-width:0.352778"
       id="path942"
       inkscape:connector-curvature="0"
       inkscape:export-xdpi="96"
       inkscape:export-ydpi="96" />
    <path
       d="m 119.22132,93.848398 h 1.19733 c -0.06,-0.339372 -0.29352,-0.573263 -0.60114,-0.573263 -0.30727,0 -0.53657,0.224719 -0.59619,0.573263 m 0.65123,1.385006 c -0.65582,0 -1.16946,-0.522817 -1.16946,-1.192389 0,-0.674158 0.48154,-1.187803 1.11901,-1.187803 0.6283,0 1.08691,0.499886 1.08691,1.183217 v 0.128411 h -1.69686 c 0.0504,0.362303 0.33478,0.628297 0.68791,0.628297 0.21555,0 0.41734,-0.07796 0.54575,-0.215547 l 0.33972,0.316442 c -0.2801,0.233891 -0.55527,0.339372 -0.91298,0.339372"
       style="fill:#000000;fill-opacity:1;fill-rule:nonzero;stroke:none;stroke-width:0.352778"
       id="path946"
       inkscape:connector-curvature="0"
       inkscape:export-xdpi="96"
       inkscape:export-ydpi="96" />
    <path
       d="m 121.43616,92.889972 h 0.51823 v 0.499886 c 0.12383,-0.353131 0.34396,-0.541161 0.63289,-0.541161 0.0871,0.0046 0.14675,0.01376 0.22472,0.04586 v 0.454025 c -0.0825,-0.03704 -0.18803,-0.05503 -0.28434,-0.05503 -0.24765,0 -0.45861,0.142169 -0.57327,0.380647 v 1.513416 h -0.51823 z"
       style="fill:#000000;fill-opacity:1;fill-rule:nonzero;stroke:none;stroke-width:0.352778"
       id="path950"
       inkscape:connector-curvature="0"
       inkscape:export-xdpi="96"
       inkscape:export-ydpi="96" />
    <path
       d="m 123.03675,92.889972 h 0.56444 l 0.63712,1.678516 0.63782,-1.678516 h 0.54575 l -0.94474,2.297641 h -0.49988 z"
       style="fill:#000000;fill-opacity:1;fill-rule:nonzero;stroke:none;stroke-width:0.352778"
       id="path954"
       inkscape:connector-curvature="0"
       inkscape:export-xdpi="96"
       inkscape:export-ydpi="96" />
    <path
       d="m 126.3112,95.187366 h -0.51823 v -2.297641 h 0.51823 z M 125.72876,92.1055 c 0,-0.174272 0.14676,-0.321028 0.32103,-0.321028 0.17921,0 0.32597,0.146756 0.32597,0.321028 0,0.178858 -0.14217,0.316794 -0.32597,0.316794 -0.17886,0 -0.32103,-0.137936 -0.32103,-0.316794"
       style="fill:#000000;fill-opacity:1;fill-rule:nonzero;stroke:none;stroke-width:0.352778"
       id="path956"
       inkscape:connector-curvature="0"
       inkscape:export-xdpi="96"
       inkscape:export-ydpi="96" />
    <path
       d="m 128.5906,94.522592 0.31186,0.311856 c -0.2159,0.24765 -0.54575,0.398991 -0.89888,0.398991 -0.65158,0 -1.16029,-0.522816 -1.16029,-1.192389 0,-0.664986 0.50448,-1.183569 1.16029,-1.183569 0.35772,0 0.68792,0.137936 0.91722,0.385586 l -0.32138,0.334786 c -0.16051,-0.179211 -0.35736,-0.27058 -0.5775,-0.27058 -0.37147,0 -0.6604,0.321027 -0.6604,0.733777 0,0.417336 0.28893,0.733778 0.67416,0.733778 0.22014,0 0.41699,-0.08714 0.55492,-0.252236"
       style="fill:#000000;fill-opacity:1;fill-rule:nonzero;stroke:none;stroke-width:0.352778"
       id="path960"
       inkscape:connector-curvature="0"
       inkscape:export-xdpi="96"
       inkscape:export-ydpi="96" />
    <path
       d="m 129.6913,93.848398 h 1.19733 c -0.0596,-0.339372 -0.29351,-0.573263 -0.60113,-0.573263 -0.30727,0 -0.53658,0.224719 -0.5962,0.573263 m 0.65123,1.385006 c -0.65581,0 -1.16946,-0.522817 -1.16946,-1.192389 0,-0.674158 0.48154,-1.187803 1.11901,-1.187803 0.6283,0 1.08691,0.499886 1.08691,1.183217 v 0.128411 h -1.69686 c 0.0504,0.362303 0.33479,0.628297 0.68792,0.628297 0.21554,0 0.41733,-0.07796 0.54574,-0.215547 l 0.33973,0.316442 c -0.27975,0.233891 -0.55527,0.339372 -0.91299,0.339372"
       style="fill:#000000;fill-opacity:1;fill-rule:nonzero;stroke:none;stroke-width:0.352778"
       id="path964"
       inkscape:connector-curvature="0"
       inkscape:export-xdpi="96"
       inkscape:export-ydpi="96" />
    <path
       d="m 134.64399,92.834868 c 0,-0.284339 -0.25683,-0.499886 -0.59161,-0.499886 -0.33937,0 -0.5962,0.215547 -0.5962,0.499886 0,0.284339 0.26141,0.4953 0.5962,0.4953 0.3302,0 0.59161,-0.210961 0.59161,-0.4953 m 0.0963,1.430866 c 0,-0.311855 -0.29351,-0.545747 -0.68791,-0.545747 -0.39899,0 -0.69251,0.233892 -0.69251,0.545747 0,0.316442 0.29352,0.55492 0.69251,0.55492 0.3944,0 0.68791,-0.238478 0.68791,-0.55492 m -1.8803,0.03669 c 0,-0.371475 0.28434,-0.678744 0.6925,-0.784225 -0.34854,-0.114652 -0.58702,-0.389819 -0.58702,-0.715433 0,-0.499886 0.4632,-0.875947 1.08267,-0.875947 0.61878,0 1.08691,0.376061 1.08691,0.875947 0,0.325614 -0.23883,0.600781 -0.58279,0.715433 0.40817,0.105481 0.69251,0.41275 0.69251,0.784225 0,0.545748 -0.4953,0.935567 -1.19239,0.935567 -0.70168,0 -1.19239,-0.389819 -1.19239,-0.935567"
       style="fill:#000000;fill-opacity:1;fill-rule:nonzero;stroke:none;stroke-width:0.352778"
       id="path968"
       inkscape:connector-curvature="0"
       inkscape:export-xdpi="96"
       inkscape:export-ydpi="96" />
    <path
       d="M 199.52423,100.4173 H 163.03078 V 87.564192 h 36.49345 z"
       style="fill:#d9e8f7;fill-opacity:1;fill-rule:nonzero;stroke:none;stroke-width:0.352778"
       id="path970"
       inkscape:connector-curvature="0"
       inkscape:export-xdpi="96"
       inkscape:export-ydpi="96" />
    <path
       d="m 163.20681,100.24091 h 36.14068 V 87.74058 h -36.14068 z m 36.49381,0.35278 H 162.85439 V 87.387803 h 36.84623 z"
       style="fill:#0066cc;fill-opacity:1;fill-rule:nonzero;stroke:none;stroke-width:0.352778"
       id="path972"
       inkscape:connector-curvature="0"
       inkscape:export-xdpi="96"
       inkscape:export-ydpi="96" />
    <path
       d="m 172.24202,94.362078 c 0.38911,0.319617 0.66957,0.440972 1.01564,0.440972 0.40217,0 0.67875,-0.2032 0.67875,-0.479777 0,-0.246592 -0.14711,-0.359128 -0.54892,-0.432506 l -0.55774,-0.0949 c -0.52282,-0.09525 -0.77788,-0.354542 -0.77788,-0.769409 0,-0.544688 0.43639,-0.907697 1.11513,-0.907697 0.45367,0 0.86889,0.137936 1.21426,0.393347 l -0.26352,0.388762 c -0.30233,-0.233539 -0.63112,-0.349956 -0.96803,-0.349956 -0.363,0 -0.60113,0.181681 -0.60113,0.427919 0,0.2159 0.13406,0.328437 0.46708,0.380295 l 0.53587,0.09525 c 0.60925,0.103717 0.895,0.371475 0.895,0.829733 0,0.553509 -0.49283,0.946856 -1.21462,0.946856 -0.47554,0 -0.88618,-0.164395 -1.27106,-0.488597 z"
       style="fill:#000000;fill-opacity:1;fill-rule:nonzero;stroke:none;stroke-width:0.352778"
       id="path976"
       inkscape:connector-curvature="0"
       inkscape:export-xdpi="96"
       inkscape:export-ydpi="96" />
    <path
       d="m 175.34537,93.925586 h 1.12783 c -0.0561,-0.319969 -0.27658,-0.540455 -0.56586,-0.540455 -0.28998,0 -0.50588,0.211666 -0.56197,0.540455 m 0.61348,1.305278 c -0.61807,0 -1.10208,-0.492831 -1.10208,-1.123597 0,-0.635706 0.45367,-1.119717 1.05445,-1.119717 0.59232,0 1.02482,0.470958 1.02482,1.115131 v 0.121002 h -1.59949 c 0.0473,0.341136 0.31538,0.591961 0.64805,0.591961 0.20355,0 0.3937,-0.07338 0.5147,-0.202847 l 0.31997,0.298097 c -0.26352,0.220487 -0.52317,0.31997 -0.86042,0.31997"
       style="fill:#000000;fill-opacity:1;fill-rule:nonzero;stroke:none;stroke-width:0.352778"
       id="path980"
       inkscape:connector-curvature="0"
       inkscape:export-xdpi="96"
       inkscape:export-ydpi="96" />
    <path
       d="m 177.43275,93.021911 h 0.4886 v 0.471311 c 0.11677,-0.33267 0.3242,-0.510117 0.59655,-0.510117 0.0822,0.0042 0.13829,0.01305 0.21167,0.04339 v 0.427919 c -0.0776,-0.03457 -0.1771,-0.05221 -0.26812,-0.05221 -0.23318,0 -0.43215,0.134056 -0.5401,0.359128 v 1.42628 h -0.4886 z"
       style="fill:#000000;fill-opacity:1;fill-rule:nonzero;stroke:none;stroke-width:0.352778"
       id="path984"
       inkscape:connector-curvature="0"
       inkscape:export-xdpi="96"
       inkscape:export-ydpi="96" />
    <path
       d="m 178.94102,93.021911 h 0.53164 l 0.60078,1.581855 0.60078,-1.581855 h 0.51435 l -0.89006,2.165702 h -0.47131 z"
       style="fill:#000000;fill-opacity:1;fill-rule:nonzero;stroke:none;stroke-width:0.352778"
       id="path988"
       inkscape:connector-curvature="0"
       inkscape:export-xdpi="96"
       inkscape:export-ydpi="96" />
    <path
       d="m 182.02716,95.187366 h -0.4886 v -2.165702 h 0.4886 z m -0.54893,-2.904419 c 0,-0.164394 0.13829,-0.302683 0.30269,-0.302683 0.16827,0 0.30691,0.138289 0.30691,0.302683 0,0.168628 -0.13405,0.298097 -0.30691,0.298097 -0.16863,0 -0.30269,-0.129469 -0.30269,-0.298097"
       style="fill:#000000;fill-opacity:1;fill-rule:nonzero;stroke:none;stroke-width:0.352778"
       id="path990"
       inkscape:connector-curvature="0"
       inkscape:export-xdpi="96"
       inkscape:export-ydpi="96" />
    <path
       d="m 184.17515,94.560833 0.29386,0.293864 c -0.20284,0.233539 -0.51435,0.376061 -0.84702,0.376061 -0.61418,0 -1.09361,-0.49283 -1.09361,-1.123597 0,-0.626886 0.47555,-1.115483 1.09361,-1.115483 0.33726,0 0.64841,0.129822 0.86431,0.363008 l -0.30268,0.315736 c -0.15099,-0.168628 -0.33726,-0.255058 -0.54469,-0.255058 -0.34996,0 -0.62195,0.30233 -0.62195,0.691797 0,0.392994 0.27199,0.691444 0.63535,0.691444 0.20708,0 0.39335,-0.0822 0.52282,-0.237772"
       style="fill:#000000;fill-opacity:1;fill-rule:nonzero;stroke:none;stroke-width:0.352778"
       id="path994"
       inkscape:connector-curvature="0"
       inkscape:export-xdpi="96"
       inkscape:export-ydpi="96" />
    <path
       d="m 185.21214,93.925586 h 1.12818 c -0.0561,-0.319969 -0.27658,-0.540455 -0.56585,-0.540455 -0.28999,0 -0.50589,0.211666 -0.56233,0.540455 m 0.61383,1.305278 c -0.61806,0 -1.10208,-0.492831 -1.10208,-1.123597 0,-0.635706 0.45368,-1.119717 1.05446,-1.119717 0.59231,0 1.02482,0.470958 1.02482,1.115131 v 0.121002 h -1.5995 c 0.0473,0.341136 0.31539,0.591961 0.64806,0.591961 0.20355,0 0.3937,-0.07338 0.5147,-0.202847 l 0.31997,0.298097 c -0.26353,0.220487 -0.52317,0.31997 -0.86043,0.31997"
       style="fill:#000000;fill-opacity:1;fill-rule:nonzero;stroke:none;stroke-width:0.352778"
       id="path998"
       inkscape:connector-curvature="0"
       inkscape:export-xdpi="96"
       inkscape:export-ydpi="96" />
    <path
       d="m 189.9884,93.303039 c -0.0734,-0.471311 -0.35878,-0.778228 -0.74331,-0.778228 -0.35454,0 -0.61806,0.246592 -0.61806,0.575028 0,0.33267 0.2547,0.566209 0.6223,0.566209 0.28998,0 0.55351,-0.134056 0.73907,-0.363009 m 0.49283,0.289278 c 0,0.981781 -0.56162,1.634067 -1.40935,1.634067 -0.28928,0 -0.60078,-0.09913 -0.80363,-0.259292 l 0.25929,-0.349956 c 0.17287,0.125237 0.36301,0.185914 0.5835,0.185914 0.56162,0 0.89041,-0.440972 0.89923,-1.201561 -0.21202,0.280811 -0.51435,0.44062 -0.83432,0.44062 -0.59196,0 -1.01141,-0.389114 -1.01141,-0.929217 0,-0.575028 0.44944,-0.994128 1.06327,-0.994128 0.7433,0 1.25342,0.600781 1.25342,1.473553"
       style="fill:#000000;fill-opacity:1;fill-rule:nonzero;stroke:none;stroke-width:0.352778"
       id="path1002"
       inkscape:connector-curvature="0"
       inkscape:export-xdpi="96"
       inkscape:export-ydpi="96" />
    <path
       d="m 170.80748,116.99771 c 0.41275,0.33937 0.71085,0.46778 1.07774,0.46778 0.42651,0 0.72002,-0.21554 0.72002,-0.50905 0,-0.26141 -0.15593,-0.38065 -0.58244,-0.45861 l -0.59161,-0.1009 c -0.55527,-0.10089 -0.8255,-0.37641 -0.8255,-0.81668 0,-0.5775 0.4632,-0.96273 1.18322,-0.96273 0.48154,0 0.92216,0.14676 1.2887,0.41734 l -0.27976,0.41239 c -0.32102,-0.24729 -0.66957,-0.37112 -1.02764,-0.37112 -0.38488,0 -0.63711,0.19262 -0.63711,0.45403 0,0.2293 0.14217,0.34854 0.4953,0.40357 l 0.56832,0.1009 c 0.647,0.11006 0.94968,0.3944 0.94968,0.88053 0,0.58702 -0.52282,1.00436 -1.2887,1.00436 -0.50447,0 -0.94015,-0.17427 -1.34832,-0.51788 z"
       style="fill:#000000;fill-opacity:1;fill-rule:nonzero;stroke:none;stroke-width:0.352778"
       id="path1006"
       inkscape:connector-curvature="0"
       inkscape:export-xdpi="96"
       inkscape:export-ydpi="96" />
    <path
       d="m 174.10031,116.53437 h 1.19733 c -0.06,-0.33937 -0.29351,-0.57326 -0.60114,-0.57326 -0.30727,0 -0.53657,0.22507 -0.59619,0.57326 m 0.65123,1.38536 c -0.65582,0 -1.16946,-0.52317 -1.16946,-1.19239 0,-0.67416 0.48154,-1.1878 1.11901,-1.1878 0.6283,0 1.08691,0.49989 1.08691,1.18286 v 0.12841 h -1.69686 c 0.0504,0.36266 0.33478,0.62865 0.68791,0.62865 0.21555,0 0.41734,-0.078 0.54575,-0.2159 l 0.33973,0.3168 c -0.28011,0.23389 -0.55528,0.33937 -0.91299,0.33937"
       style="fill:#000000;fill-opacity:1;fill-rule:nonzero;stroke:none;stroke-width:0.352778"
       id="path1010"
       inkscape:connector-curvature="0"
       inkscape:export-xdpi="96"
       inkscape:export-ydpi="96" />
    <path
       d="m 176.31515,115.57595 h 0.51823 v 0.49988 c 0.12383,-0.35313 0.34396,-0.54116 0.63289,-0.54116 0.0871,0.005 0.14675,0.0138 0.22472,0.0459 v 0.45403 c -0.0825,-0.0367 -0.18803,-0.0547 -0.28434,-0.0547 -0.24765,0 -0.45861,0.14181 -0.57327,0.38064 v 1.51342 h -0.51823 z"
       style="fill:#000000;fill-opacity:1;fill-rule:nonzero;stroke:none;stroke-width:0.352778"
       id="path1014"
       inkscape:connector-curvature="0"
       inkscape:export-xdpi="96"
       inkscape:export-ydpi="96" />
    <path
       d="m 177.91574,115.57595 h 0.56445 l 0.63711,1.67887 0.63783,-1.67887 h 0.54574 l -0.94474,2.29799 h -0.49988 z"
       style="fill:#000000;fill-opacity:1;fill-rule:nonzero;stroke:none;stroke-width:0.352778"
       id="path1018"
       inkscape:connector-curvature="0"
       inkscape:export-xdpi="96"
       inkscape:export-ydpi="96" />
    <path
       d="m 181.19037,117.8738 h -0.51823 v -2.29799 h 0.51823 z m -0.58279,-3.08187 c 0,-0.17427 0.14711,-0.32102 0.32138,-0.32102 0.17886,0 0.32561,0.14675 0.32561,0.32102 0,0.17886 -0.14217,0.31609 -0.32561,0.31609 -0.17886,0 -0.32138,-0.13723 -0.32138,-0.31609"
       style="fill:#000000;fill-opacity:1;fill-rule:nonzero;stroke:none;stroke-width:0.352778"
       id="path1020"
       inkscape:connector-curvature="0"
       inkscape:export-xdpi="96"
       inkscape:export-ydpi="96" />
    <path
       d="m 183.46959,117.20857 0.31186,0.31221 c -0.2159,0.24765 -0.54575,0.39899 -0.89888,0.39899 -0.65158,0 -1.16029,-0.52317 -1.16029,-1.19239 0,-0.66534 0.50448,-1.18357 1.16029,-1.18357 0.35772,0 0.68792,0.13758 0.91722,0.38523 l -0.32138,0.33479 c -0.16051,-0.17886 -0.35736,-0.27023 -0.57749,-0.27023 -0.37148,0 -0.6604,0.32068 -0.6604,0.73378 0,0.41698 0.28892,0.73378 0.67415,0.73378 0.22014,0 0.41699,-0.0871 0.55492,-0.25259"
       style="fill:#000000;fill-opacity:1;fill-rule:nonzero;stroke:none;stroke-width:0.352778"
       id="path1024"
       inkscape:connector-curvature="0"
       inkscape:export-xdpi="96"
       inkscape:export-ydpi="96" />
    <path
       d="m 184.5703,116.53437 h 1.19732 c -0.0596,-0.33937 -0.29351,-0.57326 -0.60113,-0.57326 -0.30727,0 -0.53658,0.22507 -0.59619,0.57326 m 0.65122,1.38536 c -0.65581,0 -1.16946,-0.52317 -1.16946,-1.19239 0,-0.67416 0.48155,-1.1878 1.11902,-1.1878 0.62829,0 1.0869,0.49989 1.0869,1.18286 v 0.12841 h -1.69686 c 0.0505,0.36266 0.33479,0.62865 0.68792,0.62865 0.21555,0 0.41734,-0.078 0.54575,-0.2159 l 0.33972,0.3168 c -0.27975,0.23389 -0.55527,0.33937 -0.91299,0.33937"
       style="fill:#000000;fill-opacity:1;fill-rule:nonzero;stroke:none;stroke-width:0.352778"
       id="path1028"
       inkscape:connector-curvature="0"
       inkscape:export-xdpi="96"
       inkscape:export-ydpi="96" />
    <path
       d="m 188.73406,117.8738 h -0.49989 v -2.68746 l -0.56832,0.2473 v -0.44486 l 0.75212,-0.32561 h 0.31609 z"
       style="fill:#000000;fill-opacity:1;fill-rule:nonzero;stroke:none;stroke-width:0.352778"
       id="path1032"
       inkscape:connector-curvature="0"
       inkscape:export-xdpi="96"
       inkscape:export-ydpi="96" />
    <path
       d="m 191.42191,116.26393 c 0,-0.73836 -0.31644,-1.20614 -0.81209,-1.20614 -0.49495,0 -0.81175,0.47237 -0.81175,1.20614 0,0.74295 0.3168,1.21109 0.81175,1.21109 0.49988,0 0.81209,-0.46355 0.81209,-1.21109 m -2.12372,0 c 0,-0.97719 0.53199,-1.651 1.31163,-1.651 0.78457,0 1.31198,0.67381 1.31198,1.651 0,0.98602 -0.52741,1.65559 -1.31198,1.65559 -0.78388,0 -1.31163,-0.66957 -1.31163,-1.65559"
       style="fill:#000000;fill-opacity:1;fill-rule:nonzero;stroke:none;stroke-width:0.352778"
       id="path1036"
       inkscape:connector-curvature="0"
       inkscape:export-xdpi="96"
       inkscape:export-ydpi="96" />
    <path
       d="m 171.74524,48.93919 c 0.41275,0.33937 0.71084,0.46778 1.07773,0.46778 0.42651,0 0.72002,-0.21555 0.72002,-0.50906 0,-0.2614 -0.15593,-0.38064 -0.58243,-0.45861 l -0.59161,-0.10089 c -0.55528,-0.1009 -0.8255,-0.37642 -0.8255,-0.81668 0,-0.5775 0.46319,-0.96273 1.18321,-0.96273 0.48155,0 0.92216,0.14675 1.2887,0.41733 l -0.27975,0.4124 c -0.32103,-0.2473 -0.66957,-0.37112 -1.02764,-0.37112 -0.38488,0 -0.63712,0.19261 -0.63712,0.45402 0,0.22931 0.14217,0.34855 0.4953,0.40358 l 0.56832,0.1009 c 0.647,0.11006 0.94968,0.3944 0.94968,0.88053 0,0.58702 -0.52281,1.00436 -1.28869,1.00436 -0.50448,0 -0.94016,-0.17428 -1.34832,-0.51788 z"
       style="fill:#000000;fill-opacity:1;fill-rule:nonzero;stroke:none;stroke-width:0.352778"
       id="path1040"
       inkscape:connector-curvature="0"
       inkscape:export-xdpi="96"
       inkscape:export-ydpi="96" />
    <path
       d="m 175.03806,48.47581 h 1.19733 c -0.06,-0.33937 -0.29351,-0.57326 -0.60113,-0.57326 -0.30727,0 -0.53658,0.22507 -0.5962,0.57326 m 0.65123,1.38536 c -0.65581,0 -1.16946,-0.52317 -1.16946,-1.19239 0,-0.67415 0.48154,-1.1878 1.11901,-1.1878 0.6283,0 1.08691,0.49989 1.08691,1.18287 v 0.12841 h -1.69686 c 0.0504,0.36265 0.33479,0.62865 0.68792,0.62865 0.21555,0 0.41733,-0.078 0.54575,-0.2159 l 0.33972,0.31679 c -0.28011,0.23389 -0.55527,0.33937 -0.91299,0.33937"
       style="fill:#000000;fill-opacity:1;fill-rule:nonzero;stroke:none;stroke-width:0.352778"
       id="path1044"
       inkscape:connector-curvature="0"
       inkscape:export-xdpi="96"
       inkscape:export-ydpi="96" />
    <path
       d="m 177.25291,47.51739 h 0.51823 v 0.49988 c 0.12382,-0.35313 0.34396,-0.54116 0.63288,-0.54116 0.0871,0.005 0.14676,0.0138 0.22472,0.0459 v 0.45403 c -0.0826,-0.0367 -0.18803,-0.0547 -0.28434,-0.0547 -0.24765,0 -0.45861,0.14182 -0.57326,0.38065 v 1.51341 h -0.51823 z"
       style="fill:#000000;fill-opacity:1;fill-rule:nonzero;stroke:none;stroke-width:0.352778"
       id="path1048"
       inkscape:connector-curvature="0"
       inkscape:export-xdpi="96"
       inkscape:export-ydpi="96" />
    <path
       d="m 178.8535,47.51739 h 0.56444 l 0.63712,1.67887 0.63782,-1.67887 h 0.54575 l -0.94474,2.29799 H 179.794 Z"
       style="fill:#000000;fill-opacity:1;fill-rule:nonzero;stroke:none;stroke-width:0.352778"
       id="path1052"
       inkscape:connector-curvature="0"
       inkscape:export-xdpi="96"
       inkscape:export-ydpi="96" />
    <path
       d="m 182.12805,49.81521 h -0.51823 v -2.298 h 0.51823 z m -0.58244,-3.08187 c 0,-0.17427 0.14676,-0.32103 0.32103,-0.32103 0.17921,0 0.32597,0.14676 0.32597,0.32103 0,0.17886 -0.14252,0.31609 -0.32597,0.31609 -0.17886,0 -0.32103,-0.13723 -0.32103,-0.31609"
       style="fill:#000000;fill-opacity:1;fill-rule:nonzero;stroke:none;stroke-width:0.352778"
       id="path1054"
       inkscape:connector-curvature="0"
       inkscape:export-xdpi="96"
       inkscape:export-ydpi="96" />
    <path
       d="m 184.40735,49.15001 0.31185,0.31221 c -0.2159,0.24765 -0.54574,0.39899 -0.89888,0.39899 -0.65158,0 -1.16028,-0.52317 -1.16028,-1.19239 0,-0.66534 0.50447,-1.18357 1.16028,-1.18357 0.35772,0 0.68792,0.13758 0.91723,0.38523 l -0.32138,0.33479 c -0.16052,-0.17886 -0.35737,-0.27023 -0.5775,-0.27023 -0.37148,0 -0.6604,0.32068 -0.6604,0.73378 0,0.41698 0.28892,0.73378 0.67416,0.73378 0.22013,0 0.41698,-0.0871 0.55492,-0.25259"
       style="fill:#000000;fill-opacity:1;fill-rule:nonzero;stroke:none;stroke-width:0.352778"
       id="path1058"
       inkscape:connector-curvature="0"
       inkscape:export-xdpi="96"
       inkscape:export-ydpi="96" />
    <path
       d="m 185.50805,48.47581 h 1.19733 c -0.0596,-0.33937 -0.29351,-0.57326 -0.60114,-0.57326 -0.30727,0 -0.53657,0.22507 -0.59619,0.57326 m 0.65123,1.38536 c -0.65582,0 -1.16946,-0.52317 -1.16946,-1.19239 0,-0.67415 0.48154,-1.1878 1.11901,-1.1878 0.6283,0 1.08691,0.49989 1.08691,1.18287 v 0.12841 h -1.69686 c 0.0504,0.36265 0.33478,0.62865 0.68791,0.62865 0.21555,0 0.41734,-0.078 0.54575,-0.2159 l 0.33973,0.31679 c -0.27976,0.23389 -0.55528,0.33937 -0.91299,0.33937"
       style="fill:#000000;fill-opacity:1;fill-rule:nonzero;stroke:none;stroke-width:0.352778"
       id="path1062"
       inkscape:connector-curvature="0"
       inkscape:export-xdpi="96"
       inkscape:export-ydpi="96" />
    <path
       d="m 189.77274,49.86107 c -0.47237,0 -0.89887,-0.17427 -1.1878,-0.48154 l 0.33937,-0.3168 c 0.25683,0.26176 0.48648,0.35807 0.84385,0.35807 0.41275,0 0.69709,-0.21555 0.69709,-0.53199 0,-0.28469 -0.23389,-0.48154 -0.56833,-0.48154 h -0.39934 v -0.41769 h 0.35771 c 0.30727,0 0.50942,-0.18768 0.50942,-0.48119 0,-0.28892 -0.26141,-0.50906 -0.61031,-0.50906 -0.32103,0 -0.53199,0.1009 -0.79763,0.38065 l -0.33973,-0.31679 c 0.2981,-0.32562 0.71085,-0.50871 1.1557,-0.50871 0.63783,0 1.09608,0.3803 1.09608,0.89888 0,0.35313 -0.25188,0.63712 -0.62371,0.73378 0.43568,0.0871 0.72496,0.37147 0.72496,0.73377 0,0.54575 -0.49988,0.94016 -1.19733,0.94016"
       style="fill:#000000;fill-opacity:1;fill-rule:nonzero;stroke:none;stroke-width:0.352778"
       id="path1066"
       inkscape:connector-curvature="0"
       inkscape:export-xdpi="96"
       inkscape:export-ydpi="96" />
    <path
       d="m 24.434345,17.72453 c 0.28011,-3.68371 3.49356,-6.44313 7.17726,-6.16303 3.2946,0.25047 5.91221,2.86879 6.16303,6.16303 z m 3.56941,-10.2714795 c 0,-1.71273 1.38818,-3.10056 3.10091,-3.10056 1.71239,0 3.10057,1.38783 3.10057,3.10056 0,1.71239 -1.38818,3.1005695 -3.10057,3.1005695 -1.71132,-0.004 -3.09739,-1.3895995 -3.10091,-3.1005695 m 5.28355,3.4215895 c 1.893,-1.2054395 2.45039,-3.7172195 1.24495,-5.6102195 -1.20544,-1.89336 -3.71757,-2.45075 -5.61058,-1.24531 -1.893,1.20544 -2.45039,3.71758 -1.24495,5.61058 0.31891,0.5012995 0.74401,0.9260395 1.24495,1.2449495 -3.24132,0.96908 -5.46382,3.94829 -5.46946,7.33143 0.004,0.26423 0.21696,0.47802 0.48154,0.48119 h 14.34147 c 0.26459,-0.003 0.47802,-0.21696 0.48155,-0.48119 -0.006,-3.38314 -2.22815,-6.36235 -5.46947,-7.33143"
       style="fill:#000000;fill-opacity:1;fill-rule:nonzero;stroke:none;stroke-width:0.352778"
       id="path1070"
       inkscape:connector-curvature="0"
       inkscape:export-xdpi="96"
       inkscape:export-ydpi="96" />
  </g>
</svg>
