<?xml version="1.0" encoding="UTF-8"?>
<svg id="uuid-73aee401-325a-4397-8791-098e2c1ddc29" data-name="Layer 1" xmlns="http://www.w3.org/2000/svg" width="595.276" height="197.164" xmlns:xlink="http://www.w3.org/1999/xlink" viewBox="0 0 595.276 197.164">
  <defs>
    <style>
      .uuid-9ec518ee-fce9-45c2-8100-6bf3aad44212, .uuid-e8f1cd71-5498-4ae4-8ba3-fe91e6c6cd9b, .uuid-a9a04cc6-167a-436b-b088-83ece39678e1 {
        fill: none;
      }

      .uuid-04ccb3fb-e514-4ed1-9382-6313ba7ae8d0 {
        fill: #fafafd;
      }

      .uuid-9e6a6076-0a45-499e-9cc9-07ac27ebfa03 {
        clip-path: url(#uuid-8f4c31d8-ee68-49fa-a19f-765871e2d73f);
      }

      .uuid-8f639386-a45e-4c5f-b12d-d330972af70a {
        fill: #edeffa;
      }

      .uuid-a1e135b2-a376-4a15-a183-34aa00ef0143 {
        fill: #c03a2c;
      }

      .uuid-cf2a1fa1-87f3-480c-b74e-619bfaebf7d4 {
        fill: #e5e8f8;
      }

      .uuid-1fe4bf6e-bb3b-43ff-a924-f9450b6eed23 {
        fill: #010101;
      }

      .uuid-1f433dc1-1c16-4433-92a3-3810d5de1620 {
        fill: #f0f1fa;
      }

      .uuid-b31d9caf-d93c-4e2b-afd5-0a309cf4a0e6 {
        clip-path: url(#uuid-c1f71bc9-8fe4-49e9-8443-01b801bf3fd4);
      }

      .uuid-c0497c69-0669-4ff9-adcc-2a6f4f14c805 {
        fill: #d2d8f3;
      }

      .uuid-b90ed8e0-1695-48c5-8709-46db26817e73 {
        fill: #e6e6e6;
      }

      .uuid-0566858a-1009-4f7c-97cb-ae14677ab6e6 {
        fill: #495cbf;
      }

      .uuid-2682c886-2a10-4637-992a-52ce07295f36 {
        fill: #5275de;
      }

      .uuid-543117bc-f5e7-43c8-94af-72297450321f {
        fill: #123143;
      }

      .uuid-05feb232-3645-434e-bacb-381cdf3fc3b1 {
        fill: #f8f9fd;
      }

      .uuid-be0aa7ff-68ed-4bdc-9ec8-eaa9e53d072f {
        fill: #de7f56;
      }

      .uuid-7efe35d3-3ae8-4af7-96ea-1157bab719fd {
        fill: url(#uuid-d552bfc6-777e-4d5f-91ba-a8291ec396d4);
      }

      .uuid-cc69fcef-b720-428d-a251-58454d75f3e9 {
        fill: #4d72dd;
      }

      .uuid-00d0be6c-3a0e-4833-bf18-8424492f204f {
        fill: #1b3041;
      }

      .uuid-6c05a531-d05f-432d-a812-255db8cab074 {
        fill: #4291d7;
      }

      .uuid-f3aaa16b-a1d6-4c03-b841-c9d34ea52bbb {
        fill: #5469a6;
      }

      .uuid-eaa918a2-a3b9-43d2-8ef5-fab2b114ef28 {
        clip-path: url(#uuid-20d8fe0f-8fbd-4a4c-a2ec-f5dbc3ca159b);
      }

      .uuid-8133c68e-430f-411a-b3de-597114745c6c {
        fill: #e8f4f6;
      }

      .uuid-129eac7d-1363-4998-9f85-4b3b92f50faf {
        fill: #d92f20;
      }

      .uuid-b917e5f4-bd0b-4076-a9c7-2926a9ac01fd {
        fill: #bacde6;
      }

      .uuid-0466149f-8aa5-4f06-812f-807fcc3eae18 {
        fill: #f9f9fd;
      }

      .uuid-80a2062b-830f-4315-bb66-c5b041c10406 {
        fill: #d45c3a;
      }

      .uuid-07b9658f-a725-4a73-99d9-688be5e325aa {
        fill: #436bdc;
      }

      .uuid-451574d9-a73a-42d9-b023-90f722223ea2 {
        fill: #d15844;
      }

      .uuid-2bd04493-86c1-4944-9fb3-4d35c18242c3 {
        fill: #587adf;
      }

      .uuid-b8c49e2a-cfcb-400b-9d25-4471e3b178fa {
        fill: #cfd5f2;
      }

      .uuid-d07c0d5f-041c-4c06-985f-966908d8f858 {
        fill: #fff;
      }

      .uuid-8550f005-d8a6-410b-8a7a-defc4b014662 {
        fill: #121212;
      }

      .uuid-2ff4a8a1-174c-4dfe-822f-9be4f78deb39 {
        fill: #f5f6fc;
      }

      .uuid-e8f1cd71-5498-4ae4-8ba3-fe91e6c6cd9b {
        stroke: #e6e6e6;
      }

      .uuid-e8f1cd71-5498-4ae4-8ba3-fe91e6c6cd9b, .uuid-a9a04cc6-167a-436b-b088-83ece39678e1 {
        stroke-miterlimit: 10;
      }

      .uuid-7305554b-efc8-4e89-b04f-9d31b123db22 {
        fill: #d86d53;
      }

      .uuid-5275765a-14df-4f52-abcb-6a5a26463076 {
        fill: #f0f2fa;
      }

      .uuid-a9a04cc6-167a-436b-b088-83ece39678e1 {
        stroke: #000;
      }

      .uuid-47662ba0-1f8b-4f69-8a47-5f5e7e9eb334 {
        clip-path: url(#uuid-dfc630f8-55a2-49d9-af58-207047f846e2);
      }

      .uuid-1aa4093b-b863-44d7-b36a-1cede76a905d {
        fill: #f5dfc5;
      }

      .uuid-270d44a3-f5ca-4ea3-84f6-fbd319285bbd {
        fill: #fefefe;
      }

      .uuid-9c321fad-3ccb-48d8-9036-c061b768cdf5 {
        clip-path: url(#uuid-3307f0ea-3d63-41e5-b4fb-e1a3c6a328ec);
      }

      .uuid-7cbbfbf0-a152-45be-9534-9b61fa46683a {
        fill: #466ddc;
      }

      .uuid-b6c2a4eb-2e40-4d57-80b1-6ec95c5bb5a9 {
        fill: #f8f9fc;
      }

      .uuid-5e479b2e-4a65-4022-8fc0-102e4ff5ecc4 {
        fill: #1b3143;
      }

      .uuid-60611d5f-d25f-4efc-aef5-da1527519b75 {
        fill: #e64c3c;
      }

      .uuid-5f22a8fc-c01e-45ea-a5c7-31eb11f53e3d {
        fill: #d4daf4;
      }

      .uuid-ff47c324-5dca-475e-8b4f-526f0e18a6ac {
        fill: #fbfcfd;
      }

      .uuid-1011d826-3368-41bd-8547-038a3f674e0c {
        fill: #f9fafd;
      }

      .uuid-c606f82d-b1ab-4731-914f-6fc7fd68974e {
        fill: #e8aa3b;
      }

      .uuid-4fde8f2f-5ea1-4587-82be-7f04113eb05d {
        fill: #ced4f2;
      }

      .uuid-cf90738f-c925-4d31-995b-34f4883588d5 {
        fill: #d4e6ee;
      }

      .uuid-8cbd95fd-63e4-4976-85aa-4a3ee4cd1eb5 {
        fill: #f6f7fc;
      }

      .uuid-faa159b8-bd87-45f6-89e0-70029f1d44e6 {
        fill: #e5e9f8;
      }
    </style>
    <clipPath id="uuid-8f4c31d8-ee68-49fa-a19f-765871e2d73f">
      <rect class="uuid-9ec518ee-fce9-45c2-8100-6bf3aad44212" x="326.816" y="76.217" width="12.001" height="13.91"/>
    </clipPath>
    <clipPath id="uuid-20d8fe0f-8fbd-4a4c-a2ec-f5dbc3ca159b">
      <polygon class="uuid-9ec518ee-fce9-45c2-8100-6bf3aad44212" points="338.734 76.253 338.039 92.137 327.604 92.137 327.024 76.253 338.734 76.253"/>
    </clipPath>
    <clipPath id="uuid-dfc630f8-55a2-49d9-af58-207047f846e2">
      <rect class="uuid-9ec518ee-fce9-45c2-8100-6bf3aad44212" x="315.361" y="65.034" width="34.912" height="34.912"/>
    </clipPath>
    <clipPath id="uuid-3307f0ea-3d63-41e5-b4fb-e1a3c6a328ec">
      <rect class="uuid-9ec518ee-fce9-45c2-8100-6bf3aad44212" x="315.361" y="65.034" width="34.912" height="34.912"/>
    </clipPath>
    <clipPath id="uuid-c1f71bc9-8fe4-49e9-8443-01b801bf3fd4">
      <rect class="uuid-9ec518ee-fce9-45c2-8100-6bf3aad44212" x="315.361" y="65.034" width="34.912" height="34.912"/>
    </clipPath>
    <linearGradient id="uuid-d552bfc6-777e-4d5f-91ba-a8291ec396d4" x1="193.222" y1="1246.616" x2="166.955" y2="1238.514" gradientTransform="translate(0 1323.486) scale(1 -1)" gradientUnits="userSpaceOnUse">
      <stop offset="0" stop-color="#fbf050"/>
      <stop offset="1" stop-color="#dd643a"/>
    </linearGradient>
  </defs>
  <rect class="uuid-d07c0d5f-041c-4c06-985f-966908d8f858" x="-.984" y=".093" width="597.244" height="196.977"/>
  <rect class="uuid-b90ed8e0-1695-48c5-8709-46db26817e73" x="16.701" y="24.754" width="409.248" height="152.692"/>
  <rect class="uuid-d07c0d5f-041c-4c06-985f-966908d8f858" x="26.057" y="33.43" width="391.321" height="85.474"/>
  <rect class="uuid-d07c0d5f-041c-4c06-985f-966908d8f858" x="25.509" y="126.137" width="125.035" height="44.556"/>
  <rect class="uuid-d07c0d5f-041c-4c06-985f-966908d8f858" x="158.858" y="126.137" width="125.035" height="44.556"/>
  <rect class="uuid-d07c0d5f-041c-4c06-985f-966908d8f858" x="292.207" y="126.137" width="125.035" height="44.556"/>
  <g>
    <g>
      <path class="uuid-6c05a531-d05f-432d-a812-255db8cab074" d="M201.332,142.232c-2.937,3.61-2.924,8.746,0,12.357-3.108,1.425-6.783.241-8.524-2.669-2.927-4.893,1.142-11.104,6.805-10.204.594.094,1.164.291,1.719.515Z"/>
      <path class="uuid-543117bc-f5e7-43c8-94af-72297450321f" d="M201.332,154.59c-2.924-3.612-2.937-8.748,0-12.357,4.103-5.043,11.914-4.751,15.632.573,3.208,4.593,1.899,10.919-2.806,13.893-4.187,2.647-9.724,1.724-12.826-2.109ZM205.596,140.804c-2.279.978-4.056,3.063-4.688,5.46-1.053,3.988.944,8.101,4.688,9.755,4.814,2.125,10.426-.792,11.466-5.917,1.341-6.606-5.261-11.961-11.466-9.297Z"/>
      <path class="uuid-6c05a531-d05f-432d-a812-255db8cab074" d="M205.596,156.018c-3.745-1.653-5.741-5.766-4.688-9.755.633-2.396,2.41-4.481,4.688-5.46.066.152.24.251.352.362,4.086,4.049,4.062,10.665-.136,14.626-.071.067-.19.121-.216.226Z"/>
    </g>
    <path class="uuid-00d0be6c-3a0e-4833-bf18-8424492f204f" d="M225.129,142.031c-.181.048-.174.428,0,.466.005.077-.003.156,0,.233v5.241l-.114.058c.018.078.102.047.114.058.036.033.037.234.236.063l2.554-2.922c.808-1.117,2.7-.296,2.283,1.002-.155.482-2.164,2.163-2.163,2.496l2.663,3.629c.699,1.248-.656,2.63-1.888,1.772-.621-.433-2.47-3.72-2.699-3.714-1.338.486-.768,1.391-.885,2.493-.073.686-.237,1.304-1.003,1.443-1.005.182-1.574-.324-1.666-1.307-.32-3.41.226-7.345.031-10.81.25-1.411,2.28-1.293,2.536-.202Z"/>
    <path class="uuid-00d0be6c-3a0e-4833-bf18-8424492f204f" d="M241.318,152.98c-2.072,2.219-6.929,1.948-6.395-1.912.356-2.569,3.851-2.101,5.585-2.571.347-.094.529-.224.57-.592.177-1.597-1.973-1.513-2.984-.887-.632.391-.715.992-1.609.964-1.653-.051-1.006-1.872.02-2.553,1.844-1.223,6.936-1.217,7.261,1.669.169,1.504-.087,3.338-.004,4.896.041.763.645,1.772-.314,2.24s-2.156-.153-2.129-1.254ZM241.202,149.836c-.269.013-.411.228-.69.299-.817.207-2.771.08-3.014,1.182-.315,1.428,1.661,1.58,2.601,1.084,1.028-.543,1.183-1.49,1.103-2.565Z"/>
    <path class="uuid-00d0be6c-3a0e-4833-bf18-8424492f204f" d="M247.34,153.992c-.673.726-2.269.43-2.296-.719.289-3.473-.378-7.552.003-10.951.173-1.542,2.398-1.487,2.565-.003-.246,3.49.317,7.402.003,10.841-.024.267-.092.634-.275.832Z"/>
    <path class="uuid-00d0be6c-3a0e-4833-bf18-8424492f204f" d="M232.201,144.735c.939-.211,1.774.034,1.9,1.079.174,1.455.18,6.01-.013,7.447-.211,1.57-2.481,1.615-2.667-.224-.164-1.622-.181-5.498-.002-7.104.053-.475.26-1.08.782-1.198Z"/>
    <path class="uuid-00d0be6c-3a0e-4833-bf18-8424492f204f" d="M248.89,153.329v-7.454c.138-1.668,2.428-1.585,2.568-.064.166,1.808.168,5.542-.001,7.348-.163,1.749-2.42,1.57-2.567.17Z"/>
    <path class="uuid-5e479b2e-4a65-4022-8fc0-102e4ff5ecc4" d="M250.031,141.124c2.24-.192,1.69,3.582-.443,2.596-1.301-.601-.922-2.479.443-2.596Z"/>
    <path class="uuid-00d0be6c-3a0e-4833-bf18-8424492f204f" d="M232.676,141.124c1.498-.128,2.022,1.971.711,2.583-1.976.922-2.834-2.402-.711-2.583Z"/>
    <path class="uuid-8550f005-d8a6-410b-8a7a-defc4b014662" d="M248.89,153.329c-.191-1.822-.154-5.6,0-7.454v7.454Z"/>
    <path class="uuid-8550f005-d8a6-410b-8a7a-defc4b014662" d="M225.129,147.739v-5.008c.064,1.64,0,3.359,0,5.008Z"/>
    <path class="uuid-8550f005-d8a6-410b-8a7a-defc4b014662" d="M225.129,142.497c-.174-.038-.181-.418,0-.466.028.121-.01.32,0,.466Z"/>
    <path class="uuid-8550f005-d8a6-410b-8a7a-defc4b014662" d="M225.129,148.088c-.012-.011-.096.02-.114-.058l.114-.058v.116Z"/>
  </g>
  <g>
    <polygon class="uuid-f3aaa16b-a1d6-4c03-b841-c9d34ea52bbb" points="60.037 157.804 67.495 143.675 67.495 156.781 60.037 158.175 60.037 157.804"/>
    <polygon class="uuid-f3aaa16b-a1d6-4c03-b841-c9d34ea52bbb" points="60.037 159.291 79.428 159.293 67.682 163.009 67.123 163.009 60.037 159.477 60.037 159.291"/>
    <polygon class="uuid-f3aaa16b-a1d6-4c03-b841-c9d34ea52bbb" points="68.428 133.822 79.432 158.08 68.428 156.781 68.428 133.822"/>
    <path class="uuid-f3aaa16b-a1d6-4c03-b841-c9d34ea52bbb" d="M110.521,146.693c3.689-.623,5.826,1.637,5.454,5.252-.529,5.138-8.858,4.837-8.777-.926.026-1.87,1.382-3.999,3.323-4.326ZM112.936,148.938c-.462-.426-1.226-.488-1.819-.349-2.269.531-1.728,6.363,1.368,4.895,1.397-.662,1.421-3.653.451-4.546Z"/>
    <path class="uuid-f3aaa16b-a1d6-4c03-b841-c9d34ea52bbb" d="M96.212,149.437c-.586-.097-1.619.155-2.121-.022-.323-.114-.275-.59-.491-.811-.618-.631-3.085-.346-2.25.754.787,1.037,4.762.314,5.053,2.771.541,4.578-7.841,4.582-7.836.284.59.097,1.614-.154,2.121.024.302.106.339.714.661,1.014,1.092,1.015,3.265.071,2.595-1.01-.485-.783-5.028-.447-5.202-2.912-.278-3.933,7.535-3.974,7.471-.091Z"/>
    <path class="uuid-f3aaa16b-a1d6-4c03-b841-c9d34ea52bbb" d="M98.263,148.508c-.074-.074-1.232.075-1.306,0-.06-.059-.06-1.616,0-1.675.076-.076,1.231.078,1.307.002.122-.121-.177-2.379.106-2.421l2.318.002c.063.373-.088,2.333-.002,2.419.07.07,1.384-.052,1.68-.002v1.675s-1.679,0-1.679,0v4.369c0,.911,1.672.46,1.777.641.557,2.098-.49,2.072-2.243,1.869-.755-.088-1.958-.753-1.958-1.58,0-.719.188-5.111,0-5.298Z"/>
    <path class="uuid-f3aaa16b-a1d6-4c03-b841-c9d34ea52bbb" d="M87.261,143.675v11.433c0,.476-2.342.217-2.797.279v-11.712h2.797Z"/>
    <rect class="uuid-f3aaa16b-a1d6-4c03-b841-c9d34ea52bbb" x="103.484" y="146.835" width="2.424" height="8.552"/>
    <rect class="uuid-f3aaa16b-a1d6-4c03-b841-c9d34ea52bbb" x="103.483" y="143.674" width="2.426" height="2.047"/>
  </g>
  <g>
    <g>
      <path d="M344.021,159.625c-2.399,0-4.28-1.87-4.28-4.245s1.881-4.245,4.28-4.245,4.292,1.87,4.292,4.245-1.893,4.245-4.292,4.245ZM344.021,152.276c-1.705,0-3.022,1.34-3.022,3.104,0,1.752,1.317,3.104,3.022,3.104,1.717,0,3.034-1.352,3.034-3.104,0-1.764-1.317-3.104-3.034-3.104Z"/>
      <path d="M349.489,153.511h1.164v.576c.494-.435,1.129-.67,1.834-.67,1.693,0,3.022,1.352,3.022,3.081,0,1.74-1.329,3.093-3.046,3.093-.658,0-1.294-.212-1.799-.588v2.928h-1.176v-8.419ZM350.665,155.157v2.704c.376.435.999.706,1.67.706,1.152,0,2.022-.882,2.022-2.058s-.882-2.07-2.022-2.07c-.682,0-1.282.259-1.67.717Z"/>
      <path d="M359.519,159.602c-1.764,0-3.14-1.352-3.14-3.104,0-1.729,1.317-3.081,2.998-3.081,1.646,0,2.893,1.364,2.893,3.128v.341h-4.727c.165.999.988,1.717,2.022,1.717.588,0,1.141-.2,1.517-.529l.753.741c-.694.541-1.423.788-2.316.788ZM357.555,156.003h3.551c-.176-.917-.882-1.599-1.752-1.599-.905,0-1.623.647-1.799,1.599Z"/>
      <path d="M363.387,153.511h1.176v.6c.47-.47,1.082-.717,1.799-.717,1.376,0,2.34.952,2.34,2.34v3.763h-1.176v-3.563c0-.941-.576-1.517-1.482-1.517-.635,0-1.152.27-1.481.776v4.304h-1.176v-5.985Z"/>
      <path d="M370.206,157.262c.894.87,1.811,1.293,2.834,1.293,1.188,0,1.999-.564,1.999-1.376,0-.729-.47-1.094-1.67-1.293l-1.376-.223c-1.505-.247-2.246-.952-2.246-2.14,0-1.435,1.199-2.363,3.034-2.363,1.176,0,2.387.4,3.316,1.117l-.682.941c-.894-.682-1.776-1.011-2.693-1.011-1.07,0-1.787.494-1.787,1.223,0,.67.412.988,1.47,1.164l1.329.212c1.74.282,2.528.999,2.528,2.281,0,1.517-1.317,2.528-3.281,2.528-1.317,0-2.587-.529-3.528-1.482l.753-.87Z"/>
      <path d="M377.261,151.265l1.176-.259v3.104c.47-.47,1.082-.717,1.799-.717,1.376,0,2.34.952,2.34,2.34v3.763h-1.176v-3.563c0-.941-.576-1.517-1.482-1.517-.635,0-1.152.27-1.481.776v4.304h-1.176v-8.231Z"/>
      <path d="M383.798,151.817c0-.4.318-.729.717-.729s.729.329.729.729-.329.729-.729.729-.717-.329-.717-.729ZM385.104,159.496h-1.176v-5.985h1.176v5.985Z"/>
      <path d="M387.385,153.511v-.905c0-1.246.717-1.928,2.034-1.928.318,0,.6.035.847.106v1.023c-.282-.082-.47-.106-.741-.106-.647,0-.964.294-.964.929v.882h1.705v.988h-1.705v4.997h-1.176v-4.997h-1.387v-.988h1.387Z"/>
      <path d="M392.052,154.498h-1.27v-.988h1.27v-1.529l1.164-.282v1.811h1.764v.988h-1.764v3.245c0,.611.247.835.882.835.329,0,.564-.035.858-.141v.988c-.317.106-.764.176-1.117.176-1.164,0-1.787-.553-1.787-1.587v-3.516Z"/>
    </g>
    <g>
      <g>
        <path class="uuid-129eac7d-1363-4998-9f85-4b3b92f50faf" d="M328.825,144.284c1.414,0,3.461-.293,3.461-1.974,0-.131-.004-.259-.035-.387l-.842-3.659c-.195-.804-.366-1.17-1.779-1.877-1.097-.56-3.485-1.487-4.192-1.487-.658,0-.853.853-1.633.853-.755,0-1.316-.634-2.023-.634-.682,0-1.121.463-1.462,1.414,0,0-.951,2.681-1.072,3.071-.024.073-.025.155-.025.22,0,1.042,4.103,4.46,9.603,4.46M332.505,142.993c.195.926.195,1.024.195,1.145,0,1.584-1.779,2.462-4.119,2.462-5.289,0-9.92-3.095-9.92-5.142,0-.317.073-.609.171-.829-1.901.097-4.363.439-4.363,2.608,0,3.558,8.433,7.945,15.111,7.945,5.118,0,6.41-2.315,6.41-4.143,0-1.438-1.243-3.071-3.485-4.046"/>
        <path d="M332.505,142.993c.195.926.195,1.024.195,1.145,0,1.584-1.779,2.462-4.119,2.462-5.289,0-9.92-3.095-9.92-5.142,0-.317.073-.609.171-.829l.414-1.024c-.024.073-.025.155-.025.22,0,1.042,4.103,4.46,9.603,4.46,1.414,0,3.461-.293,3.461-1.974,0-.131-.004-.259-.035-.387l.254,1.069Z"/>
      </g>
      <path d="M379.957,145.337c0,1.344.809,1.998,2.283,1.998.357,0,.975-.083,1.344-.19v-1.558c-.321.095-.559.131-.868.131-.606,0-.832-.19-.832-.761v-2.39h1.76v-1.605h-1.76v-2.033l-1.926.416v1.617h-1.272v1.605h1.272v2.77ZM373.972,145.373c0-.416.416-.618,1.046-.618.416,0,.797.059,1.141.143v.809c-.357.202-.773.297-1.201.297-.618,0-.987-.238-.987-.63M374.559,147.358c.678,0,1.225-.143,1.736-.487v.38h1.902v-4.031c0-1.534-1.034-2.378-2.759-2.378-.963,0-1.914.226-2.937.69l.69,1.415c.737-.309,1.355-.499,1.902-.499.797,0,1.201.309,1.201.939v.309c-.452-.119-.927-.178-1.427-.178-1.617,0-2.592.678-2.592,1.891,0,1.106.88,1.95,2.283,1.95M364.108,147.251h2.045v-3.258h3.424v3.258h2.045v-8.323h-2.045v3.198h-3.424v-3.198h-2.045v8.323ZM356.315,144.1c0-.904.713-1.593,1.653-1.593.523,0,.999.178,1.332.488v2.2c-.345.333-.797.499-1.332.499-.927,0-1.653-.69-1.653-1.593M359.323,147.251h1.902v-8.739l-1.926.416v2.366c-.476-.273-1.023-.416-1.605-.416-1.831,0-3.27,1.415-3.27,3.222s1.415,3.234,3.21,3.234c.618,0,1.201-.19,1.688-.547v.464ZM350.596,142.424c.606,0,1.118.392,1.32.999h-2.628c.19-.63.666-.999,1.308-.999M347.35,144.112c0,1.831,1.498,3.258,3.424,3.258,1.058,0,1.831-.285,2.628-.951l-1.272-1.13c-.297.309-.737.476-1.26.476-.713,0-1.296-.392-1.546-.999h4.483v-.476c0-1.998-1.344-3.436-3.175-3.436-1.843,0-3.282,1.427-3.282,3.258M344.033,140.676c.678,0,1.058.428,1.058.939s-.38.939-1.058.939h-2.021v-1.879h2.021ZM339.966,147.251h2.045v-3.032h1.558l1.57,3.032h2.283l-1.831-3.329c.987-.428,1.57-1.32,1.57-2.342,0-1.498-1.177-2.652-2.937-2.652h-4.257v8.323Z"/>
    </g>
  </g>
  <g>
    <path d="M480.415,127.1c0-2.019,1.589-3.608,3.618-3.608s3.617,1.589,3.617,3.608-1.589,3.608-3.617,3.608-3.618-1.589-3.618-3.608ZM485.882,127.1c0-1.189-.8-2.079-1.849-2.079s-1.85.89-1.85,2.079.8,2.079,1.85,2.079,1.849-.889,1.849-2.079Z"/>
    <path d="M488.735,125.441h1.599v.72c.34-.46.909-.75,1.529-.75,1.27,0,2.278,1.169,2.278,2.619s-1.06,2.598-2.398,2.598c-.56,0-1.05-.209-1.39-.6v2.659h-1.618v-7.246ZM492.553,128.019c0-.729-.529-1.269-1.229-1.269-.399,0-.709.14-.97.419v1.719c.25.26.59.41.97.41.71,0,1.229-.54,1.229-1.279Z"/>
    <path d="M494.945,128.029c0-1.509,1.119-2.669,2.599-2.669,1.488,0,2.538,1.129,2.538,2.729v.35h-3.548c.149.58.619.969,1.209.969.43,0,.79-.15,1.02-.43l1.069.89c-.669.589-1.299.83-2.169.83-1.519,0-2.718-1.169-2.718-2.668ZM498.583,127.52c-.14-.55-.529-.9-1.05-.9-.51,0-.869.33-.999.9h2.049Z"/>
    <path d="M501.095,125.441h1.619v.84c.399-.6.959-.92,1.629-.92,1,0,1.709.73,1.709,1.759v3.478h-1.619v-3.008c0-.58-.34-.959-.859-.959-.35,0-.63.14-.859.43v3.538h-1.619v-5.157Z"/>
    <path d="M506.835,129.648l.879-1.269c.97.68,1.579.93,2.27.93.739,0,1.188-.3,1.188-.74,0-.41-.239-.61-.919-.729l-1.489-.26c-1.109-.189-1.719-.889-1.719-1.879,0-1.359,1.039-2.208,2.778-2.208,1.079,0,2.148.35,2.868.919l-.869,1.249c-.68-.52-1.35-.77-2.089-.77-.68,0-1.069.28-1.069.66,0,.36.229.54.789.64l1.399.24c1.31.22,1.999.909,1.999,1.979,0,1.37-1.159,2.299-2.988,2.299-1.109,0-2.1-.37-3.028-1.06Z"/>
    <path d="M513.825,123.482l1.618-.25v3.048c.4-.6.96-.92,1.63-.92.999,0,1.709.73,1.709,1.759v3.478h-1.619v-3.008c0-.58-.34-.959-.859-.959-.351,0-.63.14-.86.43v3.538h-1.618v-7.116Z"/>
    <path d="M519.904,123.741c0-.5.41-.909.909-.909s.91.41.91.909-.41.91-.91.91-.909-.41-.909-.91ZM520.005,125.441h1.618v5.157h-1.618v-5.157Z"/>
    <path d="M523.644,126.69h-1.069v-1.25h1.069v-.68c0-1.229.729-1.899,2.06-1.899.279,0,.649.04.859.1v1.329c-.29-.05-.44-.06-.62-.06-.46,0-.68.18-.68.56v.649h1.3v1.25h-1.3v3.908h-1.619v-3.908Z"/>
    <path d="M528.164,129.039v-2.349h-.999v-1.25h.999v-1.429l1.619-.33v1.759h1.379v1.25h-1.379v2.029c0,.459.18.62.68.62.189,0,.34-.02.659-.11v1.309c-.3.09-.779.16-1.109.16-1.219,0-1.849-.56-1.849-1.659Z"/>
    <path d="M473.011,141.648l.879-1.269c.97.68,1.579.93,2.27.93.739,0,1.188-.3,1.188-.74,0-.41-.239-.61-.919-.729l-1.489-.26c-1.109-.189-1.719-.889-1.719-1.879,0-1.359,1.039-2.208,2.778-2.208,1.079,0,2.148.35,2.868.919l-.869,1.249c-.68-.52-1.35-.77-2.089-.77-.68,0-1.069.28-1.069.66,0,.36.229.54.789.64l1.399.24c1.31.22,1.999.909,1.999,1.979,0,1.37-1.159,2.299-2.988,2.299-1.109,0-2.1-.37-3.028-1.06Z"/>
    <path d="M479.87,140.029c0-1.509,1.119-2.669,2.599-2.669,1.489,0,2.539,1.129,2.539,2.729v.35h-3.549c.15.58.62.969,1.21.969.43,0,.789-.15,1.02-.43l1.069.89c-.67.589-1.3.83-2.169.83-1.52,0-2.719-1.169-2.719-2.668ZM483.508,139.52c-.14-.55-.529-.9-1.049-.9-.51,0-.87.33-1,.9h2.049Z"/>
    <path d="M486.021,137.441h1.618v1.169c.33-.859.79-1.27,1.399-1.27.23.01.34.03.54.13v1.389c-.2-.1-.479-.16-.76-.16-.479,0-.919.25-1.18.64v3.258h-1.618v-5.157Z"/>
    <path d="M490.03,137.441h1.759l1.17,3.238,1.179-3.238h1.669l-2.108,5.157h-1.579l-2.089-5.157Z"/>
    <path d="M496.41,135.741c0-.5.409-.909.909-.909s.909.41.909.909-.409.91-.909.91-.909-.41-.909-.91ZM496.51,137.441h1.619v5.157h-1.619v-5.157Z"/>
    <path d="M499.16,140.029c0-1.509,1.159-2.669,2.668-2.669.85,0,1.629.34,2.149.95l-.99.989c-.329-.39-.659-.56-1.099-.56-.64,0-1.12.55-1.12,1.29s.48,1.289,1.12,1.289c.439,0,.77-.17,1.099-.56l.99.989c-.521.61-1.3.95-2.149.95-1.509,0-2.668-1.16-2.668-2.668Z"/>
    <path d="M504.4,140.029c0-1.509,1.119-2.669,2.599-2.669,1.488,0,2.538,1.129,2.538,2.729v.35h-3.548c.149.58.619.969,1.209.969.43,0,.79-.15,1.02-.43l1.069.89c-.669.589-1.299.83-2.169.83-1.519,0-2.718-1.169-2.718-2.668ZM508.038,139.52c-.14-.55-.529-.9-1.05-.9-.51,0-.869.33-.999.9h2.049Z"/>
    <path d="M512.85,135.602h2.159l1.688,3.358,1.68-3.358h2.158v6.996h-1.619v-4.748l-2.238,4.248-2.249-4.288v4.788h-1.579v-6.996Z"/>
    <path d="M521.72,140.029c0-1.509,1.119-2.669,2.599-2.669,1.489,0,2.539,1.129,2.539,2.729v.35h-3.549c.15.58.62.969,1.21.969.43,0,.789-.15,1.02-.43l1.069.89c-.67.589-1.3.83-2.169.83-1.52,0-2.719-1.169-2.719-2.668ZM525.357,139.52c-.14-.55-.529-.9-1.049-.9-.51,0-.87.33-1,.9h2.049Z"/>
    <path d="M527.5,142.068l.709-1.079c.74.39,1.159.52,1.659.52.46,0,.74-.16.74-.42,0-.2-.15-.31-.48-.37l-.989-.18c-.999-.189-1.52-.699-1.52-1.499,0-1.049.81-1.679,2.159-1.679.72,0,1.43.2,2.099.59l-.739,1.029c-.52-.3-.999-.439-1.479-.439-.39,0-.619.13-.619.35,0,.21.13.3.529.37l.97.18c1.02.19,1.549.709,1.549,1.489,0,1.009-.949,1.769-2.219,1.769-.939,0-1.769-.22-2.368-.63Z"/>
    <path d="M533.029,135.482l1.619-.25v3.048c.399-.6.959-.92,1.629-.92,1,0,1.709.73,1.709,1.759v3.478h-1.619v-3.008c0-.58-.34-.959-.859-.959-.35,0-.63.14-.859.43v3.538h-1.619v-7.116Z"/>
  </g>
  <g>
    <path d="M39.468,42.385h1.719v6.996h-1.719v-6.996Z"/>
    <path d="M42.498,44.224h1.619v.84c.4-.6.959-.92,1.629-.92,1,0,1.709.73,1.709,1.759v3.478h-1.619v-3.008c0-.58-.34-.959-.859-.959-.35,0-.63.14-.86.43v3.538h-1.619v-5.157Z"/>
    <path d="M49.207,47.822v-2.349h-.999v-1.25h.999v-1.429l1.619-.33v1.759h1.379v1.25h-1.379v2.029c0,.459.18.62.68.62.19,0,.34-.02.66-.11v1.309c-.3.09-.779.16-1.109.16-1.219,0-1.849-.56-1.849-1.659Z"/>
    <path d="M52.828,46.813c0-1.509,1.119-2.669,2.599-2.669,1.489,0,2.539,1.129,2.539,2.729v.35h-3.548c.15.58.62.969,1.209.969.43,0,.79-.15,1.02-.43l1.069.89c-.669.589-1.299.83-2.169.83-1.519,0-2.718-1.169-2.718-2.668ZM56.466,46.303c-.14-.55-.529-.9-1.049-.9-.51,0-.87.33-1,.9h2.049Z"/>
    <path d="M59.328,51.11l.5-1.169c.57.27,1.08.4,1.579.4.77,0,1.169-.32,1.169-.95v-.699c-.34.419-.899.68-1.499.68-1.27,0-2.279-1.16-2.279-2.599s1.059-2.579,2.398-2.579c.55,0,1.049.23,1.399.649v-.62h1.589v5.187c0,1.39-.959,2.159-2.718,2.159-.78,0-1.519-.16-2.139-.46ZM62.576,47.642v-1.719c-.25-.26-.59-.4-.959-.4-.709,0-1.229.53-1.229,1.259s.53,1.27,1.229,1.27c.39,0,.709-.14.959-.41Z"/>
    <path d="M65.448,44.224h1.619v1.169c.33-.859.79-1.27,1.399-1.27.23.01.34.03.54.13v1.389c-.2-.1-.479-.16-.759-.16-.48,0-.919.25-1.18.64v3.258h-1.619v-5.157Z"/>
    <path d="M69.527,47.902c0-.95.74-1.5,2.009-1.5.37,0,.739.07,1.199.24v-.42c0-.5-.33-.75-1.02-.75-.39,0-.85.11-1.449.36l-.56-1.129c.85-.38,1.609-.56,2.369-.56,1.429,0,2.258.71,2.258,1.939v3.298h-1.599v-.45c-.45.38-.88.53-1.429.53-1.049,0-1.779-.64-1.779-1.559ZM71.806,48.392c.34,0,.649-.09.93-.26v-.66c-.3-.07-.59-.11-.89-.11-.53,0-.83.18-.83.51s.29.52.79.52Z"/>
    <path d="M76.087,47.822v-2.349h-1v-1.25h1v-1.429l1.619-.33v1.759h1.379v1.25h-1.379v2.029c0,.459.18.62.68.62.189,0,.34-.02.659-.11v1.309c-.3.09-.779.16-1.109.16-1.22,0-1.849-.56-1.849-1.659Z"/>
    <path d="M79.887,42.525c0-.5.41-.909.91-.909s.909.41.909.909-.41.91-.909.91-.91-.41-.91-.91ZM79.988,44.224h1.619v5.157h-1.619v-5.157Z"/>
    <path d="M82.637,46.813c0-1.52,1.16-2.669,2.688-2.669s2.688,1.149,2.688,2.669-1.159,2.668-2.688,2.668-2.688-1.149-2.688-2.668ZM86.435,46.813c0-.77-.459-1.319-1.109-1.319s-1.109.549-1.109,1.319.46,1.319,1.109,1.319,1.109-.549,1.109-1.319Z"/>
    <path d="M89.047,44.224h1.619v.84c.399-.6.959-.92,1.629-.92.999,0,1.709.73,1.709,1.759v3.478h-1.619v-3.008c0-.58-.34-.959-.859-.959-.35,0-.63.14-.859.43v3.538h-1.619v-5.157Z"/>
    <path d="M94.807,48.852l.71-1.079c.739.39,1.159.52,1.658.52.46,0,.74-.16.74-.42,0-.2-.15-.31-.479-.37l-.99-.18c-.999-.189-1.519-.699-1.519-1.499,0-1.049.81-1.679,2.158-1.679.72,0,1.43.2,2.1.59l-.74,1.029c-.52-.3-.999-.439-1.479-.439-.391,0-.62.13-.62.35,0,.21.13.3.529.37l.97.18c1.02.19,1.55.709,1.55,1.489,0,1.009-.95,1.769-2.22,1.769-.939,0-1.769-.22-2.368-.63Z"/>
  </g>
  <g>
    <path d="M41.907,96.054h2.192c.995,0,1.639.624,1.639,1.527,0,.883-.645,1.506-1.639,1.506h-1.352v1.87h-.84v-4.903ZM43.966,98.401c.595,0,.924-.33.924-.827,0-.483-.329-.812-.917-.812h-1.226v1.639h1.219Z"/>
    <path d="M46.541,97.448h.792v.756c.196-.532.532-.819.966-.819.133.007.224.021.343.07v.693c-.126-.049-.287-.084-.434-.084-.385,0-.701.217-.875.582v2.311h-.792v-3.509Z"/>
    <path d="M48.97,99.206c0-1.037.756-1.814,1.765-1.814,1.001,0,1.758.777,1.758,1.814s-.756,1.814-1.758,1.814c-1.009,0-1.765-.777-1.765-1.814ZM51.715,99.206c0-.651-.413-1.142-.98-1.142-.574,0-.988.49-.988,1.142,0,.658.414,1.142.988,1.142.567,0,.98-.483.98-1.142Z"/>
    <path d="M53.31,97.448h.792v.553c.259-.399.609-.609,1.037-.609.483,0,.854.259,1.037.672.273-.441.665-.672,1.163-.672.679,0,1.148.525,1.148,1.268v2.297h-.792v-2.122c0-.49-.273-.806-.707-.806-.288,0-.525.133-.701.42.007.07.014.14.014.21v2.297h-.798v-2.122c0-.49-.273-.806-.708-.806-.287,0-.518.133-.693.406v2.521h-.792v-3.509Z"/>
    <path d="M59.281,99.206c0-1.029.743-1.814,1.709-1.814.959,0,1.66.763,1.66,1.814v.189h-2.592c.077.567.504.98,1.051.98.329,0,.637-.126.833-.329l.518.469c-.427.357-.854.511-1.387.511-1.008,0-1.793-.791-1.793-1.821ZM61.9,98.904c-.084-.511-.448-.868-.917-.868-.477,0-.827.343-.917.868h1.835Z"/>
    <path d="M63.782,100.046v-1.968h-.7v-.63h.7v-.967l.792-.168v1.135h.974v.63h-.974v1.793c0,.343.133.476.49.476.154,0,.266-.021.477-.084v.666c-.203.063-.469.098-.68.098-.707,0-1.079-.336-1.079-.98Z"/>
    <path d="M66.246,95.935l.792-.14v2.227c.266-.413.651-.63,1.106-.63.722,0,1.226.511,1.226,1.254v2.311h-.798v-2.087c0-.512-.301-.841-.771-.841-.322,0-.581.147-.763.427v2.5h-.792v-5.021Z"/>
    <path d="M70.159,99.206c0-1.029.743-1.814,1.709-1.814.959,0,1.66.763,1.66,1.814v.189h-2.592c.077.567.504.98,1.051.98.329,0,.637-.126.833-.329l.518.469c-.427.357-.854.511-1.387.511-1.008,0-1.793-.791-1.793-1.821ZM72.778,98.904c-.084-.511-.448-.868-.917-.868-.477,0-.827.343-.917.868h1.835Z"/>
    <path d="M74.303,99.759v-2.311h.798v2.08c0,.518.301.847.771.847.315,0,.581-.14.763-.42v-2.507h.792v3.509h-.792v-.567c-.266.413-.644.624-1.114.624-.714,0-1.218-.519-1.218-1.254Z"/>
    <path d="M78.089,100.55l.371-.525c.462.287.771.399,1.127.399.42,0,.708-.196.708-.477,0-.217-.147-.329-.49-.399l-.616-.105c-.687-.126-1.016-.441-1.016-.967,0-.658.539-1.085,1.358-1.085.49,0,.932.14,1.38.42l-.371.525c-.357-.231-.7-.336-1.058-.336-.364,0-.603.154-.603.406,0,.224.126.322.49.385l.624.119c.7.126,1.037.448,1.037.973,0,.645-.616,1.142-1.436,1.142-.603,0-1.135-.168-1.506-.476Z"/>
  </g>
  <g>
    <path d="M97.345,96.054h.973l1.898,4.903h-.904l-.504-1.373h-2.01l-.504,1.373h-.875l1.926-4.903ZM98.578,98.925l-.771-2.073-.763,2.073h1.534Z"/>
    <path d="M100.746,95.935l.792-.14v5.162h-.792v-5.021Z"/>
    <path d="M102.349,99.206c0-1.029.743-1.814,1.709-1.814.959,0,1.66.763,1.66,1.814v.189h-2.592c.077.567.504.98,1.051.98.329,0,.637-.126.833-.329l.518.469c-.427.357-.854.511-1.387.511-1.008,0-1.793-.791-1.793-1.821ZM104.969,98.904c-.084-.511-.448-.868-.917-.868-.477,0-.827.343-.917.868h1.835Z"/>
    <path d="M106.521,97.448h.792v.756c.196-.532.532-.819.966-.819.133.007.224.021.343.07v.693c-.126-.049-.287-.084-.434-.084-.385,0-.7.217-.875.582v2.311h-.792v-3.509Z"/>
    <path d="M109.706,100.046v-1.968h-.7v-.63h.7v-.967l.792-.168v1.135h.974v.63h-.974v1.793c0,.343.133.476.49.476.154,0,.266-.021.477-.084v.666c-.203.063-.469.098-.68.098-.707,0-1.079-.336-1.079-.98Z"/>
    <path d="M113.745,97.448h.792v.553c.259-.399.609-.609,1.037-.609.483,0,.854.259,1.037.672.273-.441.665-.672,1.163-.672.679,0,1.148.525,1.148,1.268v2.297h-.792v-2.122c0-.49-.273-.806-.707-.806-.288,0-.525.133-.701.42.007.07.014.14.014.21v2.297h-.798v-2.122c0-.49-.273-.806-.708-.806-.287,0-.518.133-.693.406v2.521h-.792v-3.509Z"/>
    <path d="M119.695,99.948c0-.63.519-1.029,1.345-1.029.329,0,.637.07.946.224v-.392c0-.462-.267-.701-.806-.701-.294,0-.616.084-1.022.273l-.28-.574c.525-.238.988-.357,1.457-.357.917,0,1.436.462,1.436,1.275v2.29h-.784v-.364c-.301.294-.638.427-1.044.427-.735,0-1.247-.441-1.247-1.072ZM121.159,100.46c.315,0,.588-.091.827-.294v-.567c-.252-.119-.504-.168-.806-.168-.455,0-.742.189-.742.504,0,.322.28.525.721.525Z"/>
    <path d="M123.727,97.448h.792v.574c.266-.413.651-.63,1.106-.63.722,0,1.226.511,1.226,1.254v2.311h-.798v-2.087c0-.512-.301-.841-.771-.841-.322,0-.581.147-.763.427v2.5h-.792v-3.509Z"/>
    <path d="M127.619,99.948c0-.63.519-1.029,1.345-1.029.329,0,.637.07.946.224v-.392c0-.462-.267-.701-.806-.701-.294,0-.616.084-1.022.273l-.28-.574c.525-.238.988-.357,1.457-.357.917,0,1.436.462,1.436,1.275v2.29h-.784v-.364c-.301.294-.638.427-1.044.427-.735,0-1.247-.441-1.247-1.072ZM129.083,100.46c.315,0,.588-.091.827-.294v-.567c-.252-.119-.504-.168-.806-.168-.455,0-.742.189-.742.504,0,.322.28.525.721.525Z"/>
    <path d="M131.881,102.147l.273-.581c.413.203.75.294,1.1.294.588,0,.896-.266.896-.777v-.595c-.252.308-.638.49-1.079.49-.89,0-1.583-.792-1.583-1.786s.722-1.772,1.639-1.772c.406,0,.77.161,1.029.469v-.441h.785v3.635c0,.904-.588,1.408-1.653,1.408-.504,0-.995-.126-1.408-.343ZM134.151,99.934v-1.471c-.203-.238-.504-.378-.833-.378-.603,0-1.051.469-1.051,1.114,0,.637.448,1.121,1.051,1.121.343,0,.63-.14.833-.385Z"/>
    <path d="M135.752,99.206c0-1.029.743-1.814,1.709-1.814.959,0,1.66.763,1.66,1.814v.189h-2.592c.077.567.504.98,1.051.98.329,0,.637-.126.833-.329l.518.469c-.427.357-.854.511-1.387.511-1.008,0-1.793-.791-1.793-1.821ZM138.372,98.904c-.084-.511-.448-.868-.917-.868-.477,0-.827.343-.917.868h1.835Z"/>
    <path d="M139.924,97.448h.792v.756c.196-.532.532-.819.966-.819.133.007.224.021.343.07v.693c-.126-.049-.287-.084-.434-.084-.385,0-.7.217-.875.582v2.311h-.792v-3.509Z"/>
  </g>
  <g>
    <path d="M165.623,96.782h-1.639v-.729h4.118v.729h-1.639v4.174h-.84v-4.174Z"/>
    <path d="M167.869,99.206c0-1.029.743-1.814,1.709-1.814.959,0,1.66.763,1.66,1.814v.189h-2.592c.077.567.504.98,1.051.98.329,0,.637-.126.833-.329l.518.469c-.427.357-.854.511-1.387.511-1.008,0-1.793-.791-1.793-1.821ZM170.488,98.904c-.084-.511-.448-.868-.917-.868-.477,0-.827.343-.917.868h1.835Z"/>
    <path d="M172.041,97.448h.792v.553c.259-.399.609-.609,1.037-.609.483,0,.854.259,1.037.672.273-.441.665-.672,1.163-.672.679,0,1.148.525,1.148,1.268v2.297h-.792v-2.122c0-.49-.273-.806-.707-.806-.288,0-.525.133-.701.42.007.07.014.14.014.21v2.297h-.798v-2.122c0-.49-.273-.806-.708-.806-.287,0-.518.133-.693.406v2.521h-.792v-3.509Z"/>
    <path d="M178.173,97.448h.777v.497c.252-.329.645-.525,1.093-.525.889,0,1.583.792,1.583,1.786,0,1.001-.715,1.786-1.632,1.786-.413,0-.777-.154-1.029-.448v1.877h-.792v-4.973ZM180.848,99.206c0-.637-.448-1.121-1.043-1.121-.35,0-.637.14-.84.392v1.464c.203.245.504.392.84.392.603,0,1.043-.483,1.043-1.127Z"/>
    <path d="M182.289,99.206c0-1.037.756-1.814,1.765-1.814,1.001,0,1.758.777,1.758,1.814s-.756,1.814-1.758,1.814c-1.009,0-1.765-.777-1.765-1.814ZM185.034,99.206c0-.651-.413-1.142-.98-1.142-.574,0-.988.49-.988,1.142,0,.658.414,1.142.988,1.142.567,0,.98-.483.98-1.142Z"/>
  </g>
  <g>
    <line class="uuid-a9a04cc6-167a-436b-b088-83ece39678e1" x1="426.18" y1="101.1" x2="480.282" y2="101.1"/>
    <polygon points="479.187 104.84 485.664 101.1 479.187 97.361 479.187 104.84"/>
  </g>
  <g>
    <path class="uuid-d07c0d5f-041c-4c06-985f-966908d8f858" d="M514.7,81.971h-18c-4.971,0-9,4.029-9,9v18c0,4.971,4.029,9,9,9h18c4.971,0,9-4.029,9-9h0v-18c0-4.971-4.029-9-9-9Z"/>
    <path d="M514.7,83.221c4.278.005,7.745,3.472,7.75,7.75v18c-.005,4.278-3.472,7.745-7.75,7.75h-18c-4.278-.005-7.745-3.472-7.75-7.75v-18c.005-4.278,3.472-7.745,7.75-7.75h18M514.7,81.971h-18c-4.971,0-9,4.029-9,9v18c0,4.971,4.029,9,9,9h18c4.971,0,9-4.029,9-9h0v-18c0-4.971-4.029-9-9-9Z"/>
    <path class="uuid-129eac7d-1363-4998-9f85-4b3b92f50faf" d="M515.2,95.485c.249-.238.259-.633.021-.883-.015-.012-.031-.023-.048-.034-.014-.013-.03-.026-.045-.038-.055-.057-.122-.101-.196-.129-.112-.045-.233-.057-.352-.035-.018.003-.035,0-.053.004-6.304,1.797-8.153-4.215-8.228-4.472l-.003-.007.004-.014c.092-.333-.102-.677-.435-.77-.329-.091-.671.098-.767.426-1.801,6.302-7.966,4.646-8.229,4.57-.332-.091-.675.101-.771.431-.026.1-.026.205,0,.304-.008.023-.015.046-.02.07,0,.039.003.077.01.115,0,.041.004.082.012.122.011.025.024.05.038.074.019.051.045.098.077.142l.004.007c4.213,5.063.222,8.983.05,9.148-.012.011-.016.026-.026.038-.021.023-.041.049-.058.075-.015.021-.029.044-.041.067-.009.02-.018.041-.025.062-.01.029-.018.058-.024.088-.006.026-.01.053-.013.08-.001.021-.001.043,0,.064.002.033.006.065.012.097.003.018,0,.036.004.054.003.009.01.016.013.025.008.02.017.04.026.059.007.016.007.032.015.048.007.013.021.017.029.029.016.028.034.054.054.079.005.006.006.013.011.018.019.015.038.028.058.04.021.02.043.038.066.055.008.005.013.013.021.017.012.007.027.009.04.015.074.029.151.049.23.059.012,0,.024.007.036.007h.002c.034-.004.067-.01.1-.019.024,0,.048-.002.071-.006,6.126-1.747,8.039,3.863,8.212,4.42.007.336.281.604.617.604.279,0,.524-.185.601-.453,1.72-6.014,7.4-4.782,8.144-4.591.096.065.209.102.326.106.345,0,.625-.28.625-.625,0-.146-.051-.287-.145-.4-4.213-5.063-.222-8.984-.05-9.148ZM498.668,103.163c.982-2.032.959-4.407-.064-6.419l5.809,3.227-5.745,3.192ZM512.865,96.705c-1.04,2.049-1.045,4.471-.013,6.525l-5.866-3.259,5.879-3.266ZM511.696,95.925l-5.371,2.984v-6.229c1.19,1.856,3.174,3.055,5.371,3.245h0ZM500.565,95.445c1.833-.316,3.461-1.361,4.51-2.898v6.361l-5.979-3.322c.493-.006.984-.053,1.469-.141h0ZM499.699,104.019l5.376-2.987v6.231c-1.19-1.858-3.177-3.057-5.376-3.243h0ZM506.325,107.129v-6.096l5.537,3.076c-.345.02-.688.061-1.027.123-1.833.316-3.461,1.362-4.51,2.898h0Z"/>
    <circle class="uuid-d07c0d5f-041c-4c06-985f-966908d8f858" cx="505.7" cy="89.971" r="1"/>
    <path d="M505.7,91.596c-.897,0-1.625-.728-1.625-1.625s.728-1.625,1.625-1.625,1.625.728,1.625,1.625c0,.897-.728,1.624-1.625,1.625ZM505.7,89.596c-.207,0-.375.168-.375.375s.168.375.375.375.375-.168.375-.375c0-.207-.168-.375-.375-.375Z"/>
    <circle class="uuid-d07c0d5f-041c-4c06-985f-966908d8f858" cx="505.7" cy="109.971" r="1"/>
    <path d="M505.7,111.596c-.897,0-1.625-.728-1.625-1.625s.728-1.625,1.625-1.625,1.625.728,1.625,1.625c0,.897-.728,1.624-1.625,1.625ZM505.7,109.596c-.207,0-.375.168-.375.375s.168.375.375.375.375-.168.375-.375h0c0-.207-.168-.375-.375-.375Z"/>
    <circle class="uuid-d07c0d5f-041c-4c06-985f-966908d8f858" cx="514.7" cy="94.971" r="1"/>
    <path d="M514.7,96.596c-.897,0-1.625-.728-1.625-1.625s.728-1.625,1.625-1.625,1.625.728,1.625,1.625c0,.897-.728,1.624-1.625,1.625ZM514.7,94.596c-.207,0-.375.168-.375.375s.168.375.375.375.375-.168.375-.375c0-.207-.168-.375-.375-.375Z"/>
    <circle class="uuid-d07c0d5f-041c-4c06-985f-966908d8f858" cx="496.7" cy="94.971" r="1"/>
    <path d="M496.7,96.596c-.897,0-1.625-.728-1.625-1.625s.728-1.625,1.625-1.625,1.625.728,1.625,1.625c0,.897-.728,1.624-1.625,1.625ZM496.7,94.596c-.207,0-.375.168-.375.375s.168.375.375.375.375-.168.375-.375c0-.207-.168-.375-.375-.375Z"/>
    <circle class="uuid-d07c0d5f-041c-4c06-985f-966908d8f858" cx="514.7" cy="104.971" r="1"/>
    <path d="M514.7,106.596c-.897,0-1.625-.728-1.625-1.625s.728-1.625,1.625-1.625,1.625.728,1.625,1.625c0,.897-.728,1.624-1.625,1.625ZM514.7,104.596c-.207,0-.375.168-.375.375s.168.375.375.375.375-.168.375-.375c0-.207-.168-.375-.375-.375Z"/>
    <circle class="uuid-d07c0d5f-041c-4c06-985f-966908d8f858" cx="496.7" cy="104.971" r="1"/>
    <path d="M496.7,106.596c-.897,0-1.625-.728-1.625-1.625s.728-1.625,1.625-1.625,1.625.728,1.625,1.625c0,.897-.728,1.624-1.625,1.625ZM496.7,104.596c-.207,0-.375.168-.375.375s.168.375.375.375.375-.168.375-.375c0-.207-.168-.375-.375-.375Z"/>
  </g>
  <g>
    <path class="uuid-a1e135b2-a376-4a15-a183-34aa00ef0143" d="M116.073,67.688c10.258-.65,17.279,10.173,12.115,19.187s-18.416,8.41-22.774-.992c-3.729-8.047,1.802-17.633,10.659-18.194ZM116.073,69.022c-8.194.55-13.011,9.727-9.132,16.934,4.556,8.464,17.031,7.846,20.726-1.025,3.364-8.077-2.97-16.487-11.594-15.908Z"/>
    <path class="uuid-60611d5f-d25f-4efc-aef5-da1527519b75" d="M116.073,69.022c8.624-.579,14.958,7.831,11.594,15.908-3.695,8.871-16.17,9.489-20.726,1.025-3.879-7.206.938-16.384,9.132-16.934ZM116.215,73.457c-.099-.022-.094.054-.133.11-.147.215-.317.386-.446.602-1.621.561-2.853,2.183-2.979,3.892-.137,1.859.232,3.828-.4,5.649-.048.138-.189.34-.223.445-.036.112.277.064.355.066-.032.267-.331.332-.535.423-.099.044-.104.028-.088.155-.53.009-1.205-.126-1.445.49-.232.595.184,1.096.778,1.156-.025.105.056.1.131.112.979.154,3.372-.228,4.081.235.099.064.121.063.147.187.104.486.084.723.466,1.113,1.002,1.024,2.707.283,2.737-1.113-.103-.003-.208.003-.312,0,.029-.258.292-.337.493-.421.068-.028.156.005.13-.113.029,0,.113-.046.197-.046,1.225-.002,2.785.12,3.964.004.57-.056.863-.681.599-1.182-.281-.533-.878-.412-1.38-.421.016-.127.011-.111-.088-.155-.185-.082-.536-.169-.535-.423.092-.002.203.012.289,0,.152-.021,0-.125-.045-.223-1.398-3.084.953-7.248-2.65-9.403-.185-.111-.749-.321-.842-.426-.008-.009-.004-.072-.042-.111l-.536-.6c-.01-.117-.032-.342-.054-.457-.12-.612-1.018-.793-1.414-.322-.153.182-.221.544-.222.779Z"/>
    <path class="uuid-270d44a3-f5ca-4ea3-84f6-fbd319285bbd" d="M117.906,73.457c.012.132-.033.506.02.581.038.054.459.125.559.131.093.106.656.315.842.426,3.603,2.155,1.253,6.319,2.65,9.403.044.098.196.202.045.223-.086.012-.197-.002-.289,0-3.075.057-6.266.057-9.34,0-.079-.001-.391.046-.355-.066.033-.104.175-.306.223-.445.632-1.821.262-3.79.4-5.649.126-1.71,1.358-3.331,2.979-3.892.102-.035.582-.085.617-.139.01-.154.01-.31.008-.465,0-.058-.046-.102-.046-.108,0-.235.068-.597.222-.779.396-.471,1.294-.29,1.414.322.022.115.044.34.054.457Z"/>
    <path class="uuid-270d44a3-f5ca-4ea3-84f6-fbd319285bbd" d="M111.768,84.799c3.491-.058,7.095-.062,10.586,0,.502.009,1.099-.111,1.38.421.264.501-.03,1.126-.599,1.182-1.179.115-2.739-.007-3.964-.004-.084,0-.168.046-.197.046-.39,0-.803-.044-1.179-.044h-6.138c-.148,0-.351.065-.556.044-.594-.06-1.009-.561-.778-1.156.24-.616.915-.481,1.445-.49Z"/>
    <path class="uuid-a1e135b2-a376-4a15-a183-34aa00ef0143" d="M121.731,84.22c-.001.254.35.341.535.423.099.044.104.028.088.155-3.49-.062-7.095-.058-10.586,0-.016-.127-.012-.111.088-.155.204-.091.503-.156.535-.423,3.075.057,6.266.057,9.34,0Z"/>
    <path class="uuid-270d44a3-f5ca-4ea3-84f6-fbd319285bbd" d="M118.35,86.978c.103.003.208-.003.312,0-.03,1.396-1.735,2.138-2.737,1.113-.381-.39-.362-.627-.466-1.113.962.021,1.93-.028,2.891,0Z"/>
    <path class="uuid-a1e135b2-a376-4a15-a183-34aa00ef0143" d="M118.973,86.444c.026.118-.062.085-.13.113-.202.084-.465.163-.493.421-.961-.028-1.929.021-2.891,0-.026-.124-.049-.122-.147-.187-.709-.463-3.102-.082-4.081-.235-.074-.012-.156-.007-.131-.112.205.021.408-.044.556-.044h6.138c.376,0,.788.045,1.179.044Z"/>
    <path class="uuid-a1e135b2-a376-4a15-a183-34aa00ef0143" d="M116.215,73.457c0,.006.046.05.046.108.002.154.002.311-.008.465-.035.054-.515.104-.617.139.129-.216.299-.387.446-.602.038-.056.034-.132.133-.11Z"/>
    <path class="uuid-a1e135b2-a376-4a15-a183-34aa00ef0143" d="M117.906,73.457l.536.6c.038.04.034.102.042.111-.099-.006-.521-.077-.559-.131-.053-.075-.008-.449-.02-.581Z"/>
  </g>
  <g>
    <path class="uuid-07b9658f-a725-4a73-99d9-688be5e325aa" d="M274.3,83.456c-.041-.307-.041-1.055,0-1.362.157-1.174,1.103-2.711,1.486-3.898.52-1.612.565-3.54,1.667-4.895.952-1.17,2.484-1.76,3.69-2.622,1.732-1.238,2.904-3.033,5.214-3.201,1.379-.101,2.805.296,4.216.258,3.111-.083,3.798-.922,6.547,1.236,1.567,1.23,2.804,2.038,4.384,3.165,2.535,1.809,2.128,3.421,2.978,6.058.485,1.505,1.494,2.942,1.494,4.58,0,1.666-1.004,3.059-1.494,4.58-.508,1.576-.572,3.494-1.609,4.828-.983,1.264-2.486,1.795-3.747,2.688-1.756,1.244-2.856,3.029-5.214,3.201-1.167.085-2.33-.24-3.462-.258-1.748-.027-3.515.565-5.239.043-1.514-.459-2.78-2.074-4.068-2.986-1.261-.893-2.765-1.424-3.747-2.688-1.04-1.338-1.075-3.174-1.576-4.738-.395-1.231-1.352-2.743-1.52-3.989Z"/>
    <path class="uuid-270d44a3-f5ca-4ea3-84f6-fbd319285bbd" d="M288.501,69.376c10.113-.974,17.733,8.44,14.254,18.106-4.014,11.151-19.931,11.761-24.849.971-3.731-8.185,1.57-18.208,10.595-19.077Z"/>
    <path class="uuid-07b9658f-a725-4a73-99d9-688be5e325aa" d="M288.501,70.614c8.896-.863,15.814,6.771,13.418,15.536-2.562,9.373-14.819,11.991-21.125,4.612-6.191-7.244-1.807-19.226,7.707-20.148Z"/>
    <path class="uuid-270d44a3-f5ca-4ea3-84f6-fbd319285bbd" d="M289.639,81.351c-.627-.165-2.293.585-2.11-.553.13-.805,1.528.066,2.11-.19.225-.806-.738-.844-.935-1.479-.854-2.758,3.712-2.757,2.858,0-.198.639-1.099.595-.811,1.479.563.241,1.856-.621,1.986.189.18,1.118-1.374.415-1.986.553v4.829c1.14.07,2.148-.25,2.844-1.178l-.246-.368c.229-.171,1.08-1.29,1.359-1.054-.054.361.376,1.179.347,1.43-.017.148-.391.173-.529.306-.195.187-.523.889-.808,1.173-1.033,1.029-1.925.946-2.959,1.496-.215.114-.452.578-.672.54-.137-.024-.436-.475-.652-.594-1.339-.738-1.942-.501-3.135-1.939-.214-.258-.418-.791-.562-.934-.179-.177-.425.077-.551-.176l.555-1.55c.157.003,1.037.848,1.112.992.231.445-.206.361-.187.431.263.964,2.089,1.441,2.97,1.426v-4.829Z"/>
    <path class="uuid-5275765a-14df-4f52-abcb-6a5a26463076" d="M289.515,83.332c.071.285-.122.297-.337.337-2.029.376-2.932-.867-4.547-.842-1.889.029-2.713,1.512-5.096.652-.091-.033-.881-.334-.657-.518.06-.049,1.073.425,1.328.465,1.986.312,2.922-.94,4.675-.842,1.516.085,2.903,1.446,4.634.748Z"/>
    <path class="uuid-ff47c324-5dca-475e-8b4f-526f0e18a6ac" d="M282.836,88.655c.059.044,1.236-.32,1.107.297-.022.105-1.261,1.076-1.398,1.051-.678-.125.053-.612.291-.851-.452.201-.639-.377-.683-.376-.204.004-.317.293-.553.25-.529-.416,1.179-1.509,1.295-1.486.374.076.075.905-.059,1.114Z"/>
    <path class="uuid-1011d826-3368-41bd-8547-038a3f674e0c" d="M292.702,72.836c.534.533-.213.984-.222,1.044-.04.25.161.522.128.783-.579.164-.565-.612-.805-.741-.269-.145-.146.423-.37.493-.13.041-.296.002-.374-.122-.061-.097.256-1.671.329-1.718.183-.118,1.157.103,1.315.261Z"/>
    <path class="uuid-0466149f-8aa5-4f06-812f-807fcc3eae18" d="M287.505,91.041c.136.167.067.667.341.834.097-.495.091-.695.679-.618-.184.994-.6,3.005-1.114.866-.118.199-.758,1.066-.846.437-.012-.086.407-1.625.478-1.676.056-.04.406.087.462.156Z"/>
    <path class="uuid-b6c2a4eb-2e40-4d57-80b1-6ec95c5bb5a9" d="M289.145,72.929c-.083.103-.991-.049-.865.372l.865-.123c.084.644-.063.428-.47.583-.196.075-.333-.06-.271.283,1.972-.437.712.702-.495.495l-.249-1.857c.343.079,1.257-.383,1.425-.127.059.091.102.321.06.373Z"/>
    <path class="uuid-1011d826-3368-41bd-8547-038a3f674e0c" d="M298.206,88.377c.126.108.719.067.586.339-.144.293-.715.17-.988.188.087.502.769.323.063.834-.757-.56-1.901-.966-.798-1.879.764-.632.915.327,1.137.517Z"/>
    <path class="uuid-8cbd95fd-63e4-4976-85aa-4a3ee4cd1eb5" d="M296.629,85.437c1.163-.194,1.274-.886,3.098-.748.162.012,1.813.288,1.417.624-.075.063-1.551-.382-1.916-.38-1.09.004-1.918.742-2.856.866-.317.042-1.584.081-1.723-.113-.122-.068.111-.248.125-.248.536,0,1.375.08,1.856,0Z"/>
    <path class="uuid-05feb232-3645-434e-bacb-381cdf3fc3b1" d="M293.722,91.38c-.425.06-.651.233-.678.518-.067-.31.159-.483.678-.518.062.119.345.182.37.566.067,1.025-1.816,1.26-1.819-.281-.001-.674,1.012-1.088,1.465-.599.126.136-.023.3-.015.314Z"/>
    <path class="uuid-04ccb3fb-e514-4ed1-9382-6313ba7ae8d0" d="M295.33,90.389c.466-.05.602-.639.987-.061l-.616.68c.079.074,1.248-.952.976-.075-.033.106-.922.698-1.02.682-.162-.027-1.082-1.311-1.064-1.397.378-.302,1.045-1.101,1.353-.509l-.616.68Z"/>
    <path class="uuid-1011d826-3368-41bd-8547-038a3f674e0c" d="M291.371,93.237c-.798-.246-1.057-.246-1.855,0,.476-2.569,1.256-2.338,1.855,0Z"/>
    <path class="uuid-1011d826-3368-41bd-8547-038a3f674e0c" d="M285.309,92c-.334.315-.557-.595-.738-.685-.27-.134-.647.063-.867-.245.231-.337,1.939-1.822,1.972-.753.003.086-.304,1.623-.367,1.682Z"/>
    <path class="uuid-2ff4a8a1-174c-4dfe-822f-9be4f78deb39" d="M285.062,84.695c.023.309.03.212-.185.244-.437.065-.85.061-1.301.186-1.26.351-2.725,1.263-4.123.417-.287-.173-.554-.613-.071-.424.818.321,1.371.422,2.28.32,1.127-.127,2.101-1.088,3.401-.743Z"/>
    <path class="uuid-1011d826-3368-41bd-8547-038a3f674e0c" d="M285.649,75.124c.125-.155.093-.65.526-.583.344,1.337-1.535,1.67-1.833.281-.158-.734.779-1.329,1.343-.966.639.411-.827.415-.87.625.043.319.526,1.025.835.643Z"/>
    <path class="uuid-8f639386-a45e-4c5f-b12d-d330972af70a" d="M301.391,83.331c-.723-.149-1.399-.515-2.164-.504-1.489.022-2.876,1.465-4.392.69.493-.13,1.007-.02,1.513-.094.624-.09,1.045-.454,1.603-.624,1.075-.327,2.643-.349,3.439.531Z"/>
    <path class="uuid-c0497c69-0669-4ff9-adcc-2a6f4f14c805" d="M301.267,81.352c.06.06.06.301-.173.236-.36-.1-.652-.379-1.157-.453-1.888-.276-2.836.968-4.673.838-.747-.053-1.699-.396-2.284-.87,1.284.41,2.201.827,3.62.588.636-.107,1.156-.631,1.885-.714.513-.058,2.445.034,2.783.374Z"/>
    <path class="uuid-0466149f-8aa5-4f06-812f-807fcc3eae18" d="M296.196,74.788c-.089.071-.428-.164-.618-.069-.249.123-.506.897-.739,1.004-.056.026-.363-.053-.374-.068-.198-.253.649-1.108.627-1.416-.003-.041-.764-.417-.192-.565.127-.033,1.293.644,1.366.741.033.044-.054.362-.069.374Z"/>
    <path class="uuid-4fde8f2f-5ea1-4587-82be-7f04113eb05d" d="M283.825,80.979c.09.009.143.02.124.124-1.505.227-3.035,1.731-4.887.372-.171-.238.222-.093.31-.062,2.523.881,2.607-.203,4.453-.433Z"/>
    <path class="uuid-faa159b8-bd87-45f6-89e0-70029f1d44e6" d="M294.34,83.209c-.191.49-.884-.089-1.24-.184-.24-.064-.581-.158-.817-.175-.497-.036-.803.111-1.218.114-.199.002-.326-.12-.188-.251.137-.13,1.266-.135,1.531-.109.728.07,1.245.436,1.932.605Z"/>
    <path class="uuid-b8c49e2a-cfcb-400b-9d25-4471e3b178fa" d="M285.434,80.979c.668.081,1.269.567,1.848.688.63.131,1.458-.162,1.863.301-.504-.011-1.011.037-1.514-.031-.817-.111-1.623-.731-2.321-.835-.086-.066-.045-.107.124-.124Z"/>
    <path class="uuid-cf2a1fa1-87f3-480c-b74e-619bfaebf7d4" d="M293.226,84.819c.385.539-1.157.114-1.299.113-.35-.002-.69.193-1.05.133-.072-.653,2.275-.349,2.349-.246Z"/>
    <path class="uuid-5f22a8fc-c01e-45ea-a5c7-31eb11f53e3d" d="M289.515,85.683c-.129.182-1.476.211-1.608-.245.208.08,1.96-.252,1.608.245Z"/>
    <path class="uuid-1f433dc1-1c16-4433-92a3-3810d5de1620" d="M285.434,80.979l-.124.124c-.285-.042-1.077-.043-1.361,0l-.124-.124c.38-.047,1.226-.046,1.608,0Z"/>
    <path class="uuid-7cbbfbf0-a152-45be-9534-9b61fa46683a" d="M289.975,77.782c1.072-.163,1.258,1.494.202,1.549-1.015.053-1.01-1.426-.202-1.549Z"/>
    <rect class="uuid-2bd04493-86c1-4944-9fb3-4d35c18242c3" x="291.743" y="73.055" width=".494" height=".37"/>
    <path class="uuid-2682c886-2a10-4637-992a-52ce07295f36" d="M297.555,88.656c-.093.066-.494.03-.368-.184l.308-.309c.212.029.113.455.06.493Z"/>
    <path class="uuid-cc69fcef-b720-428d-a251-58454d75f3e9" d="M293.722,91.38c-1.122.598-.101.63-.124.68-.663.546-.773-.079-.742-.68h.866Z"/>
  </g>
  <g>
    <path d="M359.593,89.331c-.044.371-.289.942-.528,1.236-1.183,1.453-4.529,1.118-4.845-.955.878-.177.818.234,1.325.639,1.257,1.003,3.566.236,3.245-1.602-1.732,1.534-4.537.641-4.653-1.801-.12-2.519,2.914-3.89,4.653-2.049.024-.126-.03-.692,0-.722.029-.029.802-.064.802.04v5.212ZM358.262,85.329c-1.482-1.53-3.884.183-3.198,2.116.283.797,1.094,1.248,1.925,1.209,1.755-.084,2.439-2.121,1.274-3.324Z"/>
    <path d="M373.426,82.234c1.454.153,2.239,1.446,1.684,2.806-.37.907-1.285,1-2.124,1.163l2.404,3.128c.001.171-.944.17-1.087.046l-2.396-3.137-.285-.076v3.168c0,.177-.882.177-.882,0v-7.097c.86.066,1.842-.089,2.686,0ZM373.185,83.036c-.492-.053-1.062.039-1.564,0v2.245c.857.158,2.81.193,2.808-1.083,0-.702-.617-1.095-1.245-1.163Z"/>
    <path d="M350.13,89.451c-.193-.039-.748.064-.87-.013-.106-.066-.85-1.992-1.047-2.263-.087-.116-2.536-.044-2.896-.01l-1.001,2.207c-.141.17-.697.042-.923.079-.069-.071.449-1.33.536-1.523.032-.071.124-.131.165-.221.827-1.827,1.712-3.626,2.516-5.462.147-.042.31-.025.383.118l3.098,6.765.038.323ZM347.724,86.244c.017-.212-.895-2.196-1.042-2.085l-.963,2.085h2.005Z"/>
    <path d="M363.508,83.94c3.602-.164,3.899,5.291.454,5.59-3.935.342-4.096-5.425-.454-5.59ZM362.029,85.632c-1.404,2.114,1.602,4.355,3.13,2.369,1.671-2.171-1.679-4.553-3.13-2.369Z"/>
    <path d="M379.146,83.937c3.829-.078,3.767,5.983-.266,5.594-3.331-.321-3.165-5.524.266-5.594ZM380.574,85.31c-1.815-1.819-4.656,1.145-2.619,2.98,1.821,1.64,4.456-1.141,2.619-2.98Z"/>
    <path d="M390.052,83.938c3.687-.093,3.819,5.299.453,5.592-3.973.347-4.046-5.501-.453-5.592ZM391.315,85.155c-1.644-1.243-3.781.688-2.868,2.507.667,1.33,2.404,1.487,3.289.292.682-.921.482-2.117-.42-2.8Z"/>
    <path d="M394.155,84.079h.882c-.059.121-.081.22-.085.356-.021.834-.149,3.248.365,3.814.569.625,1.802.665,2.327,0,.118-.149.359-.602.359-.763v-3.408h.882c-.36,1.582.613,4.483-1.34,5.276-1.028.418-2.494.203-3.055-.841-.126-.234-.336-.871-.336-1.107v-3.328Z"/>
    <path d="M406.401,85.176c-.228.202-.537-.253-.826-.367-.337-.134-.49-.143-.794.072-1.06.752.884,1.487,1.318,1.809,1.562,1.16.137,3.596-1.923,2.645-.177-.082-.714-.448-.698-.646.003-.033.412-.458.462-.484.217-.111.255.191.381.286.603.456,1.721.302,1.631-.605-.084-.85-2.027-.966-2.174-2.162-.166-1.344.864-2.126,2.117-1.636.176.069.74.403.816.552.055.108-.227.464-.309.536Z"/>
    <path d="M401.854,84.079h1.043c.142.959-.316.701-1.043.722v4.531c0,.149-.744.193-.848.041-.048-.057.046-.101.046-.121v-4.451h-.963s0-.676,0-.676c.019-.126.964.062.964-.166v-1.804c.15.006.802-.056.802.12v1.804Z"/>
    <path d="M383.971,89.452c-.19-.025-.664.072-.767-.075l-.035-7.303c.271-.007.553.051.802-.08v7.458Z"/>
    <path d="M386.216,82.074v7.257c0,.176-.652.115-.802.12v-7.378h.802Z"/>
    <path d="M351.012,84.199c0-.01-.154-.186.039-.198.035-.002.66.092.688.112.116.08.069.319.076.447.355-.297.688-.606,1.183-.62.153-.005.706.107.74.265.007.033-.306.564-.335.581-.15.089-.411-.091-.627-.032-.587.158-.906.981-.961,1.532-.042.419.116,3.113-.134,3.17-.18.041-.468-.034-.668-.003-.027-1.749.036-3.503,0-5.253Z"/>
    <path class="uuid-7305554b-efc8-4e89-b04f-9d31b123db22" d="M327.371,89.471s-.231.696-.58,1.043c-.206.23-.502.357-.811.348-.572.154-1.153.27-1.74.347,0,0,.812.116,1.74.232q.347,0,.579.116c.58,0,.811-.348.811-.348v-1.739ZM338.039,89.471s.232.696.58,1.043c.206.23.503.357.812.348.571.154,1.152.27,1.739.347,0,0-.811.116-1.855.232q-.347,0-.58.116c-.696,0-.812-.348-.812-.348l.116-1.739Z"/>
    <path class="uuid-b917e5f4-bd0b-4076-a9c7-2926a9ac01fd" d="M345.343,77.992c0,6.915-5.606,12.522-12.522,12.522s-12.522-5.606-12.522-12.522,5.606-12.521,12.522-12.521,12.522,5.606,12.522,12.521Z"/>
    <path class="uuid-8133c68e-430f-411a-b3de-597114745c6c" d="M344.88,77.992c0,6.66-5.398,12.058-12.058,12.058s-12.057-5.398-12.057-12.058c0-6.659,5.398-12.058,12.057-12.058s12.058,5.398,12.058,12.057h0Z"/>
    <path class="uuid-cf90738f-c925-4d31-995b-34f4883588d5" d="M342.676,78.224c0,5.443-4.412,9.855-9.855,9.855s-9.855-4.412-9.855-9.855,4.413-9.855,9.855-9.855,9.855,4.413,9.855,9.855h0Z"/>
    <path class="uuid-be0aa7ff-68ed-4bdc-9ec8-eaa9e53d072f" d="M327.024,82.862s.812,13.101.812,13.334c0,.115.116.347-.464.58-.58.231-2.435.696-2.435.696h2.783c1.275,0,1.275-1.044,1.275-1.275s.347-5.217.347-5.217c0,0,.116,5.913.116,6.144,0,.232-.116.58-.927.812-.58.116-2.319.464-2.319.464h2.667c1.624,0,1.624-1.043,1.624-1.043l.347-5.217s.116,5.217.116,5.797c0,.464-.347.812-1.624,1.043-.811.232-1.855.464-1.855.464h3.015c1.506-.116,1.739-1.16,1.739-1.16l2.55-12.985-7.768-2.435Z"/>
    <path class="uuid-be0aa7ff-68ed-4bdc-9ec8-eaa9e53d072f" d="M338.618,82.862s-.811,13.101-.811,13.334c0,.115-.116.347.464.58.579.231,2.434.696,2.434.696h-2.783c-1.275,0-1.275-1.044-1.275-1.275s-.347-5.217-.347-5.217c0,0-.116,5.913-.116,6.144,0,.232.116.58.928.812l2.318.464h-2.666c-1.623,0-1.623-1.043-1.623-1.043l-.348-5.217s-.116,5.217-.116,5.797c0,.464.349.812,1.624,1.043.812.232,1.855.464,1.855.464h-3.014c-1.508-.116-1.74-1.16-1.74-1.16l-2.55-12.985,7.768-2.435ZM338.734,76.485c0,3.246-2.667,5.797-5.797,5.797s-5.797-2.667-5.797-5.797,2.667-5.797,5.797-5.797,5.797,2.551,5.797,5.797Z"/>
    <g class="uuid-9e6a6076-0a45-499e-9cc9-07ac27ebfa03">
      <g class="uuid-eaa918a2-a3b9-43d2-8ef5-fab2b114ef28">
        <path class="uuid-be0aa7ff-68ed-4bdc-9ec8-eaa9e53d072f" d="M343.256,79.615c0,5.699-4.62,10.319-10.319,10.319s-10.319-4.62-10.319-10.319,4.62-10.319,10.319-10.319,10.319,4.62,10.319,10.319h0Z"/>
      </g>
    </g>
    <g class="uuid-47662ba0-1f8b-4f69-8a47-5f5e7e9eb334">
      <g id="uuid-da6aa933-01a2-4c45-a0d3-fdd215c00c91" data-name="argocd-original-g">
        <path class="uuid-451574d9-a73a-42d9-b023-90f722223ea2" d="M338.387,82.862s.696-6.145-.232-8.464c-1.739-4.058-5.797-3.71-5.797-3.71,0,0,2.318.927,2.435,4.406.116,2.435,0,6.029,0,6.029l3.595,1.739Z"/>
      </g>
    </g>
    <g class="uuid-9c321fad-3ccb-48d8-9036-c061b768cdf5">
      <g id="uuid-805f02b4-67b4-4bfd-82ee-665239a0bf52" data-name="argocd-original-i">
        <path class="uuid-1aa4093b-b863-44d7-b36a-1cede76a905d" d="M331.313,73.355c0,.448-.363.811-.811.811-.448,0-.811-.363-.811-.811,0,0,0,0,0-.001,0-.448.364-.811.812-.81.448,0,.81.363.81.811Z"/>
      </g>
    </g>
    <path class="uuid-1fe4bf6e-bb3b-43ff-a924-f9450b6eed23" d="M334.908,85.18c0,1.971-.928,3.248-2.087,3.248s-2.087-1.508-2.087-3.479c0,0,.928,1.855,2.203,1.855s1.971-1.624,1.971-1.624Z"/>
    <path class="uuid-d07c0d5f-041c-4c06-985f-966908d8f858" d="M334.908,85.18c0,1.276-.928,1.971-2.087,1.971s-1.971-.927-1.971-2.086c0,0,.928,1.159,2.203,1.159s1.855-1.044,1.855-1.044Z"/>
    <path class="uuid-7305554b-efc8-4e89-b04f-9d31b123db22" d="M340.473,79.732c0,1.985-1.609,3.593-3.593,3.593s-3.595-1.609-3.595-3.593,1.61-3.595,3.595-3.595,3.593,1.61,3.593,3.595ZM332.358,79.732c0,1.985-1.61,3.593-3.595,3.593s-3.593-1.609-3.593-3.593,1.609-3.595,3.594-3.595,3.595,1.61,3.595,3.595h0Z"/>
    <path class="uuid-d07c0d5f-041c-4c06-985f-966908d8f858" d="M339.662,79.732c0,1.536-1.246,2.783-2.783,2.783s-2.783-1.246-2.783-2.783,1.246-2.783,2.783-2.783,2.783,1.245,2.783,2.783ZM331.313,79.732c0,1.536-1.245,2.783-2.782,2.783s-2.783-1.246-2.783-2.783c0-1.537,1.245-2.783,2.782-2.783h.001c1.536,0,2.782,1.245,2.782,2.783h0Z"/>
    <path class="uuid-1fe4bf6e-bb3b-43ff-a924-f9450b6eed23" d="M329.343,79.383c0,.448-.363.812-.811.812-.448,0-.812-.363-.812-.811h0c0-.448.363-.812.811-.812s.812.363.812.811h0ZM337.691,79.383c.008.448-.348.818-.797.827s-.818-.348-.827-.797c0-.01,0-.02,0-.03.008-.448.378-.805.826-.797.437.008.789.36.797.796h0Z"/>
    <path class="uuid-b917e5f4-bd0b-4076-a9c7-2926a9ac01fd" d="M320.068,81.123c-.301.019-.561-.211-.58-.512-.001-.022-.001-.045,0-.068v-4.638c-.01-.157.048-.31.159-.421.111-.111.264-.169.421-.159.301-.019.561.211.58.512.001.022.001.045,0,.068v4.638c.01.155-.049.309-.16.42-.111.111-.264.169-.42.16h0ZM345.343,81.123c-.156.009-.309-.049-.42-.16-.111-.111-.169-.263-.16-.42v-4.638c-.009-.157.049-.31.16-.421.111-.111.264-.168.42-.159.156-.01.309.048.42.159.112.111.169.265.16.421v4.638c.01.157-.048.31-.16.42-.111.111-.264.169-.42.16h0Z"/>
    <path class="uuid-d07c0d5f-041c-4c06-985f-966908d8f858" d="M329.459,68.717c0,.32-.259.58-.58.58s-.58-.259-.58-.58.259-.58.58-.58.58.259.58.58ZM324.706,84.369c-.128.016-.256-.026-.349-.116-1.391-1.739-2.087-3.942-2.087-6.145-.006-1.832.474-3.632,1.392-5.218.93-1.509,2.201-2.779,3.71-3.709.199-.089.432-.043.581.116.088.198.041.431-.116.58-2.928,1.654-4.743,4.752-4.754,8.115-.003,2.062.692,4.065,1.971,5.682.116.116.116.464-.116.58q-.116.116-.231.116h0Z"/>
    <g class="uuid-b31d9caf-d93c-4e2b-afd5-0a309cf4a0e6">
      <g id="uuid-48ab8b4a-3d0d-468d-b209-84f14aa13933" data-name="argocd-original-k">
        <path class="uuid-7305554b-efc8-4e89-b04f-9d31b123db22" d="M338.039,89.818v-.927c-1.623.927-3.363,1.855-5.449,1.855-2.319,0-3.827-1.043-5.334-1.855l.115.927s1.74,1.856,5.334,1.856c3.362-.116,5.334-1.856,5.334-1.856h0Z"/>
      </g>
    </g>
  </g>
  <path id="uuid-19f8ead0-4700-4df0-9b3c-fc1f45121b2d" data-name="path4486" class="uuid-80a2062b-830f-4315-bb66-c5b041c10406" d="M61.143,67.164c-7.365,0-13.336,5.97-13.336,13.335s5.971,13.335,13.336,13.335,13.335-5.971,13.335-13.335-5.971-13.335-13.335-13.335ZM61.143,92.122c-2.095,0-3.794-1.4-3.794-3.126h7.589c0,1.726-1.699,3.126-3.794,3.126ZM67.41,87.961h-12.535v-2.273h12.535v2.273h0ZM67.365,84.518h-12.454c-.041-.048-.084-.095-.124-.143-1.283-1.558-1.585-2.371-1.879-3.2-.005-.027,1.556.319,2.663.568,0,0,.57.132,1.402.284-.799-.937-1.274-2.128-1.274-3.346,0-2.673,2.05-5.009,1.311-6.897.72.059,1.49,1.519,1.542,3.803.765-1.058,1.086-2.989,1.086-4.173,0-1.226.808-2.65,1.616-2.699-.72,1.187.187,2.205.993,4.73.302.948.264,2.544.497,3.557.077-2.102.439-5.17,1.773-6.229-.588,1.334.087,3.002.549,3.805.745,1.294,1.197,2.275,1.197,4.13,0,1.244-.459,2.414-1.234,3.329.881-.165,1.489-.314,1.489-.314l2.86-.558s-.415,1.709-2.012,3.354Z"/>
  <rect class="uuid-e8f1cd71-5498-4ae4-8ba3-fe91e6c6cd9b" x="32.487" y="61.624" width="114.649" height="45.797"/>
  <path d="M85.25,81.734h-1.815v-.957h1.815v-1.958h.99v1.958h1.815v.957h-1.815v1.958h-.99v-1.958Z"/>
  <rect class="uuid-e8f1cd71-5498-4ae4-8ba3-fe91e6c6cd9b" x="153.721" y="61.624" width="107.059" height="45.797"/>
  <path d="M192.671,81.734h-1.815v-.957h1.815v-1.958h.99v1.958h1.815v.957h-1.815v1.958h-.99v-1.958Z"/>
  <g>
    <path class="uuid-c606f82d-b1ab-4731-914f-6fc7fd68974e" d="M210.911,83.88c-.789.789-.789,2.07,0,2.859s2.07.789,2.859,0c.789-.789.789-2.07,0-2.859-.789-.789-2.07-.789-2.859,0h0ZM213.051,86.02c-.389.389-1.027.389-1.416,0s-.389-1.027,0-1.416,1.027-.389,1.416,0,.389,1.027,0,1.416ZM214.964,84.291h.849v.427c.205-.281.492-.486.93-.486.697,0,1.362.546,1.362,1.546v.011c0,1-.654,1.546-1.362,1.546-.454,0-.73-.205-.93-.449v1.281h-.849v-3.875h0ZM217.256,85.793v-.011c0-.497-.335-.827-.73-.827s-.724.33-.724.827v.011c0,.497.33.827.724.827.395-.005.73-.324.73-.827ZM218.704,85.799v-.011c0-.849.605-1.551,1.47-1.551.994,0,1.448.773,1.448,1.616,0,.065-.005.146-.011.222h-2.07c.081.384.351.584.73.584.281,0,.486-.086.724-.303l.481.427c-.276.346-.676.557-1.216.557-.897-.005-1.557-.632-1.557-1.54ZM220.801,85.545c-.049-.378-.27-.632-.627-.632-.351,0-.578.249-.643.632h1.27ZM222.228,84.291h.865v.432c.2-.254.454-.486.892-.486.654,0,1.032.432,1.032,1.13v1.967h-.865v-1.697c0-.411-.195-.616-.524-.616s-.54.211-.54.616v1.697h-.865v-3.043h.005ZM213.737,73.941l-1.238,1.238c-.243.243-.243.638,0,.881l4.837,4.837c.243.243.638.243.881,0l1.238-1.238c.243-.243.243-.638,0-.881l-4.837-4.837c-.243-.243-.638-.243-.881,0ZM205.063,89.76c.222-.222.222-.578,0-.8l-.632-.632c-.222-.222-.578-.222-.8,0l-1.297,1.297-.357-.357c-.195-.195-.519-.195-.713,0s-.195.519,0,.713l2.146,2.146c.195.195.519.195.713,0s.195-.519,0-.713l-.357-.357,1.297-1.297Z"/>
    <path class="uuid-0566858a-1009-4f7c-97cb-ae14677ab6e6" d="M211.613,77.492l-2.751,2.751c-.243.243-.243.649,0,.892l1.697,1.697c1.2-.865,2.886-.757,3.967.324l1.373-1.373c.243-.243.243-.649,0-.892l-3.394-3.394c-.249-.249-.649-.249-.892-.005h0ZM209.846,83.55l-1.005-1.005c-.232-.232-.622-.232-.854,0l-3.54,3.54c-.232.232-.232.622,0,.854l2.005,2.005c.232.232.622.232.854,0l2.275-2.275c-.476-1-.389-2.2.265-3.118h0ZM226.616,84.107h-1.232v-.821h3.356v.821h-1.232v3.227h-.892v-3.227ZM228.746,85.793v-.011c0-.849.605-1.551,1.47-1.551.994,0,1.448.773,1.448,1.616,0,.065-.005.146-.011.222h-2.07c.081.384.351.584.73.584.281,0,.486-.086.724-.303l.481.427c-.276.346-.676.557-1.216.557-.897,0-1.557-.627-1.557-1.54h0ZM230.843,85.545c-.049-.378-.27-.632-.627-.632-.351,0-.578.249-.643.632h1.27ZM232.264,83.285h.843v4.048h-.843v-4.048ZM233.707,85.799v-.011c0-.849.605-1.551,1.47-1.551.994,0,1.448.773,1.448,1.616,0,.065-.005.146-.011.222h-2.07c.081.384.351.584.73.584.281,0,.486-.086.724-.303l.481.427c-.276.346-.676.557-1.216.557-.892-.005-1.557-.632-1.557-1.54h0ZM235.81,85.55c-.049-.378-.27-.632-.627-.632-.351,0-.578.249-.643.632h1.27ZM237.231,84.291h.865v.432c.2-.254.459-.486.897-.486.395,0,.697.178.854.481.265-.313.584-.481,1-.481.643,0,1.027.384,1.027,1.119v1.978h-.865v-1.697c0-.411-.184-.616-.503-.616-.324,0-.524.211-.524.616v1.697h-.865v-1.697c0-.411-.184-.616-.503-.616-.324,0-.524.211-.524.616v1.697h-.865v-3.043h.005ZM242.473,85.793v-.011c0-.849.605-1.551,1.47-1.551.994,0,1.448.773,1.448,1.616,0,.065-.005.146-.011.222h-2.07c.081.384.351.584.73.584.281,0,.486-.086.724-.303l.481.427c-.276.346-.676.557-1.216.557-.897,0-1.557-.627-1.557-1.54h0ZM244.57,85.545c-.049-.378-.27-.632-.627-.632-.351,0-.578.249-.643.632h1.27ZM246.089,86.415v-1.454h-.368v-.746h.368v-.784h.87v.784h.724v.746h-.719v1.308c0,.2.086.297.281.297.162,0,.303-.038.427-.108v.697c-.184.108-.395.178-.686.178-.535,0-.897-.211-.897-.919h0ZM248.337,84.269h.876v.622c.178-.427.465-.703.984-.681v.919h-.049c-.584,0-.94.351-.94,1.092v1.14h-.876v-3.091h.005ZM252.98,84.237h.93l-1.211,3.232c-.243.643-.503.881-1.038.881-.324,0-.562-.081-.794-.216l.297-.649c.119.07.265.124.384.124.151,0,.238-.049.313-.205l-1.238-3.167h.946l.719,2.146.692-2.146h0Z"/>
  </g>
  <g id="uuid-fa280165-f2e8-4ffc-8b95-331961ac82c9" data-name="Layer 6">
    <path class="uuid-7efe35d3-3ae8-4af7-96ea-1157bab719fd" d="M162.764,79.019h-.426c-.243,0-.44.197-.44.44s.197.44.44.44h.426c.243,0,.44-.197.44-.44s-.197-.44-.44-.44h0ZM170.907,85.443h-.426c-.243,0-.441.197-.441.44s.197.441.44.441h.426c.243,0,.441-.197.441-.44s-.197-.441-.44-.441h0ZM170.551,81.249c0-.243-.197-.44-.44-.44h-1.472c-.243,0-.44.197-.44.44s.197.44.44.44h1.472c.243,0,.44-.197.44-.44h0ZM184.519,78.48l-.448-2.516c-.126-.944-.953-1.635-1.905-1.591h-17.25c-.644-.023-1.185.481-1.208,1.125-.004.103.006.206.03.306l.472,2.676c.004.021.009.042.015.063h0c.056.327-.11.459-.258.507h0c-.229.082-.348.335-.265.564.063.174.227.29.412.291h19.228c.644.022,1.184-.482,1.207-1.126.003-.101-.006-.201-.028-.299ZM178.651,88.574c-.186-.976-.743-1.338-1.373-1.338h-4.556c-.245.002-.441.201-.44.446-.002.228.169.419.396.442h0c.145.026.301.216.4.684l.468,2.602c.176.806.883,1.386,1.708,1.401l2.719-.013c.644.031,1.191-.465,1.222-1.109.005-.102-.004-.205-.025-.305l-.517-2.81ZM172.626,86.355h4.945c.037,0,.074-.006.11-.017.457-.097.479-.468.42-.838l-.63-3.458c-.173-.899-.695-1.254-1.381-1.254h-4.529c-.243.003-.438.202-.436.445.002.219.166.404.383.432h0c.151.028.316.23.413.743l.478,2.646h0c.051.19-.061.386-.251.438-.01.003-.019.005-.029.007h0c-.229.079-.35.329-.271.558.062.178.23.296.418.295h.353l.007.004Z"/>
  </g>
</svg>