<?xml version="1.0" encoding="UTF-8"?>
<svg id="uuid-126743d6-5ad8-4ff0-aa03-cf9e09c4461c" data-name="Layer 1" xmlns="http://www.w3.org/2000/svg" width="595.276" height="289.661" viewBox="0 0 595.276 289.661">
  <defs>
    <style>
      .uuid-1c526c22-d618-4443-ba9f-07a441a34f26 {
        fill: #e6e6e6;
      }

      .uuid-34d00c06-aeb7-44e6-9301-d2258e13b6d5 {
        fill: #c04589;
      }

      .uuid-96481fc7-2bae-4dd7-9b18-5f674c7c7e7e {
        fill: #06c;
      }

      .uuid-598b199a-33e0-45e0-bd7f-8bbaa9696fb6, .uuid-7b71d60b-d808-4f86-b48e-2a171a80b258 {
        fill: #06c;
      }

      .uuid-03af0fa7-311f-4975-90e4-1e22ee9ed29c {
        fill: #fff;
      }

      .uuid-0bde5f0d-1955-4335-9fef-7e223f4ff8e0 {
        fill: #ac6199;
      }

      .uuid-f7edd53a-5f8e-4fc2-8b0d-b3db76dd7d9c {
        stroke: #000;
      }

      .uuid-f7edd53a-5f8e-4fc2-8b0d-b3db76dd7d9c, .uuid-25c3d149-6a29-48dc-b19b-843f36036a6f {
        fill: none;
        stroke-miterlimit: 10;
      }

      .uuid-25c3d149-6a29-48dc-b19b-843f36036a6f {
        stroke: #06c;
      }

      .uuid-7b71d60b-d808-4f86-b48e-2a171a80b258 {
        opacity: .1;
      }

      .uuid-a705e00d-d65b-4e8c-83ac-0c6ab4efd327 {
        fill: #953984;
      }
    </style>
  </defs>
  <rect class="uuid-03af0fa7-311f-4975-90e4-1e22ee9ed29c" x="-.108" y="-.566" width="594.583" height="291.306"/>
  <rect class="uuid-1c526c22-d618-4443-ba9f-07a441a34f26" x="119.403" y="32.976" width="108.887" height="134.015"/>
  <rect class="uuid-1c526c22-d618-4443-ba9f-07a441a34f26" x="243.268" y="32.976" width="108.887" height="134.015"/>
  <rect class="uuid-1c526c22-d618-4443-ba9f-07a441a34f26" x="367.539" y="32.976" width="108.887" height="134.015"/>
  <rect class="uuid-1c526c22-d618-4443-ba9f-07a441a34f26" x="119.402" y="201.074" width="357.103" height="65.414"/>
  <rect class="uuid-03af0fa7-311f-4975-90e4-1e22ee9ed29c" x="130.939" y="229.809" width="334.03" height="25.815"/>
  <rect class="uuid-7b71d60b-d808-4f86-b48e-2a171a80b258" x="111.687" y="103.64" width="372.106" height="70.475"/>
  <rect class="uuid-598b199a-33e0-45e0-bd7f-8bbaa9696fb6" x="130.865" y="62.512" width="85.964" height="26.741"/>
  <rect class="uuid-03af0fa7-311f-4975-90e4-1e22ee9ed29c" x="130.865" y="118.498" width="85.964" height="37.063"/>
  <g>
    <line class="uuid-25c3d149-6a29-48dc-b19b-843f36036a6f" x1="174.508" y1="94.812" x2="174.508" y2="112.408"/>
    <polygon class="uuid-96481fc7-2bae-4dd7-9b18-5f674c7c7e7e" points="170.768 95.906 174.508 89.429 178.247 95.906 170.768 95.906"/>
    <polygon class="uuid-96481fc7-2bae-4dd7-9b18-5f674c7c7e7e" points="170.768 111.314 174.508 117.79 178.247 111.314 170.768 111.314"/>
  </g>
  <g>
    <line class="uuid-25c3d149-6a29-48dc-b19b-843f36036a6f" x1="222.159" y1="137.03" x2="248.733" y2="137.03"/>
    <polygon class="uuid-96481fc7-2bae-4dd7-9b18-5f674c7c7e7e" points="223.254 140.77 216.777 137.03 223.254 133.29 223.254 140.77"/>
    <polygon class="uuid-96481fc7-2bae-4dd7-9b18-5f674c7c7e7e" points="247.639 140.77 254.115 137.03 247.639 133.29 247.639 140.77"/>
  </g>
  <g>
    <line class="uuid-25c3d149-6a29-48dc-b19b-843f36036a6f" x1="346.837" y1="137.03" x2="373.41" y2="137.03"/>
    <polygon class="uuid-96481fc7-2bae-4dd7-9b18-5f674c7c7e7e" points="347.931 140.77 341.455 137.03 347.931 133.29 347.931 140.77"/>
    <polygon class="uuid-96481fc7-2bae-4dd7-9b18-5f674c7c7e7e" points="372.316 140.77 378.793 137.03 372.316 133.29 372.316 140.77"/>
  </g>
  <g>
    <line class="uuid-25c3d149-6a29-48dc-b19b-843f36036a6f" x1="464.914" y1="137.03" x2="578.905" y2="137.03"/>
    <polygon class="uuid-96481fc7-2bae-4dd7-9b18-5f674c7c7e7e" points="577.81 140.77 584.287 137.03 577.81 133.29 577.81 140.77"/>
  </g>
  <g>
    <line class="uuid-25c3d149-6a29-48dc-b19b-843f36036a6f" x1="11.283" y1="137.03" x2="125.274" y2="137.03"/>
    <polygon class="uuid-96481fc7-2bae-4dd7-9b18-5f674c7c7e7e" points="124.18 140.77 130.656 137.03 124.18 133.29 124.18 140.77"/>
  </g>
  <rect class="uuid-598b199a-33e0-45e0-bd7f-8bbaa9696fb6" x="254.73" y="62.512" width="85.964" height="26.741"/>
  <rect class="uuid-03af0fa7-311f-4975-90e4-1e22ee9ed29c" x="254.73" y="118.498" width="85.964" height="37.063"/>
  <g>
    <line class="uuid-25c3d149-6a29-48dc-b19b-843f36036a6f" x1="298.373" y1="94.812" x2="298.373" y2="112.408"/>
    <polygon class="uuid-96481fc7-2bae-4dd7-9b18-5f674c7c7e7e" points="294.633 95.906 298.373 89.429 302.113 95.906 294.633 95.906"/>
    <polygon class="uuid-96481fc7-2bae-4dd7-9b18-5f674c7c7e7e" points="294.633 111.314 298.373 117.79 302.113 111.314 294.633 111.314"/>
  </g>
  <rect class="uuid-598b199a-33e0-45e0-bd7f-8bbaa9696fb6" x="379.001" y="62.512" width="85.964" height="26.741"/>
  <rect class="uuid-03af0fa7-311f-4975-90e4-1e22ee9ed29c" x="379.001" y="118.498" width="85.964" height="37.063"/>
  <g>
    <line class="uuid-25c3d149-6a29-48dc-b19b-843f36036a6f" x1="422.644" y1="94.812" x2="422.644" y2="112.408"/>
    <polygon class="uuid-96481fc7-2bae-4dd7-9b18-5f674c7c7e7e" points="418.904 95.906 422.644 89.429 426.384 95.906 418.904 95.906"/>
    <polygon class="uuid-96481fc7-2bae-4dd7-9b18-5f674c7c7e7e" points="418.904 111.314 422.644 117.79 426.384 111.314 418.904 111.314"/>
  </g>
  <g>
    <polyline class="uuid-25c3d149-6a29-48dc-b19b-843f36036a6f" points="125.274 125.506 104.665 125.506 104.665 22.353 492.505 22.353 492.505 126.725 470.956 126.725"/>
    <polygon class="uuid-96481fc7-2bae-4dd7-9b18-5f674c7c7e7e" points="124.18 121.767 130.656 125.506 124.18 129.246 124.18 121.767"/>
    <polygon class="uuid-96481fc7-2bae-4dd7-9b18-5f674c7c7e7e" points="472.05 122.985 465.574 126.725 472.05 130.465 472.05 122.985"/>
  </g>
  <g>
    <polyline class="uuid-f7edd53a-5f8e-4fc2-8b0d-b3db76dd7d9c" points="173.893 161.947 173.893 189.336 423.389 189.336 423.389 161.56"/>
    <polygon points="170.154 163.042 173.893 156.565 177.633 163.042 170.154 163.042"/>
    <polygon points="427.129 162.655 423.389 156.178 419.649 162.655 427.129 162.655"/>
  </g>
  <g>
    <path d="M131.389,215.821c0-2.039,1.609-3.608,3.688-3.608,1.12,0,2.229.53,2.838,1.359l-1.159,1.1c-.46-.62-1.02-.93-1.679-.93-1.089,0-1.909.89-1.909,2.079s.819,2.079,1.909,2.079c.66,0,1.219-.31,1.679-.929l1.159,1.099c-.609.83-1.719,1.359-2.838,1.359-2.079,0-3.688-1.569-3.688-3.608Z"/>
    <path d="M138.389,216.751c0-1.52,1.159-2.669,2.688-2.669s2.688,1.149,2.688,2.669-1.159,2.668-2.688,2.668-2.688-1.149-2.688-2.668ZM142.187,216.751c0-.77-.46-1.319-1.109-1.319s-1.109.549-1.109,1.319.459,1.319,1.109,1.319,1.109-.549,1.109-1.319Z"/>
    <path d="M144.799,214.162h1.619v.84c.4-.6.959-.92,1.629-.92,1,0,1.709.73,1.709,1.759v3.478h-1.619v-3.008c0-.58-.34-.959-.859-.959-.35,0-.63.14-.86.43v3.538h-1.619v-5.157Z"/>
    <path d="M151.508,217.76v-2.349h-.999v-1.25h.999v-1.429l1.619-.33v1.759h1.379v1.25h-1.379v2.029c0,.459.18.62.68.62.19,0,.34-.02.66-.11v1.309c-.3.09-.779.16-1.109.16-1.219,0-1.849-.56-1.849-1.659Z"/>
    <path d="M155.409,214.162h1.619v1.169c.33-.859.79-1.27,1.399-1.27.23.01.34.03.54.13v1.389c-.2-.1-.479-.16-.759-.16-.48,0-.919.25-1.18.64v3.258h-1.619v-5.157Z"/>
    <path d="M159.448,216.751c0-1.52,1.159-2.669,2.688-2.669s2.688,1.149,2.688,2.669-1.159,2.668-2.688,2.668-2.688-1.149-2.688-2.668ZM163.246,216.751c0-.77-.46-1.319-1.109-1.319s-1.109.549-1.109,1.319.459,1.319,1.109,1.319,1.109-.549,1.109-1.319Z"/>
    <path d="M165.858,212.203l1.619-.25v7.366h-1.619v-7.116Z"/>
    <path d="M170.888,214.162h1.599v.72c.339-.46.909-.75,1.529-.75,1.27,0,2.279,1.169,2.279,2.619s-1.06,2.598-2.398,2.598c-.56,0-1.05-.209-1.39-.6v2.659h-1.619v-7.246ZM174.706,216.741c0-.729-.53-1.269-1.229-1.269-.4,0-.709.14-.97.419v1.719c.25.26.59.41.97.41.709,0,1.229-.54,1.229-1.279Z"/>
    <path d="M177.328,212.203l1.619-.25v7.366h-1.619v-7.116Z"/>
    <path d="M179.968,217.84c0-.95.74-1.5,2.009-1.5.37,0,.74.07,1.2.24v-.42c0-.5-.33-.75-1.02-.75-.39,0-.85.11-1.449.36l-.56-1.129c.85-.38,1.609-.56,2.369-.56,1.429,0,2.259.71,2.259,1.939v3.298h-1.599v-.45c-.45.38-.879.53-1.429.53-1.05,0-1.779-.64-1.779-1.559ZM182.247,218.33c.34,0,.65-.09.93-.26v-.66c-.3-.07-.59-.11-.89-.11-.53,0-.83.18-.83.51s.29.52.79.52Z"/>
    <path d="M185.998,214.162h1.619v.84c.4-.6.959-.92,1.629-.92,1,0,1.709.73,1.709,1.759v3.478h-1.619v-3.008c0-.58-.34-.959-.859-.959-.35,0-.63.14-.86.43v3.538h-1.619v-5.157Z"/>
    <path d="M191.948,216.751c0-1.509,1.119-2.669,2.599-2.669,1.489,0,2.539,1.129,2.539,2.729v.35h-3.548c.15.58.62.969,1.209.969.43,0,.79-.15,1.02-.43l1.069.89c-.669.589-1.299.83-2.169.83-1.519,0-2.718-1.169-2.718-2.668ZM195.586,216.241c-.14-.55-.529-.9-1.049-.9-.51,0-.87.33-1,.9h2.049Z"/>
  </g>
  <g>
    <path d="M285.543,238.77c0-.38.31-.7.7-.7.38,0,.7.32.7.7s-.32.689-.7.689c-.39,0-.7-.31-.7-.689ZM285.673,240.479h1.129v5.007h-1.129v-5.007Z"/>
    <path d="M287.754,244.907l.53-.75c.66.41,1.099.569,1.609.569.6,0,1.009-.28,1.009-.68,0-.31-.209-.47-.699-.569l-.88-.15c-.979-.18-1.449-.63-1.449-1.379,0-.939.77-1.549,1.939-1.549.7,0,1.33.2,1.969.6l-.53.75c-.51-.33-1-.48-1.509-.48-.52,0-.859.22-.859.58,0,.32.18.46.7.55l.889.17c1,.18,1.479.64,1.479,1.389,0,.919-.88,1.629-2.049,1.629-.859,0-1.619-.24-2.148-.68Z"/>
    <path d="M293.513,244.187v-2.809h-1v-.899h1v-1.379l1.129-.24v1.619h1.389v.899h-1.389v2.559c0,.49.19.68.7.68.22,0,.379-.03.68-.12v.949c-.29.09-.67.14-.97.14-1.009,0-1.539-.48-1.539-1.399Z"/>
    <path d="M296.893,238.77c0-.38.31-.7.7-.7.38,0,.7.32.7.7s-.32.689-.7.689c-.39,0-.7-.31-.7-.689ZM297.023,240.479h1.129v5.007h-1.129v-5.007Z"/>
    <path d="M299.323,242.988c0-1.479,1.079-2.589,2.519-2.589,1.429,0,2.509,1.109,2.509,2.589s-1.08,2.588-2.509,2.588c-1.439,0-2.519-1.109-2.519-2.588ZM303.241,242.988c0-.93-.59-1.629-1.399-1.629-.819,0-1.409.7-1.409,1.629,0,.939.59,1.629,1.409,1.629.81,0,1.399-.689,1.399-1.629Z"/>
    <path d="M305.293,242.988c0-1.429,1.029-2.549,2.339-2.549.569,0,1.09.23,1.459.65v-2.769l1.13-.2v7.366h-1.119v-.66c-.36.45-.92.709-1.55.709-1.27,0-2.259-1.129-2.259-2.548ZM309.091,244.037v-2.109c-.289-.34-.72-.54-1.189-.54-.859,0-1.499.68-1.499,1.599,0,.909.64,1.599,1.499,1.599.49,0,.9-.19,1.189-.55Z"/>
  </g>
  <g>
    <path d="M173.247,132.375h3.128c1.419,0,2.339.89,2.339,2.179,0,1.259-.919,2.149-2.339,2.149h-1.929v2.668h-1.2v-6.996ZM176.186,135.723c.85,0,1.319-.47,1.319-1.179,0-.69-.47-1.16-1.309-1.16h-1.749v2.339h1.739Z"/>
    <path d="M179.867,134.363h1.129v1.08c.28-.76.759-1.169,1.379-1.169.19.01.32.03.49.1v.989c-.18-.07-.41-.12-.62-.12-.549,0-1,.31-1.249.83v3.298h-1.129v-5.007Z"/>
    <path d="M183.337,136.872c0-1.479,1.08-2.589,2.519-2.589,1.429,0,2.509,1.109,2.509,2.589s-1.08,2.588-2.509,2.588c-1.439,0-2.519-1.109-2.519-2.588ZM187.255,136.872c0-.93-.59-1.629-1.399-1.629-.819,0-1.409.7-1.409,1.629,0,.939.59,1.629,1.409,1.629.81,0,1.399-.689,1.399-1.629Z"/>
    <path d="M190.446,136.792l-1.809-2.429h1.33l1.169,1.649,1.169-1.649h1.27l-1.829,2.458,1.909,2.549h-1.319l-1.259-1.749-1.259,1.749h-1.259l1.889-2.579Z"/>
    <path d="M194.327,141.489v-.979c.13.03.29.04.44.04.4,0,.64-.18.81-.569l.23-.56-1.889-5.057h1.25l1.279,3.708,1.389-3.708h1.239l-2.398,5.877c-.39.969-.85,1.319-1.789,1.319-.16,0-.36-.02-.56-.07Z"/>
  </g>
  <g>
    <path d="M12.712,125.809h1.08v6.302h-1.08v-6.302Z"/>
    <path d="M15.133,127.6h1.017v.738c.343-.531.838-.811,1.423-.811.927,0,1.575.657,1.575,1.612v2.971h-1.026v-2.683c0-.657-.387-1.081-.99-1.081-.414,0-.747.189-.981.549v3.214h-1.017v-4.51Z"/>
    <path d="M20.667,133.641l.352-.747c.531.261.963.378,1.413.378.757,0,1.152-.342,1.152-.999v-.765c-.324.396-.819.63-1.387.63-1.143,0-2.034-1.017-2.034-2.295s.928-2.278,2.106-2.278c.522,0,.99.207,1.323.603v-.567h1.009v4.672c0,1.161-.756,1.81-2.125,1.81-.647,0-1.278-.162-1.81-.441ZM23.584,130.796v-1.891c-.261-.306-.648-.486-1.071-.486-.774,0-1.351.603-1.351,1.431,0,.819.576,1.44,1.351,1.44.441,0,.811-.18,1.071-.495Z"/>
    <path d="M25.852,127.6h1.017v.972c.252-.684.685-1.053,1.242-1.053.172.009.288.027.441.09v.892c-.162-.063-.369-.108-.558-.108-.495,0-.9.279-1.126.748v2.971h-1.017v-4.51Z"/>
    <path d="M28.975,129.86c0-1.324.954-2.332,2.196-2.332,1.233,0,2.134.981,2.134,2.332v.243h-3.331c.099.729.648,1.261,1.351,1.261.423,0,.819-.162,1.071-.423l.666.603c-.549.459-1.099.657-1.782.657-1.297,0-2.305-1.017-2.305-2.34ZM32.341,129.473c-.107-.657-.576-1.116-1.179-1.116-.612,0-1.062.441-1.18,1.116h2.358Z"/>
    <path d="M33.978,131.588l.478-.675c.594.369.99.513,1.449.513.54,0,.909-.252.909-.612,0-.279-.188-.423-.63-.513l-.792-.135c-.883-.162-1.306-.567-1.306-1.243,0-.846.693-1.396,1.746-1.396.631,0,1.197.18,1.773.541l-.477.675c-.459-.297-.9-.432-1.359-.432-.469,0-.774.198-.774.522,0,.288.162.414.63.495l.802.153c.9.162,1.332.576,1.332,1.251,0,.828-.792,1.467-1.846,1.467-.774,0-1.458-.216-1.936-.612Z"/>
    <path d="M38.289,131.588l.477-.675c.595.369.99.513,1.45.513.54,0,.909-.252.909-.612,0-.279-.189-.423-.631-.513l-.792-.135c-.882-.162-1.306-.567-1.306-1.243,0-.846.693-1.396,1.747-1.396.63,0,1.197.18,1.773.541l-.478.675c-.459-.297-.9-.432-1.359-.432-.468,0-.774.198-.774.522,0,.288.162.414.631.495l.801.153c.9.162,1.333.576,1.333,1.251,0,.828-.793,1.467-1.846,1.467-.774,0-1.459-.216-1.936-.612Z"/>
    <path d="M45.327,133.641l.351-.747c.531.261.964.378,1.414.378.756,0,1.152-.342,1.152-.999v-.765c-.324.396-.819.63-1.387.63-1.144,0-2.034-1.017-2.034-2.295s.927-2.278,2.106-2.278c.521,0,.99.207,1.323.603v-.567h1.008v4.672c0,1.161-.756,1.81-2.124,1.81-.648,0-1.278-.162-1.81-.441ZM48.244,130.796v-1.891c-.262-.306-.648-.486-1.071-.486-.774,0-1.351.603-1.351,1.431,0,.819.576,1.44,1.351,1.44.44,0,.81-.18,1.071-.495Z"/>
    <path d="M50.276,130.814c0-.81.667-1.323,1.729-1.323.424,0,.819.09,1.216.288v-.504c0-.594-.342-.9-1.035-.9-.378,0-.792.108-1.314.352l-.36-.738c.675-.306,1.27-.459,1.873-.459,1.179,0,1.845.594,1.845,1.639v2.944h-1.008v-.468c-.387.378-.819.549-1.342.549-.945,0-1.603-.567-1.603-1.377ZM52.158,131.471c.405,0,.756-.117,1.062-.378v-.729c-.324-.153-.648-.216-1.035-.216-.585,0-.954.243-.954.648,0,.414.359.675.927.675Z"/>
    <path d="M55.884,130.94v-2.53h-.9v-.81h.9v-1.243l1.018-.216v1.458h1.251v.81h-1.251v2.305c0,.441.171.612.63.612.198,0,.342-.027.612-.108v.855c-.261.081-.604.126-.873.126-.909,0-1.387-.432-1.387-1.26Z"/>
    <path d="M58.772,129.86c0-1.324.954-2.332,2.196-2.332,1.233,0,2.134.981,2.134,2.332v.243h-3.331c.1.729.648,1.261,1.351,1.261.423,0,.819-.162,1.071-.423l.666.603c-.549.459-1.098.657-1.782.657-1.296,0-2.305-1.017-2.305-2.34ZM62.14,129.473c-.108-.657-.576-1.116-1.18-1.116-.612,0-1.062.441-1.179,1.116h2.358Z"/>
    <path d="M63.623,127.6h.973l.792,3.178.937-3.178h.855l.927,3.178.792-3.178h.945l-1.215,4.51h-.973l-.918-3.178-.909,3.178h-.99l-1.216-4.51Z"/>
    <path d="M70.373,130.814c0-.81.667-1.323,1.729-1.323.424,0,.819.09,1.216.288v-.504c0-.594-.342-.9-1.035-.9-.378,0-.792.108-1.314.352l-.36-.738c.675-.306,1.27-.459,1.873-.459,1.179,0,1.845.594,1.845,1.639v2.944h-1.008v-.468c-.387.378-.819.549-1.342.549-.945,0-1.603-.567-1.603-1.377ZM72.255,131.471c.405,0,.756-.117,1.062-.378v-.729c-.324-.153-.648-.216-1.035-.216-.585,0-.954.243-.954.648,0,.414.359.675.927.675Z"/>
    <path d="M75.287,134.019v-.882c.117.027.262.036.396.036.36,0,.576-.162.729-.513l.207-.504-1.702-4.555h1.126l1.152,3.34,1.251-3.34h1.116l-2.16,5.293c-.352.873-.766,1.188-1.612,1.188-.144,0-.323-.018-.504-.063Z"/>
  </g>
  <g>
    <path d="M131.054,49.709l.879-1.269c.97.68,1.579.93,2.269.93.739,0,1.189-.3,1.189-.74,0-.41-.24-.61-.919-.729l-1.489-.26c-1.109-.189-1.719-.889-1.719-1.879,0-1.359,1.039-2.208,2.778-2.208,1.08,0,2.149.35,2.869.919l-.87,1.249c-.68-.52-1.349-.77-2.089-.77-.68,0-1.069.28-1.069.66,0,.36.229.54.79.64l1.399.24c1.31.22,1.999.909,1.999,1.979,0,1.37-1.159,2.299-2.988,2.299-1.109,0-2.099-.37-3.028-1.06Z"/>
    <path d="M137.914,48.091c0-1.509,1.119-2.669,2.599-2.669,1.489,0,2.539,1.129,2.539,2.729v.35h-3.548c.15.58.62.969,1.209.969.43,0,.79-.15,1.02-.43l1.069.89c-.669.589-1.299.83-2.169.83-1.519,0-2.718-1.169-2.718-2.668ZM141.552,47.581c-.14-.55-.529-.9-1.049-.9-.51,0-.87.33-1,.9h2.049Z"/>
    <path d="M144.064,45.502h1.619v1.169c.33-.859.79-1.27,1.399-1.27.23.01.34.03.54.13v1.389c-.2-.1-.479-.16-.759-.16-.48,0-.919.25-1.18.64v3.258h-1.619v-5.157Z"/>
    <path d="M148.074,45.502h1.759l1.169,3.238,1.179-3.238h1.669l-2.109,5.157h-1.579l-2.089-5.157Z"/>
    <path d="M154.454,43.803c0-.5.41-.909.909-.909s.91.41.91.909-.41.91-.91.91-.909-.41-.909-.91ZM154.554,45.502h1.619v5.157h-1.619v-5.157Z"/>
    <path d="M157.204,48.091c0-1.509,1.159-2.669,2.668-2.669.85,0,1.629.34,2.149.95l-.99.989c-.33-.39-.66-.56-1.099-.56-.64,0-1.12.55-1.12,1.29s.48,1.289,1.12,1.289c.439,0,.77-.17,1.099-.56l.99.989c-.52.61-1.299.95-2.149.95-1.509,0-2.668-1.16-2.668-2.668Z"/>
    <path d="M162.444,48.091c0-1.509,1.119-2.669,2.599-2.669,1.489,0,2.539,1.129,2.539,2.729v.35h-3.548c.15.58.62.969,1.209.969.43,0,.79-.15,1.02-.43l1.069.89c-.669.589-1.299.83-2.169.83-1.519,0-2.718-1.169-2.718-2.668ZM166.082,47.581c-.14-.55-.529-.9-1.049-.9-.51,0-.87.33-1,.9h2.049Z"/>
    <path d="M172.862,43.663h1.959l2.688,6.996h-1.859l-.58-1.669h-2.559l-.589,1.669h-1.789l2.729-6.996ZM174.611,47.661l-.81-2.318-.819,2.318h1.629Z"/>
  </g>
  <g>
    <path d="M39.584,89.922h2.848c1.959,0,3.518,1.559,3.518,3.498s-1.559,3.498-3.518,3.498h-2.848v-6.996ZM42.433,95.449c.97,0,1.739-.899,1.739-2.029s-.77-2.029-1.739-2.029h-1.129v4.058h1.129Z"/>
    <path d="M46.694,95.439c0-.95.74-1.5,2.009-1.5.37,0,.739.07,1.199.24v-.42c0-.5-.33-.75-1.02-.75-.39,0-.85.11-1.449.36l-.56-1.129c.85-.38,1.609-.56,2.369-.56,1.429,0,2.259.71,2.259,1.939v3.298h-1.599v-.45c-.45.38-.88.53-1.429.53-1.049,0-1.779-.64-1.779-1.559ZM48.973,95.929c.34,0,.65-.09.93-.26v-.66c-.3-.07-.59-.11-.89-.11-.53,0-.83.18-.83.51s.29.52.79.52Z"/>
    <path d="M53.254,95.359v-2.349h-.999v-1.25h.999v-1.429l1.619-.33v1.759h1.379v1.25h-1.379v2.029c0,.459.18.62.68.62.19,0,.34-.02.66-.11v1.309c-.3.09-.779.16-1.109.16-1.219,0-1.849-.56-1.849-1.659Z"/>
    <path d="M56.914,95.439c0-.95.74-1.5,2.009-1.5.37,0,.739.07,1.199.24v-.42c0-.5-.33-.75-1.02-.75-.39,0-.85.11-1.449.36l-.56-1.129c.85-.38,1.609-.56,2.369-.56,1.429,0,2.259.71,2.259,1.939v3.298h-1.599v-.45c-.45.38-.88.53-1.429.53-1.049,0-1.779-.64-1.779-1.559ZM59.193,95.929c.34,0,.65-.09.93-.26v-.66c-.3-.07-.59-.11-.89-.11-.53,0-.83.18-.83.51s.29.52.79.52Z"/>
    <path d="M65.094,91.761h1.599v.72c.339-.46.909-.75,1.529-.75,1.27,0,2.279,1.169,2.279,2.619s-1.06,2.598-2.398,2.598c-.56,0-1.05-.209-1.39-.6v2.659h-1.619v-7.246ZM68.912,94.339c0-.729-.53-1.269-1.229-1.269-.4,0-.709.14-.97.419v1.719c.25.26.59.41.97.41.709,0,1.229-.54,1.229-1.279Z"/>
    <path d="M71.534,89.802l1.619-.25v7.366h-1.619v-7.116Z"/>
    <path d="M74.174,95.439c0-.95.74-1.5,2.009-1.5.37,0,.739.07,1.199.24v-.42c0-.5-.33-.75-1.02-.75-.39,0-.85.11-1.449.36l-.56-1.129c.85-.38,1.609-.56,2.369-.56,1.429,0,2.259.71,2.259,1.939v3.298h-1.599v-.45c-.45.38-.88.53-1.429.53-1.049,0-1.779-.64-1.779-1.559ZM76.453,95.929c.34,0,.65-.09.93-.26v-.66c-.3-.07-.59-.11-.89-.11-.53,0-.83.18-.83.51s.29.52.79.52Z"/>
    <path d="M80.204,91.761h1.619v.84c.4-.6.959-.92,1.629-.92,1,0,1.709.73,1.709,1.759v3.478h-1.619v-3.008c0-.58-.34-.959-.859-.959-.35,0-.63.14-.86.43v3.538h-1.619v-5.157Z"/>
    <path d="M86.154,94.35c0-1.509,1.119-2.669,2.599-2.669,1.489,0,2.539,1.129,2.539,2.729v.35h-3.548c.15.58.62.969,1.209.969.43,0,.79-.15,1.02-.43l1.069.89c-.669.589-1.299.83-2.169.83-1.519,0-2.718-1.169-2.718-2.668ZM89.792,93.84c-.14-.55-.529-.9-1.049-.9-.51,0-.87.33-1,.9h2.049Z"/>
  </g>
  <g>
    <path class="uuid-03af0fa7-311f-4975-90e4-1e22ee9ed29c" d="M162.45,71.571h1.389l2.708,6.996h-1.29l-.719-1.959h-2.869l-.72,1.959h-1.249l2.749-6.996ZM164.208,75.669l-1.099-2.958-1.089,2.958h2.188Z"/>
    <path class="uuid-03af0fa7-311f-4975-90e4-1e22ee9ed29c" d="M167.311,73.56h1.109v.709c.36-.47.919-.75,1.559-.75,1.27,0,2.259,1.129,2.259,2.549,0,1.429-1.02,2.548-2.329,2.548-.59,0-1.109-.22-1.469-.64v2.679h-1.129v-7.096ZM171.128,76.069c0-.91-.64-1.599-1.489-1.599-.5,0-.91.2-1.199.56v2.089c.29.35.72.56,1.199.56.859,0,1.489-.689,1.489-1.609Z"/>
    <path class="uuid-03af0fa7-311f-4975-90e4-1e22ee9ed29c" d="M173.421,73.56h1.109v.709c.36-.47.919-.75,1.559-.75,1.27,0,2.259,1.129,2.259,2.549,0,1.429-1.02,2.548-2.329,2.548-.59,0-1.109-.22-1.469-.64v2.679h-1.129v-7.096ZM177.239,76.069c0-.91-.64-1.599-1.489-1.599-.5,0-.91.2-1.199.56v2.089c.29.35.72.56,1.199.56.859,0,1.489-.689,1.489-1.609Z"/>
    <path class="uuid-03af0fa7-311f-4975-90e4-1e22ee9ed29c" d="M183.889,71.571h1.389l2.708,6.996h-1.29l-.719-1.959h-2.869l-.72,1.959h-1.249l2.749-6.996ZM185.648,75.669l-1.099-2.958-1.089,2.958h2.188Z"/>
  </g>
  <g>
    <path class="uuid-03af0fa7-311f-4975-90e4-1e22ee9ed29c" d="M286.32,71.571h1.389l2.708,6.996h-1.29l-.719-1.959h-2.869l-.72,1.959h-1.249l2.749-6.996ZM288.079,75.669l-1.099-2.958-1.089,2.958h2.188Z"/>
    <path class="uuid-03af0fa7-311f-4975-90e4-1e22ee9ed29c" d="M291.181,73.56h1.109v.709c.36-.47.919-.75,1.559-.75,1.27,0,2.259,1.129,2.259,2.549,0,1.429-1.02,2.548-2.329,2.548-.59,0-1.109-.22-1.469-.64v2.679h-1.129v-7.096ZM294.999,76.069c0-.91-.64-1.599-1.489-1.599-.5,0-.91.2-1.199.56v2.089c.29.35.72.56,1.199.56.859,0,1.489-.689,1.489-1.609Z"/>
    <path class="uuid-03af0fa7-311f-4975-90e4-1e22ee9ed29c" d="M297.292,73.56h1.109v.709c.36-.47.919-.75,1.559-.75,1.27,0,2.259,1.129,2.259,2.549,0,1.429-1.02,2.548-2.329,2.548-.59,0-1.109-.22-1.469-.64v2.679h-1.129v-7.096ZM301.109,76.069c0-.91-.64-1.599-1.489-1.599-.5,0-.91.2-1.199.56v2.089c.29.35.72.56,1.199.56.859,0,1.489-.689,1.489-1.609Z"/>
    <path class="uuid-03af0fa7-311f-4975-90e4-1e22ee9ed29c" d="M305.79,71.571h3.119c1.309,0,2.198.75,2.198,1.839,0,.709-.439,1.279-1.14,1.549.84.25,1.38.859,1.38,1.659,0,1.159-.93,1.949-2.309,1.949h-3.249v-6.996ZM308.779,74.52c.679,0,1.129-.39,1.129-.989,0-.59-.439-.979-1.129-.979h-1.789v1.969h1.789ZM308.889,77.588c.76,0,1.249-.43,1.249-1.08s-.479-1.069-1.249-1.069h-1.898v2.149h1.898Z"/>
  </g>
  <g>
    <path class="uuid-03af0fa7-311f-4975-90e4-1e22ee9ed29c" d="M410.456,71.571h1.389l2.709,6.996h-1.29l-.719-1.959h-2.869l-.72,1.959h-1.249l2.749-6.996ZM412.215,75.669l-1.1-2.958-1.089,2.958h2.188Z"/>
    <path class="uuid-03af0fa7-311f-4975-90e4-1e22ee9ed29c" d="M415.316,73.56h1.109v.709c.36-.47.92-.75,1.56-.75,1.269,0,2.259,1.129,2.259,2.549,0,1.429-1.02,2.548-2.329,2.548-.59,0-1.109-.22-1.469-.64v2.679h-1.13v-7.096ZM419.135,76.069c0-.91-.64-1.599-1.489-1.599-.5,0-.91.2-1.199.56v2.089c.289.35.72.56,1.199.56.859,0,1.489-.689,1.489-1.609Z"/>
    <path class="uuid-03af0fa7-311f-4975-90e4-1e22ee9ed29c" d="M421.427,73.56h1.109v.709c.359-.47.919-.75,1.559-.75,1.27,0,2.259,1.129,2.259,2.549,0,1.429-1.02,2.548-2.328,2.548-.59,0-1.109-.22-1.47-.64v2.679h-1.129v-7.096ZM425.244,76.069c0-.91-.64-1.599-1.489-1.599-.499,0-.909.2-1.199.56v2.089c.29.35.72.56,1.199.56.859,0,1.489-.689,1.489-1.609Z"/>
    <path class="uuid-03af0fa7-311f-4975-90e4-1e22ee9ed29c" d="M429.597,75.069c0-2.029,1.579-3.608,3.618-3.608,1.069,0,2.089.459,2.729,1.249l-.8.78c-.5-.62-1.189-.95-1.929-.95-1.359,0-2.389,1.089-2.389,2.529s1.029,2.529,2.389,2.529c.739,0,1.429-.33,1.929-.95l.8.78c-.64.79-1.659,1.249-2.729,1.249-2.039,0-3.618-1.579-3.618-3.608Z"/>
  </g>
  <g>
    <path d="M254.919,49.709l.879-1.269c.97.68,1.579.93,2.269.93.739,0,1.189-.3,1.189-.74,0-.41-.24-.61-.919-.729l-1.489-.26c-1.109-.189-1.719-.889-1.719-1.879,0-1.359,1.039-2.208,2.778-2.208,1.08,0,2.149.35,2.869.919l-.87,1.249c-.68-.52-1.349-.77-2.089-.77-.68,0-1.069.28-1.069.66,0,.36.229.54.79.64l1.399.24c1.31.22,1.999.909,1.999,1.979,0,1.37-1.159,2.299-2.988,2.299-1.109,0-2.099-.37-3.028-1.06Z"/>
    <path d="M261.779,48.091c0-1.509,1.119-2.669,2.599-2.669,1.489,0,2.539,1.129,2.539,2.729v.35h-3.548c.15.58.62.969,1.209.969.43,0,.79-.15,1.02-.43l1.069.89c-.669.589-1.299.83-2.169.83-1.519,0-2.718-1.169-2.718-2.668ZM265.417,47.581c-.14-.55-.529-.9-1.049-.9-.51,0-.87.33-1,.9h2.049Z"/>
    <path d="M267.929,45.502h1.619v1.169c.33-.859.79-1.27,1.399-1.27.23.01.34.03.54.13v1.389c-.2-.1-.479-.16-.759-.16-.48,0-.919.25-1.18.64v3.258h-1.619v-5.157Z"/>
    <path d="M271.939,45.502h1.759l1.169,3.238,1.179-3.238h1.669l-2.109,5.157h-1.579l-2.089-5.157Z"/>
    <path d="M278.319,43.803c0-.5.41-.909.909-.909s.91.41.91.909-.41.91-.91.91-.909-.41-.909-.91ZM278.419,45.502h1.619v5.157h-1.619v-5.157Z"/>
    <path d="M281.069,48.091c0-1.509,1.159-2.669,2.668-2.669.85,0,1.629.34,2.149.95l-.99.989c-.33-.39-.66-.56-1.099-.56-.64,0-1.12.55-1.12,1.29s.48,1.289,1.12,1.289c.439,0,.77-.17,1.099-.56l.99.989c-.52.61-1.299.95-2.149.95-1.509,0-2.668-1.16-2.668-2.668Z"/>
    <path d="M286.309,48.091c0-1.509,1.119-2.669,2.599-2.669,1.489,0,2.539,1.129,2.539,2.729v.35h-3.548c.15.58.62.969,1.209.969.43,0,.79-.15,1.02-.43l1.069.89c-.669.589-1.299.83-2.169.83-1.519,0-2.718-1.169-2.718-2.668ZM289.947,47.581c-.14-.55-.529-.9-1.049-.9-.51,0-.87.33-1,.9h2.049Z"/>
    <path d="M294.759,43.663h3.458c1.359,0,2.329.799,2.329,1.909,0,.65-.41,1.2-1.02,1.52.729.29,1.219.889,1.219,1.609,0,1.149-.979,1.959-2.369,1.959h-3.618v-6.996ZM298.017,46.472c.48,0,.8-.29.8-.72,0-.44-.31-.72-.8-.72h-1.539v1.439h1.539ZM298.157,49.29c.52,0,.85-.3.85-.77s-.331-.77-.85-.77h-1.679v1.539h1.679Z"/>
  </g>
  <g>
    <path d="M379.191,50.268l.879-1.269c.97.68,1.579.93,2.27.93.739,0,1.188-.3,1.188-.74,0-.41-.239-.61-.919-.729l-1.489-.26c-1.109-.189-1.719-.889-1.719-1.879,0-1.359,1.039-2.208,2.778-2.208,1.079,0,2.148.35,2.868.919l-.869,1.249c-.68-.52-1.35-.77-2.089-.77-.68,0-1.069.28-1.069.66,0,.36.229.54.789.64l1.399.24c1.31.22,1.999.909,1.999,1.979,0,1.37-1.159,2.299-2.988,2.299-1.109,0-2.099-.37-3.028-1.06Z"/>
    <path d="M386.051,48.649c0-1.509,1.119-2.669,2.599-2.669,1.489,0,2.539,1.129,2.539,2.729v.35h-3.549c.15.58.62.969,1.21.969.43,0,.789-.15,1.02-.43l1.069.89c-.67.589-1.3.83-2.169.83-1.52,0-2.719-1.169-2.719-2.668ZM389.688,48.14c-.14-.55-.529-.9-1.049-.9-.51,0-.87.33-1,.9h2.049Z"/>
    <path d="M392.201,46.061h1.618v1.169c.33-.859.79-1.27,1.399-1.27.23.01.34.03.54.13v1.389c-.2-.1-.479-.16-.76-.16-.479,0-.919.25-1.18.64v3.258h-1.618v-5.157Z"/>
    <path d="M396.211,46.061h1.759l1.17,3.238,1.179-3.238h1.669l-2.108,5.157h-1.579l-2.089-5.157Z"/>
    <path d="M402.591,44.361c0-.5.409-.909.909-.909s.909.41.909.909-.409.91-.909.91-.909-.41-.909-.91ZM402.69,46.061h1.619v5.157h-1.619v-5.157Z"/>
    <path d="M405.341,48.649c0-1.509,1.159-2.669,2.668-2.669.85,0,1.629.34,2.149.95l-.99.989c-.329-.39-.659-.56-1.099-.56-.64,0-1.12.55-1.12,1.29s.48,1.289,1.12,1.289c.439,0,.77-.17,1.099-.56l.99.989c-.521.61-1.3.95-2.149.95-1.509,0-2.668-1.16-2.668-2.668Z"/>
    <path d="M410.581,48.649c0-1.509,1.119-2.669,2.599-2.669,1.488,0,2.538,1.129,2.538,2.729v.35h-3.548c.149.58.619.969,1.209.969.43,0,.79-.15,1.02-.43l1.069.89c-.669.589-1.299.83-2.169.83-1.519,0-2.718-1.169-2.718-2.668ZM414.219,48.14c-.14-.55-.529-.9-1.05-.9-.51,0-.869.33-.999.9h2.049Z"/>
    <path d="M418.7,47.72c0-2.039,1.609-3.608,3.688-3.608,1.119,0,2.229.53,2.838,1.359l-1.159,1.1c-.46-.62-1.02-.93-1.679-.93-1.09,0-1.909.89-1.909,2.079s.819,2.079,1.909,2.079c.659,0,1.219-.31,1.679-.929l1.159,1.099c-.609.83-1.719,1.359-2.838,1.359-2.079,0-3.688-1.569-3.688-3.608Z"/>
  </g>
  <g>
    <path d="M519.318,125.809h4.511v.918h-3.431v1.756h2.396v.9h-2.396v1.81h3.467v.918h-4.547v-6.302Z"/>
    <path d="M525.061,133.641l.351-.747c.531.261.964.378,1.414.378.756,0,1.152-.342,1.152-.999v-.765c-.324.396-.819.63-1.387.63-1.144,0-2.034-1.017-2.034-2.295s.927-2.278,2.106-2.278c.521,0,.99.207,1.323.603v-.567h1.008v4.672c0,1.161-.756,1.81-2.124,1.81-.648,0-1.278-.162-1.81-.441ZM527.978,130.796v-1.891c-.262-.306-.648-.486-1.071-.486-.774,0-1.351.603-1.351,1.431,0,.819.576,1.44,1.351,1.44.44,0,.81-.18,1.071-.495Z"/>
    <path d="M530.244,127.6h1.018v.972c.252-.684.684-1.053,1.242-1.053.171.009.288.027.441.09v.892c-.162-.063-.369-.108-.559-.108-.495,0-.9.279-1.125.748v2.971h-1.018v-4.51Z"/>
    <path d="M533.367,129.86c0-1.324.954-2.332,2.196-2.332,1.233,0,2.134.981,2.134,2.332v.243h-3.331c.1.729.648,1.261,1.351,1.261.423,0,.819-.162,1.071-.423l.666.603c-.549.459-1.098.657-1.782.657-1.296,0-2.305-1.017-2.305-2.34ZM536.734,129.473c-.108-.657-.576-1.116-1.18-1.116-.612,0-1.062.441-1.179,1.116h2.358Z"/>
    <path d="M538.371,131.588l.478-.675c.594.369.99.513,1.449.513.54,0,.909-.252.909-.612,0-.279-.188-.423-.63-.513l-.792-.135c-.883-.162-1.306-.567-1.306-1.243,0-.846.693-1.396,1.746-1.396.631,0,1.197.18,1.773.541l-.477.675c-.459-.297-.9-.432-1.359-.432-.469,0-.774.198-.774.522,0,.288.162.414.63.495l.802.153c.9.162,1.332.576,1.332,1.251,0,.828-.792,1.467-1.846,1.467-.774,0-1.458-.216-1.936-.612Z"/>
    <path d="M542.682,131.588l.478-.675c.594.369.99.513,1.449.513.54,0,.909-.252.909-.612,0-.279-.188-.423-.63-.513l-.792-.135c-.883-.162-1.306-.567-1.306-1.243,0-.846.693-1.396,1.746-1.396.631,0,1.197.18,1.773.541l-.477.675c-.459-.297-.9-.432-1.359-.432-.469,0-.774.198-.774.522,0,.288.162.414.63.495l.802.153c.9.162,1.332.576,1.332,1.251,0,.828-.792,1.467-1.846,1.467-.774,0-1.458-.216-1.936-.612Z"/>
    <path d="M549.981,130.94v-2.53h-.9v-.81h.9v-1.243l1.017-.216v1.458h1.252v.81h-1.252v2.305c0,.441.171.612.631.612.197,0,.342-.027.612-.108v.855c-.262.081-.604.126-.874.126-.909,0-1.386-.432-1.386-1.26Z"/>
    <path d="M553.149,127.6h1.017v.972c.252-.684.685-1.053,1.242-1.053.172.009.288.027.441.09v.892c-.162-.063-.369-.108-.558-.108-.495,0-.9.279-1.126.748v2.971h-1.017v-4.51Z"/>
    <path d="M556.316,130.814c0-.81.667-1.323,1.729-1.323.424,0,.819.09,1.216.288v-.504c0-.594-.342-.9-1.035-.9-.378,0-.793.108-1.314.352l-.36-.738c.675-.306,1.27-.459,1.873-.459,1.179,0,1.845.594,1.845,1.639v2.944h-1.008v-.468c-.388.378-.819.549-1.342.549-.945,0-1.603-.567-1.603-1.377ZM558.198,131.471c.405,0,.756-.117,1.062-.378v-.729c-.324-.153-.648-.216-1.035-.216-.585,0-.954.243-.954.648,0,.414.359.675.927.675Z"/>
    <path d="M561.978,128.41h-.972v-.81h.972v-.774c0-.981.55-1.512,1.558-1.512.252,0,.505.027.676.081v.864c-.226-.045-.36-.063-.54-.063-.469,0-.676.207-.676.648v.756h1.216v.81h-1.216v3.7h-1.018v-3.7Z"/>
    <path d="M565.722,128.41h-.973v-.81h.973v-.774c0-.981.549-1.512,1.558-1.512.252,0,.504.027.675.081v.864c-.225-.045-.36-.063-.54-.063-.468,0-.675.207-.675.648v.756h1.215v.81h-1.215v3.7h-1.018v-3.7Z"/>
    <path d="M568.683,126.061c0-.342.279-.63.63-.63.343,0,.631.288.631.63s-.288.621-.631.621c-.351,0-.63-.279-.63-.621ZM568.8,127.6h1.018v4.51h-1.018v-4.51Z"/>
    <path d="M570.87,129.86c0-1.306.99-2.332,2.277-2.332.702,0,1.351.279,1.801.765l-.631.657c-.314-.351-.702-.531-1.134-.531-.729,0-1.297.63-1.297,1.44,0,.819.567,1.44,1.297,1.44.432,0,.819-.18,1.134-.522l.631.648c-.45.486-1.099.765-1.801.765-1.287,0-2.277-1.018-2.277-2.332Z"/>
  </g>
  <g>
    <line class="uuid-f7edd53a-5f8e-4fc2-8b0d-b3db76dd7d9c" x1="297.954" y1="161.002" x2="297.954" y2="229.791"/>
    <polygon points="294.214 162.097 297.954 155.62 301.694 162.097 294.214 162.097"/>
  </g>
  <g>
    <path class="uuid-a705e00d-d65b-4e8c-83ac-0c6ab4efd327" d="M144.664,135.685l.037,1.554-1.835.791.091,3.892,3.742,2.319,1.66-.716,1.494.926-2.754,1.187c-.02.008-.041.016-.063.023-.213.067-.465.032-.674-.098h0l-4.488-2.781c-.231-.144-.378-.38-.383-.621h0l-.11-4.669c-.005-.241.13-.448.355-.546h0l2.928-1.262ZM150.28,139.737c.021.014.04.029.061.043h0l1.434.889.036,1.522-1.495-.926-.036-1.528ZM147.816,135.731l1.637,1.014.037,1.555-1.637-1.015-.037-1.554Z"/>
    <path class="uuid-0bde5f0d-1955-4335-9fef-7e223f4ff8e0" d="M149.343,132.106l.043,1.814-2.306.993.124,5.266,5.062,3.137,2.23-.961,1.743,1.08-3.505,1.511c-.024.011-.049.02-.074.028-.248.078-.542.037-.786-.114h0l-5.933-3.678c-.27-.167-.441-.442-.446-.722h0l-.146-6.173c-.007-.28.151-.522.414-.637h0l3.581-1.544ZM152.896,131.541l5.449,3.377c.27.167.44.444.447.724h0l.133,5.635-.09.039-1.65-1.023-.103-4.372-4.315-2.673-.039-1.634.168-.073Z"/>
    <path class="uuid-34d00c06-aeb7-44e6-9301-d2258e13b6d5" d="M158.775,142.121l-6.612-4.097-.163-6.877,6.45-2.78,6.611,4.096.163,6.877-6.449,2.781ZM166.507,131.318l-7.608-4.716c-.281-.174-.615-.22-.901-.129-.028.009-.056.019-.083.031l-7.421,3.2c-.301.13-.481.406-.474.726l.187,7.914c.007.321.203.635.511.827l7.607,4.714c.28.173.614.22.899.13.028-.009.057-.02.085-.032l7.421-3.199c.301-.13.481-.407.473-.728l-.186-7.913c-.008-.321-.203-.636-.511-.827h0Z"/>
  </g>
  <g>
    <path d="M296.728,132.375h3.128c1.42,0,2.339.89,2.339,2.179,0,1.259-.919,2.149-2.339,2.149h-1.928v2.668h-1.2v-6.996ZM299.666,135.723c.85,0,1.319-.47,1.319-1.179,0-.69-.47-1.16-1.31-1.16h-1.749v2.339h1.739Z"/>
    <path d="M303.348,134.363h1.129v1.08c.28-.76.76-1.169,1.379-1.169.19.01.32.03.49.1v.989c-.18-.07-.41-.12-.62-.12-.549,0-.999.31-1.249.83v3.298h-1.129v-5.007Z"/>
    <path d="M306.817,136.872c0-1.479,1.08-2.589,2.519-2.589,1.43,0,2.509,1.109,2.509,2.589s-1.079,2.588-2.509,2.588c-1.438,0-2.519-1.109-2.519-2.588ZM310.735,136.872c0-.93-.59-1.629-1.399-1.629-.819,0-1.409.7-1.409,1.629,0,.939.59,1.629,1.409,1.629.81,0,1.399-.689,1.399-1.629Z"/>
    <path d="M313.927,136.792l-1.81-2.429h1.33l1.169,1.649,1.169-1.649h1.27l-1.829,2.458,1.909,2.549h-1.319l-1.259-1.749-1.26,1.749h-1.259l1.889-2.579Z"/>
    <path d="M317.807,141.489v-.979c.131.03.29.04.44.04.399,0,.64-.18.81-.569l.229-.56-1.889-5.057h1.249l1.279,3.708,1.39-3.708h1.239l-2.398,5.877c-.391.969-.85,1.319-1.789,1.319-.16,0-.36-.02-.561-.07Z"/>
  </g>
  <g>
    <path class="uuid-a705e00d-d65b-4e8c-83ac-0c6ab4efd327" d="M268.145,135.685l.037,1.554-1.835.791.091,3.892,3.742,2.319,1.66-.716,1.494.926-2.754,1.187c-.02.008-.041.016-.063.023-.213.067-.465.032-.674-.098h0l-4.488-2.781c-.231-.144-.378-.38-.383-.621h0l-.11-4.669c-.005-.241.13-.448.355-.546h0l2.928-1.262ZM273.76,139.737c.021.014.04.029.061.043h0l1.434.889.036,1.522-1.495-.926-.036-1.528ZM271.296,135.731l1.637,1.014.037,1.555-1.637-1.015-.037-1.554Z"/>
    <path class="uuid-0bde5f0d-1955-4335-9fef-7e223f4ff8e0" d="M272.824,132.106l.043,1.814-2.306.993.124,5.266,5.062,3.137,2.23-.961,1.743,1.08-3.505,1.511c-.024.011-.049.02-.074.028-.248.078-.542.037-.786-.114h0l-5.933-3.678c-.27-.167-.441-.442-.446-.722h0l-.146-6.173c-.007-.28.151-.522.414-.637h0l3.581-1.544ZM276.377,131.541l5.449,3.377c.27.167.44.444.447.724h0l.133,5.635-.09.039-1.65-1.023-.103-4.372-4.315-2.673-.039-1.634.168-.073Z"/>
    <path class="uuid-34d00c06-aeb7-44e6-9301-d2258e13b6d5" d="M282.256,142.121l-6.612-4.097-.163-6.877,6.45-2.78,6.611,4.096.163,6.877-6.449,2.781ZM289.988,131.318l-7.608-4.716c-.281-.174-.615-.22-.901-.129-.028.009-.056.019-.083.031l-7.421,3.2c-.301.13-.481.406-.474.726l.187,7.914c.007.321.203.635.511.827l7.607,4.714c.28.173.614.22.899.13.028-.009.057-.02.085-.032l7.421-3.199c.301-.13.481-.407.473-.728l-.186-7.913c-.008-.321-.203-.636-.511-.827h0Z"/>
  </g>
  <g>
    <path d="M421.747,132.375h3.128c1.42,0,2.34.89,2.34,2.179,0,1.259-.92,2.149-2.34,2.149h-1.928v2.668h-1.2v-6.996ZM424.686,135.723c.85,0,1.319-.47,1.319-1.179,0-.69-.47-1.16-1.31-1.16h-1.748v2.339h1.738Z"/>
    <path d="M428.367,134.363h1.129v1.08c.28-.76.76-1.169,1.379-1.169.19.01.32.03.49.1v.989c-.18-.07-.41-.12-.619-.12-.55,0-1,.31-1.25.83v3.298h-1.129v-5.007Z"/>
    <path d="M431.838,136.872c0-1.479,1.079-2.589,2.518-2.589,1.43,0,2.51,1.109,2.51,2.589s-1.08,2.588-2.51,2.588c-1.438,0-2.518-1.109-2.518-2.588ZM435.756,136.872c0-.93-.59-1.629-1.4-1.629-.818,0-1.408.7-1.408,1.629,0,.939.59,1.629,1.408,1.629.811,0,1.4-.689,1.4-1.629Z"/>
    <path d="M438.946,136.792l-1.81-2.429h1.33l1.17,1.649,1.168-1.649h1.27l-1.828,2.458,1.908,2.549h-1.318l-1.26-1.749-1.26,1.749h-1.259l1.889-2.579Z"/>
    <path d="M442.826,141.489v-.979c.131.03.291.04.44.04.399,0,.64-.18.81-.569l.23-.56-1.89-5.057h1.249l1.279,3.708,1.39-3.708h1.239l-2.398,5.877c-.391.969-.85,1.319-1.789,1.319-.16,0-.359-.02-.561-.07Z"/>
  </g>
  <g>
    <path class="uuid-a705e00d-d65b-4e8c-83ac-0c6ab4efd327" d="M393.165,135.685l.037,1.554-1.835.791.091,3.892,3.742,2.319,1.66-.716,1.494.926-2.754,1.187c-.02.008-.041.016-.063.023-.213.067-.465.032-.674-.098h0l-4.488-2.781c-.231-.144-.378-.38-.383-.621h0l-.11-4.669c-.005-.241.13-.448.355-.546h0l2.928-1.262ZM398.78,139.737c.021.014.04.029.061.043h0l1.434.889.036,1.522-1.495-.926-.036-1.528ZM396.316,135.731l1.637,1.014.037,1.555-1.637-1.015-.037-1.554Z"/>
    <path class="uuid-0bde5f0d-1955-4335-9fef-7e223f4ff8e0" d="M397.844,132.106l.043,1.814-2.306.993.124,5.266,5.062,3.137,2.23-.961,1.743,1.08-3.505,1.511c-.024.011-.049.02-.074.028-.248.078-.542.037-.786-.114h0l-5.933-3.678c-.27-.167-.441-.442-.446-.722h0l-.146-6.173c-.007-.28.151-.522.414-.637h0l3.581-1.544ZM401.397,131.541l5.449,3.377c.27.167.44.444.447.724h0l.133,5.635-.09.039-1.65-1.023-.103-4.372-4.315-2.673-.039-1.634.168-.073Z"/>
    <path class="uuid-34d00c06-aeb7-44e6-9301-d2258e13b6d5" d="M407.275,142.121l-6.612-4.097-.163-6.877,6.45-2.78,6.611,4.096.163,6.877-6.449,2.781ZM415.007,131.318l-7.608-4.716c-.281-.174-.615-.22-.901-.129-.028.009-.056.019-.083.031l-7.421,3.2c-.301.13-.481.406-.474.726l.187,7.914c.007.321.203.635.511.827l7.607,4.714c.28.173.614.22.899.13.028-.009.057-.02.085-.032l7.421-3.199c.301-.13.481-.407.473-.728l-.186-7.913c-.008-.321-.203-.636-.511-.827h0Z"/>
  </g>
  <rect class="uuid-03af0fa7-311f-4975-90e4-1e22ee9ed29c" x="102.92" y="100.982" width="3.35" height="8.543"/>
  <line class="uuid-f7edd53a-5f8e-4fc2-8b0d-b3db76dd7d9c" x1="115.263" y1="114.717" x2="94.04" y2="95.728"/>
</svg>