<?xml version="1.0" encoding="UTF-8"?>
<svg id="uuid-43e15a05-406f-436b-a92a-af7687070d17" data-name="Layer 1" xmlns="http://www.w3.org/2000/svg" width="595.276" height="222.666" viewBox="0 0 595.276 222.666">
  <defs>
    <style>
      .uuid-496cc71e-5b4d-4b43-af50-d9387fa8c61a {
        fill: #e6e6e6;
      }

      .uuid-d394a768-8ceb-4ee2-b16f-260c76e69084 {
        stroke: #a1c2e7;
      }

      .uuid-d394a768-8ceb-4ee2-b16f-260c76e69084, .uuid-fd4bcea4-8a5c-47ef-bd2f-a74709637b1d {
        fill: #fff;
      }

      .uuid-d394a768-8ceb-4ee2-b16f-260c76e69084, .uuid-b5dfafaa-ff16-410b-8e9b-c04e1dbc7b05 {
        stroke-miterlimit: 10;
      }

      .uuid-12809f34-a53d-4d38-94a5-84d207b92921 {
        fill: #c04589;
      }

      .uuid-fd284495-129a-49c4-b425-6ebe88d1099e {
        fill: #06c;
      }

      .uuid-bd1b0096-1136-4df9-b4a3-c2eb831de604 {
        fill: #ac6199;
      }

      .uuid-b5dfafaa-ff16-410b-8e9b-c04e1dbc7b05 {
        fill: none;
        stroke: #06c;
      }

      .uuid-3b66308c-d5de-4252-afbe-234a18076536 {
        fill: #953984;
      }
    </style>
  </defs>
  <rect class="uuid-fd4bcea4-8a5c-47ef-bd2f-a74709637b1d" x="-1.649" y="-.068" width="598.574" height="222.802"/>
  <g>
    <rect class="uuid-496cc71e-5b4d-4b43-af50-d9387fa8c61a" x="82.901" y="17.061" width="122.608" height="134.015"/>
    <polygon class="uuid-496cc71e-5b4d-4b43-af50-d9387fa8c61a" points="402.107 17.061 398.267 17.061 268.037 17.061 268.037 151.076 398.267 151.076 402.107 151.076 512.374 151.076 512.374 17.061 402.107 17.061"/>
    <rect class="uuid-fd284495-129a-49c4-b425-6ebe88d1099e" x="101.223" y="46.597" width="85.964" height="26.741"/>
    <rect class="uuid-d394a768-8ceb-4ee2-b16f-260c76e69084" x="101.223" y="101.759" width="85.964" height="26.741"/>
    <rect class="uuid-d394a768-8ceb-4ee2-b16f-260c76e69084" x="151.607" y="79.146" width="49.656" height="16.219"/>
    <line class="uuid-b5dfafaa-ff16-410b-8e9b-c04e1dbc7b05" x1="144.866" y1="73.515" x2="144.866" y2="101.876"/>
    <line class="uuid-b5dfafaa-ff16-410b-8e9b-c04e1dbc7b05" x1="187.852" y1="115.13" x2="285.948" y2="115.13"/>
    <rect class="uuid-fd284495-129a-49c4-b425-6ebe88d1099e" x="285.088" y="46.597" width="85.964" height="26.741"/>
    <line class="uuid-b5dfafaa-ff16-410b-8e9b-c04e1dbc7b05" x1="328.731" y1="73.515" x2="328.731" y2="101.876"/>
    <rect class="uuid-fd284495-129a-49c4-b425-6ebe88d1099e" x="409.36" y="46.597" width="85.964" height="26.741"/>
    <polygon class="uuid-d394a768-8ceb-4ee2-b16f-260c76e69084" points="424.017 101.759 409.36 101.759 285.088 101.759 285.088 128.5 409.36 128.5 424.017 128.5 495.323 128.5 495.323 101.759 424.017 101.759"/>
    <line class="uuid-b5dfafaa-ff16-410b-8e9b-c04e1dbc7b05" x1="453.003" y1="73.515" x2="453.003" y2="101.876"/>
    <g>
      <path d="M127.26,116.641l2.579-3.208-2.559.02v-.99h3.948v.83l-2.588,3.218,2.648-.01v.969h-4.028v-.83Z"/>
      <path d="M133.01,116.171v-2.809h-1v-.899h1v-1.379l1.129-.24v1.619h1.389v.899h-1.389v2.559c0,.49.19.68.7.68.22,0,.379-.03.68-.12v.949c-.29.09-.67.14-.97.14-1.009,0-1.539-.48-1.539-1.399Z"/>
      <path d="M136.49,115.761v-3.298h1.139v2.968c0,.74.43,1.209,1.1,1.209.45,0,.83-.2,1.089-.6v-3.578h1.129v5.007h-1.129v-.81c-.38.59-.919.89-1.589.89-1.019,0-1.739-.74-1.739-1.789Z"/>
      <path d="M142.35,112.463h1.129v.82c.38-.59.929-.9,1.579-.9,1.029,0,1.749.73,1.749,1.789v3.298h-1.14v-2.979c0-.729-.43-1.199-1.099-1.199-.46,0-.83.21-1.089.61v3.568h-1.129v-5.007Z"/>
      <path d="M148.17,112.463h1.129v.82c.38-.59.929-.9,1.579-.9,1.029,0,1.749.73,1.749,1.789v3.298h-1.14v-2.979c0-.729-.43-1.199-1.099-1.199-.46,0-.83.21-1.089.61v3.568h-1.129v-5.007Z"/>
      <path d="M153.76,114.972c0-1.469,1.06-2.589,2.438-2.589,1.37,0,2.369,1.089,2.369,2.589v.27h-3.698c.11.81.72,1.399,1.499,1.399.47,0,.91-.18,1.189-.47l.74.669c-.61.51-1.219.73-1.979.73-1.439,0-2.559-1.129-2.559-2.599ZM157.498,114.542c-.12-.73-.64-1.239-1.309-1.239-.68,0-1.179.49-1.309,1.239h2.618Z"/>
      <path d="M159.72,110.304l1.129-.2v7.366h-1.129v-7.166Z"/>
    </g>
    <g>
      <path d="M148.364,184.882l.52-.704c.72.591,1.24.815,1.887.815.735,0,1.247-.376,1.247-.896,0-.456-.271-.671-1.015-.799l-1.032-.176c-.967-.176-1.439-.656-1.439-1.423,0-1.015.808-1.687,2.063-1.687.839,0,1.607.248,2.247.72l-.488.72c-.56-.424-1.159-.648-1.791-.648-.671,0-1.119.344-1.119.8,0,.408.256.616.863.711l1,.168c1.127.2,1.655.696,1.655,1.543,0,1.031-.912,1.759-2.247,1.759-.879,0-1.639-.304-2.351-.903Z"/>
      <path d="M153.724,183.699c0-1.175.847-2.071,1.951-2.071,1.095,0,1.895.872,1.895,2.071v.216h-2.958c.088.648.576,1.12,1.2,1.12.375,0,.728-.144.951-.376l.592.536c-.488.408-.976.584-1.583.584-1.151,0-2.047-.904-2.047-2.079ZM156.714,183.355c-.096-.583-.512-.991-1.047-.991-.544,0-.944.392-1.047.991h2.095Z"/>
      <path d="M158.324,183.699c0-1.159.879-2.071,2.023-2.071.624,0,1.199.248,1.599.68l-.56.583c-.28-.312-.624-.472-1.007-.472-.647,0-1.151.56-1.151,1.279,0,.728.504,1.279,1.151,1.279.384,0,.728-.16,1.007-.464l.56.576c-.399.432-.975.679-1.599.679-1.144,0-2.023-.903-2.023-2.071Z"/>
      <path d="M162.66,184.331v-2.639h.912v2.375c0,.591.344.967.879.967.36,0,.664-.16.872-.48v-2.862h.903v4.006h-.903v-.647c-.304.472-.736.711-1.271.711-.815,0-1.391-.592-1.391-1.431Z"/>
      <path d="M167.348,181.692h.904v.864c.224-.608.607-.936,1.103-.936.152.008.256.024.392.08v.792c-.144-.056-.328-.096-.496-.096-.439,0-.799.248-.999.664v2.639h-.904v-4.006Z"/>
      <path d="M170.124,183.699c0-1.175.847-2.071,1.951-2.071,1.096,0,1.895.872,1.895,2.071v.216h-2.958c.088.648.576,1.12,1.199,1.12.376,0,.728-.144.952-.376l.592.536c-.488.408-.976.584-1.583.584-1.151,0-2.047-.904-2.047-2.079ZM173.114,183.355c-.096-.583-.512-.991-1.047-.991-.544,0-.943.392-1.047.991h2.095Z"/>
      <path d="M177.187,184.658v-2.247h-.799v-.72h.799v-1.104l.904-.192v1.295h1.111v.72h-1.111v2.047c0,.392.152.543.56.543.176,0,.304-.024.544-.096v.759c-.232.072-.536.112-.776.112-.808,0-1.231-.384-1.231-1.12Z"/>
      <path d="M179.972,184.331v-2.639h.912v2.375c0,.591.344.967.879.967.36,0,.664-.16.872-.48v-2.862h.903v4.006h-.903v-.647c-.304.472-.736.711-1.271.711-.815,0-1.391-.592-1.391-1.431Z"/>
      <path d="M184.659,181.692h.904v.656c.304-.472.743-.72,1.263-.72.824,0,1.399.583,1.399,1.431v2.639h-.911v-2.383c0-.583-.344-.959-.88-.959-.368,0-.664.168-.871.488v2.854h-.904v-4.006Z"/>
      <path d="M189.315,181.692h.904v.656c.304-.472.744-.72,1.263-.72.823,0,1.399.583,1.399,1.431v2.639h-.912v-2.383c0-.583-.344-.959-.879-.959-.368,0-.664.168-.872.488v2.854h-.904v-4.006Z"/>
      <path d="M193.788,183.699c0-1.175.847-2.071,1.951-2.071,1.095,0,1.895.872,1.895,2.071v.216h-2.958c.088.648.576,1.12,1.2,1.12.375,0,.728-.144.951-.376l.592.536c-.488.408-.976.584-1.583.584-1.151,0-2.047-.904-2.047-2.079ZM196.778,183.355c-.096-.583-.512-.991-1.047-.991-.544,0-.944.392-1.047.991h2.095Z"/>
      <path d="M198.555,179.965l.904-.16v5.893h-.904v-5.733Z"/>
    </g>
    <g>
      <path d="M336.155,184.882l.52-.704c.72.591,1.24.815,1.888.815.735,0,1.247-.376,1.247-.896,0-.456-.271-.671-1.016-.799l-1.031-.176c-.968-.176-1.439-.656-1.439-1.423,0-1.015.808-1.687,2.063-1.687.839,0,1.606.248,2.246.72l-.487.72c-.56-.424-1.159-.648-1.791-.648-.672,0-1.119.344-1.119.8,0,.408.256.616.863.711l.999.168c1.128.2,1.655.696,1.655,1.543,0,1.031-.911,1.759-2.247,1.759-.879,0-1.639-.304-2.351-.903Z"/>
      <path d="M341.516,183.699c0-1.175.847-2.071,1.95-2.071,1.096,0,1.896.872,1.896,2.071v.216h-2.959c.088.648.576,1.12,1.2,1.12.375,0,.728-.144.951-.376l.592.536c-.488.408-.976.584-1.583.584-1.151,0-2.047-.904-2.047-2.079ZM344.506,183.355c-.097-.583-.512-.991-1.048-.991-.544,0-.943.392-1.047.991h2.095Z"/>
      <path d="M346.115,183.699c0-1.159.88-2.071,2.023-2.071.623,0,1.199.248,1.599.68l-.56.583c-.28-.312-.624-.472-1.008-.472-.647,0-1.151.56-1.151,1.279,0,.728.504,1.279,1.151,1.279.384,0,.728-.16,1.008-.464l.56.576c-.399.432-.976.679-1.599.679-1.144,0-2.023-.903-2.023-2.071Z"/>
      <path d="M350.451,184.331v-2.639h.912v2.375c0,.591.344.967.879.967.36,0,.664-.16.872-.48v-2.862h.903v4.006h-.903v-.647c-.305.472-.736.711-1.271.711-.815,0-1.392-.592-1.392-1.431Z"/>
      <path d="M355.139,181.692h.904v.864c.224-.608.607-.936,1.103-.936.152.008.256.024.393.08v.792c-.145-.056-.328-.096-.496-.096-.439,0-.8.248-.999.664v2.639h-.904v-4.006Z"/>
      <path d="M357.915,183.699c0-1.175.848-2.071,1.951-2.071,1.096,0,1.895.872,1.895,2.071v.216h-2.958c.088.648.575,1.12,1.199,1.12.376,0,.728-.144.951-.376l.592.536c-.487.408-.976.584-1.583.584-1.151,0-2.047-.904-2.047-2.079ZM360.905,183.355c-.096-.583-.512-.991-1.047-.991-.544,0-.943.392-1.048.991h2.095Z"/>
      <path d="M364.979,184.658v-2.247h-.8v-.72h.8v-1.104l.903-.192v1.295h1.111v.72h-1.111v2.047c0,.392.152.543.56.543.176,0,.304-.024.544-.096v.759c-.231.072-.535.112-.775.112-.808,0-1.231-.384-1.231-1.12Z"/>
      <path d="M367.763,184.331v-2.639h.912v2.375c0,.591.344.967.879.967.36,0,.664-.16.872-.48v-2.862h.903v4.006h-.903v-.647c-.305.472-.736.711-1.271.711-.815,0-1.392-.592-1.392-1.431Z"/>
      <path d="M372.45,181.692h.904v.656c.304-.472.743-.72,1.263-.72.824,0,1.399.583,1.399,1.431v2.639h-.911v-2.383c0-.583-.344-.959-.88-.959-.368,0-.664.168-.871.488v2.854h-.904v-4.006Z"/>
      <path d="M377.106,181.692h.903v.656c.304-.472.744-.72,1.264-.72.823,0,1.399.583,1.399,1.431v2.639h-.912v-2.383c0-.583-.344-.959-.879-.959-.368,0-.664.168-.872.488v2.854h-.903v-4.006Z"/>
      <path d="M381.579,183.699c0-1.175.847-2.071,1.95-2.071,1.096,0,1.896.872,1.896,2.071v.216h-2.959c.088.648.576,1.12,1.2,1.12.375,0,.728-.144.951-.376l.592.536c-.488.408-.976.584-1.583.584-1.151,0-2.047-.904-2.047-2.079ZM384.569,183.355c-.097-.583-.512-.991-1.048-.991-.544,0-.943.392-1.047.991h2.095Z"/>
      <path d="M386.347,179.965l.903-.16v5.893h-.903v-5.733Z"/>
    </g>
    <g>
      <path d="M211.39,110.185l.52-.704c.72.591,1.24.815,1.887.815.735,0,1.247-.376,1.247-.896,0-.456-.271-.671-1.015-.799l-1.032-.176c-.967-.176-1.439-.656-1.439-1.423,0-1.015.808-1.687,2.063-1.687.839,0,1.607.248,2.247.72l-.488.72c-.56-.424-1.159-.648-1.791-.648-.671,0-1.119.344-1.119.8,0,.408.256.616.863.711l1,.168c1.127.2,1.655.696,1.655,1.543,0,1.031-.912,1.759-2.247,1.759-.879,0-1.639-.304-2.351-.903Z"/>
      <path d="M216.75,109.001c0-1.175.847-2.071,1.951-2.071,1.095,0,1.895.872,1.895,2.071v.216h-2.958c.088.648.576,1.12,1.2,1.12.375,0,.728-.144.951-.376l.592.536c-.488.408-.976.584-1.583.584-1.151,0-2.047-.904-2.047-2.079ZM219.74,108.658c-.096-.583-.512-.991-1.047-.991-.544,0-.944.392-1.047.991h2.095Z"/>
      <path d="M221.35,109.001c0-1.159.879-2.071,2.023-2.071.624,0,1.199.248,1.599.68l-.56.583c-.28-.312-.624-.472-1.007-.472-.647,0-1.151.56-1.151,1.279,0,.728.504,1.279,1.151,1.279.384,0,.728-.16,1.007-.464l.56.576c-.399.432-.975.679-1.599.679-1.144,0-2.023-.903-2.023-2.071Z"/>
      <path d="M225.686,109.633v-2.639h.912v2.375c0,.591.344.967.879.967.36,0,.664-.16.872-.48v-2.862h.903v4.006h-.903v-.647c-.304.472-.736.711-1.271.711-.815,0-1.391-.592-1.391-1.431Z"/>
      <path d="M230.374,106.995h.904v.864c.224-.608.607-.936,1.103-.936.152.008.256.024.392.08v.792c-.144-.056-.328-.096-.496-.096-.439,0-.799.248-.999.664v2.639h-.904v-4.006Z"/>
      <path d="M233.15,109.001c0-1.175.847-2.071,1.951-2.071,1.096,0,1.895.872,1.895,2.071v.216h-2.958c.088.648.576,1.12,1.199,1.12.376,0,.728-.144.952-.376l.592.536c-.488.408-.976.584-1.583.584-1.151,0-2.047-.904-2.047-2.079ZM236.14,108.658c-.096-.583-.512-.991-1.047-.991-.544,0-.943.392-1.047.991h2.095Z"/>
      <path d="M240.213,109.961v-2.247h-.799v-.72h.799v-1.104l.904-.192v1.295h1.111v.72h-1.111v2.047c0,.392.152.543.56.543.176,0,.304-.024.544-.096v.759c-.232.072-.536.112-.776.112-.808,0-1.231-.384-1.231-1.12Z"/>
      <path d="M242.998,109.633v-2.639h.912v2.375c0,.591.344.967.879.967.36,0,.664-.16.872-.48v-2.862h.903v4.006h-.903v-.647c-.304.472-.736.711-1.271.711-.815,0-1.391-.592-1.391-1.431Z"/>
      <path d="M247.685,106.995h.904v.656c.304-.472.743-.72,1.263-.72.824,0,1.399.583,1.399,1.431v2.639h-.911v-2.383c0-.583-.344-.959-.88-.959-.368,0-.664.168-.871.488v2.854h-.904v-4.006Z"/>
      <path d="M252.341,106.995h.904v.656c.304-.472.744-.72,1.263-.72.823,0,1.399.583,1.399,1.431v2.639h-.912v-2.383c0-.583-.344-.959-.879-.959-.368,0-.664.168-.872.488v2.854h-.904v-4.006Z"/>
      <path d="M256.813,109.001c0-1.175.847-2.071,1.951-2.071,1.095,0,1.895.872,1.895,2.071v.216h-2.958c.088.648.576,1.12,1.2,1.12.375,0,.728-.144.951-.376l.592.536c-.488.408-.976.584-1.583.584-1.151,0-2.047-.904-2.047-2.079ZM259.804,108.658c-.096-.583-.512-.991-1.047-.991-.544,0-.944.392-1.047.991h2.095Z"/>
      <path d="M261.581,105.268l.904-.16v5.893h-.904v-5.733Z"/>
    </g>
    <g>
      <path d="M158.292,83.31c0-.38.31-.7.7-.7.38,0,.7.32.7.7s-.32.689-.7.689c-.39,0-.7-.31-.7-.689ZM158.422,85.019h1.129v5.007h-1.129v-5.007Z"/>
      <path d="M160.502,89.446l.53-.75c.659.41,1.099.569,1.609.569.6,0,1.009-.28,1.009-.68,0-.31-.209-.47-.699-.569l-.88-.15c-.979-.18-1.449-.63-1.449-1.379,0-.939.77-1.549,1.939-1.549.7,0,1.33.2,1.969.6l-.53.75c-.51-.33-1-.48-1.509-.48-.52,0-.859.22-.859.58,0,.32.18.46.699.55l.89.17c1,.18,1.479.64,1.479,1.389,0,.919-.88,1.629-2.049,1.629-.86,0-1.619-.24-2.149-.68Z"/>
      <path d="M166.262,88.727v-2.809h-1v-.899h1v-1.379l1.129-.24v1.619h1.389v.899h-1.389v2.559c0,.49.19.68.7.68.22,0,.379-.03.68-.12v.949c-.29.09-.67.14-.97.14-1.009,0-1.539-.48-1.539-1.399Z"/>
      <path d="M169.642,83.31c0-.38.31-.7.7-.7.38,0,.7.32.7.7s-.32.689-.7.689c-.39,0-.7-.31-.7-.689ZM169.771,85.019h1.129v5.007h-1.129v-5.007Z"/>
      <path d="M172.072,87.527c0-1.479,1.08-2.589,2.519-2.589,1.429,0,2.509,1.109,2.509,2.589s-1.08,2.588-2.509,2.588c-1.439,0-2.519-1.109-2.519-2.588ZM175.99,87.527c0-.93-.59-1.629-1.399-1.629-.819,0-1.409.7-1.409,1.629,0,.939.59,1.629,1.409,1.629.81,0,1.399-.689,1.399-1.629Z"/>
      <path d="M178.231,86.708h3.488v.959h-3.488v-.959Z"/>
      <path d="M182.861,87.527c0-1.449,1.1-2.589,2.529-2.589.779,0,1.499.31,1.999.85l-.699.729c-.35-.39-.78-.589-1.26-.589-.809,0-1.439.7-1.439,1.599,0,.909.63,1.599,1.439,1.599.48,0,.91-.2,1.26-.58l.699.719c-.5.54-1.219.85-1.999.85-1.429,0-2.529-1.129-2.529-2.588Z"/>
      <path d="M188.321,85.019h1.129v.82c.38-.59.929-.9,1.579-.9,1.029,0,1.749.73,1.749,1.789v3.298h-1.14v-2.979c0-.729-.43-1.199-1.099-1.199-.46,0-.83.21-1.089.61v3.568h-1.129v-5.007Z"/>
      <path d="M194.001,83.31c0-.38.31-.7.7-.7.38,0,.7.32.7.7s-.32.689-.7.689c-.39,0-.7-.31-.7-.689ZM194.131,85.019h1.129v5.007h-1.129v-5.007Z"/>
    </g>
    <rect class="uuid-d394a768-8ceb-4ee2-b16f-260c76e69084" x="273.403" y="79.146" width="49.656" height="16.219"/>
    <g>
      <path d="M280.088,83.31c0-.38.31-.7.7-.7.38,0,.7.32.7.7s-.32.689-.7.689c-.39,0-.7-.31-.7-.689ZM280.218,85.019h1.129v5.007h-1.129v-5.007Z"/>
      <path d="M282.298,89.446l.53-.75c.659.41,1.099.569,1.609.569.6,0,1.009-.28,1.009-.68,0-.31-.209-.47-.699-.569l-.88-.15c-.979-.18-1.449-.63-1.449-1.379,0-.939.77-1.549,1.939-1.549.7,0,1.33.2,1.969.6l-.53.75c-.51-.33-1-.48-1.509-.48-.52,0-.859.22-.859.58,0,.32.18.46.699.55l.89.17c1,.18,1.479.64,1.479,1.389,0,.919-.88,1.629-2.049,1.629-.86,0-1.619-.24-2.149-.68Z"/>
      <path d="M288.058,88.727v-2.809h-1v-.899h1v-1.379l1.129-.24v1.619h1.389v.899h-1.389v2.559c0,.49.19.68.7.68.22,0,.379-.03.68-.12v.949c-.29.09-.67.14-.97.14-1.009,0-1.539-.48-1.539-1.399Z"/>
      <path d="M291.438,83.31c0-.38.31-.7.7-.7.38,0,.7.32.7.7s-.32.689-.7.689c-.39,0-.7-.31-.7-.689ZM291.567,85.019h1.129v5.007h-1.129v-5.007Z"/>
      <path d="M293.868,87.527c0-1.479,1.08-2.589,2.519-2.589,1.429,0,2.509,1.109,2.509,2.589s-1.08,2.588-2.509,2.588c-1.439,0-2.519-1.109-2.519-2.588ZM297.786,87.527c0-.93-.59-1.629-1.399-1.629-.819,0-1.409.7-1.409,1.629,0,.939.59,1.629,1.409,1.629.81,0,1.399-.689,1.399-1.629Z"/>
      <path d="M300.027,86.708h3.488v.959h-3.488v-.959Z"/>
      <path d="M304.657,87.527c0-1.449,1.1-2.589,2.528-2.589.779,0,1.499.31,1.999.85l-.699.729c-.351-.39-.78-.589-1.26-.589-.81,0-1.439.7-1.439,1.599,0,.909.63,1.599,1.439,1.599.479,0,.909-.2,1.26-.58l.699.719c-.5.54-1.22.85-1.999.85-1.429,0-2.528-1.129-2.528-2.588Z"/>
      <path d="M310.117,85.019h1.129v.82c.38-.59.93-.9,1.579-.9,1.029,0,1.749.73,1.749,1.789v3.298h-1.14v-2.979c0-.729-.43-1.199-1.099-1.199-.46,0-.83.21-1.09.61v3.568h-1.129v-5.007Z"/>
      <path d="M315.797,83.31c0-.38.31-.7.699-.7.38,0,.7.32.7.7s-.32.689-.7.689c-.39,0-.699-.31-.699-.689ZM315.927,85.019h1.129v5.007h-1.129v-5.007Z"/>
    </g>
    <rect class="uuid-d394a768-8ceb-4ee2-b16f-260c76e69084" x="212.373" y="173.588" width="105.118" height="32.017"/>
    <g>
      <path d="M260.113,179.37h1.389l2.708,6.996h-1.29l-.719-1.959h-2.869l-.72,1.959h-1.249l2.749-6.996ZM261.872,183.468l-1.099-2.958-1.089,2.958h2.188Z"/>
      <path d="M264.974,181.359h1.109v.709c.36-.47.919-.75,1.559-.75,1.269,0,2.259,1.129,2.259,2.549,0,1.429-1.02,2.548-2.329,2.548-.59,0-1.109-.22-1.469-.64v2.679h-1.129v-7.096ZM268.792,183.868c0-.91-.64-1.599-1.489-1.599-.5,0-.91.2-1.199.56v2.089c.29.35.72.56,1.199.56.859,0,1.489-.689,1.489-1.609Z"/>
      <path d="M271.084,181.359h1.109v.709c.36-.47.919-.75,1.559-.75,1.27,0,2.259,1.129,2.259,2.549,0,1.429-1.02,2.548-2.329,2.548-.59,0-1.109-.22-1.469-.64v2.679h-1.129v-7.096ZM274.902,183.868c0-.91-.64-1.599-1.489-1.599-.5,0-.91.2-1.199.56v2.089c.29.35.72.56,1.199.56.859,0,1.489-.689,1.489-1.609Z"/>
      <path d="M281.553,179.37h1.389l2.708,6.996h-1.29l-.719-1.959h-2.869l-.72,1.959h-1.249l2.749-6.996ZM283.312,183.468l-1.099-2.958-1.089,2.958h2.188Z"/>
      <path d="M257.674,191.37h1.22l1.039,5.127,1.5-5.127h1.139l1.499,5.117,1.04-5.117h1.179l-1.529,6.996h-1.25l-1.529-5.287-1.529,5.287h-1.25l-1.529-6.996Z"/>
      <path d="M266.705,196.927c0-.899.739-1.469,1.919-1.469.47,0,.909.1,1.349.32v-.56c0-.66-.38-1-1.149-1-.42,0-.879.12-1.459.39l-.4-.82c.75-.34,1.409-.51,2.079-.51,1.31,0,2.049.66,2.049,1.819v3.268h-1.119v-.52c-.43.419-.91.609-1.489.609-1.049,0-1.779-.629-1.779-1.529ZM268.793,197.657c.45,0,.839-.13,1.179-.42v-.81c-.36-.17-.72-.24-1.149-.24-.649,0-1.06.27-1.06.72,0,.459.4.75,1.03.75Z"/>
      <path d="M272.164,200.485v-.979c.13.03.29.04.44.04.4,0,.64-.18.81-.569l.23-.56-1.889-5.057h1.25l1.279,3.708,1.389-3.708h1.239l-2.398,5.877c-.39.969-.85,1.319-1.789,1.319-.16,0-.36-.02-.56-.07Z"/>
      <path d="M277.734,193.359h1.109v.709c.36-.47.919-.75,1.559-.75,1.27,0,2.259,1.129,2.259,2.549,0,1.429-1.02,2.548-2.329,2.548-.59,0-1.109-.22-1.469-.64v2.679h-1.129v-7.096ZM281.552,195.868c0-.91-.64-1.599-1.489-1.599-.5,0-.91.2-1.199.56v2.089c.29.35.72.56,1.199.56.859,0,1.489-.689,1.489-1.609Z"/>
      <path d="M283.614,195.868c0-1.479,1.08-2.589,2.519-2.589,1.429,0,2.509,1.109,2.509,2.589s-1.08,2.588-2.509,2.588c-1.439,0-2.519-1.109-2.519-2.588ZM287.532,195.868c0-.93-.59-1.629-1.399-1.629-.819,0-1.409.7-1.409,1.629,0,.939.59,1.629,1.409,1.629.81,0,1.399-.689,1.399-1.629Z"/>
      <path d="M289.674,191.65c0-.38.31-.7.7-.7.38,0,.7.32.7.7s-.32.689-.7.689c-.39,0-.7-.31-.7-.689ZM289.804,193.359h1.129v5.007h-1.129v-5.007Z"/>
      <path d="M292.334,193.359h1.129v.82c.38-.59.929-.9,1.579-.9,1.029,0,1.749.73,1.749,1.789v3.298h-1.14v-2.979c0-.729-.43-1.199-1.099-1.199-.46,0-.83.21-1.089.61v3.568h-1.129v-5.007Z"/>
      <path d="M298.624,197.067v-2.809h-1v-.899h1v-1.379l1.129-.24v1.619h1.389v.899h-1.389v2.559c0,.49.189.68.699.68.22,0,.38-.03.68-.12v.949c-.29.09-.67.14-.97.14-1.009,0-1.539-.48-1.539-1.399Z"/>
    </g>
    <g>
      <path d="M102.003,27.749h1.619l3.108,4.238-.03-4.238h1.619v6.996h-1.519l-3.208-4.377.03,4.377h-1.619v-6.996Z"/>
      <path d="M109.503,32.176c0-1.52,1.159-2.669,2.688-2.669s2.688,1.149,2.688,2.669-1.159,2.668-2.688,2.668-2.688-1.149-2.688-2.668ZM113.301,32.176c0-.77-.46-1.319-1.109-1.319s-1.109.549-1.109,1.319.459,1.319,1.109,1.319,1.109-.549,1.109-1.319Z"/>
      <path d="M115.683,32.156c0-1.449,1.059-2.599,2.398-2.599.54,0,1.03.22,1.379.62v-2.549l1.619-.25v7.366h-1.599v-.669c-.34.43-.91.699-1.519.699-1.27,0-2.279-1.169-2.279-2.618ZM119.461,33.025v-1.739c-.25-.26-.59-.4-.959-.4-.709,0-1.229.54-1.229,1.279,0,.729.53,1.27,1.229,1.27.39,0,.709-.14.959-.41Z"/>
      <path d="M122.113,32.176c0-1.509,1.119-2.669,2.599-2.669,1.489,0,2.539,1.129,2.539,2.729v.35h-3.548c.15.58.62.969,1.209.969.43,0,.79-.15,1.02-.43l1.069.89c-.669.589-1.299.83-2.169.83-1.519,0-2.718-1.169-2.718-2.668ZM125.75,31.667c-.14-.55-.529-.9-1.049-.9-.51,0-.87.33-1,.9h2.049Z"/>
      <path d="M131.482,29.348l-1.379.57v-1.359l1.949-.81h.97v6.996h-1.539v-5.397Z"/>
    </g>
    <g>
      <path class="uuid-fd4bcea4-8a5c-47ef-bd2f-a74709637b1d" d="M132.809,55.657h1.389l2.708,6.996h-1.29l-.719-1.959h-2.869l-.72,1.959h-1.249l2.749-6.996ZM134.567,59.754l-1.099-2.958-1.089,2.958h2.188Z"/>
      <path class="uuid-fd4bcea4-8a5c-47ef-bd2f-a74709637b1d" d="M137.669,57.646h1.109v.709c.36-.47.919-.75,1.559-.75,1.27,0,2.259,1.129,2.259,2.549,0,1.429-1.02,2.548-2.329,2.548-.59,0-1.109-.22-1.469-.64v2.679h-1.129v-7.096ZM141.487,60.154c0-.91-.64-1.599-1.489-1.599-.5,0-.91.2-1.199.56v2.089c.29.35.72.56,1.199.56.859,0,1.489-.689,1.489-1.609Z"/>
      <path class="uuid-fd4bcea4-8a5c-47ef-bd2f-a74709637b1d" d="M143.78,57.646h1.109v.709c.36-.47.919-.75,1.559-.75,1.27,0,2.259,1.129,2.259,2.549,0,1.429-1.02,2.548-2.329,2.548-.59,0-1.109-.22-1.469-.64v2.679h-1.129v-7.096ZM147.598,60.154c0-.91-.64-1.599-1.489-1.599-.5,0-.91.2-1.199.56v2.089c.29.35.72.56,1.199.56.859,0,1.489-.689,1.489-1.609Z"/>
      <path class="uuid-fd4bcea4-8a5c-47ef-bd2f-a74709637b1d" d="M154.248,55.657h1.389l2.708,6.996h-1.29l-.719-1.959h-2.869l-.72,1.959h-1.249l2.749-6.996ZM156.007,59.754l-1.099-2.958-1.089,2.958h2.188Z"/>
    </g>
    <g>
      <path class="uuid-fd4bcea4-8a5c-47ef-bd2f-a74709637b1d" d="M316.679,55.657h1.39l2.708,6.996h-1.289l-.72-1.959h-2.868l-.72,1.959h-1.249l2.748-6.996ZM318.438,59.754l-1.099-2.958-1.09,2.958h2.188Z"/>
      <path class="uuid-fd4bcea4-8a5c-47ef-bd2f-a74709637b1d" d="M321.54,57.646h1.109v.709c.359-.47.919-.75,1.559-.75,1.27,0,2.259,1.129,2.259,2.549,0,1.429-1.02,2.548-2.328,2.548-.59,0-1.109-.22-1.47-.64v2.679h-1.129v-7.096ZM325.357,60.154c0-.91-.64-1.599-1.489-1.599-.499,0-.909.2-1.199.56v2.089c.29.35.72.56,1.199.56.859,0,1.489-.689,1.489-1.609Z"/>
      <path class="uuid-fd4bcea4-8a5c-47ef-bd2f-a74709637b1d" d="M327.65,57.646h1.109v.709c.359-.47.919-.75,1.559-.75,1.27,0,2.259,1.129,2.259,2.549,0,1.429-1.02,2.548-2.328,2.548-.59,0-1.109-.22-1.47-.64v2.679h-1.129v-7.096ZM331.468,60.154c0-.91-.64-1.599-1.489-1.599-.499,0-.909.2-1.199.56v2.089c.29.35.72.56,1.199.56.859,0,1.489-.689,1.489-1.609Z"/>
      <path class="uuid-fd4bcea4-8a5c-47ef-bd2f-a74709637b1d" d="M336.149,55.657h3.118c1.31,0,2.199.75,2.199,1.839,0,.709-.44,1.279-1.14,1.549.84.25,1.379.859,1.379,1.659,0,1.159-.93,1.949-2.309,1.949h-3.248v-6.996ZM339.138,58.605c.68,0,1.129-.39,1.129-.989,0-.59-.439-.979-1.129-.979h-1.789v1.969h1.789ZM339.248,61.673c.759,0,1.249-.43,1.249-1.08s-.479-1.069-1.249-1.069h-1.899v2.149h1.899Z"/>
    </g>
    <g>
      <path class="uuid-fd4bcea4-8a5c-47ef-bd2f-a74709637b1d" d="M440.814,55.657h1.39l2.708,6.996h-1.289l-.72-1.959h-2.868l-.72,1.959h-1.249l2.748-6.996ZM442.573,59.754l-1.099-2.958-1.09,2.958h2.188Z"/>
      <path class="uuid-fd4bcea4-8a5c-47ef-bd2f-a74709637b1d" d="M445.676,57.646h1.109v.709c.359-.47.919-.75,1.559-.75,1.27,0,2.259,1.129,2.259,2.549,0,1.429-1.02,2.548-2.328,2.548-.59,0-1.109-.22-1.47-.64v2.679h-1.129v-7.096ZM449.493,60.154c0-.91-.64-1.599-1.489-1.599-.499,0-.909.2-1.199.56v2.089c.29.35.72.56,1.199.56.859,0,1.489-.689,1.489-1.609Z"/>
      <path class="uuid-fd4bcea4-8a5c-47ef-bd2f-a74709637b1d" d="M451.785,57.646h1.109v.709c.36-.47.92-.75,1.56-.75,1.27,0,2.259,1.129,2.259,2.549,0,1.429-1.02,2.548-2.329,2.548-.59,0-1.109-.22-1.469-.64v2.679h-1.13v-7.096ZM455.604,60.154c0-.91-.64-1.599-1.489-1.599-.5,0-.91.2-1.199.56v2.089c.289.35.72.56,1.199.56.859,0,1.489-.689,1.489-1.609Z"/>
      <path class="uuid-fd4bcea4-8a5c-47ef-bd2f-a74709637b1d" d="M459.955,59.155c0-2.029,1.579-3.608,3.618-3.608,1.069,0,2.089.459,2.729,1.249l-.8.78c-.499-.62-1.189-.95-1.929-.95-1.359,0-2.389,1.089-2.389,2.529s1.029,2.529,2.389,2.529c.739,0,1.43-.33,1.929-.95l.8.78c-.64.79-1.659,1.249-2.729,1.249-2.039,0-3.618-1.579-3.618-3.608Z"/>
    </g>
    <g>
      <path d="M285.868,27.749h1.619l3.108,4.238-.03-4.238h1.619v6.996h-1.519l-3.208-4.377.03,4.377h-1.619v-6.996Z"/>
      <path d="M293.368,32.176c0-1.52,1.159-2.669,2.688-2.669s2.688,1.149,2.688,2.669-1.159,2.668-2.688,2.668-2.688-1.149-2.688-2.668ZM297.166,32.176c0-.77-.46-1.319-1.109-1.319s-1.109.549-1.109,1.319.459,1.319,1.109,1.319,1.109-.549,1.109-1.319Z"/>
      <path d="M299.548,32.156c0-1.449,1.06-2.599,2.398-2.599.54,0,1.03.22,1.38.62v-2.549l1.619-.25v7.366h-1.6v-.669c-.34.43-.909.699-1.519.699-1.27,0-2.279-1.169-2.279-2.618ZM303.326,33.025v-1.739c-.25-.26-.59-.4-.96-.4-.709,0-1.229.54-1.229,1.279,0,.729.53,1.27,1.229,1.27.39,0,.71-.14.96-.41Z"/>
      <path d="M305.978,32.176c0-1.509,1.119-2.669,2.599-2.669,1.489,0,2.539,1.129,2.539,2.729v.35h-3.549c.15.58.62.969,1.21.969.43,0,.789-.15,1.02-.43l1.069.89c-.67.589-1.3.83-2.169.83-1.52,0-2.719-1.169-2.719-2.668ZM309.615,31.667c-.14-.55-.529-.9-1.049-.9-.51,0-.87.33-1,.9h2.049Z"/>
      <path d="M314.157,33.645l2.959-2.928c.329-.32.47-.62.47-.949,0-.45-.44-.79-1.03-.79-.629,0-1.129.24-1.769.859l-.859-1.049c.8-.76,1.709-1.149,2.679-1.149,1.489,0,2.479.81,2.479,2.029,0,.66-.28,1.219-.91,1.829l-2.019,1.949,3.028-.01v1.309h-5.027v-1.1Z"/>
    </g>
    <g>
      <path d="M373.261,116.641l2.578-3.208-2.559.02v-.99h3.948v.83l-2.589,3.218,2.648-.01v.969h-4.027v-.83Z"/>
      <path d="M379.01,116.171v-2.809h-.999v-.899h.999v-1.379l1.13-.24v1.619h1.389v.899h-1.389v2.559c0,.49.189.68.699.68.22,0,.38-.03.68-.12v.949c-.29.09-.67.14-.97.14-1.009,0-1.539-.48-1.539-1.399Z"/>
      <path d="M382.49,115.761v-3.298h1.14v2.968c0,.74.43,1.209,1.1,1.209.449,0,.829-.2,1.089-.6v-3.578h1.13v5.007h-1.13v-.81c-.38.59-.919.89-1.589.89-1.02,0-1.739-.74-1.739-1.789Z"/>
      <path d="M388.351,112.463h1.129v.82c.38-.59.93-.9,1.579-.9,1.029,0,1.749.73,1.749,1.789v3.298h-1.14v-2.979c0-.729-.43-1.199-1.099-1.199-.46,0-.83.21-1.09.61v3.568h-1.129v-5.007Z"/>
      <path d="M394.17,112.463h1.13v.82c.38-.59.929-.9,1.579-.9,1.029,0,1.749.73,1.749,1.789v3.298h-1.14v-2.979c0-.729-.43-1.199-1.1-1.199-.46,0-.829.21-1.089.61v3.568h-1.13v-5.007Z"/>
      <path d="M399.76,114.972c0-1.469,1.06-2.589,2.438-2.589,1.37,0,2.369,1.089,2.369,2.589v.27h-3.698c.11.81.72,1.399,1.499,1.399.47,0,.91-.18,1.189-.47l.74.669c-.61.51-1.22.73-1.979.73-1.438,0-2.559-1.129-2.559-2.599ZM403.498,114.542c-.12-.73-.64-1.239-1.31-1.239-.68,0-1.179.49-1.309,1.239h2.618Z"/>
      <path d="M405.72,110.304l1.13-.2v7.366h-1.13v-7.166Z"/>
    </g>
    <g>
      <path class="uuid-3b66308c-d5de-4252-afbe-234a18076536" d="M225.334,188.204l.037,1.554-1.835.791.091,3.892,3.742,2.319,1.66-.716,1.494.926-2.754,1.187c-.02.008-.041.016-.063.023-.213.067-.465.032-.674-.098h0l-4.488-2.781c-.231-.144-.378-.38-.383-.621h0l-.11-4.669c-.005-.241.13-.448.355-.546h0l2.928-1.262ZM230.949,192.257c.021.014.04.029.061.043h0l1.434.889.036,1.522-1.495-.926-.036-1.528ZM228.486,188.25l1.637,1.014.037,1.555-1.637-1.015-.037-1.554Z"/>
      <path class="uuid-bd1b0096-1136-4df9-b4a3-c2eb831de604" d="M230.013,184.625l.043,1.814-2.306.993.124,5.266,5.062,3.137,2.23-.961,1.743,1.08-3.505,1.511c-.024.011-.049.02-.074.028-.248.078-.542.037-.786-.114h0l-5.933-3.678c-.27-.167-.441-.442-.446-.722h0l-.146-6.173c-.007-.28.151-.522.414-.637h0l3.581-1.544ZM233.566,184.06l5.449,3.377c.27.167.44.444.447.724h0l.133,5.635-.09.039-1.65-1.023-.103-4.372-4.315-2.673-.039-1.634.168-.073Z"/>
      <path class="uuid-12809f34-a53d-4d38-94a5-84d207b92921" d="M239.445,194.641l-6.612-4.097-.163-6.877,6.45-2.78,6.611,4.096.163,6.877-6.449,2.781ZM247.177,183.837l-7.608-4.716c-.281-.174-.615-.22-.901-.129-.028.009-.056.019-.083.031l-7.421,3.2c-.301.13-.481.406-.474.726l.187,7.914c.007.321.203.635.511.827l7.607,4.714c.28.173.614.22.899.13.028-.009.057-.02.085-.032l7.421-3.199c.301-.13.481-.407.473-.728l-.186-7.913c-.008-.321-.203-.636-.511-.827h0Z"/>
    </g>
    <polyline class="uuid-b5dfafaa-ff16-410b-8e9b-c04e1dbc7b05" points="144.435 128.477 144.435 190.205 211.961 190.205"/>
    <polyline class="uuid-b5dfafaa-ff16-410b-8e9b-c04e1dbc7b05" points="390.523 128.477 390.523 190.205 317.818 190.205"/>
  </g>
</svg>