<?xml version="1.0" encoding="UTF-8"?>
<svg id="uuid-524e0f5f-ca9e-4e9b-8991-89778925a83f" data-name="Layer 1" xmlns="http://www.w3.org/2000/svg" width="595.276" height="122.982" viewBox="0 0 595.276 122.982">
  <defs>
    <style>
      .uuid-be6596bb-140e-44ac-b3cd-f903de891ff0, .uuid-b9d395e7-895a-42d6-a2ba-13ce065a4aa9, .uuid-2bf65399-026a-46b0-a29a-e058b8de615a {
        stroke-miterlimit: 10;
      }

      .uuid-be6596bb-140e-44ac-b3cd-f903de891ff0, .uuid-2bf65399-026a-46b0-a29a-e058b8de615a {
        stroke: #a1c2e7;
      }

      .uuid-13285f60-442a-4553-9b85-747ea44fe8e1 {
        fill: #c6c6c6;
      }

      .uuid-953e39ad-cb5a-4fd5-b70e-fba41e741d8a {
        fill: #fff;
      }

      .uuid-df11af0f-9e8b-4689-ba6e-60218669344e {
        fill: #4e69aa;
      }

      .uuid-b9d395e7-895a-42d6-a2ba-13ce065a4aa9 {
        stroke: #06c;
      }

      .uuid-b9d395e7-895a-42d6-a2ba-13ce065a4aa9, .uuid-2bf65399-026a-46b0-a29a-e058b8de615a {
        fill: none;
      }

      .uuid-3bf11449-ab8c-4c58-821d-918fa9208754 {
        fill: #dbe8f5;
      }
    </style>
  </defs>
  <rect class="uuid-953e39ad-cb5a-4fd5-b70e-fba41e741d8a" x="-.652" y="-.011" width="596.579" height="122.487"/>
  <g>
    <rect class="uuid-b9d395e7-895a-42d6-a2ba-13ce065a4aa9" x="36.524" y="32.294" width="151.775" height="72.43"/>
    <polygon class="uuid-2bf65399-026a-46b0-a29a-e058b8de615a" points="117.563 38.834 115.411 38.834 42.827 38.834 42.827 99.535 115.411 99.535 117.563 99.535 181.995 99.535 181.995 38.834 117.563 38.834"/>
    <g>
      <polygon class="uuid-df11af0f-9e8b-4689-ba6e-60218669344e" points="107.146 54.353 111.196 46.681 111.196 53.797 107.146 54.555 107.146 54.353"/>
      <polygon class="uuid-df11af0f-9e8b-4689-ba6e-60218669344e" points="107.146 55.16 117.675 55.161 111.297 57.179 110.993 57.179 107.146 55.261 107.146 55.16"/>
      <polygon class="uuid-df11af0f-9e8b-4689-ba6e-60218669344e" points="111.702 41.331 117.677 54.503 111.702 53.797 111.702 41.331"/>
    </g>
    <g>
      <path d="M37.424,19.534h1.458l2.8,3.817-.027-3.817h1.458v6.302h-1.369l-2.89-3.943.027,3.943h-1.458v-6.302Z"/>
      <path d="M44.075,24.504c0-.855.666-1.351,1.81-1.351.333,0,.666.062,1.081.216v-.378c0-.45-.297-.676-.918-.676-.351,0-.765.1-1.306.324l-.504-1.017c.765-.343,1.449-.505,2.134-.505,1.287,0,2.035.64,2.035,1.747v2.971h-1.44v-.405c-.405.342-.792.478-1.288.478-.945,0-1.603-.576-1.603-1.404ZM46.127,24.944c.306,0,.585-.081.837-.233v-.595c-.271-.062-.531-.099-.801-.099-.478,0-.748.162-.748.459s.261.468.711.468Z"/>
      <path d="M49.502,21.19h1.458v.738c.342-.531.811-.811,1.377-.811.604,0,1.081.333,1.306.864.36-.558.882-.864,1.521-.864.855,0,1.458.676,1.458,1.63v3.088h-1.458v-2.8c0-.468-.279-.774-.693-.774-.27,0-.486.108-.675.352v3.223h-1.458v-2.8c0-.468-.279-.774-.693-.774-.27,0-.495.117-.685.36v3.214h-1.458v-4.646Z"/>
      <path d="M57.512,23.522c0-1.359,1.008-2.404,2.34-2.404,1.341,0,2.287,1.018,2.287,2.458v.315h-3.196c.135.521.558.873,1.089.873.387,0,.711-.135.918-.387l.963.801c-.603.531-1.17.747-1.954.747-1.368,0-2.448-1.053-2.448-2.403ZM60.789,23.063c-.126-.495-.477-.811-.945-.811-.459,0-.783.297-.9.811h1.846Z"/>
      <path d="M62.713,25.358l.639-.972c.667.351,1.044.468,1.495.468.414,0,.666-.144.666-.378,0-.18-.135-.279-.432-.333l-.891-.162c-.9-.171-1.369-.63-1.369-1.351,0-.945.729-1.513,1.945-1.513.648,0,1.288.181,1.891.531l-.667.928c-.468-.271-.9-.396-1.332-.396-.351,0-.558.117-.558.315,0,.188.117.27.477.333l.873.162c.918.171,1.396.639,1.396,1.341,0,.91-.855,1.594-1.999,1.594-.846,0-1.594-.198-2.134-.567Z"/>
      <path d="M67.691,21.19h1.44v.648c.306-.414.819-.676,1.377-.676,1.143,0,2.052,1.054,2.052,2.359s-.954,2.341-2.161,2.341c-.504,0-.945-.189-1.251-.54v2.395h-1.458v-6.527ZM71.13,23.514c0-.657-.478-1.144-1.107-1.144-.36,0-.639.126-.874.378v1.549c.225.233.531.369.874.369.639,0,1.107-.486,1.107-1.152Z"/>
      <path d="M73.315,24.504c0-.855.666-1.351,1.81-1.351.333,0,.666.062,1.08.216v-.378c0-.45-.297-.676-.918-.676-.351,0-.765.1-1.306.324l-.504-1.017c.765-.343,1.449-.505,2.134-.505,1.287,0,2.034.64,2.034,1.747v2.971h-1.44v-.405c-.405.342-.792.478-1.287.478-.945,0-1.603-.576-1.603-1.404ZM75.368,24.944c.306,0,.585-.081.837-.233v-.595c-.27-.062-.531-.099-.801-.099-.478,0-.748.162-.748.459s.261.468.711.468Z"/>
      <path d="M78.535,23.522c0-1.359,1.044-2.404,2.404-2.404.765,0,1.468.307,1.936.855l-.891.892c-.297-.352-.594-.504-.99-.504-.576,0-1.008.495-1.008,1.161s.432,1.161,1.008,1.161c.396,0,.693-.153.99-.504l.891.891c-.468.55-1.17.855-1.936.855-1.359,0-2.404-1.044-2.404-2.403Z"/>
      <path d="M83.251,23.522c0-1.359,1.009-2.404,2.341-2.404,1.341,0,2.287,1.018,2.287,2.458v.315h-3.196c.135.521.558.873,1.089.873.387,0,.711-.135.918-.387l.963.801c-.603.531-1.17.747-1.953.747-1.369,0-2.449-1.053-2.449-2.403ZM86.528,23.063c-.126-.495-.477-.811-.945-.811-.459,0-.783.297-.9.811h1.846Z"/>
      <path d="M90.721,19.426l1.458-.225v2.584c.306-.379.811-.622,1.36-.622,1.143,0,2.052,1.054,2.052,2.359s-.954,2.341-2.161,2.341c-.504,0-.954-.217-1.269-.595v.567h-1.44v-6.41ZM94.16,23.514c0-.657-.478-1.144-1.107-1.144-.36,0-.639.126-.874.378v1.549c.225.233.531.369.874.369.639,0,1.107-.486,1.107-1.152Z"/>
      <path d="M96.346,24.504c0-.855.666-1.351,1.81-1.351.333,0,.666.062,1.08.216v-.378c0-.45-.297-.676-.918-.676-.351,0-.765.1-1.306.324l-.504-1.017c.765-.343,1.449-.505,2.134-.505,1.287,0,2.034.64,2.034,1.747v2.971h-1.44v-.405c-.405.342-.792.478-1.287.478-.945,0-1.603-.576-1.603-1.404ZM98.398,24.944c.306,0,.585-.081.837-.233v-.595c-.27-.062-.531-.099-.801-.099-.478,0-.748.162-.748.459s.261.468.711.468Z"/>
      <path d="M101.395,25.358l.639-.972c.667.351,1.044.468,1.495.468.414,0,.666-.144.666-.378,0-.18-.135-.279-.432-.333l-.891-.162c-.9-.171-1.369-.63-1.369-1.351,0-.945.729-1.513,1.945-1.513.648,0,1.287.181,1.891.531l-.667.928c-.468-.271-.9-.396-1.332-.396-.351,0-.558.117-.558.315,0,.188.117.27.477.333l.873.162c.918.171,1.396.639,1.396,1.341,0,.91-.855,1.594-1.999,1.594-.846,0-1.594-.198-2.134-.567Z"/>
      <path d="M106.21,23.522c0-1.359,1.008-2.404,2.34-2.404,1.341,0,2.287,1.018,2.287,2.458v.315h-3.196c.135.521.558.873,1.089.873.387,0,.711-.135.918-.387l.963.801c-.603.531-1.17.747-1.954.747-1.368,0-2.448-1.053-2.448-2.403ZM109.487,23.063c-.126-.495-.477-.811-.945-.811-.459,0-.783.297-.9.811h1.846Z"/>
      <path d="M111.583,23.504c0-1.305.954-2.341,2.16-2.341.486,0,.928.198,1.243.559v-2.296l1.458-.225v6.635h-1.44v-.604c-.306.388-.819.631-1.369.631-1.143,0-2.052-1.054-2.052-2.359ZM114.986,24.287v-1.566c-.225-.233-.531-.359-.864-.359-.639,0-1.107.485-1.107,1.152,0,.657.477,1.143,1.107,1.143.351,0,.639-.126.864-.369Z"/>
      <path d="M119.646,19.534h1.945l1.521,3.024,1.512-3.024h1.945v6.302h-1.458v-4.276l-2.017,3.826-2.026-3.862v4.312h-1.422v-6.302Z"/>
      <path d="M127.8,24.323v-3.133h1.458v2.71c0,.522.306.864.774.864.315,0,.567-.126.774-.387v-3.188h1.458v4.646h-1.458v-.756c-.36.54-.864.828-1.467.828-.9,0-1.54-.657-1.54-1.585Z"/>
      <path d="M133.398,19.426l1.458-.225v6.635h-1.458v-6.41Z"/>
      <path d="M136.603,24.432v-2.116h-.9v-1.125h.9v-1.287l1.458-.297v1.584h1.243v1.125h-1.243v1.828c0,.414.162.558.612.558.171,0,.306-.018.594-.099v1.18c-.27.081-.702.144-1,.144-1.098,0-1.666-.504-1.666-1.494Z"/>
      <path d="M140.022,19.66c0-.45.369-.819.819-.819s.819.369.819.819-.369.819-.819.819-.819-.369-.819-.819ZM140.112,21.19h1.458v4.646h-1.458v-4.646Z"/>
      <path d="M142.596,22.649h3.313v1.215h-3.313v-1.215Z"/>
      <path d="M147.546,24.432v-2.116h-.9v-1.125h.9v-1.287l1.458-.297v1.584h1.243v1.125h-1.243v1.828c0,.414.162.558.612.558.171,0,.306-.018.594-.099v1.18c-.27.081-.702.144-1,.144-1.098,0-1.666-.504-1.666-1.494Z"/>
      <path d="M150.804,23.522c0-1.359,1.009-2.404,2.341-2.404,1.341,0,2.287,1.018,2.287,2.458v.315h-3.196c.135.521.558.873,1.089.873.387,0,.711-.135.918-.387l.963.801c-.603.531-1.17.747-1.953.747-1.369,0-2.449-1.053-2.449-2.403ZM154.081,23.063c-.126-.495-.477-.811-.945-.811-.459,0-.783.297-.9.811h1.846Z"/>
      <path d="M156.339,21.19h1.458v.756c.36-.54.864-.828,1.468-.828.9,0,1.54.657,1.54,1.585v3.133h-1.458v-2.71c0-.522-.306-.864-.774-.864-.315,0-.567.126-.774.388v3.187h-1.458v-4.646Z"/>
      <path d="M161.685,24.504c0-.855.666-1.351,1.81-1.351.333,0,.666.062,1.081.216v-.378c0-.45-.297-.676-.918-.676-.351,0-.765.1-1.306.324l-.504-1.017c.765-.343,1.449-.505,2.134-.505,1.287,0,2.035.64,2.035,1.747v2.971h-1.44v-.405c-.405.342-.792.478-1.288.478-.945,0-1.603-.576-1.603-1.404ZM163.738,24.944c.306,0,.585-.081.837-.233v-.595c-.271-.062-.531-.099-.801-.099-.478,0-.748.162-.748.459s.261.468.711.468Z"/>
      <path d="M167.112,21.19h1.458v.756c.36-.54.864-.828,1.468-.828.9,0,1.54.657,1.54,1.585v3.133h-1.458v-2.71c0-.522-.306-.864-.774-.864-.315,0-.567.126-.774.388v3.187h-1.458v-4.646Z"/>
      <path d="M172.467,23.522c0-1.359,1.044-2.404,2.404-2.404.765,0,1.468.307,1.936.855l-.891.892c-.297-.352-.594-.504-.99-.504-.576,0-1.008.495-1.008,1.161s.432,1.161,1.008,1.161c.396,0,.693-.153.99-.504l.891.891c-.468.55-1.17.855-1.936.855-1.359,0-2.404-1.044-2.404-2.403Z"/>
      <path d="M177.426,27.735v-1.225c.108.019.261.036.432.036.396,0,.612-.162.756-.468l.072-.153-1.71-4.735h1.611l.927,2.998,1.062-2.998h1.575l-2.088,5.168c-.432,1.062-.963,1.449-2.035,1.449-.171,0-.405-.027-.603-.072Z"/>
    </g>
    <rect class="uuid-3bf11449-ab8c-4c58-821d-918fa9208754" x="48.841" y="59.198" width="61.57" height="15.687"/>
    <rect class="uuid-3bf11449-ab8c-4c58-821d-918fa9208754" x="114.411" y="59.198" width="61.57" height="15.687"/>
    <rect class="uuid-3bf11449-ab8c-4c58-821d-918fa9208754" x="48.841" y="78.885" width="61.57" height="15.687"/>
    <rect class="uuid-3bf11449-ab8c-4c58-821d-918fa9208754" x="114.411" y="78.885" width="61.57" height="15.687"/>
    <g>
      <path class="uuid-13285f60-442a-4553-9b85-747ea44fe8e1" d="M74.091,63.51h1.053l3.286,4.582-.018-4.582h1.017v6.302h-.963l-3.376-4.708.018,4.708h-1.017v-6.302Z"/>
      <path class="uuid-13285f60-442a-4553-9b85-747ea44fe8e1" d="M80.399,68.894l.585-.793c.81.667,1.396.919,2.125.919.828,0,1.404-.424,1.404-1.009,0-.513-.306-.756-1.143-.9l-1.162-.197c-1.089-.198-1.62-.738-1.62-1.603,0-1.144.909-1.9,2.323-1.9.945,0,1.809.279,2.53.811l-.549.811c-.63-.478-1.306-.729-2.017-.729-.756,0-1.26.388-1.26.9,0,.459.288.693.972.801l1.125.189c1.269.226,1.863.783,1.863,1.737,0,1.161-1.026,1.98-2.53,1.98-.99,0-1.846-.342-2.647-1.017Z"/>
    </g>
    <g>
      <path class="uuid-13285f60-442a-4553-9b85-747ea44fe8e1" d="M139.662,63.51h1.053l3.286,4.582-.018-4.582h1.017v6.302h-.963l-3.376-4.708.018,4.708h-1.017v-6.302Z"/>
      <path class="uuid-13285f60-442a-4553-9b85-747ea44fe8e1" d="M145.97,68.894l.585-.793c.81.667,1.396.919,2.125.919.828,0,1.404-.424,1.404-1.009,0-.513-.306-.756-1.143-.9l-1.162-.197c-1.089-.198-1.62-.738-1.62-1.603,0-1.144.909-1.9,2.323-1.9.945,0,1.809.279,2.53.811l-.549.811c-.63-.478-1.306-.729-2.017-.729-.756,0-1.26.388-1.26.9,0,.459.288.693.972.801l1.125.189c1.269.226,1.863.783,1.863,1.737,0,1.161-1.026,1.98-2.53,1.98-.99,0-1.846-.342-2.647-1.017Z"/>
    </g>
    <g>
      <path class="uuid-13285f60-442a-4553-9b85-747ea44fe8e1" d="M74.091,83.197h1.053l3.286,4.582-.018-4.582h1.017v6.302h-.963l-3.376-4.708.018,4.708h-1.017v-6.302Z"/>
      <path class="uuid-13285f60-442a-4553-9b85-747ea44fe8e1" d="M80.399,88.581l.585-.793c.81.667,1.396.919,2.125.919.828,0,1.404-.424,1.404-1.009,0-.513-.306-.756-1.143-.9l-1.162-.197c-1.089-.198-1.62-.738-1.62-1.603,0-1.144.909-1.9,2.323-1.9.945,0,1.809.279,2.53.811l-.549.811c-.63-.478-1.306-.729-2.017-.729-.756,0-1.26.388-1.26.9,0,.459.288.693.972.801l1.125.189c1.269.226,1.863.783,1.863,1.737,0,1.161-1.026,1.98-2.53,1.98-.99,0-1.846-.342-2.647-1.017Z"/>
    </g>
    <g>
      <path class="uuid-13285f60-442a-4553-9b85-747ea44fe8e1" d="M139.662,83.197h1.053l3.286,4.582-.018-4.582h1.017v6.302h-.963l-3.376-4.708.018,4.708h-1.017v-6.302Z"/>
      <path class="uuid-13285f60-442a-4553-9b85-747ea44fe8e1" d="M145.97,88.581l.585-.793c.81.667,1.396.919,2.125.919.828,0,1.404-.424,1.404-1.009,0-.513-.306-.756-1.143-.9l-1.162-.197c-1.089-.198-1.62-.738-1.62-1.603,0-1.144.909-1.9,2.323-1.9.945,0,1.809.279,2.53.811l-.549.811c-.63-.478-1.306-.729-2.017-.729-.756,0-1.26.388-1.26.9,0,.459.288.693.972.801l1.125.189c1.269.226,1.863.783,1.863,1.737,0,1.161-1.026,1.98-2.53,1.98-.99,0-1.846-.342-2.647-1.017Z"/>
    </g>
    <rect class="uuid-b9d395e7-895a-42d6-a2ba-13ce065a4aa9" x="214.189" y="32.294" width="151.775" height="72.43"/>
    <g>
      <path d="M215.089,19.534h1.945l1.521,3.024,1.512-3.024h1.945v6.302h-1.458v-4.276l-2.017,3.826-2.026-3.862v4.312h-1.422v-6.302Z"/>
      <path d="M223.243,24.323v-3.133h1.458v2.71c0,.522.306.864.774.864.315,0,.567-.126.774-.387v-3.188h1.458v4.646h-1.458v-.756c-.36.54-.864.828-1.467.828-.9,0-1.54-.657-1.54-1.585Z"/>
      <path d="M228.841,19.425l1.458-.225v6.635h-1.458v-6.41Z"/>
      <path d="M232.045,24.431v-2.116h-.9v-1.125h.9v-1.287l1.458-.297v1.584h1.243v1.125h-1.243v1.828c0,.414.162.558.612.558.171,0,.306-.018.594-.099v1.18c-.27.081-.702.144-1,.144-1.098,0-1.666-.504-1.666-1.494Z"/>
      <path d="M235.464,19.66c0-.45.369-.819.819-.819s.819.369.819.819-.369.819-.819.819-.819-.369-.819-.819ZM235.555,21.19h1.458v4.646h-1.458v-4.646Z"/>
      <path d="M238.039,22.649h3.313v1.215h-3.313v-1.215Z"/>
      <path d="M242.305,22.684c0-1.836,1.449-3.25,3.322-3.25,1.008,0,2.008.478,2.557,1.225l-1.044.99c-.415-.558-.918-.837-1.513-.837-.981,0-1.719.801-1.719,1.872s.738,1.873,1.719,1.873c.594,0,1.098-.279,1.513-.837l1.044.99c-.549.747-1.548,1.224-2.557,1.224-1.873,0-3.322-1.413-3.322-3.25Z"/>
      <path d="M248.604,23.522c0-1.368,1.044-2.404,2.421-2.404s2.422,1.036,2.422,2.404-1.044,2.403-2.422,2.403-2.421-1.035-2.421-2.403ZM252.025,23.522c0-.693-.414-1.188-1-1.188s-.999.495-.999,1.188.414,1.188.999,1.188,1-.495,1-1.188Z"/>
      <path d="M254.374,21.19h1.458v.756c.36-.54.864-.828,1.468-.828.9,0,1.54.657,1.54,1.585v3.133h-1.458v-2.71c0-.522-.306-.864-.774-.864-.315,0-.567.126-.774.388v3.187h-1.458v-4.646Z"/>
      <path d="M260.412,24.431v-2.116h-.9v-1.125h.9v-1.287l1.458-.297v1.584h1.243v1.125h-1.243v1.828c0,.414.162.558.612.558.171,0,.306-.018.594-.099v1.18c-.27.081-.702.144-1,.144-1.098,0-1.666-.504-1.666-1.494Z"/>
      <path d="M263.922,21.19h1.458v1.054c.297-.774.711-1.144,1.261-1.144.207.009.306.027.486.117v1.251c-.18-.09-.432-.144-.684-.144-.432,0-.828.225-1.062.576v2.935h-1.458v-4.646Z"/>
      <path d="M267.558,23.522c0-1.368,1.044-2.404,2.422-2.404s2.422,1.036,2.422,2.404-1.044,2.403-2.422,2.403-2.422-1.035-2.422-2.403ZM270.979,23.522c0-.693-.414-1.188-1-1.188s-.999.495-.999,1.188.414,1.188.999,1.188,1-.495,1-1.188Z"/>
      <path d="M273.327,19.425l1.458-.225v6.635h-1.458v-6.41Z"/>
      <path d="M277.989,19.534h3.079c1.341,0,2.224.873,2.224,2.079,0,1.144-.882,2.026-2.224,2.026h-1.531v2.196h-1.548v-6.302ZM280.789,22.406c.63,0,.937-.343.937-.802,0-.45-.306-.792-.927-.792h-1.261v1.594h1.251Z"/>
      <path d="M284.244,19.425l1.458-.225v6.635h-1.458v-6.41Z"/>
      <path d="M286.62,24.503c0-.855.666-1.351,1.81-1.351.333,0,.666.062,1.081.216v-.378c0-.45-.297-.676-.918-.676-.351,0-.765.1-1.306.324l-.504-1.017c.765-.343,1.449-.505,2.134-.505,1.287,0,2.035.64,2.035,1.747v2.971h-1.44v-.405c-.405.342-.792.478-1.288.478-.945,0-1.603-.576-1.603-1.404ZM288.672,24.944c.306,0,.585-.081.837-.233v-.595c-.271-.062-.531-.099-.801-.099-.478,0-.748.162-.748.459s.261.468.711.468Z"/>
      <path d="M292.047,21.19h1.458v.756c.36-.54.864-.828,1.468-.828.9,0,1.54.657,1.54,1.585v3.133h-1.458v-2.71c0-.522-.306-.864-.774-.864-.315,0-.567.126-.774.388v3.187h-1.458v-4.646Z"/>
      <path d="M297.401,23.522c0-1.359,1.009-2.404,2.341-2.404,1.342,0,2.287,1.018,2.287,2.458v.315h-3.196c.135.521.559.873,1.09.873.387,0,.711-.135.918-.387l.963.801c-.603.531-1.17.747-1.953.747-1.369,0-2.449-1.053-2.449-2.403ZM300.679,23.063c-.126-.495-.477-.811-.945-.811-.459,0-.783.297-.9.811h1.846Z"/>
      <path d="M305.007,19.534h1.945l1.521,3.024,1.512-3.024h1.945v6.302h-1.459v-4.276l-2.017,3.826-2.025-3.862v4.312h-1.423v-6.302Z"/>
      <path d="M313.161,24.323v-3.133h1.458v2.71c0,.522.307.864.774.864.315,0,.567-.126.774-.387v-3.188h1.458v4.646h-1.458v-.756c-.36.54-.864.828-1.468.828-.9,0-1.539-.657-1.539-1.585Z"/>
      <path d="M318.759,19.425l1.458-.225v6.635h-1.458v-6.41Z"/>
      <path d="M321.963,24.431v-2.116h-.9v-1.125h.9v-1.287l1.458-.297v1.584h1.243v1.125h-1.243v1.828c0,.414.162.558.612.558.171,0,.307-.018.595-.099v1.18c-.271.081-.702.144-1,.144-1.098,0-1.665-.504-1.665-1.494Z"/>
      <path d="M325.383,19.66c0-.45.369-.819.819-.819s.819.369.819.819-.369.819-.819.819-.819-.369-.819-.819ZM325.473,21.19h1.458v4.646h-1.458v-4.646Z"/>
      <path d="M327.956,22.649h3.313v1.215h-3.313v-1.215Z"/>
      <path d="M332.906,24.431v-2.116h-.899v-1.125h.899v-1.287l1.459-.297v1.584h1.242v1.125h-1.242v1.828c0,.414.162.558.612.558.171,0,.306-.018.594-.099v1.18c-.27.081-.702.144-.999.144-1.099,0-1.666-.504-1.666-1.494Z"/>
      <path d="M336.164,23.522c0-1.359,1.009-2.404,2.341-2.404,1.342,0,2.287,1.018,2.287,2.458v.315h-3.196c.136.521.559.873,1.09.873.387,0,.711-.135.918-.387l.963.801c-.603.531-1.17.747-1.953.747-1.368,0-2.449-1.053-2.449-2.403ZM339.441,23.063c-.126-.495-.477-.811-.945-.811-.459,0-.783.297-.9.811h1.846Z"/>
      <path d="M341.699,21.19h1.458v.756c.36-.54.864-.828,1.468-.828.9,0,1.54.657,1.54,1.585v3.133h-1.459v-2.71c0-.522-.306-.864-.774-.864-.314,0-.567.126-.774.388v3.187h-1.458v-4.646Z"/>
      <path d="M347.045,24.503c0-.855.666-1.351,1.81-1.351.333,0,.666.062,1.08.216v-.378c0-.45-.297-.676-.918-.676-.351,0-.765.1-1.306.324l-.504-1.017c.766-.343,1.449-.505,2.134-.505,1.287,0,2.034.64,2.034,1.747v2.971h-1.44v-.405c-.404.342-.792.478-1.287.478-.945,0-1.603-.576-1.603-1.404ZM349.098,24.944c.307,0,.585-.081.837-.233v-.595c-.27-.062-.53-.099-.801-.099-.478,0-.747.162-.747.459s.261.468.711.468Z"/>
      <path d="M352.473,21.19h1.458v.756c.36-.54.864-.828,1.468-.828.899,0,1.539.657,1.539,1.585v3.133h-1.458v-2.71c0-.522-.307-.864-.774-.864-.315,0-.567.126-.774.388v3.187h-1.458v-4.646Z"/>
      <path d="M357.827,23.522c0-1.359,1.044-2.404,2.403-2.404.766,0,1.468.307,1.936.855l-.891.892c-.297-.352-.595-.504-.99-.504-.576,0-1.009.495-1.009,1.161s.433,1.161,1.009,1.161c.396,0,.693-.153.99-.504l.891.891c-.468.55-1.17.855-1.936.855-1.359,0-2.403-1.044-2.403-2.403Z"/>
      <path d="M362.786,27.735v-1.225c.108.019.261.036.433.036.396,0,.611-.162.756-.468l.072-.153-1.711-4.735h1.611l.928,2.998,1.062-2.998h1.575l-2.089,5.168c-.432,1.062-.963,1.449-2.034,1.449-.171,0-.405-.027-.604-.072Z"/>
    </g>
    <polygon class="uuid-2bf65399-026a-46b0-a29a-e058b8de615a" points="256.553 38.834 255.543 38.834 221.492 38.834 221.492 99.535 255.543 99.535 256.553 99.535 286.78 99.535 286.78 38.834 256.553 38.834"/>
    <g>
      <polygon class="uuid-df11af0f-9e8b-4689-ba6e-60218669344e" points="248.87 54.353 252.92 46.681 252.92 53.797 248.87 54.555 248.87 54.353"/>
      <polygon class="uuid-df11af0f-9e8b-4689-ba6e-60218669344e" points="248.87 55.16 259.4 55.161 253.022 57.179 252.718 57.179 248.87 55.261 248.87 55.16"/>
      <polygon class="uuid-df11af0f-9e8b-4689-ba6e-60218669344e" points="253.427 41.331 259.402 54.503 253.427 53.797 253.427 41.331"/>
    </g>
    <rect class="uuid-3bf11449-ab8c-4c58-821d-918fa9208754" x="228.644" y="67.572" width="50.983" height="15.687"/>
    <g>
      <path class="uuid-13285f60-442a-4553-9b85-747ea44fe8e1" d="M248.601,71.606h1.053l3.286,4.582-.018-4.582h1.017v6.302h-.963l-3.376-4.708.018,4.708h-1.017v-6.302Z"/>
      <path class="uuid-13285f60-442a-4553-9b85-747ea44fe8e1" d="M254.909,76.99l.585-.793c.81.667,1.396.919,2.125.919.828,0,1.404-.424,1.404-1.009,0-.513-.306-.756-1.143-.9l-1.162-.197c-1.089-.198-1.62-.738-1.62-1.603,0-1.144.909-1.9,2.323-1.9.945,0,1.809.279,2.53.811l-.549.811c-.63-.478-1.306-.729-2.017-.729-.756,0-1.26.388-1.26.9,0,.459.288.693.972.801l1.125.189c1.269.226,1.863.783,1.863,1.737,0,1.161-1.026,1.98-2.53,1.98-.99,0-1.846-.342-2.647-1.017Z"/>
    </g>
    <polygon class="uuid-2bf65399-026a-46b0-a29a-e058b8de615a" points="328.434 38.834 327.425 38.834 293.373 38.834 293.373 99.535 327.425 99.535 328.434 99.535 358.661 99.535 358.661 38.834 328.434 38.834"/>
    <g>
      <polygon class="uuid-df11af0f-9e8b-4689-ba6e-60218669344e" points="320.751 54.353 324.802 46.681 324.802 53.797 320.751 54.555 320.751 54.353"/>
      <polygon class="uuid-df11af0f-9e8b-4689-ba6e-60218669344e" points="320.751 55.16 331.281 55.161 324.903 57.179 324.599 57.179 320.751 55.261 320.751 55.16"/>
      <polygon class="uuid-df11af0f-9e8b-4689-ba6e-60218669344e" points="325.308 41.331 331.283 54.503 325.308 53.797 325.308 41.331"/>
    </g>
    <rect class="uuid-3bf11449-ab8c-4c58-821d-918fa9208754" x="300.526" y="67.572" width="50.983" height="15.687"/>
    <g>
      <path class="uuid-13285f60-442a-4553-9b85-747ea44fe8e1" d="M320.482,71.606h1.054l3.286,4.582-.019-4.582h1.018v6.302h-.964l-3.376-4.708.019,4.708h-1.018v-6.302Z"/>
      <path class="uuid-13285f60-442a-4553-9b85-747ea44fe8e1" d="M326.791,76.99l.585-.793c.811.667,1.396.919,2.125.919.828,0,1.404-.424,1.404-1.009,0-.513-.306-.756-1.144-.9l-1.161-.197c-1.089-.198-1.62-.738-1.62-1.603,0-1.144.909-1.9,2.322-1.9.945,0,1.81.279,2.53.811l-.55.811c-.63-.478-1.306-.729-2.017-.729-.756,0-1.26.388-1.26.9,0,.459.288.693.972.801l1.126.189c1.269.226,1.863.783,1.863,1.737,0,1.161-1.026,1.98-2.53,1.98-.99,0-1.846-.342-2.646-1.017Z"/>
    </g>
    <rect class="uuid-b9d395e7-895a-42d6-a2ba-13ce065a4aa9" x="392.273" y="32.294" width="80.199" height="72.43"/>
    <rect class="uuid-b9d395e7-895a-42d6-a2ba-13ce065a4aa9" x="478.553" y="32.294" width="80.199" height="72.43"/>
    <polygon class="uuid-2bf65399-026a-46b0-a29a-e058b8de615a" points="434.942 38.834 433.893 38.834 398.482 38.834 398.482 99.535 433.893 99.535 434.942 99.535 466.376 99.535 466.376 38.834 434.942 38.834"/>
    <g>
      <polygon class="uuid-df11af0f-9e8b-4689-ba6e-60218669344e" points="427.163 54.353 431.214 46.681 431.214 53.797 427.163 54.555 427.163 54.353"/>
      <polygon class="uuid-df11af0f-9e8b-4689-ba6e-60218669344e" points="427.163 55.16 437.693 55.161 431.315 57.179 431.011 57.179 427.163 55.261 427.163 55.16"/>
      <polygon class="uuid-df11af0f-9e8b-4689-ba6e-60218669344e" points="431.72 41.331 437.695 54.503 431.72 53.797 431.72 41.331"/>
    </g>
    <g>
      <path d="M393.173,19.534h1.945l1.521,3.024,1.512-3.024h1.945v6.302h-1.459v-4.276l-2.017,3.826-2.025-3.862v4.312h-1.423v-6.302Z"/>
      <path d="M401.327,24.323v-3.133h1.458v2.71c0,.522.307.864.774.864.315,0,.567-.126.774-.387v-3.188h1.458v4.646h-1.458v-.756c-.36.54-.864.828-1.468.828-.9,0-1.539-.657-1.539-1.585Z"/>
      <path d="M406.925,19.425l1.458-.225v6.635h-1.458v-6.41Z"/>
      <path d="M410.129,24.431v-2.116h-.899v-1.125h.899v-1.287l1.459-.297v1.584h1.242v1.125h-1.242v1.828c0,.414.162.558.612.558.171,0,.306-.018.594-.099v1.18c-.27.081-.702.144-.999.144-1.099,0-1.666-.504-1.666-1.494Z"/>
      <path d="M413.549,19.66c0-.45.369-.819.819-.819s.819.369.819.819-.369.819-.819.819-.819-.369-.819-.819ZM413.639,21.19h1.458v4.646h-1.458v-4.646Z"/>
      <path d="M416.123,22.649h3.312v1.215h-3.312v-1.215Z"/>
      <path d="M420.389,22.684c0-1.836,1.449-3.25,3.322-3.25,1.008,0,2.008.478,2.557,1.225l-1.044.99c-.415-.558-.919-.837-1.513-.837-.981,0-1.72.801-1.72,1.872s.738,1.873,1.72,1.873c.594,0,1.098-.279,1.513-.837l1.044.99c-.549.747-1.549,1.224-2.557,1.224-1.873,0-3.322-1.413-3.322-3.25Z"/>
      <path d="M427.03,19.425l1.458-.225v6.635h-1.458v-6.41Z"/>
      <path d="M429.587,24.323v-3.133h1.458v2.71c0,.522.307.864.774.864.315,0,.567-.126.774-.387v-3.188h1.458v4.646h-1.458v-.756c-.36.54-.864.828-1.468.828-.9,0-1.539-.657-1.539-1.585Z"/>
      <path d="M434.807,25.358l.639-.972c.667.351,1.045.468,1.495.468.414,0,.666-.144.666-.378,0-.18-.135-.279-.433-.333l-.891-.162c-.9-.171-1.369-.63-1.369-1.351,0-.945.729-1.513,1.945-1.513.647,0,1.287.181,1.891.531l-.667.928c-.468-.271-.899-.396-1.332-.396-.351,0-.558.117-.558.315,0,.188.116.27.477.333l.873.162c.919.171,1.396.639,1.396,1.341,0,.91-.855,1.594-1.998,1.594-.847,0-1.594-.198-2.134-.567Z"/>
      <path d="M440.306,24.431v-2.116h-.9v-1.125h.9v-1.287l1.458-.297v1.584h1.243v1.125h-1.243v1.828c0,.414.162.558.612.558.171,0,.307-.018.595-.099v1.18c-.271.081-.702.144-1,.144-1.098,0-1.665-.504-1.665-1.494Z"/>
      <path d="M443.563,23.522c0-1.359,1.008-2.404,2.341-2.404,1.341,0,2.286,1.018,2.286,2.458v.315h-3.195c.135.521.558.873,1.089.873.388,0,.712-.135.919-.387l.963.801c-.604.531-1.17.747-1.954.747-1.368,0-2.448-1.053-2.448-2.403ZM446.841,23.063c-.126-.495-.478-.811-.945-.811-.46,0-.783.297-.9.811h1.846Z"/>
      <path d="M449.099,21.19h1.458v1.054c.297-.774.711-1.144,1.261-1.144.207.009.306.027.485.117v1.251c-.18-.09-.432-.144-.684-.144-.433,0-.828.225-1.062.576v2.935h-1.458v-4.646Z"/>
      <path d="M455.146,19.534h1.944l1.521,3.024,1.513-3.024h1.944v6.302h-1.458v-4.276l-2.017,3.826-2.026-3.862v4.312h-1.422v-6.302Z"/>
      <path d="M463.3,24.323v-3.133h1.459v2.71c0,.522.306.864.773.864.315,0,.567-.126.774-.387v-3.188h1.459v4.646h-1.459v-.756c-.36.54-.864.828-1.467.828-.9,0-1.54-.657-1.54-1.585Z"/>
      <path d="M468.898,19.425l1.458-.225v6.635h-1.458v-6.41Z"/>
      <path d="M472.102,24.431v-2.116h-.899v-1.125h.899v-1.287l1.459-.297v1.584h1.242v1.125h-1.242v1.828c0,.414.162.558.612.558.171,0,.306-.018.594-.099v1.18c-.27.081-.702.144-.999.144-1.099,0-1.666-.504-1.666-1.494Z"/>
      <path d="M475.521,19.66c0-.45.369-.819.819-.819s.819.369.819.819-.369.819-.819.819-.819-.369-.819-.819ZM475.612,21.19h1.458v4.646h-1.458v-4.646Z"/>
      <path d="M478.096,22.649h3.312v1.215h-3.312v-1.215Z"/>
      <path d="M483.046,24.431v-2.116h-.9v-1.125h.9v-1.287l1.458-.297v1.584h1.243v1.125h-1.243v1.828c0,.414.162.558.612.558.171,0,.307-.018.595-.099v1.18c-.271.081-.702.144-1,.144-1.098,0-1.665-.504-1.665-1.494Z"/>
      <path d="M486.304,23.522c0-1.359,1.008-2.404,2.341-2.404,1.341,0,2.286,1.018,2.286,2.458v.315h-3.195c.135.521.558.873,1.089.873.388,0,.712-.135.919-.387l.963.801c-.604.531-1.17.747-1.954.747-1.368,0-2.448-1.053-2.448-2.403ZM489.581,23.063c-.126-.495-.478-.811-.945-.811-.46,0-.783.297-.9.811h1.846Z"/>
      <path d="M491.839,21.19h1.458v.756c.36-.54.864-.828,1.468-.828.9,0,1.54.657,1.54,1.585v3.133h-1.459v-2.71c0-.522-.306-.864-.774-.864-.314,0-.567.126-.774.388v3.187h-1.458v-4.646Z"/>
      <path d="M497.185,24.503c0-.855.666-1.351,1.81-1.351.333,0,.666.062,1.08.216v-.378c0-.45-.297-.676-.918-.676-.351,0-.765.1-1.306.324l-.504-1.017c.766-.343,1.449-.505,2.134-.505,1.287,0,2.034.64,2.034,1.747v2.971h-1.44v-.405c-.404.342-.792.478-1.287.478-.945,0-1.603-.576-1.603-1.404ZM499.237,24.944c.307,0,.585-.081.837-.233v-.595c-.27-.062-.53-.099-.801-.099-.478,0-.747.162-.747.459s.261.468.711.468Z"/>
      <path d="M502.612,21.19h1.458v.756c.36-.54.864-.828,1.468-.828.899,0,1.539.657,1.539,1.585v3.133h-1.458v-2.71c0-.522-.307-.864-.774-.864-.315,0-.567.126-.774.388v3.187h-1.458v-4.646Z"/>
      <path d="M507.966,23.522c0-1.359,1.045-2.404,2.404-2.404.765,0,1.468.307,1.936.855l-.892.892c-.297-.352-.594-.504-.99-.504-.576,0-1.008.495-1.008,1.161s.432,1.161,1.008,1.161c.396,0,.693-.153.99-.504l.892.891c-.468.55-1.171.855-1.936.855-1.359,0-2.404-1.044-2.404-2.403Z"/>
      <path d="M512.926,27.735v-1.225c.107.019.261.036.432.036.396,0,.612-.162.756-.468l.072-.153-1.71-4.735h1.611l.927,2.998,1.062-2.998h1.575l-2.088,5.168c-.433,1.062-.964,1.449-2.035,1.449-.171,0-.405-.027-.603-.072Z"/>
    </g>
    <rect class="uuid-3bf11449-ab8c-4c58-821d-918fa9208754" x="404.212" y="67.572" width="56.434" height="15.687"/>
    <g>
      <path class="uuid-13285f60-442a-4553-9b85-747ea44fe8e1" d="M426.895,71.606h1.053l3.286,4.582-.018-4.582h1.017v6.302h-.963l-3.376-4.708.018,4.708h-1.017v-6.302Z"/>
      <path class="uuid-13285f60-442a-4553-9b85-747ea44fe8e1" d="M433.202,76.99l.586-.793c.81.667,1.396.919,2.124.919.828,0,1.404-.424,1.404-1.009,0-.513-.306-.756-1.143-.9l-1.162-.197c-1.089-.198-1.62-.738-1.62-1.603,0-1.144.909-1.9,2.323-1.9.944,0,1.809.279,2.529.811l-.549.811c-.631-.478-1.306-.729-2.017-.729-.757,0-1.261.388-1.261.9,0,.459.288.693.973.801l1.125.189c1.27.226,1.863.783,1.863,1.737,0,1.161-1.026,1.98-2.529,1.98-.99,0-1.846-.342-2.647-1.017Z"/>
    </g>
    <polygon class="uuid-2bf65399-026a-46b0-a29a-e058b8de615a" points="521.166 38.834 520.116 38.834 484.705 38.834 484.705 99.535 520.116 99.535 521.166 99.535 552.6 99.535 552.6 38.834 521.166 38.834"/>
    <g>
      <polygon class="uuid-df11af0f-9e8b-4689-ba6e-60218669344e" points="513.387 54.353 517.437 46.681 517.437 53.797 513.387 54.555 513.387 54.353"/>
      <polygon class="uuid-df11af0f-9e8b-4689-ba6e-60218669344e" points="513.387 55.16 523.917 55.161 517.538 57.179 517.234 57.179 513.387 55.261 513.387 55.16"/>
      <polygon class="uuid-df11af0f-9e8b-4689-ba6e-60218669344e" points="517.943 41.331 523.918 54.503 517.943 53.797 517.943 41.331"/>
    </g>
    <rect class="uuid-3bf11449-ab8c-4c58-821d-918fa9208754" x="490.436" y="67.572" width="56.434" height="15.687"/>
    <g>
      <path class="uuid-13285f60-442a-4553-9b85-747ea44fe8e1" d="M513.118,71.606h1.053l3.286,4.582-.018-4.582h1.017v6.302h-.963l-3.376-4.708.018,4.708h-1.017v-6.302Z"/>
      <path class="uuid-13285f60-442a-4553-9b85-747ea44fe8e1" d="M519.426,76.99l.586-.793c.81.667,1.396.919,2.124.919.828,0,1.404-.424,1.404-1.009,0-.513-.306-.756-1.143-.9l-1.162-.197c-1.089-.198-1.62-.738-1.62-1.603,0-1.144.909-1.9,2.323-1.9.944,0,1.809.279,2.529.811l-.549.811c-.631-.478-1.306-.729-2.017-.729-.757,0-1.261.388-1.261.9,0,.459.288.693.973.801l1.125.189c1.27.226,1.863.783,1.863,1.737,0,1.161-1.026,1.98-2.529,1.98-.99,0-1.846-.342-2.647-1.017Z"/>
    </g>
    <rect class="uuid-953e39ad-cb5a-4fd5-b70e-fba41e741d8a" x="471.271" y="74.244" width="8.126" height="2.763"/>
    <line class="uuid-be6596bb-140e-44ac-b3cd-f903de891ff0" x1="466.422" y1="75.415" x2="484.717" y2="75.415"/>
  </g>
</svg>