<?xml version="1.0" encoding="UTF-8"?>
<svg id="uuid-8b311bd0-58e3-431b-b3b3-4c38d0ab042a" data-name="Layer 1" xmlns="http://www.w3.org/2000/svg" width="595.276" height="419.572" viewBox="0 0 595.276 419.572">
  <defs>
    <style>
      .uuid-252a2574-09c8-484e-8440-3dde25004af6, .uuid-aa21b881-c867-412c-8bcf-25d0b103bf24, .uuid-06c16934-d9f5-43a9-8202-3fecc0d903e2, .uuid-1f78af32-1858-45f4-9c03-2299f39cf45f, .uuid-bf5c553a-c854-41b1-baf4-06bce7df8064, .uuid-3fef1dfa-c07e-4e92-a607-79a0dec1b941, .uuid-e07458f3-9c71-49a5-bc90-e2e730702647, .uuid-afe52204-ca06-43c9-b866-6c98d7243609, .uuid-f68526cd-b2f7-484c-8949-8b7ebd2797cd, .uuid-c15afbca-afb4-4132-aa4c-f08868276872, .uuid-14a30b48-bff7-4181-bdfd-40bd479e74c1, .uuid-0e01d510-be6a-4238-a017-4612efe44911, .uuid-431d4104-9e7d-4d0b-bcb3-76057763a40f, .uuid-27a84ed7-89d4-465f-89b3-af240a2eff89 {
        fill: none;
      }

      .uuid-252a2574-09c8-484e-8440-3dde25004af6, .uuid-aa21b881-c867-412c-8bcf-25d0b103bf24, .uuid-06c16934-d9f5-43a9-8202-3fecc0d903e2, .uuid-1f78af32-1858-45f4-9c03-2299f39cf45f, .uuid-bf5c553a-c854-41b1-baf4-06bce7df8064, .uuid-3fef1dfa-c07e-4e92-a607-79a0dec1b941, .uuid-e07458f3-9c71-49a5-bc90-e2e730702647, .uuid-afe52204-ca06-43c9-b866-6c98d7243609, .uuid-f68526cd-b2f7-484c-8949-8b7ebd2797cd, .uuid-c15afbca-afb4-4132-aa4c-f08868276872, .uuid-0e01d510-be6a-4238-a017-4612efe44911, .uuid-431d4104-9e7d-4d0b-bcb3-76057763a40f, .uuid-27a84ed7-89d4-465f-89b3-af240a2eff89 {
        stroke-linecap: round;
        stroke-linejoin: round;
      }

      .uuid-252a2574-09c8-484e-8440-3dde25004af6, .uuid-ad6af64a-c9b3-4915-b52c-88c0e97b1136, .uuid-1f78af32-1858-45f4-9c03-2299f39cf45f, .uuid-bf5c553a-c854-41b1-baf4-06bce7df8064, .uuid-3fef1dfa-c07e-4e92-a607-79a0dec1b941, .uuid-e07458f3-9c71-49a5-bc90-e2e730702647, .uuid-afe52204-ca06-43c9-b866-6c98d7243609, .uuid-f68526cd-b2f7-484c-8949-8b7ebd2797cd {
        stroke: #a1c2e7;
      }

      .uuid-aa21b881-c867-412c-8bcf-25d0b103bf24 {
        stroke-dasharray: 2.646 2.646;
      }

      .uuid-aa21b881-c867-412c-8bcf-25d0b103bf24, .uuid-06c16934-d9f5-43a9-8202-3fecc0d903e2, .uuid-c15afbca-afb4-4132-aa4c-f08868276872, .uuid-14a30b48-bff7-4181-bdfd-40bd479e74c1, .uuid-0e01d510-be6a-4238-a017-4612efe44911, .uuid-431d4104-9e7d-4d0b-bcb3-76057763a40f, .uuid-27a84ed7-89d4-465f-89b3-af240a2eff89 {
        stroke: #06c;
      }

      .uuid-4a692cb3-72dd-481e-9522-220bf5109732 {
        fill: #e6e6e6;
      }

      .uuid-ad6af64a-c9b3-4915-b52c-88c0e97b1136, .uuid-384d0f4d-fe56-416a-9b4c-8cc586e6d798 {
        fill: #fff;
      }

      .uuid-ad6af64a-c9b3-4915-b52c-88c0e97b1136, .uuid-14a30b48-bff7-4181-bdfd-40bd479e74c1 {
        stroke-miterlimit: 10;
      }

      .uuid-1f78af32-1858-45f4-9c03-2299f39cf45f {
        stroke-dasharray: 2.984 2.984;
      }

      .uuid-9fb95808-8231-4f62-977d-0962640b9a76 {
        fill: #c04589;
      }

      .uuid-bf5c553a-c854-41b1-baf4-06bce7df8064 {
        stroke-dasharray: 2.972 2.972;
      }

      .uuid-3fef1dfa-c07e-4e92-a607-79a0dec1b941 {
        stroke-dasharray: 2.972 2.972;
      }

      .uuid-e07458f3-9c71-49a5-bc90-e2e730702647 {
        stroke-dasharray: 2.882 2.882;
      }

      .uuid-afe52204-ca06-43c9-b866-6c98d7243609 {
        stroke-dasharray: 3.01 3.01;
      }

      .uuid-98ea2290-0bfa-4f5d-8732-d439d6bba6fe {
        fill: #06c;
      }

      .uuid-f68526cd-b2f7-484c-8949-8b7ebd2797cd {
        stroke-dasharray: 2.977 2.977;
      }

      .uuid-e3e43c8d-12b0-4295-a924-d36530a72b91 {
        fill: #ac6199;
      }

      .uuid-c15afbca-afb4-4132-aa4c-f08868276872 {
        stroke-dasharray: 3.064 3.064;
      }

      .uuid-0e01d510-be6a-4238-a017-4612efe44911 {
        stroke-dasharray: 3.5 3.5;
      }

      .uuid-293f6a49-e0e7-4bf1-b742-0adfb07af8f1 {
        fill: #dbe8f5;
      }

      .uuid-431d4104-9e7d-4d0b-bcb3-76057763a40f {
        stroke-dasharray: 3.14 3.14;
      }

      .uuid-79058d11-e058-4bc4-a8ca-ce864b1bc7b1 {
        fill: #953984;
      }

      .uuid-27a84ed7-89d4-465f-89b3-af240a2eff89 {
        stroke-dasharray: 2.062 2.062;
      }
    </style>
  </defs>
  <rect class="uuid-384d0f4d-fe56-416a-9b4c-8cc586e6d798" x="-.652" y="-.713" width="595.914" height="419.667"/>
  <g>
    <rect class="uuid-384d0f4d-fe56-416a-9b4c-8cc586e6d798" x="181.564" y="339.865" width="172.383" height="63.527"/>
    <g>
      <polyline class="uuid-252a2574-09c8-484e-8440-3dde25004af6" points="353.947 401.892 353.947 403.392 352.447 403.392"/>
      <line class="uuid-bf5c553a-c854-41b1-baf4-06bce7df8064" x1="349.475" y1="403.392" x2="184.55" y2="403.392"/>
      <polyline class="uuid-252a2574-09c8-484e-8440-3dde25004af6" points="183.064 403.392 181.564 403.392 181.564 401.892"/>
      <line class="uuid-e07458f3-9c71-49a5-bc90-e2e730702647" x1="181.564" y1="399.01" x2="181.564" y2="342.806"/>
      <polyline class="uuid-252a2574-09c8-484e-8440-3dde25004af6" points="181.564 341.365 181.564 339.865 183.064 339.865"/>
      <line class="uuid-bf5c553a-c854-41b1-baf4-06bce7df8064" x1="186.036" y1="339.865" x2="350.961" y2="339.865"/>
      <polyline class="uuid-252a2574-09c8-484e-8440-3dde25004af6" points="352.447 339.865 353.947 339.865 353.947 341.365"/>
      <line class="uuid-e07458f3-9c71-49a5-bc90-e2e730702647" x1="353.947" y1="344.247" x2="353.947" y2="400.451"/>
    </g>
  </g>
  <rect class="uuid-ad6af64a-c9b3-4915-b52c-88c0e97b1136" x="194.395" y="353.935" width="146.72" height="36.168"/>
  <g>
    <path d="M262.131,361.793h1.389l2.708,6.996h-1.29l-.719-1.959h-2.869l-.72,1.959h-1.249l2.749-6.996ZM263.89,365.891l-1.099-2.958-1.089,2.958h2.188Z"/>
    <path d="M266.992,363.782h1.109v.709c.36-.47.919-.75,1.559-.75,1.269,0,2.259,1.129,2.259,2.549,0,1.429-1.02,2.548-2.329,2.548-.59,0-1.109-.22-1.469-.64v2.679h-1.129v-7.096ZM270.81,366.291c0-.91-.64-1.599-1.489-1.599-.5,0-.91.2-1.199.56v2.089c.29.35.72.56,1.199.56.859,0,1.489-.689,1.489-1.609Z"/>
    <path d="M273.102,363.782h1.109v.709c.36-.47.919-.75,1.559-.75,1.27,0,2.259,1.129,2.259,2.549,0,1.429-1.02,2.548-2.329,2.548-.59,0-1.109-.22-1.469-.64v2.679h-1.129v-7.096ZM276.919,366.291c0-.91-.64-1.599-1.489-1.599-.5,0-.91.2-1.199.56v2.089c.29.35.72.56,1.199.56.859,0,1.489-.689,1.489-1.609Z"/>
    <path d="M283.57,361.793h1.389l2.708,6.996h-1.29l-.719-1.959h-2.869l-.72,1.959h-1.249l2.749-6.996ZM285.329,365.891l-1.099-2.958-1.089,2.958h2.188Z"/>
    <path d="M251.827,373.793h1.22l1.039,5.127,1.5-5.127h1.139l1.499,5.117,1.04-5.117h1.179l-1.529,6.996h-1.25l-1.529-5.287-1.529,5.287h-1.25l-1.529-6.996Z"/>
    <path d="M260.857,379.35c0-.9.739-1.469,1.919-1.469.47,0,.909.1,1.349.32v-.56c0-.66-.38-1-1.149-1-.42,0-.879.12-1.459.39l-.4-.82c.75-.34,1.409-.51,2.079-.51,1.31,0,2.049.66,2.049,1.819v3.268h-1.119v-.52c-.43.419-.91.609-1.489.609-1.049,0-1.779-.629-1.779-1.529ZM262.946,380.08c.45,0,.839-.13,1.179-.42v-.81c-.36-.17-.72-.24-1.149-.24-.649,0-1.06.27-1.06.72,0,.459.4.75,1.03.75Z"/>
    <path d="M266.316,382.908v-.979c.13.03.29.04.44.04.4,0,.64-.18.81-.569l.23-.56-1.889-5.057h1.25l1.279,3.708,1.389-3.708h1.239l-2.398,5.877c-.39.969-.85,1.319-1.789,1.319-.16,0-.36-.02-.56-.07Z"/>
    <path d="M271.887,375.782h1.109v.709c.36-.47.919-.75,1.559-.75,1.27,0,2.259,1.129,2.259,2.549,0,1.429-1.02,2.548-2.329,2.548-.59,0-1.109-.22-1.469-.64v2.679h-1.129v-7.096ZM275.705,378.291c0-.91-.64-1.599-1.489-1.599-.5,0-.91.2-1.199.56v2.089c.29.35.72.56,1.199.56.859,0,1.489-.689,1.489-1.609Z"/>
    <path d="M277.767,378.291c0-1.479,1.08-2.589,2.519-2.589,1.429,0,2.509,1.109,2.509,2.589s-1.08,2.588-2.509,2.588c-1.439,0-2.519-1.109-2.519-2.588ZM281.685,378.291c0-.93-.59-1.629-1.399-1.629-.819,0-1.409.7-1.409,1.629,0,.939.59,1.629,1.409,1.629.81,0,1.399-.689,1.399-1.629Z"/>
    <path d="M283.826,374.073c0-.38.31-.7.7-.7.38,0,.7.32.7.7s-.32.689-.7.689c-.39,0-.7-.31-.7-.689ZM283.956,375.782h1.129v5.007h-1.129v-5.007Z"/>
    <path d="M286.486,375.782h1.129v.82c.38-.59.929-.9,1.579-.9,1.029,0,1.749.73,1.749,1.789v3.298h-1.14v-2.979c0-.729-.43-1.199-1.099-1.199-.46,0-.83.21-1.089.61v3.568h-1.129v-5.007Z"/>
    <path d="M292.776,379.49v-2.809h-1v-.899h1v-1.379l1.129-.24v1.619h1.389v.899h-1.389v2.559c0,.49.19.68.7.68.22,0,.379-.03.68-.12v.949c-.29.09-.67.14-.97.14-1.009,0-1.539-.48-1.539-1.399Z"/>
  </g>
  <rect class="uuid-4a692cb3-72dd-481e-9522-220bf5109732" x="87.302" y="13.201" width="420.671" height="161.48"/>
  <g>
    <rect class="uuid-384d0f4d-fe56-416a-9b4c-8cc586e6d798" x="98.832" y="45.135" width="131.291" height="118.908"/>
    <g>
      <polyline class="uuid-252a2574-09c8-484e-8440-3dde25004af6" points="230.122 162.543 230.122 164.043 228.622 164.043"/>
      <line class="uuid-1f78af32-1858-45f4-9c03-2299f39cf45f" x1="225.639" y1="164.043" x2="101.823" y2="164.043"/>
      <polyline class="uuid-252a2574-09c8-484e-8440-3dde25004af6" points="100.332 164.043 98.832 164.043 98.832 162.543"/>
      <line class="uuid-3fef1dfa-c07e-4e92-a607-79a0dec1b941" x1="98.832" y1="159.571" x2="98.832" y2="48.121"/>
      <polyline class="uuid-252a2574-09c8-484e-8440-3dde25004af6" points="98.832 46.635 98.832 45.135 100.332 45.135"/>
      <line class="uuid-1f78af32-1858-45f4-9c03-2299f39cf45f" x1="103.315" y1="45.135" x2="227.131" y2="45.135"/>
      <polyline class="uuid-252a2574-09c8-484e-8440-3dde25004af6" points="228.622 45.135 230.122 45.135 230.122 46.635"/>
      <line class="uuid-3fef1dfa-c07e-4e92-a607-79a0dec1b941" x1="230.122" y1="49.607" x2="230.122" y2="161.057"/>
    </g>
  </g>
  <rect class="uuid-293f6a49-e0e7-4bf1-b742-0adfb07af8f1" x="106.02" y="53.035" width="116.913" height="86.011"/>
  <rect class="uuid-98ea2290-0bfa-4f5d-8732-d439d6bba6fe" x="112.922" y="74.898" width="103.109" height="25.406"/>
  <rect class="uuid-384d0f4d-fe56-416a-9b4c-8cc586e6d798" x="112.922" y="107.305" width="103.109" height="25.406"/>
  <g>
    <path class="uuid-384d0f4d-fe56-416a-9b4c-8cc586e6d798" d="M153.081,83.375h1.389l2.709,6.996h-1.29l-.719-1.959h-2.869l-.72,1.959h-1.249l2.749-6.996ZM154.84,87.473l-1.1-2.958-1.089,2.958h2.188Z"/>
    <path class="uuid-384d0f4d-fe56-416a-9b4c-8cc586e6d798" d="M157.941,85.364h1.109v.709c.36-.47.92-.75,1.56-.75,1.269,0,2.259,1.129,2.259,2.549,0,1.429-1.02,2.548-2.329,2.548-.59,0-1.109-.22-1.469-.64v2.679h-1.13v-7.096ZM161.76,87.873c0-.91-.64-1.599-1.489-1.599-.5,0-.91.2-1.199.56v2.089c.289.35.72.56,1.199.56.859,0,1.489-.689,1.489-1.609Z"/>
    <path class="uuid-384d0f4d-fe56-416a-9b4c-8cc586e6d798" d="M164.052,85.364h1.109v.709c.359-.47.919-.75,1.559-.75,1.27,0,2.259,1.129,2.259,2.549,0,1.429-1.02,2.548-2.328,2.548-.59,0-1.109-.22-1.47-.64v2.679h-1.129v-7.096ZM167.869,87.873c0-.91-.64-1.599-1.489-1.599-.499,0-.909.2-1.199.56v2.089c.29.35.72.56,1.199.56.859,0,1.489-.689,1.489-1.609Z"/>
    <path class="uuid-384d0f4d-fe56-416a-9b4c-8cc586e6d798" d="M174.521,83.375h1.389l2.709,6.996h-1.29l-.719-1.959h-2.869l-.72,1.959h-1.249l2.749-6.996ZM176.279,87.473l-1.1-2.958-1.089,2.958h2.188Z"/>
  </g>
  <g>
    <path d="M113.702,59.337h3.418c1.489,0,2.469.969,2.469,2.309,0,1.27-.979,2.249-2.469,2.249h-1.699v2.438h-1.719v-6.996ZM116.81,62.525c.7,0,1.04-.379,1.04-.889,0-.5-.34-.88-1.029-.88h-1.399v1.769h1.389Z"/>
    <path d="M120.022,63.765c0-1.52,1.159-2.669,2.688-2.669s2.688,1.149,2.688,2.669-1.159,2.668-2.688,2.668-2.688-1.149-2.688-2.668ZM123.82,63.765c0-.77-.46-1.319-1.109-1.319s-1.109.549-1.109,1.319.459,1.319,1.109,1.319,1.109-.549,1.109-1.319Z"/>
    <path d="M126.202,63.745c0-1.449,1.059-2.599,2.398-2.599.54,0,1.03.22,1.379.62v-2.549l1.619-.25v7.366h-1.599v-.669c-.34.43-.91.699-1.519.699-1.27,0-2.279-1.169-2.279-2.618ZM129.98,64.614v-1.739c-.25-.26-.59-.4-.959-.4-.709,0-1.229.54-1.229,1.279,0,.729.53,1.27,1.229,1.27.39,0,.709-.14.959-.41Z"/>
  </g>
  <g>
    <path d="M99.021,31.447l.879-1.269c.97.68,1.579.93,2.269.93.739,0,1.189-.3,1.189-.74,0-.41-.24-.61-.919-.729l-1.489-.26c-1.109-.189-1.719-.889-1.719-1.879,0-1.359,1.04-2.208,2.778-2.208,1.08,0,2.149.35,2.869.919l-.87,1.249c-.68-.52-1.349-.77-2.089-.77-.68,0-1.069.28-1.069.66,0,.36.229.54.79.64l1.399.24c1.31.22,1.999.909,1.999,1.979,0,1.37-1.159,2.299-2.988,2.299-1.109,0-2.099-.37-3.028-1.06Z"/>
    <path d="M105.911,25.54c0-.5.41-.909.91-.909s.909.41.909.909-.41.91-.909.91-.91-.41-.91-.91ZM106.011,27.239h1.619v5.157h-1.619v-5.157Z"/>
    <path d="M108.661,29.808c0-1.449,1.059-2.599,2.398-2.599.54,0,1.03.22,1.379.62v-2.549l1.619-.25v7.366h-1.599v-.669c-.34.43-.91.699-1.519.699-1.27,0-2.279-1.169-2.279-2.618ZM112.439,30.677v-1.739c-.25-.26-.59-.4-.959-.4-.709,0-1.229.54-1.229,1.279,0,.729.53,1.27,1.229,1.27.39,0,.709-.14.959-.41Z"/>
    <path d="M115.091,29.828c0-1.509,1.119-2.669,2.599-2.669,1.489,0,2.539,1.129,2.539,2.729v.35h-3.548c.15.58.62.969,1.209.969.43,0,.79-.15,1.02-.43l1.069.89c-.669.589-1.299.83-2.169.83-1.519,0-2.718-1.169-2.718-2.668ZM118.729,29.319c-.14-.55-.529-.9-1.049-.9-.51,0-.87.33-1,.9h2.049Z"/>
    <path d="M121.061,29.828c0-1.509,1.159-2.669,2.668-2.669.85,0,1.629.34,2.149.95l-.99.989c-.33-.39-.66-.56-1.099-.56-.64,0-1.12.55-1.12,1.29s.48,1.289,1.12,1.289c.439,0,.77-.17,1.099-.56l.99.989c-.52.61-1.299.95-2.149.95-1.509,0-2.668-1.16-2.668-2.668Z"/>
    <path d="M126.441,30.918c0-.95.74-1.5,2.009-1.5.37,0,.74.07,1.2.24v-.42c0-.5-.33-.75-1.02-.75-.39,0-.85.11-1.449.36l-.56-1.129c.85-.38,1.609-.56,2.369-.56,1.429,0,2.259.71,2.259,1.939v3.298h-1.599v-.45c-.45.38-.879.53-1.429.53-1.05,0-1.779-.64-1.779-1.559ZM128.72,31.407c.34,0,.65-.09.93-.26v-.66c-.3-.07-.59-.11-.89-.11-.53,0-.83.18-.83.51s.29.52.79.52Z"/>
    <path d="M132.471,27.239h1.619v1.169c.33-.859.79-1.27,1.399-1.27.23.01.34.03.54.13v1.389c-.2-.1-.479-.16-.759-.16-.48,0-.919.25-1.18.64v3.258h-1.619v-5.157Z"/>
    <path d="M139.041,27.239h1.619v.82c.38-.59.9-.9,1.529-.9.67,0,1.199.37,1.449.959.4-.62.979-.959,1.689-.959.95,0,1.619.75,1.619,1.809v3.428h-1.619v-3.108c0-.52-.31-.859-.77-.859-.3,0-.54.12-.75.39v3.578h-1.619v-3.108c0-.52-.31-.859-.77-.859-.3,0-.55.13-.76.4v3.568h-1.619v-5.157Z"/>
    <path d="M147.941,29.828c0-1.52,1.159-2.669,2.688-2.669s2.688,1.149,2.688,2.669-1.159,2.668-2.688,2.668-2.688-1.149-2.688-2.668ZM151.739,29.828c0-.77-.46-1.319-1.109-1.319s-1.109.549-1.109,1.319.459,1.319,1.109,1.319,1.109-.549,1.109-1.319Z"/>
    <path d="M154.121,29.808c0-1.449,1.059-2.599,2.398-2.599.54,0,1.03.22,1.379.62v-2.549l1.619-.25v7.366h-1.599v-.669c-.34.43-.91.699-1.519.699-1.27,0-2.279-1.169-2.279-2.618ZM157.898,30.677v-1.739c-.25-.26-.59-.4-.959-.4-.709,0-1.229.54-1.229,1.279,0,.729.53,1.27,1.229,1.27.39,0,.709-.14.959-.41Z"/>
    <path d="M160.551,29.828c0-1.509,1.119-2.669,2.599-2.669,1.489,0,2.539,1.129,2.539,2.729v.35h-3.548c.15.58.62.969,1.209.969.43,0,.79-.15,1.02-.43l1.069.89c-.669.589-1.299.83-2.169.83-1.519,0-2.718-1.169-2.718-2.668ZM164.188,29.319c-.14-.55-.529-.9-1.049-.9-.51,0-.87.33-1,.9h2.049Z"/>
    <path d="M168.91,29.948c0-2.049.85-3.698,2.429-4.667l.59.729c-1.29.83-1.999,2.219-1.999,3.938,0,1.729.709,3.118,1.999,3.948l-.59.72c-1.579-.969-2.429-2.619-2.429-4.667Z"/>
    <path d="M173.58,31.097v-2.809h-1v-.899h1v-1.379l1.129-.24v1.619h1.389v.899h-1.389v2.559c0,.49.19.68.7.68.22,0,.379-.03.68-.12v.949c-.29.09-.67.14-.97.14-1.009,0-1.539-.48-1.539-1.399Z"/>
    <path d="M177.1,27.389h1.129v1.08c.28-.76.759-1.169,1.379-1.169.19.01.32.03.49.1v.989c-.18-.07-.41-.12-.62-.12-.549,0-1,.31-1.249.83v3.298h-1.129v-5.007Z"/>
    <path d="M180.62,30.958c0-.9.739-1.469,1.919-1.469.47,0,.909.1,1.349.32v-.56c0-.66-.38-1-1.149-1-.42,0-.879.12-1.459.39l-.4-.82c.75-.34,1.409-.51,2.079-.51,1.31,0,2.049.66,2.049,1.819v3.268h-1.119v-.52c-.43.419-.91.609-1.489.609-1.049,0-1.779-.629-1.779-1.529ZM182.709,31.687c.45,0,.839-.13,1.179-.42v-.81c-.36-.17-.72-.24-1.149-.24-.649,0-1.06.27-1.06.72,0,.459.4.75,1.03.75Z"/>
    <path d="M186.15,29.898c0-1.429,1.029-2.549,2.339-2.549.569,0,1.089.23,1.459.65v-2.769l1.129-.2v7.366h-1.119v-.66c-.36.45-.919.709-1.549.709-1.27,0-2.259-1.129-2.259-2.548ZM189.948,30.947v-2.109c-.29-.34-.72-.54-1.189-.54-.859,0-1.499.68-1.499,1.599,0,.909.64,1.599,1.499,1.599.49,0,.9-.19,1.189-.55Z"/>
    <path d="M192.339,25.68c0-.38.31-.7.7-.7.38,0,.7.32.7.7s-.32.689-.7.689c-.39,0-.7-.31-.7-.689ZM192.469,27.389h1.129v5.007h-1.129v-5.007Z"/>
    <path d="M195.619,31.097v-2.809h-1v-.899h1v-1.379l1.129-.24v1.619h1.389v.899h-1.389v2.559c0,.49.19.68.7.68.22,0,.379-.03.68-.12v.949c-.29.09-.67.14-.97.14-1.009,0-1.539-.48-1.539-1.399Z"/>
    <path d="M199,25.68c0-.38.31-.7.7-.7.38,0,.7.32.7.7s-.32.689-.7.689c-.39,0-.7-.31-.7-.689ZM199.129,27.389h1.129v5.007h-1.129v-5.007Z"/>
    <path d="M201.43,29.898c0-1.479,1.08-2.589,2.519-2.589,1.429,0,2.509,1.109,2.509,2.589s-1.08,2.588-2.509,2.588c-1.439,0-2.519-1.109-2.519-2.588ZM205.348,29.898c0-.93-.59-1.629-1.399-1.629-.819,0-1.409.7-1.409,1.629,0,.939.59,1.629,1.409,1.629.81,0,1.399-.689,1.399-1.629Z"/>
    <path d="M207.629,27.389h1.129v.82c.38-.59.929-.9,1.579-.9,1.029,0,1.749.73,1.749,1.789v3.298h-1.14v-2.979c0-.729-.43-1.199-1.099-1.199-.46,0-.83.21-1.089.61v3.568h-1.129v-5.007Z"/>
    <path d="M213.189,30.958c0-.9.739-1.469,1.919-1.469.47,0,.909.1,1.349.32v-.56c0-.66-.38-1-1.149-1-.42,0-.879.12-1.459.39l-.4-.82c.75-.34,1.409-.51,2.079-.51,1.31,0,2.049.66,2.049,1.819v3.268h-1.119v-.52c-.43.419-.91.609-1.489.609-1.049,0-1.779-.629-1.779-1.529ZM215.278,31.687c.45,0,.839-.13,1.179-.42v-.81c-.36-.17-.72-.24-1.149-.24-.649,0-1.06.27-1.06.72,0,.459.4.75,1.03.75Z"/>
    <path d="M218.949,25.231l1.129-.2v7.366h-1.129v-7.166Z"/>
    <path d="M224.218,29.958c0,2.049-.85,3.698-2.429,4.667l-.59-.73c1.29-.83,1.999-2.219,1.999-3.938,0-1.729-.709-3.119-1.999-3.948l.59-.719c1.579.969,2.429,2.619,2.429,4.667Z"/>
  </g>
  <g>
    <path class="uuid-79058d11-e058-4bc4-a8ca-ce864b1bc7b1" d="M154.849,119.631l.037,1.554-1.835.791.091,3.892,3.742,2.319,1.66-.716,1.494.926-2.754,1.187c-.02.008-.041.016-.063.023-.213.067-.465.032-.674-.098h0l-4.488-2.781c-.231-.144-.378-.38-.383-.621h0l-.11-4.669c-.005-.241.13-.448.355-.546h0l2.928-1.262ZM160.464,123.684c.021.014.04.029.061.043h0l1.434.889.036,1.522-1.495-.926-.036-1.528ZM158,119.677l1.637,1.014.037,1.555-1.637-1.015-.037-1.554Z"/>
    <path class="uuid-e3e43c8d-12b0-4295-a924-d36530a72b91" d="M159.528,116.052l.043,1.814-2.306.993.124,5.266,5.062,3.137,2.23-.961,1.743,1.08-3.505,1.511c-.024.011-.049.02-.074.028-.248.078-.542.037-.786-.114h0l-5.933-3.678c-.27-.167-.441-.442-.446-.722h0l-.146-6.173c-.007-.28.151-.522.414-.637h0l3.581-1.544ZM163.081,115.488l5.449,3.377c.27.167.44.444.447.724h0l.133,5.635-.09.039-1.65-1.023-.103-4.372-4.315-2.673-.039-1.634.168-.073Z"/>
    <path class="uuid-9fb95808-8231-4f62-977d-0962640b9a76" d="M168.959,126.068l-6.612-4.097-.163-6.877,6.45-2.78,6.611,4.096.163,6.877-6.449,2.781ZM176.692,115.264l-7.608-4.716c-.281-.174-.615-.22-.901-.129-.028.009-.056.019-.083.031l-7.421,3.2c-.301.13-.481.406-.474.726l.187,7.914c.007.321.203.635.511.827l7.607,4.714c.28.173.614.22.899.13.028-.009.057-.02.085-.032l7.421-3.199c.301-.13.481-.407.473-.728l-.186-7.913c-.008-.321-.203-.636-.511-.827h0Z"/>
  </g>
  <g>
    <rect class="uuid-384d0f4d-fe56-416a-9b4c-8cc586e6d798" x="240.163" y="45.135" width="256.06" height="118.908"/>
    <g>
      <polyline class="uuid-252a2574-09c8-484e-8440-3dde25004af6" points="496.223 162.543 496.223 164.043 494.723 164.043"/>
      <line class="uuid-f68526cd-b2f7-484c-8949-8b7ebd2797cd" x1="491.746" y1="164.043" x2="243.151" y2="164.043"/>
      <polyline class="uuid-252a2574-09c8-484e-8440-3dde25004af6" points="241.663 164.043 240.163 164.043 240.163 162.543"/>
      <line class="uuid-3fef1dfa-c07e-4e92-a607-79a0dec1b941" x1="240.163" y1="159.571" x2="240.163" y2="48.121"/>
      <polyline class="uuid-252a2574-09c8-484e-8440-3dde25004af6" points="240.163 46.635 240.163 45.135 241.663 45.135"/>
      <line class="uuid-f68526cd-b2f7-484c-8949-8b7ebd2797cd" x1="244.64" y1="45.135" x2="493.234" y2="45.135"/>
      <polyline class="uuid-252a2574-09c8-484e-8440-3dde25004af6" points="494.723 45.135 496.223 45.135 496.223 46.635"/>
      <line class="uuid-3fef1dfa-c07e-4e92-a607-79a0dec1b941" x1="496.223" y1="49.607" x2="496.223" y2="161.057"/>
    </g>
  </g>
  <rect class="uuid-293f6a49-e0e7-4bf1-b742-0adfb07af8f1" x="247.351" y="53.035" width="116.913" height="86.011"/>
  <rect class="uuid-98ea2290-0bfa-4f5d-8732-d439d6bba6fe" x="254.253" y="74.898" width="103.109" height="25.406"/>
  <rect class="uuid-384d0f4d-fe56-416a-9b4c-8cc586e6d798" x="254.253" y="107.305" width="103.109" height="25.406"/>
  <g>
    <path class="uuid-384d0f4d-fe56-416a-9b4c-8cc586e6d798" d="M294.417,83.375h1.389l2.708,6.996h-1.29l-.719-1.959h-2.869l-.72,1.959h-1.249l2.749-6.996ZM296.175,87.473l-1.099-2.958-1.089,2.958h2.188Z"/>
    <path class="uuid-384d0f4d-fe56-416a-9b4c-8cc586e6d798" d="M299.277,85.364h1.109v.709c.36-.47.92-.75,1.56-.75,1.269,0,2.259,1.129,2.259,2.549,0,1.429-1.02,2.548-2.329,2.548-.59,0-1.109-.22-1.469-.64v2.679h-1.13v-7.096ZM303.096,87.873c0-.91-.64-1.599-1.489-1.599-.5,0-.91.2-1.199.56v2.089c.289.35.72.56,1.199.56.859,0,1.489-.689,1.489-1.609Z"/>
    <path class="uuid-384d0f4d-fe56-416a-9b4c-8cc586e6d798" d="M305.388,85.364h1.109v.709c.359-.47.919-.75,1.559-.75,1.27,0,2.259,1.129,2.259,2.549,0,1.429-1.02,2.548-2.328,2.548-.59,0-1.109-.22-1.47-.64v2.679h-1.129v-7.096ZM309.205,87.873c0-.91-.64-1.599-1.489-1.599-.499,0-.909.2-1.199.56v2.089c.29.35.72.56,1.199.56.859,0,1.489-.689,1.489-1.609Z"/>
    <path class="uuid-384d0f4d-fe56-416a-9b4c-8cc586e6d798" d="M313.887,83.375h3.119c1.309,0,2.198.75,2.198,1.839,0,.709-.439,1.279-1.14,1.549.84.25,1.38.859,1.38,1.659,0,1.159-.93,1.949-2.309,1.949h-3.249v-6.996ZM316.876,86.323c.679,0,1.129-.39,1.129-.989,0-.59-.439-.979-1.129-.979h-1.789v1.969h1.789ZM316.985,89.392c.76,0,1.249-.43,1.249-1.08s-.479-1.069-1.249-1.069h-1.898v2.149h1.898Z"/>
  </g>
  <g>
    <path d="M255.033,59.337h3.418c1.489,0,2.469.969,2.469,2.309,0,1.27-.979,2.249-2.469,2.249h-1.699v2.438h-1.719v-6.996ZM258.141,62.525c.7,0,1.04-.379,1.04-.889,0-.5-.34-.88-1.029-.88h-1.399v1.769h1.389Z"/>
    <path d="M261.354,63.765c0-1.52,1.159-2.669,2.688-2.669s2.688,1.149,2.688,2.669-1.159,2.668-2.688,2.668-2.688-1.149-2.688-2.668ZM265.151,63.765c0-.77-.46-1.319-1.109-1.319s-1.109.549-1.109,1.319.459,1.319,1.109,1.319,1.109-.549,1.109-1.319Z"/>
    <path d="M267.533,63.745c0-1.449,1.059-2.599,2.398-2.599.54,0,1.03.22,1.379.62v-2.549l1.619-.25v7.366h-1.599v-.669c-.34.43-.91.699-1.519.699-1.27,0-2.279-1.169-2.279-2.618ZM271.311,64.614v-1.739c-.25-.26-.59-.4-.959-.4-.709,0-1.229.54-1.229,1.279,0,.729.53,1.27,1.229,1.27.39,0,.709-.14.959-.41Z"/>
  </g>
  <g>
    <path class="uuid-79058d11-e058-4bc4-a8ca-ce864b1bc7b1" d="M296.18,119.631l.037,1.554-1.835.791.091,3.892,3.742,2.319,1.66-.716,1.494.926-2.754,1.187c-.02.008-.041.016-.063.023-.213.067-.465.032-.674-.098h0l-4.488-2.781c-.231-.144-.378-.38-.383-.621h0l-.11-4.669c-.005-.241.13-.448.355-.546h0l2.928-1.262ZM301.795,123.684c.021.014.04.029.061.043h0l1.434.889.036,1.522-1.495-.926-.036-1.528ZM299.331,119.677l1.637,1.014.037,1.555-1.637-1.015-.037-1.554Z"/>
    <path class="uuid-e3e43c8d-12b0-4295-a924-d36530a72b91" d="M300.859,116.052l.043,1.814-2.306.993.124,5.266,5.062,3.137,2.23-.961,1.743,1.08-3.505,1.511c-.024.011-.049.02-.074.028-.248.078-.542.037-.786-.114h0l-5.933-3.678c-.27-.167-.441-.442-.446-.722h0l-.146-6.173c-.007-.28.151-.522.414-.637h0l3.581-1.544ZM304.412,115.488l5.449,3.377c.27.167.44.444.447.724h0l.133,5.635-.09.039-1.65-1.023-.103-4.372-4.315-2.673-.039-1.634.168-.073Z"/>
    <path class="uuid-9fb95808-8231-4f62-977d-0962640b9a76" d="M310.29,126.068l-6.612-4.097-.163-6.877,6.45-2.78,6.611,4.096.163,6.877-6.449,2.781ZM318.022,115.264l-7.608-4.716c-.281-.174-.615-.22-.901-.129-.028.009-.056.019-.083.031l-7.421,3.2c-.301.13-.481.406-.474.726l.187,7.914c.007.321.203.635.511.827l7.607,4.714c.28.173.614.22.899.13.028-.009.057-.02.085-.032l7.421-3.199c.301-.13.481-.407.473-.728l-.186-7.913c-.008-.321-.203-.636-.511-.827h0Z"/>
  </g>
  <g>
    <path class="uuid-79058d11-e058-4bc4-a8ca-ce864b1bc7b1" d="M209.854,370.586l.037,1.554-1.835.791.091,3.892,3.742,2.319,1.66-.716,1.494.926-2.754,1.187c-.02.008-.041.016-.063.023-.213.067-.465.032-.674-.098h0l-4.488-2.781c-.231-.144-.378-.38-.383-.621h0l-.11-4.669c-.005-.241.13-.448.355-.546h0l2.928-1.262ZM215.469,374.638c.021.014.04.029.061.043h0l1.434.889.036,1.522-1.495-.926-.036-1.528ZM213.005,370.632l1.637,1.014.037,1.555-1.637-1.015-.037-1.554Z"/>
    <path class="uuid-e3e43c8d-12b0-4295-a924-d36530a72b91" d="M214.532,367.007l.043,1.814-2.306.993.124,5.266,5.062,3.137,2.23-.961,1.743,1.08-3.505,1.511c-.024.011-.049.02-.074.028-.248.078-.542.037-.786-.114h0l-5.933-3.678c-.27-.167-.441-.442-.446-.722h0l-.146-6.173c-.007-.28.151-.522.414-.637h0l3.581-1.544ZM218.085,366.442l5.449,3.377c.27.167.44.444.447.724h0l.133,5.635-.09.039-1.65-1.023-.103-4.372-4.315-2.673-.039-1.634.168-.073Z"/>
    <path class="uuid-9fb95808-8231-4f62-977d-0962640b9a76" d="M223.964,377.023l-6.612-4.097-.163-6.877,6.45-2.78,6.611,4.096.163,6.877-6.449,2.781ZM231.696,366.219l-7.608-4.716c-.281-.174-.615-.22-.901-.129-.028.009-.056.019-.083.031l-7.421,3.2c-.301.13-.481.406-.474.726l.187,7.914c.007.321.203.635.511.827l7.607,4.714c.28.173.614.22.899.13.028-.009.057-.02.085-.032l7.421-3.199c.301-.13.481-.407.473-.728l-.186-7.913c-.008-.321-.203-.636-.511-.827h0Z"/>
  </g>
  <rect class="uuid-293f6a49-e0e7-4bf1-b742-0adfb07af8f1" x="371.078" y="53.035" width="116.913" height="86.011"/>
  <rect class="uuid-98ea2290-0bfa-4f5d-8732-d439d6bba6fe" x="377.98" y="74.898" width="103.109" height="25.406"/>
  <rect class="uuid-384d0f4d-fe56-416a-9b4c-8cc586e6d798" x="377.98" y="107.305" width="103.109" height="25.406"/>
  <g>
    <path class="uuid-384d0f4d-fe56-416a-9b4c-8cc586e6d798" d="M418.008,83.375h1.39l2.708,6.996h-1.289l-.72-1.959h-2.868l-.72,1.959h-1.249l2.748-6.996ZM419.767,87.473l-1.099-2.958-1.09,2.958h2.188Z"/>
    <path class="uuid-384d0f4d-fe56-416a-9b4c-8cc586e6d798" d="M422.869,85.364h1.109v.709c.359-.47.919-.75,1.559-.75,1.27,0,2.259,1.129,2.259,2.549,0,1.429-1.02,2.548-2.328,2.548-.59,0-1.109-.22-1.47-.64v2.679h-1.129v-7.096ZM426.687,87.873c0-.91-.64-1.599-1.489-1.599-.499,0-.909.2-1.199.56v2.089c.29.35.72.56,1.199.56.859,0,1.489-.689,1.489-1.609Z"/>
    <path class="uuid-384d0f4d-fe56-416a-9b4c-8cc586e6d798" d="M428.979,85.364h1.109v.709c.359-.47.919-.75,1.559-.75,1.27,0,2.259,1.129,2.259,2.549,0,1.429-1.02,2.548-2.328,2.548-.59,0-1.109-.22-1.47-.64v2.679h-1.129v-7.096ZM432.797,87.873c0-.91-.64-1.599-1.489-1.599-.499,0-.909.2-1.199.56v2.089c.29.35.72.56,1.199.56.859,0,1.489-.689,1.489-1.609Z"/>
    <path class="uuid-384d0f4d-fe56-416a-9b4c-8cc586e6d798" d="M437.148,86.873c0-2.029,1.579-3.608,3.618-3.608,1.069,0,2.089.459,2.729,1.249l-.8.78c-.499-.62-1.189-.95-1.929-.95-1.359,0-2.389,1.089-2.389,2.529s1.029,2.529,2.389,2.529c.739,0,1.43-.33,1.929-.95l.8.78c-.64.79-1.659,1.249-2.729,1.249-2.039,0-3.618-1.579-3.618-3.608Z"/>
  </g>
  <g>
    <path d="M378.76,59.337h3.418c1.489,0,2.469.969,2.469,2.309,0,1.27-.979,2.249-2.469,2.249h-1.699v2.438h-1.719v-6.996ZM381.868,62.525c.699,0,1.039-.379,1.039-.889,0-.5-.34-.88-1.029-.88h-1.399v1.769h1.39Z"/>
    <path d="M385.08,63.765c0-1.52,1.159-2.669,2.688-2.669s2.688,1.149,2.688,2.669-1.159,2.668-2.688,2.668-2.688-1.149-2.688-2.668ZM388.878,63.765c0-.77-.46-1.319-1.109-1.319s-1.109.549-1.109,1.319.46,1.319,1.109,1.319,1.109-.549,1.109-1.319Z"/>
    <path d="M391.26,63.745c0-1.449,1.06-2.599,2.398-2.599.54,0,1.03.22,1.38.62v-2.549l1.619-.25v7.366h-1.6v-.669c-.34.43-.909.699-1.519.699-1.27,0-2.279-1.169-2.279-2.618ZM395.038,64.614v-1.739c-.25-.26-.59-.4-.96-.4-.709,0-1.229.54-1.229,1.279,0,.729.53,1.27,1.229,1.27.39,0,.71-.14.96-.41Z"/>
  </g>
  <g>
    <path class="uuid-79058d11-e058-4bc4-a8ca-ce864b1bc7b1" d="M419.906,119.631l.037,1.554-1.835.791.091,3.892,3.742,2.319,1.66-.716,1.494.926-2.754,1.187c-.02.008-.041.016-.063.023-.213.067-.465.032-.674-.098h0l-4.488-2.781c-.231-.144-.378-.38-.383-.621h0l-.11-4.669c-.005-.241.13-.448.355-.546h0l2.928-1.262ZM425.522,123.684c.021.014.04.029.061.043h0l1.434.889.036,1.522-1.495-.926-.036-1.528ZM423.058,119.677l1.637,1.014.037,1.555-1.637-1.015-.037-1.554Z"/>
    <path class="uuid-e3e43c8d-12b0-4295-a924-d36530a72b91" d="M424.585,116.052l.043,1.814-2.306.993.124,5.266,5.062,3.137,2.23-.961,1.743,1.08-3.505,1.511c-.024.011-.049.02-.074.028-.248.078-.542.037-.786-.114h0l-5.933-3.678c-.27-.167-.441-.442-.446-.722h0l-.146-6.173c-.007-.28.151-.522.414-.637h0l3.581-1.544ZM428.138,115.488l5.449,3.377c.27.167.44.444.447.724h0l.133,5.635-.09.039-1.65-1.023-.103-4.372-4.315-2.673-.039-1.634.168-.073Z"/>
    <path class="uuid-9fb95808-8231-4f62-977d-0962640b9a76" d="M434.017,126.068l-6.612-4.097-.163-6.877,6.45-2.78,6.611,4.096.163,6.877-6.449,2.781ZM441.749,115.264l-7.608-4.716c-.281-.174-.615-.22-.901-.129-.028.009-.056.019-.083.031l-7.421,3.2c-.301.13-.481.406-.474.726l.187,7.914c.007.321.203.635.511.827l7.607,4.714c.28.173.614.22.899.13.028-.009.057-.02.085-.032l7.421-3.199c.301-.13.481-.407.473-.728l-.186-7.913c-.008-.321-.203-.636-.511-.827h0Z"/>
  </g>
  <polyline class="uuid-14a30b48-bff7-4181-bdfd-40bd479e74c1" points="162.952 139.331 162.952 152.057 301.84 152.057 301.84 139.331"/>
  <polyline class="uuid-14a30b48-bff7-4181-bdfd-40bd479e74c1" points="310.737 139.331 310.737 152.057 429.603 152.057 429.603 139.331"/>
  <rect class="uuid-4a692cb3-72dd-481e-9522-220bf5109732" x="87.302" y="185.071" width="420.671" height="145.959"/>
  <g>
    <rect class="uuid-384d0f4d-fe56-416a-9b4c-8cc586e6d798" x="98.832" y="217.005" width="131.291" height="102.317"/>
    <g>
      <polyline class="uuid-252a2574-09c8-484e-8440-3dde25004af6" points="230.122 317.822 230.122 319.322 228.622 319.322"/>
      <line class="uuid-1f78af32-1858-45f4-9c03-2299f39cf45f" x1="225.639" y1="319.322" x2="101.823" y2="319.322"/>
      <polyline class="uuid-252a2574-09c8-484e-8440-3dde25004af6" points="100.332 319.322 98.832 319.322 98.832 317.822"/>
      <line class="uuid-afe52204-ca06-43c9-b866-6c98d7243609" x1="98.832" y1="314.812" x2="98.832" y2="220.01"/>
      <polyline class="uuid-252a2574-09c8-484e-8440-3dde25004af6" points="98.832 218.505 98.832 217.005 100.332 217.005"/>
      <line class="uuid-1f78af32-1858-45f4-9c03-2299f39cf45f" x1="103.315" y1="217.005" x2="227.131" y2="217.005"/>
      <polyline class="uuid-252a2574-09c8-484e-8440-3dde25004af6" points="228.622 217.005 230.122 217.005 230.122 218.505"/>
      <line class="uuid-afe52204-ca06-43c9-b866-6c98d7243609" x1="230.122" y1="221.515" x2="230.122" y2="316.317"/>
    </g>
  </g>
  <rect class="uuid-293f6a49-e0e7-4bf1-b742-0adfb07af8f1" x="106.02" y="224.905" width="116.913" height="38.592"/>
  <rect class="uuid-98ea2290-0bfa-4f5d-8732-d439d6bba6fe" x="112.922" y="231.076" width="103.109" height="25.406"/>
  <rect class="uuid-ad6af64a-c9b3-4915-b52c-88c0e97b1136" x="112.922" y="284.175" width="103.109" height="25.406"/>
  <g>
    <path d="M147.532,298.818l2.578-3.208-2.559.02v-.99h3.948v.83l-2.589,3.218,2.648-.01v.969h-4.027v-.83Z"/>
    <path d="M153.281,298.348v-2.809h-.999v-.899h.999v-1.379l1.13-.24v1.619h1.389v.899h-1.389v2.559c0,.49.189.68.699.68.22,0,.38-.03.68-.12v.949c-.29.09-.67.14-.97.14-1.009,0-1.539-.48-1.539-1.399Z"/>
    <path d="M156.762,297.939v-3.298h1.14v2.968c0,.74.43,1.209,1.1,1.209.449,0,.829-.2,1.089-.6v-3.578h1.13v5.007h-1.13v-.81c-.38.59-.919.89-1.589.89-1.02,0-1.739-.74-1.739-1.789Z"/>
    <path d="M162.622,294.64h1.129v.82c.38-.59.93-.9,1.579-.9,1.029,0,1.749.73,1.749,1.789v3.298h-1.14v-2.979c0-.729-.43-1.199-1.099-1.199-.46,0-.83.21-1.09.61v3.568h-1.129v-5.007Z"/>
    <path d="M168.441,294.64h1.13v.82c.38-.59.929-.9,1.579-.9,1.029,0,1.749.73,1.749,1.789v3.298h-1.14v-2.979c0-.729-.43-1.199-1.1-1.199-.46,0-.829.21-1.089.61v3.568h-1.13v-5.007Z"/>
    <path d="M174.031,297.149c0-1.469,1.06-2.589,2.438-2.589,1.37,0,2.369,1.09,2.369,2.589v.27h-3.698c.11.81.72,1.399,1.499,1.399.47,0,.91-.18,1.189-.47l.74.669c-.61.51-1.22.73-1.979.73-1.438,0-2.559-1.129-2.559-2.599ZM177.77,296.719c-.12-.73-.64-1.239-1.31-1.239-.68,0-1.179.489-1.309,1.239h2.618Z"/>
    <path d="M179.991,292.482l1.13-.2v7.366h-1.13v-7.166Z"/>
  </g>
  <g>
    <path d="M101.58,197.271h1.959l2.688,6.996h-1.859l-.58-1.669h-2.559l-.589,1.669h-1.789l2.729-6.996ZM103.329,201.268l-.81-2.318-.819,2.318h1.629Z"/>
    <path d="M106.881,199.11h1.619v.82c.38-.59.9-.9,1.529-.9.67,0,1.199.37,1.449.959.4-.62.979-.959,1.689-.959.95,0,1.619.75,1.619,1.809v3.428h-1.619v-3.108c0-.52-.31-.859-.77-.859-.3,0-.54.12-.75.39v3.578h-1.619v-3.108c0-.52-.31-.859-.77-.859-.3,0-.55.13-.76.4v3.568h-1.619v-5.157Z"/>
    <path d="M116.011,197.151l1.619-.25v2.868c.34-.42.9-.689,1.509-.689,1.27,0,2.279,1.169,2.279,2.619s-1.06,2.598-2.398,2.598c-.56,0-1.06-.24-1.409-.66v.63h-1.599v-7.116ZM119.829,201.688c0-.729-.53-1.269-1.229-1.269-.4,0-.709.14-.97.419v1.719c.25.26.59.41.97.41.709,0,1.229-.54,1.229-1.279Z"/>
    <path d="M122.351,197.41c0-.5.41-.909.909-.909s.91.41.91.909-.41.91-.91.91-.909-.41-.909-.91ZM122.451,199.11h1.619v5.157h-1.619v-5.157Z"/>
    <path d="M125.101,201.698c0-1.509,1.119-2.669,2.599-2.669,1.489,0,2.539,1.129,2.539,2.729v.35h-3.548c.15.58.62.969,1.209.969.43,0,.79-.15,1.02-.43l1.069.89c-.669.589-1.299.83-2.169.83-1.519,0-2.718-1.169-2.718-2.668ZM128.739,201.189c-.14-.55-.529-.9-1.049-.9-.51,0-.87.33-1,.9h2.049Z"/>
    <path d="M131.251,199.11h1.619v.839c.4-.6.959-.919,1.629-.919,1,0,1.709.73,1.709,1.759v3.478h-1.619v-3.008c0-.58-.34-.959-.859-.959-.35,0-.63.14-.86.43v3.538h-1.619v-5.157Z"/>
    <path d="M137.96,202.708v-2.349h-.999v-1.25h.999v-1.429l1.619-.33v1.759h1.379v1.25h-1.379v2.029c0,.459.18.62.68.62.19,0,.34-.02.66-.11v1.309c-.3.09-.779.16-1.109.16-1.219,0-1.849-.56-1.849-1.659Z"/>
    <path d="M144.011,199.11h1.619v.82c.38-.59.9-.9,1.529-.9.67,0,1.199.37,1.449.959.4-.62.979-.959,1.689-.959.95,0,1.619.75,1.619,1.809v3.428h-1.619v-3.108c0-.52-.31-.859-.77-.859-.3,0-.54.12-.75.39v3.578h-1.619v-3.108c0-.52-.31-.859-.77-.859-.3,0-.55.13-.76.4v3.568h-1.619v-5.157Z"/>
    <path d="M152.911,201.698c0-1.52,1.159-2.669,2.688-2.669s2.688,1.149,2.688,2.669-1.159,2.668-2.688,2.668-2.688-1.149-2.688-2.668ZM156.709,201.698c0-.77-.46-1.319-1.109-1.319s-1.109.549-1.109,1.319.459,1.319,1.109,1.319,1.109-.549,1.109-1.319Z"/>
    <path d="M159.091,201.678c0-1.449,1.059-2.599,2.398-2.599.54,0,1.03.22,1.379.62v-2.549l1.619-.25v7.366h-1.599v-.669c-.34.43-.91.699-1.519.699-1.27,0-2.279-1.169-2.279-2.618ZM162.869,202.548v-1.739c-.25-.26-.59-.4-.959-.4-.709,0-1.229.54-1.229,1.279,0,.729.53,1.27,1.229,1.27.39,0,.709-.14.959-.41Z"/>
    <path d="M165.521,201.698c0-1.509,1.119-2.669,2.599-2.669,1.489,0,2.539,1.129,2.539,2.729v.35h-3.548c.15.58.62.969,1.209.969.43,0,.79-.15,1.02-.43l1.069.89c-.669.589-1.299.83-2.169.83-1.519,0-2.718-1.169-2.718-2.668ZM169.159,201.189c-.14-.55-.529-.9-1.049-.9-.51,0-.87.33-1,.9h2.049Z"/>
    <path d="M173.88,201.818c0-2.049.85-3.698,2.429-4.667l.59.729c-1.29.83-1.999,2.219-1.999,3.938,0,1.729.709,3.118,1.999,3.948l-.59.72c-1.579-.969-2.429-2.619-2.429-4.667Z"/>
    <path d="M177.581,203.687l.53-.75c.66.41,1.099.569,1.609.569.6,0,1.009-.28,1.009-.679,0-.31-.209-.47-.699-.57l-.88-.15c-.979-.18-1.449-.63-1.449-1.379,0-.939.77-1.549,1.939-1.549.7,0,1.33.2,1.969.6l-.53.75c-.51-.33-1-.48-1.509-.48-.52,0-.859.22-.859.58,0,.32.18.46.7.55l.889.17c1,.18,1.479.64,1.479,1.389,0,.919-.88,1.629-2.049,1.629-.859,0-1.619-.24-2.148-.68Z"/>
    <path d="M182.68,197.55c0-.38.31-.7.7-.7.38,0,.7.32.7.7s-.32.689-.7.689c-.39,0-.7-.31-.7-.689ZM182.81,199.259h1.129v5.007h-1.129v-5.007Z"/>
    <path d="M185.11,201.768c0-1.429,1.029-2.549,2.339-2.549.569,0,1.089.23,1.459.65v-2.769l1.129-.2v7.366h-1.119v-.66c-.36.45-.92.709-1.549.709-1.27,0-2.259-1.129-2.259-2.548ZM188.908,202.818v-2.109c-.29-.34-.72-.54-1.189-.54-.859,0-1.499.68-1.499,1.599,0,.909.64,1.599,1.499,1.599.49,0,.9-.19,1.189-.55Z"/>
    <path d="M191.21,201.768c0-1.469,1.06-2.589,2.438-2.589,1.37,0,2.369,1.09,2.369,2.589v.27h-3.698c.11.81.72,1.399,1.499,1.399.47,0,.91-.18,1.189-.47l.74.669c-.61.51-1.219.73-1.979.73-1.439,0-2.559-1.129-2.559-2.599ZM194.948,201.339c-.12-.73-.64-1.239-1.309-1.239-.68,0-1.179.489-1.309,1.239h2.618Z"/>
    <path d="M196.96,201.768c0-1.449,1.1-2.589,2.529-2.589.779,0,1.499.31,1.999.85l-.699.729c-.35-.39-.78-.589-1.259-.589-.81,0-1.439.7-1.439,1.599,0,.909.63,1.599,1.439,1.599.479,0,.909-.2,1.259-.58l.699.719c-.5.54-1.219.85-1.999.85-1.429,0-2.529-1.129-2.529-2.588Z"/>
    <path d="M202.16,202.828c0-.9.739-1.469,1.919-1.469.47,0,.909.1,1.349.32v-.56c0-.66-.38-1-1.149-1-.42,0-.879.12-1.459.39l-.4-.82c.75-.34,1.409-.51,2.079-.51,1.31,0,2.049.66,2.049,1.819v3.268h-1.119v-.52c-.43.419-.91.609-1.489.609-1.049,0-1.779-.629-1.779-1.529ZM204.249,203.557c.45,0,.839-.13,1.179-.42v-.81c-.36-.17-.72-.24-1.149-.24-.649,0-1.06.27-1.06.72,0,.459.4.75,1.03.75Z"/>
    <path d="M207.92,199.259h1.129v1.08c.28-.76.759-1.169,1.379-1.169.19.01.32.03.49.1v.989c-.18-.07-.41-.12-.62-.12-.549,0-.999.31-1.249.83v3.298h-1.129v-5.007Z"/>
    <path d="M211.56,200.948h3.488v.959h-3.488v-.959Z"/>
    <path d="M216.32,197.101l1.129-.2v7.366h-1.129v-7.166Z"/>
    <path d="M218.61,201.768c0-1.469,1.06-2.589,2.438-2.589,1.37,0,2.369,1.09,2.369,2.589v.27h-3.698c.11.81.72,1.399,1.499,1.399.47,0,.91-.18,1.189-.47l.74.669c-.61.51-1.219.73-1.979.73-1.439,0-2.559-1.129-2.559-2.599ZM222.348,201.339c-.12-.73-.64-1.239-1.309-1.239-.68,0-1.179.489-1.309,1.239h2.618Z"/>
    <path d="M224.17,203.687l.53-.75c.659.41,1.099.569,1.609.569.6,0,1.009-.28,1.009-.679,0-.31-.209-.47-.699-.57l-.88-.15c-.979-.18-1.449-.63-1.449-1.379,0-.939.77-1.549,1.939-1.549.7,0,1.33.2,1.969.6l-.53.75c-.51-.33-1-.48-1.509-.48-.52,0-.859.22-.859.58,0,.32.18.46.699.55l.89.17c1,.18,1.479.64,1.479,1.389,0,.919-.88,1.629-2.049,1.629-.86,0-1.619-.24-2.149-.68Z"/>
    <path d="M228.96,203.687l.53-.75c.659.41,1.099.569,1.609.569.6,0,1.009-.28,1.009-.679,0-.31-.209-.47-.699-.57l-.88-.15c-.979-.18-1.449-.63-1.449-1.379,0-.939.77-1.549,1.939-1.549.7,0,1.33.2,1.969.6l-.53.75c-.51-.33-1-.48-1.509-.48-.52,0-.859.22-.859.58,0,.32.18.46.699.55l.89.17c1,.18,1.479.64,1.479,1.389,0,.919-.88,1.629-2.049,1.629-.86,0-1.619-.24-2.149-.68Z"/>
    <path d="M236.948,201.828c0,2.049-.85,3.698-2.429,4.667l-.59-.73c1.29-.83,1.999-2.219,1.999-3.938,0-1.729-.709-3.119-1.999-3.948l.59-.719c1.579.969,2.429,2.619,2.429,4.667Z"/>
  </g>
  <g>
    <rect class="uuid-384d0f4d-fe56-416a-9b4c-8cc586e6d798" x="240.163" y="217.005" width="256.06" height="102.317"/>
    <g>
      <polyline class="uuid-252a2574-09c8-484e-8440-3dde25004af6" points="496.223 317.822 496.223 319.322 494.723 319.322"/>
      <line class="uuid-f68526cd-b2f7-484c-8949-8b7ebd2797cd" x1="491.746" y1="319.322" x2="243.151" y2="319.322"/>
      <polyline class="uuid-252a2574-09c8-484e-8440-3dde25004af6" points="241.663 319.322 240.163 319.322 240.163 317.822"/>
      <line class="uuid-afe52204-ca06-43c9-b866-6c98d7243609" x1="240.163" y1="314.812" x2="240.163" y2="220.01"/>
      <polyline class="uuid-252a2574-09c8-484e-8440-3dde25004af6" points="240.163 218.505 240.163 217.005 241.663 217.005"/>
      <line class="uuid-f68526cd-b2f7-484c-8949-8b7ebd2797cd" x1="244.64" y1="217.005" x2="493.234" y2="217.005"/>
      <polyline class="uuid-252a2574-09c8-484e-8440-3dde25004af6" points="494.723 217.005 496.223 217.005 496.223 218.505"/>
      <line class="uuid-afe52204-ca06-43c9-b866-6c98d7243609" x1="496.223" y1="221.515" x2="496.223" y2="316.317"/>
    </g>
  </g>
  <rect class="uuid-293f6a49-e0e7-4bf1-b742-0adfb07af8f1" x="247.351" y="224.905" width="116.913" height="38.592"/>
  <rect class="uuid-98ea2290-0bfa-4f5d-8732-d439d6bba6fe" x="254.253" y="231.076" width="103.109" height="25.406"/>
  <rect class="uuid-293f6a49-e0e7-4bf1-b742-0adfb07af8f1" x="371.078" y="224.905" width="116.913" height="38.592"/>
  <rect class="uuid-98ea2290-0bfa-4f5d-8732-d439d6bba6fe" x="377.98" y="231.076" width="103.109" height="25.406"/>
  <polygon class="uuid-ad6af64a-c9b3-4915-b52c-88c0e97b1136" points="392.673 284.175 377.98 284.175 254.253 284.175 254.253 309.581 377.98 309.581 392.673 309.581 481.089 309.581 481.089 284.175 392.673 284.175"/>
  <g>
    <path d="M350.727,298.818l2.578-3.208-2.559.02v-.99h3.948v.83l-2.589,3.218,2.648-.01v.969h-4.027v-.83Z"/>
    <path d="M356.476,298.348v-2.809h-.999v-.899h.999v-1.379l1.13-.24v1.619h1.389v.899h-1.389v2.559c0,.49.189.68.699.68.22,0,.38-.03.68-.12v.949c-.29.09-.67.14-.97.14-1.009,0-1.539-.48-1.539-1.399Z"/>
    <path d="M359.956,297.939v-3.298h1.14v2.968c0,.74.43,1.209,1.1,1.209.449,0,.829-.2,1.089-.6v-3.578h1.13v5.007h-1.13v-.81c-.38.59-.919.89-1.589.89-1.02,0-1.739-.74-1.739-1.789Z"/>
    <path d="M365.816,294.64h1.129v.82c.38-.59.93-.9,1.579-.9,1.029,0,1.749.73,1.749,1.789v3.298h-1.14v-2.979c0-.729-.43-1.199-1.099-1.199-.46,0-.83.21-1.09.61v3.568h-1.129v-5.007Z"/>
    <path d="M371.636,294.64h1.13v.82c.38-.59.929-.9,1.579-.9,1.029,0,1.749.73,1.749,1.789v3.298h-1.14v-2.979c0-.729-.43-1.199-1.1-1.199-.46,0-.829.21-1.089.61v3.568h-1.13v-5.007Z"/>
    <path d="M377.226,297.149c0-1.469,1.06-2.589,2.438-2.589,1.37,0,2.369,1.09,2.369,2.589v.27h-3.698c.11.81.72,1.399,1.499,1.399.47,0,.91-.18,1.189-.47l.74.669c-.61.51-1.22.73-1.979.73-1.438,0-2.559-1.129-2.559-2.599ZM380.964,296.719c-.12-.73-.64-1.239-1.31-1.239-.68,0-1.179.489-1.309,1.239h2.618Z"/>
    <path d="M383.186,292.482l1.13-.2v7.366h-1.13v-7.166Z"/>
  </g>
  <g>
    <line class="uuid-06c16934-d9f5-43a9-8202-3fecc0d903e2" x1="164.477" y1="263.26" x2="164.477" y2="264.76"/>
    <line class="uuid-0e01d510-be6a-4238-a017-4612efe44911" x1="164.477" y1="268.26" x2="164.477" y2="280.51"/>
    <line class="uuid-06c16934-d9f5-43a9-8202-3fecc0d903e2" x1="164.477" y1="282.26" x2="164.477" y2="283.76"/>
  </g>
  <g>
    <line class="uuid-06c16934-d9f5-43a9-8202-3fecc0d903e2" x1="305.808" y1="263.26" x2="305.808" y2="264.76"/>
    <line class="uuid-aa21b881-c867-412c-8bcf-25d0b103bf24" x1="305.808" y1="267.406" x2="305.808" y2="271.375"/>
    <polyline class="uuid-06c16934-d9f5-43a9-8202-3fecc0d903e2" points="305.808 272.698 305.808 274.198 307.308 274.198"/>
    <line class="uuid-c15afbca-afb4-4132-aa4c-f08868276872" x1="310.372" y1="274.198" x2="363.998" y2="274.198"/>
    <polyline class="uuid-06c16934-d9f5-43a9-8202-3fecc0d903e2" points="365.531 274.198 367.031 274.198 367.031 275.698"/>
    <line class="uuid-27a84ed7-89d4-465f-89b3-af240a2eff89" x1="367.031" y1="277.759" x2="367.031" y2="280.852"/>
    <line class="uuid-06c16934-d9f5-43a9-8202-3fecc0d903e2" x1="367.031" y1="281.883" x2="367.031" y2="283.383"/>
  </g>
  <g>
    <line class="uuid-06c16934-d9f5-43a9-8202-3fecc0d903e2" x1="429.688" y1="263.26" x2="429.688" y2="264.76"/>
    <line class="uuid-aa21b881-c867-412c-8bcf-25d0b103bf24" x1="429.688" y1="267.406" x2="429.688" y2="271.375"/>
    <polyline class="uuid-06c16934-d9f5-43a9-8202-3fecc0d903e2" points="429.688 272.698 429.688 274.198 428.188 274.198"/>
    <line class="uuid-431d4104-9e7d-4d0b-bcb3-76057763a40f" x1="425.048" y1="274.198" x2="370.101" y2="274.198"/>
    <polyline class="uuid-06c16934-d9f5-43a9-8202-3fecc0d903e2" points="368.531 274.198 367.031 274.198 367.031 275.698"/>
    <line class="uuid-27a84ed7-89d4-465f-89b3-af240a2eff89" x1="367.031" y1="277.759" x2="367.031" y2="280.852"/>
    <line class="uuid-06c16934-d9f5-43a9-8202-3fecc0d903e2" x1="367.031" y1="281.883" x2="367.031" y2="283.383"/>
  </g>
  <line class="uuid-14a30b48-bff7-4181-bdfd-40bd479e74c1" x1="216.304" y1="296.878" x2="253.664" y2="296.878"/>
  <polyline class="uuid-14a30b48-bff7-4181-bdfd-40bd479e74c1" points="368.133 309.368 368.133 371.628 341.476 371.628"/>
  <polyline class="uuid-14a30b48-bff7-4181-bdfd-40bd479e74c1" points="165.37 309.368 165.37 371.628 194.422 371.628"/>
  <g>
    <path class="uuid-384d0f4d-fe56-416a-9b4c-8cc586e6d798" d="M153.081,239.553h1.389l2.709,6.996h-1.29l-.719-1.959h-2.869l-.72,1.959h-1.249l2.749-6.996ZM154.84,243.651l-1.1-2.958-1.089,2.958h2.188Z"/>
    <path class="uuid-384d0f4d-fe56-416a-9b4c-8cc586e6d798" d="M157.941,241.542h1.109v.709c.36-.47.92-.75,1.56-.75,1.269,0,2.259,1.129,2.259,2.549,0,1.429-1.02,2.548-2.329,2.548-.59,0-1.109-.22-1.469-.64v2.679h-1.13v-7.096ZM161.76,244.05c0-.91-.64-1.599-1.489-1.599-.5,0-.91.2-1.199.56v2.089c.289.35.72.56,1.199.56.859,0,1.489-.689,1.489-1.609Z"/>
    <path class="uuid-384d0f4d-fe56-416a-9b4c-8cc586e6d798" d="M164.052,241.542h1.109v.709c.359-.47.919-.75,1.559-.75,1.27,0,2.259,1.129,2.259,2.549,0,1.429-1.02,2.548-2.328,2.548-.59,0-1.109-.22-1.47-.64v2.679h-1.129v-7.096ZM167.869,244.05c0-.91-.64-1.599-1.489-1.599-.499,0-.909.2-1.199.56v2.089c.29.35.72.56,1.199.56.859,0,1.489-.689,1.489-1.609Z"/>
    <path class="uuid-384d0f4d-fe56-416a-9b4c-8cc586e6d798" d="M174.521,239.553h1.389l2.709,6.996h-1.29l-.719-1.959h-2.869l-.72,1.959h-1.249l2.749-6.996ZM176.279,243.651l-1.1-2.958-1.089,2.958h2.188Z"/>
  </g>
  <g>
    <path class="uuid-384d0f4d-fe56-416a-9b4c-8cc586e6d798" d="M294.417,239.553h1.389l2.708,6.996h-1.29l-.719-1.959h-2.869l-.72,1.959h-1.249l2.749-6.996ZM296.175,243.651l-1.099-2.958-1.089,2.958h2.188Z"/>
    <path class="uuid-384d0f4d-fe56-416a-9b4c-8cc586e6d798" d="M299.277,241.542h1.109v.709c.36-.47.92-.75,1.56-.75,1.269,0,2.259,1.129,2.259,2.549,0,1.429-1.02,2.548-2.329,2.548-.59,0-1.109-.22-1.469-.64v2.679h-1.13v-7.096ZM303.096,244.05c0-.91-.64-1.599-1.489-1.599-.5,0-.91.2-1.199.56v2.089c.289.35.72.56,1.199.56.859,0,1.489-.689,1.489-1.609Z"/>
    <path class="uuid-384d0f4d-fe56-416a-9b4c-8cc586e6d798" d="M305.388,241.542h1.109v.709c.359-.47.919-.75,1.559-.75,1.27,0,2.259,1.129,2.259,2.549,0,1.429-1.02,2.548-2.328,2.548-.59,0-1.109-.22-1.47-.64v2.679h-1.129v-7.096ZM309.205,244.05c0-.91-.64-1.599-1.489-1.599-.499,0-.909.2-1.199.56v2.089c.29.35.72.56,1.199.56.859,0,1.489-.689,1.489-1.609Z"/>
    <path class="uuid-384d0f4d-fe56-416a-9b4c-8cc586e6d798" d="M313.887,239.553h3.119c1.309,0,2.198.75,2.198,1.839,0,.709-.439,1.279-1.14,1.549.84.25,1.38.859,1.38,1.659,0,1.159-.93,1.949-2.309,1.949h-3.249v-6.996ZM316.876,242.501c.679,0,1.129-.39,1.129-.989,0-.59-.439-.979-1.129-.979h-1.789v1.969h1.789ZM316.985,245.57c.76,0,1.249-.43,1.249-1.08s-.479-1.069-1.249-1.069h-1.898v2.149h1.898Z"/>
  </g>
  <g>
    <path class="uuid-384d0f4d-fe56-416a-9b4c-8cc586e6d798" d="M418.008,239.553h1.39l2.708,6.996h-1.289l-.72-1.959h-2.868l-.72,1.959h-1.249l2.748-6.996ZM419.767,243.651l-1.099-2.958-1.09,2.958h2.188Z"/>
    <path class="uuid-384d0f4d-fe56-416a-9b4c-8cc586e6d798" d="M422.869,241.542h1.109v.709c.359-.47.919-.75,1.559-.75,1.27,0,2.259,1.129,2.259,2.549,0,1.429-1.02,2.548-2.328,2.548-.59,0-1.109-.22-1.47-.64v2.679h-1.129v-7.096ZM426.687,244.05c0-.91-.64-1.599-1.489-1.599-.499,0-.909.2-1.199.56v2.089c.29.35.72.56,1.199.56.859,0,1.489-.689,1.489-1.609Z"/>
    <path class="uuid-384d0f4d-fe56-416a-9b4c-8cc586e6d798" d="M428.979,241.542h1.109v.709c.359-.47.919-.75,1.559-.75,1.27,0,2.259,1.129,2.259,2.549,0,1.429-1.02,2.548-2.328,2.548-.59,0-1.109-.22-1.47-.64v2.679h-1.129v-7.096ZM432.797,244.05c0-.91-.64-1.599-1.489-1.599-.499,0-.909.2-1.199.56v2.089c.29.35.72.56,1.199.56.859,0,1.489-.689,1.489-1.609Z"/>
    <path class="uuid-384d0f4d-fe56-416a-9b4c-8cc586e6d798" d="M437.148,243.051c0-2.029,1.579-3.608,3.618-3.608,1.069,0,2.089.459,2.729,1.249l-.8.78c-.499-.62-1.189-.95-1.929-.95-1.359,0-2.389,1.089-2.389,2.529s1.029,2.529,2.389,2.529c.739,0,1.43-.33,1.929-.95l.8.78c-.64.79-1.659,1.249-2.729,1.249-2.039,0-3.618-1.579-3.618-3.608Z"/>
  </g>
</svg>