<?xml version="1.0" encoding="UTF-8"?>
<svg id="uuid-11fdd083-4a41-40f2-b830-d699a7ec2818" data-name="Layer 1" xmlns="http://www.w3.org/2000/svg" width="595.276" height="158.933" viewBox="0 0 595.276 158.933">
  <defs>
    <style>
      .uuid-d6d6dba6-764d-4652-bfd9-100c0c890c08 {
        stroke: #06c;
      }

      .uuid-d6d6dba6-764d-4652-bfd9-100c0c890c08, .uuid-6538f184-c1c7-45f2-8642-28a1b159a88a {
        fill: #fff;
      }

      .uuid-d6d6dba6-764d-4652-bfd9-100c0c890c08, .uuid-3aecc1bd-b3e2-4688-9a2f-3ec96ba43c9d {
        stroke-miterlimit: 10;
      }

      .uuid-9e3e69a4-a80f-414e-9a2c-70b92a274241 {
        fill: #4e69aa;
      }

      .uuid-df24fe99-3a43-466f-bf5b-5b3e74a36d1e {
        fill: #dbe8f5;
      }

      .uuid-3aecc1bd-b3e2-4688-9a2f-3ec96ba43c9d {
        fill: none;
        stroke: #a1c2e7;
      }
    </style>
  </defs>
  <rect class="uuid-6538f184-c1c7-45f2-8642-28a1b159a88a" x="-.652" y="-.011" width="596.579" height="158.955"/>
  <rect class="uuid-3aecc1bd-b3e2-4688-9a2f-3ec96ba43c9d" x="43.38" y="34.62" width="151.775" height="64.17"/>
  <rect class="uuid-d6d6dba6-764d-4652-bfd9-100c0c890c08" x="49.683" y="56.382" width="66.584" height="36.283"/>
  <rect class="uuid-df24fe99-3a43-466f-bf5b-5b3e74a36d1e" x="55.697" y="61.524" width="54.557" height="25.999"/>
  <rect class="uuid-d6d6dba6-764d-4652-bfd9-100c0c890c08" x="122.267" y="56.382" width="66.584" height="36.283"/>
  <rect class="uuid-df24fe99-3a43-466f-bf5b-5b3e74a36d1e" x="128.281" y="61.524" width="54.557" height="25.999"/>
  <g>
    <path d="M74.765,73.795c0-2.029,1.579-3.608,3.618-3.608,1.069,0,2.089.46,2.729,1.25l-.8.779c-.5-.62-1.189-.949-1.929-.949-1.359,0-2.389,1.089-2.389,2.528s1.029,2.528,2.389,2.528c.739,0,1.429-.329,1.929-.949l.8.779c-.64.79-1.659,1.25-2.729,1.25-2.039,0-3.618-1.579-3.618-3.608Z"/>
    <path d="M82.325,70.297h3.128c1.419,0,2.339.89,2.339,2.179,0,1.26-.919,2.148-2.339,2.148h-1.929v2.669h-1.2v-6.996ZM85.263,73.645c.85,0,1.319-.47,1.319-1.179,0-.689-.47-1.159-1.309-1.159h-1.749v2.338h1.739Z"/>
    <path d="M89.884,71.446l-1.239.529v-.969l1.639-.71h.69v6.996h-1.09v-5.847Z"/>
  </g>
  <g>
    <path d="M147.349,73.795c0-2.029,1.579-3.608,3.618-3.608,1.069,0,2.089.46,2.729,1.25l-.8.779c-.5-.62-1.189-.949-1.929-.949-1.359,0-2.389,1.089-2.389,2.528s1.029,2.528,2.389,2.528c.739,0,1.429-.329,1.929-.949l.8.779c-.64.79-1.659,1.25-2.729,1.25-2.039,0-3.618-1.579-3.618-3.608Z"/>
    <path d="M154.909,70.297h3.128c1.419,0,2.339.89,2.339,2.179,0,1.26-.919,2.148-2.339,2.148h-1.929v2.669h-1.2v-6.996ZM157.847,73.645c.85,0,1.319-.47,1.319-1.179,0-.689-.47-1.159-1.309-1.159h-1.749v2.338h1.739Z"/>
    <path d="M162.468,71.446l-1.239.529v-.969l1.639-.71h.69v6.996h-1.09v-5.847Z"/>
  </g>
  <g>
    <polygon class="uuid-9e3e69a4-a80f-414e-9a2c-70b92a274241" points="114.002 50.952 118.052 43.28 118.052 50.396 114.002 51.153 114.002 50.952"/>
    <polygon class="uuid-9e3e69a4-a80f-414e-9a2c-70b92a274241" points="114.002 51.759 124.531 51.76 118.153 53.778 117.849 53.778 114.002 51.86 114.002 51.759"/>
    <polygon class="uuid-9e3e69a4-a80f-414e-9a2c-70b92a274241" points="118.558 37.929 124.533 51.102 118.558 50.396 118.558 37.929"/>
  </g>
  <g>
    <path d="M44.357,22.404h2.159l1.689,3.358,1.679-3.358h2.159v6.996h-1.619v-4.747l-2.239,4.247-2.249-4.287v4.787h-1.579v-6.996Z"/>
    <path d="M53.417,27.721v-3.479h1.619v3.009c0,.579.34.959.859.959.35,0,.629-.14.859-.43v-3.538h1.619v5.157h-1.619v-.84c-.4.6-.959.92-1.629.92-1,0-1.709-.729-1.709-1.759Z"/>
    <path d="M59.637,22.284l1.619-.25v7.366h-1.619v-7.116Z"/>
    <path d="M63.196,27.84v-2.349h-.999v-1.249h.999v-1.429l1.619-.33v1.759h1.379v1.249h-1.379v2.029c0,.46.18.619.68.619.19,0,.34-.02.66-.109v1.31c-.3.09-.779.159-1.109.159-1.219,0-1.849-.56-1.849-1.659Z"/>
    <path d="M66.997,22.543c0-.5.41-.909.91-.909s.909.409.909.909-.41.91-.909.91-.91-.41-.91-.91ZM67.097,24.243h1.619v5.157h-1.619v-5.157Z"/>
    <path d="M69.857,25.862h3.678v1.35h-3.678v-1.35Z"/>
    <path d="M74.827,22.404h3.418c1.489,0,2.469.97,2.469,2.309,0,1.27-.979,2.249-2.469,2.249h-1.699v2.438h-1.719v-6.996ZM77.935,25.592c.7,0,1.04-.38,1.04-.89,0-.5-.34-.88-1.029-.88h-1.399v1.77h1.389Z"/>
    <path d="M81.777,24.243h1.619v1.169c.33-.859.79-1.269,1.399-1.269.23.01.34.029.54.13v1.389c-.2-.1-.479-.159-.759-.159-.48,0-.919.249-1.18.64v3.258h-1.619v-5.157Z"/>
    <path d="M86.097,22.543c0-.5.41-.909.91-.909s.909.409.909.909-.41.91-.909.91-.91-.41-.91-.91ZM86.197,24.243h1.619v5.157h-1.619v-5.157Z"/>
    <path d="M89.077,24.243h1.619v.819c.38-.59.9-.899,1.529-.899.67,0,1.199.37,1.449.96.4-.62.979-.96,1.689-.96.95,0,1.619.75,1.619,1.81v3.428h-1.619v-3.108c0-.52-.31-.859-.77-.859-.3,0-.54.12-.75.39v3.578h-1.619v-3.108c0-.52-.31-.859-.77-.859-.3,0-.55.13-.76.399v3.568h-1.619v-5.157Z"/>
    <path d="M97.966,27.92c0-.949.74-1.499,2.009-1.499.37,0,.74.07,1.2.24v-.42c0-.5-.33-.75-1.02-.75-.39,0-.85.11-1.449.36l-.56-1.13c.85-.38,1.609-.56,2.369-.56,1.429,0,2.259.71,2.259,1.939v3.298h-1.599v-.45c-.45.38-.879.53-1.429.53-1.05,0-1.779-.64-1.779-1.56ZM100.245,28.411c.34,0,.65-.09.93-.26v-.66c-.3-.069-.59-.109-.89-.109-.53,0-.83.18-.83.51s.29.52.79.52Z"/>
    <path d="M103.997,24.243h1.619v1.169c.33-.859.79-1.269,1.399-1.269.23.01.34.029.54.13v1.389c-.2-.1-.479-.159-.759-.159-.48,0-.919.249-1.18.64v3.258h-1.619v-5.157Z"/>
    <path d="M108.406,31.508v-1.358c.12.02.29.04.48.04.439,0,.68-.181.839-.521l.08-.17-1.899-5.257h1.789l1.029,3.328,1.179-3.328h1.749l-2.318,5.737c-.48,1.179-1.069,1.608-2.259,1.608-.19,0-.45-.029-.67-.08Z"/>
  </g>
  <rect class="uuid-3aecc1bd-b3e2-4688-9a2f-3ec96ba43c9d" x="221.75" y="34.62" width="151.775" height="64.17"/>
  <rect class="uuid-d6d6dba6-764d-4652-bfd9-100c0c890c08" x="228.054" y="56.382" width="66.584" height="36.283"/>
  <rect class="uuid-df24fe99-3a43-466f-bf5b-5b3e74a36d1e" x="234.067" y="61.524" width="54.557" height="25.999"/>
  <rect class="uuid-d6d6dba6-764d-4652-bfd9-100c0c890c08" x="300.638" y="56.382" width="66.584" height="36.283"/>
  <g>
    <path d="M253.136,73.795c0-2.029,1.579-3.608,3.618-3.608,1.069,0,2.089.46,2.729,1.25l-.8.779c-.5-.62-1.189-.949-1.929-.949-1.359,0-2.389,1.089-2.389,2.528s1.029,2.528,2.389,2.528c.739,0,1.429-.329,1.929-.949l.8.779c-.64.79-1.659,1.25-2.729,1.25-2.039,0-3.618-1.579-3.618-3.608Z"/>
    <path d="M260.695,70.297h3.128c1.419,0,2.339.89,2.339,2.179,0,1.26-.919,2.148-2.339,2.148h-1.929v2.669h-1.2v-6.996ZM263.634,73.645c.85,0,1.319-.47,1.319-1.179,0-.689-.47-1.159-1.309-1.159h-1.749v2.338h1.739Z"/>
    <path d="M268.254,71.446l-1.239.529v-.969l1.639-.71h.69v6.996h-1.09v-5.847Z"/>
  </g>
  <g>
    <polygon class="uuid-9e3e69a4-a80f-414e-9a2c-70b92a274241" points="292.372 50.952 296.422 43.28 296.422 50.396 292.372 51.153 292.372 50.952"/>
    <polygon class="uuid-9e3e69a4-a80f-414e-9a2c-70b92a274241" points="292.372 51.759 302.902 51.76 296.523 53.778 296.22 53.778 292.372 51.86 292.372 51.759"/>
    <polygon class="uuid-9e3e69a4-a80f-414e-9a2c-70b92a274241" points="296.928 37.929 302.904 51.102 296.928 50.396 296.928 37.929"/>
  </g>
  <g>
    <path d="M222.728,22.404h3.418c1.489,0,2.469.97,2.469,2.309,0,1.27-.979,2.249-2.469,2.249h-1.699v2.438h-1.719v-6.996ZM225.836,25.592c.7,0,1.04-.38,1.04-.89,0-.5-.34-.88-1.029-.88h-1.399v1.77h1.389Z"/>
    <path d="M229.678,24.243h1.619v1.169c.33-.859.79-1.269,1.399-1.269.23.01.34.029.54.13v1.389c-.2-.1-.479-.159-.759-.159-.48,0-.919.249-1.18.64v3.258h-1.619v-5.157Z"/>
    <path d="M233.998,22.543c0-.5.41-.909.91-.909s.909.409.909.909-.41.91-.909.91-.91-.41-.91-.91ZM234.098,24.243h1.619v5.157h-1.619v-5.157Z"/>
    <path d="M236.978,24.243h1.619v.819c.38-.59.9-.899,1.529-.899.67,0,1.199.37,1.449.96.4-.62.979-.96,1.689-.96.95,0,1.619.75,1.619,1.81v3.428h-1.619v-3.108c0-.52-.31-.859-.77-.859-.3,0-.54.12-.75.39v3.578h-1.619v-3.108c0-.52-.31-.859-.77-.859-.3,0-.55.13-.76.399v3.568h-1.619v-5.157Z"/>
    <path d="M245.868,27.92c0-.949.74-1.499,2.009-1.499.37,0,.739.07,1.199.24v-.42c0-.5-.33-.75-1.02-.75-.39,0-.85.11-1.449.36l-.56-1.13c.85-.38,1.609-.56,2.369-.56,1.429,0,2.259.71,2.259,1.939v3.298h-1.599v-.45c-.45.38-.88.53-1.429.53-1.049,0-1.779-.64-1.779-1.56ZM248.146,28.411c.34,0,.65-.09.93-.26v-.66c-.3-.069-.59-.109-.89-.109-.53,0-.83.18-.83.51s.29.52.79.52Z"/>
    <path d="M251.898,24.243h1.619v1.169c.33-.859.79-1.269,1.399-1.269.23.01.34.029.54.13v1.389c-.2-.1-.479-.159-.759-.159-.48,0-.919.249-1.18.64v3.258h-1.619v-5.157Z"/>
    <path d="M256.307,31.508v-1.358c.12.02.29.04.48.04.439,0,.68-.181.839-.521l.08-.17-1.899-5.257h1.789l1.029,3.328,1.179-3.328h1.749l-2.318,5.737c-.48,1.179-1.069,1.608-2.259,1.608-.19,0-.45-.029-.67-.08Z"/>
    <path d="M262.137,25.862h3.678v1.35h-3.678v-1.35Z"/>
    <path d="M267.107,22.404h3.398c1.439,0,2.469.93,2.469,2.229,0,.89-.51,1.609-1.299,1.959l1.469,2.809h-1.919l-1.27-2.568h-1.129v2.568h-1.719v-6.996ZM270.345,25.482c.53,0,.89-.33.89-.829s-.36-.83-.89-.83h-1.519v1.659h1.519Z"/>
    <path d="M273.507,26.832c0-1.51,1.119-2.669,2.599-2.669,1.489,0,2.539,1.13,2.539,2.729v.35h-3.548c.15.58.62.97,1.209.97.43,0,.79-.149,1.02-.43l1.069.89c-.669.59-1.299.829-2.169.829-1.519,0-2.718-1.169-2.718-2.668ZM277.145,26.322c-.14-.55-.529-.899-1.049-.899-.51,0-.87.329-1,.899h2.049Z"/>
    <path d="M279.657,24.243h1.619v.819c.38-.59.9-.899,1.529-.899.67,0,1.199.37,1.449.96.4-.62.979-.96,1.689-.96.95,0,1.619.75,1.619,1.81v3.428h-1.619v-3.108c0-.52-.31-.859-.77-.859-.3,0-.54.12-.75.39v3.578h-1.619v-3.108c0-.52-.31-.859-.77-.859-.3,0-.55.13-.76.399v3.568h-1.619v-5.157Z"/>
    <path d="M288.557,26.832c0-1.52,1.159-2.669,2.688-2.669s2.688,1.149,2.688,2.669-1.159,2.668-2.688,2.668-2.688-1.149-2.688-2.668ZM292.355,26.832c0-.77-.46-1.319-1.109-1.319s-1.109.55-1.109,1.319.459,1.319,1.109,1.319,1.109-.55,1.109-1.319Z"/>
    <path d="M295.497,27.84v-2.349h-.999v-1.249h.999v-1.429l1.619-.33v1.759h1.379v1.249h-1.379v2.029c0,.46.18.619.68.619.19,0,.34-.02.66-.109v1.31c-.3.09-.779.159-1.109.159-1.219,0-1.849-.56-1.849-1.659Z"/>
    <path d="M299.117,26.832c0-1.51,1.119-2.669,2.599-2.669,1.488,0,2.538,1.13,2.538,2.729v.35h-3.548c.149.58.619.97,1.209.97.43,0,.79-.149,1.02-.43l1.069.89c-.669.59-1.299.829-2.169.829-1.519,0-2.718-1.169-2.718-2.668ZM302.755,26.322c-.14-.55-.529-.899-1.05-.899-.51,0-.869.329-.999.899h2.049Z"/>
  </g>
  <rect class="uuid-3aecc1bd-b3e2-4688-9a2f-3ec96ba43c9d" x="400.121" y="34.62" width="151.775" height="64.17"/>
  <rect class="uuid-d6d6dba6-764d-4652-bfd9-100c0c890c08" x="406.424" y="56.382" width="66.584" height="36.283"/>
  <rect class="uuid-d6d6dba6-764d-4652-bfd9-100c0c890c08" x="479.008" y="56.382" width="66.584" height="36.283"/>
  <rect class="uuid-d6d6dba6-764d-4652-bfd9-100c0c890c08" x="442.717" y="104.551" width="66.584" height="36.283"/>
  <rect class="uuid-df24fe99-3a43-466f-bf5b-5b3e74a36d1e" x="448.73" y="109.693" width="54.557" height="25.999"/>
  <g>
    <path d="M467.799,121.965c0-2.029,1.579-3.608,3.618-3.608,1.069,0,2.089.46,2.729,1.25l-.8.779c-.5-.62-1.189-.949-1.929-.949-1.359,0-2.389,1.089-2.389,2.528s1.029,2.528,2.389,2.528c.739,0,1.429-.329,1.929-.949l.8.779c-.64.79-1.659,1.25-2.729,1.25-2.039,0-3.618-1.579-3.618-3.608Z"/>
    <path d="M475.358,118.467h3.128c1.42,0,2.339.89,2.339,2.179,0,1.26-.919,2.148-2.339,2.148h-1.929v2.669h-1.199v-6.996ZM478.297,121.814c.85,0,1.319-.47,1.319-1.179,0-.689-.47-1.159-1.31-1.159h-1.749v2.338h1.739Z"/>
    <path d="M482.917,119.616l-1.239.529v-.969l1.64-.71h.689v6.996h-1.09v-5.847Z"/>
  </g>
  <g>
    <polygon class="uuid-9e3e69a4-a80f-414e-9a2c-70b92a274241" points="470.743 50.952 474.793 43.28 474.793 50.396 470.743 51.153 470.743 50.952"/>
    <polygon class="uuid-9e3e69a4-a80f-414e-9a2c-70b92a274241" points="470.743 51.759 481.272 51.76 474.894 53.778 474.59 53.778 470.743 51.86 470.743 51.759"/>
    <polygon class="uuid-9e3e69a4-a80f-414e-9a2c-70b92a274241" points="475.299 37.929 481.274 51.102 475.299 50.396 475.299 37.929"/>
  </g>
  <g>
    <path d="M401.099,22.404h5.287v1.439h-3.568v1.329h2.519v1.399h-2.519v1.389h3.607v1.439h-5.326v-6.996Z"/>
    <path d="M408.928,26.771l-1.869-2.528h1.869l.959,1.39.96-1.39h1.799l-1.899,2.559,1.959,2.599h-1.879l-1.02-1.469-1.019,1.469h-1.789l1.929-2.629Z"/>
    <path d="M414.018,27.84v-2.349h-.999v-1.249h.999v-1.429l1.619-.33v1.759h1.38v1.249h-1.38v2.029c0,.46.181.619.68.619.19,0,.34-.02.66-.109v1.31c-.3.09-.779.159-1.109.159-1.22,0-1.85-.56-1.85-1.659Z"/>
    <path d="M417.639,26.832c0-1.51,1.119-2.669,2.599-2.669,1.488,0,2.538,1.13,2.538,2.729v.35h-3.548c.149.58.619.97,1.209.97.43,0,.79-.149,1.02-.43l1.069.89c-.669.59-1.299.829-2.169.829-1.519,0-2.718-1.169-2.718-2.668ZM421.276,26.322c-.14-.55-.529-.899-1.05-.899-.51,0-.869.329-.999.899h2.049Z"/>
    <path d="M423.788,24.243h1.619v1.169c.33-.859.789-1.269,1.399-1.269.229.01.34.029.539.13v1.389c-.199-.1-.479-.159-.759-.159-.48,0-.92.249-1.18.64v3.258h-1.619v-5.157Z"/>
    <path d="M428.208,24.243h1.619v.84c.399-.6.959-.92,1.629-.92,1,0,1.709.729,1.709,1.759v3.479h-1.619v-3.009c0-.579-.34-.959-.859-.959-.35,0-.63.14-.859.43v3.538h-1.619v-5.157Z"/>
    <path d="M434.148,27.92c0-.949.739-1.499,2.009-1.499.37,0,.739.07,1.199.24v-.42c0-.5-.33-.75-1.02-.75-.39,0-.85.11-1.449.36l-.56-1.13c.85-.38,1.609-.56,2.369-.56,1.429,0,2.259.71,2.259,1.939v3.298h-1.6v-.45c-.449.38-.88.53-1.429.53-1.05,0-1.779-.64-1.779-1.56ZM436.427,28.411c.34,0,.65-.09.93-.26v-.66c-.3-.069-.59-.109-.89-.109-.529,0-.829.18-.829.51s.29.52.789.52Z"/>
    <path d="M440.178,22.284l1.619-.25v7.366h-1.619v-7.116Z"/>
    <path d="M445.028,25.902c0-2.039,1.609-3.608,3.688-3.608,1.12,0,2.229.53,2.839,1.359l-1.159,1.1c-.46-.62-1.02-.93-1.68-.93-1.089,0-1.908.89-1.908,2.079s.819,2.079,1.908,2.079c.66,0,1.22-.311,1.68-.93l1.159,1.1c-.609.829-1.719,1.359-2.839,1.359-2.078,0-3.688-1.569-3.688-3.608Z"/>
    <path d="M452.028,26.832c0-1.52,1.159-2.669,2.688-2.669s2.688,1.149,2.688,2.669-1.159,2.668-2.688,2.668-2.688-1.149-2.688-2.668ZM455.826,26.832c0-.77-.46-1.319-1.109-1.319s-1.109.55-1.109,1.319.459,1.319,1.109,1.319,1.109-.55,1.109-1.319Z"/>
    <path d="M458.438,24.243h1.619v.84c.399-.6.959-.92,1.629-.92,1,0,1.709.729,1.709,1.759v3.479h-1.619v-3.009c0-.579-.34-.959-.859-.959-.35,0-.63.14-.859.43v3.538h-1.619v-5.157Z"/>
    <path d="M465.147,27.84v-2.349h-.999v-1.249h.999v-1.429l1.619-.33v1.759h1.379v1.249h-1.379v2.029c0,.46.18.619.68.619.189,0,.34-.02.659-.109v1.31c-.3.09-.779.159-1.109.159-1.219,0-1.849-.56-1.849-1.659Z"/>
    <path d="M469.048,24.243h1.619v1.169c.33-.859.789-1.269,1.399-1.269.229.01.34.029.539.13v1.389c-.199-.1-.479-.159-.759-.159-.48,0-.92.249-1.18.64v3.258h-1.619v-5.157Z"/>
    <path d="M473.088,26.832c0-1.52,1.159-2.669,2.688-2.669s2.688,1.149,2.688,2.669-1.159,2.668-2.688,2.668-2.688-1.149-2.688-2.668ZM476.886,26.832c0-.77-.46-1.319-1.109-1.319s-1.109.55-1.109,1.319.459,1.319,1.109,1.319,1.109-.55,1.109-1.319Z"/>
    <path d="M479.498,22.284l1.618-.25v7.366h-1.618v-7.116Z"/>
    <path d="M484.678,22.404h3.418c1.489,0,2.469.97,2.469,2.309,0,1.27-.979,2.249-2.469,2.249h-1.699v2.438h-1.719v-6.996ZM487.785,25.592c.7,0,1.04-.38,1.04-.89,0-.5-.34-.88-1.029-.88h-1.399v1.77h1.389Z"/>
    <path d="M491.628,22.284l1.618-.25v7.366h-1.618v-7.116Z"/>
    <path d="M494.268,27.92c0-.949.739-1.499,2.009-1.499.37,0,.739.07,1.199.24v-.42c0-.5-.33-.75-1.02-.75-.39,0-.85.11-1.449.36l-.56-1.13c.85-.38,1.609-.56,2.369-.56,1.429,0,2.259.71,2.259,1.939v3.298h-1.6v-.45c-.449.38-.88.53-1.429.53-1.05,0-1.779-.64-1.779-1.56ZM496.546,28.411c.34,0,.65-.09.93-.26v-.66c-.3-.069-.59-.109-.89-.109-.529,0-.829.18-.829.51s.29.52.789.52Z"/>
    <path d="M500.298,24.243h1.618v.84c.4-.6.96-.92,1.63-.92.999,0,1.709.729,1.709,1.759v3.479h-1.619v-3.009c0-.579-.34-.959-.859-.959-.351,0-.63.14-.86.43v3.538h-1.618v-5.157Z"/>
    <path d="M506.247,26.832c0-1.51,1.119-2.669,2.599-2.669,1.489,0,2.539,1.13,2.539,2.729v.35h-3.549c.15.58.62.97,1.21.97.43,0,.789-.149,1.02-.43l1.069.89c-.67.59-1.3.829-2.169.829-1.52,0-2.719-1.169-2.719-2.668ZM509.885,26.322c-.14-.55-.529-.899-1.049-.899-.51,0-.87.329-1,.899h2.049Z"/>
  </g>
</svg>