<?xml version="1.0" encoding="UTF-8"?>
<svg id="uuid-cd79e34e-ca42-4e00-b756-c99fefa0c19f" data-name="Layer 1" xmlns="http://www.w3.org/2000/svg" width="595.276" height="371.602" viewBox="0 0 595.276 371.602">
  <defs>
    <style>
      .uuid-077b83bb-682f-4851-bc2e-39bc40ea2187 {
        fill: #fefdfd;
      }

      .uuid-2081a46c-e2e2-44fe-be74-96ea1f4df2f1 {
        fill: #dfdfdf;
      }

      .uuid-9fd1b377-c0db-46d5-abf7-904c42e8f95e {
        fill: #b31bab;
      }

      .uuid-85c793cd-ad0a-457d-be73-90fc84d4c8d7, .uuid-8b34c9ed-ba0f-4dc2-87a2-4b5b075b39d1 {
        fill: #fff;
      }

      .uuid-85c793cd-ad0a-457d-be73-90fc84d4c8d7, .uuid-5bf1179f-36b7-40d7-8304-fa226c1040f1, .uuid-e6858c38-ca40-41f1-82bb-038527be72c3 {
        stroke-miterlimit: 10;
      }

      .uuid-85c793cd-ad0a-457d-be73-90fc84d4c8d7, .uuid-e6858c38-ca40-41f1-82bb-038527be72c3 {
        stroke: #a1c2e7;
      }

      .uuid-fc3ea0c7-0376-426b-bf48-2c6c898cd9fe {
        fill: #e03faf;
      }

      .uuid-014ebc3c-38e6-48d7-b043-c9a7189d13ac {
        fill: #fdf8f8;
      }

      .uuid-9cd78da5-a428-4ae1-92ea-e84d8dd7fcf6 {
        fill: #06c;
      }

      .uuid-e6328026-abf5-45b0-9f44-26aa2b4bd20d {
        fill: #af00a6;
      }

      .uuid-6fdfc03f-2a1f-44a2-996a-936b411f6dc7 {
        fill: #d93325;
      }

      .uuid-5bf1179f-36b7-40d7-8304-fa226c1040f1 {
        fill: none;
        stroke: #000;
      }

      .uuid-e6858c38-ca40-41f1-82bb-038527be72c3 {
        fill: #e6e6e6;
      }

      .uuid-4edc2141-58e0-492c-a4c5-c252130f8466 {
        fill: #d064ce;
      }

      .uuid-09d4b6a9-e078-47fd-875e-37afa8dfaf6b {
        fill: #dbe8f5;
      }

      .uuid-dc0fc6dc-bcd9-4fae-acb2-8ba2091def10 {
        fill: #070606;
      }
    </style>
  </defs>
  <rect class="uuid-8b34c9ed-ba0f-4dc2-87a2-4b5b075b39d1" x="-.984" y="-.089" width="597.244" height="371.781"/>
  <rect class="uuid-09d4b6a9-e078-47fd-875e-37afa8dfaf6b" x="172.683" y="28.08" width="334.153" height="281.504"/>
  <rect class="uuid-9cd78da5-a428-4ae1-92ea-e84d8dd7fcf6" x="34.993" y="38.308" width="124.308" height="30.269"/>
  <rect class="uuid-85c793cd-ad0a-457d-be73-90fc84d4c8d7" x="182.984" y="38.19" width="124.308" height="30.269"/>
  <rect class="uuid-85c793cd-ad0a-457d-be73-90fc84d4c8d7" x="182.984" y="92.166" width="124.308" height="30.269"/>
  <rect class="uuid-85c793cd-ad0a-457d-be73-90fc84d4c8d7" x="182.984" y="146.142" width="124.308" height="30.269"/>
  <rect class="uuid-85c793cd-ad0a-457d-be73-90fc84d4c8d7" x="373.268" y="268.752" width="124.308" height="30.269"/>
  <g>
    <path class="uuid-8b34c9ed-ba0f-4dc2-87a2-4b5b075b39d1" d="M61.957,49.132h5.287v1.439h-3.568v1.329h2.519v1.399h-2.519v1.389h3.608v1.439h-5.327v-6.996Z"/>
    <path class="uuid-8b34c9ed-ba0f-4dc2-87a2-4b5b075b39d1" d="M69.786,53.499l-1.869-2.528h1.869l.959,1.39.959-1.39h1.799l-1.899,2.559,1.959,2.599h-1.879l-1.02-1.469-1.019,1.469h-1.789l1.929-2.629Z"/>
    <path class="uuid-8b34c9ed-ba0f-4dc2-87a2-4b5b075b39d1" d="M74.876,54.568v-2.349h-.999v-1.249h.999v-1.429l1.619-.33v1.759h1.379v1.249h-1.379v2.029c0,.46.18.619.68.619.19,0,.34-.02.66-.109v1.31c-.3.09-.779.159-1.109.159-1.219,0-1.849-.56-1.849-1.659Z"/>
    <path class="uuid-8b34c9ed-ba0f-4dc2-87a2-4b5b075b39d1" d="M78.497,53.56c0-1.51,1.119-2.669,2.599-2.669,1.489,0,2.539,1.13,2.539,2.729v.35h-3.548c.15.58.62.97,1.209.97.43,0,.79-.149,1.02-.43l1.069.89c-.669.59-1.299.829-2.169.829-1.519,0-2.718-1.169-2.718-2.668ZM82.135,53.05c-.14-.55-.529-.899-1.049-.899-.51,0-.87.329-1,.899h2.049Z"/>
    <path class="uuid-8b34c9ed-ba0f-4dc2-87a2-4b5b075b39d1" d="M84.647,50.971h1.619v1.169c.33-.859.79-1.269,1.399-1.269.23.01.34.029.54.13v1.389c-.2-.1-.479-.159-.759-.159-.48,0-.919.249-1.18.64v3.258h-1.619v-5.157Z"/>
    <path class="uuid-8b34c9ed-ba0f-4dc2-87a2-4b5b075b39d1" d="M89.067,50.971h1.619v.84c.4-.6.959-.92,1.629-.92,1,0,1.709.729,1.709,1.759v3.479h-1.619v-3.009c0-.579-.34-.959-.859-.959-.35,0-.63.14-.86.43v3.538h-1.619v-5.157Z"/>
    <path class="uuid-8b34c9ed-ba0f-4dc2-87a2-4b5b075b39d1" d="M95.007,54.648c0-.949.74-1.499,2.009-1.499.37,0,.74.07,1.2.24v-.42c0-.5-.33-.75-1.02-.75-.39,0-.85.11-1.449.36l-.56-1.13c.85-.38,1.609-.56,2.369-.56,1.429,0,2.259.71,2.259,1.939v3.298h-1.599v-.45c-.45.38-.879.53-1.429.53-1.05,0-1.779-.64-1.779-1.56ZM97.286,55.139c.34,0,.65-.09.93-.26v-.66c-.3-.069-.59-.109-.89-.109-.53,0-.83.18-.83.51s.29.52.79.52Z"/>
    <path class="uuid-8b34c9ed-ba0f-4dc2-87a2-4b5b075b39d1" d="M101.037,49.012l1.619-.25v7.366h-1.619v-7.116Z"/>
    <path class="uuid-8b34c9ed-ba0f-4dc2-87a2-4b5b075b39d1" d="M105.837,53.56c0-1.51,1.159-2.669,2.668-2.669.85,0,1.629.34,2.149.949l-.99.99c-.33-.39-.66-.56-1.099-.56-.64,0-1.12.549-1.12,1.289s.48,1.289,1.12,1.289c.439,0,.77-.17,1.099-.56l.99.989c-.52.609-1.299.949-2.149.949-1.509,0-2.668-1.159-2.668-2.668Z"/>
    <path class="uuid-8b34c9ed-ba0f-4dc2-87a2-4b5b075b39d1" d="M111.457,49.012l1.619-.25v7.366h-1.619v-7.116Z"/>
    <path class="uuid-8b34c9ed-ba0f-4dc2-87a2-4b5b075b39d1" d="M114.236,49.271c0-.499.41-.909.909-.909s.91.41.91.909-.41.91-.91.91-.909-.41-.909-.91ZM114.336,50.971h1.619v5.157h-1.619v-5.157Z"/>
    <path class="uuid-8b34c9ed-ba0f-4dc2-87a2-4b5b075b39d1" d="M116.986,53.56c0-1.51,1.119-2.669,2.599-2.669,1.489,0,2.539,1.13,2.539,2.729v.35h-3.548c.15.58.62.97,1.209.97.43,0,.79-.149,1.02-.43l1.069.89c-.669.59-1.299.829-2.169.829-1.519,0-2.718-1.169-2.718-2.668ZM120.624,53.05c-.14-.55-.529-.899-1.049-.899-.51,0-.87.329-1,.899h2.049Z"/>
    <path class="uuid-8b34c9ed-ba0f-4dc2-87a2-4b5b075b39d1" d="M123.137,50.971h1.619v.84c.4-.6.959-.92,1.629-.92,1,0,1.709.729,1.709,1.759v3.479h-1.619v-3.009c0-.579-.34-.959-.859-.959-.35,0-.63.14-.86.43v3.538h-1.619v-5.157Z"/>
    <path class="uuid-8b34c9ed-ba0f-4dc2-87a2-4b5b075b39d1" d="M129.846,54.568v-2.349h-.999v-1.249h.999v-1.429l1.619-.33v1.759h1.379v1.249h-1.379v2.029c0,.46.18.619.68.619.19,0,.34-.02.66-.109v1.31c-.3.09-.779.159-1.109.159-1.219,0-1.849-.56-1.849-1.659Z"/>
  </g>
  <g>
    <path d="M196.194,48.565h1.199v6.996h-1.199v-6.996Z"/>
    <path d="M198.434,54.981l.53-.749c.66.409,1.099.569,1.609.569.6,0,1.009-.279,1.009-.68,0-.31-.209-.47-.699-.569l-.88-.15c-.979-.18-1.449-.629-1.449-1.379,0-.939.77-1.549,1.939-1.549.7,0,1.33.199,1.969.6l-.53.749c-.51-.329-1-.479-1.509-.479-.52,0-.859.22-.859.58,0,.319.18.459.7.55l.889.17c1,.18,1.479.64,1.479,1.389,0,.92-.88,1.629-2.049,1.629-.859,0-1.619-.239-2.148-.68Z"/>
    <path d="M204.193,54.263v-2.809h-1v-.899h1v-1.38l1.129-.239v1.619h1.389v.899h-1.389v2.559c0,.489.19.68.7.68.22,0,.379-.03.68-.12v.949c-.29.09-.67.14-.97.14-1.009,0-1.539-.479-1.539-1.398Z"/>
    <path d="M207.574,48.846c0-.38.31-.7.7-.7.38,0,.7.32.7.7s-.32.689-.7.689c-.39,0-.7-.311-.7-.689ZM207.704,50.555h1.129v5.007h-1.129v-5.007Z"/>
    <path d="M210.004,53.062c0-1.479,1.08-2.588,2.519-2.588,1.429,0,2.509,1.109,2.509,2.588s-1.08,2.589-2.509,2.589c-1.439,0-2.519-1.109-2.519-2.589ZM213.922,53.062c0-.929-.59-1.629-1.399-1.629-.819,0-1.409.7-1.409,1.629,0,.939.59,1.63,1.409,1.63.81,0,1.399-.69,1.399-1.63Z"/>
    <path d="M218.543,48.565h1.199v6.996h-1.199v-6.996Z"/>
    <path d="M221.233,50.555h1.129v.819c.38-.59.929-.899,1.579-.899,1.029,0,1.749.729,1.749,1.789v3.298h-1.14v-2.979c0-.729-.43-1.199-1.099-1.199-.46,0-.83.21-1.089.609v3.568h-1.129v-5.007Z"/>
    <path d="M227.383,57.261l.39-.83c.589.29,1.069.42,1.569.42.84,0,1.279-.38,1.279-1.109v-.85c-.36.44-.91.7-1.539.7-1.27,0-2.259-1.13-2.259-2.549s1.029-2.528,2.339-2.528c.58,0,1.099.229,1.469.669v-.629h1.119v5.187c0,1.289-.839,2.009-2.358,2.009-.72,0-1.419-.18-2.009-.489ZM230.621,54.103v-2.099c-.29-.34-.72-.54-1.189-.54-.859,0-1.499.67-1.499,1.589,0,.91.64,1.6,1.499,1.6.49,0,.9-.2,1.189-.55Z"/>
    <path d="M233.144,50.555h1.129v1.079c.28-.76.759-1.17,1.379-1.17.19.011.32.03.49.101v.989c-.18-.07-.41-.12-.62-.12-.549,0-.999.31-1.249.83v3.298h-1.129v-5.007Z"/>
    <path d="M236.613,53.062c0-1.469,1.06-2.588,2.438-2.588,1.37,0,2.369,1.089,2.369,2.588v.271h-3.698c.11.81.72,1.399,1.499,1.399.47,0,.91-.181,1.189-.47l.74.669c-.61.51-1.219.729-1.979.729-1.439,0-2.559-1.129-2.559-2.599ZM240.351,52.633c-.12-.729-.64-1.239-1.309-1.239-.68,0-1.179.49-1.309,1.239h2.618Z"/>
    <path d="M242.173,54.981l.53-.749c.66.409,1.099.569,1.609.569.6,0,1.009-.279,1.009-.68,0-.31-.209-.47-.699-.569l-.88-.15c-.979-.18-1.449-.629-1.449-1.379,0-.939.77-1.549,1.939-1.549.7,0,1.33.199,1.969.6l-.53.749c-.51-.329-1-.479-1.509-.479-.52,0-.859.22-.859.58,0,.319.18.459.7.55l.889.17c1,.18,1.479.64,1.479,1.389,0,.92-.88,1.629-2.049,1.629-.859,0-1.619-.239-2.148-.68Z"/>
    <path d="M246.963,54.981l.53-.749c.66.409,1.099.569,1.609.569.6,0,1.009-.279,1.009-.68,0-.31-.209-.47-.699-.569l-.88-.15c-.979-.18-1.449-.629-1.449-1.379,0-.939.77-1.549,1.939-1.549.7,0,1.33.199,1.969.6l-.53.749c-.51-.329-1-.479-1.509-.479-.52,0-.859.22-.859.58,0,.319.18.459.7.55l.889.17c1,.18,1.479.64,1.479,1.389,0,.92-.88,1.629-2.049,1.629-.859,0-1.619-.239-2.148-.68Z"/>
    <path d="M254.263,52.063c0-2.019,1.569-3.608,3.588-3.608,1.109,0,2.159.44,2.829,1.25l-.84.749c-.479-.6-1.209-.919-1.989-.919-1.349,0-2.358,1.099-2.358,2.528,0,1.439,1.029,2.538,2.389,2.538,1.119,0,1.969-.77,2.119-1.828h-2.079v-1.03h3.349v.391c0,2.009-1.449,3.538-3.408,3.538-2.019,0-3.598-1.59-3.598-3.608Z"/>
    <path d="M262.213,54.122c0-.899.739-1.469,1.919-1.469.47,0,.909.1,1.349.319v-.56c0-.659-.38-.999-1.149-.999-.42,0-.879.12-1.459.39l-.4-.819c.75-.34,1.409-.51,2.079-.51,1.31,0,2.049.659,2.049,1.818v3.269h-1.119v-.52c-.43.42-.91.609-1.489.609-1.049,0-1.779-.63-1.779-1.529ZM264.302,54.852c.45,0,.839-.13,1.179-.419v-.81c-.36-.17-.72-.24-1.149-.24-.649,0-1.06.27-1.06.72,0,.46.4.749,1.03.749Z"/>
    <path d="M268.442,54.263v-2.809h-1v-.899h1v-1.38l1.129-.239v1.619h1.389v.899h-1.389v2.559c0,.489.19.68.7.68.22,0,.379-.03.68-.12v.949c-.29.09-.67.14-.97.14-1.009,0-1.539-.479-1.539-1.398Z"/>
    <path d="M271.652,53.062c0-1.469,1.06-2.588,2.438-2.588,1.37,0,2.369,1.089,2.369,2.588v.271h-3.698c.11.81.72,1.399,1.499,1.399.47,0,.91-.181,1.189-.47l.74.669c-.61.51-1.219.729-1.979.729-1.439,0-2.559-1.129-2.559-2.599ZM275.39,52.633c-.12-.729-.64-1.239-1.309-1.239-.68,0-1.179.49-1.309,1.239h2.618Z"/>
    <path d="M277.043,50.555h1.079l.88,3.527,1.039-3.527h.95l1.029,3.527.879-3.527h1.05l-1.35,5.007h-1.079l-1.02-3.528-1.009,3.528h-1.1l-1.349-5.007Z"/>
    <path d="M284.543,54.122c0-.899.739-1.469,1.919-1.469.47,0,.909.1,1.349.319v-.56c0-.659-.38-.999-1.149-.999-.42,0-.879.12-1.459.39l-.4-.819c.75-.34,1.409-.51,2.079-.51,1.31,0,2.049.659,2.049,1.818v3.269h-1.119v-.52c-.43.42-.91.609-1.489.609-1.049,0-1.779-.63-1.779-1.529ZM286.632,54.852c.45,0,.839-.13,1.179-.419v-.81c-.36-.17-.72-.24-1.149-.24-.649,0-1.06.27-1.06.72,0,.46.4.749,1.03.749Z"/>
    <path d="M290.002,57.681v-.979c.13.029.29.04.44.04.4,0,.64-.181.81-.57l.23-.56-1.889-5.057h1.25l1.279,3.708,1.389-3.708h1.239l-2.398,5.876c-.39.97-.85,1.319-1.789,1.319-.16,0-.36-.02-.56-.069Z"/>
  </g>
  <g>
    <path d="M211.674,102.541h1.289l2.149,5.776,2.169-5.776h1.239l-2.739,6.996h-1.389l-2.718-6.996Z"/>
    <path d="M219.144,102.82c0-.379.31-.699.7-.699.38,0,.7.32.7.699s-.32.69-.7.69c-.39,0-.7-.311-.7-.69ZM219.273,104.53h1.129v5.007h-1.129v-5.007Z"/>
    <path d="M221.804,104.53h1.129v1.079c.28-.76.759-1.17,1.379-1.17.19.011.32.03.49.101v.989c-.18-.07-.41-.12-.62-.12-.549,0-.999.31-1.249.83v3.298h-1.129v-5.007Z"/>
    <path d="M226.354,108.238v-2.809h-1v-.899h1v-1.38l1.129-.239v1.619h1.389v.899h-1.389v2.559c0,.489.19.68.7.68.22,0,.379-.03.68-.12v.949c-.29.09-.67.14-.97.14-1.009,0-1.539-.479-1.539-1.398Z"/>
    <path d="M229.833,107.828v-3.298h1.139v2.968c0,.74.43,1.21,1.1,1.21.45,0,.83-.2,1.089-.601v-3.577h1.129v5.007h-1.129v-.81c-.38.59-.919.89-1.589.89-1.02,0-1.739-.739-1.739-1.789Z"/>
    <path d="M235.434,108.098c0-.899.739-1.469,1.919-1.469.47,0,.909.1,1.349.319v-.56c0-.659-.38-.999-1.149-.999-.42,0-.879.12-1.459.39l-.4-.819c.75-.34,1.409-.51,2.079-.51,1.31,0,2.049.659,2.049,1.818v3.269h-1.119v-.52c-.43.42-.91.609-1.489.609-1.049,0-1.779-.63-1.779-1.529ZM237.522,108.827c.45,0,.839-.13,1.179-.419v-.81c-.36-.17-.72-.24-1.149-.24-.649,0-1.06.27-1.06.72,0,.46.4.749,1.03.749Z"/>
    <path d="M241.193,102.371l1.129-.2v7.366h-1.129v-7.166Z"/>
    <path d="M245.514,108.957l.53-.749c.659.409,1.099.569,1.609.569.6,0,1.009-.279,1.009-.68,0-.31-.209-.47-.699-.569l-.88-.15c-.979-.18-1.449-.629-1.449-1.379,0-.939.77-1.549,1.939-1.549.7,0,1.33.199,1.969.6l-.53.749c-.51-.329-1-.479-1.509-.479-.52,0-.859.22-.859.58,0,.319.18.459.699.55l.89.17c1,.18,1.479.64,1.479,1.389,0,.92-.88,1.629-2.049,1.629-.86,0-1.619-.239-2.149-.68Z"/>
    <path d="M250.573,107.038c0-1.469,1.06-2.588,2.438-2.588,1.37,0,2.369,1.089,2.369,2.588v.271h-3.698c.11.81.72,1.399,1.499,1.399.47,0,.91-.181,1.189-.47l.74.669c-.61.51-1.219.729-1.979.729-1.439,0-2.559-1.129-2.559-2.599ZM254.311,106.608c-.12-.729-.64-1.239-1.309-1.239-.68,0-1.179.49-1.309,1.239h2.618Z"/>
    <path d="M256.533,104.53h1.129v1.079c.28-.76.759-1.17,1.379-1.17.19.011.32.03.49.101v.989c-.18-.07-.41-.12-.62-.12-.549,0-.999.31-1.249.83v3.298h-1.129v-5.007Z"/>
    <path d="M260.023,104.53h1.229l1.399,3.638,1.39-3.638h1.179l-2.059,5.007h-1.099l-2.039-5.007Z"/>
    <path d="M265.893,102.82c0-.379.31-.699.7-.699.38,0,.7.32.7.699s-.32.69-.7.69c-.39,0-.7-.311-.7-.69ZM266.022,104.53h1.129v5.007h-1.129v-5.007Z"/>
    <path d="M268.323,107.038c0-1.449,1.1-2.588,2.529-2.588.779,0,1.499.31,1.999.85l-.699.729c-.35-.39-.78-.59-1.26-.59-.809,0-1.439.699-1.439,1.599,0,.91.63,1.6,1.439,1.6.48,0,.91-.2,1.26-.58l.699.72c-.5.54-1.219.85-1.999.85-1.429,0-2.529-1.129-2.529-2.589Z"/>
    <path d="M273.403,107.038c0-1.469,1.06-2.588,2.438-2.588,1.37,0,2.369,1.089,2.369,2.588v.271h-3.698c.11.81.72,1.399,1.499,1.399.47,0,.91-.181,1.189-.47l.74.669c-.61.51-1.219.729-1.979.729-1.439,0-2.559-1.129-2.559-2.599ZM277.141,106.608c-.12-.729-.64-1.239-1.309-1.239-.68,0-1.179.49-1.309,1.239h2.618Z"/>
  </g>
  <rect class="uuid-85c793cd-ad0a-457d-be73-90fc84d4c8d7" x="372.988" y="38.19" width="124.308" height="30.269"/>
  <rect class="uuid-85c793cd-ad0a-457d-be73-90fc84d4c8d7" x="372.988" y="92.166" width="124.308" height="30.269"/>
  <g>
    <path d="M421.956,48.565h3.108c1.39,0,2.339.859,2.339,2.119,0,.909-.539,1.619-1.389,1.919l1.479,2.958h-1.329l-1.35-2.799h-1.658v2.799h-1.2v-6.996ZM424.955,51.804c.749,0,1.239-.439,1.239-1.109,0-.68-.49-1.119-1.239-1.119h-1.799v2.229h1.799Z"/>
    <path d="M428.057,53.062c0-1.479,1.08-2.588,2.519-2.588,1.43,0,2.509,1.109,2.509,2.588s-1.079,2.589-2.509,2.589c-1.438,0-2.519-1.109-2.519-2.589ZM431.975,53.062c0-.929-.59-1.629-1.399-1.629-.819,0-1.409.7-1.409,1.629,0,.939.59,1.63,1.409,1.63.81,0,1.399-.69,1.399-1.63Z"/>
    <path d="M434.217,53.853v-3.298h1.139v2.968c0,.74.431,1.21,1.1,1.21.45,0,.83-.2,1.09-.601v-3.577h1.129v5.007h-1.129v-.81c-.38.59-.92.89-1.589.89-1.02,0-1.739-.739-1.739-1.789Z"/>
    <path d="M440.696,54.263v-2.809h-1v-.899h1v-1.38l1.129-.239v1.619h1.39v.899h-1.39v2.559c0,.489.19.68.7.68.22,0,.379-.03.68-.12v.949c-.29.09-.67.14-.97.14-1.01,0-1.539-.479-1.539-1.398Z"/>
    <path d="M443.906,53.062c0-1.469,1.06-2.588,2.438-2.588,1.37,0,2.369,1.089,2.369,2.588v.271h-3.698c.11.81.72,1.399,1.499,1.399.47,0,.91-.181,1.189-.47l.74.669c-.61.51-1.22.729-1.979.729-1.438,0-2.559-1.129-2.559-2.599ZM447.645,52.633c-.12-.729-.64-1.239-1.31-1.239-.68,0-1.179.49-1.309,1.239h2.618Z"/>
  </g>
  <g>
    <path d="M418.462,108.518l.649-.88c.899.74,1.549,1.02,2.358,1.02.92,0,1.56-.47,1.56-1.119,0-.569-.34-.84-1.27-.999l-1.289-.22c-1.209-.221-1.799-.82-1.799-1.779,0-1.27,1.009-2.109,2.578-2.109,1.05,0,2.009.311,2.809.899l-.609.9c-.7-.53-1.449-.81-2.239-.81-.839,0-1.398.43-1.398.999,0,.51.319.77,1.079.89l1.249.21c1.409.25,2.069.869,2.069,1.929,0,1.289-1.14,2.199-2.809,2.199-1.1,0-2.049-.38-2.938-1.13Z"/>
    <path d="M425.252,107.828v-3.298h1.139v2.968c0,.74.431,1.21,1.1,1.21.45,0,.83-.2,1.09-.601v-3.577h1.129v5.007h-1.129v-.81c-.38.59-.92.89-1.589.89-1.02,0-1.739-.739-1.739-1.789Z"/>
    <path d="M431.111,102.401l1.13-.19v2.988c.35-.439.909-.709,1.539-.709,1.27,0,2.259,1.129,2.259,2.548,0,1.43-1.02,2.549-2.329,2.549-.59,0-1.109-.239-1.489-.689v.64h-1.109v-7.136ZM434.93,107.038c0-.909-.64-1.599-1.489-1.599-.5,0-.91.2-1.199.56v2.089c.289.35.72.56,1.199.56.859,0,1.489-.689,1.489-1.609Z"/>
    <path d="M437.222,104.53h1.129v.819c.38-.59.93-.899,1.579-.899,1.029,0,1.749.729,1.749,1.789v3.298h-1.14v-2.979c0-.729-.43-1.199-1.099-1.199-.46,0-.83.21-1.09.609v3.568h-1.129v-5.007Z"/>
    <path d="M442.812,107.038c0-1.469,1.06-2.588,2.438-2.588,1.369,0,2.369,1.089,2.369,2.588v.271h-3.698c.109.81.72,1.399,1.499,1.399.47,0,.909-.181,1.189-.47l.739.669c-.609.51-1.219.729-1.979.729-1.439,0-2.559-1.129-2.559-2.599ZM446.549,106.608c-.119-.729-.64-1.239-1.309-1.239-.68,0-1.18.49-1.31,1.239h2.618Z"/>
    <path d="M449.241,108.238v-2.809h-1v-.899h1v-1.38l1.129-.239v1.619h1.39v.899h-1.39v2.559c0,.489.19.68.7.68.22,0,.379-.03.68-.12v.949c-.29.09-.67.14-.97.14-1.01,0-1.539-.479-1.539-1.398Z"/>
  </g>
  <g>
    <path d="M324.207,42.374h1.129v.789c.37-.569.87-.869,1.479-.869.689,0,1.219.369,1.479.959.39-.63.949-.959,1.658-.959.97,0,1.64.749,1.64,1.809v3.278h-1.13v-3.028c0-.699-.39-1.149-1.009-1.149-.41,0-.75.189-1,.6.01.1.021.2.021.3v3.278h-1.14v-3.028c0-.699-.39-1.149-1.01-1.149-.409,0-.739.189-.989.58v3.598h-1.129v-5.007Z"/>
    <path d="M332.707,45.941c0-.899.739-1.469,1.919-1.469.47,0,.909.1,1.349.319v-.56c0-.659-.38-.999-1.149-.999-.42,0-.879.12-1.459.39l-.399-.819c.749-.34,1.409-.51,2.078-.51,1.31,0,2.049.659,2.049,1.818v3.269h-1.119v-.52c-.43.42-.909.609-1.489.609-1.049,0-1.778-.63-1.778-1.529ZM334.796,46.671c.449,0,.839-.13,1.179-.419v-.81c-.359-.17-.72-.24-1.149-.24-.649,0-1.06.27-1.06.72,0,.46.4.749,1.03.749Z"/>
    <path d="M338.937,46.082v-2.809h-1v-.899h1v-1.38l1.129-.239v1.619h1.39v.899h-1.39v2.559c0,.489.19.68.7.68.22,0,.379-.03.68-.12v.949c-.29.09-.67.14-.97.14-1.01,0-1.539-.479-1.539-1.398Z"/>
    <path d="M342.146,44.882c0-1.449,1.1-2.588,2.529-2.588.779,0,1.499.31,1.998.85l-.699.729c-.35-.39-.779-.59-1.26-.59-.809,0-1.438.699-1.438,1.599,0,.91.63,1.6,1.438,1.6.48,0,.91-.2,1.26-.58l.699.72c-.499.54-1.219.85-1.998.85-1.43,0-2.529-1.129-2.529-2.589Z"/>
    <path d="M347.606,40.215l1.129-.2v3.179c.38-.59.93-.899,1.579-.899,1.029,0,1.749.729,1.749,1.789v3.298h-1.14v-2.979c0-.729-.43-1.199-1.099-1.199-.46,0-.83.21-1.09.609v3.568h-1.129v-7.166Z"/>
  </g>
  <g>
    <path d="M323.657,100.216c0-1.429,1.029-2.548,2.339-2.548.569,0,1.089.229,1.459.649v-2.769l1.129-.2v7.366h-1.119v-.659c-.359.449-.92.709-1.549.709-1.27,0-2.259-1.129-2.259-2.549ZM327.455,101.266v-2.108c-.29-.34-.72-.54-1.189-.54-.859,0-1.499.68-1.499,1.599,0,.91.64,1.6,1.499,1.6.489,0,.899-.19,1.189-.55Z"/>
    <path d="M329.757,100.216c0-1.469,1.06-2.588,2.438-2.588,1.37,0,2.369,1.089,2.369,2.588v.271h-3.698c.11.81.72,1.399,1.499,1.399.47,0,.91-.181,1.189-.47l.74.669c-.61.51-1.22.729-1.979.729-1.438,0-2.559-1.129-2.559-2.599ZM333.495,99.787c-.12-.729-.64-1.239-1.31-1.239-.68,0-1.179.49-1.309,1.239h2.618Z"/>
    <path d="M336.246,98.608h-1.079v-.899h1.079v-.86c0-1.089.609-1.679,1.729-1.679.279,0,.56.03.749.09v.96c-.25-.051-.399-.07-.6-.07-.52,0-.749.229-.749.72v.84h1.349v.899h-1.349v4.107h-1.13v-4.107Z"/>
    <path d="M339.536,95.999c0-.379.311-.699.7-.699.38,0,.699.32.699.699s-.319.69-.699.69c-.39,0-.7-.311-.7-.69ZM339.666,97.708h1.13v5.007h-1.13v-5.007Z"/>
    <path d="M342.196,97.708h1.13v.819c.38-.59.929-.899,1.579-.899,1.029,0,1.749.729,1.749,1.789v3.298h-1.14v-2.979c0-.729-.43-1.199-1.1-1.199-.46,0-.829.21-1.089.609v3.568h-1.13v-5.007Z"/>
    <path d="M347.786,100.216c0-1.469,1.06-2.588,2.438-2.588,1.37,0,2.369,1.089,2.369,2.588v.271h-3.698c.11.81.72,1.399,1.499,1.399.47,0,.91-.181,1.189-.47l.74.669c-.61.51-1.22.729-1.979.729-1.438,0-2.559-1.129-2.559-2.599ZM351.524,99.787c-.12-.729-.64-1.239-1.31-1.239-.68,0-1.179.49-1.309,1.239h2.618Z"/>
  </g>
  <g>
    <path d="M208.794,156.517h2.559c2.009,0,3.508,1.529,3.508,3.498s-1.499,3.498-3.508,3.498h-2.559v-6.996ZM211.383,162.474c1.259,0,2.249-1.069,2.249-2.459s-.989-2.459-2.249-2.459h-1.389v4.918h1.389Z"/>
    <path d="M215.844,161.014c0-1.469,1.06-2.588,2.438-2.588,1.37,0,2.369,1.089,2.369,2.588v.271h-3.698c.11.81.72,1.399,1.499,1.399.47,0,.91-.181,1.189-.47l.74.669c-.61.51-1.219.729-1.979.729-1.439,0-2.559-1.129-2.559-2.599ZM219.582,160.584c-.12-.729-.64-1.239-1.309-1.239-.68,0-1.179.49-1.309,1.239h2.618Z"/>
    <path d="M221.404,162.933l.53-.749c.659.409,1.099.569,1.609.569.6,0,1.009-.279,1.009-.68,0-.31-.209-.47-.699-.569l-.88-.15c-.979-.18-1.449-.629-1.449-1.379,0-.939.77-1.549,1.939-1.549.7,0,1.33.199,1.969.6l-.53.749c-.51-.329-1-.479-1.509-.479-.52,0-.859.22-.859.58,0,.319.18.459.699.55l.89.17c1,.18,1.479.64,1.479,1.389,0,.92-.88,1.629-2.049,1.629-.86,0-1.619-.239-2.149-.68Z"/>
    <path d="M227.164,162.214v-2.809h-1v-.899h1v-1.38l1.129-.239v1.619h1.389v.899h-1.389v2.559c0,.489.19.68.7.68.22,0,.379-.03.68-.12v.949c-.29.09-.67.14-.97.14-1.009,0-1.539-.479-1.539-1.398Z"/>
    <path d="M230.544,156.797c0-.38.31-.7.7-.7.38,0,.7.32.7.7s-.32.689-.7.689c-.39,0-.7-.311-.7-.689ZM230.674,158.506h1.129v5.007h-1.129v-5.007Z"/>
    <path d="M233.204,158.506h1.129v.819c.38-.59.929-.899,1.579-.899,1.029,0,1.749.729,1.749,1.789v3.298h-1.14v-2.979c0-.729-.43-1.199-1.099-1.199-.46,0-.83.21-1.089.609v3.568h-1.129v-5.007Z"/>
    <path d="M238.764,162.073c0-.899.739-1.469,1.919-1.469.47,0,.909.1,1.349.319v-.56c0-.659-.38-.999-1.149-.999-.42,0-.879.12-1.459.39l-.4-.819c.75-.34,1.409-.51,2.079-.51,1.31,0,2.049.659,2.049,1.818v3.269h-1.119v-.52c-.43.42-.91.609-1.489.609-1.049,0-1.779-.63-1.779-1.529ZM240.853,162.803c.45,0,.839-.13,1.179-.419v-.81c-.36-.17-.72-.24-1.149-.24-.649,0-1.06.27-1.06.72,0,.46.4.749,1.03.749Z"/>
    <path d="M244.993,162.214v-2.809h-1v-.899h1v-1.38l1.129-.239v1.619h1.389v.899h-1.389v2.559c0,.489.19.68.7.68.22,0,.379-.03.68-.12v.949c-.29.09-.67.14-.97.14-1.009,0-1.539-.479-1.539-1.398Z"/>
    <path d="M248.374,156.797c0-.38.31-.7.7-.7.38,0,.7.32.7.7s-.32.689-.7.689c-.39,0-.7-.311-.7-.689ZM248.503,158.506h1.129v5.007h-1.129v-5.007Z"/>
    <path d="M250.803,161.014c0-1.479,1.08-2.588,2.519-2.588,1.429,0,2.509,1.109,2.509,2.588s-1.08,2.589-2.509,2.589c-1.439,0-2.519-1.109-2.519-2.589ZM254.721,161.014c0-.929-.59-1.629-1.399-1.629-.819,0-1.409.7-1.409,1.629,0,.939.59,1.63,1.409,1.63.81,0,1.399-.69,1.399-1.63Z"/>
    <path d="M257.003,158.506h1.129v.819c.38-.59.929-.899,1.579-.899,1.029,0,1.749.729,1.749,1.789v3.298h-1.14v-2.979c0-.729-.43-1.199-1.099-1.199-.46,0-.83.21-1.089.609v3.568h-1.129v-5.007Z"/>
    <path d="M265.073,158.506h1.129v1.079c.28-.76.759-1.17,1.379-1.17.19.011.32.03.49.101v.989c-.18-.07-.41-.12-.62-.12-.549,0-.999.31-1.249.83v3.298h-1.129v-5.007Z"/>
    <path d="M268.913,161.804v-3.298h1.139v2.968c0,.74.43,1.21,1.1,1.21.45,0,.83-.2,1.089-.601v-3.577h1.129v5.007h-1.129v-.81c-.38.59-.919.89-1.589.89-1.019,0-1.739-.739-1.739-1.789Z"/>
    <path d="M274.773,156.347l1.129-.2v7.366h-1.129v-7.166Z"/>
    <path d="M277.063,161.014c0-1.469,1.06-2.588,2.438-2.588,1.37,0,2.369,1.089,2.369,2.588v.271h-3.698c.11.81.72,1.399,1.499,1.399.47,0,.91-.181,1.189-.47l.74.669c-.61.51-1.219.729-1.979.729-1.439,0-2.559-1.129-2.559-2.599ZM280.801,160.584c-.12-.729-.64-1.239-1.309-1.239-.68,0-1.179.49-1.309,1.239h2.618Z"/>
  </g>
  <g>
    <path d="M404.553,285.103l.649-.88c.899.74,1.549,1.02,2.358,1.02.92,0,1.56-.47,1.56-1.119,0-.569-.34-.84-1.27-.999l-1.289-.22c-1.21-.221-1.799-.82-1.799-1.779,0-1.27,1.009-2.109,2.578-2.109,1.05,0,2.009.311,2.809.899l-.609.9c-.7-.53-1.449-.81-2.239-.81-.84,0-1.399.43-1.399.999,0,.51.32.77,1.08.89l1.249.21c1.409.25,2.068.869,2.068,1.929,0,1.289-1.139,2.199-2.808,2.199-1.1,0-2.05-.38-2.938-1.13Z"/>
    <path d="M411.252,283.624c0-1.469,1.06-2.588,2.438-2.588,1.369,0,2.369,1.089,2.369,2.588v.271h-3.698c.11.81.72,1.399,1.499,1.399.47,0,.91-.181,1.189-.47l.739.669c-.609.51-1.219.729-1.979.729-1.439,0-2.559-1.129-2.559-2.599ZM414.99,283.194c-.12-.729-.64-1.239-1.31-1.239-.68,0-1.18.49-1.31,1.239h2.619Z"/>
    <path d="M417.212,281.116h1.13v1.079c.279-.76.76-1.17,1.379-1.17.19.011.32.03.49.101v.989c-.18-.07-.41-.12-.62-.12-.55,0-.999.31-1.249.83v3.298h-1.13v-5.007Z"/>
    <path d="M420.702,281.116h1.229l1.399,3.638,1.39-3.638h1.179l-2.059,5.007h-1.1l-2.038-5.007Z"/>
    <path d="M426.571,279.406c0-.379.31-.699.7-.699.379,0,.699.32.699.699s-.32.69-.699.69c-.391,0-.7-.311-.7-.69ZM426.701,281.116h1.13v5.007h-1.13v-5.007Z"/>
    <path d="M429.002,283.624c0-1.449,1.1-2.588,2.528-2.588.78,0,1.499.31,1.999.85l-.699.729c-.35-.39-.779-.59-1.26-.59-.81,0-1.439.699-1.439,1.599,0,.91.63,1.6,1.439,1.6.48,0,.91-.2,1.26-.58l.699.72c-.5.54-1.219.85-1.999.85-1.429,0-2.528-1.129-2.528-2.589Z"/>
    <path d="M434.082,283.624c0-1.469,1.06-2.588,2.438-2.588,1.369,0,2.369,1.089,2.369,2.588v.271h-3.698c.11.81.72,1.399,1.499,1.399.47,0,.91-.181,1.189-.47l.739.669c-.609.51-1.219.729-1.979.729-1.439,0-2.559-1.129-2.559-2.599ZM437.82,283.194c-.12-.729-.64-1.239-1.31-1.239-.68,0-1.18.49-1.31,1.239h2.619Z"/>
    <path d="M442.062,283.624c0-1.469,1.06-2.588,2.438-2.588,1.369,0,2.369,1.089,2.369,2.588v.271h-3.698c.11.81.72,1.399,1.499,1.399.47,0,.91-.181,1.189-.47l.739.669c-.609.51-1.219.729-1.979.729-1.439,0-2.559-1.129-2.559-2.599ZM445.8,283.194c-.12-.729-.64-1.239-1.31-1.239-.68,0-1.18.49-1.31,1.239h2.619Z"/>
    <path d="M448.021,281.116h1.13v.819c.38-.59.93-.899,1.579-.899,1.029,0,1.749.729,1.749,1.789v3.298h-1.14v-2.979c0-.729-.43-1.199-1.1-1.199-.459,0-.829.21-1.089.609v3.568h-1.13v-5.007Z"/>
    <path d="M454.312,284.824v-2.809h-.999v-.899h.999v-1.38l1.129-.239v1.619h1.39v.899h-1.39v2.559c0,.489.19.68.7.68.22,0,.38-.03.68-.12v.949c-.29.09-.67.14-.97.14-1.01,0-1.539-.479-1.539-1.398Z"/>
    <path d="M457.831,281.116h1.13v1.079c.279-.76.76-1.17,1.379-1.17.19.011.32.03.49.101v.989c-.18-.07-.41-.12-.62-.12-.55,0-.999.31-1.249.83v3.298h-1.13v-5.007Z"/>
    <path d="M461.661,288.242v-.979c.13.029.29.04.439.04.399,0,.64-.181.81-.57l.229-.56-1.889-5.057h1.249l1.279,3.708,1.39-3.708h1.239l-2.398,5.876c-.39.97-.85,1.319-1.789,1.319-.16,0-.36-.02-.56-.069Z"/>
  </g>
  <rect class="uuid-9cd78da5-a428-4ae1-92ea-e84d8dd7fcf6" x="373.445" y="321.994" width="124.308" height="30.269"/>
  <g>
    <path class="uuid-8b34c9ed-ba0f-4dc2-87a2-4b5b075b39d1" d="M396.443,332.369h5.287v1.439h-3.567v1.329h2.519v1.399h-2.519v1.389h3.607v1.439h-5.327v-6.996Z"/>
    <path class="uuid-8b34c9ed-ba0f-4dc2-87a2-4b5b075b39d1" d="M404.273,336.736l-1.869-2.528h1.869l.959,1.39.96-1.39h1.799l-1.899,2.559,1.959,2.599h-1.879l-1.02-1.469-1.02,1.469h-1.789l1.93-2.629Z"/>
    <path class="uuid-8b34c9ed-ba0f-4dc2-87a2-4b5b075b39d1" d="M409.363,337.806v-2.349h-1v-1.249h1v-1.429l1.619-.33v1.759h1.379v1.249h-1.379v2.029c0,.46.18.619.68.619.189,0,.34-.02.659-.109v1.31c-.3.09-.779.159-1.109.159-1.22,0-1.849-.56-1.849-1.659Z"/>
    <path class="uuid-8b34c9ed-ba0f-4dc2-87a2-4b5b075b39d1" d="M412.983,336.797c0-1.51,1.12-2.669,2.599-2.669,1.489,0,2.539,1.13,2.539,2.729v.35h-3.548c.149.58.619.97,1.209.97.43,0,.79-.149,1.02-.43l1.069.89c-.67.59-1.299.829-2.169.829-1.52,0-2.719-1.169-2.719-2.668ZM416.622,336.287c-.141-.55-.53-.899-1.05-.899-.51,0-.869.329-.999.899h2.049Z"/>
    <path class="uuid-8b34c9ed-ba0f-4dc2-87a2-4b5b075b39d1" d="M419.134,334.208h1.619v1.169c.329-.859.789-1.269,1.399-1.269.229.01.34.029.539.13v1.389c-.199-.1-.479-.159-.76-.159-.479,0-.919.249-1.179.64v3.258h-1.619v-5.157Z"/>
    <path class="uuid-8b34c9ed-ba0f-4dc2-87a2-4b5b075b39d1" d="M423.554,334.208h1.619v.84c.399-.6.959-.92,1.629-.92.999,0,1.709.729,1.709,1.759v3.479h-1.619v-3.009c0-.579-.34-.959-.859-.959-.35,0-.63.14-.859.43v3.538h-1.619v-5.157Z"/>
    <path class="uuid-8b34c9ed-ba0f-4dc2-87a2-4b5b075b39d1" d="M429.493,337.886c0-.949.739-1.499,2.009-1.499.37,0,.74.07,1.199.24v-.42c0-.5-.329-.75-1.02-.75-.39,0-.849.11-1.449.36l-.56-1.13c.85-.38,1.609-.56,2.369-.56,1.429,0,2.259.71,2.259,1.939v3.298h-1.6v-.45c-.449.38-.879.53-1.429.53-1.05,0-1.779-.64-1.779-1.56ZM431.772,338.376c.34,0,.649-.09.929-.26v-.66c-.3-.069-.589-.109-.889-.109-.53,0-.83.18-.83.51s.29.52.79.52Z"/>
    <path class="uuid-8b34c9ed-ba0f-4dc2-87a2-4b5b075b39d1" d="M435.523,332.249l1.619-.25v7.366h-1.619v-7.116Z"/>
    <path class="uuid-8b34c9ed-ba0f-4dc2-87a2-4b5b075b39d1" d="M440.134,338.836l.71-1.08c.739.39,1.159.52,1.658.52.46,0,.74-.159.74-.419,0-.2-.15-.311-.479-.37l-.99-.18c-.999-.19-1.519-.7-1.519-1.499,0-1.05.81-1.68,2.158-1.68.72,0,1.43.2,2.1.59l-.74,1.029c-.52-.3-.999-.439-1.479-.439-.391,0-.62.13-.62.35,0,.21.13.3.529.37l.97.18c1.02.189,1.55.71,1.55,1.489,0,1.01-.95,1.769-2.22,1.769-.939,0-1.769-.22-2.368-.629Z"/>
    <path class="uuid-8b34c9ed-ba0f-4dc2-87a2-4b5b075b39d1" d="M445.482,336.797c0-1.51,1.12-2.669,2.599-2.669,1.489,0,2.539,1.13,2.539,2.729v.35h-3.548c.149.58.619.97,1.209.97.43,0,.79-.149,1.02-.43l1.069.89c-.67.59-1.299.829-2.169.829-1.519,0-2.719-1.169-2.719-2.668ZM449.121,336.287c-.141-.55-.53-.899-1.05-.899-.51,0-.869.329-.999.899h2.049Z"/>
    <path class="uuid-8b34c9ed-ba0f-4dc2-87a2-4b5b075b39d1" d="M451.633,334.208h1.619v1.169c.329-.859.789-1.269,1.399-1.269.229.01.34.029.539.13v1.389c-.199-.1-.479-.159-.76-.159-.479,0-.919.249-1.179.64v3.258h-1.619v-5.157Z"/>
    <path class="uuid-8b34c9ed-ba0f-4dc2-87a2-4b5b075b39d1" d="M455.644,334.208h1.759l1.169,3.238,1.18-3.238h1.669l-2.108,5.157h-1.579l-2.089-5.157Z"/>
    <path class="uuid-8b34c9ed-ba0f-4dc2-87a2-4b5b075b39d1" d="M462.022,332.509c0-.5.41-.909.91-.909s.909.409.909.909-.41.91-.909.91-.91-.41-.91-.91ZM462.123,334.208h1.619v5.157h-1.619v-5.157Z"/>
    <path class="uuid-8b34c9ed-ba0f-4dc2-87a2-4b5b075b39d1" d="M464.772,336.797c0-1.51,1.16-2.669,2.669-2.669.85,0,1.629.34,2.148.949l-.989.99c-.33-.39-.659-.56-1.1-.56-.64,0-1.119.549-1.119,1.289s.479,1.289,1.119,1.289c.44,0,.77-.17,1.1-.56l.989.989c-.52.609-1.299.949-2.148.949-1.509,0-2.669-1.159-2.669-2.668Z"/>
    <path class="uuid-8b34c9ed-ba0f-4dc2-87a2-4b5b075b39d1" d="M470.013,336.797c0-1.51,1.12-2.669,2.599-2.669,1.489,0,2.539,1.13,2.539,2.729v.35h-3.548c.149.58.619.97,1.209.97.43,0,.79-.149,1.02-.43l1.069.89c-.67.59-1.299.829-2.169.829-1.52,0-2.719-1.169-2.719-2.668ZM473.651,336.287c-.141-.55-.53-.899-1.05-.899-.51,0-.869.329-.999.899h2.049Z"/>
  </g>
  <rect class="uuid-85c793cd-ad0a-457d-be73-90fc84d4c8d7" x="372.667" y="145.906" width="124.308" height="99.31"/>
  <rect class="uuid-09d4b6a9-e078-47fd-875e-37afa8dfaf6b" x="377.934" y="174.829" width="113.774" height="26.037"/>
  <rect class="uuid-09d4b6a9-e078-47fd-875e-37afa8dfaf6b" x="377.934" y="213.755" width="113.774" height="26.037"/>
  <g>
    <path d="M419.359,183.622h5.007v1.02h-3.808v1.949h2.658v.999h-2.658v2.009h3.848v1.02h-5.047v-6.996Z"/>
    <path d="M425.629,185.611h1.13v.819c.38-.59.93-.899,1.579-.899,1.029,0,1.749.729,1.749,1.789v3.298h-1.14v-2.979c0-.729-.43-1.199-1.1-1.199-.459,0-.829.21-1.089.609v3.568h-1.13v-5.007Z"/>
    <path d="M430.64,185.611h1.229l1.399,3.638,1.39-3.638h1.179l-2.059,5.007h-1.1l-2.038-5.007Z"/>
    <path d="M436.27,188.119c0-1.479,1.079-2.588,2.519-2.588,1.43,0,2.509,1.109,2.509,2.588s-1.079,2.589-2.509,2.589c-1.439,0-2.519-1.109-2.519-2.589ZM440.188,188.119c0-.929-.59-1.629-1.399-1.629-.819,0-1.409.7-1.409,1.629,0,.939.59,1.63,1.409,1.63.81,0,1.399-.69,1.399-1.63Z"/>
    <path d="M442.119,192.737v-.979c.13.029.29.04.439.04.399,0,.64-.181.81-.57l.229-.56-1.889-5.057h1.249l1.279,3.708,1.39-3.708h1.239l-2.398,5.876c-.39.97-.85,1.319-1.789,1.319-.16,0-.36-.02-.56-.069Z"/>
    <path d="M449.938,185.611h1.109v.709c.36-.47.92-.749,1.56-.749,1.27,0,2.259,1.129,2.259,2.548,0,1.43-1.02,2.549-2.329,2.549-.589,0-1.109-.22-1.469-.64v2.679h-1.13v-7.096ZM453.757,188.119c0-.909-.64-1.599-1.489-1.599-.5,0-.909.2-1.199.56v2.089c.29.35.72.56,1.199.56.859,0,1.489-.689,1.489-1.609Z"/>
    <path d="M456.048,185.611h1.13v1.079c.279-.76.76-1.17,1.379-1.17.19.011.32.03.49.101v.989c-.181-.07-.41-.12-.62-.12-.55,0-.999.31-1.249.83v3.298h-1.13v-5.007Z"/>
    <path d="M459.519,188.119c0-1.479,1.079-2.588,2.519-2.588,1.43,0,2.509,1.109,2.509,2.588s-1.079,2.589-2.509,2.589c-1.439,0-2.519-1.109-2.519-2.589ZM463.437,188.119c0-.929-.59-1.629-1.399-1.629-.819,0-1.409.7-1.409,1.629,0,.939.59,1.63,1.409,1.63.81,0,1.399-.69,1.399-1.63Z"/>
    <path d="M466.628,188.04l-1.809-2.429h1.329l1.169,1.648,1.17-1.648h1.269l-1.828,2.458,1.908,2.549h-1.319l-1.259-1.749-1.26,1.749h-1.259l1.889-2.578Z"/>
    <path d="M470.509,192.737v-.979c.13.029.29.04.439.04.399,0,.64-.181.81-.57l.229-.56-1.889-5.057h1.249l1.279,3.708,1.39-3.708h1.239l-2.398,5.876c-.39.97-.85,1.319-1.789,1.319-.16,0-.36-.02-.56-.069Z"/>
  </g>
  <g>
    <path d="M412.151,226.045c0-2.029,1.579-3.608,3.618-3.608,1.069,0,2.089.46,2.729,1.25l-.8.779c-.5-.62-1.189-.949-1.929-.949-1.359,0-2.389,1.089-2.389,2.528s1.029,2.528,2.389,2.528c.739,0,1.429-.329,1.929-.949l.8.779c-.64.79-1.659,1.25-2.729,1.25-2.039,0-3.618-1.579-3.618-3.608Z"/>
    <path d="M419.191,227.044c0-1.479,1.079-2.588,2.519-2.588,1.43,0,2.509,1.109,2.509,2.588s-1.079,2.589-2.509,2.589c-1.439,0-2.519-1.109-2.519-2.589ZM423.109,227.044c0-.929-.59-1.629-1.399-1.629-.819,0-1.409.7-1.409,1.629,0,.939.59,1.63,1.409,1.63.81,0,1.399-.69,1.399-1.63Z"/>
    <path d="M425.391,224.537h1.13v.819c.38-.59.93-.899,1.579-.899,1.029,0,1.749.729,1.749,1.789v3.298h-1.14v-2.979c0-.729-.43-1.199-1.1-1.199-.459,0-.829.21-1.089.609v3.568h-1.13v-5.007Z"/>
    <path d="M431.681,228.245v-2.809h-.999v-.899h.999v-1.38l1.129-.239v1.619h1.39v.899h-1.39v2.559c0,.489.19.68.7.68.22,0,.38-.03.68-.12v.949c-.29.09-.67.14-.97.14-1.01,0-1.539-.479-1.539-1.398Z"/>
    <path d="M434.94,228.104c0-.899.74-1.469,1.919-1.469.47,0,.91.1,1.35.319v-.56c0-.659-.38-.999-1.149-.999-.42,0-.88.12-1.459.39l-.4-.819c.75-.34,1.409-.51,2.079-.51,1.31,0,2.049.659,2.049,1.818v3.269h-1.119v-.52c-.43.42-.909.609-1.489.609-1.05,0-1.779-.63-1.779-1.529ZM437.029,228.833c.45,0,.84-.13,1.18-.419v-.81c-.359-.17-.72-.24-1.149-.24-.649,0-1.06.27-1.06.72,0,.46.4.749,1.029.749Z"/>
    <path d="M440.561,222.827c0-.379.31-.699.7-.699.379,0,.699.32.699.699s-.32.69-.699.69c-.391,0-.7-.311-.7-.69ZM440.69,224.537h1.13v5.007h-1.13v-5.007Z"/>
    <path d="M443.22,224.537h1.13v.819c.38-.59.93-.899,1.579-.899,1.029,0,1.749.729,1.749,1.789v3.298h-1.14v-2.979c0-.729-.43-1.199-1.1-1.199-.459,0-.829.21-1.089.609v3.568h-1.13v-5.007Z"/>
    <path d="M448.811,227.044c0-1.469,1.06-2.588,2.438-2.588,1.369,0,2.369,1.089,2.369,2.588v.271h-3.698c.11.81.72,1.399,1.499,1.399.47,0,.91-.181,1.189-.47l.739.669c-.609.51-1.219.729-1.979.729-1.439,0-2.559-1.129-2.559-2.599ZM452.549,226.615c-.12-.729-.64-1.239-1.31-1.239-.68,0-1.18.49-1.31,1.239h2.619Z"/>
    <path d="M454.77,224.537h1.13v1.079c.279-.76.76-1.17,1.379-1.17.19.011.32.03.49.101v.989c-.181-.07-.41-.12-.62-.12-.55,0-.999.31-1.249.83v3.298h-1.13v-5.007Z"/>
  </g>
  <g>
    <path d="M378.713,156.906h3.418c1.489,0,2.469.97,2.469,2.309,0,1.27-.979,2.249-2.469,2.249h-1.698v2.438h-1.72v-6.996ZM381.821,160.094c.7,0,1.04-.38,1.04-.89,0-.5-.34-.88-1.03-.88h-1.398v1.77h1.389Z"/>
    <path d="M385.033,161.333c0-1.52,1.16-2.669,2.688-2.669s2.688,1.149,2.688,2.669-1.159,2.668-2.688,2.668-2.688-1.149-2.688-2.668ZM388.831,161.333c0-.77-.459-1.319-1.109-1.319s-1.109.55-1.109,1.319.46,1.319,1.109,1.319,1.109-.55,1.109-1.319Z"/>
    <path d="M391.213,161.313c0-1.449,1.06-2.599,2.399-2.599.539,0,1.029.221,1.379.62v-2.549l1.619-.25v7.366h-1.6v-.67c-.34.43-.909.7-1.519.7-1.27,0-2.279-1.17-2.279-2.619ZM394.991,162.183v-1.739c-.25-.26-.59-.399-.96-.399-.709,0-1.229.539-1.229,1.279,0,.729.529,1.269,1.229,1.269.391,0,.71-.14.96-.409Z"/>
  </g>
  <g>
    <line class="uuid-5bf1179f-36b7-40d7-8304-fa226c1040f1" x1="245.138" y1="68.889" x2="245.138" y2="86.488"/>
    <polygon points="241.399 85.394 245.138 91.87 248.878 85.394 241.399 85.394"/>
  </g>
  <g>
    <line class="uuid-5bf1179f-36b7-40d7-8304-fa226c1040f1" x1="245.138" y1="122.321" x2="245.138" y2="139.92"/>
    <polygon points="241.399 138.826 245.138 145.302 248.878 138.826 241.399 138.826"/>
  </g>
  <g>
    <line class="uuid-5bf1179f-36b7-40d7-8304-fa226c1040f1" x1="460.71" y1="122.321" x2="460.71" y2="139.92"/>
    <polygon points="456.97 138.826 460.71 145.302 464.45 138.826 456.97 138.826"/>
  </g>
  <g>
    <line class="uuid-5bf1179f-36b7-40d7-8304-fa226c1040f1" x1="435.828" y1="245.092" x2="435.828" y2="262.691"/>
    <polygon points="432.088 261.597 435.828 268.073 439.568 261.597 432.088 261.597"/>
  </g>
  <g>
    <line class="uuid-5bf1179f-36b7-40d7-8304-fa226c1040f1" x1="435.828" y1="200.992" x2="435.828" y2="208.239"/>
    <polygon points="432.088 207.145 435.828 213.621 439.568 207.145 432.088 207.145"/>
  </g>
  <g>
    <line class="uuid-5bf1179f-36b7-40d7-8304-fa226c1040f1" x1="435.828" y1="299.263" x2="435.828" y2="316.862"/>
    <polygon points="432.088 315.768 435.828 322.245 439.568 315.768 432.088 315.768"/>
  </g>
  <g>
    <line class="uuid-5bf1179f-36b7-40d7-8304-fa226c1040f1" x1="308.063" y1="161.277" x2="367.623" y2="161.277"/>
    <polygon points="366.529 165.016 373.006 161.277 366.529 157.537 366.529 165.016"/>
  </g>
  <g>
    <line class="uuid-5bf1179f-36b7-40d7-8304-fa226c1040f1" x1="308.063" y1="107.301" x2="367.623" y2="107.301"/>
    <polygon points="366.529 111.04 373.006 107.301 366.529 103.561 366.529 111.04"/>
  </g>
  <g>
    <line class="uuid-5bf1179f-36b7-40d7-8304-fa226c1040f1" x1="308.063" y1="53.324" x2="367.623" y2="53.324"/>
    <polygon points="366.529 57.064 373.006 53.324 366.529 49.585 366.529 57.064"/>
  </g>
  <g>
    <line class="uuid-5bf1179f-36b7-40d7-8304-fa226c1040f1" x1="159.713" y1="53.324" x2="177.312" y2="53.324"/>
    <polygon points="176.218 57.064 182.694 53.324 176.218 49.585 176.218 57.064"/>
  </g>
  <g>
    <path d="M199.8,297.627l.879-1.27c.97.68,1.579.93,2.269.93.739,0,1.189-.3,1.189-.74,0-.409-.24-.609-.919-.729l-1.489-.26c-1.109-.189-1.719-.89-1.719-1.879,0-1.359,1.039-2.209,2.778-2.209,1.08,0,2.149.351,2.869.92l-.87,1.249c-.68-.52-1.349-.77-2.089-.77-.68,0-1.069.28-1.069.66,0,.359.229.539.79.64l1.399.239c1.31.22,1.999.91,1.999,1.979,0,1.369-1.159,2.299-2.988,2.299-1.109,0-2.099-.37-3.028-1.06Z"/>
    <path d="M206.66,296.008c0-1.51,1.119-2.669,2.599-2.669,1.489,0,2.539,1.13,2.539,2.729v.35h-3.548c.15.58.62.97,1.209.97.43,0,.79-.149,1.02-.43l1.069.89c-.669.59-1.299.829-2.169.829-1.519,0-2.718-1.169-2.718-2.668ZM210.298,295.498c-.14-.55-.529-.899-1.049-.899-.51,0-.87.329-1,.899h2.049Z"/>
    <path d="M212.81,293.419h1.619v1.169c.33-.859.79-1.269,1.399-1.269.23.01.34.029.54.13v1.389c-.2-.1-.479-.159-.759-.159-.48,0-.919.249-1.18.64v3.258h-1.619v-5.157Z"/>
    <path d="M216.82,293.419h1.759l1.169,3.238,1.179-3.238h1.669l-2.109,5.157h-1.579l-2.089-5.157Z"/>
    <path d="M223.2,291.72c0-.499.41-.909.909-.909s.91.41.91.909-.41.91-.91.91-.909-.41-.909-.91ZM223.3,293.419h1.619v5.157h-1.619v-5.157Z"/>
    <path d="M225.95,296.008c0-1.51,1.159-2.669,2.668-2.669.85,0,1.629.34,2.149.949l-.99.99c-.33-.39-.66-.56-1.099-.56-.64,0-1.12.549-1.12,1.289s.48,1.289,1.12,1.289c.439,0,.77-.17,1.099-.56l.99.989c-.52.609-1.299.949-2.149.949-1.509,0-2.668-1.159-2.668-2.668Z"/>
    <path d="M231.19,296.008c0-1.51,1.119-2.669,2.599-2.669,1.489,0,2.539,1.13,2.539,2.729v.35h-3.548c.15.58.62.97,1.209.97.43,0,.79-.149,1.02-.43l1.069.89c-.669.59-1.299.829-2.169.829-1.519,0-2.718-1.169-2.718-2.668ZM234.828,295.498c-.14-.55-.529-.899-1.049-.899-.51,0-.87.329-1,.899h2.049Z"/>
    <path d="M239.64,291.58h2.159l1.689,3.358,1.679-3.358h2.159v6.996h-1.619v-4.747l-2.239,4.247-2.249-4.287v4.787h-1.579v-6.996Z"/>
    <path d="M248.51,296.008c0-1.51,1.119-2.669,2.599-2.669,1.489,0,2.539,1.13,2.539,2.729v.35h-3.548c.15.58.62.97,1.209.97.43,0,.79-.149,1.02-.43l1.069.89c-.669.59-1.299.829-2.169.829-1.519,0-2.718-1.169-2.718-2.668ZM252.147,295.498c-.14-.55-.529-.899-1.049-.899-.51,0-.87.329-1,.899h2.049Z"/>
    <path d="M254.29,298.047l.709-1.08c.74.39,1.16.52,1.659.52.459,0,.74-.159.74-.419,0-.2-.15-.311-.48-.37l-.989-.18c-1-.19-1.52-.7-1.52-1.499,0-1.05.81-1.68,2.159-1.68.719,0,1.429.2,2.099.59l-.74,1.029c-.52-.3-.999-.439-1.479-.439-.39,0-.62.13-.62.35,0,.21.13.3.53.37l.969.18c1.02.189,1.549.71,1.549,1.489,0,1.01-.95,1.769-2.219,1.769-.939,0-1.769-.22-2.369-.629Z"/>
    <path d="M259.819,291.46l1.619-.25v3.049c.4-.6.959-.92,1.629-.92,1,0,1.709.729,1.709,1.759v3.479h-1.619v-3.009c0-.579-.34-.959-.859-.959-.35,0-.63.14-.86.43v3.538h-1.619v-7.116Z"/>
  </g>
  <rect class="uuid-e6858c38-ca40-41f1-82bb-038527be72c3" x="424.445" y="145.906" width="72.53" height="19.892"/>
  <g>
    <path d="M432.801,151.626h1.199v5.957h3.728v1.039h-4.927v-6.996Z"/>
    <path d="M438.66,157.183c0-.899.74-1.469,1.919-1.469.47,0,.91.1,1.35.319v-.56c0-.659-.38-.999-1.149-.999-.42,0-.88.12-1.459.39l-.4-.819c.75-.34,1.409-.51,2.079-.51,1.31,0,2.049.659,2.049,1.818v3.269h-1.119v-.52c-.43.42-.909.609-1.489.609-1.05,0-1.779-.63-1.779-1.529ZM440.749,157.913c.45,0,.84-.13,1.18-.419v-.81c-.359-.17-.72-.24-1.149-.24-.649,0-1.06.27-1.06.72,0,.46.4.749,1.029.749Z"/>
    <path d="M444.42,151.487l1.13-.19v2.988c.35-.439.909-.709,1.539-.709,1.27,0,2.259,1.129,2.259,2.548,0,1.43-1.02,2.549-2.329,2.549-.589,0-1.109-.239-1.489-.689v.64h-1.109v-7.136ZM448.238,156.124c0-.909-.64-1.599-1.489-1.599-.5,0-.909.2-1.199.56v2.089c.29.35.72.56,1.199.56.859,0,1.489-.689,1.489-1.609Z"/>
    <path d="M450.301,156.124c0-1.469,1.06-2.588,2.438-2.588,1.369,0,2.369,1.089,2.369,2.588v.271h-3.698c.11.81.72,1.399,1.499,1.399.47,0,.91-.181,1.189-.47l.739.669c-.609.51-1.219.729-1.979.729-1.439,0-2.559-1.129-2.559-2.599ZM454.039,155.694c-.12-.729-.64-1.239-1.31-1.239-.68,0-1.18.49-1.31,1.239h2.619Z"/>
    <path d="M456.26,151.457l1.13-.2v7.366h-1.13v-7.166Z"/>
    <path d="M461.199,155.144l3.349-2.718.58.68-2.559,2.019,2.559,2.049-.601.689-3.328-2.719Z"/>
    <path d="M467.029,151.436l1.13-.189v4.497l2.079-2.128h1.299l-2.309,2.318,2.429,2.688h-1.439l-2.059-2.309v2.309h-1.13v-7.187Z"/>
    <path d="M472.64,157.643h1.14l-.97,2.639h-.84l.67-2.639Z"/>
    <path d="M476.55,151.626h1.29l2.148,5.776,2.169-5.776h1.239l-2.738,6.996h-1.39l-2.719-6.996Z"/>
    <path d="M488.587,155.144l-3.348,2.719-.58-.68,2.559-2.019-2.559-2.049.6-.689,3.328,2.718Z"/>
  </g>
  <g>
    <path d="M395.92,127.958l1.13-.2v7.366h-1.13v-7.166Z"/>
    <path d="M398.18,133.685c0-.899.74-1.469,1.919-1.469.47,0,.91.1,1.35.319v-.56c0-.659-.38-.999-1.149-.999-.42,0-.88.12-1.459.39l-.4-.819c.75-.34,1.409-.51,2.079-.51,1.31,0,2.049.659,2.049,1.818v3.269h-1.119v-.52c-.43.42-.909.609-1.489.609-1.05,0-1.779-.63-1.779-1.529ZM400.269,134.415c.45,0,.84-.13,1.18-.419v-.81c-.359-.17-.72-.24-1.149-.24-.649,0-1.06.27-1.06.72,0,.46.4.749,1.029.749Z"/>
    <path d="M403.939,127.989l1.13-.19v2.988c.35-.439.909-.709,1.539-.709,1.27,0,2.259,1.129,2.259,2.548,0,1.43-1.02,2.549-2.329,2.549-.589,0-1.109-.239-1.489-.689v.64h-1.109v-7.136ZM407.758,132.625c0-.909-.64-1.599-1.489-1.599-.5,0-.909.2-1.199.56v2.089c.29.35.72.56,1.199.56.859,0,1.489-.689,1.489-1.609Z"/>
    <path d="M409.82,132.625c0-1.469,1.06-2.588,2.438-2.588,1.369,0,2.369,1.089,2.369,2.588v.271h-3.698c.11.81.72,1.399,1.499,1.399.47,0,.91-.181,1.189-.47l.739.669c-.609.51-1.219.729-1.979.729-1.439,0-2.559-1.129-2.559-2.599ZM413.559,132.196c-.12-.729-.64-1.239-1.31-1.239-.68,0-1.18.49-1.31,1.239h2.619Z"/>
    <path d="M415.779,127.958l1.13-.2v7.366h-1.13v-7.166Z"/>
    <path d="M420.101,134.544l.529-.749c.66.409,1.1.569,1.609.569.6,0,1.01-.279,1.01-.68,0-.31-.21-.47-.7-.569l-.879-.15c-.979-.18-1.449-.629-1.449-1.379,0-.939.77-1.549,1.938-1.549.7,0,1.329.199,1.969.6l-.529.749c-.51-.329-1-.479-1.509-.479-.521,0-.86.22-.86.58,0,.319.181.459.7.55l.89.17c.999.18,1.479.64,1.479,1.389,0,.92-.879,1.629-2.049,1.629-.859,0-1.619-.239-2.148-.68Z"/>
    <path d="M425.16,132.625c0-1.469,1.06-2.588,2.438-2.588,1.369,0,2.369,1.089,2.369,2.588v.271h-3.698c.11.81.72,1.399,1.499,1.399.47,0,.91-.181,1.189-.47l.739.669c-.609.51-1.219.729-1.979.729-1.439,0-2.559-1.129-2.559-2.599ZM428.898,132.196c-.12-.729-.64-1.239-1.31-1.239-.68,0-1.18.49-1.31,1.239h2.619Z"/>
    <path d="M431.119,127.958l1.13-.2v7.366h-1.13v-7.166Z"/>
    <path d="M433.41,132.625c0-1.469,1.06-2.588,2.438-2.588,1.369,0,2.369,1.089,2.369,2.588v.271h-3.698c.11.81.72,1.399,1.499,1.399.47,0,.91-.181,1.189-.47l.739.669c-.609.51-1.219.729-1.979.729-1.439,0-2.559-1.129-2.559-2.599ZM437.148,132.196c-.12-.729-.64-1.239-1.31-1.239-.68,0-1.18.49-1.31,1.239h2.619Z"/>
    <path d="M439.16,132.625c0-1.449,1.1-2.588,2.528-2.588.78,0,1.499.31,1.999.85l-.699.729c-.35-.39-.779-.59-1.26-.59-.81,0-1.439.699-1.439,1.599,0,.91.63,1.6,1.439,1.6.48,0,.91-.2,1.26-.58l.699.72c-.5.54-1.219.85-1.999.85-1.429,0-2.528-1.129-2.528-2.589Z"/>
    <path d="M445.339,133.826v-2.809h-.999v-.899h.999v-1.38l1.129-.239v1.619h1.39v.899h-1.39v2.559c0,.489.19.68.7.68.22,0,.38-.03.68-.12v.949c-.29.09-.67.14-.97.14-1.01,0-1.539-.479-1.539-1.398Z"/>
    <path d="M448.55,132.625c0-1.479,1.079-2.588,2.519-2.588,1.43,0,2.509,1.109,2.509,2.588s-1.079,2.589-2.509,2.589c-1.439,0-2.519-1.109-2.519-2.589ZM452.468,132.625c0-.929-.59-1.629-1.399-1.629-.819,0-1.409.7-1.409,1.629,0,.939.59,1.63,1.409,1.63.81,0,1.399-.69,1.399-1.63Z"/>
    <path d="M454.749,130.118h1.13v1.079c.279-.76.76-1.17,1.379-1.17.19.011.32.03.49.101v.989c-.18-.07-.41-.12-.62-.12-.55,0-.999.31-1.249.83v3.298h-1.13v-5.007Z"/>
  </g>
  <g>
    <path class="uuid-fc3ea0c7-0376-426b-bf48-2c6c898cd9fe" d="M396.135,181.082l7.261-3.149.997-.17c2.176,1.306,4.391,2.573,6.524,3.947.432.278,1.682.933,1.772,1.405.075.396-.026.968.004,1.408.117,1.702.076,3.355.112,5.064.014.683.468,1.685-.317,2.144l-7.32,3.148c-.527.136-.688.049-1.143-.159-2.447-1.119-4.964-3.358-7.442-4.557-.321-.204-.449-.57-.478-.934.152-2.467-.333-5.086-.123-7.534.018-.214.015-.432.152-.613ZM398.124,189.151l6.343,3.842.343.011,6.061-2.656c.172-2.214-.159-4.409-.08-6.629-2.104-1.451-4.324-2.753-6.529-4.051l-6.337,2.674c-.181.408.055.825.068,1.236.058,1.86-.099,3.724.132,5.574Z"/>
    <path class="uuid-4edc2141-58e0-492c-a4c5-c252130f8466" d="M395.281,184.993c-.086.278-2.195.892-2.239,1.079l.182,5.096,4.878,3.012c.373.105,1.864-.909,2.279-.87.094.009,1.583.886,1.607.977.063.237-.11.166-.237.227-.684.33-2.399,1.133-3.053,1.304-.215.056-.421.096-.644.053l-6.407-3.949c-.327-2.217-.258-4.525-.224-6.789.145-.481,3.265-1.502,3.859-1.846-.085.447.116,1.331,0,1.706Z"/>
    <path class="uuid-9fd1b377-c0db-46d5-abf7-904c42e8f95e" d="M390.34,186.934l.353.118c.021.2.032,1.193-.019,1.275-.071.113-1.485.579-1.726.743-.053.303-.009.616-.019.923-.177.016-.177.336,0,.353-.009.469-.004.943,0,1.412-.246.256-.073.735-.115,1.06.061-.006.107-.12.115-.119.085.012.189.254.312.334,1.05.684,2.169,1.271,3.213,1.967.578.266,1.329-.528,1.829-.529.205,0,1.535.844,1.469.932-.786.121-2.503,1.308-3.177,1.127l-4.766-2.887c-.458-.429-.276-1.397-.291-2.002.195-.149.195-.675,0-.823-.003-.391-.007-.786,0-1.176.2-.338.196-1.098,0-1.412.065-.207,2.439-1.167,2.823-1.294Z"/>
    <path class="uuid-9fd1b377-c0db-46d5-abf7-904c42e8f95e" d="M395.388,189.039c-.196.25-1.532-.615-1.579-.692-.178-.289.009-1.155-.056-1.531.258.225,1.473.752,1.589.939.156.253.022.956.046,1.283Z"/>
    <path class="uuid-9fd1b377-c0db-46d5-abf7-904c42e8f95e" d="M397.751,193.051c-1.002-.336-2.056-.937-1.354-2.111,1.238.438,1.535.74,1.354,2.111Z"/>
    <path class="uuid-e6328026-abf5-45b0-9f44-26aa2b4bd20d" d="M387.517,189.64c.008-.469-.006-.942,0-1.412.196.314.2,1.074,0,1.412Z"/>
    <path class="uuid-e6328026-abf5-45b0-9f44-26aa2b4bd20d" d="M388.929,192.228v.235c-.015.069.01.16,0,.235-.008-.001-.054.113-.115.119.042-.325-.131-.804.115-1.06.001.157-.003.314,0,.471Z"/>
    <path class="uuid-e6328026-abf5-45b0-9f44-26aa2b4bd20d" d="M387.517,191.64c-.007-.274.002-.549,0-.823.195.149.195.675,0,.823Z"/>
    <path class="uuid-e6328026-abf5-45b0-9f44-26aa2b4bd20d" d="M390.34,186.934c.107-.035.207-.149.352-.117.007.077-.007.158,0,.235l-.353-.118Z"/>
    <path class="uuid-e6328026-abf5-45b0-9f44-26aa2b4bd20d" d="M388.929,190.346c-.177-.016-.177-.336,0-.353-.004.117.002.235,0,.353Z"/>
    <path class="uuid-9fd1b377-c0db-46d5-abf7-904c42e8f95e" d="M388.929,192.463v-.235c.001.078.051-.005,0,.235Z"/>
    <path class="uuid-4edc2141-58e0-492c-a4c5-c252130f8466" d="M404.692,192.227c-.078.088-1.564-.824-1.624-1.022-.107-1.419-.164-2.829-.16-4.252l-4.1-2.429c-.266-.298-.046-1.276-.116-1.707.123-.128,1.843.968,2.107,1.127.509.307,3.6,2.153,3.714,2.403.227,1.952.182,3.916.177,5.88Z"/>
  </g>
  <g>
    <path class="uuid-2081a46c-e2e2-44fe-be74-96ea1f4df2f1" d="M182.11,285.735l10.096-.003c2.131.235,3.841,1.953,4.067,4.084v10.039c-.231,2.145-1.953,3.87-4.108,4.086h-9.996c-2.147-.212-3.881-1.939-4.108-4.086v-9.997c.199-2.144,1.909-3.883,4.049-4.123ZM193.556,286.837c-.647-.344-1.184-.46-1.927-.486-2.954.076-5.956-.099-8.904,0-2.37.079-3.961,1.646-4.044,4.022-.102,2.961.08,5.98,0,8.947.085,2.357,1.684,3.917,4.043,4.001,2.946.104,5.952-.081,8.904,0,2.075.006,3.819-1.539,4-3.615-.037-3.068.122-6.202.023-9.267-.051-1.579-.677-2.844-2.096-3.6Z"/>
    <path class="uuid-077b83bb-682f-4851-bc2e-39bc40ea2187" d="M193.556,286.837c1.419.756,2.044,2.021,2.096,3.6.1,3.066-.059,6.199-.023,9.267-.181,2.077-1.924,3.621-4,3.615-2.952-.081-5.959.105-8.904,0-2.36-.084-3.958-1.644-4.043-4.001.079-2.967-.103-5.986,0-8.947.082-2.376,1.674-3.943,4.044-4.022,2.948-.098,5.95.077,8.904,0,.742.026,1.28.142,1.927.486ZM186.513,290.342c-.18.369-.451.719-.774.974-.671.529-1.513.714-2.357.635-.304-.794-1.681-.592-1.608.439.037.533.525.817,1.029.74.046.148.145.282.208.424.387.866.412,1.701.035,2.575-.06.14-.147.268-.2.411-.705-.207-1.298.534-.995,1.198.317.694,1.444.596,1.574-.19.07.011.135-.019.203-.022.588-.031,1.232.116,1.726.421.518.32.923.802,1.203,1.339-.233.201-.283.716-.154.98.305.624,1.226.624,1.531,0,.128-.261.078-.779-.154-.98.052-.148.148-.309.235-.44.646-.966,1.755-1.359,2.896-1.276.144.816,1.386.843,1.619.064.184-.614-.345-1.251-.976-1.115-.07-.145-.159-.284-.222-.432-.342-.794-.373-1.618-.049-2.424.074-.185.19-.345.25-.533.796.124,1.327-.672.872-1.334-.379-.552-1.37-.391-1.494.304-.071.013-.155.038-.226.043-.478.033-1.083-.098-1.509-.314-.604-.306-1.085-.852-1.398-1.445.243-.203.28-.743.138-1.007-.297-.552-1.1-.6-1.455-.085-.197.285-.188.792.051,1.049Z"/>
    <path class="uuid-6fdfc03f-2a1f-44a2-996a-936b411f6dc7" d="M187.778,290.385c.313.592.793,1.138,1.398,1.445.425.216,1.031.347,1.509.314.071-.005.154-.03.226-.043-.076.427.16.957.622,1.03-.06.187-.176.348-.25.533-.323.806-.293,1.63.049,2.424.064.148.153.287.222.432-.011.002-.188.086-.212.099-.37.204-.504.541-.431.952-1.142-.083-2.25.309-2.896,1.276-.088.131-.183.292-.235.44-.336-.29-.889-.289-1.223,0-.28-.537-.685-1.019-1.203-1.339-.494-.305-1.138-.452-1.726-.421-.068.004-.133.033-.203.022.069-.418-.147-.882-.579-1.008.053-.143.14-.271.2-.411.377-.874.352-1.71-.035-2.575-.064-.142-.162-.276-.208-.424.513-.078.754-.723.579-1.18.844.079,1.687-.106,2.357-.635.323-.255.594-.605.774-.974.316.339.92.331,1.266.043ZM187.478,291.2v3.067l2.617-1.427c0-.094-.186-.069-.242-.08-.542-.111-1.06-.327-1.501-.66-.337-.254-.593-.59-.875-.9ZM186.813,291.221c-.05-.012-.035.009-.049.027-.582.751-1.296,1.17-2.234,1.325-.153.025-.231.029-.387.042-.051.004-.141.009-.118.075l2.789,1.512v-2.982ZM190.717,296.412c.021-.023-.13-.374-.151-.439-.214-.676-.236-1.405-.054-2.093.058-.219.161-.423.216-.642l-2.842,1.576.022.063,2.809,1.535ZM183.66,296.391l2.766-1.513.022-.063-2.81-1.555c.054.231.166.452.226.686.218.845.123,1.646-.204,2.446ZM186.856,295.404l-2.617,1.427c.027.112.154.064.241.08.745.141,1.442.528,1.961,1.075.117.124.225.303.34.422.022.023.037.05.075.043v-3.046ZM187.478,295.404v2.982c.036.008.043-.011.064-.033.093-.096.176-.233.268-.332.399-.428.998-.785,1.56-.95.262-.077.528-.104.797-.144.029-.004.011-.03.015-.053l-2.703-1.469Z"/>
    <path class="uuid-dc0fc6dc-bcd9-4fae-acb2-8ba2091def10" d="M191.554,296.519c.631-.136,1.16.502.976,1.115-.234.779-1.476.752-1.619-.064-.072-.412.062-.748.431-.952.024-.013.201-.096.212-.099ZM191.699,297.166c-.329.054-.111.585.156.33.142-.136.006-.356-.156-.33Z"/>
    <path class="uuid-dc0fc6dc-bcd9-4fae-acb2-8ba2091def10" d="M182.845,296.541c.432.127.649.59.579,1.008-.13.786-1.257.885-1.574.19-.303-.664.29-1.405.995-1.198ZM182.582,297.167c-.248.04-.184.402.037.402.254,0,.228-.445-.037-.402Z"/>
    <path class="uuid-dc0fc6dc-bcd9-4fae-acb2-8ba2091def10" d="M186.513,290.342c-.239-.256-.248-.764-.051-1.049.355-.515,1.158-.467,1.455.085.142.264.105.804-.138,1.007-.345.288-.949.296-1.266-.043ZM187.151,289.573c-.358.052-.091.593.156.329.131-.14-.014-.35-.156-.329Z"/>
    <path class="uuid-dc0fc6dc-bcd9-4fae-acb2-8ba2091def10" d="M190.91,292.101c.124-.695,1.115-.856,1.494-.304.455.662-.076,1.458-.872,1.334-.462-.072-.698-.603-.622-1.03ZM191.698,292.104c-.315.046-.121.576.146.341.166-.146-.005-.361-.146-.341Z"/>
    <path class="uuid-dc0fc6dc-bcd9-4fae-acb2-8ba2091def10" d="M183.381,291.95c.175.457-.066,1.102-.579,1.18-.504.077-.992-.207-1.029-.74-.072-1.032,1.304-1.233,1.608-.439ZM182.603,292.105c-.271.023-.218.416.014.403.256-.014.227-.424-.014-.403Z"/>
    <path class="uuid-dc0fc6dc-bcd9-4fae-acb2-8ba2091def10" d="M187.778,299.286c.232.2.281.718.154.98-.305.624-1.226.624-1.531,0-.129-.264-.079-.778.154-.98.334-.289.887-.29,1.223,0ZM187.151,299.698c-.238.021-.245.425.057.381.245-.035.162-.4-.057-.381Z"/>
    <path class="uuid-014ebc3c-38e6-48d7-b043-c9a7189d13ac" d="M190.717,296.412l-2.809-1.535-.022-.063,2.842-1.576c-.054.219-.158.423-.216.642-.182.689-.16,1.417.054,2.093.02.065.172.416.151.439Z"/>
    <path class="uuid-014ebc3c-38e6-48d7-b043-c9a7189d13ac" d="M183.66,296.391c.327-.8.422-1.601.204-2.446-.06-.233-.172-.455-.226-.686l2.81,1.555-.022.063-2.766,1.513Z"/>
    <path class="uuid-077b83bb-682f-4851-bc2e-39bc40ea2187" d="M186.813,291.221v2.982l-2.789-1.512c-.023-.066.068-.071.118-.075.156-.013.234-.017.387-.042.938-.155,1.652-.574,2.234-1.325.014-.018,0-.039.049-.027Z"/>
    <path class="uuid-014ebc3c-38e6-48d7-b043-c9a7189d13ac" d="M187.478,295.404l2.703,1.469c-.004.023.014.049-.015.053-.269.04-.534.067-.797.144-.561.165-1.161.523-1.56.95-.092.099-.175.237-.268.332-.021.021-.028.04-.064.033v-2.982Z"/>
    <path class="uuid-014ebc3c-38e6-48d7-b043-c9a7189d13ac" d="M186.856,295.404v3.046c-.038.007-.053-.019-.075-.043-.115-.118-.223-.298-.34-.422-.518-.547-1.215-.934-1.961-1.075-.087-.016-.215.032-.241-.08l2.617-1.427Z"/>
    <path class="uuid-014ebc3c-38e6-48d7-b043-c9a7189d13ac" d="M187.478,291.2c.282.31.538.646.875.9.442.334.959.549,1.501.66.056.011.242-.013.242.08l-2.617,1.427v-3.067Z"/>
    <path class="uuid-2081a46c-e2e2-44fe-be74-96ea1f4df2f1" d="M191.699,297.166c.163-.027.299.194.156.33-.267.255-.485-.276-.156-.33Z"/>
    <path class="uuid-2081a46c-e2e2-44fe-be74-96ea1f4df2f1" d="M182.582,297.167c.265-.043.291.402.037.402-.221,0-.286-.362-.037-.402Z"/>
    <path class="uuid-2081a46c-e2e2-44fe-be74-96ea1f4df2f1" d="M187.151,289.573c.142-.021.287.189.156.329-.247.263-.514-.277-.156-.329Z"/>
    <path class="uuid-2081a46c-e2e2-44fe-be74-96ea1f4df2f1" d="M191.698,292.104c.141-.021.313.194.146.341-.267.235-.462-.295-.146-.341Z"/>
    <path class="uuid-2081a46c-e2e2-44fe-be74-96ea1f4df2f1" d="M182.603,292.105c.241-.02.271.389.014.403-.232.013-.285-.38-.014-.403Z"/>
    <path class="uuid-2081a46c-e2e2-44fe-be74-96ea1f4df2f1" d="M187.151,299.698c.219-.019.303.346.057.381-.302.044-.295-.361-.057-.381Z"/>
  </g>
</svg>